<svg width="24" height="24" viewBox="0 0 24 24" fill="none" xmlns="http://www.w3.org/2000/svg">
<rect width="24" height="24" rx="6" fill="#FA5022" style="fill:#FA5022;fill:color(display-p3 0.9804 0.3137 0.1333);fill-opacity:1;"/>
<g clip-path="url(#clip0_4013_90)">
<path d="M20.0877 10.5604V11.1163C19.785 10.712 19.3454 10.4595 18.8236 10.4595C17.8166 10.4595 17.0363 11.3972 17.0363 12.5546C17.0363 13.712 17.8166 14.6498 18.8236 14.6498C19.3822 14.6498 19.8464 14.361 20.1498 13.9059V14.5496H21.1131V10.5604H20.0877ZM19.0737 13.6507C18.5139 13.6507 18.0604 13.1601 18.0604 12.5546C18.0604 11.9492 18.5139 11.4586 19.0737 11.4586C19.6336 11.4586 20.0871 11.9492 20.0871 12.5546C20.0871 13.1601 19.6336 13.6507 19.0737 13.6507ZM8.2792 9.45309H9.30394V14.5489H8.2792V9.45309ZM10.4826 12.2882C10.4826 11.1915 11.1292 10.4601 12.0247 10.4601C12.5808 10.4601 13.0203 10.7173 13.2851 11.1559C13.5504 10.7173 13.9893 10.4601 14.5454 10.4601C15.4409 10.4601 16.0876 11.1915 16.0876 12.2882V14.5496H15.0628V12.1728C15.0628 11.7448 14.7905 11.4658 14.4301 11.4658C14.0698 11.4658 13.7974 11.7455 13.7974 12.1728V14.5496H12.7727V12.1728C12.7727 11.7448 12.5004 11.4658 12.14 11.4658C11.7796 11.4658 11.5073 11.7455 11.5073 12.1728V14.5496H10.4826V12.2882ZM6.42353 10.6019C6.18097 9.65555 5.66797 9.35284 5.17967 9.35284C4.69137 9.35284 4.17837 9.65555 3.9358 10.6019L2.88257 14.5502H3.9206C4.0897 13.8908 4.61093 13.5234 5.17967 13.5234C5.7484 13.5234 6.26963 13.8914 6.43873 14.5502H7.4774L6.42353 10.6019ZM5.17967 12.6034C4.84907 12.6034 4.5495 12.734 4.32847 12.9457L4.9238 10.6481C4.9808 10.4285 5.06504 10.3586 5.1803 10.3586C5.29557 10.3586 5.3798 10.4285 5.4368 10.6481L6.0315 12.9457C5.81047 12.734 5.51027 12.6034 5.17967 12.6034Z" fill="white" style="fill:white;fill-opacity:1;"/>
</g>
<defs>
<clipPath id="clip0_4013_90">
<rect width="19" height="6" fill="white" style="fill:white;fill-opacity:1;" transform="translate(2.5 9)"/>
</clipPath>
</defs>
</svg>
