<svg width="32" height="32" viewBox="0 0 32 32" fill="none" xmlns="http://www.w3.org/2000/svg">
<g clip-path="url(#clip0_4013_82)">
<rect width="32" height="32" fill="#FA5022" style="fill:#FA5022;fill:color(display-p3 0.9804 0.3137 0.1333);fill-opacity:1;"/>
<g clip-path="url(#clip1_4013_82)">
<path d="M26.6418 14.3204V14.969C26.2434 14.4974 25.6651 14.2027 24.9784 14.2027C23.6534 14.2027 22.6268 15.2968 22.6268 16.6471C22.6268 17.9974 23.6534 19.0914 24.9784 19.0914C25.7134 19.0914 26.3243 18.7544 26.7234 18.2236V18.9745H27.9909V14.3204H26.6418ZM25.3076 17.9258C24.5709 17.9258 23.9743 17.3534 23.9743 16.6471C23.9743 15.9407 24.5709 15.3683 25.3076 15.3683C26.0443 15.3683 26.6409 15.9407 26.6409 16.6471C26.6409 17.3534 26.0443 17.9258 25.3076 17.9258ZM11.1043 13.0286H12.4526V18.9737H11.1043V13.0286ZM14.0034 16.3362C14.0034 15.0567 14.8543 14.2034 16.0326 14.2034C16.7643 14.2034 17.3426 14.5035 17.6909 15.0152C18.0401 14.5035 18.6176 14.2034 19.3493 14.2034C20.5276 14.2034 21.3784 15.0567 21.3784 16.3362V18.9745H20.0301V16.2016C20.0301 15.7022 19.6718 15.3768 19.1976 15.3768C18.7234 15.3768 18.3651 15.703 18.3651 16.2016V18.9745H17.0168V16.2016C17.0168 15.7022 16.6584 15.3768 16.1842 15.3768C15.7101 15.3768 15.3518 15.703 15.3518 16.2016V18.9745H14.0034V16.3362ZM8.66258 14.3689C8.34342 13.2648 7.66842 12.9116 7.02592 12.9116C6.38342 12.9116 5.70842 13.2648 5.38925 14.3689L4.00342 18.9753H5.36925C5.59175 18.2059 6.27758 17.7773 7.02592 17.7773C7.77425 17.7773 8.46008 18.2066 8.68258 18.9753H10.0493L8.66258 14.3689ZM7.02592 16.704C6.59092 16.704 6.19675 16.8563 5.90592 17.1033L6.68925 14.4227C6.76425 14.1665 6.87508 14.085 7.02675 14.085C7.17842 14.085 7.28925 14.1665 7.36425 14.4227L8.14675 17.1033C7.85592 16.8563 7.46092 16.704 7.02592 16.704Z" fill="white" style="fill:white;fill-opacity:1;"/>
</g>
</g>
<defs>
<clipPath id="clip0_4013_82">
<rect width="32" height="32" rx="8" fill="white" style="fill:white;fill-opacity:1;"/>
</clipPath>
<clipPath id="clip1_4013_82">
<rect width="25" height="7" fill="white" style="fill:white;fill-opacity:1;" transform="translate(3.5 12.5)"/>
</clipPath>
</defs>
</svg>
