<svg width="24" height="24" viewBox="0 0 24 24" fill="none" xmlns="http://www.w3.org/2000/svg">
<rect x="0.5" y="0.5" width="23" height="23" rx="5.5" fill="white" style="fill:white;fill-opacity:1;"/>
<rect x="0.5" y="0.5" width="23" height="23" rx="5.5" stroke="black" style="stroke:black;stroke-opacity:1;"/>
<path fill-rule="evenodd" clip-rule="evenodd" d="M6.80258 9.13344C6.99383 8.89569 7.12283 8.57619 7.08833 8.24994C6.81008 8.26344 6.47033 8.43369 6.27383 8.67144C6.09683 8.87544 5.94083 9.20844 5.98133 9.52119C6.29408 9.54819 6.60608 9.36444 6.80333 9.13344H6.80258ZM7.08458 9.58269C6.63083 9.55494 6.24458 9.83994 6.02783 9.83994C5.81108 9.83994 5.47958 9.59619 5.12033 9.60294C4.65308 9.60969 4.21958 9.87294 3.98258 10.2937C3.49508 11.1337 3.85358 12.3809 4.32758 13.0657C4.55858 13.4047 4.83608 13.7774 5.20133 13.7639C5.54633 13.7504 5.68283 13.5404 6.10283 13.5404C6.52283 13.5404 6.64433 13.7639 7.01033 13.7579C7.38908 13.7504 7.62683 13.4182 7.85708 13.0792C8.12108 12.6929 8.22908 12.3202 8.23583 12.2999C8.22908 12.2924 7.50458 12.0149 7.49783 11.1817C7.49033 10.4842 8.06708 10.1519 8.09408 10.1317C7.76858 9.65019 7.26083 9.59619 7.08458 9.58269ZM10.4926 11.3227H11.3978C12.0848 11.3227 12.4756 10.9529 12.4756 10.3117C12.4756 9.67044 12.0848 9.30369 11.4008 9.30369H10.4926V11.3227ZM11.6086 8.63769C12.5956 8.63769 13.2826 9.31794 13.2826 10.3079C13.2826 11.3017 12.5813 11.9849 11.5846 11.9849H10.4918V13.7219H9.70283V8.63769H11.6086ZM15.8738 12.3404V12.0554L14.9963 12.1117C14.5028 12.1432 14.2463 12.3262 14.2463 12.6472C14.2463 12.9569 14.5133 13.1579 14.9326 13.1579C15.4681 13.1579 15.8738 12.8159 15.8738 12.3404ZM13.4776 12.6682C13.4776 12.0164 13.9748 11.6429 14.8906 11.5867L15.8731 11.5267V11.2447C15.8731 10.8322 15.6023 10.6072 15.1193 10.6072C14.7218 10.6072 14.4323 10.8112 14.3723 11.1247H13.6606C13.6823 10.4662 14.3018 9.98694 15.1411 9.98694C16.0426 9.98694 16.6313 10.4594 16.6313 11.1922V13.7219H15.9016V13.1122H15.8843C15.6766 13.5097 15.2183 13.7602 14.7218 13.7602C13.9891 13.7602 13.4776 13.3237 13.4776 12.6682ZM17.3026 15.0824V14.4727C17.3521 14.4794 17.4721 14.4862 17.5351 14.4862C17.8838 14.4862 18.0811 14.3384 18.2011 13.9582L18.2716 13.7332L16.9366 10.0334H17.7608L18.6908 13.0349H18.7088L19.6388 10.0334H20.4413L19.0576 13.9192C18.7403 14.8109 18.3773 15.1034 17.6093 15.1034C17.5493 15.1034 17.3558 15.0959 17.3026 15.0817V15.0824Z" fill="#111111" style="fill:#111111;fill:color(display-p3 0.0667 0.0667 0.0667);fill-opacity:1;"/>
</svg>
