<svg width="40" height="40" viewBox="0 0 40 40" fill="none" xmlns="http://www.w3.org/2000/svg">
<rect x="0.5" y="0.5" width="39" height="39" rx="9.5" fill="white" style="fill:white;fill-opacity:1;"/>
<rect x="0.5" y="0.5" width="39" height="39" rx="9.5" stroke="#EEEEEE" style="stroke:#EEEEEE;stroke:color(display-p3 0.9333 0.9333 0.9333);stroke-opacity:1;"/>
<g clip-path="url(#clip0_2537_303)">
<path d="M27.6064 23.4372L27.5054 24.0063C27.2421 23.9181 24.7271 23.3315 24.6917 25.2018C24.6633 26.6995 26.9511 26.5135 27.4754 26.3738L27.5341 26.9945C25.8145 27.476 23.5293 26.9542 23.4817 25.1876C23.4272 23.1508 26.449 22.8964 27.6064 23.4372Z" fill="#231F20" style="fill:#231F20;fill:color(display-p3 0.1373 0.1216 0.1255);fill-opacity:1;"/>
<path d="M27.6064 23.4371L27.5054 24.0063C27.2421 23.9181 24.7271 23.3314 24.6917 25.2017C24.6633 26.6994 26.9511 26.5135 27.4754 26.3737L27.5341 26.9944C25.8145 27.476 23.5293 26.9541 23.4817 25.1875C23.4272 23.1507 26.449 22.8964 27.6064 23.4371Z" stroke="#231F20" style="stroke:#231F20;stroke:color(display-p3 0.1373 0.1216 0.1255);stroke-opacity:1;" stroke-width="0.200756"/>
<path d="M29.3855 27.0961L29.3852 23.8887L27.8398 23.8891V23.2766L31.9937 23.2756L31.994 23.888L30.4781 23.8884L30.4785 27.0958L29.3855 27.0961Z" fill="#231F20" style="fill:#231F20;fill:color(display-p3 0.1373 0.1216 0.1255);fill-opacity:1;"/>
<path d="M29.3855 27.0961L29.3852 23.8887L27.8398 23.8891V23.2766L31.9937 23.2756L31.994 23.888L30.4781 23.8884L30.4785 27.0958L29.3855 27.0961Z" stroke="#231F20" style="stroke:#231F20;stroke:color(display-p3 0.1373 0.1216 0.1255);stroke-opacity:1;" stroke-width="0.200756"/>
<path d="M20.1184 23.2502L23.1818 23.2492L23.1821 23.89L21.141 23.8904L21.1417 27.0688H20.119L20.1184 23.2502Z" fill="#231F20" style="fill:#231F20;fill:color(display-p3 0.1373 0.1216 0.1255);fill-opacity:1;"/>
<path d="M20.1184 23.2502L23.1818 23.2492L23.1821 23.89L21.141 23.8903L21.1417 27.0687H20.119L20.1184 23.2502Z" stroke="#231F20" style="stroke:#231F20;stroke:color(display-p3 0.1373 0.1216 0.1255);stroke-opacity:1;" stroke-width="0.200756"/>
<path d="M21.0454 24.8589L23.0623 24.8585V25.4991L21.0454 25.4994V24.8589Z" fill="#231F20" style="fill:#231F20;fill:color(display-p3 0.1373 0.1216 0.1255);fill-opacity:1;"/>
<path d="M21.0454 24.8589L23.0623 24.8585V25.4991L21.0454 25.4995V24.8589Z" stroke="#231F20" style="stroke:#231F20;stroke:color(display-p3 0.1373 0.1216 0.1255);stroke-opacity:1;" stroke-width="0.200756"/>
<path d="M21.0457 26.4283L23.1667 26.4279V27.0681L21.0457 27.0687V26.4283Z" fill="#231F20" style="fill:#231F20;fill:color(display-p3 0.1373 0.1216 0.1255);fill-opacity:1;"/>
<path d="M21.0457 26.4282L23.1667 26.4279V27.068L21.0457 27.0687V26.4282Z" stroke="#231F20" style="stroke:#231F20;stroke:color(display-p3 0.1373 0.1216 0.1255);stroke-opacity:1;" stroke-width="0.200756"/>
<path d="M13.2658 27.0625L13.2651 23.2594L14.4097 23.2591L14.4104 27.0622L13.2658 27.0625Z" fill="#231F20" style="fill:#231F20;fill:color(display-p3 0.1373 0.1216 0.1255);fill-opacity:1;"/>
<path d="M13.2658 27.0625L13.2651 23.2594L14.4097 23.2591L14.4104 27.0622L13.2658 27.0625Z" stroke="#231F20" style="stroke:#231F20;stroke:color(display-p3 0.1373 0.1216 0.1255);stroke-opacity:1;" stroke-width="0.200756"/>
<path d="M8.00702 27.0955L8.00635 23.2928L9.15092 23.2925L9.15159 27.0952L8.00702 27.0955Z" fill="#231F20" style="fill:#231F20;fill:color(display-p3 0.1373 0.1216 0.1255);fill-opacity:1;"/>
<path d="M8.00702 27.0955L8.00635 23.2928L9.15092 23.2925L9.15159 27.0952L8.00702 27.0955Z" stroke="#231F20" style="stroke:#231F20;stroke:color(display-p3 0.1373 0.1216 0.1255);stroke-opacity:1;" stroke-width="0.200756"/>
<path d="M8.76733 27.0953L8.99955 26.4789L9.85575 26.4547C10.8484 26.4543 11.4486 25.9017 11.4483 25.1734C11.4483 24.2927 10.6479 23.8765 10.0315 23.8768L8.991 23.821L8.84699 23.2925L10.0553 23.2922C11.4456 23.2918 12.6487 24.0364 12.6491 25.2091C12.6493 26.39 11.4463 27.0949 10.0559 27.0953H8.76733Z" fill="#231F20" style="fill:#231F20;fill:color(display-p3 0.1373 0.1216 0.1255);fill-opacity:1;"/>
<path d="M8.76733 27.0952L8.99955 26.4788L9.85575 26.4546C10.8484 26.4543 11.4486 25.9017 11.4483 25.1733C11.4483 24.2927 10.6479 23.8765 10.0315 23.8768L8.991 23.821L8.84699 23.2925L10.0553 23.2921C11.4456 23.2918 12.6487 24.0364 12.6491 25.209C12.6493 26.39 11.4463 27.0949 10.0559 27.0952H8.76733Z" stroke="#231F20" style="stroke:#231F20;stroke:color(display-p3 0.1373 0.1216 0.1255);stroke-opacity:1;" stroke-width="0.200756"/>
<path d="M8.008 31.8736L8.00732 28.0707L9.15189 28.0703L9.15257 31.8733L8.008 31.8736Z" fill="#231F20" style="fill:#231F20;fill:color(display-p3 0.1373 0.1216 0.1255);fill-opacity:1;"/>
<path d="M8.008 31.8737L8.00732 28.0707L9.15189 28.0703L9.15257 31.8733L8.008 31.8737Z" stroke="#231F20" style="stroke:#231F20;stroke:color(display-p3 0.1373 0.1216 0.1255);stroke-opacity:1;" stroke-width="0.200756"/>
<path d="M8.76831 31.8733L9.00018 31.2569L9.85673 31.2325C10.8493 31.2325 11.4492 30.6799 11.4492 29.9515C11.4489 29.0709 10.6485 28.6546 10.0321 28.6546L8.99164 28.5988L8.84755 28.0707L10.0562 28.0703C11.4466 28.07 12.6496 28.8142 12.6499 29.9872C12.6499 31.1681 11.4473 31.8727 10.0569 31.8731L8.76831 31.8733Z" fill="#231F20" style="fill:#231F20;fill:color(display-p3 0.1373 0.1216 0.1255);fill-opacity:1;"/>
<path d="M8.76831 31.8734L9.00018 31.257L9.85673 31.2325C10.8493 31.2325 11.4492 30.6799 11.4492 29.9516C11.4489 29.0709 10.6485 28.6547 10.0321 28.6547L8.99164 28.5989L8.84755 28.0707L10.0562 28.0704C11.4466 28.07 12.6496 28.8143 12.6499 29.9872C12.6499 31.1682 11.4473 31.8728 10.0569 31.8731L8.76831 31.8734Z" stroke="#231F20" style="stroke:#231F20;stroke:color(display-p3 0.1373 0.1216 0.1255);stroke-opacity:1;" stroke-width="0.200756"/>
<path d="M19.5737 31.8885L19.573 27.7654H20.6777L20.6783 31.8882L19.5737 31.8885Z" fill="#231F20" style="fill:#231F20;fill:color(display-p3 0.1373 0.1216 0.1255);fill-opacity:1;"/>
<path d="M19.5737 31.8885L19.573 27.7654H20.6777L20.6783 31.8882L19.5737 31.8885Z" stroke="#231F20" style="stroke:#231F20;stroke:color(display-p3 0.1373 0.1216 0.1255);stroke-opacity:1;" stroke-width="0.200756"/>
<path d="M25.6809 31.9192L25.6802 29.0934L26.7848 29.093L26.7855 31.919L25.6809 31.9192Z" fill="#231F20" style="fill:#231F20;fill:color(display-p3 0.1373 0.1216 0.1255);fill-opacity:1;"/>
<path d="M25.6809 31.9193L25.6802 29.0934L26.7848 29.093L26.7855 31.919L25.6809 31.9193Z" stroke="#231F20" style="stroke:#231F20;stroke:color(display-p3 0.1373 0.1216 0.1255);stroke-opacity:1;" stroke-width="0.200756"/>
<path d="M25.6802 27.7723L26.7848 27.772V28.5004L25.6802 28.5007V27.7723Z" fill="#231F20" style="fill:#231F20;fill:color(display-p3 0.1373 0.1216 0.1255);fill-opacity:1;"/>
<path d="M25.6802 27.7723L26.7848 27.772V28.5004L25.6802 28.5007V27.7723Z" stroke="#231F20" style="stroke:#231F20;stroke:color(display-p3 0.1373 0.1216 0.1255);stroke-opacity:1;" stroke-width="0.200756"/>
<path d="M29.4105 31.174L29.4102 28.3639L30.5385 28.3636L30.5392 31.0455C30.5392 31.4059 31.1555 31.5179 31.5077 31.3977V32.022C30.7473 32.1984 29.4107 32.1746 29.4105 31.174Z" fill="#231F20" style="fill:#231F20;fill:color(display-p3 0.1373 0.1216 0.1255);fill-opacity:1;"/>
<path d="M29.4105 31.1741L29.4102 28.364L30.5385 28.3637L30.5392 31.0456C30.5392 31.406 31.1555 31.5179 31.5077 31.3978V32.022C30.7473 32.1984 29.4107 32.1746 29.4105 31.1741Z" stroke="#231F20" style="stroke:#231F20;stroke:color(display-p3 0.1373 0.1216 0.1255);stroke-opacity:1;" stroke-width="0.200756"/>
<path d="M28.5298 29.6929V29.0927L31.4751 29.092L31.4753 29.6925L28.5298 29.6929Z" fill="#231F20" style="fill:#231F20;fill:color(display-p3 0.1373 0.1216 0.1255);fill-opacity:1;"/>
<path d="M28.5298 29.6929V29.0927L31.4751 29.092L31.4753 29.6925L28.5298 29.6929Z" stroke="#231F20" style="stroke:#231F20;stroke:color(display-p3 0.1373 0.1216 0.1255);stroke-opacity:1;" stroke-width="0.200756"/>
<path d="M25.9995 14.9554C25.9984 10.7232 23.4553 8.89121 20.5646 8.24675V8.02773C25.8227 8.29825 29.6756 11.4929 29.6763 15.1519C29.6773 19.3298 25.1465 22.3134 19.5567 22.3147C13.9672 22.3157 9.46 19.1109 9.45898 15.1565C9.45831 11.0076 13.3938 8.00828 20.1038 8.00659L20.1048 13.1607L18.5185 13.1296C15.1194 13.2506 11.1839 14.733 11.1843 16.7239C11.1846 18.9137 14.9219 21.5451 19.4084 21.544C23.0374 21.5434 26 18.9104 25.9995 14.9554Z" fill="#231F20" style="fill:#231F20;fill:color(display-p3 0.1373 0.1216 0.1255);fill-opacity:1;"/>
<path d="M25.9995 14.9554C25.9984 10.7232 23.4553 8.89124 20.5646 8.24678V8.02776C25.8227 8.29828 29.6756 11.4929 29.6763 15.1519C29.6773 19.3299 25.1465 22.3134 19.5567 22.3147C13.9672 22.3157 9.46 19.1109 9.45898 15.1566C9.45831 11.0076 13.3938 8.00831 20.1038 8.00662L20.1048 13.1607L18.5185 13.1297C15.1194 13.2506 11.1839 14.7331 11.1843 16.7239C11.1846 18.9137 14.9219 21.5451 19.4084 21.5441C23.0374 21.5434 26 18.9104 25.9995 14.9554Z" stroke="#231F20" style="stroke:#231F20;stroke:color(display-p3 0.1373 0.1216 0.1255);stroke-opacity:1;" stroke-width="0.200756"/>
<path d="M20.0767 20.9514C18.1506 20.8143 15.6734 19.532 15.6731 17.3202C15.6728 15.1304 17.7819 13.5422 20.0754 13.4543L20.0767 20.9514Z" fill="#231F20" style="fill:#231F20;fill:color(display-p3 0.1373 0.1216 0.1255);fill-opacity:1;"/>
<path d="M20.0767 20.9514C18.1506 20.8143 15.6734 19.532 15.6731 17.3202C15.6728 15.1304 17.7819 13.5422 20.0754 13.4543L20.0767 20.9514Z" stroke="#231F20" style="stroke:#231F20;stroke:color(display-p3 0.1373 0.1216 0.1255);stroke-opacity:1;" stroke-width="0.200756"/>
<path d="M15.0431 30.1213L16.82 30.1163C16.7717 29.6876 16.4516 29.4474 15.9714 29.4474C15.4511 29.4478 15.059 29.6479 15.0431 30.1213ZM15.0352 30.6485C15.0913 31.7455 17.3002 31.3527 17.5965 31.0403V31.7049C17.1562 31.913 16.5894 31.9371 15.9598 31.9374C14.8125 31.9377 13.8827 31.3534 13.8823 30.4007C13.8823 29.5518 14.7386 28.8792 15.9591 28.8789C16.8996 28.8789 17.9404 29.3189 17.8684 30.6478L15.0352 30.6485Z" fill="#231F20" style="fill:#231F20;fill:color(display-p3 0.1373 0.1216 0.1255);fill-opacity:1;"/>
<path d="M15.0431 30.1213L16.82 30.1164C16.7717 29.6876 16.4516 29.4475 15.9714 29.4475C15.4511 29.4478 15.059 29.648 15.0431 30.1213ZM15.0352 30.6485C15.0913 31.7456 17.3002 31.3528 17.5965 31.0403V31.7049C17.1562 31.913 16.5894 31.9371 15.9598 31.9374C14.8125 31.9378 13.8827 31.3534 13.8823 30.4007C13.8823 29.5518 14.7386 28.8793 15.9591 28.8789C16.8996 28.8789 17.9404 29.3189 17.8684 30.6478L15.0352 30.6485Z" stroke="#231F20" style="stroke:#231F20;stroke:color(display-p3 0.1373 0.1216 0.1255);stroke-opacity:1;" stroke-width="0.200756"/>
<path d="M16.5149 24.9002L17.2595 24.8999C17.5555 24.8999 17.9796 24.7076 17.9796 24.3915C17.9796 24.043 17.6288 23.8751 17.2754 23.8751H16.5149V24.9002ZM19.1242 24.2591C19.1245 25.1638 18.2729 25.2321 18.228 25.2358C18.3641 25.324 18.4857 25.4988 18.4919 25.508L19.3693 27.0688L18.1751 27.0691L17.5717 25.9325C17.5638 25.913 17.4115 25.5404 16.946 25.5483L16.5232 25.5487L16.5235 27.0698H15.3889L15.3882 23.2512L17.4395 23.2505C18.0136 23.2505 19.1242 23.3946 19.1242 24.2591Z" fill="#231F20" style="fill:#231F20;fill:color(display-p3 0.1373 0.1216 0.1255);fill-opacity:1;"/>
<path d="M16.5149 24.9002L17.2595 24.8999C17.5555 24.8999 17.9796 24.7076 17.9796 24.3915C17.9796 24.043 17.6288 23.8751 17.2754 23.8751H16.5149V24.9002ZM19.1242 24.259C19.1245 25.1638 18.2729 25.2321 18.228 25.2357C18.3641 25.3239 18.4857 25.4987 18.4919 25.508L19.3693 27.0687L18.1751 27.0691L17.5717 25.9325C17.5638 25.9129 17.4115 25.5403 16.946 25.5483L16.5232 25.5486L16.5235 27.0698H15.3889L15.3882 23.2512L17.4395 23.2505C18.0136 23.2505 19.1242 23.3945 19.1242 24.259Z" stroke="#231F20" style="stroke:#231F20;stroke:color(display-p3 0.1373 0.1216 0.1255);stroke-opacity:1;" stroke-width="0.200756"/>
<path d="M20.6699 30.4991C20.6699 30.9791 21.1036 31.3679 21.6384 31.3676C22.1732 31.3676 22.6069 30.9784 22.6069 30.4989C22.6066 30.0192 22.1732 29.6304 21.6381 29.6304C21.1033 29.6308 20.6699 30.0196 20.6699 30.4991ZM20.3416 30.4675C20.3416 29.4144 21.0379 28.9903 22.0345 28.9899C22.9651 28.9896 23.7112 29.4857 23.7116 30.4665C23.7116 31.4234 22.9574 31.9919 22.0269 31.9923C20.9504 31.9923 20.3419 31.5361 20.3416 30.4675Z" fill="#231F20" style="fill:#231F20;fill:color(display-p3 0.1373 0.1216 0.1255);fill-opacity:1;"/>
<path d="M20.6699 30.4992C20.6699 30.9792 21.1036 31.368 21.6384 31.3676C22.1732 31.3676 22.6069 30.9785 22.6069 30.4989C22.6066 30.0193 22.1732 29.6304 21.6381 29.6304C21.1033 29.6308 20.6699 30.0196 20.6699 30.4992ZM20.3416 30.4675C20.3416 29.4144 21.0379 28.9903 22.0345 28.99C22.9651 28.9896 23.7112 29.4858 23.7116 30.4665C23.7116 31.4235 22.9574 31.992 22.0269 31.9923C20.9504 31.9923 20.3419 31.5361 20.3416 30.4675Z" stroke="#231F20" style="stroke:#231F20;stroke:color(display-p3 0.1373 0.1216 0.1255);stroke-opacity:1;" stroke-width="0.200756"/>
</g>
<defs>
<clipPath id="clip0_2537_303">
<rect width="24" height="24.1125" fill="white" style="fill:white;fill-opacity:1;" transform="translate(8 8)"/>
</clipPath>
</defs>
</svg>
