<svg width="24" height="24" viewBox="0 0 24 24" fill="none" xmlns="http://www.w3.org/2000/svg">
<rect x="0.5" y="0.5" width="23" height="23" rx="5.5" fill="white" style="fill:white;fill-opacity:1;"/>
<rect x="0.5" y="0.5" width="23" height="23" rx="5.5" stroke="#EEEEEE" style="stroke:#EEEEEE;stroke:color(display-p3 0.9333 0.9333 0.9333);stroke-opacity:1;"/>
<g clip-path="url(#clip0_2537_277)">
<path d="M16.4371 14.005L16.3781 14.337C16.2245 14.2855 14.7574 13.9434 14.7368 15.0344C14.7202 15.908 16.0548 15.7995 16.3606 15.718L16.3949 16.0801C15.3917 16.361 14.0587 16.0566 14.0309 15.0261C13.9992 13.8379 15.7619 13.6896 16.4371 14.005Z" fill="#231F20" style="fill:#231F20;fill:color(display-p3 0.1373 0.1216 0.1255);fill-opacity:1;"/>
<path d="M16.4371 14.005L16.3781 14.337C16.2245 14.2855 14.7574 13.9433 14.7368 15.0343C14.7202 15.908 16.0548 15.7995 16.3606 15.718L16.3949 16.0801C15.3917 16.361 14.0587 16.0566 14.0309 15.0261C13.9992 13.8379 15.7619 13.6895 16.4371 14.005Z" stroke="#231F20" style="stroke:#231F20;stroke:color(display-p3 0.1373 0.1216 0.1255);stroke-opacity:1;" stroke-width="0.200756"/>
<path d="M17.4749 16.1395L17.4747 14.2685L16.5732 14.2687V13.9114L18.9963 13.9108L18.9965 14.2681L18.1123 14.2683L18.1124 16.1393L17.4749 16.1395Z" fill="#231F20" style="fill:#231F20;fill:color(display-p3 0.1373 0.1216 0.1255);fill-opacity:1;"/>
<path d="M17.4749 16.1394L17.4747 14.2684L16.5732 14.2686V13.9113L18.9963 13.9108L18.9965 14.268L18.1123 14.2682L18.1124 16.1392L17.4749 16.1394Z" stroke="#231F20" style="stroke:#231F20;stroke:color(display-p3 0.1373 0.1216 0.1255);stroke-opacity:1;" stroke-width="0.200756"/>
<path d="M12.0691 13.896L13.8561 13.8954L13.8563 14.2692L12.6656 14.2694L12.666 16.1235H12.0694L12.0691 13.896Z" fill="#231F20" style="fill:#231F20;fill:color(display-p3 0.1373 0.1216 0.1255);fill-opacity:1;"/>
<path d="M12.0691 13.8959L13.8561 13.8953L13.8563 14.2691L12.6656 14.2693L12.666 16.1234H12.0694L12.0691 13.8959Z" stroke="#231F20" style="stroke:#231F20;stroke:color(display-p3 0.1373 0.1216 0.1255);stroke-opacity:1;" stroke-width="0.200756"/>
<path d="M12.6099 14.8343L13.7864 14.8341V15.2078L12.6099 15.208V14.8343Z" fill="#231F20" style="fill:#231F20;fill:color(display-p3 0.1373 0.1216 0.1255);fill-opacity:1;"/>
<path d="M12.6099 14.8343L13.7864 14.8341V15.2078L12.6099 15.208V14.8343Z" stroke="#231F20" style="stroke:#231F20;stroke:color(display-p3 0.1373 0.1216 0.1255);stroke-opacity:1;" stroke-width="0.200756"/>
<path d="M12.6099 15.7498L13.8471 15.7496V16.1231L12.6099 16.1234V15.7498Z" fill="#231F20" style="fill:#231F20;fill:color(display-p3 0.1373 0.1216 0.1255);fill-opacity:1;"/>
<path d="M12.6099 15.7498L13.8471 15.7496V16.123L12.6099 16.1234V15.7498Z" stroke="#231F20" style="stroke:#231F20;stroke:color(display-p3 0.1373 0.1216 0.1255);stroke-opacity:1;" stroke-width="0.200756"/>
<path d="M8.07168 16.1198L8.07129 13.9013L8.73895 13.9011L8.73935 16.1196L8.07168 16.1198Z" fill="#231F20" style="fill:#231F20;fill:color(display-p3 0.1373 0.1216 0.1255);fill-opacity:1;"/>
<path d="M8.07168 16.1198L8.07129 13.9013L8.73895 13.9012L8.73935 16.1196L8.07168 16.1198Z" stroke="#231F20" style="stroke:#231F20;stroke:color(display-p3 0.1373 0.1216 0.1255);stroke-opacity:1;" stroke-width="0.200756"/>
<path d="M5.00406 16.139L5.00366 13.9208L5.67133 13.9206L5.67172 16.1389L5.00406 16.139Z" fill="#231F20" style="fill:#231F20;fill:color(display-p3 0.1373 0.1216 0.1255);fill-opacity:1;"/>
<path d="M5.00406 16.139L5.00366 13.9208L5.67133 13.9206L5.67172 16.1389L5.00406 16.139Z" stroke="#231F20" style="stroke:#231F20;stroke:color(display-p3 0.1373 0.1216 0.1255);stroke-opacity:1;" stroke-width="0.200756"/>
<path d="M5.44751 16.1389L5.58297 15.7793L6.08242 15.7652C6.66149 15.765 7.01158 15.4426 7.01138 15.0178C7.01138 14.5041 6.54448 14.2613 6.18493 14.2615L5.57798 14.2289L5.49398 13.9206L6.19884 13.9204C7.00985 13.9202 7.71165 14.3546 7.71185 15.0386C7.712 15.7275 7.01025 16.1387 6.19918 16.1389H5.44751Z" fill="#231F20" style="fill:#231F20;fill:color(display-p3 0.1373 0.1216 0.1255);fill-opacity:1;"/>
<path d="M5.44751 16.1389L5.58297 15.7793L6.08242 15.7652C6.66149 15.765 7.01158 15.4426 7.01138 15.0178C7.01138 14.504 6.54448 14.2613 6.18493 14.2615L5.57798 14.2289L5.49398 13.9206L6.19884 13.9204C7.00985 13.9202 7.71165 14.3545 7.71185 15.0386C7.712 15.7275 7.01025 16.1387 6.19918 16.1389H5.44751Z" stroke="#231F20" style="stroke:#231F20;stroke:color(display-p3 0.1373 0.1216 0.1255);stroke-opacity:1;" stroke-width="0.200756"/>
<path d="M5.00455 18.9263L5.00415 16.7079L5.67182 16.7077L5.67221 18.9261L5.00455 18.9263Z" fill="#231F20" style="fill:#231F20;fill:color(display-p3 0.1373 0.1216 0.1255);fill-opacity:1;"/>
<path d="M5.00455 18.9263L5.00415 16.7079L5.67182 16.7077L5.67221 18.9261L5.00455 18.9263Z" stroke="#231F20" style="stroke:#231F20;stroke:color(display-p3 0.1373 0.1216 0.1255);stroke-opacity:1;" stroke-width="0.200756"/>
<path d="M5.44824 18.9261L5.5835 18.5666L6.08315 18.5523C6.66217 18.5523 7.01211 18.2299 7.01211 17.8051C7.01192 17.2914 6.54502 17.0486 6.18546 17.0486L5.57852 17.016L5.49446 16.7079L6.19952 16.7077C7.01058 16.7075 7.71233 17.1416 7.71253 17.8259C7.71253 18.5148 7.01098 18.9258 6.19991 18.926L5.44824 18.9261Z" fill="#231F20" style="fill:#231F20;fill:color(display-p3 0.1373 0.1216 0.1255);fill-opacity:1;"/>
<path d="M5.44824 18.9261L5.5835 18.5665L6.08315 18.5523C6.66217 18.5523 7.01211 18.2299 7.01211 17.805C7.01192 17.2913 6.54502 17.0485 6.18546 17.0485L5.57852 17.016L5.49446 16.7079L6.19952 16.7077C7.01058 16.7075 7.71233 17.1416 7.71253 17.8259C7.71253 18.5147 7.01098 18.9257 6.19991 18.9259L5.44824 18.9261Z" stroke="#231F20" style="stroke:#231F20;stroke:color(display-p3 0.1373 0.1216 0.1255);stroke-opacity:1;" stroke-width="0.200756"/>
<path d="M11.7514 18.935L11.751 16.5298H12.3954L12.3958 18.9348L11.7514 18.935Z" fill="#231F20" style="fill:#231F20;fill:color(display-p3 0.1373 0.1216 0.1255);fill-opacity:1;"/>
<path d="M11.7514 18.935L11.751 16.5298H12.3954L12.3958 18.9348L11.7514 18.935Z" stroke="#231F20" style="stroke:#231F20;stroke:color(display-p3 0.1373 0.1216 0.1255);stroke-opacity:1;" stroke-width="0.200756"/>
<path d="M15.3139 18.9529L15.3135 17.3045L15.9579 17.3043L15.9583 18.9527L15.3139 18.9529Z" fill="#231F20" style="fill:#231F20;fill:color(display-p3 0.1373 0.1216 0.1255);fill-opacity:1;"/>
<path d="M15.3139 18.9529L15.3135 17.3045L15.9579 17.3043L15.9583 18.9527L15.3139 18.9529Z" stroke="#231F20" style="stroke:#231F20;stroke:color(display-p3 0.1373 0.1216 0.1255);stroke-opacity:1;" stroke-width="0.200756"/>
<path d="M15.3135 16.5338L15.9579 16.5336V16.9585L15.3135 16.9587V16.5338Z" fill="#231F20" style="fill:#231F20;fill:color(display-p3 0.1373 0.1216 0.1255);fill-opacity:1;"/>
<path d="M15.3135 16.5339L15.9579 16.5337V16.9586L15.3135 16.9588V16.5339Z" stroke="#231F20" style="stroke:#231F20;stroke:color(display-p3 0.1373 0.1216 0.1255);stroke-opacity:1;" stroke-width="0.200756"/>
<path d="M17.4895 18.5182L17.4893 16.8789L18.1475 16.8788L18.1478 18.4432C18.1478 18.6534 18.5074 18.7187 18.7128 18.6487V19.0128C18.2692 19.1157 17.4896 19.1018 17.4895 18.5182Z" fill="#231F20" style="fill:#231F20;fill:color(display-p3 0.1373 0.1216 0.1255);fill-opacity:1;"/>
<path d="M17.4895 18.5182L17.4893 16.879L18.1475 16.8788L18.1478 18.4432C18.1478 18.6535 18.5074 18.7188 18.7128 18.6487V19.0128C18.2692 19.1157 17.4896 19.1019 17.4895 18.5182Z" stroke="#231F20" style="stroke:#231F20;stroke:color(display-p3 0.1373 0.1216 0.1255);stroke-opacity:1;" stroke-width="0.200756"/>
<path d="M16.9756 17.6542V17.3041L18.6937 17.3037L18.6938 17.654L16.9756 17.6542Z" fill="#231F20" style="fill:#231F20;fill:color(display-p3 0.1373 0.1216 0.1255);fill-opacity:1;"/>
<path d="M16.9756 17.6542V17.3041L18.6937 17.3037L18.6938 17.654L16.9756 17.6542Z" stroke="#231F20" style="stroke:#231F20;stroke:color(display-p3 0.1373 0.1216 0.1255);stroke-opacity:1;" stroke-width="0.200756"/>
<path d="M15.4997 9.05729C15.4991 6.58853 14.0156 5.51987 12.3293 5.14394V5.01618C15.3966 5.17398 17.6441 7.03752 17.6445 9.17193C17.6451 11.6091 15.0022 13.3495 11.7414 13.3502C8.48089 13.3508 5.85167 11.4814 5.85107 9.17464C5.85068 6.75442 8.14639 5.00483 12.0605 5.00385L12.0611 8.01039L11.1358 7.99228C9.15299 8.06282 6.85728 8.9276 6.85748 10.089C6.85768 11.3663 9.03776 12.9013 11.6549 12.9007C13.7718 12.9003 15.5 11.3644 15.4997 9.05729Z" fill="#231F20" style="fill:#231F20;fill:color(display-p3 0.1373 0.1216 0.1255);fill-opacity:1;"/>
<path d="M15.4997 9.05728C15.4991 6.58853 14.0156 5.51987 12.3293 5.14393V5.01617C15.3966 5.17398 17.6441 7.03752 17.6445 9.17192C17.6451 11.6091 15.0022 13.3495 11.7414 13.3502C8.48089 13.3508 5.85167 11.4813 5.85107 9.17464C5.85068 6.75442 8.14639 5.00483 12.0605 5.00384L12.0611 8.01038L11.1358 7.99228C9.15299 8.06282 6.85728 8.9276 6.85748 10.0889C6.85768 11.3663 9.03776 12.9013 11.6549 12.9007C13.7718 12.9003 15.5 11.3644 15.4997 9.05728Z" stroke="#231F20" style="stroke:#231F20;stroke:color(display-p3 0.1373 0.1216 0.1255);stroke-opacity:1;" stroke-width="0.200756"/>
<path d="M12.0448 12.555C10.9213 12.475 9.47627 11.727 9.47607 10.4368C9.47588 9.1594 10.7062 8.23295 12.0441 8.1817L12.0448 12.555Z" fill="#231F20" style="fill:#231F20;fill:color(display-p3 0.1373 0.1216 0.1255);fill-opacity:1;"/>
<path d="M12.0448 12.555C10.9213 12.475 9.47627 11.727 9.47607 10.4368C9.47588 9.1594 10.7062 8.23295 12.0441 8.1817L12.0448 12.555Z" stroke="#231F20" style="stroke:#231F20;stroke:color(display-p3 0.1373 0.1216 0.1255);stroke-opacity:1;" stroke-width="0.200756"/>
<path d="M9.10853 17.9041L10.145 17.9012C10.1169 17.6511 9.93015 17.511 9.65001 17.511C9.34649 17.5112 9.11781 17.628 9.10853 17.9041ZM9.1039 18.2116C9.13665 18.8516 10.4252 18.6224 10.598 18.4402V18.8279C10.3412 18.9493 10.0105 18.9633 9.64326 18.9635C8.97401 18.9637 8.43159 18.6228 8.4314 18.0671C8.4314 17.5719 8.9309 17.1796 9.64286 17.1794C10.1914 17.1794 10.7986 17.436 10.7566 18.2112L9.1039 18.2116Z" fill="#231F20" style="fill:#231F20;fill:color(display-p3 0.1373 0.1216 0.1255);fill-opacity:1;"/>
<path d="M9.10853 17.9041L10.145 17.9012C10.1169 17.6511 9.93015 17.511 9.65001 17.511C9.34649 17.5112 9.11781 17.628 9.10853 17.9041ZM9.1039 18.2116C9.13665 18.8516 10.4252 18.6224 10.598 18.4402V18.8278C10.3412 18.9492 10.0105 18.9633 9.64326 18.9635C8.97401 18.9637 8.43159 18.6228 8.4314 18.0671C8.4314 17.5719 8.9309 17.1796 9.64286 17.1794C10.1914 17.1794 10.7986 17.436 10.7566 18.2112L9.1039 18.2116Z" stroke="#231F20" style="stroke:#231F20;stroke:color(display-p3 0.1373 0.1216 0.1255);stroke-opacity:1;" stroke-width="0.200756"/>
<path d="M9.96707 14.8584L10.4014 14.8582C10.5741 14.8582 10.8215 14.7461 10.8215 14.5617C10.8215 14.3584 10.6168 14.2605 10.4107 14.2605H9.96707V14.8584ZM11.4892 14.4844C11.4894 15.0122 10.9926 15.052 10.9664 15.0542C11.0458 15.1056 11.1167 15.2076 11.1203 15.213L11.6321 16.1234L10.9355 16.1236L10.5835 15.4606C10.5789 15.4492 10.4901 15.2318 10.2185 15.2365L9.97191 15.2367L9.9721 16.124H9.31021L9.30981 13.8965L10.5064 13.8961C10.8413 13.8961 11.4892 13.9801 11.4892 14.4844Z" fill="#231F20" style="fill:#231F20;fill:color(display-p3 0.1373 0.1216 0.1255);fill-opacity:1;"/>
<path d="M9.96707 14.8584L10.4014 14.8582C10.5741 14.8582 10.8215 14.7461 10.8215 14.5617C10.8215 14.3584 10.6168 14.2605 10.4107 14.2605H9.96707V14.8584ZM11.4892 14.4844C11.4894 15.0122 10.9926 15.0521 10.9664 15.0542C11.0458 15.1056 11.1167 15.2076 11.1203 15.213L11.6321 16.1234L10.9355 16.1236L10.5835 15.4606C10.5789 15.4492 10.4901 15.2319 10.2185 15.2365L9.97191 15.2367L9.9721 16.124H9.31021L9.30981 13.8965L10.5064 13.8961C10.8413 13.8961 11.4892 13.9801 11.4892 14.4844Z" stroke="#231F20" style="stroke:#231F20;stroke:color(display-p3 0.1373 0.1216 0.1255);stroke-opacity:1;" stroke-width="0.200756"/>
<path d="M12.3908 18.1245C12.3908 18.4045 12.6438 18.6313 12.9557 18.6311C13.2677 18.6311 13.5207 18.4041 13.5207 18.1244C13.5205 17.8446 13.2677 17.6178 12.9555 17.6178C12.6436 17.618 12.3908 17.8448 12.3908 18.1245ZM12.1992 18.1061C12.1992 17.4917 12.6054 17.2443 13.1868 17.2441C13.7296 17.2439 14.1649 17.5334 14.1651 18.1055C14.1651 18.6637 13.7252 18.9953 13.1823 18.9955C12.5544 18.9955 12.1994 18.7294 12.1992 18.1061Z" fill="#231F20" style="fill:#231F20;fill:color(display-p3 0.1373 0.1216 0.1255);fill-opacity:1;"/>
<path d="M12.3908 18.1245C12.3908 18.4045 12.6438 18.6313 12.9557 18.6311C13.2677 18.6311 13.5207 18.4041 13.5207 18.1243C13.5205 17.8445 13.2677 17.6177 12.9555 17.6177C12.6436 17.6179 12.3908 17.8447 12.3908 18.1245ZM12.1992 18.106C12.1992 17.4917 12.6054 17.2443 13.1868 17.2441C13.7296 17.2439 14.1649 17.5333 14.1651 18.1054C14.1651 18.6636 13.7252 18.9953 13.1823 18.9955C12.5544 18.9955 12.1994 18.7294 12.1992 18.106Z" stroke="#231F20" style="stroke:#231F20;stroke:color(display-p3 0.1373 0.1216 0.1255);stroke-opacity:1;" stroke-width="0.200756"/>
</g>
<defs>
<clipPath id="clip0_2537_277">
<rect width="14" height="14.0656" fill="white" style="fill:white;fill-opacity:1;" transform="translate(5 5)"/>
</clipPath>
</defs>
</svg>
