<svg width="16" height="16" viewBox="0 0 16 16" fill="none" xmlns="http://www.w3.org/2000/svg">
<rect width="16" height="16" rx="4" fill="#002D73" style="fill:#002D73;fill:color(display-p3 0.0000 0.1765 0.4510);fill-opacity:1;"/>
<path d="M12.0815 7.59567L8.40142 3.91678C8.29359 3.80993 8.14799 3.75 7.99626 3.75C7.84453 3.75 7.69894 3.80993 7.5911 3.91678L3.91846 7.59567C3.86508 7.64858 3.82272 7.71156 3.7938 7.78096C3.76489 7.85036 3.75 7.92481 3.75 8C3.75 8.07519 3.76489 8.14964 3.7938 8.21904C3.82272 8.28844 3.86508 8.35142 3.91846 8.40433L7.59359 12.0832C7.70143 12.1901 7.84703 12.25 7.99875 12.25C8.15048 12.25 8.29608 12.1901 8.40392 12.0832L12.0815 8.40433C12.1349 8.35142 12.1773 8.28844 12.2062 8.21904C12.2351 8.14964 12.25 8.07519 12.25 8C12.25 7.92481 12.2351 7.85036 12.2062 7.78096C12.1773 7.71156 12.1349 7.64858 12.0815 7.59567ZM9.57328 8.88104C9.47853 9.65226 8.92003 10.0241 8.00748 10.0241H6.15994L6.26715 9.16557H8.09225C8.32662 9.16557 8.45378 9.0233 8.4837 8.77372C8.4861 8.74798 8.4861 8.72208 8.4837 8.69634H9.58824C9.58824 8.74876 9.57328 8.81615 9.5658 8.88104H9.57328ZM10.3213 8.38187H6.34694L6.44168 7.60815H8.2244C8.47373 7.60815 8.56598 7.42595 8.59341 7.20881C8.62083 6.99167 8.59341 6.8544 8.31416 6.8544H6.53394L6.64115 5.96338H8.46126C9.49848 5.96338 9.77773 6.40515 9.70792 7.01164C9.68946 7.22383 9.62018 7.42845 9.50596 7.60815H9.61317C9.71221 7.60757 9.81022 7.62832 9.90054 7.66899C9.99087 7.70967 10.0714 7.76931 10.1367 7.84388C10.2019 7.91845 10.2504 8.0062 10.2788 8.10118C10.3072 8.19616 10.3149 8.29614 10.3013 8.39435L10.3213 8.38187Z" fill="white" style="fill:white;fill-opacity:1;"/>
</svg>
