<svg width="48" height="36" viewBox="0 0 48 36" fill="none" xmlns="http://www.w3.org/2000/svg">
<g clip-path="url(#clip0_3503_128)">
<rect width="48" height="36" rx="6" fill="#002D73" style="fill:#002D73;fill:color(display-p3 0.0000 0.1765 0.4510);fill-opacity:1;"/>
<path d="M36.2446 16.787L25.2043 5.75033C24.8808 5.4298 24.444 5.25 23.9888 5.25C23.5336 5.25 23.0968 5.4298 22.7733 5.75033L11.7554 16.787C11.5953 16.9457 11.4682 17.1347 11.3814 17.3429C11.2947 17.5511 11.25 17.7744 11.25 18C11.25 18.2256 11.2947 18.4489 11.3814 18.6571C11.4682 18.8653 11.5953 19.0543 11.7554 19.213L22.7808 30.2497C23.1043 30.5702 23.5411 30.75 23.9963 30.75C24.4514 30.75 24.8882 30.5702 25.2117 30.2497L36.2446 19.213C36.4048 19.0543 36.5319 18.8653 36.6186 18.6571C36.7053 18.4489 36.75 18.2256 36.75 18C36.75 17.7744 36.7053 17.5511 36.6186 17.3429C36.5319 17.1347 36.4048 16.9457 36.2446 16.787ZM28.7198 20.6431C28.4356 22.9568 26.7601 24.0724 24.0224 24.0724H18.4798L18.8015 21.4967H24.2768C24.9799 21.4967 25.3614 21.0699 25.4511 20.3211C25.4583 20.2439 25.4583 20.1662 25.4511 20.089H28.7647C28.7647 20.2463 28.7198 20.4484 28.6974 20.6431H28.7198ZM30.9638 19.1456H19.0408L19.325 16.8245H24.6732C25.4212 16.8245 25.6979 16.2779 25.7802 15.6264C25.8625 14.975 25.7802 14.5632 24.9425 14.5632H19.6018L19.9234 11.8901H25.3838C28.4954 11.8901 29.3332 13.2154 29.1237 15.0349C29.0684 15.6715 28.8606 16.2853 28.5179 16.8245H28.8395C29.1366 16.8227 29.4307 16.885 29.7016 17.007C29.9726 17.129 30.2142 17.3079 30.41 17.5316C30.6058 17.7554 30.7513 18.0186 30.8365 18.3035C30.9217 18.5885 30.9447 18.8884 30.904 19.183L30.9638 19.1456Z" fill="white" style="fill:white;fill-opacity:1;"/>
</g>
<defs>
<clipPath id="clip0_3503_128">
<rect width="48" height="36" rx="6" fill="white" style="fill:white;fill-opacity:1;"/>
</clipPath>
</defs>
</svg>
