<svg width="32" height="24" viewBox="0 0 32 24" fill="none" xmlns="http://www.w3.org/2000/svg">
<rect width="32" height="24" rx="4" fill="#1E1E1E" style="fill:#1E1E1E;fill:color(display-p3 0.1176 0.1176 0.1176);fill-opacity:1;"/>
<path d="M16.7837 19H11V9.30665C11 8.12292 11.4851 6.97773 12.3303 6.16728C13.1884 5.34474 14.3096 4.9329 15.4879 5.00888C17.6623 5.14873 19.4314 7.03058 19.4314 9.20424C19.4314 9.89577 19.3365 10.6071 19.2083 11.1719C20.2917 11.9527 21 13.24 21 14.6934C21 17.0686 19.108 19 16.7837 19ZM14.8864 17.2029H16.7837C18.1388 17.2029 19.2406 16.0765 19.2406 14.6934C19.2406 14.0041 18.9679 13.3798 18.5259 12.925C17.6893 14.5502 16.4981 15.9532 14.8864 17.2029ZM12.7583 12.1828V16.5302C14.6988 15.2671 16.0302 13.8753 16.9185 12.1873C16.8732 12.1851 16.8279 12.1839 16.7827 12.1839H12.7594L12.7583 12.1828ZM12.7583 10.3858H16.7837C17.0478 10.3858 17.3055 10.411 17.5556 10.4585C17.6203 10.0939 17.6721 9.65129 17.6721 9.20424C17.6721 7.96105 16.6425 6.88303 15.3769 6.80264C14.688 6.7575 14.0336 6.99754 13.5345 7.47764C13.0343 7.95775 12.7583 8.6074 12.7583 9.30774V10.3868V10.3858Z" fill="white" style="fill:white;fill-opacity:1;"/>
</svg>
