<svg width="40" height="30" viewBox="0 0 40 30" fill="none" xmlns="http://www.w3.org/2000/svg">
<rect x="0.5" y="0.5" width="39" height="29" rx="4.5" fill="white" style="fill:white;fill-opacity:1;"/>
<rect x="0.5" y="0.5" width="39" height="29" rx="4.5" stroke="#F5F2F0" style="stroke:#F5F2F0;stroke:color(display-p3 0.9608 0.9490 0.9412);stroke-opacity:1;"/>
<path fill-rule="evenodd" clip-rule="evenodd" d="M16.6219 12.1475C17.3409 12.6782 18.3431 12.5234 18.8659 11.7937L20.7397 9.16237C21.2626 8.43267 21.11 7.41552 20.3911 6.88482C19.6721 6.35413 18.6699 6.50892 18.147 7.23862L16.2515 9.86996C15.7504 10.5997 15.9029 11.6168 16.6219 12.1475ZM25.206 8.43267C24.487 7.90198 23.4848 8.05677 22.9619 8.78647L15.4236 19.3118C14.9007 20.0416 15.0532 21.0587 15.7722 21.5894C16.4911 22.1201 17.4933 21.9653 18.0162 21.2356L25.5546 10.7102C26.0992 9.98053 25.9249 8.96337 25.206 8.43267ZM15.9029 7.59243C16.4258 6.86273 16.2733 5.84557 15.5543 5.31488C14.8353 4.78419 13.8331 4.93897 13.3102 5.66867C12.7874 6.39837 12.9399 7.41553 13.6588 7.94622C14.3778 8.47692 15.38 8.32213 15.9029 7.59243ZM27.3411 22.0538C26.6222 21.5231 25.62 21.6779 25.0971 22.4076C24.5742 23.1373 24.7267 24.1544 25.4457 24.6851C26.1647 25.2158 27.1669 25.061 27.6898 24.3313C28.2126 23.6016 28.0601 22.5844 27.3411 22.0538ZM24.3999 17.8746C23.681 17.3439 22.6788 17.4987 22.1559 18.2284L20.2603 20.8597C19.7375 21.5894 19.89 22.6066 20.6089 23.1373C21.3279 23.6679 22.3301 23.5132 22.853 22.7834L24.7485 20.1521C25.2714 19.4224 25.1189 18.4053 24.3999 17.8746Z" fill="#05C0C7" style="fill:#05C0C7;fill:color(display-p3 0.0196 0.7529 0.7804);fill-opacity:1;"/>
</svg>
