<svg width="24" height="24" viewBox="0 0 24 24" fill="none" xmlns="http://www.w3.org/2000/svg">
<rect x="0.5" y="0.5" width="23" height="23" rx="5.5" fill="white" style="fill:white;fill-opacity:1;"/>
<rect x="0.5" y="0.5" width="23" height="23" rx="5.5" stroke="#F5F2F0" style="stroke:#F5F2F0;stroke:color(display-p3 0.9608 0.9490 0.9412);stroke-opacity:1;"/>
<path fill-rule="evenodd" clip-rule="evenodd" d="M8.89751 9.718C9.4727 10.1426 10.2745 10.0188 10.6928 9.43498L12.1917 7.3299C12.61 6.74614 12.488 5.93241 11.9129 5.50786C11.3377 5.08331 10.5359 5.20713 10.1176 5.79089L8.60121 7.89597C8.20033 8.47973 8.32234 9.29347 8.89751 9.718ZM15.7648 6.74614C15.1896 6.32159 14.3878 6.44541 13.9695 7.02917L7.93886 15.4495C7.52055 16.0332 7.64255 16.847 8.21773 17.2715C8.79291 17.6961 9.59468 17.5723 10.013 16.9885L16.0437 8.56818C16.4794 7.98442 16.3399 7.17069 15.7648 6.74614ZM8.32233 6.07394C8.74064 5.49018 8.61863 4.67645 8.04345 4.2519C7.46827 3.82735 6.66651 3.95118 6.2482 4.53494C5.82989 5.1187 5.95189 5.93243 6.52707 6.35698C7.10225 6.78153 7.90402 6.6577 8.32233 6.07394ZM17.4729 17.643C16.8978 17.2184 16.096 17.3423 15.6777 17.926C15.2594 18.5098 15.3813 19.3236 15.9565 19.7481C16.5317 20.1727 17.3335 20.0488 17.7518 19.4651C18.1701 18.8813 18.0481 18.0676 17.4729 17.643ZM15.1199 14.2996C14.5448 13.8751 13.743 13.9989 13.3247 14.5827L11.8083 16.6878C11.39 17.2715 11.512 18.0852 12.0871 18.5098C12.6623 18.9344 13.4641 18.8105 13.8824 18.2268L15.3988 16.1217C15.8171 15.538 15.6951 14.7242 15.1199 14.2996Z" fill="#05C0C7" style="fill:#05C0C7;fill:color(display-p3 0.0196 0.7529 0.7804);fill-opacity:1;"/>
</svg>
