<svg width="16" height="16" viewBox="0 0 16 16" fill="none" xmlns="http://www.w3.org/2000/svg">
<rect width="16" height="16" rx="4" fill="url(#paint0_linear_3558_60)" style=""/>
<path fill-rule="evenodd" clip-rule="evenodd" d="M6.76926 3.98077H5.50003V9.46875C5.50001 9.47276 5.5 9.47677 5.5 9.48078C5.5 10.9996 6.73122 12.2308 8.25001 12.2308C9.7688 12.2308 11 10.9996 11 9.48078C11 7.96199 9.7688 6.73076 8.25001 6.73076C7.70483 6.73076 7.19669 6.88941 6.76926 7.16306V3.98077ZM9.51923 9.48077C9.51923 10.1818 8.95097 10.75 8.24999 10.75C7.54901 10.75 6.98076 10.1818 6.98076 9.48077C6.98076 8.77979 7.54901 8.21154 8.24999 8.21154C8.95097 8.21154 9.51923 8.77979 9.51923 9.48077Z" fill="white" style="fill:white;fill-opacity:1;"/>
<rect x="8.25024" y="6.30768" width="2.53847" height="2.53847" rx="1.26924" transform="rotate(-90 8.25024 6.30768)" fill="url(#paint1_linear_3558_60)" style=""/>
<defs>
<linearGradient id="paint0_linear_3558_60" x1="8" y1="15.888" x2="8" y2="0.0640007" gradientUnits="userSpaceOnUse">
<stop stop-color="#5A5A5A" style="stop-color:#5A5A5A;stop-color:color(display-p3 0.3529 0.3529 0.3529);stop-opacity:1;"/>
<stop offset="0.146" stop-color="#484848" style="stop-color:#484848;stop-color:color(display-p3 0.2824 0.2824 0.2824);stop-opacity:1;"/>
<stop offset="0.52" stop-color="#212121" style="stop-color:#212121;stop-color:color(display-p3 0.1294 0.1294 0.1294);stop-opacity:1;"/>
<stop offset="0.817" stop-color="#080808" style="stop-color:#080808;stop-color:color(display-p3 0.0314 0.0314 0.0314);stop-opacity:1;"/>
<stop offset="1" style="stop-color:black;stop-opacity:1;"/>
</linearGradient>
<linearGradient id="paint1_linear_3558_60" x1="8.6234" y1="6.6783" x2="10.4181" y2="8.47553" gradientUnits="userSpaceOnUse">
<stop stop-color="#E52F08" style="stop-color:#E52F08;stop-color:color(display-p3 0.8980 0.1843 0.0314);stop-opacity:1;"/>
<stop offset="1" stop-color="#E94F96" style="stop-color:#E94F96;stop-color:color(display-p3 0.9137 0.3098 0.5882);stop-opacity:1;"/>
</linearGradient>
</defs>
</svg>
