<svg width="32" height="24" viewBox="0 0 32 24" fill="none" xmlns="http://www.w3.org/2000/svg">
<g clip-path="url(#clip0_3558_75)">
<rect width="32" height="24" fill="url(#paint0_linear_3558_75)" style=""/>
<path fill-rule="evenodd" clip-rule="evenodd" d="M13.5999 6.32498H11.6499V14.775H11.65C11.65 14.775 11.65 14.775 11.65 14.775C11.65 17.1084 13.5416 19 15.875 19C18.2084 19 20.1 17.1084 20.1 14.775C20.1 12.4416 18.2084 10.55 15.875 10.55C15.0374 10.55 14.2566 10.7938 13.5999 11.2143V6.32498ZM17.8251 14.775C17.8251 15.852 16.9521 16.725 15.8751 16.725C14.7982 16.725 13.9251 15.852 13.9251 14.775C13.9251 13.698 14.7982 12.825 15.8751 12.825C16.9521 12.825 17.8251 13.698 17.8251 14.775Z" fill="white" style="fill:white;fill-opacity:1;"/>
<rect x="15.8752" y="9.90002" width="3.9" height="3.9" rx="1.95" transform="rotate(-90 15.8752 9.90002)" fill="url(#paint1_linear_3558_75)" style=""/>
</g>
<defs>
<linearGradient id="paint0_linear_3558_75" x1="16" y1="23.832" x2="16" y2="0.096001" gradientUnits="userSpaceOnUse">
<stop stop-color="#5A5A5A" style="stop-color:#5A5A5A;stop-color:color(display-p3 0.3529 0.3529 0.3529);stop-opacity:1;"/>
<stop offset="0.146" stop-color="#484848" style="stop-color:#484848;stop-color:color(display-p3 0.2824 0.2824 0.2824);stop-opacity:1;"/>
<stop offset="0.52" stop-color="#212121" style="stop-color:#212121;stop-color:color(display-p3 0.1294 0.1294 0.1294);stop-opacity:1;"/>
<stop offset="0.817" stop-color="#080808" style="stop-color:#080808;stop-color:color(display-p3 0.0314 0.0314 0.0314);stop-opacity:1;"/>
<stop offset="1" style="stop-color:black;stop-opacity:1;"/>
</linearGradient>
<linearGradient id="paint1_linear_3558_75" x1="16.4485" y1="10.4694" x2="19.2058" y2="13.2306" gradientUnits="userSpaceOnUse">
<stop stop-color="#E52F08" style="stop-color:#E52F08;stop-color:color(display-p3 0.8980 0.1843 0.0314);stop-opacity:1;"/>
<stop offset="1" stop-color="#E94F96" style="stop-color:#E94F96;stop-color:color(display-p3 0.9137 0.3098 0.5882);stop-opacity:1;"/>
</linearGradient>
<clipPath id="clip0_3558_75">
<rect width="32" height="24" rx="4" fill="white" style="fill:white;fill-opacity:1;"/>
</clipPath>
</defs>
</svg>
