<svg width="48" height="36" viewBox="0 0 48 36" fill="none" xmlns="http://www.w3.org/2000/svg">
<rect width="48" height="36" rx="6" fill="url(#paint0_linear_2740_2251)" style=""/>
<path d="M38.0001 14.5999C38.0001 14.222 37.9205 13.8441 37.7614 13.4661C37.6023 13.0882 37.3637 12.7859 37.1251 12.5591C36.8069 12.2568 36.4887 12.03 36.091 11.9545C35.6933 11.8033 35.216 11.8033 34.5796 11.8033H25.8297V14.5999V17.3965H34.5001C35.1364 17.3965 35.6933 17.321 36.0114 17.2454C36.4092 17.0942 36.7273 16.943 37.0455 16.6407C37.3637 16.3384 37.5228 16.036 37.6819 15.7337C37.9205 15.3558 38.0001 14.9778 38.0001 14.5999Z" fill="white" style="fill:white;fill-opacity:1;"/>
<path d="M38.0001 21.4781C38.0001 21.1002 37.9205 20.7222 37.7614 20.3443C37.6023 19.9664 37.3637 19.6641 37.1251 19.4373C36.8069 19.135 36.4887 18.9082 36.091 18.8326C35.6933 18.6815 35.216 18.6815 34.5796 18.6815H25.8297V21.4781V24.2747H34.5001C35.1364 24.2747 35.6933 24.1991 36.0114 24.1235C36.4092 23.9724 36.7273 23.8212 37.0455 23.5189C37.3637 23.2165 37.5228 22.9142 37.6819 22.6119C37.9205 22.2339 38.0001 21.856 38.0001 21.4781Z" fill="white" style="fill:white;fill-opacity:1;"/>
<path d="M24.6362 17.3968C24.3181 13.7687 21.6135 11.35 17.3181 11.35C12.7841 11.35 10 13.9955 10 18.0014C10 22.1586 12.9432 24.6529 17.3181 24.6529C21.6135 24.6529 24.3181 22.3098 24.6362 18.6061H17.2386V17.3212H24.6362V17.3968Z" fill="white" style="fill:white;fill-opacity:1;"/>
<defs>
<linearGradient id="paint0_linear_2740_2251" x1="72" y1="18" x2="37.44" y2="64.08" gradientUnits="userSpaceOnUse">
<stop stop-color="#083969" style="stop-color:#083969;stop-color:color(display-p3 0.0314 0.2235 0.4118);stop-opacity:1;"/>
<stop offset="0.491699" stop-color="#007B9D" style="stop-color:#007B9D;stop-color:color(display-p3 0.0000 0.4824 0.6157);stop-opacity:1;"/>
<stop offset="1" stop-color="#00A84A" style="stop-color:#00A84A;stop-color:color(display-p3 0.0000 0.6588 0.2902);stop-opacity:1;"/>
</linearGradient>
</defs>
</svg>
