<svg width="16" height="16" viewBox="0 0 16 16" fill="none" xmlns="http://www.w3.org/2000/svg">
<rect width="16" height="16" rx="4" fill="url(#paint0_linear_2180_552)" style=""/>
<path d="M13 6.76064C13 6.62566 12.9716 6.49069 12.9148 6.35572C12.8579 6.22075 12.7727 6.11277 12.6875 6.03179C12.5739 5.92381 12.4602 5.84282 12.3182 5.81583C12.1761 5.76184 12.0057 5.76184 11.7784 5.76184H8.65344V6.76064V7.75943H11.75C11.9773 7.75943 12.1761 7.73244 12.2898 7.70544C12.4318 7.65146 12.5455 7.59747 12.6591 7.48949C12.7727 7.38151 12.8295 7.27353 12.8864 7.16555C12.9716 7.03058 13 6.89561 13 6.76064Z" fill="white" style="fill:white;fill-opacity:1;"/>
<path d="M13 9.21718C13 9.08221 12.9716 8.94723 12.9148 8.81226C12.8579 8.67729 12.7727 8.56931 12.6875 8.48833C12.5739 8.38035 12.4602 8.29937 12.3182 8.27237C12.1761 8.21838 12.0057 8.21838 11.7784 8.21838H8.65344V9.21718V10.216H11.75C11.9773 10.216 12.1761 10.189 12.2898 10.162C12.4318 10.108 12.5455 10.054 12.6591 9.94603C12.7727 9.83805 12.8295 9.73008 12.8864 9.6221C12.9716 9.48712 13 9.35215 13 9.21718Z" fill="white" style="fill:white;fill-opacity:1;"/>
<path d="M8.22723 7.75954C8.11359 6.4638 7.14769 5.59998 5.61361 5.59998C3.99431 5.59998 3 6.54478 3 7.97549C3 9.46019 4.05113 10.351 5.61361 10.351C7.14769 10.351 8.11359 9.51418 8.22723 8.19145H5.5852V7.73254H8.22723V7.75954Z" fill="white" style="fill:white;fill-opacity:1;"/>
<defs>
<linearGradient id="paint0_linear_2180_552" x1="8" y1="-8" x2="-8" y2="8" gradientUnits="userSpaceOnUse">
<stop stop-color="#083969" style="stop-color:#083969;stop-color:color(display-p3 0.0314 0.2235 0.4118);stop-opacity:1;"/>
<stop offset="0.491699" stop-color="#007B9D" style="stop-color:#007B9D;stop-color:color(display-p3 0.0000 0.4824 0.6157);stop-opacity:1;"/>
<stop offset="1" stop-color="#00A84A" style="stop-color:#00A84A;stop-color:color(display-p3 0.0000 0.6588 0.2902);stop-opacity:1;"/>
</linearGradient>
</defs>
</svg>
