<svg width="40" height="30" viewBox="0 0 40 30" fill="none" xmlns="http://www.w3.org/2000/svg">
<rect width="40" height="30" rx="5" fill="url(#paint0_linear_2740_2214)" style=""/>
<path d="M32 12.0856C32 11.7617 31.9318 11.4378 31.7954 11.1138C31.6591 10.7899 31.4545 10.5307 31.25 10.3364C30.9772 10.0772 30.7045 9.88287 30.3636 9.81808C30.0227 9.68851 29.6136 9.68851 29.0682 9.68851H21.5682V12.0856V14.4827H29C29.5454 14.4827 30.0227 14.4179 30.2954 14.3532C30.6363 14.2236 30.9091 14.094 31.1818 13.8349C31.4545 13.5757 31.5909 13.3166 31.7272 13.0574C31.9318 12.7335 32 12.4096 32 12.0856Z" fill="white" style="fill:white;fill-opacity:1;"/>
<path d="M32 17.9812C32 17.6573 31.9318 17.3333 31.7954 17.0094C31.6591 16.6855 31.4545 16.4263 31.25 16.232C30.9772 15.9728 30.7045 15.7785 30.3636 15.7137C30.0227 15.5841 29.6136 15.5841 29.0682 15.5841H21.5682V17.9812V20.3783H29C29.5454 20.3783 30.0227 20.3135 30.2954 20.2488C30.6363 20.1192 30.9091 19.9896 31.1818 19.7305C31.4545 19.4713 31.5909 19.2122 31.7272 18.953C31.9318 18.6291 32 18.3052 32 17.9812Z" fill="white" style="fill:white;fill-opacity:1;"/>
<path d="M20.5453 14.4829C20.2726 11.3732 17.9545 9.29999 14.2727 9.29999C10.3863 9.29999 8 11.5675 8 15.0012C8 18.5645 10.5227 20.7025 14.2727 20.7025C17.9545 20.7025 20.2726 18.6941 20.5453 15.5195H14.2045V14.4181H20.5453V14.4829Z" fill="white" style="fill:white;fill-opacity:1;"/>
<defs>
<linearGradient id="paint0_linear_2740_2214" x1="60" y1="15" x2="31.2" y2="53.4" gradientUnits="userSpaceOnUse">
<stop stop-color="#083969" style="stop-color:#083969;stop-color:color(display-p3 0.0314 0.2235 0.4118);stop-opacity:1;"/>
<stop offset="0.491699" stop-color="#007B9D" style="stop-color:#007B9D;stop-color:color(display-p3 0.0000 0.4824 0.6157);stop-opacity:1;"/>
<stop offset="1" stop-color="#00A84A" style="stop-color:#00A84A;stop-color:color(display-p3 0.0000 0.6588 0.2902);stop-opacity:1;"/>
</linearGradient>
</defs>
</svg>
