<svg width="32" height="24" viewBox="0 0 32 24" fill="none" xmlns="http://www.w3.org/2000/svg">
<rect width="32" height="24" rx="4" fill="url(#paint0_linear_2740_2204)" style=""/>
<path d="M26 9.57138C26 9.30144 25.9432 9.03149 25.8295 8.76155C25.7159 8.4916 25.5454 8.27565 25.375 8.11368C25.1477 7.89773 24.9205 7.73576 24.6364 7.68177C24.3523 7.57379 24.0114 7.57379 23.5568 7.57379H17.3069V9.57138V11.569H23.5C23.9546 11.569 24.3523 11.515 24.5795 11.461C24.8636 11.353 25.0909 11.245 25.3182 11.0291C25.5454 10.8131 25.6591 10.5972 25.7727 10.3812C25.9432 10.1113 26 9.84133 26 9.57138Z" fill="white" style="fill:white;fill-opacity:1;"/>
<path d="M26 14.4843C26 14.2144 25.9432 13.9445 25.8295 13.6745C25.7159 13.4046 25.5454 13.1886 25.375 13.0266C25.1477 12.8107 24.9205 12.6487 24.6364 12.5947C24.3523 12.4868 24.0114 12.4868 23.5568 12.4868H17.3069V14.4843V16.4819H23.5C23.9546 16.4819 24.3523 16.428 24.5795 16.374C24.8636 16.266 25.0909 16.158 25.3182 15.9421C25.5454 15.7261 25.6591 15.5101 25.7727 15.2942C25.9432 15.0242 26 14.7543 26 14.4843Z" fill="white" style="fill:white;fill-opacity:1;"/>
<path d="M16.4545 11.5691C16.2272 8.97765 14.2954 7.25 11.2272 7.25C7.98862 7.25 6 9.13961 6 12.001C6 14.9704 8.10225 16.7521 11.2272 16.7521C14.2954 16.7521 16.2272 15.0784 16.4545 12.4329H11.1704V11.5151H16.4545V11.5691Z" fill="white" style="fill:white;fill-opacity:1;"/>
<defs>
<linearGradient id="paint0_linear_2740_2204" x1="48" y1="12" x2="24.96" y2="42.72" gradientUnits="userSpaceOnUse">
<stop stop-color="#083969" style="stop-color:#083969;stop-color:color(display-p3 0.0314 0.2235 0.4118);stop-opacity:1;"/>
<stop offset="0.491699" stop-color="#007B9D" style="stop-color:#007B9D;stop-color:color(display-p3 0.0000 0.4824 0.6157);stop-opacity:1;"/>
<stop offset="1" stop-color="#00A84A" style="stop-color:#00A84A;stop-color:color(display-p3 0.0000 0.6588 0.2902);stop-opacity:1;"/>
</linearGradient>
</defs>
</svg>
