<svg width="24" height="24" viewBox="0 0 24 24" fill="none" xmlns="http://www.w3.org/2000/svg">
<g clip-path="url(#clip0_1857_947)">
<rect width="24" height="24" rx="6" fill="url(#paint0_linear_1857_947)" style=""/>
<g clip-path="url(#clip1_1857_947)">
<path opacity="0.1" d="M26.3672 50.625C38.5994 50.625 48.5156 40.7088 48.5156 28.4766C48.5156 16.2443 38.5994 6.32812 26.3672 6.32812C14.1349 6.32812 4.21875 16.2443 4.21875 28.4766C4.21875 40.7088 14.1349 50.625 26.3672 50.625Z" fill="url(#paint1_linear_1857_947)" style=""/>
<path opacity="0.1" d="M4.57031 33.75C10.9777 33.75 16.1719 28.5558 16.1719 22.1484C16.1719 15.7411 10.9777 10.5469 4.57031 10.5469C-1.83705 10.5469 -7.03125 15.7411 -7.03125 22.1484C-7.03125 28.5558 -1.83705 33.75 4.57031 33.75Z" fill="url(#paint2_linear_1857_947)" style=""/>
<path opacity="0.1" d="M29.8828 17.5781C40.1734 17.5781 48.5156 9.23593 48.5156 -1.05469C48.5156 -11.3453 40.1734 -19.6875 29.8828 -19.6875C19.5922 -19.6875 11.25 -11.3453 11.25 -1.05469C11.25 9.23593 19.5922 17.5781 29.8828 17.5781Z" fill="url(#paint3_linear_1857_947)" style=""/>
<g filter="url(#filter0_d_1857_947)">
<path d="M7.03125 9.84375H3.51562C3.1273 9.84375 2.8125 10.1585 2.8125 10.5469V12.6562C2.8125 13.0446 3.1273 13.3594 3.51562 13.3594H7.03125C7.41958 13.3594 7.73438 13.0446 7.73438 12.6562V10.5469C7.73438 10.1585 7.41958 9.84375 7.03125 9.84375Z" fill="black" style="fill:black;fill-opacity:1;"/>
</g>
<path d="M7.03125 9.84375H3.51562C3.1273 9.84375 2.8125 10.1585 2.8125 10.5469V12.6562C2.8125 13.0446 3.1273 13.3594 3.51562 13.3594H7.03125C7.41958 13.3594 7.73438 13.0446 7.73438 12.6562V10.5469C7.73438 10.1585 7.41958 9.84375 7.03125 9.84375Z" fill="url(#paint4_linear_1857_947)" style=""/>
<path opacity="0.3" d="M4.21875 10.5469H3.51562V12.6562H4.21875V10.5469Z" fill="#7A3802" style="fill:#7A3802;fill:color(display-p3 0.4784 0.2196 0.0078);fill-opacity:1;"/>
<path opacity="0.3" d="M5.625 10.5469H4.92188V12.6562H5.625V10.5469Z" fill="#7A3802" style="fill:#7A3802;fill:color(display-p3 0.4784 0.2196 0.0078);fill-opacity:1;"/>
<path opacity="0.3" d="M7.03125 10.5469H6.32812V12.6562H7.03125V10.5469Z" fill="#7A3802" style="fill:#7A3802;fill:color(display-p3 0.4784 0.2196 0.0078);fill-opacity:1;"/>
<path d="M6.32812 15.4688H2.8125V16.1719H6.32812V15.4688Z" fill="white" fill-opacity="0.8" style="fill:white;fill-opacity:0.8;"/>
<path d="M4.92188 16.875H2.8125V17.5781H4.92188V16.875Z" fill="white" fill-opacity="0.8" style="fill:white;fill-opacity:0.8;"/>
<path d="M7.73438 16.875H5.625V17.5781H7.73438V16.875Z" fill="white" fill-opacity="0.8" style="fill:white;fill-opacity:0.8;"/>
<path d="M10.5469 16.875H8.4375V17.5781H10.5469V16.875Z" fill="white" fill-opacity="0.8" style="fill:white;fill-opacity:0.8;"/>
<path d="M10.5469 15.4688H7.03125V16.1719H10.5469V15.4688Z" fill="white" fill-opacity="0.8" style="fill:white;fill-opacity:0.8;"/>
<path d="M14.7656 15.4688H11.25V16.1719H14.7656V15.4688Z" fill="white" fill-opacity="0.8" style="fill:white;fill-opacity:0.8;"/>
<path d="M18.9844 15.4688H15.4688V16.1719H18.9844V15.4688Z" fill="white" fill-opacity="0.8" style="fill:white;fill-opacity:0.8;"/>
</g>
</g>
<defs>
<filter id="filter0_d_1857_947" x="1.5625" y="9.84375" width="7.42188" height="6.01562" filterUnits="userSpaceOnUse" color-interpolation-filters="sRGB">
<feFlood flood-opacity="0" result="BackgroundImageFix"/>
<feColorMatrix in="SourceAlpha" type="matrix" values="0 0 0 0 0 0 0 0 0 0 0 0 0 0 0 0 0 0 127 0" result="hardAlpha"/>
<feOffset dy="1.25"/>
<feGaussianBlur stdDeviation="0.625"/>
<feColorMatrix type="matrix" values="0 0 0 0 0 0 0 0 0 0 0 0 0 0 0 0 0 0 0.1 0"/>
<feBlend mode="normal" in2="BackgroundImageFix" result="effect1_dropShadow_1857_947"/>
<feBlend mode="normal" in="SourceGraphic" in2="effect1_dropShadow_1857_947" result="shape"/>
</filter>
<linearGradient id="paint0_linear_1857_947" x1="0" y1="24" x2="24" y2="0" gradientUnits="userSpaceOnUse">
<stop stop-color="#060B0E" style="stop-color:#060B0E;stop-color:color(display-p3 0.0235 0.0431 0.0549);stop-opacity:1;"/>
<stop offset="1" stop-color="#254764" style="stop-color:#254764;stop-color:color(display-p3 0.1451 0.2784 0.3922);stop-opacity:1;"/>
</linearGradient>
<linearGradient id="paint1_linear_1857_947" x1="16.4602" y1="17.6132" x2="14.2254" y2="11.4896" gradientUnits="userSpaceOnUse">
<stop stop-color="white" stop-opacity="0" style="stop-color:none;stop-opacity:0;"/>
<stop offset="1" stop-color="white" style="stop-color:white;stop-opacity:1;"/>
</linearGradient>
<linearGradient id="paint2_linear_1857_947" x1="4.57031" y1="33.75" x2="2.00474" y2="23.4311" gradientUnits="userSpaceOnUse">
<stop stop-color="white" stop-opacity="0" style="stop-color:none;stop-opacity:0;"/>
<stop offset="1" stop-color="white" style="stop-color:white;stop-opacity:1;"/>
</linearGradient>
<linearGradient id="paint3_linear_1857_947" x1="25.7624" y1="1.00535" x2="29.8828" y2="17.5781" gradientUnits="userSpaceOnUse">
<stop stop-color="white" stop-opacity="0" style="stop-color:none;stop-opacity:0;"/>
<stop offset="1" stop-color="white" style="stop-color:white;stop-opacity:1;"/>
</linearGradient>
<linearGradient id="paint4_linear_1857_947" x1="5.27344" y1="9.84375" x2="5.27344" y2="13.3594" gradientUnits="userSpaceOnUse">
<stop stop-color="#FAD961" style="stop-color:#FAD961;stop-color:color(display-p3 0.9804 0.8510 0.3804);stop-opacity:1;"/>
<stop offset="1" stop-color="#F7955D" style="stop-color:#F7955D;stop-color:color(display-p3 0.9686 0.5843 0.3647);stop-opacity:1;"/>
</linearGradient>
<clipPath id="clip0_1857_947">
<rect width="24" height="24" rx="6" fill="white" style="fill:white;fill-opacity:1;"/>
</clipPath>
<clipPath id="clip1_1857_947">
<rect width="24" height="24" fill="white" style="fill:white;fill-opacity:1;"/>
</clipPath>
</defs>
</svg>
