<svg width="16" height="16" viewBox="0 0 16 16" fill="none" xmlns="http://www.w3.org/2000/svg">
<g clip-path="url(#clip0_2180_427)">
<rect width="16" height="16" rx="4" fill="url(#paint0_linear_2180_427)" style=""/>
<g clip-path="url(#clip1_2180_427)">
<path opacity="0.1" d="M17.5781 33.75C25.733 33.75 32.3438 27.1392 32.3438 18.9844C32.3438 10.8295 25.733 4.21875 17.5781 4.21875C9.4233 4.21875 2.8125 10.8295 2.8125 18.9844C2.8125 27.1392 9.4233 33.75 17.5781 33.75Z" fill="url(#paint1_linear_2180_427)" style=""/>
<path opacity="0.1" d="M3.04688 22.5C7.31845 22.5 10.7812 19.0372 10.7812 14.7656C10.7812 10.494 7.31845 7.03125 3.04688 7.03125C-1.2247 7.03125 -4.6875 10.494 -4.6875 14.7656C-4.6875 19.0372 -1.2247 22.5 3.04688 22.5Z" fill="url(#paint2_linear_2180_427)" style=""/>
<path opacity="0.1" d="M19.9219 11.7188C26.7823 11.7188 32.3438 6.15729 32.3438 -0.703125C32.3438 -7.56354 26.7823 -13.125 19.9219 -13.125C13.0615 -13.125 7.5 -7.56354 7.5 -0.703125C7.5 6.15729 13.0615 11.7188 19.9219 11.7188Z" fill="url(#paint3_linear_2180_427)" style=""/>
<g filter="url(#filter0_d_2180_427)">
<path d="M4.6875 6.5625H2.34375C2.08487 6.5625 1.875 6.77237 1.875 7.03125V8.4375C1.875 8.69638 2.08487 8.90625 2.34375 8.90625H4.6875C4.94638 8.90625 5.15625 8.69638 5.15625 8.4375V7.03125C5.15625 6.77237 4.94638 6.5625 4.6875 6.5625Z" fill="black" style="fill:black;fill-opacity:1;"/>
</g>
<path d="M4.6875 6.5625H2.34375C2.08487 6.5625 1.875 6.77237 1.875 7.03125V8.4375C1.875 8.69638 2.08487 8.90625 2.34375 8.90625H4.6875C4.94638 8.90625 5.15625 8.69638 5.15625 8.4375V7.03125C5.15625 6.77237 4.94638 6.5625 4.6875 6.5625Z" fill="url(#paint4_linear_2180_427)" style=""/>
<path opacity="0.3" d="M2.8125 7.03125H2.34375V8.4375H2.8125V7.03125Z" fill="#7A3802" style="fill:#7A3802;fill:color(display-p3 0.4784 0.2196 0.0078);fill-opacity:1;"/>
<path opacity="0.3" d="M3.75 7.03125H3.28125V8.4375H3.75V7.03125Z" fill="#7A3802" style="fill:#7A3802;fill:color(display-p3 0.4784 0.2196 0.0078);fill-opacity:1;"/>
<path opacity="0.3" d="M4.6875 7.03125H4.21875V8.4375H4.6875V7.03125Z" fill="#7A3802" style="fill:#7A3802;fill:color(display-p3 0.4784 0.2196 0.0078);fill-opacity:1;"/>
<path d="M4.21875 10.3125H1.875V10.7812H4.21875V10.3125Z" fill="white" fill-opacity="0.8" style="fill:white;fill-opacity:0.8;"/>
<path d="M3.28125 11.25H1.875V11.7188H3.28125V11.25Z" fill="white" fill-opacity="0.8" style="fill:white;fill-opacity:0.8;"/>
<path d="M5.15625 11.25H3.75V11.7188H5.15625V11.25Z" fill="white" fill-opacity="0.8" style="fill:white;fill-opacity:0.8;"/>
<path d="M7.03125 11.25H5.625V11.7188H7.03125V11.25Z" fill="white" fill-opacity="0.8" style="fill:white;fill-opacity:0.8;"/>
<path d="M7.03125 10.3125H4.6875V10.7812H7.03125V10.3125Z" fill="white" fill-opacity="0.8" style="fill:white;fill-opacity:0.8;"/>
<path d="M9.84375 10.3125H7.5V10.7812H9.84375V10.3125Z" fill="white" fill-opacity="0.8" style="fill:white;fill-opacity:0.8;"/>
<path d="M12.6562 10.3125H10.3125V10.7812H12.6562V10.3125Z" fill="white" fill-opacity="0.8" style="fill:white;fill-opacity:0.8;"/>
</g>
</g>
<defs>
<filter id="filter0_d_2180_427" x="0.625" y="6.5625" width="5.78125" height="4.84375" filterUnits="userSpaceOnUse" color-interpolation-filters="sRGB">
<feFlood flood-opacity="0" result="BackgroundImageFix"/>
<feColorMatrix in="SourceAlpha" type="matrix" values="0 0 0 0 0 0 0 0 0 0 0 0 0 0 0 0 0 0 127 0" result="hardAlpha"/>
<feOffset dy="1.25"/>
<feGaussianBlur stdDeviation="0.625"/>
<feColorMatrix type="matrix" values="0 0 0 0 0 0 0 0 0 0 0 0 0 0 0 0 0 0 0.1 0"/>
<feBlend mode="normal" in2="BackgroundImageFix" result="effect1_dropShadow_2180_427"/>
<feBlend mode="normal" in="SourceGraphic" in2="effect1_dropShadow_2180_427" result="shape"/>
</filter>
<linearGradient id="paint0_linear_2180_427" x1="0" y1="16" x2="16" y2="0" gradientUnits="userSpaceOnUse">
<stop stop-color="#060B0E" style="stop-color:#060B0E;stop-color:color(display-p3 0.0235 0.0431 0.0549);stop-opacity:1;"/>
<stop offset="1" stop-color="#254764" style="stop-color:#254764;stop-color:color(display-p3 0.1451 0.2784 0.3922);stop-opacity:1;"/>
</linearGradient>
<linearGradient id="paint1_linear_2180_427" x1="10.9735" y1="11.7421" x2="9.48361" y2="7.65973" gradientUnits="userSpaceOnUse">
<stop stop-color="white" stop-opacity="0" style="stop-color:none;stop-opacity:0;"/>
<stop offset="1" stop-color="white" style="stop-color:white;stop-opacity:1;"/>
</linearGradient>
<linearGradient id="paint2_linear_2180_427" x1="3.04687" y1="22.5" x2="1.3365" y2="15.6207" gradientUnits="userSpaceOnUse">
<stop stop-color="white" stop-opacity="0" style="stop-color:none;stop-opacity:0;"/>
<stop offset="1" stop-color="white" style="stop-color:white;stop-opacity:1;"/>
</linearGradient>
<linearGradient id="paint3_linear_2180_427" x1="17.1749" y1="0.670236" x2="19.9219" y2="11.7187" gradientUnits="userSpaceOnUse">
<stop stop-color="white" stop-opacity="0" style="stop-color:none;stop-opacity:0;"/>
<stop offset="1" stop-color="white" style="stop-color:white;stop-opacity:1;"/>
</linearGradient>
<linearGradient id="paint4_linear_2180_427" x1="3.51562" y1="6.5625" x2="3.51562" y2="8.90625" gradientUnits="userSpaceOnUse">
<stop stop-color="#FAD961" style="stop-color:#FAD961;stop-color:color(display-p3 0.9804 0.8510 0.3804);stop-opacity:1;"/>
<stop offset="1" stop-color="#F7955D" style="stop-color:#F7955D;stop-color:color(display-p3 0.9686 0.5843 0.3647);stop-opacity:1;"/>
</linearGradient>
<clipPath id="clip0_2180_427">
<rect width="16" height="16" rx="4" fill="white" style="fill:white;fill-opacity:1;"/>
</clipPath>
<clipPath id="clip1_2180_427">
<rect width="16" height="16" fill="white" style="fill:white;fill-opacity:1;"/>
</clipPath>
</defs>
</svg>
