<svg width="32" height="24" viewBox="0 0 32 24" fill="none" xmlns="http://www.w3.org/2000/svg">
<rect x="0.5" y="0.5" width="31" height="23" rx="3.5" fill="white" style="fill:white;fill-opacity:1;"/>
<rect x="0.5" y="0.5" width="31" height="23" rx="3.5" stroke="#ECECF0" style="stroke:#ECECF0;stroke:color(display-p3 0.9255 0.9255 0.9412);stroke-opacity:1;"/>
<path fill-rule="evenodd" clip-rule="evenodd" d="M9.33815 10.7896H7.69413C7.69413 10.5054 7.66251 10.3148 7.59942 10.2177C7.50152 10.0739 7.23157 10.002 6.78963 10.002C6.36037 10.002 6.07592 10.0434 5.93708 10.1262C5.79831 10.2093 5.72878 10.39 5.72878 10.6681C5.72878 10.9199 5.79035 11.0858 5.91366 11.1652C6.00192 11.2216 6.11869 11.2548 6.26414 11.2647L6.59567 11.2893C7.3062 11.339 7.74997 11.374 7.92696 11.394C8.48894 11.4536 8.89622 11.611 9.14905 11.8661C9.34787 12.0651 9.46648 12.3252 9.50439 12.6465C9.52646 12.8386 9.53753 13.0561 9.53753 13.2977C9.53753 13.8545 9.48703 14.2623 9.3861 14.5207C9.20305 14.9949 8.79187 15.2945 8.15199 15.4203C7.88395 15.4734 7.47396 15.5 6.92242 15.5C6.00168 15.5 5.36013 15.4423 4.99785 15.3262C4.55321 15.1841 4.26008 14.8962 4.11821 14.4625C4.03919 14.2211 4 13.819 4 13.2562H5.64394C5.64394 13.319 5.64418 13.3669 5.64418 13.4C5.64418 13.7004 5.72607 13.8935 5.88968 13.9796C6.00303 14.0389 6.13988 14.07 6.30071 14.0737H6.90514C7.21348 14.0737 7.41039 14.057 7.49523 14.0236C7.64642 13.961 7.74559 13.8603 7.79298 13.7209C7.81815 13.6349 7.83058 13.5238 7.83058 13.3879C7.83058 13.0834 7.72512 12.8981 7.51435 12.8316C7.43557 12.8054 7.06907 12.7688 6.41477 12.7224C5.88928 12.6829 5.5243 12.6449 5.31998 12.608C4.78174 12.502 4.42305 12.2839 4.24407 11.9527C4.08667 11.6714 4.00805 11.2457 4.00805 10.6763C4.00805 10.2426 4.0505 9.89487 4.13557 9.63331C4.22065 9.37175 4.35774 9.17305 4.54692 9.03728C4.82404 8.82867 5.17859 8.70624 5.61025 8.66966C5.9695 8.63668 6.36794 8.61981 6.8062 8.61981C7.49618 8.61981 7.9879 8.66168 8.28103 8.74442C8.99643 8.94699 9.354 9.51415 9.354 10.4461C9.354 10.5225 9.34874 10.6369 9.33815 10.7896Z" fill="#0054A5" style="fill:#0054A5;fill:color(display-p3 0.0000 0.3294 0.6471);fill-opacity:1;"/>
<path fill-rule="evenodd" clip-rule="evenodd" d="M18.2734 12.0627H19.375C19.7243 12.0495 19.9367 12.0211 20.0132 11.9769C20.1176 11.9164 20.1877 11.7952 20.2226 11.6136C20.2449 11.4927 20.2561 11.3129 20.2561 11.0741C20.2561 10.7815 20.2339 10.5647 20.1894 10.4231C20.1258 10.2248 19.9736 10.1039 19.7325 10.0601C19.6849 10.0534 19.5707 10.0499 19.3899 10.0499H18.2734V12.0627ZM16.5063 15.453V8.53629H19.0818H19.486H19.7985C20.2501 8.53629 20.5947 8.57514 20.8314 8.65276C21.3729 8.83149 21.7362 9.19743 21.9224 9.7505C22.0184 10.0408 22.0664 10.4778 22.0664 11.0613C22.0664 11.7629 22.0131 12.2671 21.9077 12.5741C21.6966 13.1811 21.262 13.5308 20.6055 13.6214C20.5284 13.635 20.2 13.6472 19.6203 13.6569L19.327 13.6672H18.2734V15.453H16.5063Z" fill="#0054A5" style="fill:#0054A5;fill:color(display-p3 0.0000 0.3294 0.6471);fill-opacity:1;"/>
<path fill-rule="evenodd" clip-rule="evenodd" d="M25.5221 12.9102L24.6941 9.91195L23.8907 12.9102H25.5221ZM25.873 14.2577H23.5104L23.193 15.453H21.3647L23.3374 8.53629H26.0031L28 15.453H26.2102L25.873 14.2577Z" fill="#0054A5" style="fill:#0054A5;fill:color(display-p3 0.0000 0.3294 0.6471);fill-opacity:1;"/>
<path fill-rule="evenodd" clip-rule="evenodd" d="M14.1402 9.41154C14.869 9.41154 15.5194 9.76524 15.9471 10.3192L16.328 9.45887C15.7322 8.86569 14.9215 8.5 14.0272 8.5C12.6348 8.5 11.4436 9.38587 10.9548 10.6399H10.212L9.77345 11.6304H10.729C10.7218 11.7222 10.7171 11.8142 10.7171 11.908C10.7171 12.0216 10.7228 12.1338 10.7334 12.2446H10.2532L9.81471 13.2354H10.9776C11.4803 14.4577 12.6566 15.3158 14.0272 15.3158C14.7179 15.3158 15.3588 15.0978 15.8894 14.7254V13.5111C15.4621 14.0236 14.837 14.3475 14.1402 14.3475C13.3256 14.3475 12.609 13.9051 12.1919 13.2354H14.627L15.0656 12.2446H11.8336C11.8169 12.1254 11.808 12.0035 11.808 11.8794C11.808 11.7955 11.8121 11.7124 11.8198 11.6304H15.3373L15.7759 10.6399H12.1239C12.5279 9.90562 13.2794 9.41154 14.1402 9.41154Z" fill="#FEC10E" style="fill:#FEC10E;fill:color(display-p3 0.9961 0.7569 0.0549);fill-opacity:1;"/>
</svg>
