<svg width="32" height="24" viewBox="0 0 32 24" fill="none" xmlns="http://www.w3.org/2000/svg">
<rect width="32" height="24" rx="4" fill="#DE378C" style="fill:#DE378C;fill:color(display-p3 0.8706 0.2157 0.5490);fill-opacity:1;"/>
<path fill-rule="evenodd" clip-rule="evenodd" d="M12.6985 15.2601C12.6985 15.2601 12.5933 14.7636 12.5933 14.4368C12.5933 14.1098 12.6929 13.6083 12.6929 13.6083C13.0595 12.1104 14.4028 10.995 16 10.995C17.8785 10.995 19.42 12.5346 19.42 14.4286V15.2615H14.4291C14.7239 15.8422 15.3199 16.1689 16.0073 16.1689H20.4938L20.5 11.2573C20.5 10.525 19.9058 9.92593 19.1795 9.92593H12.8205C12.0943 9.92593 11.5 10.5069 11.5 11.2392V17.6505C11.5 18.3827 12.0943 19 12.8205 19H19.1795C19.8313 19 20.375 18.5281 20.48 17.9111H16.0073C14.4075 17.9111 13.0624 16.7617 12.6985 15.2601Z" fill="white" style="fill:white;fill-opacity:1;"/>
<path fill-rule="evenodd" clip-rule="evenodd" d="M15.8714 12.5185C15.2012 12.5185 14.6183 12.9717 14.3286 13.5556H17.4143C17.1247 12.9717 16.5417 12.5185 15.8714 12.5185Z" fill="white" style="fill:white;fill-opacity:1;"/>
<path fill-rule="evenodd" clip-rule="evenodd" d="M18.6999 7.87737C18.6999 6.28824 17.4332 5 15.8707 5C14.334 5 13.0842 6.24611 13.0431 7.79882C13.0425 7.80538 13.043 7.81176 13.043 7.8185V8.6832C13.043 8.78663 13.1238 8.88889 13.2255 8.88889H14.2664C14.3681 8.88889 14.4572 8.78663 14.4572 8.6832V7.87737C14.4572 7.08382 15.0912 6.43819 15.8715 6.43819C16.6518 6.43819 17.2857 7.08382 17.2857 7.87737V8.6832C17.2857 8.78663 17.3682 8.88889 17.4699 8.88889H18.5108C18.6125 8.88889 18.6999 8.78663 18.6999 8.6832V7.87737Z" fill="white" style="fill:white;fill-opacity:1;"/>
</svg>
