<svg width="24" height="24" viewBox="0 0 24 24" fill="none" xmlns="http://www.w3.org/2000/svg">
<rect width="24" height="24" rx="6" fill="#DE378C" style="fill:#DE378C;fill:color(display-p3 0.8706 0.2157 0.5490);fill-opacity:1;"/>
<path fill-rule="evenodd" clip-rule="evenodd" d="M10.3286 13.2083C10.6183 12.6141 11.2012 12.1528 11.8714 12.1528C12.5417 12.1528 13.1246 12.6141 13.4143 13.2083H10.3286ZM11.8707 4.5C13.4333 4.5 14.7 5.81124 14.7 7.42875V8.24897C14.7 8.35425 14.6126 8.45833 14.5109 8.45833H13.4699C13.3683 8.45833 13.2858 8.35425 13.2858 8.24897V7.42875C13.2858 6.62103 12.6518 5.96387 11.8715 5.96387C11.0912 5.96387 10.4573 6.62103 10.4573 7.42875V8.24897C10.4573 8.35425 10.3681 8.45833 10.2665 8.45833H9.22554C9.12386 8.45833 9.04307 8.35425 9.04307 8.24897V7.36883C9.04307 7.36671 9.04302 7.36463 9.04297 7.36256C9.04286 7.35794 9.04275 7.35341 9.04321 7.3488C9.08426 5.76836 10.3341 4.5 11.8707 4.5ZM8.69848 14.9434C9.06244 16.4717 10.4075 17.6417 12.0073 17.6417H16.48C16.375 18.2697 15.8313 18.75 15.1795 18.75H8.82052C8.09425 18.75 7.5 18.1217 7.5 17.3764V10.8506C7.5 10.1052 8.09425 9.51389 8.82052 9.51389H15.1795C15.9058 9.51389 16.5 10.1237 16.5 10.8691L16.4938 15.8683H12.0073C11.3199 15.8683 10.7239 15.5358 10.4291 14.9447H15.42V14.0969C15.42 12.1692 13.8785 10.6021 12 10.6021C10.4028 10.6021 9.05945 11.7374 8.69286 13.262C8.69286 13.262 8.59328 13.7725 8.59328 14.1053C8.59328 14.438 8.69848 14.9434 8.69848 14.9434Z" fill="white" style="fill:white;fill-opacity:1;"/>
</svg>
