<svg width="16" height="16" viewBox="0 0 16 16" fill="none" xmlns="http://www.w3.org/2000/svg">
<rect width="16" height="16" rx="4" fill="#0F4CA1" style="fill:#0F4CA1;fill:color(display-p3 0.0588 0.2980 0.6314);fill-opacity:1;"/>
<path fill-rule="evenodd" clip-rule="evenodd" d="M8.625 11.0938H10.0671V8.77298H10.0832C10.3558 9.28146 10.9007 9.46981 11.4055 9.46981C12.6475 9.46981 13.3125 8.42002 13.3125 7.15687C13.3125 6.12371 12.68 5 11.5259 5C10.8688 5 10.2596 5.27066 9.97124 5.8694H9.95515V5.09837H8.625V11.0938ZM11.8223 7.18984C11.8223 7.87075 11.4937 8.338 10.9492 8.338C10.4682 8.338 10.0671 7.87075 10.0671 7.24713C10.0671 6.60759 10.42 6.13181 10.9492 6.13181C11.5098 6.13181 11.8223 6.62366 11.8223 7.18984ZM7.6875 5.0968H6.36301V5.85527H6.34711C6.03829 5.33895 5.53446 5 4.90908 5C3.59316 5 3 5.93599 3 7.18713C3 8.43058 3.72303 9.30153 4.88487 9.30153C5.46974 9.30153 5.95711 9.07616 6.30617 8.58321H6.32263V8.80968C6.32263 9.63291 5.8679 10.0282 5.0229 10.0282C4.41355 10.0282 4.03987 9.89926 3.59316 9.68131L3.51987 10.8275C3.86119 10.9481 4.43803 11.0938 5.13658 11.0938C6.84263 11.0938 7.6875 10.5366 7.6875 8.80968V5.0968ZM4.51105 7.1628C4.51105 6.58995 4.7954 6.11378 5.33974 6.11378C5.99763 6.11378 6.27395 6.63794 6.27395 7.10628C6.27395 7.75227 5.85947 8.18802 5.33974 8.18802C4.90106 8.18802 4.51105 7.81635 4.51105 7.1628Z" fill="#FFFFFE" style="fill:#FFFFFE;fill:color(display-p3 1.0000 1.0000 0.9961);fill-opacity:1;"/>
</svg>
