<svg width="24" height="24" viewBox="0 0 24 24" fill="none" xmlns="http://www.w3.org/2000/svg">
<rect x="0.5" y="0.5" width="23" height="23" rx="5.5" fill="white" style="fill:white;fill-opacity:1;"/>
<rect x="0.5" y="0.5" width="23" height="23" rx="5.5" stroke="#EEEEEE" style="stroke:#EEEEEE;stroke:color(display-p3 0.9333 0.9333 0.9333);stroke-opacity:1;"/>
<path d="M11.501 11.8623V13.5975H10.9503V9.31256H12.4102C12.7801 9.31256 13.0956 9.43589 13.3538 9.68254C13.6176 9.9292 13.7496 10.2303 13.7496 10.586C13.7496 10.9502 13.6176 11.2514 13.3538 11.4952C13.0985 11.7389 12.783 11.8594 12.4102 11.8594H11.501V11.8623ZM11.501 9.84029V11.3345H12.4216C12.6396 11.3345 12.8232 11.26 12.9666 11.1137C13.1128 10.9674 13.1874 10.7896 13.1874 10.5889C13.1874 10.391 13.1128 10.216 12.9666 10.0697C12.8232 9.91772 12.6425 9.84315 12.4216 9.84315H11.501V9.84029Z" fill="#3C4043" style="fill:#3C4043;fill:color(display-p3 0.2353 0.2510 0.2627);fill-opacity:1;"/>
<path d="M15.1893 10.5688C15.5966 10.5688 15.9178 10.6778 16.153 10.8958C16.3882 11.1138 16.5058 11.4121 16.5058 11.7906V13.5975H15.9809V13.1903H15.958C15.7314 13.5258 15.4274 13.6922 15.0488 13.6922C14.7247 13.6922 14.4551 13.5975 14.2371 13.4054C14.0191 13.2132 13.9102 12.9752 13.9102 12.6884C13.9102 12.3843 14.0249 12.1434 14.2543 11.9656C14.4838 11.7849 14.7907 11.696 15.1721 11.696C15.4991 11.696 15.7687 11.7562 15.978 11.8767V11.7505C15.978 11.5583 15.9035 11.3977 15.7515 11.2629C15.5994 11.1281 15.4216 11.0622 15.218 11.0622C14.9111 11.0622 14.6673 11.1912 14.4895 11.4522L14.0048 11.1482C14.2715 10.761 14.6673 10.5688 15.1893 10.5688ZM14.478 12.697C14.478 12.8404 14.5383 12.9608 14.6616 13.0555C14.782 13.1501 14.9255 13.1989 15.0889 13.1989C15.3212 13.1989 15.5277 13.1128 15.7084 12.9407C15.8891 12.7687 15.9809 12.5679 15.9809 12.3356C15.8088 12.2008 15.5708 12.1319 15.2639 12.1319C15.0402 12.1319 14.8538 12.1864 14.7046 12.2926C14.5526 12.4044 14.478 12.5392 14.478 12.697Z" fill="#3C4043" style="fill:#3C4043;fill:color(display-p3 0.2353 0.2510 0.2627);fill-opacity:1;"/>
<path d="M19.5 10.6635L17.6645 14.8852H17.0966L17.7792 13.4082L16.5688 10.6635H17.1683L18.0402 12.7686H18.0516L18.9006 10.6635H19.5Z" fill="#3C4043" style="fill:#3C4043;fill:color(display-p3 0.2353 0.2510 0.2627);fill-opacity:1;"/>
<path d="M9.31065 11.5125C9.31065 11.3329 9.29459 11.1611 9.26476 10.9959H6.95654V11.9424L8.28589 11.9427C8.23197 12.2576 8.05845 12.526 7.79258 12.705V13.319H8.58389C9.04593 12.8914 9.31065 12.2593 9.31065 11.5125Z" fill="#4285F4" style="fill:#4285F4;fill:color(display-p3 0.2588 0.5216 0.9569);fill-opacity:1;"/>
<path d="M7.79278 12.705C7.57251 12.8535 7.28886 12.9404 6.95702 12.9404C6.31601 12.9404 5.77222 12.5085 5.57748 11.9263H4.76123V12.5595C5.16563 13.362 5.99679 13.9127 6.95702 13.9127C7.6207 13.9127 8.17825 13.6944 8.58408 13.3187L7.79278 12.705Z" fill="#34A853" style="fill:#34A853;fill:color(display-p3 0.2039 0.6588 0.3255);fill-opacity:1;"/>
<path d="M5.50067 11.4565C5.50067 11.293 5.52792 11.135 5.57753 10.9864V10.3531H4.76128C4.59407 10.685 4.5 11.0596 4.5 11.4565C4.5 11.8534 4.59436 12.228 4.76128 12.5598L5.57753 11.9266C5.52792 11.778 5.50067 11.62 5.50067 11.4565Z" fill="#FABB05" style="fill:#FABB05;fill:color(display-p3 0.9804 0.7333 0.0196);fill-opacity:1;"/>
<path d="M6.95702 9.97228C7.31926 9.97228 7.64364 10.097 7.89976 10.3408L8.601 9.64015C8.17509 9.2435 7.61983 9 6.95702 9C5.99708 9 5.16563 9.55067 4.76123 10.3532L5.57748 10.9864C5.77222 10.4042 6.31601 9.97228 6.95702 9.97228Z" fill="#E94235" style="fill:#E94235;fill:color(display-p3 0.9137 0.2588 0.2078);fill-opacity:1;"/>
</svg>
