<svg width="32" height="32" viewBox="0 0 32 32" fill="none" xmlns="http://www.w3.org/2000/svg">
<rect x="0.5" y="0.5" width="31" height="31" rx="7.5" fill="white" style="fill:white;fill-opacity:1;"/>
<rect x="0.5" y="0.5" width="31" height="31" rx="7.5" stroke="#EEEEEE" style="stroke:#EEEEEE;stroke:color(display-p3 0.9333 0.9333 0.9333);stroke-opacity:1;"/>
<path d="M15.3346 15.8164V18.1299H14.6003V12.4167H16.5468C17.0401 12.4167 17.4608 12.5812 17.8049 12.9101C18.1567 13.2389 18.3327 13.6405 18.3327 14.1146C18.3327 14.6003 18.1567 15.0018 17.8049 15.3269C17.4646 15.6519 17.0439 15.8125 16.5468 15.8125H15.3346V15.8164ZM15.3346 13.1204V15.1127H16.5621C16.8527 15.1127 17.0975 15.0133 17.2887 14.8183C17.4837 14.6232 17.5831 14.3862 17.5831 14.1185C17.5831 13.8546 17.4837 13.6213 17.2887 13.4263C17.0975 13.2236 16.8566 13.1242 16.5621 13.1242H15.3346V13.1204Z" fill="#3C4043" style="fill:#3C4043;fill:color(display-p3 0.2353 0.2510 0.2627);fill-opacity:1;"/>
<path d="M20.2524 14.0918C20.7954 14.0918 21.2237 14.2371 21.5373 14.5277C21.8509 14.8184 22.0077 15.2161 22.0077 15.7209V18.13H21.3079V17.587H21.2773C20.9752 18.0344 20.5698 18.2562 20.065 18.2562C19.6329 18.2562 19.2735 18.13 18.9828 17.8738C18.6922 17.6176 18.5469 17.3002 18.5469 16.9178C18.5469 16.5124 18.6998 16.1912 19.0058 15.9541C19.3117 15.7132 19.7209 15.5947 20.2295 15.5947C20.6654 15.5947 21.0249 15.675 21.304 15.8356V15.6673C21.304 15.4111 21.2046 15.197 21.0019 15.0172C20.7993 14.8375 20.5622 14.7495 20.2907 14.7495C19.8815 14.7495 19.5564 14.9216 19.3193 15.2696L18.6731 14.8643C19.0287 14.348 19.5564 14.0918 20.2524 14.0918ZM19.304 16.9293C19.304 17.1205 19.3844 17.2811 19.5488 17.4073C19.7094 17.5335 19.9006 17.5985 20.1186 17.5985C20.4283 17.5985 20.7037 17.4838 20.9446 17.2543C21.1855 17.0249 21.3079 16.7572 21.3079 16.4474C21.0784 16.2677 20.761 16.1759 20.3518 16.1759C20.0536 16.1759 19.805 16.2486 19.6061 16.3901C19.4035 16.5392 19.304 16.7189 19.304 16.9293Z" fill="#3C4043" style="fill:#3C4043;fill:color(display-p3 0.2353 0.2510 0.2627);fill-opacity:1;"/>
<path d="M26 14.218L23.5526 19.847H22.7954L23.7056 17.8776L22.0918 14.218H22.891L24.0536 17.0248H24.0689L25.2008 14.218H26Z" fill="#3C4043" style="fill:#3C4043;fill:color(display-p3 0.2353 0.2510 0.2627);fill-opacity:1;"/>
<path d="M12.4142 15.3499C12.4142 15.1105 12.3928 14.8815 12.353 14.6612H9.27539V15.9231L11.0479 15.9235C10.976 16.3434 10.7446 16.7013 10.3901 16.94V17.7587H11.4452C12.0612 17.1885 12.4142 16.3457 12.4142 15.3499Z" fill="#4285F4" style="fill:#4285F4;fill:color(display-p3 0.2588 0.5216 0.9569);fill-opacity:1;"/>
<path d="M10.3905 16.94C10.0968 17.1381 9.71856 17.2539 9.27611 17.2539C8.42143 17.2539 7.69638 16.678 7.43672 15.9017H6.34839V16.7461C6.88759 17.8161 7.99581 18.5503 9.27611 18.5503C10.161 18.5503 10.9044 18.2593 11.4455 17.7583L10.3905 16.94Z" fill="#34A853" style="fill:#34A853;fill:color(display-p3 0.2039 0.6588 0.3255);fill-opacity:1;"/>
<path d="M7.33423 15.2753C7.33423 15.0574 7.37055 14.8466 7.43671 14.6486V13.8042H6.34837C6.12543 14.2466 6 14.7461 6 15.2753C6 15.8046 6.12581 16.304 6.34837 16.7465L7.43671 15.9021C7.37055 15.704 7.33423 15.4933 7.33423 15.2753Z" fill="#FABB05" style="fill:#FABB05;fill:color(display-p3 0.9804 0.7333 0.0196);fill-opacity:1;"/>
<path d="M9.27611 13.2964C9.7591 13.2964 10.1916 13.4627 10.5331 13.7878L11.4681 12.8535C10.9002 12.3247 10.1599 12 9.27611 12C7.99619 12 6.88759 12.7342 6.34839 13.8042L7.43672 14.6486C7.69638 13.8723 8.42143 13.2964 9.27611 13.2964Z" fill="#E94235" style="fill:#E94235;fill:color(display-p3 0.9137 0.2588 0.2078);fill-opacity:1;"/>
</svg>
