<svg width="48" height="36" viewBox="0 0 48 36" fill="none" xmlns="http://www.w3.org/2000/svg">
<rect x="0.75" y="0.75" width="46.5" height="34.5" rx="5.25" fill="white" style="fill:white;fill-opacity:1;"/>
<rect x="0.75" y="0.75" width="46.5" height="34.5" rx="5.25" stroke="#ECECF0" style="stroke:#ECECF0;stroke:color(display-p3 0.9255 0.9255 0.9412);stroke-opacity:1;" stroke-width="1.5"/>
<path d="M22.7523 17.7953V22.2178H21.3756V11.2968H25.0252C25.9502 11.2968 26.7389 11.6111 27.3842 12.2398C28.0439 12.8684 28.3737 13.636 28.3737 14.5424C28.3737 15.4708 28.0439 16.2383 27.3842 16.8596C26.7461 17.481 25.9574 17.788 25.0252 17.788H22.7523V17.7953ZM22.7523 12.6418V16.4503H25.0539C25.5989 16.4503 26.0578 16.2602 26.4163 15.8874C26.7819 15.5146 26.9684 15.0614 26.9684 14.5497C26.9684 14.0453 26.7819 13.5994 26.4163 13.2266C26.0578 12.8392 25.606 12.6491 25.0539 12.6491H22.7523V12.6418Z" fill="#3C4043" style="fill:#3C4043;fill:color(display-p3 0.2353 0.2510 0.2627);fill-opacity:1;"/>
<path d="M31.9734 14.4985C32.9916 14.4985 33.7947 14.7763 34.3826 15.3319C34.9706 15.8874 35.2645 16.6477 35.2645 17.6126V22.2178H33.9524V21.1798H33.895C33.3286 22.0351 32.5686 22.4591 31.6221 22.4591C30.8119 22.4591 30.1379 22.2178 29.5929 21.7281C29.048 21.2383 28.7755 20.6316 28.7755 19.9006C28.7755 19.1257 29.0623 18.5117 29.6359 18.0585C30.2096 17.5979 30.9768 17.3713 31.9304 17.3713C32.7478 17.3713 33.4218 17.5249 33.9452 17.8319V17.5102C33.9452 17.0205 33.7588 16.6111 33.3788 16.2675C32.9988 15.924 32.5542 15.7558 32.0451 15.7558C31.2779 15.7558 30.6684 16.0848 30.2239 16.75L29.0121 15.9751C29.679 14.9883 30.6684 14.4985 31.9734 14.4985ZM30.1952 19.9225C30.1952 20.288 30.3458 20.595 30.6541 20.8363C30.9553 21.0775 31.3138 21.2017 31.7225 21.2017C32.3033 21.2017 32.8195 20.9825 33.2712 20.5439C33.723 20.1053 33.9524 19.5936 33.9524 19.0015C33.5222 18.6579 32.9271 18.4825 32.1599 18.4825C31.6006 18.4825 31.1345 18.6213 30.7617 18.8918C30.3816 19.1769 30.1952 19.5205 30.1952 19.9225Z" fill="#3C4043" style="fill:#3C4043;fill:color(display-p3 0.2353 0.2510 0.2627);fill-opacity:1;"/>
<path d="M42.7503 14.7397L38.1614 25.5H36.7417L38.4482 21.7354L35.4224 14.7397H36.9209L39.1007 20.1052H39.1294L41.2517 14.7397H42.7503Z" fill="#3C4043" style="fill:#3C4043;fill:color(display-p3 0.2353 0.2510 0.2627);fill-opacity:1;"/>
<path d="M17.2763 16.9035C17.2763 16.4459 17.2361 16.008 17.1616 15.587H11.391V17.9993L14.7144 18C14.5796 18.8026 14.1458 19.4868 13.4811 19.943V21.508H15.4594C16.6145 20.4181 17.2763 18.807 17.2763 16.9035Z" fill="#4285F4" style="fill:#4285F4;fill:color(display-p3 0.2588 0.5216 0.9569);fill-opacity:1;"/>
<path d="M13.4819 19.943C12.9312 20.3216 12.2221 20.5431 11.3925 20.5431C9.78992 20.5431 8.43045 19.4422 7.94359 17.9583H5.90295V19.5723C6.91395 21.6177 8.99188 23.0212 11.3925 23.0212C13.0516 23.0212 14.4455 22.4649 15.4601 21.5073L13.4819 19.943Z" fill="#34A853" style="fill:#34A853;fill:color(display-p3 0.2039 0.6588 0.3255);fill-opacity:1;"/>
<path d="M7.75156 16.761C7.75156 16.3443 7.81968 15.9415 7.94372 15.5629V13.9488H5.90308C5.48506 14.7946 5.24988 15.7493 5.24988 16.761C5.24988 17.7727 5.48578 18.7273 5.90308 19.5731L7.94372 17.9591C7.81968 17.5804 7.75156 17.1776 7.75156 16.761Z" fill="#FABB05" style="fill:#FABB05;fill:color(display-p3 0.9804 0.7333 0.0196);fill-opacity:1;"/>
<path d="M11.3925 12.9781C12.2981 12.9781 13.109 13.2961 13.7493 13.9174L15.5024 12.1316C14.4376 11.1206 13.0495 10.5 11.3925 10.5C8.9926 10.5 6.91395 11.9035 5.90295 13.9488L7.94359 15.5629C8.43045 14.0789 9.78992 12.9781 11.3925 12.9781Z" fill="#E94235" style="fill:#E94235;fill:color(display-p3 0.9137 0.2588 0.2078);fill-opacity:1;"/>
</svg>
