<svg width="32" height="32" viewBox="0 0 32 32" fill="none" xmlns="http://www.w3.org/2000/svg">
<rect width="32" height="32" rx="8" fill="#FFF48D" style="fill:#FFF48D;fill:color(display-p3 1.0000 0.9569 0.5529);fill-opacity:1;"/>
<path d="M7.59272 4.99165V17.5259C7.59272 18.126 8.08618 18.6167 8.689 18.6167H16.2141C21.9033 18.6167 24.3688 15.4473 24.3688 11.2422C24.3688 7.0372 21.9023 3.90088 16.2132 3.90088H8.68808C8.08526 3.90088 7.5918 4.39159 7.5918 4.99165H7.59272Z" fill="white" style="fill:white;fill-opacity:1;"/>
<path d="M12.6294 6.97744V16.2394H16.6791C20.3567 16.2394 21.9511 14.1718 21.9511 11.2486C21.9511 8.32551 20.3558 6.27997 16.6791 6.27997H13.3305C12.9418 6.27997 12.6294 6.59608 12.6294 6.97836V6.97744Z" fill="#CC0066" style="fill:#CC0066;fill:color(display-p3 0.8000 0.0000 0.4000);fill-opacity:1;"/>
<path fill-rule="evenodd" clip-rule="evenodd" d="M9.66949 17.6187H16.2132C20.8116 17.6187 23.3487 15.3554 23.3487 11.2478C23.3487 8.88058 22.4224 4.90436 16.2132 4.90436H9.66949C9.08872 4.90436 8.61731 5.37301 8.61731 5.95194V16.5721C8.61731 17.1501 9.08872 17.6196 9.66949 17.6196V17.6187ZM8.96742 5.95194C8.96742 5.56507 9.27986 5.25355 9.66857 5.25355H16.2123C18.744 5.25355 22.9968 6.03373 22.9968 11.2478C22.9968 15.1312 20.5855 17.2695 16.2123 17.2695H9.66857C9.27986 17.2695 8.96742 16.9589 8.96742 16.5711V5.95194Z" fill="#232323" style="fill:#232323;fill:color(display-p3 0.1373 0.1373 0.1373);fill-opacity:1;"/>
<path fill-rule="evenodd" clip-rule="evenodd" d="M14.6226 9.90151C14.4994 9.8574 14.3708 9.83535 14.2311 9.83535V9.82983H13.3039V12.0665H14.2421C14.4085 12.0665 14.5527 12.0334 14.6759 11.9783C14.799 11.9177 14.901 11.8405 14.9819 11.7412C15.0627 11.642 15.1215 11.5207 15.1638 11.3828C15.2015 11.245 15.2226 11.0961 15.2226 10.9307C15.2226 10.7433 15.196 10.5834 15.1473 10.4455C15.094 10.3132 15.0241 10.1974 14.9387 10.1037C14.8477 10.0155 14.7457 9.94378 14.6226 9.89967V9.90151ZM14.402 11.6263C14.3322 11.6484 14.2679 11.6594 14.198 11.6594V11.6649H13.7744V10.2544H14.1171C14.2348 10.2544 14.3313 10.2709 14.4121 10.304C14.493 10.3371 14.5564 10.3922 14.6051 10.4529C14.6538 10.5135 14.6906 10.5962 14.7126 10.6844C14.7338 10.7727 14.7448 10.8774 14.7448 10.9877C14.7448 11.1145 14.7282 11.2137 14.697 11.302C14.6648 11.3902 14.6216 11.4563 14.5739 11.5115C14.5252 11.5666 14.4663 11.6052 14.402 11.6273V11.6263Z" fill="white" style="fill:white;fill-opacity:1;"/>
<path d="M17.1579 9.83626V10.2498H16.0101V10.7295H17.066V11.1099H16.0101V11.6557H17.1845V12.0693H15.5332V9.83258H17.1579V9.83809V9.83626Z" fill="white" style="fill:white;fill-opacity:1;"/>
<path fill-rule="evenodd" clip-rule="evenodd" d="M19.6133 12.0729L18.7982 9.83624H18.2992L17.4786 12.0729H17.961L18.1329 11.5767H18.948L19.1143 12.0729H19.6133ZM18.5519 10.3867L18.8257 11.2073H18.2624L18.5464 10.3867H18.5519Z" fill="white" style="fill:white;fill-opacity:1;"/>
<path d="M20.3907 9.83533V11.6594H21.4521V12.0729H19.9138V9.83625H20.3907V9.83533Z" fill="white" style="fill:white;fill-opacity:1;"/>
<path d="M10.7474 12.106C11.3282 12.106 11.7987 11.6355 11.7987 11.0538C11.7987 10.4721 11.3282 10.0016 10.7474 10.0016C10.1667 10.0016 9.69617 10.4721 9.69617 11.0538C9.69617 11.6355 10.1667 12.106 10.7474 12.106Z" fill="#232323" style="fill:#232323;fill:color(display-p3 0.1373 0.1373 0.1373);fill-opacity:1;"/>
<path d="M11.3732 16.3138C10.5591 16.3138 9.90662 15.6108 9.90662 14.747V13.5239C9.90662 13.092 10.2328 12.7373 10.6427 12.7373C11.0525 12.7373 11.3787 13.0865 11.3787 13.5239V16.3138H11.3732Z" fill="#232323" style="fill:#232323;fill:color(display-p3 0.1373 0.1373 0.1373);fill-opacity:1;"/>
<path d="M26.1083 21.1768H5.89173C5.79065 21.1768 5.70795 21.0941 5.70795 20.993C5.70795 20.8919 5.79065 20.8092 5.89173 20.8092H26.1083C26.2093 20.8092 26.2921 20.8919 26.2921 20.993C26.2921 21.0941 26.2093 21.1768 26.1083 21.1768Z" fill="#1D1C1C" style="fill:#1D1C1C;fill:color(display-p3 0.1137 0.1098 0.1098);fill-opacity:1;"/>
<path d="M21.2913 25.7494C21.2913 24.5199 22.1661 23.3997 23.6768 23.3997C25.1875 23.3997 26.0688 24.5208 26.0688 25.7494C26.0688 26.978 25.194 28.0991 23.6768 28.0991C22.1661 28.0991 21.2913 26.978 21.2913 25.7494ZM24.7409 25.7494C24.7409 25.1567 24.3504 24.61 23.6768 24.61C23.0032 24.61 22.6127 25.1576 22.6127 25.7494C22.6127 26.3412 23.0097 26.8898 23.6768 26.8898C24.344 26.8898 24.7409 26.3421 24.7409 25.7494Z" fill="#1D1C1C" style="fill:#1D1C1C;fill:color(display-p3 0.1137 0.1098 0.1098);fill-opacity:1;"/>
<path d="M20.3622 26.6224C20.8658 26.3357 21.1681 25.788 21.1681 25.1833C21.1681 24.2855 20.5193 23.521 19.5122 23.521H17.3977V27.9787H18.7072V26.8393H18.9525L19.7015 27.9787H21.2434L20.3622 26.6224ZM19.2484 25.8137H18.7072V24.553H19.2549C19.6077 24.553 19.8338 24.8397 19.8338 25.1833C19.8338 25.527 19.6004 25.8137 19.2484 25.8137Z" fill="#1D1C1C" style="fill:#1D1C1C;fill:color(display-p3 0.1137 0.1098 0.1098);fill-opacity:1;"/>
<path d="M11.4209 23.5164L10.6353 26.173L9.86887 23.5164H8.82588L8.05305 26.173L7.2738 23.5164H5.89172L7.47505 27.9658H8.61268L9.34783 25.5435L10.0765 27.9658H11.2197L12.803 23.5164H11.4209Z" fill="#1D1C1C" style="fill:#1D1C1C;fill:color(display-p3 0.1137 0.1098 0.1098);fill-opacity:1;"/>
<path d="M14.7842 26.8788H14.7806C14.2908 26.8788 13.9471 26.5829 13.8001 26.1914H17.1275C17.1542 26.0444 17.1679 25.8937 17.1679 25.7411C17.1679 24.5153 16.2959 23.3969 14.7833 23.396V24.6035C15.2759 24.6044 15.6159 24.9003 15.762 25.2908H12.4391C12.4125 25.4379 12.3987 25.5886 12.3987 25.7411C12.3987 26.9679 13.2717 28.0872 14.7796 28.0872H14.7833V26.8788H14.7842Z" fill="#1D1C1C" style="fill:#1D1C1C;fill:color(display-p3 0.1137 0.1098 0.1098);fill-opacity:1;"/>
<path d="M14.7806 28.0863C14.8321 28.0863 14.8817 28.0844 14.9323 28.0826C15.2383 28.067 15.5167 28.0045 15.7648 27.9043C16.0129 27.8032 16.2307 27.6654 16.4154 27.4981C16.6001 27.3309 16.7536 27.1352 16.8721 26.9192C16.9796 26.7235 17.0587 26.5103 17.1083 26.2888H15.7216C15.6931 26.3476 15.6601 26.4046 15.6224 26.457C15.5709 26.5296 15.5103 26.5948 15.4413 26.6509C15.3724 26.7079 15.2952 26.7556 15.2107 26.7924C15.1252 26.8291 15.0333 26.8549 14.9332 26.8687C14.8845 26.8751 14.8339 26.8788 14.7816 26.8788C14.4691 26.8788 14.2173 26.7584 14.0372 26.57L13.1357 27.4816C13.5364 27.8519 14.0924 28.0853 14.7816 28.0853L14.7806 28.0863Z" fill="url(#paint0_linear_19_270)" style=""/>
<path d="M14.7806 23.3951C13.5014 23.3951 12.679 24.2001 12.4594 25.1925H13.8414C14.0068 24.8507 14.3321 24.6026 14.7806 24.6026C15.138 24.6026 15.4156 24.7569 15.5966 24.9903L16.5063 24.0705C16.1002 23.6588 15.5157 23.3951 14.7815 23.3951H14.7806Z" fill="url(#paint1_linear_19_270)" style=""/>
<defs>
<linearGradient id="paint0_linear_19_270" x1="16.432" y1="25.4811" x2="14.3634" y2="28.0146" gradientUnits="userSpaceOnUse">
<stop offset="0.02" stop-color="#1D1C1C" stop-opacity="0" style="stop-color:none;stop-opacity:0;"/>
<stop offset="0.68" stop-color="#1D1C1C" style="stop-color:#1D1C1C;stop-color:color(display-p3 0.1137 0.1098 0.1098);stop-opacity:1;"/>
</linearGradient>
<linearGradient id="paint1_linear_19_270" x1="12.8232" y1="26.0186" x2="14.9441" y2="23.9225" gradientUnits="userSpaceOnUse">
<stop offset="0.02" stop-color="#1D1C1C" stop-opacity="0" style="stop-color:none;stop-opacity:0;"/>
<stop offset="0.68" stop-color="#1D1C1C" style="stop-color:#1D1C1C;stop-color:color(display-p3 0.1137 0.1098 0.1098);stop-opacity:1;"/>
</linearGradient>
</defs>
</svg>
