<svg width="40" height="30" viewBox="0 0 40 30" fill="none" xmlns="http://www.w3.org/2000/svg">
<rect x="0.625" y="0.625" width="38.75" height="28.75" rx="4.375" fill="white" style="fill:white;fill-opacity:1;"/>
<rect x="0.625" y="0.625" width="38.75" height="28.75" rx="4.375" stroke="#ECECF0" style="stroke:#ECECF0;stroke:color(display-p3 0.9255 0.9255 0.9412);stroke-opacity:1;" stroke-width="1.25"/>
<path fill-rule="evenodd" clip-rule="evenodd" d="M10 5H16.8493V11.8493H10V5ZM11.0959 6.09589V10.7534H15.7534V6.09589H11.0959Z" fill="#333333" style="fill:#333333;fill:color(display-p3 0.2000 0.2000 0.2000);fill-opacity:1;"/>
<path d="M15.0685 6.78082H11.7808V10.0685H15.0685V6.78082Z" fill="#333333" style="fill:#333333;fill:color(display-p3 0.2000 0.2000 0.2000);fill-opacity:1;"/>
<path fill-rule="evenodd" clip-rule="evenodd" d="M23.1507 5H30V11.8493H23.1507V5ZM24.2466 6.09589V10.7534H28.9041V6.09589H24.2466Z" fill="#333333" style="fill:#333333;fill:color(display-p3 0.2000 0.2000 0.2000);fill-opacity:1;"/>
<path d="M28.2192 6.78082H24.9315V10.0685H28.2192V6.78082Z" fill="#333333" style="fill:#333333;fill:color(display-p3 0.2000 0.2000 0.2000);fill-opacity:1;"/>
<path fill-rule="evenodd" clip-rule="evenodd" d="M23.1507 18.1507H30V25H23.1507V18.1507ZM24.2466 19.2466V23.9041H28.9041V19.2466H24.2466Z" fill="#333333" style="fill:#333333;fill:color(display-p3 0.2000 0.2000 0.2000);fill-opacity:1;"/>
<path d="M28.2192 19.9315H24.9315V23.2192H28.2192V19.9315Z" fill="#333333" style="fill:#333333;fill:color(display-p3 0.2000 0.2000 0.2000);fill-opacity:1;"/>
<path fill-rule="evenodd" clip-rule="evenodd" d="M10 18.1507H16.8493V25H10V18.1507ZM11.0959 19.2466V23.9041H15.7534V19.2466H11.0959Z" fill="#333333" style="fill:#333333;fill:color(display-p3 0.2000 0.2000 0.2000);fill-opacity:1;"/>
<path d="M15.0685 19.9315H11.7808V23.2192H15.0685V19.9315Z" fill="#333333" style="fill:#333333;fill:color(display-p3 0.2000 0.2000 0.2000);fill-opacity:1;"/>
<path fill-rule="evenodd" clip-rule="evenodd" d="M19.0411 5H20.9589V25H19.0411V5Z" fill="#333333" style="fill:#333333;fill:color(display-p3 0.2000 0.2000 0.2000);fill-opacity:1;"/>
<path d="M29.863 14.1781H10.137V15.8219H29.863V14.1781Z" fill="#333333" style="fill:#333333;fill:color(display-p3 0.2000 0.2000 0.2000);fill-opacity:1;"/>
<g clip-path="url(#clip0_2741_3806)">
<path d="M14.2857 10.1498V19.878C14.2857 20.3519 14.6728 20.7143 15.1152 20.7143H20.894C25.2627 20.7143 27.1428 18.2613 27.1428 15C27.1428 11.7387 25.2627 9.28571 20.894 9.28571H15.1428C14.6728 9.31358 14.2857 9.70382 14.2857 10.1498Z" fill="white" style="fill:white;fill-opacity:1;"/>
<path d="M18.1567 11.7108V18.9024H21.2535C24.0738 18.9024 25.2904 17.2857 25.2904 15.0279C25.2904 12.8536 24.0738 11.1812 21.2535 11.1812H18.6821C18.4056 11.1533 18.1567 11.4042 18.1567 11.7108Z" fill="#CC0066" style="fill:#CC0066;fill:color(display-p3 0.8000 0.0000 0.4000);fill-opacity:1;"/>
<path d="M20.894 19.9617H15.8894C15.447 19.9617 15.0875 19.5993 15.0875 19.1533V10.9024C15.0875 10.4564 15.447 10.0941 15.8894 10.0941H20.894C25.6497 10.0941 26.3686 13.1881 26.3686 15.0279C26.3686 18.2056 24.4331 19.9617 20.894 19.9617ZM15.8894 10.3728C15.5852 10.3728 15.364 10.6237 15.364 10.9024V19.1533C15.364 19.4599 15.6129 19.6829 15.8894 19.6829H20.894C24.2396 19.6829 26.0921 18.0104 26.0921 15C26.0921 10.9582 22.8295 10.3449 20.894 10.3449L15.8894 10.3728Z" fill="black" style="fill:black;fill-opacity:1;"/>
<path d="M19.2627 14.0523C19.3733 14.0523 19.4839 14.0801 19.5668 14.108C19.6498 14.1359 19.7327 14.1916 19.8157 14.2753C19.871 14.3589 19.9263 14.4425 19.9816 14.5261C20.0092 14.6376 20.0369 14.7491 20.0369 14.8885C20.0369 15.0279 20.0092 15.1394 19.9816 15.223C19.9539 15.3345 19.8986 15.4181 19.8433 15.5017C19.788 15.5854 19.7051 15.6411 19.5945 15.6969C19.5115 15.7526 19.3733 15.7526 19.2627 15.7526H18.5161V14.0244L19.2627 14.0523ZM19.235 15.446C19.2903 15.446 19.3456 15.446 19.4009 15.4181C19.4562 15.3902 19.4839 15.3624 19.5392 15.3345C19.5668 15.2787 19.6221 15.2509 19.6221 15.1672C19.6498 15.1115 19.6498 15.0279 19.6498 14.9164C19.6498 14.8327 19.6498 14.7491 19.6221 14.6934C19.5945 14.6376 19.5668 14.554 19.5392 14.5261C19.5115 14.4704 19.4562 14.4425 19.4009 14.4146C19.3456 14.3868 19.2627 14.3868 19.1797 14.3868H18.9032V15.4739L19.235 15.446Z" fill="white" style="fill:white;fill-opacity:1;"/>
<path d="M21.5577 14.0523V14.3589H20.6452V14.7491H21.4747V15.0279H20.6452V15.446H21.5577V15.7526H20.2581V14.0244L21.5577 14.0523Z" fill="white" style="fill:white;fill-opacity:1;"/>
<path d="M22.8296 14.0523L23.4655 15.7805H23.0784L22.9402 15.3903H22.3042L22.166 15.7805H21.7789L22.4148 14.0523C22.4425 14.0523 22.8296 14.0523 22.8296 14.0523ZM22.8572 15.1115L22.636 14.4704L22.4148 15.1115H22.8572Z" fill="white" style="fill:white;fill-opacity:1;"/>
<path d="M24.0736 14.0523V15.446H24.9031V15.7526H23.6865V14.0244C23.7142 14.0523 24.0736 14.0523 24.0736 14.0523Z" fill="white" style="fill:white;fill-opacity:1;"/>
<path d="M16.7465 15.6968C17.1741 15.6968 17.5207 15.3474 17.5207 14.9164C17.5207 14.4853 17.1741 14.1359 16.7465 14.1359C16.319 14.1359 15.9724 14.4853 15.9724 14.9164C15.9724 15.3474 16.319 15.6968 16.7465 15.6968Z" fill="black" style="fill:black;fill-opacity:1;"/>
<path d="M17.3549 18.9024C16.6913 18.9024 16.166 18.3728 16.166 17.7038V16.7561C16.166 16.4216 16.4425 16.1429 16.7742 16.1429C17.106 16.1429 17.3825 16.4216 17.3825 16.7561L17.3549 18.9024Z" fill="black" style="fill:black;fill-opacity:1;"/>
</g>
<defs>
<clipPath id="clip0_2741_3806">
<rect width="12.8571" height="11.4286" fill="white" style="fill:white;fill-opacity:1;" transform="translate(14.2857 9.28571)"/>
</clipPath>
</defs>
</svg>
