<svg width="32" height="32" viewBox="0 0 32 32" fill="none" xmlns="http://www.w3.org/2000/svg">
<rect x="0.5" y="0.5" width="31" height="31" rx="7.5" fill="white" style="fill:white;fill-opacity:1;"/>
<rect x="0.5" y="0.5" width="31" height="31" rx="7.5" stroke="#EEEEEE" style="stroke:#EEEEEE;stroke:color(display-p3 0.9333 0.9333 0.9333);stroke-opacity:1;"/>
<path fill-rule="evenodd" clip-rule="evenodd" d="M4.84375 4.59497H12.6562V12.4075H4.84375V4.59497ZM6.09375 5.84497V11.1575H11.4062V5.84497H6.09375Z" fill="#333333" style="fill:#333333;fill:color(display-p3 0.2000 0.2000 0.2000);fill-opacity:1;"/>
<path d="M10.625 6.62622H6.875V10.3762H10.625V6.62622Z" fill="#333333" style="fill:#333333;fill:color(display-p3 0.2000 0.2000 0.2000);fill-opacity:1;"/>
<path fill-rule="evenodd" clip-rule="evenodd" d="M19.8438 4.59497H27.6562V12.4075H19.8438V4.59497ZM21.0938 5.84497V11.1575H26.4062V5.84497H21.0938Z" fill="#333333" style="fill:#333333;fill:color(display-p3 0.2000 0.2000 0.2000);fill-opacity:1;"/>
<path d="M25.625 6.62622H21.875V10.3762H25.625V6.62622Z" fill="#333333" style="fill:#333333;fill:color(display-p3 0.2000 0.2000 0.2000);fill-opacity:1;"/>
<path fill-rule="evenodd" clip-rule="evenodd" d="M19.8438 19.595H27.6562V27.4075H19.8438V19.595ZM21.0938 20.845V26.1575H26.4062V20.845H21.0938Z" fill="#333333" style="fill:#333333;fill:color(display-p3 0.2000 0.2000 0.2000);fill-opacity:1;"/>
<path d="M25.625 21.6262H21.875V25.3762H25.625V21.6262Z" fill="#333333" style="fill:#333333;fill:color(display-p3 0.2000 0.2000 0.2000);fill-opacity:1;"/>
<path fill-rule="evenodd" clip-rule="evenodd" d="M4.84375 19.595H12.6562V27.4075H4.84375V19.595ZM6.09375 20.845V26.1575H11.4062V20.845H6.09375Z" fill="#333333" style="fill:#333333;fill:color(display-p3 0.2000 0.2000 0.2000);fill-opacity:1;"/>
<path d="M10.625 21.6262H6.875V25.3762H10.625V21.6262Z" fill="#333333" style="fill:#333333;fill:color(display-p3 0.2000 0.2000 0.2000);fill-opacity:1;"/>
<path fill-rule="evenodd" clip-rule="evenodd" d="M15.1562 4.59497H17.3438V27.4075H15.1562V4.59497Z" fill="#333333" style="fill:#333333;fill:color(display-p3 0.2000 0.2000 0.2000);fill-opacity:1;"/>
<path d="M27.5 15.0637H5V16.9387H27.5V15.0637Z" fill="#333333" style="fill:#333333;fill:color(display-p3 0.2000 0.2000 0.2000);fill-opacity:1;"/>
<g clip-path="url(#clip0_19_216)">
<path d="M9.75 10.7626V21.2701C9.75 21.7819 10.1715 22.1733 10.6532 22.1733H16.9457C21.7027 22.1733 23.75 19.5238 23.75 16.0013C23.75 12.4787 21.7027 9.82922 16.9457 9.82922H10.6833C10.1715 9.85933 9.75 10.2808 9.75 10.7626Z" fill="white" style="fill:white;fill-opacity:1;"/>
<path d="M13.9651 12.4486V20.2163H17.3372C20.4082 20.2163 21.7329 18.4701 21.7329 16.0314C21.7329 13.683 20.4082 11.8766 17.3372 11.8766H14.5372C14.2361 11.8464 13.9651 12.1174 13.9651 12.4486Z" fill="#CC0066" style="fill:#CC0066;fill:color(display-p3 0.8000 0.0000 0.4000);fill-opacity:1;"/>
<path d="M16.9457 21.3604H11.4962C11.0145 21.3604 10.6231 20.969 10.6231 20.4873V11.5755C10.6231 11.0937 11.0145 10.7023 11.4962 10.7023H16.9457C22.1242 10.7023 22.907 14.0443 22.907 16.0314C22.907 19.4636 20.7995 21.3604 16.9457 21.3604ZM11.4962 11.0034C11.165 11.0034 10.9242 11.2744 10.9242 11.5755V20.4873C10.9242 20.8185 11.1952 21.0593 11.4962 21.0593H16.9457C20.5887 21.0593 22.6059 19.2529 22.6059 16.0013C22.6059 11.6357 19.0532 10.9733 16.9457 10.9733L11.4962 11.0034Z" fill="black" style="fill:black;fill-opacity:1;"/>
<path d="M15.1693 14.9776C15.2898 14.9776 15.4102 15.0077 15.5005 15.0378C15.5909 15.0679 15.6812 15.1282 15.7715 15.2185C15.8317 15.3088 15.8919 15.3991 15.9521 15.4894C15.9823 15.6099 16.0124 15.7303 16.0124 15.8808C16.0124 16.0314 15.9823 16.1518 15.9521 16.2421C15.922 16.3626 15.8618 16.4529 15.8016 16.5432C15.7414 16.6335 15.6511 16.6937 15.5306 16.754C15.4403 16.8142 15.2898 16.8142 15.1693 16.8142H14.3564V14.9475L15.1693 14.9776ZM15.1392 16.483C15.1995 16.483 15.2597 16.483 15.3199 16.4529C15.3801 16.4228 15.4102 16.3927 15.4704 16.3626C15.5005 16.3023 15.5607 16.2722 15.5607 16.1819C15.5909 16.1217 15.5909 16.0314 15.5909 15.9109C15.5909 15.8206 15.5909 15.7303 15.5607 15.6701C15.5306 15.6099 15.5005 15.5196 15.4704 15.4894C15.4403 15.4292 15.3801 15.3991 15.3199 15.369C15.2597 15.3389 15.1693 15.3389 15.079 15.3389H14.778V16.5131L15.1392 16.483Z" fill="white" style="fill:white;fill-opacity:1;"/>
<path d="M17.6683 14.9776V15.3088H16.6748V15.7303H17.578V16.0314H16.6748V16.483H17.6683V16.8142H16.2533V14.9475L17.6683 14.9776Z" fill="white" style="fill:white;fill-opacity:1;"/>
<path d="M19.0533 14.9776L19.7457 16.8443H19.3242L19.1737 16.4228H18.4812L18.3307 16.8443H17.9092L18.6017 14.9776C18.6318 14.9776 19.0533 14.9776 19.0533 14.9776ZM19.0834 16.1217L18.8425 15.4292L18.6017 16.1217H19.0834Z" fill="white" style="fill:white;fill-opacity:1;"/>
<path d="M20.408 14.9776V16.483H21.3112V16.8142H19.9865V14.9475C20.0166 14.9776 20.408 14.9776 20.408 14.9776Z" fill="white" style="fill:white;fill-opacity:1;"/>
<path d="M12.4296 16.754C12.8951 16.754 13.2726 16.3765 13.2726 15.9109C13.2726 15.4454 12.8951 15.0679 12.4296 15.0679C11.964 15.0679 11.5865 15.4454 11.5865 15.9109C11.5865 16.3765 11.964 16.754 12.4296 16.754Z" fill="black" style="fill:black;fill-opacity:1;"/>
<path d="M13.092 20.2163C12.3694 20.2163 11.7974 19.6443 11.7974 18.9217V17.898C11.7974 17.5367 12.0984 17.2357 12.4597 17.2357C12.821 17.2357 13.1221 17.5367 13.1221 17.898L13.092 20.2163Z" fill="black" style="fill:black;fill-opacity:1;"/>
</g>
<defs>
<clipPath id="clip0_19_216">
<rect width="14" height="12.3441" fill="white" style="fill:white;fill-opacity:1;" transform="translate(9.75 9.82922)"/>
</clipPath>
</defs>
</svg>
