<svg width="56" height="42" viewBox="0 0 56 42" fill="none" xmlns="http://www.w3.org/2000/svg">
<rect width="56" height="42" rx="7" fill="#E664A5" style="fill:#E664A5;fill:color(display-p3 0.9020 0.3922 0.6471);fill-opacity:1;"/>
<path d="M13.125 9.82171V32.1783C13.125 33.2526 13.9958 34.125 15.069 34.125H28.4157C38.5014 34.125 42.875 28.4705 42.875 20.9739C42.875 13.5061 38.5014 7.875 28.4157 7.875H15.0672C13.9976 7.875 13.125 8.74561 13.125 9.82171Z" fill="white" style="fill:white;fill-opacity:1;"/>
<path d="M28.4125 32.3351H16.8056C16.3124 32.3361 15.8388 32.1402 15.4889 31.7905C15.1389 31.4408 14.941 30.9657 14.9387 30.4695V11.5305C14.9391 11.2843 14.9878 11.0406 15.0819 10.8134C15.176 10.5861 15.3136 10.3797 15.487 10.206C15.6603 10.0323 15.866 9.89457 16.0923 9.8008C16.3185 9.70703 16.5609 9.65901 16.8056 9.65949H28.4125C39.421 9.65949 41.0658 16.747 41.0658 20.9721C41.0658 28.3011 36.5721 32.3351 28.4125 32.3351ZM16.8056 10.2868C16.4768 10.2863 16.1611 10.4169 15.9278 10.65C15.6944 10.8831 15.5623 11.1997 15.5604 11.5305V30.4713C15.5604 31.1581 16.1176 31.715 16.8056 31.715H28.4125C36.1707 31.715 40.444 27.9009 40.444 20.9757C40.444 11.6747 32.9062 10.2868 28.4125 10.2868H16.8056Z" fill="black" style="fill:black;fill-opacity:1;"/>
<path d="M22.0547 13.3637V29.8801H29.2378C35.7633 29.8801 38.5907 26.1886 38.5907 20.9829C38.5907 15.9953 35.7633 12.1199 29.2378 12.1199H23.2982C22.9695 12.1195 22.654 12.2501 22.421 12.4832C22.1879 12.7164 22.0562 13.033 22.0547 13.3637Z" fill="#CC0066" style="fill:#CC0066;fill:color(display-p3 0.8000 0.0000 0.4000);fill-opacity:1;"/>
<path d="M35.7471 18.7531V21.9688H37.6679V22.6988H34.8817V18.7513L35.7471 18.7531ZM32.8624 18.7531L34.337 22.6988H33.4376L33.1401 21.8228H31.6637L31.3556 22.6988H30.4794L31.9719 18.7513L32.8624 18.7531ZM32.9126 21.1721L32.4145 19.7247H32.4037L31.8913 21.1721H32.9126ZM29.8935 18.7531V19.4814H27.8115V20.3285H29.7215V21.0009H27.8115V21.9688H29.9383V22.6988H26.9461V18.7513L29.8935 18.7531ZM24.5828 18.7531C24.8247 18.7513 25.0666 18.791 25.2923 18.8739C25.5128 18.9535 25.7124 19.0825 25.8759 19.2511C26.0395 19.4198 26.1629 19.6236 26.2366 19.8473C26.4089 20.3827 26.4176 20.9579 26.2617 21.4984C26.1946 21.7294 26.0812 21.9441 25.9284 22.1293C25.7754 22.3084 25.5844 22.4507 25.3694 22.5456C25.121 22.6524 24.8528 22.7047 24.5828 22.6988H22.8824V18.7513H24.5846L24.5828 18.7531ZM24.5219 21.9688C24.6473 21.9688 24.7691 21.949 24.8874 21.9075C25.0061 21.8658 25.1135 21.7966 25.201 21.7057C25.3 21.6009 25.3757 21.4762 25.4231 21.3398C25.4826 21.1616 25.5105 20.9743 25.5055 20.7864C25.5055 20.6061 25.4876 20.4259 25.4482 20.2474C25.4133 20.0979 25.3467 19.9577 25.2529 19.8365C25.1607 19.7194 25.0396 19.6286 24.9017 19.5733C24.7302 19.5081 24.5475 19.4774 24.3642 19.4832H23.7461V21.9688H24.5219Z" fill="white" style="fill:white;fill-opacity:1;"/>
<path d="M18.8081 23.5929C19.5696 23.5929 20.1859 24.2094 20.1859 24.97V29.8801C18.663 29.8801 17.4302 28.6453 17.4302 27.1222V24.97C17.43 24.7882 17.4656 24.6081 17.535 24.4402C17.6044 24.2723 17.7061 24.1199 17.8344 23.9919C17.9627 23.8638 18.115 23.7626 18.2824 23.6941C18.4499 23.6256 18.6291 23.5912 18.8099 23.5929H18.8081Z" fill="black" style="fill:black;fill-opacity:1;"/>
<path d="M18.8088 22.5457C19.8132 22.5457 20.6274 21.7306 20.6274 20.7251C20.6274 19.7197 19.8132 18.9046 18.8088 18.9046C17.8044 18.9046 16.9902 19.7197 16.9902 20.7251C16.9902 21.7306 17.8044 22.5457 18.8088 22.5457Z" fill="black" style="fill:black;fill-opacity:1;"/>
</svg>
