<svg width="24" height="24" viewBox="0 0 24 24" fill="none" xmlns="http://www.w3.org/2000/svg">
<rect width="24" height="24" rx="6" fill="#E664A5" style="fill:#E664A5;fill:color(display-p3 0.9020 0.3922 0.6471);fill-opacity:1;"/>
<g clip-path="url(#clip0_4456_314)">
<path d="M18.1458 9.2937H11.1598C11.7803 9.99416 12.0704 10.9326 12.0704 11.9916C12.0704 13.0507 11.7786 14.0042 11.1548 14.708H18.1442C20.1347 14.708 20.9983 13.5836 20.9983 11.995C20.9983 10.4064 20.1347 9.2937 18.1442 9.2937H18.1458Z" fill="black" style="fill:black;fill-opacity:1;"/>
<path d="M3 8.59321V15.4068C3 15.7336 3.26663 16 3.59363 16H7.66853C10.749 16 12.0838 14.2773 12.0838 11.9916C12.0838 9.70591 10.7473 8 7.66685 8H3.59363C3.26663 8 3 8.26644 3 8.59321Z" fill="white" style="fill:white;fill-opacity:1;"/>
<path d="M5.72656 9.67242V14.708H7.91997C9.91046 14.708 10.7741 13.5836 10.7741 11.995C10.7741 10.4064 9.91046 9.2937 7.91997 9.2937H6.10722C5.89593 9.2937 5.72656 9.4663 5.72656 9.67242Z" fill="#CC0066" style="fill:#CC0066;fill:color(display-p3 0.8000 0.0000 0.4000);fill-opacity:1;"/>
<path d="M7.66697 15.4571H4.12533C3.81007 15.4571 3.55518 15.2023 3.55518 14.8873V9.11437C3.55518 8.79933 3.81007 8.54462 4.12533 8.54462H7.66865C11.0309 8.54462 11.5323 10.7063 11.5323 11.9933C11.5323 14.2254 10.1589 15.4571 7.66865 15.4571H7.66697ZM4.12533 8.73565C3.91404 8.73565 3.74634 8.9049 3.74634 9.11437V14.8873C3.74634 15.0984 3.91571 15.2677 4.12533 15.2677H7.66865C10.0365 15.2677 11.3428 14.1047 11.3428 11.9933C11.3428 9.15794 9.04036 8.73398 7.66865 8.73398H4.12533V8.73565Z" fill="black" style="fill:black;fill-opacity:1;"/>
<path d="M6.498 11.3146C6.57514 11.3146 6.64557 11.3264 6.71432 11.3498C6.78307 11.3733 6.83841 11.4118 6.88872 11.4587C6.93567 11.509 6.97424 11.571 7.00443 11.6431C7.03126 11.7168 7.04635 11.8039 7.04635 11.9045C7.04635 11.9933 7.03461 12.0737 7.01449 12.1475C6.99101 12.2212 6.95747 12.2866 6.91387 12.3402C6.87027 12.3938 6.81326 12.4357 6.74451 12.4675C6.67575 12.4977 6.59694 12.5145 6.50471 12.5145H5.98486V11.3113H6.498V11.3146ZM6.47955 12.2966C6.51812 12.2966 6.55334 12.2899 6.59191 12.2782C6.62712 12.2665 6.66066 12.2463 6.68749 12.2162C6.71432 12.186 6.7378 12.1508 6.75624 12.1039C6.77469 12.057 6.78307 12.0034 6.78307 11.9347C6.78307 11.876 6.77637 11.819 6.76463 11.7721C6.75289 11.7252 6.73277 11.6799 6.70594 11.6481C6.67911 11.6163 6.64389 11.5861 6.59861 11.5677C6.55334 11.5492 6.50135 11.5409 6.43595 11.5409H6.24646V12.3H6.48123V12.2966H6.47955Z" fill="white" style="fill:white;fill-opacity:1;"/>
<path d="M8.11782 11.3146V11.5375H7.48227V11.7955H8.06751V12H7.48227V12.2932H8.13291V12.5161H7.21899V11.3129H8.11782V11.3163V11.3146Z" fill="white" style="fill:white;fill-opacity:1;"/>
<path d="M9.02679 11.3146L9.47788 12.5178H9.20119L9.10896 12.2514H8.65787L8.56228 12.5178H8.29565L8.7501 11.3146H9.02679ZM9.04188 12.0536L8.89096 11.6112H8.88761L8.72997 12.0536H9.04188Z" fill="white" style="fill:white;fill-opacity:1;"/>
<path d="M9.90729 11.3146V12.2966H10.4942V12.5195H9.64233V11.3163H9.90561L9.90729 11.3146Z" fill="white" style="fill:white;fill-opacity:1;"/>
<path d="M4.73572 12.4726C5.04227 12.4726 5.29078 12.2242 5.29078 11.9179C5.29078 11.6116 5.04227 11.3632 4.73572 11.3632C4.42917 11.3632 4.18066 11.6116 4.18066 11.9179C4.18066 12.2242 4.42917 12.4726 4.73572 12.4726Z" fill="black" style="fill:black;fill-opacity:1;"/>
<path d="M5.15483 14.708C4.68865 14.708 4.3147 14.3309 4.3147 13.8684V13.2132C4.3147 12.982 4.50083 12.7926 4.7356 12.7926C4.96702 12.7926 5.15651 12.9786 5.15651 13.2132V14.708H5.15315H5.15483Z" fill="black" style="fill:black;fill-opacity:1;"/>
<path d="M13.6148 10.6309C13.4807 10.6309 13.3767 10.5991 13.2996 10.5354C13.2241 10.4717 13.1855 10.3796 13.1855 10.2606C13.1855 10.1533 13.2241 10.0662 13.3013 9.99748C13.3784 9.92878 13.4824 9.89526 13.6132 9.89526C13.744 9.89526 13.8513 9.9271 13.9251 9.99078C13.9989 10.0545 14.0374 10.1449 14.0374 10.2606C14.0374 10.3762 13.9989 10.46 13.9234 10.5287C13.8479 10.5974 13.744 10.6309 13.6132 10.6309H13.6148ZM13.2577 13.4663V11.0984H13.972V13.4663H13.2577Z" fill="white" style="fill:white;fill-opacity:1;"/>
<path d="M14.6394 13.4646V11.0968H15.3168L15.3386 11.5777L15.1961 11.6313C15.2296 11.5241 15.2883 11.4269 15.3722 11.3397C15.456 11.2526 15.5583 11.1822 15.6774 11.1286C15.7964 11.075 15.9205 11.0482 16.0513 11.0482C16.2291 11.0482 16.38 11.085 16.5024 11.1571C16.6248 11.2291 16.7171 11.3381 16.7791 11.4822C16.8412 11.6263 16.873 11.8022 16.873 12.01V13.4629H16.1553V12.067C16.1553 11.9715 16.1419 11.8927 16.1151 11.8307C16.0882 11.7687 16.048 11.7218 15.9926 11.69C15.9373 11.6581 15.8702 11.6447 15.7897 11.6481C15.7277 11.6481 15.669 11.6581 15.6153 11.6766C15.5617 11.6967 15.5164 11.7235 15.4778 11.762C15.4393 11.7989 15.4091 11.8408 15.3856 11.8894C15.3621 11.938 15.3521 11.9882 15.3521 12.0452V13.4629H14.6377L14.6394 13.4646Z" fill="white" style="fill:white;fill-opacity:1;"/>
<path d="M19.4353 12.0402C19.3817 11.9195 19.3079 11.8156 19.2123 11.7252C19.1167 11.6363 19.0077 11.566 18.887 11.5157C18.8048 11.4822 18.7159 11.4637 18.6254 11.452L19.4269 10.5924L19.2894 10.3159H17.371V10.9526L18.3722 10.9727L17.7098 11.6916L17.8741 12.1324C17.9328 12.1022 17.9915 12.0787 18.0485 12.0603C18.1055 12.0419 18.1592 12.0285 18.2095 12.0184C18.2598 12.0084 18.3084 12.0033 18.352 12.0033C18.451 12.0033 18.5348 12.0201 18.6036 12.0519C18.6723 12.0838 18.7277 12.1324 18.7646 12.196C18.8015 12.2597 18.8199 12.3385 18.8199 12.4306C18.8199 12.5161 18.7981 12.5949 18.7545 12.6619C18.7109 12.7306 18.6556 12.7826 18.5851 12.8194C18.5147 12.8563 18.4392 12.8747 18.3554 12.8747C18.2715 12.8747 18.1927 12.8613 18.1173 12.8328C18.0418 12.8043 17.968 12.7591 17.8993 12.6971C17.8288 12.6351 17.7618 12.5513 17.6964 12.4474L17.1514 12.7993C17.3056 13.0574 17.4784 13.24 17.6662 13.3456C17.8557 13.4512 18.0753 13.5031 18.3286 13.5031C18.5482 13.5031 18.7478 13.4562 18.9289 13.3607C19.1083 13.2652 19.2509 13.1378 19.3565 12.9753C19.4622 12.8127 19.5141 12.6284 19.5141 12.4206C19.5141 12.2832 19.4873 12.1558 19.4336 12.0352L19.4353 12.0402Z" fill="white" style="fill:white;fill-opacity:1;"/>
</g>
<defs>
<clipPath id="clip0_4456_314">
<rect width="18" height="8" fill="white" style="fill:white;fill-opacity:1;" transform="translate(3 8)"/>
</clipPath>
</defs>
</svg>
