<svg width="32" height="24" viewBox="0 0 32 24" fill="none" xmlns="http://www.w3.org/2000/svg">
<rect width="32" height="24" rx="4" fill="#E664A5" style="fill:#E664A5;fill:color(display-p3 0.9020 0.3922 0.6471);fill-opacity:1;"/>
<path d="M7.5 5.61241V18.3876C7.5 19.0015 7.99759 19.5 8.61088 19.5H16.2375C22.0008 19.5 24.5 16.2689 24.5 11.9851C24.5 7.71774 22.0008 4.5 16.2375 4.5H8.60985C7.99861 4.5 7.5 4.99749 7.5 5.61241Z" fill="white" style="fill:white;fill-opacity:1;"/>
<path d="M16.2357 18.4772H9.60323C9.32135 18.4778 9.05077 18.3658 8.85078 18.166C8.65079 17.9662 8.53773 17.6947 8.53638 17.4112V6.58886C8.53665 6.44819 8.56445 6.30895 8.61821 6.17909C8.67197 6.04923 8.75063 5.93129 8.8497 5.83201C8.94876 5.73273 9.0663 5.65405 9.19559 5.60047C9.32488 5.54689 9.4634 5.51945 9.60323 5.51972H16.2357C22.5263 5.51972 23.4662 9.56971 23.4662 11.984C23.4662 16.1721 20.8983 18.4772 16.2357 18.4772ZM9.60323 5.87816C9.41531 5.87788 9.23493 5.95251 9.10157 6.0857C8.96822 6.2189 8.89274 6.39982 8.89165 6.58886V17.4122C8.89165 17.8046 9.21007 18.1229 9.60323 18.1229H16.2357C20.669 18.1229 23.1109 15.9434 23.1109 11.9861C23.1109 6.67127 18.8035 5.87816 16.2357 5.87816H9.60323Z" fill="black" style="fill:black;fill-opacity:1;"/>
<path d="M12.6027 7.63637V17.0743H16.7073C20.4362 17.0743 22.0518 14.9649 22.0518 11.9902C22.0518 9.14018 20.4362 6.92566 16.7073 6.92566H13.3133C13.1254 6.92539 12.9452 7.00004 12.812 7.13327C12.6788 7.26649 12.6035 7.44741 12.6027 7.63637Z" fill="#CC0066" style="fill:#CC0066;fill:color(display-p3 0.8000 0.0000 0.4000);fill-opacity:1;"/>
<path d="M20.4269 10.7161V12.5536H21.5245V12.9708H19.9324V10.7151L20.4269 10.7161ZM18.7785 10.7161L19.6212 12.9708H19.1072L18.9372 12.4702H18.0936L17.9175 12.9708H17.4168L18.2697 10.7151L18.7785 10.7161ZM18.8072 12.0984L18.5226 11.2713H18.5164L18.2236 12.0984H18.8072ZM17.082 10.7161V11.1322H15.8923V11.6163H16.9837V12.0005H15.8923V12.5536H17.1076V12.9708H15.3978V10.7151L17.082 10.7161ZM14.0473 10.7161C14.1855 10.7151 14.3238 10.7377 14.4528 10.7851C14.5787 10.8306 14.6928 10.9043 14.7863 11.0007C14.8797 11.097 14.9502 11.2135 14.9923 11.3413C15.0908 11.6473 15.0958 11.9759 15.0067 12.2848C14.9684 12.4168 14.9035 12.5395 14.8162 12.6453C14.7288 12.7477 14.6196 12.829 14.4968 12.8832C14.3549 12.9443 14.2016 12.9741 14.0473 12.9708H13.0757V10.7151H14.0483L14.0473 10.7161ZM14.0125 12.5536C14.0842 12.5536 14.1538 12.5423 14.2214 12.5186C14.2892 12.4947 14.3506 12.4552 14.4005 12.4032C14.4571 12.3434 14.5004 12.2721 14.5275 12.1941C14.5615 12.0923 14.5774 11.9853 14.5746 11.8779C14.5746 11.7749 14.5644 11.6719 14.5418 11.57C14.5219 11.4845 14.4838 11.4044 14.4302 11.3351C14.3776 11.2682 14.3084 11.2164 14.2296 11.1847C14.1315 11.1475 14.0272 11.13 13.9224 11.1332H13.5692V12.5536H14.0125Z" fill="white" style="fill:white;fill-opacity:1;"/>
<path d="M10.7475 13.4817C11.1826 13.4817 11.5348 13.8339 11.5348 14.2686V17.0743C10.6646 17.0743 9.96014 16.3688 9.96014 15.4984V14.2686C9.96001 14.1647 9.98035 14.0618 10.02 13.9658C10.0596 13.8699 10.1178 13.7828 10.1911 13.7096C10.2644 13.6365 10.3514 13.5786 10.4471 13.5395C10.5428 13.5004 10.6452 13.4807 10.7485 13.4817H10.7475Z" fill="black" style="fill:black;fill-opacity:1;"/>
<path d="M10.7479 12.8832C11.3218 12.8832 11.7871 12.4175 11.7871 11.8429C11.7871 11.2684 11.3218 10.8026 10.7479 10.8026C10.1739 10.8026 9.70868 11.2684 9.70868 11.8429C9.70868 12.4175 10.1739 12.8832 10.7479 12.8832Z" fill="black" style="fill:black;fill-opacity:1;"/>
</svg>
