<svg width="48" height="36" viewBox="0 0 48 36" fill="none" xmlns="http://www.w3.org/2000/svg">
<rect width="48" height="36" rx="6" fill="#E664A5" style="fill:#E664A5;fill:color(display-p3 0.9020 0.3922 0.6471);fill-opacity:1;"/>
<g clip-path="url(#clip0_4456_468)">
<path d="M35.6089 12.5873H22.4131C23.585 13.9883 24.133 15.8651 24.133 17.9832C24.133 20.1014 23.5819 22.0084 22.4036 23.416H35.6057C39.3656 23.416 40.9968 21.1671 40.9968 17.9899C40.9968 14.8127 39.3656 12.5873 35.6057 12.5873H35.6089Z" fill="black" style="fill:black;fill-opacity:1;"/>
<path d="M7 11.1864V24.8136C7 25.4671 7.50363 26 8.1213 26H15.8183C21.637 26 24.1584 22.5547 24.1584 17.9832C24.1584 13.4118 21.6339 10 15.8152 10H8.1213C7.50363 10 7 10.5329 7 11.1864Z" fill="white" style="fill:white;fill-opacity:1;"/>
<path d="M12.1504 13.3448V23.416H16.2935C20.0533 23.416 21.6846 21.1671 21.6846 17.9899C21.6846 14.8127 20.0533 12.5873 16.2935 12.5873H12.8694C12.4703 12.5873 12.1504 12.9325 12.1504 13.3448Z" fill="#CC0066" style="fill:#CC0066;fill:color(display-p3 0.8000 0.0000 0.4000);fill-opacity:1;"/>
<path d="M15.8151 24.9141H9.12529C8.5298 24.9141 8.04834 24.4047 8.04834 23.7746V12.2287C8.04834 11.5987 8.5298 11.0892 9.12529 11.0892H15.8182C22.1691 11.0892 23.1162 15.4127 23.1162 17.9866C23.1162 22.4508 20.522 24.9141 15.8182 24.9141H15.8151ZM9.12529 11.4713C8.72619 11.4713 8.40944 11.8098 8.40944 12.2287V23.7746C8.40944 24.1969 8.72935 24.5354 9.12529 24.5354H15.8182C20.2907 24.5354 22.7582 22.2095 22.7582 17.9866C22.7582 12.3159 18.4093 11.468 15.8182 11.468H9.12529V11.4713Z" fill="black" style="fill:black;fill-opacity:1;"/>
<path d="M13.6074 16.6292C13.7531 16.6292 13.8862 16.6527 14.016 16.6996C14.1459 16.7465 14.2504 16.8236 14.3455 16.9175C14.4342 17.018 14.507 17.142 14.564 17.2861C14.6147 17.4336 14.6432 17.6079 14.6432 17.809C14.6432 17.9866 14.621 18.1475 14.583 18.2949C14.5387 18.4424 14.4753 18.5731 14.393 18.6803C14.3106 18.7876 14.2029 18.8714 14.0731 18.9351C13.9432 18.9954 13.7943 19.0289 13.6201 19.0289H12.6382V16.6225H13.6074V16.6292ZM13.5726 18.5932C13.6455 18.5932 13.712 18.5798 13.7848 18.5563C13.8513 18.5329 13.9147 18.4927 13.9654 18.4323C14.016 18.372 14.0604 18.3016 14.0952 18.2078C14.1301 18.1139 14.1459 18.0067 14.1459 17.8693C14.1459 17.752 14.1332 17.638 14.1111 17.5442C14.0889 17.4503 14.0509 17.3599 14.0002 17.2962C13.9495 17.2325 13.883 17.1722 13.7975 17.1353C13.712 17.0984 13.6138 17.0817 13.4902 17.0817H13.1323V18.5999H13.5758V18.5932H13.5726Z" fill="white" style="fill:white;fill-opacity:1;"/>
<path d="M16.6673 16.6292V17.075H15.4668V17.5911H16.5722V18H15.4668V18.5865H16.6958V19.0323H14.9695V16.6259H16.6673V16.6326V16.6292Z" fill="white" style="fill:white;fill-opacity:1;"/>
<path d="M18.384 16.6292L19.236 19.0356H18.7134L18.5392 18.5027H17.6871L17.5066 19.0356H17.0029L17.8613 16.6292H18.384ZM18.4125 18.1072L18.1274 17.2225H18.1211L17.8233 18.1072H18.4125Z" fill="white" style="fill:white;fill-opacity:1;"/>
<path d="M20.0471 16.6292V18.5932H21.1557V19.039H19.5466V16.6326H20.0439L20.0471 16.6292Z" fill="white" style="fill:white;fill-opacity:1;"/>
<path d="M10.2784 18.9451C10.8575 18.9451 11.3269 18.4485 11.3269 17.8358C11.3269 17.2231 10.8575 16.7264 10.2784 16.7264C9.69939 16.7264 9.22998 17.2231 9.22998 17.8358C9.22998 18.4485 9.69939 18.9451 10.2784 18.9451Z" fill="black" style="fill:black;fill-opacity:1;"/>
<path d="M11.0703 23.416C10.1898 23.416 9.4834 22.6619 9.4834 21.7369V20.4265C9.4834 19.964 9.83499 19.5853 10.2784 19.5853C10.7156 19.5853 11.0735 19.9573 11.0735 20.4265V23.416H11.0672H11.0703Z" fill="black" style="fill:black;fill-opacity:1;"/>
<path d="M27.0504 15.2618C26.797 15.2618 26.6006 15.1982 26.4549 15.0708C26.3124 14.9434 26.2395 14.7591 26.2395 14.5212C26.2395 14.3067 26.3124 14.1324 26.4581 13.995C26.6038 13.8576 26.8002 13.7905 27.0472 13.7905C27.2943 13.7905 27.497 13.8542 27.6364 13.9816C27.7757 14.1089 27.8486 14.2899 27.8486 14.5212C27.8486 14.7524 27.7757 14.92 27.6332 15.0574C27.4907 15.1948 27.2943 15.2618 27.0472 15.2618H27.0504ZM26.3757 20.9325V16.1969H27.7251V20.9325H26.3757Z" fill="white" style="fill:white;fill-opacity:1;"/>
<path d="M28.9858 20.9292V16.1935H30.2655L30.3067 17.1554L30.0374 17.2627C30.1008 17.0482 30.2117 16.8538 30.37 16.6795C30.5284 16.5052 30.7216 16.3645 30.9465 16.2572C31.1714 16.15 31.4058 16.0963 31.6529 16.0963C31.9886 16.0963 32.2737 16.1701 32.5049 16.3142C32.7362 16.4583 32.9104 16.6762 33.0276 16.9644C33.1448 17.2526 33.205 17.6045 33.205 18.0201V20.9258H31.8493V18.134C31.8493 17.943 31.8239 17.7855 31.7732 17.6615C31.7226 17.5375 31.6465 17.4436 31.542 17.38C31.4375 17.3163 31.3108 17.2895 31.1587 17.2962C31.0415 17.2962 30.9307 17.3163 30.8293 17.3532C30.728 17.3934 30.6424 17.447 30.5696 17.5241C30.4967 17.5978 30.4397 17.6816 30.3954 17.7788C30.351 17.876 30.332 17.9765 30.332 18.0905V20.9258H28.9827L28.9858 20.9292Z" fill="white" style="fill:white;fill-opacity:1;"/>
<path d="M38.0449 18.0804C37.9435 17.8391 37.8041 17.6313 37.6236 17.4503C37.443 17.2727 37.2371 17.132 37.0091 17.0314C36.8539 16.9644 36.686 16.9275 36.515 16.9041L38.029 15.1847L37.7693 14.6317H34.1457V15.9053L36.0367 15.9455L34.7855 17.3833L35.0959 18.2648C35.2068 18.2044 35.3176 18.1575 35.4253 18.1206C35.533 18.0838 35.6344 18.057 35.7294 18.0369C35.8244 18.0167 35.9163 18.0067 35.9986 18.0067C36.1855 18.0067 36.3439 18.0402 36.4738 18.1039C36.6036 18.1676 36.7082 18.2648 36.7779 18.3921C36.8475 18.5195 36.8824 18.677 36.8824 18.8613C36.8824 19.0322 36.8412 19.1898 36.7588 19.3238C36.6765 19.4612 36.572 19.5651 36.4389 19.6389C36.3059 19.7126 36.1634 19.7495 36.005 19.7495C35.8466 19.7495 35.6977 19.7227 35.5552 19.6657C35.4127 19.6087 35.2733 19.5182 35.1434 19.3942C35.0104 19.2702 34.8837 19.1026 34.7602 18.8948L33.7307 19.5986C34.0221 20.1148 34.3484 20.4801 34.7031 20.6912C35.0611 20.9024 35.476 21.0063 35.9543 21.0063C36.3692 21.0063 36.7462 20.9124 37.0883 20.7214C37.4272 20.5304 37.6964 20.2756 37.896 19.9506C38.0955 19.6255 38.1937 19.2568 38.1937 18.8412C38.1937 18.5664 38.143 18.3117 38.0417 18.0704L38.0449 18.0804Z" fill="white" style="fill:white;fill-opacity:1;"/>
</g>
<defs>
<clipPath id="clip0_4456_468">
<rect width="34" height="16" fill="white" style="fill:white;fill-opacity:1;" transform="translate(7 10)"/>
</clipPath>
</defs>
</svg>
