<svg width="48" height="36" viewBox="0 0 48 36" fill="none" xmlns="http://www.w3.org/2000/svg">
<rect width="48" height="36" rx="6" fill="#FFF48D" style="fill:#FFF48D;fill:color(display-p3 1.0000 0.9569 0.5529);fill-opacity:1;"/>
<path d="M13.3396 4.31585V19.8752C13.3396 20.62 13.9522 21.2292 14.7005 21.2292H24.0418C31.1039 21.2292 34.1645 17.2949 34.1645 12.075C34.1645 6.85507 31.1028 2.96182 24.0407 2.96182H14.6994C13.9511 2.96182 13.3385 3.57096 13.3385 4.31585H13.3396Z" fill="white" style="fill:white;fill-opacity:1;"/>
<path d="M19.5919 6.78099V18.2782H24.619C29.1841 18.2782 31.1632 15.7116 31.1632 12.083C31.1632 8.45442 29.183 5.91519 24.619 5.91519H20.4622C19.9797 5.91519 19.5919 6.3076 19.5919 6.78213V6.78099Z" fill="#CC0066" style="fill:#CC0066;fill:color(display-p3 0.8000 0.0000 0.4000);fill-opacity:1;"/>
<path fill-rule="evenodd" clip-rule="evenodd" d="M15.9177 19.9903H24.0408C29.7489 19.9903 32.8984 17.1808 32.8984 12.0818C32.8984 9.14332 31.7485 4.20746 24.0408 4.20746H15.9177C15.1968 4.20746 14.6116 4.78922 14.6116 5.50787V18.6911C14.6116 19.4086 15.1968 19.9915 15.9177 19.9915V19.9903ZM15.0462 5.50787C15.0462 5.02763 15.4341 4.64093 15.9166 4.64093H24.0396C27.1823 4.64093 32.4615 5.60939 32.4615 12.0818C32.4615 16.9024 29.4683 19.5569 24.0396 19.5569H15.9166C15.4341 19.5569 15.0462 19.1713 15.0462 18.6899V5.50787Z" fill="#232323" style="fill:#232323;fill:color(display-p3 0.1373 0.1373 0.1373);fill-opacity:1;"/>
<path fill-rule="evenodd" clip-rule="evenodd" d="M22.0661 10.4107C21.9133 10.3559 21.7536 10.3286 21.5802 10.3286V10.3217H20.4292V13.0982H21.5939C21.8003 13.0982 21.9794 13.0571 22.1323 12.9887C22.2851 12.9134 22.4118 12.8176 22.5121 12.6944C22.6125 12.5712 22.6855 12.4206 22.738 12.2495C22.7848 12.0784 22.811 11.8936 22.811 11.6883C22.811 11.4556 22.7779 11.2571 22.7175 11.086C22.6513 10.9217 22.5646 10.778 22.4585 10.6616C22.3456 10.5521 22.219 10.4632 22.0661 10.4084V10.4107ZM21.7923 12.5518C21.7057 12.5792 21.6258 12.5929 21.5391 12.5929V12.5997H21.0132V10.8487H21.4387C21.5847 10.8487 21.7045 10.8693 21.8049 10.9103C21.9053 10.9514 21.984 11.0198 22.0444 11.0951C22.1049 11.1704 22.1505 11.2731 22.1779 11.3826C22.2041 11.4921 22.2178 11.6221 22.2178 11.759C22.2178 11.9164 22.1973 12.0396 22.1585 12.1491C22.1186 12.2586 22.065 12.3408 22.0057 12.4092C21.9452 12.4777 21.8722 12.5256 21.7923 12.5529V12.5518Z" fill="white" style="fill:white;fill-opacity:1;"/>
<path d="M25.2133 10.3296V10.8429H23.7886V11.4384H25.0992V11.9106H23.7886V12.5882H25.2464V13.1015H23.1965V10.325H25.2133V10.3319V10.3296Z" fill="white" style="fill:white;fill-opacity:1;"/>
<path fill-rule="evenodd" clip-rule="evenodd" d="M28.2613 13.1061L27.2495 10.3296H26.63L25.6114 13.1061H26.2103L26.4236 12.4901H27.4354L27.6419 13.1061H28.2613ZM26.9437 11.0129L27.2837 12.0315H26.5844L26.9369 11.0129H26.9437Z" fill="white" style="fill:white;fill-opacity:1;"/>
<path d="M29.2263 10.3286V12.5929H30.5438V13.1062H28.6343V10.3297H29.2263V10.3286Z" fill="white" style="fill:white;fill-opacity:1;"/>
<path d="M17.2557 13.1473C17.9766 13.1473 18.5607 12.5633 18.5607 11.8412C18.5607 11.1191 17.9766 10.5351 17.2557 10.5351C16.5348 10.5351 15.9507 11.1191 15.9507 11.8412C15.9507 12.5633 16.5348 13.1473 17.2557 13.1473Z" fill="#232323" style="fill:#232323;fill:color(display-p3 0.1373 0.1373 0.1373);fill-opacity:1;"/>
<path d="M18.0324 18.3705C17.0218 18.3705 16.2119 17.4979 16.2119 16.4256V14.9073C16.2119 14.3712 16.6168 13.9309 17.1256 13.9309C17.6343 13.9309 18.0393 14.3643 18.0393 14.9073V18.3705H18.0324Z" fill="#232323" style="fill:#232323;fill:color(display-p3 0.1373 0.1373 0.1373);fill-opacity:1;"/>
<path d="M36.3238 24.4072H11.2281C11.1027 24.4072 11 24.3045 11 24.179C11 24.0535 11.1027 23.9509 11.2281 23.9509H36.3238C36.4493 23.9509 36.5519 24.0535 36.5519 24.179C36.5519 24.3045 36.4493 24.4072 36.3238 24.4072Z" fill="#1D1C1C" style="fill:#1D1C1C;fill:color(display-p3 0.1137 0.1098 0.1098);fill-opacity:1;"/>
<path d="M30.3441 30.0833C30.3441 28.557 31.4301 27.1665 33.3054 27.1665C35.1807 27.1665 36.2747 28.5581 36.2747 30.0833C36.2747 31.6084 35.1887 33.0001 33.3054 33.0001C31.4301 33.0001 30.3441 31.6084 30.3441 30.0833ZM34.6263 30.0833C34.6263 29.3475 34.1415 28.6688 33.3054 28.6688C32.4693 28.6688 31.9845 29.3487 31.9845 30.0833C31.9845 30.8179 32.4772 31.4989 33.3054 31.4989C34.1336 31.4989 34.6263 30.819 34.6263 30.0833Z" fill="#1D1C1C" style="fill:#1D1C1C;fill:color(display-p3 0.1137 0.1098 0.1098);fill-opacity:1;"/>
<path d="M29.191 31.167C29.8161 30.8111 30.1914 30.1312 30.1914 29.3807C30.1914 28.2662 29.386 27.3171 28.1358 27.3171H25.511V32.8507H27.1366V31.4362H27.4411L28.3708 32.8507H30.2849L29.191 31.167ZM27.8084 30.1632H27.1366V28.5981H27.8164C28.2545 28.5981 28.5351 28.954 28.5351 29.3807C28.5351 29.8073 28.2453 30.1632 27.8084 30.1632Z" fill="#1D1C1C" style="fill:#1D1C1C;fill:color(display-p3 0.1137 0.1098 0.1098);fill-opacity:1;"/>
<path d="M18.0918 27.3114L17.1165 30.6092L16.1651 27.3114H14.8704L13.9111 30.6092L12.9438 27.3114H11.2281L13.1936 32.8347H14.6058L15.5184 29.8278L16.423 32.8347H17.842L19.8074 27.3114H18.0918Z" fill="#1D1C1C" style="fill:#1D1C1C;fill:color(display-p3 0.1137 0.1098 0.1098);fill-opacity:1;"/>
<path d="M22.2668 31.4852H22.2623C21.6543 31.4852 21.2276 31.1179 21.0451 30.632H25.1756C25.2087 30.4495 25.2258 30.2624 25.2258 30.073C25.2258 28.5513 24.1433 27.1631 22.2657 27.1619V28.6608C22.8771 28.662 23.2992 29.0293 23.4805 29.5141H19.3557C19.3227 29.6966 19.3055 29.8837 19.3055 30.073C19.3055 31.5959 20.3892 32.9853 22.2611 32.9853H22.2657V31.4852H22.2668Z" fill="#1D1C1C" style="fill:#1D1C1C;fill:color(display-p3 0.1137 0.1098 0.1098);fill-opacity:1;"/>
<path d="M22.2623 32.9841C22.3262 32.9841 22.3878 32.9818 22.4505 32.9796C22.8303 32.9602 23.176 32.8826 23.484 32.7583C23.792 32.6328 24.0623 32.4617 24.2916 32.2541C24.5209 32.0465 24.7114 31.8035 24.8585 31.5354C24.992 31.2925 25.0901 31.0278 25.1517 30.7529H23.4304C23.395 30.8259 23.3539 30.8966 23.3072 30.9616C23.2433 31.0518 23.168 31.1328 23.0824 31.2023C22.9969 31.2731 22.9011 31.3324 22.7961 31.378C22.69 31.4236 22.576 31.4556 22.4516 31.4727C22.3912 31.4807 22.3284 31.4852 22.2634 31.4852C21.8756 31.4852 21.563 31.3358 21.3394 31.102L20.2204 32.2335C20.7177 32.6932 21.4079 32.983 22.2634 32.983L22.2623 32.9841Z" fill="url(#paint0_linear_2740_2232)" style=""/>
<path d="M22.2622 27.1607C20.6744 27.1607 19.6534 28.16 19.3808 29.3919H21.0964C21.3018 28.9676 21.7056 28.6596 22.2622 28.6596C22.706 28.6596 23.0505 28.8512 23.2752 29.141L24.4045 27.9991C23.9003 27.4881 23.1748 27.1607 22.2634 27.1607H22.2622Z" fill="url(#paint1_linear_2740_2232)" style=""/>
<defs>
<linearGradient id="paint0_linear_2740_2232" x1="24.3121" y1="29.7502" x2="21.7444" y2="32.8952" gradientUnits="userSpaceOnUse">
<stop offset="0.02" stop-color="#1D1C1C" stop-opacity="0" style="stop-color:none;stop-opacity:0;"/>
<stop offset="0.68" stop-color="#1D1C1C" style="stop-color:#1D1C1C;stop-color:color(display-p3 0.1137 0.1098 0.1098);stop-opacity:1;"/>
</linearGradient>
<linearGradient id="paint1_linear_2740_2232" x1="19.8325" y1="30.4174" x2="22.4653" y2="27.8155" gradientUnits="userSpaceOnUse">
<stop offset="0.02" stop-color="#1D1C1C" stop-opacity="0" style="stop-color:none;stop-opacity:0;"/>
<stop offset="0.68" stop-color="#1D1C1C" style="stop-color:#1D1C1C;stop-color:color(display-p3 0.1137 0.1098 0.1098);stop-opacity:1;"/>
</linearGradient>
</defs>
</svg>
