<svg width="40" height="40" viewBox="0 0 40 40" fill="none" xmlns="http://www.w3.org/2000/svg">
<rect x="0.5" y="0.5" width="39" height="39" rx="9.5" fill="white" style="fill:white;fill-opacity:1;"/>
<rect x="0.5" y="0.5" width="39" height="39" rx="9.5" stroke="#EEEEEE" style="stroke:#EEEEEE;stroke:color(display-p3 0.9333 0.9333 0.9333);stroke-opacity:1;"/>
<path fill-rule="evenodd" clip-rule="evenodd" d="M6.05469 5.74377H15.8203V15.5094H6.05469V5.74377ZM7.61719 7.30627V13.9469H14.2578V7.30627H7.61719Z" fill="#333333" style="fill:#333333;fill:color(display-p3 0.2000 0.2000 0.2000);fill-opacity:1;"/>
<path d="M13.2812 8.28284H8.59375V12.9703H13.2812V8.28284Z" fill="#333333" style="fill:#333333;fill:color(display-p3 0.2000 0.2000 0.2000);fill-opacity:1;"/>
<path fill-rule="evenodd" clip-rule="evenodd" d="M24.8047 5.74377H34.5703V15.5094H24.8047V5.74377ZM26.3672 7.30627V13.9469H33.0078V7.30627H26.3672Z" fill="#333333" style="fill:#333333;fill:color(display-p3 0.2000 0.2000 0.2000);fill-opacity:1;"/>
<path d="M32.0312 8.28284H27.3438V12.9703H32.0312V8.28284Z" fill="#333333" style="fill:#333333;fill:color(display-p3 0.2000 0.2000 0.2000);fill-opacity:1;"/>
<path fill-rule="evenodd" clip-rule="evenodd" d="M24.8047 24.4938H34.5703V34.2594H24.8047V24.4938ZM26.3672 26.0563V32.6969H33.0078V26.0563H26.3672Z" fill="#333333" style="fill:#333333;fill:color(display-p3 0.2000 0.2000 0.2000);fill-opacity:1;"/>
<path d="M32.0312 27.0328H27.3438V31.7203H32.0312V27.0328Z" fill="#333333" style="fill:#333333;fill:color(display-p3 0.2000 0.2000 0.2000);fill-opacity:1;"/>
<path fill-rule="evenodd" clip-rule="evenodd" d="M6.05469 24.4938H15.8203V34.2594H6.05469V24.4938ZM7.61719 26.0563V32.6969H14.2578V26.0563H7.61719Z" fill="#333333" style="fill:#333333;fill:color(display-p3 0.2000 0.2000 0.2000);fill-opacity:1;"/>
<path d="M13.2812 27.0328H8.59375V31.7203H13.2812V27.0328Z" fill="#333333" style="fill:#333333;fill:color(display-p3 0.2000 0.2000 0.2000);fill-opacity:1;"/>
<path fill-rule="evenodd" clip-rule="evenodd" d="M18.9453 5.74377H21.6797V34.2594H18.9453V5.74377Z" fill="#333333" style="fill:#333333;fill:color(display-p3 0.2000 0.2000 0.2000);fill-opacity:1;"/>
<path d="M34.375 18.8297H6.25V21.1735H34.375V18.8297Z" fill="#333333" style="fill:#333333;fill:color(display-p3 0.2000 0.2000 0.2000);fill-opacity:1;"/>
<g clip-path="url(#clip0_2180_959)">
<path d="M12.1875 13.4533V26.5877C12.1875 27.2275 12.7144 27.7167 13.3165 27.7167H21.1821C27.1284 27.7167 29.6875 24.4049 29.6875 20.0017C29.6875 15.5985 27.1284 12.2866 21.1821 12.2866H13.3542C12.7144 12.3243 12.1875 12.8511 12.1875 13.4533Z" fill="white" style="fill:white;fill-opacity:1;"/>
<path d="M17.4564 15.5608V25.2705H21.6715C25.5102 25.2705 27.1661 23.0877 27.1661 20.0393C27.1661 17.1038 25.5102 14.8458 21.6715 14.8458H18.1715C17.7951 14.8081 17.4564 15.1468 17.4564 15.5608Z" fill="#CC0066" style="fill:#CC0066;fill:color(display-p3 0.8000 0.0000 0.4000);fill-opacity:1;"/>
<path d="M21.1822 26.7006H14.3703C13.7682 26.7006 13.2789 26.2114 13.2789 25.6092V14.4695C13.2789 13.8673 13.7682 13.3781 14.3703 13.3781H21.1822C27.6553 13.3781 28.6338 17.5555 28.6338 20.0393C28.6338 24.3297 25.9994 26.7006 21.1822 26.7006ZM14.3703 13.7544C13.9563 13.7544 13.6553 14.0931 13.6553 14.4695V25.6092C13.6553 26.0232 13.994 26.3243 14.3703 26.3243H21.1822C25.7359 26.3243 28.2574 24.0662 28.2574 20.0017C28.2574 14.5447 23.8166 13.7168 21.1822 13.7168L14.3703 13.7544Z" fill="black" style="fill:black;fill-opacity:1;"/>
<path d="M18.9617 18.7221C19.1122 18.7221 19.2628 18.7597 19.3757 18.7974C19.4886 18.835 19.6015 18.9103 19.7144 19.0232C19.7896 19.1361 19.8649 19.249 19.9402 19.3619C19.9778 19.5124 20.0154 19.6629 20.0154 19.8511C20.0154 20.0393 19.9778 20.1898 19.9402 20.3027C19.9025 20.4533 19.8273 20.5662 19.752 20.6791C19.6767 20.792 19.5638 20.8672 19.4133 20.9425C19.3004 21.0178 19.1122 21.0178 18.9617 21.0178H17.9456V18.6844L18.9617 18.7221ZM18.9241 20.6038C18.9993 20.6038 19.0746 20.6038 19.1499 20.5662C19.2251 20.5285 19.2628 20.4909 19.338 20.4533C19.3757 20.378 19.4509 20.3404 19.4509 20.2275C19.4886 20.1522 19.4886 20.0393 19.4886 19.8887C19.4886 19.7758 19.4886 19.6629 19.4509 19.5877C19.4133 19.5124 19.3757 19.3995 19.338 19.3619C19.3004 19.2866 19.2251 19.249 19.1499 19.2113C19.0746 19.1737 18.9617 19.1737 18.8488 19.1737H18.4724V20.6414L18.9241 20.6038Z" fill="white" style="fill:white;fill-opacity:1;"/>
<path d="M22.0854 18.7221V19.1361H20.8435V19.6629H21.9725V20.0393H20.8435V20.6038H22.0854V21.0178H20.3166V18.6844L22.0854 18.7221Z" fill="white" style="fill:white;fill-opacity:1;"/>
<path d="M23.8166 18.7221L24.6822 21.0554H24.1553L23.9671 20.5286H23.1015L22.9134 21.0554H22.3865L23.2521 18.7221C23.2897 18.7221 23.8166 18.7221 23.8166 18.7221ZM23.8542 20.1522L23.5531 19.2866L23.2521 20.1522H23.8542Z" fill="white" style="fill:white;fill-opacity:1;"/>
<path d="M25.51 18.7221V20.6038H26.639V21.0178H24.9831V18.6844C25.0207 18.7221 25.51 18.7221 25.51 18.7221Z" fill="white" style="fill:white;fill-opacity:1;"/>
<path d="M15.537 20.9425C16.119 20.9425 16.5907 20.4708 16.5907 19.8888C16.5907 19.3068 16.119 18.835 15.537 18.835C14.955 18.835 14.4832 19.3068 14.4832 19.8888C14.4832 20.4708 14.955 20.9425 15.537 20.9425Z" fill="black" style="fill:black;fill-opacity:1;"/>
<path d="M16.365 25.2705C15.4618 25.2705 14.7467 24.5554 14.7467 23.6522V22.3726C14.7467 21.921 15.123 21.5447 15.5747 21.5447C16.0263 21.5447 16.4026 21.921 16.4026 22.3726L16.365 25.2705Z" fill="black" style="fill:black;fill-opacity:1;"/>
</g>
<defs>
<clipPath id="clip0_2180_959">
<rect width="17.5" height="15.4301" fill="white" style="fill:white;fill-opacity:1;" transform="translate(12.1875 12.2866)"/>
</clipPath>
</defs>
</svg>
