<svg width="56" height="42" viewBox="0 0 56 42" fill="none" xmlns="http://www.w3.org/2000/svg">
<rect x="0.875" y="0.875" width="54.25" height="40.25" rx="6.125" fill="white" style="fill:white;fill-opacity:1;"/>
<rect x="0.875" y="0.875" width="54.25" height="40.25" rx="6.125" stroke="#ECECF0" style="stroke:#ECECF0;stroke:color(display-p3 0.9255 0.9255 0.9412);stroke-opacity:1;" stroke-width="1.75"/>
<path fill-rule="evenodd" clip-rule="evenodd" d="M14 7H23.589V16.589H14V7ZM15.5342 8.53425V15.0548H22.0548V8.53425H15.5342Z" fill="#333333" style="fill:#333333;fill:color(display-p3 0.2000 0.2000 0.2000);fill-opacity:1;"/>
<path d="M21.0959 9.49315H16.4932V14.0959H21.0959V9.49315Z" fill="#333333" style="fill:#333333;fill:color(display-p3 0.2000 0.2000 0.2000);fill-opacity:1;"/>
<path fill-rule="evenodd" clip-rule="evenodd" d="M32.411 7H42V16.589H32.411V7ZM33.9452 8.53425V15.0548H40.4658V8.53425H33.9452Z" fill="#333333" style="fill:#333333;fill:color(display-p3 0.2000 0.2000 0.2000);fill-opacity:1;"/>
<path d="M39.5068 9.49315H34.9041V14.0959H39.5068V9.49315Z" fill="#333333" style="fill:#333333;fill:color(display-p3 0.2000 0.2000 0.2000);fill-opacity:1;"/>
<path fill-rule="evenodd" clip-rule="evenodd" d="M32.411 25.411H42V35H32.411V25.411ZM33.9452 26.9452V33.4658H40.4658V26.9452H33.9452Z" fill="#333333" style="fill:#333333;fill:color(display-p3 0.2000 0.2000 0.2000);fill-opacity:1;"/>
<path d="M39.5068 27.9041H34.9041V32.5068H39.5068V27.9041Z" fill="#333333" style="fill:#333333;fill:color(display-p3 0.2000 0.2000 0.2000);fill-opacity:1;"/>
<path fill-rule="evenodd" clip-rule="evenodd" d="M14 25.411H23.589V35H14V25.411ZM15.5342 26.9452V33.4658H22.0548V26.9452H15.5342Z" fill="#333333" style="fill:#333333;fill:color(display-p3 0.2000 0.2000 0.2000);fill-opacity:1;"/>
<path d="M21.0959 27.9041H16.4932V32.5068H21.0959V27.9041Z" fill="#333333" style="fill:#333333;fill:color(display-p3 0.2000 0.2000 0.2000);fill-opacity:1;"/>
<path fill-rule="evenodd" clip-rule="evenodd" d="M26.6575 7H29.3425V35H26.6575V7Z" fill="#333333" style="fill:#333333;fill:color(display-p3 0.2000 0.2000 0.2000);fill-opacity:1;"/>
<path d="M41.8082 19.8493H14.1918V22.1507H41.8082V19.8493Z" fill="#333333" style="fill:#333333;fill:color(display-p3 0.2000 0.2000 0.2000);fill-opacity:1;"/>
<g clip-path="url(#clip0_2741_3805)">
<path d="M20 14.2098V27.8293C20 28.4927 20.5419 29 21.1613 29H29.2516C35.3677 29 38 25.5659 38 21C38 16.4341 35.3677 13 29.2516 13H21.2C20.5419 13.039 20 13.5854 20 14.2098Z" fill="white" style="fill:white;fill-opacity:1;"/>
<path d="M25.4194 16.3951V26.4634H29.7549C33.7033 26.4634 35.4065 24.2 35.4065 21.039C35.4065 17.9951 33.7033 15.6537 29.7549 15.6537H26.1549C25.7678 15.6146 25.4194 15.9659 25.4194 16.3951Z" fill="#CC0066" style="fill:#CC0066;fill:color(display-p3 0.8000 0.0000 0.4000);fill-opacity:1;"/>
<path d="M29.2516 27.9463H22.2451C21.6258 27.9463 21.1226 27.439 21.1226 26.8146V15.2634C21.1226 14.639 21.6258 14.1317 22.2451 14.1317H29.2516C35.9097 14.1317 36.9161 18.4634 36.9161 21.039C36.9161 25.4878 34.2064 27.9463 29.2516 27.9463ZM22.2451 14.522C21.8193 14.522 21.5097 14.8732 21.5097 15.2634V26.8146C21.5097 27.2439 21.858 27.5561 22.2451 27.5561H29.2516C33.9355 27.5561 36.529 25.2146 36.529 21C36.529 15.3415 31.9613 14.4829 29.2516 14.4829L22.2451 14.522Z" fill="black" style="fill:black;fill-opacity:1;"/>
<path d="M26.9677 19.6732C27.1225 19.6732 27.2774 19.7122 27.3935 19.7512C27.5096 19.7903 27.6258 19.8683 27.7419 19.9854C27.8193 20.1024 27.8967 20.2195 27.9742 20.3366C28.0129 20.4927 28.0516 20.6488 28.0516 20.8439C28.0516 21.039 28.0129 21.1951 27.9742 21.3122C27.9354 21.4683 27.858 21.5854 27.7806 21.7024C27.7032 21.8195 27.5871 21.8976 27.4322 21.9756C27.3161 22.0537 27.1225 22.0537 26.9677 22.0537H25.9225V19.6342L26.9677 19.6732ZM26.929 21.6244C27.0064 21.6244 27.0838 21.6244 27.1613 21.5854C27.2387 21.5464 27.2774 21.5073 27.3548 21.4683C27.3935 21.3903 27.4709 21.3512 27.4709 21.2342C27.5096 21.1561 27.5096 21.039 27.5096 20.8829C27.5096 20.7659 27.5096 20.6488 27.4709 20.5707C27.4322 20.4927 27.3935 20.3756 27.3548 20.3366C27.3161 20.2585 27.2387 20.2195 27.1613 20.1805C27.0838 20.1415 26.9677 20.1415 26.8516 20.1415H26.4645V21.6634L26.929 21.6244Z" fill="white" style="fill:white;fill-opacity:1;"/>
<path d="M30.1807 19.6732V20.1024H28.9033V20.6488H30.0646V21.039H28.9033V21.6244H30.1807V22.0537H28.3613V19.6342L30.1807 19.6732Z" fill="white" style="fill:white;fill-opacity:1;"/>
<path d="M31.9613 19.6732L32.8516 22.0927H32.3097L32.1162 21.5464H31.2258L31.0323 22.0927H30.4904L31.3807 19.6732C31.4194 19.6732 31.9613 19.6732 31.9613 19.6732ZM32 21.1561L31.6904 20.2586L31.3807 21.1561H32Z" fill="white" style="fill:white;fill-opacity:1;"/>
<path d="M33.7031 19.6732V21.6244H34.8644V22.0537H33.1611V19.6342C33.1998 19.6732 33.7031 19.6732 33.7031 19.6732Z" fill="white" style="fill:white;fill-opacity:1;"/>
<path d="M23.4451 21.9756C24.0437 21.9756 24.529 21.4864 24.529 20.8829C24.529 20.2794 24.0437 19.7902 23.4451 19.7902C22.8465 19.7902 22.3613 20.2794 22.3613 20.8829C22.3613 21.4864 22.8465 21.9756 23.4451 21.9756Z" fill="black" style="fill:black;fill-opacity:1;"/>
<path d="M24.2968 26.4635C23.3678 26.4635 22.6323 25.722 22.6323 24.7854V23.4586C22.6323 22.9903 23.0194 22.6 23.4839 22.6C23.9485 22.6 24.3356 22.9903 24.3356 23.4586L24.2968 26.4635Z" fill="black" style="fill:black;fill-opacity:1;"/>
</g>
<defs>
<clipPath id="clip0_2741_3805">
<rect width="18" height="16" fill="white" style="fill:white;fill-opacity:1;" transform="translate(20 13)"/>
</clipPath>
</defs>
</svg>
