<svg width="64" height="48" viewBox="0 0 64 48" fill="none" xmlns="http://www.w3.org/2000/svg">
<rect x="1" y="1" width="62" height="46" rx="7" fill="white" style="fill:white;fill-opacity:1;"/>
<rect x="1" y="1" width="62" height="46" rx="7" stroke="#ECECF0" style="stroke:#ECECF0;stroke:color(display-p3 0.9255 0.9255 0.9412);stroke-opacity:1;" stroke-width="2"/>
<path fill-rule="evenodd" clip-rule="evenodd" d="M16 8H26.9589V18.9589H16V8ZM17.7534 9.75342V17.2055H25.2055V9.75342H17.7534Z" fill="#333333" style="fill:#333333;fill:color(display-p3 0.2000 0.2000 0.2000);fill-opacity:1;"/>
<path d="M24.1096 10.8493H18.8493V16.1096H24.1096V10.8493Z" fill="#333333" style="fill:#333333;fill:color(display-p3 0.2000 0.2000 0.2000);fill-opacity:1;"/>
<path fill-rule="evenodd" clip-rule="evenodd" d="M37.0411 8H48V18.9589H37.0411V8ZM38.7945 9.75342V17.2055H46.2466V9.75342H38.7945Z" fill="#333333" style="fill:#333333;fill:color(display-p3 0.2000 0.2000 0.2000);fill-opacity:1;"/>
<path d="M45.1507 10.8493H39.8904V16.1096H45.1507V10.8493Z" fill="#333333" style="fill:#333333;fill:color(display-p3 0.2000 0.2000 0.2000);fill-opacity:1;"/>
<path fill-rule="evenodd" clip-rule="evenodd" d="M37.0411 29.0411H48V40H37.0411V29.0411ZM38.7945 30.7945V38.2466H46.2466V30.7945H38.7945Z" fill="#333333" style="fill:#333333;fill:color(display-p3 0.2000 0.2000 0.2000);fill-opacity:1;"/>
<path d="M45.1507 31.8904H39.8904V37.1507H45.1507V31.8904Z" fill="#333333" style="fill:#333333;fill:color(display-p3 0.2000 0.2000 0.2000);fill-opacity:1;"/>
<path fill-rule="evenodd" clip-rule="evenodd" d="M16 29.0411H26.9589V40H16V29.0411ZM17.7534 30.7945V38.2466H25.2055V30.7945H17.7534Z" fill="#333333" style="fill:#333333;fill:color(display-p3 0.2000 0.2000 0.2000);fill-opacity:1;"/>
<path d="M24.1096 31.8904H18.8493V37.1507H24.1096V31.8904Z" fill="#333333" style="fill:#333333;fill:color(display-p3 0.2000 0.2000 0.2000);fill-opacity:1;"/>
<path fill-rule="evenodd" clip-rule="evenodd" d="M30.4658 8H33.5342V40H30.4658V8Z" fill="#333333" style="fill:#333333;fill:color(display-p3 0.2000 0.2000 0.2000);fill-opacity:1;"/>
<path d="M47.7808 22.6849H16.2192V25.3151H47.7808V22.6849Z" fill="#333333" style="fill:#333333;fill:color(display-p3 0.2000 0.2000 0.2000);fill-opacity:1;"/>
<g clip-path="url(#clip0_2741_3803)">
<path d="M22.8571 16.2397V31.8049C22.8571 32.563 23.4765 33.1428 24.1843 33.1428H33.4304C40.4202 33.1428 43.4285 29.2181 43.4285 24C43.4285 18.7819 40.4202 14.8571 33.4304 14.8571H24.2285C23.4765 14.9017 22.8571 15.5261 22.8571 16.2397Z" fill="white" style="fill:white;fill-opacity:1;"/>
<path d="M29.0508 18.7373V30.2439H34.0056C38.5181 30.2439 40.4646 27.6571 40.4646 24.0446C40.4646 20.5658 38.5181 17.8899 34.0056 17.8899H29.8913C29.4489 17.8453 29.0508 18.2467 29.0508 18.7373Z" fill="#CC0066" style="fill:#CC0066;fill:color(display-p3 0.8000 0.0000 0.4000);fill-opacity:1;"/>
<path d="M33.4304 31.9387H25.423C24.7152 31.9387 24.1401 31.3589 24.1401 30.6453V17.4439C24.1401 16.7303 24.7152 16.1505 25.423 16.1505H33.4304C41.0396 16.1505 42.1898 21.101 42.1898 24.0446C42.1898 29.1289 39.0931 31.9387 33.4304 31.9387ZM25.423 16.5965C24.9364 16.5965 24.5825 16.9979 24.5825 17.4439V30.6453C24.5825 31.1359 24.9806 31.4927 25.423 31.4927H33.4304C38.7834 31.4927 41.7475 28.8167 41.7475 24C41.7475 17.5331 36.5272 16.5519 33.4304 16.5519L25.423 16.5965Z" fill="black" style="fill:black;fill-opacity:1;"/>
<path d="M30.8202 22.4836C30.9972 22.4836 31.1741 22.5282 31.3068 22.5728C31.4396 22.6174 31.5723 22.7066 31.705 22.8404C31.7935 22.9742 31.882 23.108 31.9704 23.2418C32.0147 23.4202 32.0589 23.5986 32.0589 23.8216C32.0589 24.0446 32.0147 24.223 31.9704 24.3568C31.9262 24.5352 31.8377 24.669 31.7492 24.8028C31.6608 24.9366 31.528 25.0258 31.3511 25.115C31.2184 25.2042 30.9972 25.2042 30.8202 25.2042H29.6257V22.439L30.8202 22.4836ZM30.776 24.7136C30.8644 24.7136 30.9529 24.7136 31.0414 24.669C31.1299 24.6244 31.1741 24.5798 31.2626 24.5352C31.3068 24.446 31.3953 24.4014 31.3953 24.2676C31.4396 24.1784 31.4396 24.0446 31.4396 23.8662C31.4396 23.7324 31.4396 23.5986 31.3953 23.5094C31.3511 23.4202 31.3068 23.2864 31.2626 23.2418C31.2184 23.1526 31.1299 23.108 31.0414 23.0634C30.9529 23.0188 30.8202 23.0188 30.6875 23.0188H30.2451V24.7582L30.776 24.7136Z" fill="white" style="fill:white;fill-opacity:1;"/>
<path d="M34.4922 22.4836V22.9742H33.0323V23.5986H34.3594V24.0446H33.0323V24.7136H34.4922V25.2042H32.4129V22.439L34.4922 22.4836Z" fill="white" style="fill:white;fill-opacity:1;"/>
<path d="M36.5272 22.4836L37.5447 25.2488H36.9254L36.7042 24.6244H35.6867L35.4655 25.2488H34.8461L35.8636 22.4836C35.9079 22.4836 36.5272 22.4836 36.5272 22.4836ZM36.5715 24.1784L36.2176 23.1526L35.8636 24.1784H36.5715Z" fill="white" style="fill:white;fill-opacity:1;"/>
<path d="M38.5178 22.4836V24.7136H39.845V25.2042H37.8984V22.439C37.9427 22.4836 38.5178 22.4836 38.5178 22.4836Z" fill="white" style="fill:white;fill-opacity:1;"/>
<path d="M26.7944 25.1149C27.4786 25.1149 28.0331 24.5558 28.0331 23.8662C28.0331 23.1765 27.4786 22.6174 26.7944 22.6174C26.1103 22.6174 25.5557 23.1765 25.5557 23.8662C25.5557 24.5558 26.1103 25.1149 26.7944 25.1149Z" fill="black" style="fill:black;fill-opacity:1;"/>
<path d="M27.7678 30.2439C26.706 30.2439 25.8655 29.3965 25.8655 28.3261V26.8097C25.8655 26.2745 26.3079 25.8286 26.8388 25.8286C27.3696 25.8286 27.812 26.2745 27.812 26.8097L27.7678 30.2439Z" fill="black" style="fill:black;fill-opacity:1;"/>
</g>
<defs>
<clipPath id="clip0_2741_3803">
<rect width="20.5714" height="18.2857" fill="white" style="fill:white;fill-opacity:1;" transform="translate(22.8571 14.8571)"/>
</clipPath>
</defs>
</svg>
