<svg width="16" height="16" viewBox="0 0 16 16" fill="none" xmlns="http://www.w3.org/2000/svg">
<rect width="16" height="16" rx="4" fill="#001C5D" style="fill:#001C5D;fill:color(display-p3 0.0000 0.1098 0.3647);fill-opacity:1;"/>
<g clip-path="url(#clip0_2180_603)">
<path d="M3.40005 6.58185C3.06732 6.58185 2.80005 6.85458 2.80005 7.18185V10.3618C2.80005 10.6946 3.06732 10.9618 3.40005 10.9618C3.73278 10.9618 4.00005 10.6946 4.00005 10.3618V7.18185C4.00005 6.85458 3.73278 6.58185 3.40005 6.58185Z" fill="#33EBC7" style="fill:#33EBC7;fill:color(display-p3 0.2000 0.9216 0.7804);fill-opacity:1;"/>
<path d="M3.40005 6.20543C3.73278 6.20543 4.00005 5.93816 4.00005 5.60543C4.00005 5.2727 3.73278 5.00543 3.40005 5.00543C3.06732 5.00543 2.80005 5.2727 2.80005 5.60543C2.80005 5.93816 3.06732 6.20543 3.40005 6.20543Z" fill="#33EBC7" style="fill:#33EBC7;fill:color(display-p3 0.2000 0.9216 0.7804);fill-opacity:1;"/>
<path d="M6.95647 6.57635C6.37829 6.57635 6.00738 6.79454 5.77829 7.00726C5.70738 6.94181 5.62556 6.88181 5.54374 6.83272C5.5001 6.79999 5.45101 6.77272 5.39647 6.7509C5.33101 6.72363 5.2601 6.71272 5.18374 6.71272C4.85101 6.71272 4.58374 6.97999 4.58374 7.31272C4.58374 7.54181 4.70919 7.73817 4.89465 7.84181C4.9001 7.84181 4.9001 7.84726 4.90556 7.84726C4.94374 7.86908 4.97647 7.89636 4.99829 7.91817C5.15101 8.07635 5.20556 8.35454 5.21647 8.52363C5.21647 8.56726 5.21647 8.6109 5.22192 8.64363V10.3564C5.22192 10.6891 5.48919 10.9618 5.82192 10.9618C6.15465 10.9618 6.42192 10.6945 6.42192 10.3618V8.62726V8.36545V8.35999C6.42192 8.03817 6.68374 7.77636 7.00556 7.77636C7.32738 7.77636 7.5892 8.03817 7.5892 8.35999V8.36545V8.61636C7.5892 8.62181 7.5892 8.62726 7.5892 8.63817V10.3618C7.5892 10.6945 7.85647 10.9618 8.1892 10.9618C8.52192 10.9618 8.7892 10.6945 8.7892 10.3618V8.6709C8.7892 8.65999 8.7892 8.64363 8.7892 8.62181C8.7892 8.38726 8.74556 7.62363 8.23283 7.08908C7.92192 6.75635 7.47465 6.57635 6.95647 6.57635Z" fill="#33EBC7" style="fill:#33EBC7;fill:color(display-p3 0.2000 0.9216 0.7804);fill-opacity:1;"/>
<path d="M13.3001 7.91273C13.3165 7.89091 13.3383 7.86909 13.3546 7.84727C13.3655 7.83636 13.371 7.82 13.3819 7.80909C13.4037 7.77636 13.4255 7.74909 13.4474 7.71636C13.4474 7.71091 13.4528 7.71091 13.4528 7.70545C13.4855 7.66182 13.5128 7.61273 13.5346 7.55818V7.55273C13.6492 7.31273 13.7092 7.03455 13.7092 6.73455C13.7092 6.15636 13.491 5.78545 13.2783 5.55636C13.0055 5.28364 12.6728 5 11.7074 5H9.92918C9.59646 5 9.32373 5.26727 9.32373 5.6C9.32373 5.93273 9.591 6.2 9.92373 6.2H11.6583H11.9201H11.9255C12.2474 6.2 12.5092 6.46182 12.5092 6.78364C12.5092 7.08364 12.2855 7.32909 12.0019 7.36182C11.931 7.36727 11.8601 7.36727 11.7783 7.36727H11.6746C11.6692 7.36727 11.6637 7.36727 11.6528 7.36727H9.92918C9.59646 7.36727 9.32918 7.63455 9.32918 7.96727C9.32918 8.3 9.59646 8.56727 9.92918 8.56727H11.6637H11.9255H11.931C12.2528 8.56727 12.5146 8.82909 12.5146 9.15091C12.5146 9.47273 12.2528 9.73455 11.931 9.73455H11.9255H11.6746C11.6692 9.73455 11.6637 9.73455 11.6528 9.73455H9.92918C9.59646 9.73455 9.32918 10.0018 9.32918 10.3345C9.32918 10.6673 9.59646 10.9345 9.92918 10.9345H11.6201C11.631 10.9345 11.6474 10.9345 11.6692 10.9345C11.9037 10.9345 12.6674 10.8909 13.2019 10.3782C13.5401 10.0564 13.7201 9.60909 13.7201 9.09091C13.7201 8.51273 13.5019 8.14182 13.2892 7.91273C13.2837 7.92909 13.2946 7.92364 13.3001 7.91273Z" fill="#33EBC7" style="fill:#33EBC7;fill:color(display-p3 0.2000 0.9216 0.7804);fill-opacity:1;"/>
</g>
<defs>
<clipPath id="clip0_2180_603">
<rect width="10.9091" height="6" fill="white" style="fill:white;fill-opacity:1;" transform="translate(2.80005 5)"/>
</clipPath>
</defs>
</svg>
