<svg width="40" height="40" viewBox="0 0 40 40" fill="none" xmlns="http://www.w3.org/2000/svg">
<rect width="40" height="40" rx="10" fill="#F8F9FE" style="fill:#F8F9FE;fill:color(display-p3 0.9725 0.9765 0.9961);fill-opacity:1;"/>
<g clip-path="url(#clip0_3586_710)">
<path fill-rule="evenodd" clip-rule="evenodd" d="M18.6987 25.4648C18.926 25.4648 19.1091 25.2818 19.1091 25.0548C19.1091 24.8277 18.926 24.6448 18.6987 24.6448C18.4715 24.6448 18.2884 24.8277 18.2884 25.0548C18.2884 25.2818 18.4715 25.4648 18.6987 25.4648ZM8.91146 27.9912C9.00083 27.9912 9.07291 27.9189 9.07291 27.8296V25.7627C9.07291 25.6734 9.00083 25.6011 8.91146 25.6011C8.82208 25.6016 8.75 25.5293 8.75 25.44V25.0742C8.75 24.9849 8.82208 24.9126 8.91146 24.9126H10.4405C11.2213 24.9126 11.636 25.3755 11.636 25.9727C11.636 26.2634 11.4635 26.5273 11.2324 26.6617V26.6942C11.5015 26.8233 11.7547 27.1033 11.7547 27.5229C11.7547 28.2551 11.1896 28.6801 10.5539 28.6801H8.91146C8.82208 28.6801 8.75 28.6078 8.75 28.5186V28.1527C8.75 28.0635 8.82208 27.9912 8.91146 27.9912ZM10.4299 26.4143C10.6721 26.4143 10.8335 26.242 10.8335 26.0213C10.8335 25.8005 10.661 25.6389 10.4299 25.6389H10.0099C9.92055 25.6389 9.84848 25.7112 9.84848 25.8005V26.2527C9.84848 26.342 9.92055 26.4143 10.0099 26.4143H10.4299ZM10.4462 27.9591C10.7206 27.9591 10.9364 27.7816 10.9364 27.5016C10.9364 27.2216 10.7158 27.0494 10.441 27.0494H10.0104C9.92103 27.0494 9.84896 27.1217 9.84896 27.211V27.7976C9.84896 27.8868 9.92103 27.9591 10.0104 27.9591H10.4462ZM12.1853 27.749V26.0596C12.1853 25.9402 12.2818 25.8437 12.4015 25.8437H12.7369C12.8666 25.8437 12.9719 25.949 12.9719 26.0785V27.4963C12.9719 27.7549 13.1309 27.9514 13.3654 27.9858C13.6624 28.0295 13.9247 27.7845 13.9247 27.4841V26.0683C13.9247 25.9441 14.0252 25.8437 14.1492 25.8437H14.486C14.61 25.8437 14.7104 25.9441 14.7104 26.0683V28.5035C14.7104 28.601 14.6311 28.6806 14.5336 28.6806H14.1828C14.0401 28.6806 13.9243 28.5651 13.9243 28.4225H13.8705C13.7412 28.6054 13.5096 28.751 13.1814 28.751C12.5836 28.751 12.1853 28.3041 12.1853 27.75V27.749ZM15.5826 27.7554L15.5753 27.7568L15.5758 27.7578C15.3212 27.8034 15.1981 28.0994 15.3485 28.3094C15.5633 28.6093 15.9372 28.751 16.3581 28.751C17.0957 28.751 17.5426 28.358 17.5426 27.7874C17.5426 27.1233 16.9822 27.0014 16.546 26.9066C16.268 26.8462 16.0405 26.7967 16.0405 26.6249C16.0405 26.5006 16.1698 26.4201 16.3581 26.4201C16.4975 26.4201 16.6166 26.4676 16.7046 26.5657C16.7925 26.6637 16.9295 26.7025 17.0568 26.668C17.3192 26.5972 17.4095 26.2663 17.2149 26.0761C17.0116 25.8767 16.7132 25.7738 16.3471 25.7738C15.7171 25.7738 15.2649 26.1668 15.2649 26.6564C15.2649 27.3442 15.8151 27.4681 16.246 27.5651C16.5233 27.6275 16.7512 27.6788 16.7512 27.8621C16.7512 27.9965 16.6325 28.0882 16.3956 28.0882C16.2044 28.0882 16.029 28.028 15.9324 27.8985C15.8507 27.7893 15.7171 27.7311 15.5826 27.7554ZM22.8831 27.2648C22.8831 26.3769 23.54 25.7738 24.3314 25.7738C25.2036 25.7738 25.7475 26.4196 25.7475 27.2595C25.7475 27.3696 25.6581 27.4584 25.5481 27.4584H23.6904C23.6957 27.8296 23.9706 28.0557 24.342 28.0557C24.5707 28.0557 24.7908 27.9756 24.9129 27.7937C24.9436 27.7481 24.9994 27.7267 25.0527 27.7393L25.5053 27.8437C25.5875 27.8626 25.6322 27.9519 25.5976 28.0285C25.3597 28.5511 24.8562 28.75 24.3526 28.75C23.4857 28.75 22.8827 28.1202 22.8827 27.2643L22.8831 27.2648ZM24.8427 26.9363C24.9047 26.9363 24.9479 26.8747 24.9263 26.8165C24.8432 26.5904 24.6169 26.4254 24.3314 26.4254C24.0253 26.4254 23.8134 26.6059 23.7298 26.8131C23.7063 26.8723 23.7486 26.9368 23.8125 26.9368H24.8427V26.9363ZM26.8599 27.8543C26.8129 27.7675 26.7124 27.7243 26.6154 27.7418V27.7423C26.2977 27.799 26.1714 28.1896 26.3982 28.4196C26.6192 28.6437 26.9488 28.7505 27.3145 28.7505C28.0521 28.7505 28.499 28.3575 28.499 27.7869C28.499 27.1228 27.9386 27.0009 27.5024 26.9061C27.2244 26.8457 26.9969 26.7962 26.9969 26.6244C26.9969 26.5002 27.1262 26.4196 27.3145 26.4196C27.4327 26.4196 27.5389 26.457 27.6197 26.5254C27.7547 26.6399 27.9325 26.6899 28.1031 26.6438L28.1252 26.638C28.3078 26.5889 28.3943 26.374 28.2885 26.2173C28.092 25.9257 27.748 25.7743 27.3035 25.7743C26.6735 25.7743 26.2213 26.1673 26.2213 26.6569C26.2213 27.3447 26.7715 27.4686 27.2024 27.5655C27.4797 27.628 27.7076 27.6793 27.7076 27.8626C27.7076 27.997 27.5889 28.0887 27.352 28.0887C27.1396 28.0887 26.9474 28.0149 26.8599 27.8543ZM29.2832 27.7568C29.4221 27.7321 29.5581 27.7932 29.6446 27.9043C29.7421 28.03 29.9151 28.0882 30.1039 28.0882C30.3408 28.0882 30.4595 27.9965 30.4595 27.8621C30.4595 27.6788 30.2317 27.6275 29.9544 27.5651C29.5235 27.4681 28.9733 27.3442 28.9733 26.6564C28.9733 26.1668 29.4254 25.7738 30.0554 25.7738C30.4216 25.7738 30.7195 25.8767 30.9232 26.0761C31.1178 26.2663 31.0275 26.5972 30.7651 26.668C30.6378 26.7025 30.5009 26.6637 30.4129 26.5657C30.325 26.4676 30.2058 26.4201 30.0665 26.4201C29.8781 26.4201 29.7488 26.5006 29.7488 26.6249C29.7488 26.7967 29.9764 26.8462 30.2544 26.9066C30.6906 27.0014 31.251 27.1233 31.251 27.7874C31.251 28.358 30.8041 28.751 30.0665 28.751C29.6455 28.751 29.2717 28.6093 29.0569 28.3094C28.9065 28.0994 29.0295 27.8034 29.2842 27.7578L29.2832 27.7568ZM18.2884 26.1333C18.2884 25.9063 18.4715 25.7234 18.6987 25.7234C18.926 25.7234 19.1115 25.9063 19.1091 26.1333V28.3065C19.1091 28.5336 18.926 28.7165 18.6987 28.7165C18.4715 28.7165 18.2884 28.5336 18.2884 28.3065V26.1333ZM20.3219 25.9393C20.4815 25.7903 20.7419 25.6389 21.1436 25.6389L21.1451 25.6385C21.5064 25.6385 21.8149 25.7631 22.0413 25.9946C22.3978 26.3672 22.4271 26.8961 22.4271 27.061V28.2735C22.4271 28.5045 22.2412 28.6908 22.0095 28.6908C21.7779 28.6908 21.592 28.505 21.592 28.2735V27.0717C21.592 27.0685 21.5909 27.0653 21.5901 27.0628C21.5896 27.061 21.5891 27.0596 21.5891 27.0586V26.883V26.8805C21.5891 26.6574 21.4055 26.4764 21.1821 26.4764C20.9586 26.4764 20.778 26.6574 20.7751 26.8805V26.883V27.0664V28.2735C20.7751 28.505 20.5862 28.6937 20.3546 28.6937C20.123 28.6937 19.9342 28.505 19.9342 28.2735V27.0795C19.9342 27.0699 19.9336 27.0587 19.9329 27.0464C19.9322 27.0314 19.9313 27.0146 19.9313 26.997C19.9207 26.8776 19.8832 26.6836 19.777 26.5744C19.7612 26.5584 19.7424 26.5399 19.7131 26.5239C19.7117 26.5239 19.7104 26.5233 19.709 26.5227C19.7077 26.5221 19.7064 26.5215 19.705 26.5215C19.5747 26.4526 19.4868 26.3143 19.4868 26.1547C19.4868 25.9233 19.6756 25.7345 19.9073 25.7345C19.9606 25.7345 20.011 25.7428 20.0562 25.7612C20.0932 25.7743 20.1254 25.7932 20.1571 25.817C20.2158 25.8544 20.2715 25.8941 20.3219 25.9393Z" fill="#713DFF" style="fill:#713DFF;fill:color(display-p3 0.4431 0.2392 1.0000);fill-opacity:1;"/>
<path fill-rule="evenodd" clip-rule="evenodd" d="M30.5115 17.1616C30.4802 17.2092 30.4408 17.2567 30.4014 17.3043L30.401 17.3052C30.3856 17.3208 30.3697 17.3445 30.3697 17.3605C30.8099 17.8365 31.2577 18.6143 31.2577 19.8122C31.2577 20.8913 30.8882 21.8117 30.1967 22.4861C29.0963 23.5492 27.5327 23.6365 27.0455 23.6365H23.4617C22.7779 23.6365 22.2277 23.081 22.2277 22.3906C22.2277 21.7001 22.7779 21.1446 23.4617 21.1446H27.0138C27.0231 21.1446 27.0324 21.1419 27.0401 21.1397C27.0455 21.1381 27.05 21.1368 27.0532 21.1368H27.5798C28.24 21.1368 28.7744 20.5895 28.7744 19.9229C28.7744 19.2562 28.24 18.7167 27.5798 18.7089H23.4617C22.7779 18.7089 22.2201 18.1456 22.2201 17.4552V17.4391C22.2201 16.7487 22.7703 16.1932 23.454 16.1932H27.0061C27.0154 16.1932 27.0248 16.1905 27.0324 16.1883C27.0378 16.1867 27.0423 16.1854 27.0455 16.1854H27.2579C27.4232 16.1854 27.5803 16.1854 27.7216 16.1776C28.3107 16.0981 28.7667 15.5906 28.7667 14.9714C28.7667 14.3048 28.2324 13.7652 27.5721 13.7575H23.454C22.7703 13.7575 22.2124 13.1942 22.2124 12.5037C22.2124 11.8133 22.7703 11.25 23.454 11.25H27.1161C29.1122 11.25 29.7878 11.8371 30.3539 12.4086C30.794 12.8846 31.2419 13.6624 31.2419 14.8603C31.2419 15.4872 31.1165 16.0588 30.8805 16.5585V16.5663C30.8416 16.6774 30.7863 16.7725 30.7157 16.8676C30.7075 16.8676 30.6998 16.8758 30.6998 16.8836C30.6878 16.9018 30.6763 16.9195 30.665 16.9368C30.6321 16.9874 30.6013 17.0347 30.5663 17.082C30.5562 17.103 30.5426 17.1204 30.53 17.1367C30.5233 17.1452 30.5169 17.1534 30.5115 17.1616ZM11.2661 12.5115C11.2661 13.2019 10.7159 13.7575 10.0321 13.7575C9.34829 13.7575 8.7981 13.2019 8.7981 12.5115C8.7981 11.8216 9.34877 11.266 10.0321 11.266C10.7154 11.266 11.2661 11.8211 11.2661 12.5115ZM8.7981 15.789C8.7981 15.0986 9.34829 14.543 10.0321 14.543C10.7159 14.543 11.2737 15.0986 11.2661 15.789V22.391C11.2661 23.0815 10.7159 23.637 10.0321 23.637C9.34829 23.637 8.7981 23.0815 8.7981 22.391V15.789ZM17.348 14.527C16.1616 14.527 15.3914 14.9792 14.92 15.4236C14.7705 15.2888 14.6057 15.1699 14.4327 15.0588C14.3385 14.9875 14.2443 14.9317 14.1343 14.8924C14.0007 14.837 13.8513 14.8128 13.6941 14.8128C13.0104 14.8128 12.4525 15.3761 12.4525 16.0665C12.4525 16.5425 12.712 16.9554 13.0969 17.1616C13.1007 17.1616 13.1047 17.1636 13.1086 17.1655C13.1126 17.1674 13.1166 17.1694 13.1204 17.1694C13.2059 17.2164 13.2604 17.2714 13.3071 17.3186L13.3088 17.3203C13.623 17.6458 13.7331 18.2247 13.7648 18.5818C13.7648 18.6341 13.7671 18.6841 13.7692 18.729C13.7709 18.7658 13.7725 18.7992 13.7725 18.8278V22.3906C13.7725 23.081 14.3304 23.6443 15.0141 23.6443C15.6979 23.6443 16.2558 23.081 16.2558 22.3906V18.788V18.2407V18.2329C16.2635 17.5663 16.7978 17.0267 17.4581 17.0267C18.1183 17.0267 18.6603 17.5663 18.6603 18.2329V18.2407V18.7642C18.6603 18.7674 18.6616 18.772 18.6632 18.7774C18.6654 18.7851 18.668 18.7946 18.668 18.804V22.3906C18.668 23.081 19.2182 23.6365 19.902 23.6365C20.5858 23.6365 21.136 23.081 21.136 22.3906V18.772C21.136 18.28 21.0495 16.7012 19.9967 15.5901C19.3288 14.8996 18.4172 14.527 17.3485 14.527H17.348Z" fill="#102F76" style="fill:#102F76;fill:color(display-p3 0.0627 0.1843 0.4627);fill-opacity:1;"/>
</g>
<defs>
<clipPath id="clip0_3586_710">
<rect width="22.5" height="17.5" fill="white" style="fill:white;fill-opacity:1;" transform="translate(8.75 11.25)"/>
</clipPath>
</defs>
</svg>
