<svg width="40" height="30" viewBox="0 0 40 30" fill="none" xmlns="http://www.w3.org/2000/svg">
<rect width="40" height="30" rx="5" fill="#0097DB" style="fill:#0097DB;fill:color(display-p3 0.0000 0.5922 0.8588);fill-opacity:1;"/>
<path fill-rule="evenodd" clip-rule="evenodd" d="M20.1018 14.0689C22.1243 14.0689 23.7638 12.4584 23.7638 10.4719C23.7638 8.48551 22.1243 6.875 20.1018 6.875C18.0793 6.875 16.4398 8.48551 16.4398 10.4719C16.4398 12.4584 18.0793 14.0689 20.1018 14.0689Z" fill="white" style="fill:white;fill-opacity:1;"/>
<path fill-rule="evenodd" clip-rule="evenodd" d="M19.2966 14.868C18.0718 14.868 17.0171 14.4005 16.3464 13.8808C12.3484 14.2929 9.375 14.877 9.375 14.877V16.4063H30.625C30.625 14.2596 30.625 13.1863 30.625 13.1863C30.625 13.1863 26.9507 13.1641 22.8031 13.3821C22.1056 14.1249 20.8751 14.868 19.2966 14.868Z" fill="white" style="fill:white;fill-opacity:1;"/>
<path fill-rule="evenodd" clip-rule="evenodd" d="M11.8946 23.125H9.375V17.3661H11.8946V19.9577L13.3921 17.3661H16.4131L14.2009 20.3422L16.2882 23.125H13.4052L11.912 20.9605L11.8946 23.125Z" fill="white" style="fill:white;fill-opacity:1;"/>
<path fill-rule="evenodd" clip-rule="evenodd" d="M30.5849 22.8193C29.9903 23.0114 29.2088 23.125 28.5096 23.125C26.0169 23.125 24.1869 22.375 24.1869 20.1938C24.1869 18.2226 25.9607 17.3661 28.3854 17.3661C29.0593 17.3661 29.9153 17.4449 30.5849 17.6712L30.584 19.5805C30.0878 19.2623 29.5916 19.064 28.8809 19.064C27.9561 19.064 27.0318 19.5461 27.0318 20.2459C27.0318 20.9475 27.9519 21.428 28.8809 21.428C29.5802 21.428 30.0878 21.223 30.584 20.9195L30.5849 22.8193Z" fill="white" style="fill:white;fill-opacity:1;"/>
<path fill-rule="evenodd" clip-rule="evenodd" d="M19.345 19.8068H20.5999C21.0849 19.8068 21.2748 19.5911 21.2748 19.2604C21.2748 18.8815 21.0831 18.6923 20.6349 18.6923H19.3448L19.345 19.8068ZM19.345 21.9542H20.6587C21.151 21.9542 21.3188 21.7304 21.3188 21.3999C21.3188 21.0693 21.1493 20.8317 20.6643 20.8317H19.3448L19.345 21.9542ZM16.8254 17.3661H21.9186C23.2416 17.3661 23.6752 17.9308 23.6752 18.8098C23.6752 19.7938 22.874 20.2213 22.051 20.2696V20.2858C22.896 20.3585 23.7193 20.4632 23.7193 21.6246C23.7193 22.3829 23.2857 23.125 21.8304 23.125H16.8254V17.3661Z" fill="white" style="fill:white;fill-opacity:1;"/>
</svg>
