<svg width="40" height="30" viewBox="0 0 40 30" fill="none" xmlns="http://www.w3.org/2000/svg">
<rect width="40" height="30" rx="5" fill="#FFA8CD" style="fill:#FFA8CD;fill:color(display-p3 1.0000 0.6588 0.8039);fill-opacity:1;"/>
<path d="M33.4416 17.5953C32.6742 17.5953 32.0761 16.9607 32.0761 16.1901C32.0761 15.4195 32.6742 14.7849 33.4416 14.7849C34.209 14.7849 34.8071 15.4195 34.8071 16.1901C34.8071 16.9607 34.209 17.5953 33.4416 17.5953ZM33.0578 19.0798C33.7124 19.0798 34.5476 18.8305 35.0105 17.8559L35.0555 17.8786C34.8524 18.4112 34.8524 18.7285 34.8524 18.8079V18.9325H36.5V13.4477H34.8524V13.5724C34.8524 13.6517 34.8524 13.969 35.0555 14.5016L35.0105 14.5243C34.5476 13.5497 33.7124 13.3004 33.0578 13.3004C31.4892 13.3004 30.3832 14.547 30.3832 16.1901C30.3832 17.8333 31.4892 19.0798 33.0578 19.0798ZM27.5165 13.3004C26.7716 13.3004 26.1847 13.5611 25.7108 14.5243L25.6656 14.5016C25.8688 13.969 25.8688 13.6517 25.8688 13.5724V13.4477H24.221V18.9325H25.9139V16.0428C25.9139 15.2836 26.3541 14.8076 27.0651 14.8076C27.7761 14.8076 28.1259 15.2155 28.1259 16.0315V18.9325H29.8188V15.4422C29.8188 14.1957 28.8481 13.3004 27.5165 13.3004ZM21.772 14.5243L21.7268 14.5016C21.9299 13.969 21.9299 13.6517 21.9299 13.5724V13.4477H20.2822V18.9325H21.9751L21.9864 16.2921C21.9864 15.5215 22.3927 15.0569 23.0586 15.0569C23.2391 15.0569 23.3859 15.0796 23.5551 15.1249V13.4477C22.8103 13.2891 22.1444 13.5724 21.772 14.5243ZM16.3886 17.5953C15.6211 17.5953 15.023 16.9607 15.023 16.1901C15.023 15.4195 15.6211 14.7849 16.3886 14.7849C17.156 14.7849 17.7542 15.4195 17.7542 16.1901C17.7542 16.9607 17.156 17.5953 16.3886 17.5953ZM16.0048 19.0798C16.6594 19.0798 17.4946 18.8305 17.9573 17.8559L18.0024 17.8786C17.7993 18.4112 17.7993 18.7285 17.7993 18.8079V18.9325H19.447V13.4477H17.7993V13.5724C17.7993 13.6517 17.7993 13.969 18.0024 14.5016L17.9573 14.5243C17.4946 13.5497 16.6594 13.3004 16.0048 13.3004C14.4361 13.3004 13.3301 14.547 13.3301 16.1901C13.3301 17.8333 14.4361 19.0798 16.0048 19.0798ZM10.9713 18.9325H12.6642V11H10.9713V18.9325ZM9.72985 11H8.00308C8.00308 12.4165 7.13407 13.6857 5.81362 14.5923L5.29445 14.9549V11H3.5V18.9325H5.29445V15.0002L8.26266 18.9325H10.4522L7.5968 15.1702C8.89467 14.2297 9.74113 12.7678 9.72985 11Z" fill="#0B051D" style="fill:#0B051D;fill:color(display-p3 0.0431 0.0196 0.1137);fill-opacity:1;"/>
</svg>
