<svg width="56" height="42" viewBox="0 0 56 42" fill="none" xmlns="http://www.w3.org/2000/svg">
<rect width="56" height="42" rx="7" fill="black" style="fill:black;fill-opacity:1;"/>
<path d="M22.75 29.75C27.5824 29.75 31.5 25.8325 31.5 21C31.5 16.1675 27.5824 12.25 22.75 12.25C17.9175 12.25 14 16.1675 14 21C14 25.8325 17.9175 29.75 22.75 29.75Z" fill="#E7001A" style="fill:#E7001A;fill:color(display-p3 0.9059 0.0000 0.1020);fill-opacity:1;"/>
<path d="M33.25 29.75C38.0824 29.75 42 25.8325 42 21C42 16.1675 38.0824 12.25 33.25 12.25C28.4175 12.25 24.5 16.1675 24.5 21C24.5 25.8325 28.4175 29.75 33.25 29.75Z" fill="#00A2E1" style="fill:#00A2E1;fill:color(display-p3 0.0000 0.6353 0.8824);fill-opacity:1;"/>
<path opacity="0.3" fill-rule="evenodd" clip-rule="evenodd" d="M28 13.9993C30.1253 15.5957 31.5 18.1373 31.5 20.9999C31.5 23.8626 30.1253 26.4042 28 28.0006C25.8747 26.4042 24.5 23.8626 24.5 20.9999C24.5 18.1373 25.8747 15.5957 28 13.9993Z" fill="#E7001A" style="fill:#E7001A;fill:color(display-p3 0.9059 0.0000 0.1020);fill-opacity:1;"/>
</svg>
