<svg width="32" height="24" viewBox="0 0 32 24" fill="none" xmlns="http://www.w3.org/2000/svg">
<rect width="32" height="24" rx="4" fill="black" style="fill:black;fill-opacity:1;"/>
<path d="M13 17C15.7614 17 18 14.7614 18 12C18 9.23858 15.7614 7 13 7C10.2386 7 8 9.23858 8 12C8 14.7614 10.2386 17 13 17Z" fill="#E7001A" style="fill:#E7001A;fill:color(display-p3 0.9059 0.0000 0.1020);fill-opacity:1;"/>
<path d="M19 17C21.7614 17 24 14.7614 24 12C24 9.23858 21.7614 7 19 7C16.2386 7 14 9.23858 14 12C14 14.7614 16.2386 17 19 17Z" fill="#F49B1C" style="fill:#F49B1C;fill:color(display-p3 0.9569 0.6078 0.1098);fill-opacity:1;"/>
<path opacity="0.3" fill-rule="evenodd" clip-rule="evenodd" d="M16 7.99963C17.2144 8.91184 18 10.3642 18 12C18 13.6358 17.2144 15.0881 16 16.0004C14.7855 15.0881 14 13.6358 14 12C14 10.3642 14.7855 8.91184 16 7.99963Z" fill="#E7001A" style="fill:#E7001A;fill:color(display-p3 0.9059 0.0000 0.1020);fill-opacity:1;"/>
</svg>
