<svg width="40" height="40" viewBox="0 0 40 40" fill="none" xmlns="http://www.w3.org/2000/svg">
<rect width="40" height="40" rx="10" fill="black" style="fill:black;fill-opacity:1;"/>
<rect x="0.5" y="0.5" width="39" height="39" rx="9.5" stroke="white" stroke-opacity="0.1" style="stroke:white;stroke-opacity:0.1;"/>
<path fill-rule="evenodd" clip-rule="evenodd" d="M15.0974 27.5C19.1421 27.5 22.5 24.1421 22.5 20.0974C22.5 15.8579 19.1421 12.5 15.0974 12.5C10.8579 12.5 7.5 15.8579 7.5 20.0974C7.5 24.1421 10.8579 27.5 15.0974 27.5Z" fill="#E7001A" style="fill:#E7001A;fill:color(display-p3 0.9059 0.0000 0.1020);fill-opacity:1;"/>
<path fill-rule="evenodd" clip-rule="evenodd" d="M25.0974 27.5C29.1421 27.5 32.5 24.1421 32.5 20.0974C32.5 15.8579 29.1421 12.5 25.0974 12.5C20.8579 12.5 17.5 15.8579 17.5 20.0974C17.5 24.1421 20.8579 27.5 25.0974 27.5Z" fill="#F49B1C" style="fill:#F49B1C;fill:color(display-p3 0.9569 0.6078 0.1098);fill-opacity:1;"/>
<path opacity="0.3" fill-rule="evenodd" clip-rule="evenodd" d="M20.015 14.4194C18.4656 15.804 17.5 17.8239 17.5 20.0974C17.5 22.2664 18.4656 24.2379 20.015 25.6C21.5344 24.2379 22.5 22.2664 22.5 20.0974C22.5 17.8239 21.5344 15.804 20.015 14.4194Z" fill="#E7001A" style="fill:#E7001A;fill:color(display-p3 0.9059 0.0000 0.1020);fill-opacity:1;"/>
</svg>
