<svg width="24" height="24" viewBox="0 0 24 24" fill="none" xmlns="http://www.w3.org/2000/svg">
<rect width="24" height="24" rx="6" fill="white" style="fill:white;fill-opacity:1;"/>
<path fill-rule="evenodd" clip-rule="evenodd" d="M11.9597 18.8838H18.1563C19.5703 18.8838 19.5851 17.3803 19.4406 16.6384C19.362 16.1392 18.514 16.1471 18.4206 16.6384V17.2172C18.4204 17.3448 18.3696 17.4672 18.2793 17.5574C18.1891 17.6476 18.0668 17.6985 17.9391 17.6987H6.06086C5.93324 17.6985 5.81092 17.6476 5.72068 17.5574C5.63043 17.4672 5.57962 17.3448 5.57936 17.2172V16.6384C5.48601 16.1471 4.63798 16.1392 4.55937 16.6384C4.41492 17.3803 4.42966 18.8838 5.8437 18.8838H11.9597ZM7.58004 4.4801H17.1334C17.8045 4.4801 18.3538 5.06183 18.3538 5.77229V6.38939C18.3538 7.26199 17.1746 7.25806 17.1746 6.39529V6.05922C17.1746 5.95498 17.1332 5.855 17.0595 5.78129C16.9858 5.70757 16.8858 5.66616 16.7816 5.66616H7.2086C7.10435 5.66616 7.00437 5.70757 6.93066 5.78129C6.85695 5.855 6.81554 5.95498 6.81554 6.05922V6.38939C6.81554 7.25707 5.68942 7.25118 5.68942 6.40806V5.77327C5.69237 5.06281 6.24069 4.4801 6.91184 4.4801H7.58004Z" fill="#FF0000" style="fill:#FF0000;fill:color(display-p3 1.0000 0.0000 0.0000);fill-opacity:1;"/>
<path fill-rule="evenodd" clip-rule="evenodd" d="M18.1131 11.5758C18.4411 11.7223 18.7206 11.9593 18.9186 12.259C19.1167 12.5588 19.2252 12.9087 19.2313 13.2679C19.2313 14.3076 18.3234 15.1586 17.214 15.1586H14.1019C13.9669 15.1626 13.8358 15.1133 13.7368 15.0213C13.6379 14.9294 13.5791 14.8022 13.5732 14.6672V8.74382C13.5738 8.60621 13.6287 8.47439 13.7261 8.37717C13.8235 8.27995 13.9554 8.22524 14.0931 8.22498H16.6843C17.0728 8.22408 17.453 8.33761 17.7774 8.55141C18.1018 8.76521 18.3561 9.06981 18.5085 9.4272C18.6609 9.78459 18.7046 10.1789 18.6343 10.561C18.564 10.9432 18.3827 11.2961 18.1131 11.5758ZM15.7911 11.0943H16.7786V11.0835C17.0003 11.0487 17.2023 10.9362 17.3485 10.766C17.4947 10.5959 17.5755 10.3792 17.5766 10.1549C17.5758 9.906 17.4766 9.66751 17.3006 9.4915C17.1245 9.31549 16.8861 9.21627 16.6371 9.21549H14.6473V14.1287H17.1697C17.2998 14.1329 17.4293 14.1108 17.5506 14.0639C17.672 14.017 17.7827 13.9462 17.8761 13.8557C17.9696 13.7652 18.0439 13.6568 18.0946 13.537C18.1453 13.4172 18.1715 13.2885 18.1715 13.1584C18.1715 13.0283 18.1453 12.8995 18.0946 12.7797C18.0439 12.6599 17.9696 12.5516 17.8761 12.461C17.7827 12.3705 17.672 12.2997 17.5506 12.2528C17.4293 12.2059 17.2998 12.1839 17.1697 12.188H16.7767H15.7911C15.7195 12.188 15.6485 12.1739 15.5824 12.1465C15.5162 12.1191 15.4561 12.0789 15.4054 12.0283C15.3548 11.9776 15.3146 11.9175 15.2872 11.8513C15.2598 11.7852 15.2457 11.7143 15.2457 11.6426C15.2457 11.571 15.2598 11.5001 15.2872 11.4339C15.3146 11.3678 15.3548 11.3076 15.4054 11.257C15.4561 11.2064 15.5162 11.1662 15.5824 11.1388C15.6485 11.1114 15.7195 11.0973 15.7911 11.0973" fill="#1D1D1B" style="fill:#1D1D1B;fill:color(display-p3 0.1137 0.1137 0.1059);fill-opacity:1;"/>
<path d="M13.0788 14.568C13.0908 14.6512 13.086 14.736 13.0645 14.8173C13.043 14.8985 13.0053 14.9746 12.9537 15.041C12.9021 15.1074 12.8376 15.1627 12.7642 15.2035C12.6907 15.2444 12.6098 15.2701 12.5262 15.2789C12.4426 15.2878 12.358 15.2797 12.2776 15.2551C12.1972 15.2306 12.1226 15.19 12.0583 15.1359C11.9939 15.0819 11.9411 15.0153 11.903 14.9404C11.865 14.8654 11.8424 14.7836 11.8367 14.6997L11.3228 9.99181L9.51376 14.5955V14.6073V14.6171V14.627V14.6329V14.6417V14.6515C9.47409 14.7209 9.42097 14.7817 9.35752 14.8304L9.34769 14.8382C9.31479 14.8679 9.27851 14.8937 9.2396 14.9149L9.22781 14.9208L9.217 14.9267H9.21012H9.20226H9.19538H9.18752H9.18162H9.17475H9.16885H9.16295H9.15509C9.09635 14.9477 9.03467 14.9593 8.97232 14.9611H8.92712C8.85704 14.9591 8.78786 14.9448 8.72273 14.9188H8.71388H8.70504H8.69718H8.69128H8.68342H8.67654H8.67163L8.66082 14.9129L8.65099 14.907H8.6451C8.61022 14.8884 8.5773 14.8664 8.54683 14.8412L8.5262 14.8225L8.51047 14.8078L8.47313 14.7979L8.45446 14.7773C8.42928 14.7468 8.40722 14.7139 8.38863 14.679V14.6732L8.38273 14.6633L8.37683 14.6525V14.6456V14.6378V14.6319V14.623V14.6152V14.6063L6.53436 9.99181L6.0224 14.6997C6.00494 14.8643 5.92282 15.0152 5.7941 15.1192C5.66538 15.2232 5.5006 15.2719 5.33602 15.2544C5.17144 15.2369 5.02054 15.1548 4.91652 15.0261C4.81249 14.8974 4.76386 14.7326 4.78132 14.568L5.38466 9.018C5.39923 8.88729 5.43859 8.76056 5.50062 8.64459C5.57803 8.4997 5.68881 8.37531 5.82379 8.28167C5.95877 8.18804 6.11408 8.12786 6.27691 8.1061H6.31032C6.36298 8.10219 6.41586 8.10219 6.46853 8.1061C6.53208 8.10863 6.59526 8.11718 6.6572 8.13165C6.8202 8.16898 6.97159 8.24562 7.09817 8.3549C7.22475 8.46418 7.32266 8.60277 7.38337 8.75858L8.93007 12.6676L10.4738 8.74581C10.5464 8.55992 10.6716 8.39921 10.8341 8.28333C10.9965 8.16745 11.1893 8.10142 11.3887 8.09333C11.4413 8.08942 11.4942 8.08942 11.5469 8.09333H11.5803C11.7431 8.11524 11.8983 8.17548 12.0333 8.2691C12.1682 8.36271 12.279 8.48703 12.3566 8.63182C12.3867 8.68991 12.412 8.75039 12.4322 8.81263C12.4521 8.87665 12.4656 8.94248 12.4725 9.00916L13.0788 14.568Z" fill="#1D1D1B" style="fill:#1D1D1B;fill:color(display-p3 0.1137 0.1137 0.1059);fill-opacity:1;"/>
</svg>
