<svg width="40" height="40" viewBox="0 0 40 40" fill="none" xmlns="http://www.w3.org/2000/svg">
<rect width="40" height="40" rx="10" fill="white" style="fill:white;fill-opacity:1;"/>
<path fill-rule="evenodd" clip-rule="evenodd" d="M19.9409 27.0857H29.0292C31.1032 27.0857 31.1248 24.8806 30.9129 23.7925C30.7976 23.0603 29.5539 23.0719 29.4169 23.7925V24.6414C29.4166 24.8285 29.342 25.0079 29.2097 25.1403C29.0773 25.2727 28.8979 25.3472 28.7107 25.3476H11.2893C11.1021 25.3472 10.9227 25.2727 10.7903 25.1403C10.658 25.0079 10.5834 24.8285 10.5831 24.6414V23.7925C10.4461 23.0719 9.20238 23.0603 9.08708 23.7925C8.87522 24.8806 8.89684 27.0857 10.9708 27.0857H19.9409ZM13.5174 5.96027H27.5289C28.5133 5.96027 29.3189 6.81347 29.3189 7.85547V8.76056C29.3189 10.0404 27.5895 10.0346 27.5895 8.76921V8.27631C27.5895 8.12341 27.5287 7.97678 27.4206 7.86867C27.3125 7.76056 27.1659 7.69982 27.013 7.69982H12.9726C12.8197 7.69982 12.6731 7.76056 12.565 7.86867C12.4569 7.97678 12.3961 8.12341 12.3961 8.27631V8.76056C12.3961 10.0332 10.7445 10.0245 10.7445 8.78794V7.85691C10.7488 6.81491 11.553 5.96027 12.5374 5.96027H13.5174Z" fill="#3D73B9" style="fill:#3D73B9;fill:color(display-p3 0.2392 0.4510 0.7255);fill-opacity:1;"/>
<path fill-rule="evenodd" clip-rule="evenodd" d="M28.9658 16.3673C29.4469 16.5822 29.8568 16.9298 30.1473 17.3694C30.4378 17.809 30.5969 18.3223 30.6059 18.8491C30.6059 20.3739 29.2742 21.622 27.6471 21.622H23.0827C22.8847 21.6279 22.6924 21.5556 22.5473 21.4207C22.4022 21.2859 22.316 21.0993 22.3074 20.9014V12.2137C22.3081 12.0119 22.3887 11.8186 22.5316 11.676C22.6745 11.5334 22.8679 11.4531 23.0698 11.4528H26.8703C27.4401 11.4514 27.9977 11.618 28.4735 11.9315C28.9493 12.2451 29.3222 12.6918 29.5457 13.216C29.7692 13.7402 29.8334 14.3186 29.7303 14.879C29.6272 15.4394 29.3613 15.9571 28.9658 16.3673ZM25.5602 15.6611H27.0086V15.6453C27.3337 15.5943 27.63 15.4292 27.8444 15.1796C28.0588 14.9301 28.1774 14.6123 28.1789 14.2833C28.1778 13.9183 28.0322 13.5685 27.7741 13.3103C27.516 13.0522 27.1662 12.9067 26.8011 12.9055H23.8826V20.1116H27.5822C27.7729 20.1177 27.9629 20.0854 28.1409 20.0166C28.3189 19.9478 28.4812 19.8439 28.6183 19.7112C28.7553 19.5784 28.8643 19.4195 28.9387 19.2438C29.0131 19.0681 29.0515 18.8792 29.0515 18.6884C29.0515 18.4976 29.0131 18.3088 28.9387 18.1331C28.8643 17.9574 28.7553 17.7984 28.6183 17.6657C28.4812 17.5329 28.3189 17.429 28.1409 17.3603C27.9629 17.2915 27.7729 17.2591 27.5822 17.2652H27.0058H25.5602C25.4552 17.2652 25.3512 17.2445 25.2541 17.2043C25.1571 17.1641 25.0689 17.1052 24.9946 17.0309C24.9203 16.9567 24.8614 16.8685 24.8212 16.7714C24.781 16.6744 24.7603 16.5704 24.7603 16.4653C24.7603 16.3603 24.781 16.2563 24.8212 16.1592C24.8614 16.0622 24.9203 15.974 24.9946 15.8997C25.0689 15.8255 25.1571 15.7665 25.2541 15.7263C25.3512 15.6861 25.4552 15.6655 25.5602 15.6655" fill="#1D1D1B" style="fill:#1D1D1B;fill:color(display-p3 0.1137 0.1137 0.1059);fill-opacity:1;"/>
<path d="M21.5825 20.7558C21.6001 20.8778 21.593 21.0022 21.5614 21.1214C21.5299 21.2406 21.4747 21.3522 21.399 21.4495C21.3233 21.5469 21.2288 21.628 21.121 21.6879C21.0133 21.7479 20.8946 21.7855 20.7719 21.7985C20.6493 21.8115 20.5254 21.7996 20.4074 21.7636C20.2895 21.7275 20.1801 21.6681 20.0857 21.5888C19.9913 21.5095 19.9138 21.4119 19.858 21.302C19.8022 21.192 19.7691 21.072 19.7608 20.9489L19.007 14.044L16.3537 20.7962V20.8135V20.8279V20.8423V20.8509V20.8639V20.8783C16.2956 20.9801 16.2177 21.0693 16.1246 21.1406L16.1102 21.1522C16.0619 21.1957 16.0087 21.2334 15.9516 21.2646L15.9343 21.2732L15.9185 21.2819H15.9084H15.8969H15.8868H15.8753H15.8666H15.8565H15.8479H15.8392H15.8277C15.7415 21.3126 15.6511 21.3297 15.5596 21.3323H15.4933C15.3906 21.3294 15.2891 21.3084 15.1936 21.2703H15.1806H15.1676H15.1561H15.1474H15.1359H15.1258H15.1186L15.1028 21.2617L15.0884 21.253H15.0797C15.0285 21.2258 14.9803 21.1934 14.9356 21.1565L14.9053 21.1291L14.8823 21.1075L14.8275 21.0931L14.8001 21.0628C14.7632 21.0181 14.7308 20.9698 14.7035 20.9187V20.91L14.6949 20.8956L14.6863 20.8798V20.8697V20.8581V20.8495V20.8365V20.825V20.812L11.984 14.044L11.2331 20.9489C11.2075 21.1903 11.087 21.4116 10.8982 21.5642C10.7094 21.7168 10.4678 21.7881 10.2264 21.7625C9.98501 21.7369 9.76369 21.6164 9.61112 21.4277C9.45854 21.2389 9.38722 20.9972 9.41283 20.7558L10.2977 12.6158C10.3191 12.4241 10.3768 12.2382 10.4678 12.0681C10.5813 11.8556 10.7438 11.6732 10.9418 11.5359C11.1398 11.3985 11.3675 11.3103 11.6064 11.2783H11.6554C11.7326 11.2726 11.8102 11.2726 11.8874 11.2783C11.9806 11.2821 12.0733 11.2946 12.1641 11.3158C12.4032 11.3706 12.6252 11.483 12.8109 11.6433C12.9965 11.8035 13.1401 12.0068 13.2292 12.2353L15.4977 17.9685L17.7618 12.2166C17.8683 11.9439 18.0519 11.7082 18.2902 11.5383C18.5285 11.3683 18.8111 11.2715 19.1036 11.2596C19.1808 11.2539 19.2584 11.2539 19.3356 11.2596H19.3846C19.6234 11.2918 19.8511 11.3801 20.049 11.5174C20.2469 11.6547 20.4095 11.837 20.5232 12.0494C20.5674 12.1346 20.6045 12.2233 20.6342 12.3146C20.6633 12.4085 20.6831 12.505 20.6933 12.6028L21.5825 20.7558Z" fill="#1D1D1B" style="fill:#1D1D1B;fill:color(display-p3 0.1137 0.1137 0.1059);fill-opacity:1;"/>
<path d="M12.6003 31.0896C12.6003 31.0055 12.6337 30.9248 12.6932 30.8653C12.7527 30.8059 12.8333 30.7724 12.9174 30.7724C13.0016 30.7724 13.0822 30.8059 13.1417 30.8653C13.2012 30.9248 13.2346 31.0055 13.2346 31.0896V32.8022C13.2341 33.1788 13.0844 33.5398 12.8183 33.8062C12.5522 34.0727 12.1914 34.2228 11.8149 34.2238C11.4383 34.2233 11.0773 34.0737 10.8108 33.8076C10.5444 33.5415 10.3943 33.1807 10.3933 32.8041V31.0915C10.3899 31.0479 10.3956 31.0041 10.41 30.9628C10.4244 30.9216 10.4471 30.8837 10.4768 30.8517C10.5065 30.8196 10.5425 30.794 10.5825 30.7765C10.6226 30.759 10.6658 30.75 10.7095 30.75C10.7532 30.75 10.7964 30.759 10.8365 30.7765C10.8765 30.794 10.9125 30.8196 10.9422 30.8517C10.9719 30.8837 10.9946 30.9216 11.009 30.9628C11.0234 31.0041 11.0291 31.0479 11.0257 31.0915V32.8041C11.0277 33.0131 11.1117 33.213 11.2597 33.3606C11.4076 33.5082 11.6077 33.5918 11.8167 33.5932C12.026 33.5923 12.2265 33.5085 12.3743 33.3604C12.5222 33.2122 12.6054 33.0115 12.6059 32.8022L12.6003 31.0896Z" fill="#1D1D1B" style="fill:#1D1D1B;fill:color(display-p3 0.1137 0.1137 0.1059);fill-opacity:1;"/>
<path d="M15.6002 33.5914C15.6843 33.5914 15.765 33.6248 15.8245 33.6843C15.884 33.7437 15.9174 33.8244 15.9174 33.9085C15.9174 33.9926 15.884 34.0733 15.8245 34.1328C15.765 34.1923 15.6843 34.2257 15.6002 34.2257H14.7196C14.4045 34.2257 14.1022 34.1005 13.8793 33.8776C13.6565 33.6547 13.5312 33.3525 13.5312 33.0373V31.0896C13.5312 31.006 13.5645 30.9258 13.6236 30.8666C13.6827 30.8075 13.7629 30.7743 13.8465 30.7743C13.9302 30.7743 14.0104 30.8075 14.0695 30.8666C14.1286 30.9258 14.1618 31.006 14.1618 31.0896V33.0335C14.1618 33.182 14.2208 33.3243 14.3258 33.4293C14.4307 33.5343 14.5731 33.5932 14.7215 33.5932H15.6002V33.5914Z" fill="#1D1D1B" style="fill:#1D1D1B;fill:color(display-p3 0.1137 0.1137 0.1059);fill-opacity:1;"/>
<path d="M10.2701 33.8731C10.2778 33.9157 10.2767 33.9594 10.2669 34.0015C10.2571 34.0437 10.2388 34.0834 10.213 34.1182C10.1873 34.153 10.1547 34.1821 10.1173 34.2039C10.0799 34.2256 10.0384 34.2395 9.99542 34.2446C9.95244 34.2497 9.90887 34.2459 9.86739 34.2335C9.82592 34.2212 9.78741 34.2004 9.75425 34.1726C9.72109 34.1448 9.69397 34.1105 9.67456 34.0718C9.65515 34.0332 9.64386 33.9909 9.6414 33.9477L9.37088 31.6661L8.40263 33.9048C8.36939 33.9819 8.30693 34.0427 8.22894 34.0738C8.15095 34.1049 8.0638 34.1039 7.9866 34.0708C7.91242 34.0389 7.85355 33.9793 7.82242 33.9048L6.85417 31.6661L6.58179 33.9477C6.57932 33.9909 6.56804 34.0332 6.54863 34.0718C6.52922 34.1105 6.5021 34.1448 6.46894 34.1726C6.43577 34.2004 6.39727 34.2212 6.35579 34.2335C6.31432 34.2459 6.27075 34.2497 6.22777 34.2446C6.18479 34.2395 6.14331 34.2256 6.10588 34.2039C6.06846 34.1821 6.03587 34.153 6.01014 34.1182C5.98441 34.0834 5.96607 34.0437 5.95626 34.0015C5.94644 33.9594 5.94536 33.9157 5.95308 33.8731L6.2721 31.2239C6.28234 31.1404 6.31308 31.0608 6.36158 30.9921C6.41009 30.9234 6.47485 30.8678 6.55008 30.8303C6.5699 30.8195 6.59047 30.8101 6.61164 30.8023H6.63589C6.66607 30.7918 6.69738 30.7849 6.72917 30.7817C6.80864 30.7707 6.88957 30.7775 6.96606 30.8017C7.04255 30.8259 7.11268 30.8669 7.17132 30.9217C7.19486 30.9437 7.21611 30.9681 7.23476 30.9944C7.24852 31.0135 7.26099 31.0334 7.27207 31.0541C7.27901 31.0656 7.28524 31.0774 7.29072 31.0896L8.11159 32.9925L8.93246 31.0747C8.96619 30.9985 9.01766 30.9314 9.08257 30.8792C9.14748 30.8269 9.22394 30.791 9.30559 30.7743C9.33637 30.768 9.36753 30.7636 9.39887 30.7612H9.49588C9.57663 30.7703 9.65424 30.7977 9.72278 30.8414C9.79133 30.885 9.84899 30.9438 9.89139 31.0131C9.90906 31.0419 9.92346 31.0725 9.9343 31.1045C9.94209 31.1244 9.94772 31.145 9.95109 31.1661C9.95197 31.1797 9.95197 31.1934 9.95109 31.2071L10.2701 33.8731Z" fill="#1D1D1B" style="fill:#1D1D1B;fill:color(display-p3 0.1137 0.1137 0.1059);fill-opacity:1;"/>
<path d="M16.9807 33.9086C16.9807 33.9927 16.9473 34.0733 16.8878 34.1328C16.8284 34.1923 16.7477 34.2257 16.6636 34.2257C16.5795 34.2257 16.4988 34.1923 16.4393 34.1328C16.3798 34.0733 16.3464 33.9927 16.3464 33.9086V31.4068H15.4453C15.3612 31.4068 15.2805 31.3734 15.2211 31.3139C15.1616 31.2544 15.1282 31.1737 15.1282 31.0896C15.1282 31.0055 15.1616 30.9248 15.2211 30.8654C15.2805 30.8059 15.3612 30.7725 15.4453 30.7725H17.8818C17.9659 30.7725 18.0466 30.8059 18.1061 30.8654C18.1656 30.9248 18.199 31.0055 18.199 31.0896C18.199 31.1737 18.1656 31.2544 18.1061 31.3139C18.0466 31.3734 17.9659 31.4068 17.8818 31.4068H16.9807V33.9086Z" fill="#1D1D1B" style="fill:#1D1D1B;fill:color(display-p3 0.1137 0.1137 0.1059);fill-opacity:1;"/>
<path d="M18.9583 33.9086C18.9583 33.9927 18.9249 34.0733 18.8654 34.1328C18.8059 34.1923 18.7252 34.2257 18.6411 34.2257C18.557 34.2257 18.4763 34.1923 18.4169 34.1328C18.3574 34.0733 18.324 33.9927 18.324 33.9086V31.0896C18.324 31.0055 18.3574 30.9248 18.4169 30.8654C18.4763 30.8059 18.557 30.7725 18.6411 30.7725C18.7252 30.7725 18.8059 30.8059 18.8654 30.8654C18.9249 30.9248 18.9583 31.0055 18.9583 31.0896V33.9086Z" fill="#1D1D1B" style="fill:#1D1D1B;fill:color(display-p3 0.1137 0.1137 0.1059);fill-opacity:1;"/>
<path d="M25.4525 33.8731C25.4578 33.954 25.432 34.0339 25.3802 34.0963C25.3285 34.1588 25.2548 34.1991 25.1743 34.2088C25.0938 34.2186 25.0126 34.1972 24.9474 34.149C24.8822 34.1008 24.838 34.0294 24.8238 33.9496L24.7118 33.0541H23.6223C23.5787 33.0574 23.535 33.0517 23.4937 33.0374C23.4524 33.023 23.4146 33.0003 23.3825 32.9706C23.3504 32.9409 23.3249 32.9049 23.3074 32.8648C23.2899 32.8248 23.2808 32.7816 23.2808 32.7379C23.2808 32.6942 23.2899 32.6509 23.3074 32.6109C23.3249 32.5709 23.3504 32.5349 23.3825 32.5052C23.4146 32.4755 23.4524 32.4527 23.4937 32.4384C23.535 32.424 23.5787 32.4183 23.6223 32.4216H24.6409L24.6111 32.1884C24.6111 32.1884 24.6111 32.1735 24.6111 32.1661C24.6028 32.1112 24.591 32.057 24.5756 32.0037C24.5586 31.9467 24.5367 31.8911 24.5103 31.8377C24.4549 31.713 24.3651 31.6066 24.2514 31.531C24.1378 31.4553 24.005 31.4136 23.8686 31.4105C23.8146 31.4109 23.7608 31.4171 23.7081 31.4291C23.6589 31.4414 23.6113 31.4596 23.5663 31.4832C23.4409 31.5558 23.3351 31.6581 23.2584 31.781C23.1816 31.904 23.1362 32.0439 23.1261 32.1884L22.9283 33.9496C22.9238 33.9907 22.9112 34.0306 22.8912 34.0669C22.8713 34.1032 22.8444 34.1352 22.8121 34.1611C22.7798 34.187 22.7427 34.2063 22.7029 34.2178C22.6632 34.2294 22.6215 34.233 22.5804 34.2285C22.5392 34.224 22.4993 34.2114 22.463 34.1914C22.4268 34.1715 22.3947 34.1446 22.3688 34.1123C22.343 34.08 22.3237 34.0429 22.3121 34.0031C22.3005 33.9634 22.2969 33.9217 22.3015 33.8806L22.4992 32.1194C22.5202 31.8702 22.6026 31.63 22.739 31.4204C22.8754 31.2107 23.0616 31.0381 23.2809 30.918C23.37 30.8732 23.4639 30.8388 23.5607 30.8154C23.6617 30.7919 23.7649 30.78 23.8686 30.7799C24.1227 30.7813 24.3711 30.8553 24.5846 30.9931C24.7981 31.1309 24.9678 31.3269 25.0738 31.5579C25.117 31.6444 25.1532 31.7342 25.182 31.8265C25.2063 31.9115 25.2244 31.9982 25.2361 32.0858C25.2378 32.0951 25.2378 32.1046 25.2361 32.1138L25.4525 33.8731Z" fill="#1D1D1B" style="fill:#1D1D1B;fill:color(display-p3 0.1137 0.1137 0.1059);fill-opacity:1;"/>
<path d="M26.4207 33.9086C26.4241 33.9521 26.4184 33.9959 26.404 34.0372C26.3897 34.0784 26.3669 34.1163 26.3372 34.1484C26.3075 34.1804 26.2715 34.206 26.2315 34.2235C26.1914 34.241 26.1482 34.25 26.1045 34.25C26.0608 34.25 26.0176 34.241 25.9776 34.2235C25.9375 34.206 25.9015 34.1804 25.8718 34.1484C25.8421 34.1163 25.8194 34.0784 25.805 34.0372C25.7906 33.9959 25.785 33.9521 25.7883 33.9086V31.2967C25.7864 31.2787 25.7864 31.2606 25.7883 31.2426C25.7924 31.2076 25.8005 31.1731 25.8126 31.14L25.8387 31.084C25.8933 30.987 25.9815 30.9133 26.0868 30.8769L26.1297 30.8657H26.1633H26.2379H26.2472C26.312 30.8685 26.3754 30.8852 26.4331 30.9149C26.4907 30.9445 26.5413 30.9863 26.5812 31.0374L28.2602 33.1884V31.0896C28.2602 31.0055 28.2937 30.9248 28.3531 30.8654C28.4126 30.8059 28.4933 30.7725 28.5774 30.7725C28.6615 30.7725 28.7422 30.8059 28.8017 30.8654C28.8611 30.9248 28.8945 31.0055 28.8945 31.0896V33.7015C28.8942 33.7677 28.8792 33.8331 28.8505 33.8928C28.8218 33.9525 28.7801 34.005 28.7285 34.0466C28.7083 34.0636 28.6864 34.0786 28.6632 34.0914C28.6507 34.0987 28.6376 34.105 28.624 34.11L28.5979 34.1212C28.4867 34.1601 28.3646 34.1534 28.2584 34.1026L28.2173 34.0821C28.1952 34.0681 28.1745 34.0518 28.1558 34.0336C28.1412 34.0208 28.1274 34.0071 28.1147 33.9925L28.1035 33.9794L26.4207 31.8209V33.9086Z" fill="#1D1D1B" style="fill:#1D1D1B;fill:color(display-p3 0.1137 0.1137 0.1059);fill-opacity:1;"/>
<path d="M31.3684 33.5914C31.4525 33.5914 31.5332 33.6248 31.5927 33.6843C31.6521 33.7438 31.6856 33.8244 31.6856 33.9086C31.6856 33.9927 31.6521 34.0733 31.5927 34.1328C31.5332 34.1923 31.4525 34.2257 31.3684 34.2257H30.4356C30.1046 34.2257 29.7871 34.0942 29.5531 33.8601C29.319 33.6261 29.1875 33.3086 29.1875 32.9776V32.0243C29.1885 31.6936 29.3203 31.3767 29.5541 31.1428C29.788 30.909 30.1049 30.7772 30.4356 30.7762H31.3684C31.4525 30.7762 31.5332 30.8096 31.5927 30.8691C31.6521 30.9286 31.6856 31.0092 31.6856 31.0933C31.6856 31.1775 31.6521 31.2581 31.5927 31.3176C31.5332 31.3771 31.4525 31.4105 31.3684 31.4105H30.4356C30.2711 31.4124 30.1141 31.4795 29.999 31.5971C29.9407 31.6535 29.8941 31.721 29.8621 31.7956C29.83 31.8703 29.8132 31.9505 29.8125 32.0317V32.9851C29.8135 33.1485 29.8788 33.305 29.9944 33.4206C30.11 33.5362 30.2665 33.6016 30.43 33.6026H31.3628L31.3684 33.5914Z" fill="#1D1D1B" style="fill:#1D1D1B;fill:color(display-p3 0.1137 0.1137 0.1059);fill-opacity:1;"/>
<path d="M33.2023 31.4049C32.9793 31.404 32.7646 31.4896 32.6034 31.6437C32.5269 31.7156 32.4658 31.8023 32.4238 31.8985C32.3818 31.9947 32.3598 32.0984 32.359 32.2034V32.7948C32.3594 32.8996 32.3811 33.0033 32.4228 33.0995C32.4645 33.1957 32.5253 33.2825 32.6015 33.3545C32.7627 33.5086 32.9774 33.5941 33.2004 33.5933C33.4234 33.5941 33.638 33.5086 33.7993 33.3545C33.8757 33.2826 33.9368 33.1959 33.9788 33.0997C34.0208 33.0035 34.0429 32.8998 34.0437 32.7948V32.2034C34.0428 32.0986 34.0209 31.9951 33.9792 31.8989C33.9376 31.8028 33.877 31.716 33.8011 31.6437C33.6389 31.49 33.4239 31.4045 33.2004 31.4049M33.2004 30.7725C33.5867 30.7711 33.9586 30.9195 34.2377 31.1866C34.3756 31.3174 34.4856 31.4747 34.5609 31.6491C34.6363 31.8236 34.6755 32.0115 34.6761 32.2015V32.7929C34.6755 32.983 34.6363 33.1709 34.5609 33.3453C34.4856 33.5198 34.3756 33.6771 34.2377 33.8078C33.9586 34.0749 33.5867 34.2234 33.2004 34.222C32.8141 34.2234 32.4422 34.0749 32.1631 33.8078C32.0258 33.6767 31.9163 33.5193 31.8413 33.3449C31.7663 33.1705 31.7273 32.9828 31.7266 32.7929V32.2015C31.7273 32.0117 31.7663 31.824 31.8413 31.6496C31.9163 31.4752 32.0258 31.3177 32.1631 31.1866C32.4422 30.9195 32.8141 30.7711 33.2004 30.7725Z" fill="#1D1D1B" style="fill:#1D1D1B;fill:color(display-p3 0.1137 0.1137 0.1059);fill-opacity:1;"/>
<path d="M19.8557 31.4067V33.5914H21.0796C21.1319 33.5914 21.1838 33.581 21.2321 33.5609C21.2804 33.5408 21.3243 33.5114 21.3612 33.4743C21.3982 33.4372 21.4274 33.3932 21.4473 33.3448C21.4671 33.2963 21.4772 33.2445 21.477 33.1921C21.4772 33.0926 21.4399 32.9967 21.3725 32.9235L21.3594 32.9123C21.3232 32.8746 21.2797 32.8447 21.2316 32.8242C21.1836 32.8036 21.1319 32.793 21.0796 32.7929H20.658C20.5738 32.7929 20.4932 32.7595 20.4337 32.7C20.3742 32.6405 20.3408 32.5598 20.3408 32.4757C20.3408 32.3916 20.3742 32.3109 20.4337 32.2515C20.4932 32.192 20.5738 32.1586 20.658 32.1586H20.8016C20.8916 32.1506 20.976 32.1117 21.0404 32.0485C21.0759 32.0137 21.1041 31.9722 21.1233 31.9264C21.1425 31.8806 21.1524 31.8314 21.1523 31.7817C21.1523 31.6828 21.113 31.5879 21.0431 31.5179C20.9731 31.4479 20.8782 31.4086 20.7792 31.4086H19.8557V31.4067ZM19.2214 32.4795V31.1026C19.2213 31.0596 19.2302 31.017 19.2476 30.9776C19.2651 30.9369 19.2897 30.8996 19.3203 30.8676C19.3769 30.8135 19.4511 30.7817 19.5293 30.778H20.7699C21.0376 30.778 21.2943 30.8844 21.4836 31.0736C21.6729 31.2629 21.7792 31.5196 21.7792 31.7873C21.7786 31.9773 21.725 32.1634 21.6243 32.3246C21.6918 32.3645 21.7544 32.4121 21.8109 32.4664L21.8314 32.4888C22.0125 32.6796 22.1134 32.9328 22.1131 33.1958C22.1126 33.4688 22.004 33.7305 21.811 33.9235C21.6179 34.1165 21.3563 34.2252 21.0833 34.2257H19.5386C19.4545 34.2257 19.3738 34.1923 19.3143 34.1328C19.2549 34.0733 19.2214 33.9926 19.2214 33.9085V32.4795Z" fill="#1D1D1B" style="fill:#1D1D1B;fill:color(display-p3 0.1137 0.1137 0.1059);fill-opacity:1;"/>
</svg>
