<svg width="32" height="24" viewBox="0 0 32 24" fill="none" xmlns="http://www.w3.org/2000/svg">
<rect x="0.5" y="0.5" width="31" height="23" rx="3.5" fill="white" style="fill:white;fill-opacity:1;"/>
<rect x="0.5" y="0.5" width="31" height="23" rx="3.5" stroke="#ECECF0" style="stroke:#ECECF0;stroke:color(display-p3 0.9255 0.9255 0.9412);stroke-opacity:1;"/>
<path fill-rule="evenodd" clip-rule="evenodd" d="M22.0679 13.6408C22.0679 13.6408 21.3739 13.785 21.3811 13.2822C21.3885 12.7795 22.6455 12.8096 22.7742 12.8503C22.7742 12.8503 22.8139 13.4207 22.0679 13.6408ZM22.2768 10.4696C21.1977 10.4594 20.6931 11.0874 20.6931 11.0874C20.3655 11.439 20.5755 11.9153 20.8969 11.9497C21.3588 11.999 21.354 11.6074 22.0628 11.4337C22.6847 11.2815 22.7116 11.8644 22.7116 11.8644C20.0595 11.7977 20.1861 14.0497 21.0889 14.5281C21.9547 14.9867 22.764 14.4081 22.764 14.4081C22.764 14.4081 22.7944 14.7197 23.2227 14.7197C23.7129 14.7197 23.7122 14.2247 23.7122 14.2247L23.7102 12.0326C23.6779 10.4289 22.2768 10.4696 22.2768 10.4696Z" fill="#204256" style="fill:#204256;fill:color(display-p3 0.1255 0.2588 0.3373);fill-opacity:1;"/>
<path fill-rule="evenodd" clip-rule="evenodd" d="M30.841 13.8347L29.7598 12.1878L30.5545 11.4274C30.5545 11.4274 30.9213 11.0839 30.6201 10.7433C30.2864 10.3662 29.8885 10.7385 29.8885 10.7385L28.89 11.6772V9.79305C28.89 9.52308 28.6738 9.30441 28.4072 9.30441C28.1402 9.30441 27.924 9.52308 27.924 9.79305V14.2266C27.924 14.4965 28.1402 14.7152 28.4072 14.7152C28.6738 14.7152 28.89 14.4965 28.89 14.2266V13.0463L29.0727 12.8616L30.0509 14.413C30.0509 14.413 30.3697 14.9516 30.8393 14.6088C31.1924 14.3511 30.841 13.8347 30.841 13.8347Z" fill="#204256" style="fill:#204256;fill:color(display-p3 0.1255 0.2588 0.3373);fill-opacity:1;"/>
<path fill-rule="evenodd" clip-rule="evenodd" d="M27.3913 12.0328C27.3913 10.4314 26.072 10.2057 25.175 10.7138L25.173 10.7167C25.1055 10.5218 24.9241 10.381 24.7084 10.381C24.4358 10.381 24.2147 10.6048 24.2147 10.8808V14.2199C24.2147 14.496 24.4358 14.7197 24.7084 14.7197C24.9812 14.7197 25.2024 14.496 25.2024 14.2199L25.1955 11.9672C25.1955 11.9672 25.3153 11.8229 25.5076 11.6848C25.9695 11.3535 26.4098 11.4663 26.4098 12.0326L26.4211 14.228C26.4211 14.4999 26.6386 14.7197 26.907 14.7197C27.1753 14.7197 27.3927 14.4999 27.3927 14.228L27.3913 12.0328Z" fill="#204256" style="fill:#204256;fill:color(display-p3 0.1255 0.2588 0.3373);fill-opacity:1;"/>
<path fill-rule="evenodd" clip-rule="evenodd" d="M13.1937 14.7839C13.3068 14.5926 13.3264 14.458 13.3264 14.458L12.2112 11.5081C12.2112 11.5081 12.0089 10.9374 12.4548 10.7683C12.9273 10.589 13.0978 11.0456 13.1333 11.1414C13.1688 11.2371 13.8379 13.0401 13.8379 13.0401L14.4821 11.1455C14.4821 11.1455 14.6666 10.5565 15.1827 10.7665C15.609 10.9402 15.39 11.518 15.39 11.518C15.39 11.518 14.7308 13.4921 14.178 14.9242C13.8479 15.7799 13.5661 15.8642 13.2439 15.9444C12.8129 16.0518 11.9978 15.9986 11.9978 15.4562C11.9978 15.0284 12.4307 15.0017 12.6259 15.0081C12.6364 15.0083 13.04 15.0437 13.1937 14.7839Z" fill="#1CB9DE" style="fill:#1CB9DE;fill:color(display-p3 0.1098 0.7255 0.8706);fill-opacity:1;"/>
<path fill-rule="evenodd" clip-rule="evenodd" d="M10.6035 9.82534L9.58409 12.6716L8.47277 9.84266C8.47277 9.84266 8.30807 9.30636 7.8447 9.30636C7.3078 9.30636 7.32531 9.73672 7.31323 9.84266C7.30115 9.94867 7.31323 14.2665 7.31323 14.2665C7.31323 14.2665 7.3078 14.7198 7.80041 14.7198C8.30372 14.7198 8.27956 14.2625 8.28357 14.2625C8.28759 14.2625 8.28357 11.9831 8.28357 11.9831L9.10093 14.2625C9.10093 14.2625 9.22167 14.7106 9.60019 14.7024C9.97866 14.6944 10.0873 14.2625 10.0873 14.2625L10.7719 11.9872V14.2625C10.7719 14.2625 10.7719 14.7198 11.2671 14.7198C11.7462 14.7198 11.7462 14.2625 11.7462 14.2625L11.7469 9.84676C11.7469 9.84676 11.7469 9.30636 11.2269 9.30895C10.7956 9.311 10.6317 9.72938 10.6035 9.82534C10.6002 9.83654 10.5988 9.84266 10.5988 9.84266L10.6035 9.82534Z" fill="#1CB9DE" style="fill:#1CB9DE;fill:color(display-p3 0.1098 0.7255 0.8706);fill-opacity:1;"/>
<path fill-rule="evenodd" clip-rule="evenodd" d="M31 16.4634L16.0787 16.4623L16.0831 16.4694C14.8344 17.95 12.9797 18.8917 10.9052 18.8917C7.14414 18.8917 4.09518 15.8061 4.09518 12C4.09518 8.19395 7.14414 5.10859 10.9052 5.10859C12.9887 5.10859 14.8522 6.05563 16.1011 7.54714H17.4685C16.0495 5.40934 13.6415 4 10.9052 4C6.53946 4 3 7.58177 3 12C3 16.4183 6.53946 20 10.9052 20C13.1956 20 15.2539 19.0106 16.6969 17.4351L30.3519 17.4213L31 16.4634Z" fill="#1CB9DE" style="fill:#1CB9DE;fill:color(display-p3 0.1098 0.7255 0.8706);fill-opacity:1;"/>
<path fill-rule="evenodd" clip-rule="evenodd" d="M18.4699 13.7537H17.0957V12.4282H18.4699C18.8023 12.4455 19.125 12.6167 19.125 13.091C19.125 13.5781 18.8315 13.7537 18.4699 13.7537ZM17.0957 10.3527H18.3766C18.6332 10.3594 18.9025 10.4979 18.9025 10.8849C18.9025 11.2883 18.667 11.4171 18.3766 11.4171H17.0957V10.3527ZM19.5526 11.8188C19.5787 11.7824 19.9074 11.5129 19.8814 10.7963C19.8291 9.34562 18.584 9.36215 18.3085 9.35369C17.8645 9.3402 17.5973 9.34562 16.7824 9.35369C16.0944 9.36059 16.0994 9.99337 16.0994 9.99337V14.7197H18.4186C19.6597 14.7197 20.1214 14.0283 20.1214 13.0617C20.1214 12.0891 19.5526 11.8188 19.5526 11.8188Z" fill="#204256" style="fill:#204256;fill:color(display-p3 0.1255 0.2588 0.3373);fill-opacity:1;"/>
</svg>
