<svg width="40" height="30" viewBox="0 0 40 30" fill="none" xmlns="http://www.w3.org/2000/svg">
<rect x="0.625" y="0.625" width="38.75" height="28.75" rx="4.375" fill="white" style="fill:white;fill-opacity:1;"/>
<rect x="0.625" y="0.625" width="38.75" height="28.75" rx="4.375" stroke="#ECECF0" style="stroke:#ECECF0;stroke:color(display-p3 0.9255 0.9255 0.9412);stroke-opacity:1;" stroke-width="1.25"/>
<path fill-rule="evenodd" clip-rule="evenodd" d="M27.5848 17.051C27.5848 17.051 26.7173 17.2312 26.7264 16.6028C26.7356 15.9744 28.3069 16.012 28.4678 16.0629C28.4678 16.0629 28.5173 16.7759 27.5848 17.051ZM27.8459 13.087C26.4971 13.0742 25.8664 13.8592 25.8664 13.8592C25.4568 14.2988 25.7194 14.8941 26.1212 14.9371C26.6985 14.9988 26.6925 14.5093 27.5786 14.2922C28.3559 14.1018 28.3895 14.8305 28.3895 14.8305C25.0744 14.7471 25.2327 17.5622 26.3612 18.1601C27.4434 18.7334 28.4549 18.0101 28.4549 18.0101C28.4549 18.0101 28.493 18.3997 29.0284 18.3997C29.6411 18.3997 29.6402 17.7809 29.6402 17.7809L29.6378 15.0408C29.5974 13.0361 27.8459 13.087 27.8459 13.087Z" fill="#204256" style="fill:#204256;fill:color(display-p3 0.1255 0.2588 0.3373);fill-opacity:1;"/>
<path fill-rule="evenodd" clip-rule="evenodd" d="M38.5513 17.2933L37.1998 15.2348L38.1931 14.2843C38.1931 14.2843 38.6516 13.8549 38.2751 13.4292C37.858 12.9578 37.3607 13.4232 37.3607 13.4232L36.1125 14.5965V12.2413C36.1125 11.9038 35.8423 11.6305 35.509 11.6305C35.1753 11.6305 34.905 11.9038 34.905 12.2413V17.7833C34.905 18.1206 35.1753 18.394 35.509 18.394C35.8423 18.394 36.1125 18.1206 36.1125 17.7833V16.3079L36.3409 16.077L37.5636 18.0162C37.5636 18.0162 37.9622 18.6895 38.5492 18.2611C38.9905 17.9389 38.5513 17.2933 38.5513 17.2933Z" fill="#204256" style="fill:#204256;fill:color(display-p3 0.1255 0.2588 0.3373);fill-opacity:1;"/>
<path fill-rule="evenodd" clip-rule="evenodd" d="M34.2391 15.0411C34.2391 13.0392 32.59 12.7572 31.4687 13.3922L31.4663 13.3958C31.3819 13.1522 31.1551 12.9763 30.8855 12.9763C30.5448 12.9763 30.2684 13.256 30.2684 13.601V17.7749C30.2684 18.12 30.5448 18.3997 30.8855 18.3997C31.2265 18.3997 31.5029 18.12 31.5029 17.7749L31.4944 14.9589C31.4944 14.9589 31.6441 14.7786 31.8844 14.606C32.4618 14.1918 33.0123 14.3329 33.0123 15.0408L33.0264 17.785C33.0264 18.1248 33.2982 18.3997 33.6338 18.3997C33.9691 18.3997 34.2409 18.1248 34.2409 17.785L34.2391 15.0411Z" fill="#204256" style="fill:#204256;fill:color(display-p3 0.1255 0.2588 0.3373);fill-opacity:1;"/>
<path fill-rule="evenodd" clip-rule="evenodd" d="M16.4921 18.4799C16.6335 18.2408 16.6581 18.0725 16.6581 18.0725L15.2641 14.3852C15.2641 14.3852 15.0111 13.6718 15.5685 13.4604C16.1591 13.2362 16.3723 13.807 16.4166 13.9267C16.4609 14.0463 17.2973 16.3001 17.2973 16.3001L18.1026 13.9319C18.1026 13.9319 18.3333 13.1956 18.9784 13.4582C19.5113 13.6753 19.2375 14.3975 19.2375 14.3975C19.2375 14.3975 18.4134 16.8651 17.7226 18.6552C17.3099 19.7248 16.9576 19.8303 16.5549 19.9305C16.0161 20.0648 14.9973 19.9983 14.9973 19.3203C14.9973 18.7855 15.5384 18.7521 15.7824 18.7601C15.7955 18.7604 16.3 18.8046 16.4921 18.4799Z" fill="#1CB9DE" style="fill:#1CB9DE;fill:color(display-p3 0.1098 0.7255 0.8706);fill-opacity:1;"/>
<path fill-rule="evenodd" clip-rule="evenodd" d="M13.2544 12.2817L11.9801 15.8396L10.591 12.3033C10.591 12.3033 10.3851 11.633 9.80587 11.633C9.13474 11.633 9.15664 12.1709 9.14154 12.3033C9.12643 12.4358 9.14154 17.8331 9.14154 17.8331C9.14154 17.8331 9.13474 18.3998 9.75051 18.3998C10.3797 18.3998 10.3494 17.8281 10.3545 17.8281C10.3595 17.8281 10.3545 14.9788 10.3545 14.9788L11.3762 17.8281C11.3762 17.8281 11.5271 18.3883 12.0002 18.378C12.4733 18.368 12.6092 17.8281 12.6092 17.8281L13.4648 14.9839V17.8281C13.4648 17.8281 13.4648 18.3998 14.0838 18.3998C14.6827 18.3998 14.6827 17.8281 14.6827 17.8281L14.6836 12.3084C14.6836 12.3084 14.6836 11.633 14.0336 11.6362C13.4945 11.6388 13.2896 12.1617 13.2544 12.2817C13.2503 12.2957 13.2484 12.3033 13.2484 12.3033L13.2544 12.2817Z" fill="#1CB9DE" style="fill:#1CB9DE;fill:color(display-p3 0.1098 0.7255 0.8706);fill-opacity:1;"/>
<path fill-rule="evenodd" clip-rule="evenodd" d="M38.75 20.5792L20.0984 20.5778L20.1039 20.5867C18.543 22.4375 16.2247 23.6146 13.6316 23.6146C8.93017 23.6146 5.11897 19.7576 5.11897 15.0001C5.11897 10.2424 8.93017 6.38573 13.6316 6.38573C16.2359 6.38573 18.5652 7.56954 20.1263 9.43392H21.8357C20.0619 6.76167 17.0519 5 13.6316 5C8.17433 5 3.75 9.47721 3.75 15.0001C3.75 20.5228 8.17433 25 13.6316 25C16.4945 25 19.0674 23.7632 20.8711 21.7939L37.9399 21.7766L38.75 20.5792Z" fill="#1CB9DE" style="fill:#1CB9DE;fill:color(display-p3 0.1098 0.7255 0.8706);fill-opacity:1;"/>
<path fill-rule="evenodd" clip-rule="evenodd" d="M23.0874 17.1921H21.3697V15.5352H23.0874C23.5029 15.5569 23.9062 15.7708 23.9062 16.3637C23.9062 16.9726 23.5394 17.1921 23.0874 17.1921ZM21.3697 12.9409H22.9708C23.2915 12.9493 23.6281 13.1224 23.6281 13.6062C23.6281 14.1103 23.3338 14.2714 22.9708 14.2714H21.3697V12.9409ZM24.4408 14.7735C24.4734 14.728 24.8843 14.3912 24.8518 13.4954C24.7863 11.682 23.23 11.7027 22.8856 11.6921C22.3307 11.6752 21.9966 11.682 20.978 11.6921C20.1179 11.7007 20.1242 12.4917 20.1242 12.4917V18.3997H23.0233C24.5746 18.3997 25.1518 17.5354 25.1518 16.3271C25.1518 15.1114 24.4408 14.7735 24.4408 14.7735Z" fill="#204256" style="fill:#204256;fill:color(display-p3 0.1255 0.2588 0.3373);fill-opacity:1;"/>
</svg>
