<svg width="40" height="30" viewBox="0 0 40 30" fill="none" xmlns="http://www.w3.org/2000/svg">
<rect width="40" height="30" rx="5" fill="#D13239" style="fill:#D13239;fill:color(display-p3 0.8196 0.1961 0.2235);fill-opacity:1;"/>
<path fill-rule="evenodd" clip-rule="evenodd" d="M14.7454 9.6131C14.5765 9.44311 14.3753 9.31163 14.1546 9.22709C13.9 9.12829 13.6369 9.05483 13.3688 9.0077C13.0721 8.95383 12.7722 8.92098 12.4712 8.9094C12.2554 8.89981 12.1169 8.89981 12.1169 8.89981H6.96846L5 21.25H6.83808L7.56385 16.6753L11.1292 16.6933C11.1292 16.6933 12.5185 16.752 13.5027 16.209C14.4869 15.6671 14.7488 14.4347 14.7488 14.4347C14.7488 14.4347 14.8573 13.9768 14.9485 13.4205C15.0536 12.7496 15.1486 12.077 15.2335 11.4029C15.2335 11.4029 15.2588 11.2771 15.2588 11.0793C15.2679 10.7036 15.1845 10.3319 15.0165 9.99912C14.9433 9.85833 14.8521 9.72848 14.7454 9.6131ZM13.3296 11.7926C13.3296 11.8153 13.1658 12.8055 12.95 13.9804C12.8681 14.4287 12.5346 14.6709 12.1562 14.756C11.5262 14.8951 10.8477 14.8687 10.8477 14.8687L7.87077 14.8603L8.52615 10.7568L11.2238 10.7652C11.2238 10.7652 11.405 10.7616 11.66 10.7652C11.9485 10.77 12.3327 10.7831 12.6477 10.8287C12.92 10.8647 13.1358 10.9222 13.205 11.0121C13.2875 11.1302 13.3356 11.2704 13.3435 11.4161C13.3596 11.6127 13.3296 11.7794 13.3296 11.7926Z" fill="white" style="fill:white;fill-opacity:1;"/>
<path fill-rule="evenodd" clip-rule="evenodd" d="M16.5269 13.2275L18.3881 13.2323L18.5 12.4831C18.5 12.4831 18.6985 11.1284 19.1438 10.8683C19.2858 10.7843 19.5142 10.7076 19.7785 10.6585C20.2654 10.5686 20.8827 10.559 21.3881 10.577C22.1612 10.6045 22.4542 10.6129 23.2388 10.7076C24.0246 10.8011 23.8262 11.5911 23.8262 11.5911L23.6704 12.7696C23.6704 12.7696 23.6012 13.2995 23.42 13.6267C23.2608 13.918 22.82 14.1159 22.5662 14.201C21.9535 14.4072 19.8546 14.9622 19.8546 14.9622L18.2069 15.4561C18.2069 15.4561 17.1915 15.7606 16.6262 16.4116C16.1931 16.9172 15.893 17.5304 15.755 18.1918C15.6777 18.5766 15.2415 21.2452 15.2415 21.2452L24.1412 21.25L24.4388 19.4026L17.4004 19.411L17.525 18.6582C17.525 18.6582 17.6069 17.8813 17.9092 17.6272C18.0038 17.5457 18.0512 17.4378 18.6131 17.2316C18.9488 17.1057 20.0969 16.788 20.0969 16.788L22.7508 16.034C22.7508 16.034 24.2012 15.6491 24.7712 14.8232C25.3412 14.0032 25.5615 12.4291 25.5615 12.4291C25.5615 12.4291 25.7162 10.9006 25.5962 10.4199C25.4796 9.94038 25.0423 9.36615 24.5115 9.12039C23.9808 8.87344 23.4292 8.72958 21.8277 8.75236C20.2273 8.77513 19.4323 8.85066 18.6212 9.16475C17.81 9.47404 17.3404 10.0399 17.0415 10.8371C16.7185 11.5947 16.5281 13.2275 16.5281 13.2275H16.5269ZM33.2819 16.6621L34.5292 8.89621H32.3196L25.4404 16.5722L25.1288 18.5191H31.1462L30.7054 21.2452L32.5527 21.25L32.9888 18.5191L34.6931 18.5227L35 16.6621H33.2819ZM31.4438 16.6669L27.5554 16.6621L32.2896 11.4209L31.4438 16.6669Z" fill="#D4D4D4" style="fill:#D4D4D4;fill:color(display-p3 0.8297 0.8297 0.8297);fill-opacity:1;"/>
</svg>
