<svg width="32" height="32" viewBox="0 0 32 32" fill="none" xmlns="http://www.w3.org/2000/svg">
<rect width="32" height="32" rx="8" fill="#D13239" style="fill:#D13239;fill:color(display-p3 0.8196 0.1961 0.2235);fill-opacity:1;"/>
<path fill-rule="evenodd" clip-rule="evenodd" d="M13.0909 12.5193C12.9991 12.4222 12.867 12.3467 12.7213 12.2873C12.5676 12.228 12.3976 12.1848 12.2304 12.1551C12.02 12.1174 11.815 12.1012 11.6693 12.0958C11.5344 12.0904 11.4481 12.0904 11.4481 12.0904H9.60305H8.23004L7 19.5192H8.14912L8.60229 16.7678L10.8304 16.7786C10.8304 16.7786 11.699 16.8136 12.314 16.4872C12.929 16.1609 13.0936 15.4191 13.0936 15.4191C13.0936 15.4191 13.161 15.1439 13.2176 14.8094C13.2797 14.4399 13.3417 13.9975 13.3741 13.7628C13.3876 13.6603 13.3957 13.5956 13.3957 13.5956C13.3957 13.5956 13.4119 13.52 13.4119 13.4014C13.4146 13.2368 13.3903 12.9886 13.2608 12.7513C13.2149 12.6676 13.161 12.5921 13.0909 12.5193ZM12.2061 13.8303C12.2061 13.8437 12.1036 14.4399 11.9687 15.1466C11.9175 15.4164 11.7098 15.562 11.4724 15.6133C11.0786 15.6969 10.6551 15.6807 10.6551 15.6807L8.79381 15.6753L9.20382 13.2071L10.8897 13.2125C10.8897 13.2125 11.003 13.2098 11.1622 13.2125C11.3429 13.2152 11.583 13.2233 11.7799 13.2503C11.9498 13.2719 12.0847 13.3069 12.1279 13.3609C12.1845 13.431 12.2061 13.5227 12.2142 13.6037C12.225 13.7224 12.2061 13.8222 12.2061 13.8303Z" fill="white" style="fill:white;fill-opacity:1;"/>
<path fill-rule="evenodd" clip-rule="evenodd" d="M14.205 14.6934L15.3676 14.6961L15.4377 14.2457C15.4377 14.2457 15.5618 13.431 15.8396 13.2746C15.9286 13.2233 16.0716 13.1775 16.2362 13.1478C16.541 13.0938 16.9267 13.0885 17.2423 13.0992C17.7251 13.1154 17.9086 13.1208 18.3995 13.1775C18.8905 13.2341 18.7664 13.7089 18.7664 13.7089L18.6693 14.4183C18.6693 14.4183 18.6261 14.7366 18.5128 14.9335C18.413 15.1089 18.1379 15.2275 17.9787 15.2788C17.5957 15.4029 16.2847 15.7374 16.2847 15.7374L15.2543 16.0341C15.2543 16.0341 14.6204 16.2175 14.267 16.6086C13.9109 17.0025 13.7707 17.4475 13.7221 17.6795C13.6736 17.9115 13.4011 19.5165 13.4011 19.5165L18.9633 19.5192L19.1494 18.4078L14.7499 18.4132L14.8281 17.9601C14.8281 17.9601 14.8793 17.4934 15.0682 17.3396C15.1275 17.2911 15.1572 17.2264 15.5078 17.1023C15.7182 17.0267 16.4358 16.8352 16.4358 16.8352L18.0947 16.3821C18.0947 16.3821 19.001 16.1501 19.3571 15.6537C19.7132 15.1601 19.8507 14.2133 19.8507 14.2133C19.8507 14.2133 19.9479 13.2935 19.8723 13.0048C19.7995 12.7162 19.5271 12.3709 19.1953 12.2226C18.8635 12.0742 18.5182 11.9879 17.5174 12.0014C16.5167 12.0149 16.0204 12.0607 15.5132 12.2495C15.0061 12.4357 14.7121 12.7755 14.526 13.2557C14.3237 13.7116 14.205 14.6934 14.205 14.6934Z" fill="#D4D4D4" style="fill:#D4D4D4;fill:color(display-p3 0.8297 0.8297 0.8297);fill-opacity:1;"/>
<path fill-rule="evenodd" clip-rule="evenodd" d="M24.6763 16.7597L25.4559 12.0877H24.0748L19.775 16.7058L19.5808 17.8765H23.3411L23.0659 19.5165L24.2204 19.5192L24.4929 17.8765L25.5584 17.8792L25.7499 16.7597H24.6763ZM23.5272 16.7624L21.0968 16.7597L24.0559 13.6064L23.5272 16.7624Z" fill="#D4D4D4" style="fill:#D4D4D4;fill:color(display-p3 0.8297 0.8297 0.8297);fill-opacity:1;"/>
</svg>
