<svg width="32" height="24" viewBox="0 0 32 24" fill="none" xmlns="http://www.w3.org/2000/svg">
<rect width="32" height="24" rx="4" fill="#D13239" style="fill:#D13239;fill:color(display-p3 0.8196 0.1961 0.2235);fill-opacity:1;"/>
<path fill-rule="evenodd" clip-rule="evenodd" d="M11.7963 7.69048C11.6612 7.55449 11.5002 7.44931 11.3237 7.38167C11.12 7.30263 10.9095 7.24386 10.6951 7.20616C10.4577 7.16306 10.2177 7.13679 9.97692 7.12752C9.80431 7.11985 9.69354 7.11985 9.69354 7.11985H5.57477L4 17H5.47046L6.05108 13.3403L8.90338 13.3546C8.90338 13.3546 10.0148 13.4016 10.8022 12.9672C11.5895 12.5337 11.7991 11.5478 11.7991 11.5478C11.7991 11.5478 11.8858 11.1814 11.9588 10.7364C12.0429 10.1997 12.1189 9.66158 12.1868 9.12235C12.1868 9.12235 12.2071 9.02165 12.2071 8.8634C12.2143 8.56292 12.1476 8.26548 12.0132 7.9993C11.9547 7.88667 11.8817 7.78279 11.7963 7.69048ZM10.6637 9.43404C10.6637 9.45226 10.5326 10.2444 10.36 11.1843C10.2945 11.543 10.0277 11.7367 9.72492 11.8048C9.22092 11.9161 8.67815 11.895 8.67815 11.895L6.29662 11.8883L6.82092 8.60542L8.97908 8.61213C8.97908 8.61213 9.124 8.60926 9.328 8.61213C9.55877 8.61597 9.86615 8.62652 10.1182 8.66296C10.336 8.69173 10.5086 8.73777 10.564 8.8097C10.63 8.90415 10.6685 9.01635 10.6748 9.1329C10.6877 9.29018 10.6637 9.42349 10.6637 9.43404Z" fill="white" style="fill:white;fill-opacity:1;"/>
<path fill-rule="evenodd" clip-rule="evenodd" d="M13.2215 10.582L14.7105 10.5859L14.8 9.98645C14.8 9.98645 14.9588 8.90273 15.3151 8.69461C15.4286 8.62748 15.6114 8.5661 15.8228 8.52678C16.2123 8.45485 16.7062 8.44718 17.1105 8.46156C17.7289 8.48362 17.9634 8.49033 18.5911 8.5661C19.2197 8.6409 19.0609 9.27292 19.0609 9.27292L18.9363 10.2157C18.9363 10.2157 18.8809 10.6396 18.736 10.9014C18.6086 11.1344 18.256 11.2927 18.0529 11.3608C17.5628 11.5257 15.8837 11.9698 15.8837 11.9698L14.5655 12.3649C14.5655 12.3649 13.7532 12.6085 13.3009 13.1293C12.9544 13.5337 12.7144 14.0243 12.604 14.5535C12.5422 14.8613 12.1932 16.9962 12.1932 16.9962L19.3129 17L19.5511 15.5221L13.9203 15.5288L14.02 14.9265C14.02 14.9265 14.0855 14.3051 14.3274 14.1017C14.4031 14.0365 14.4409 13.9502 14.8905 13.7853C15.1591 13.6846 16.0775 13.4304 16.0775 13.4304L18.2006 12.8272C18.2006 12.8272 19.3609 12.5193 19.8169 11.8585C20.2729 11.2025 20.4492 9.9433 20.4492 9.9433C20.4492 9.9433 20.5729 8.72051 20.4769 8.33593C20.3837 7.9523 20.0338 7.49292 19.6092 7.29631C19.1846 7.09875 18.7434 6.98366 17.4622 7.00188C16.1818 7.02011 15.5458 7.08053 14.8969 7.3318C14.248 7.57923 13.8723 8.03191 13.6332 8.66968C13.3748 9.2758 13.2225 10.582 13.2225 10.582H13.2215ZM26.6255 13.3297L27.6234 7.11697H25.8557L20.3523 13.2578L20.1031 14.8153H24.9169L24.5643 16.9962L26.0422 17L26.3911 14.8153L27.7545 14.8182L28 13.3297H26.6255ZM25.1551 13.3335L22.0443 13.3297L25.8317 9.13673L25.1551 13.3335Z" fill="#D4D4D4" style="fill:#D4D4D4;fill:color(display-p3 0.8297 0.8297 0.8297);fill-opacity:1;"/>
</svg>
