<svg width="32" height="32" viewBox="0 0 32 32" fill="none" xmlns="http://www.w3.org/2000/svg">
<rect width="32" height="32" rx="8" fill="#0040FF" style="fill:#0040FF;fill:color(display-p3 0.0000 0.2510 1.0000);fill-opacity:1;"/>
<path fill-rule="evenodd" clip-rule="evenodd" d="M7.51009 11.1949C7.33717 11.285 7.2075 11.3883 7.12104 11.5047C7.04034 11.6213 7 11.7537 7 11.902C7 12.0926 7.07493 12.2622 7.22479 12.4105C7.37464 12.5535 7.58213 12.625 7.84726 12.625H24.1528C24.4237 12.625 24.6311 12.5535 24.7752 12.4105C24.9251 12.2622 25 12.0926 25 11.902C25 11.7537 24.9568 11.6213 24.8703 11.5047C24.7896 11.3883 24.6656 11.285 24.4986 11.1949L17.1153 7.28602C16.7464 7.09534 16.3746 7 16 7C15.6254 7 15.2565 7.09534 14.8933 7.28602L7.51009 11.1949ZM11.6028 10.9375H20.4057L16.3345 8.78207C16.1819 8.70416 16.0758 8.6875 16 8.6875C15.9243 8.6875 15.8234 8.704 15.6799 8.77902L11.6028 10.9375Z" fill="white" style="fill:white;fill-opacity:1;"/>
<path d="M10.0938 14.3125H11.7812V21.625H10.0938V14.3125Z" fill="white" style="fill:white;fill-opacity:1;"/>
<path d="M9.25 14.9875C9.25 14.6694 9.25 14.5102 9.34885 14.4114C9.44771 14.3125 9.60681 14.3125 9.925 14.3125H11.95C12.2681 14.3125 12.4273 14.3125 12.5261 14.4114C12.625 14.5102 12.625 14.6694 12.625 14.9875V15.325C12.625 15.6431 12.625 15.8023 12.5261 15.9011C12.4273 16 12.2681 16 11.95 16H9.925C9.60681 16 9.44771 16 9.34885 15.9011C9.25 15.8023 9.25 15.6431 9.25 15.325V14.9875Z" fill="white" style="fill:white;fill-opacity:1;"/>
<path d="M9.25 20.6125C9.25 20.2944 9.25 20.1352 9.34885 20.0364C9.44771 19.9375 9.60681 19.9375 9.925 19.9375H11.95C12.2681 19.9375 12.4273 19.9375 12.5261 20.0364C12.625 20.1352 12.625 20.2944 12.625 20.6125V20.95C12.625 21.2681 12.625 21.4273 12.5261 21.5261C12.4273 21.625 12.2681 21.625 11.95 21.625H9.925C9.60681 21.625 9.44771 21.625 9.34885 21.5261C9.25 21.4273 9.25 21.2681 9.25 20.95V20.6125Z" fill="white" style="fill:white;fill-opacity:1;"/>
<path d="M15.1562 14.3125H16.8438V21.625H15.1562V14.3125Z" fill="white" style="fill:white;fill-opacity:1;"/>
<path d="M14.3125 14.9875C14.3125 14.6694 14.3125 14.5102 14.4114 14.4114C14.5102 14.3125 14.6694 14.3125 14.9875 14.3125H17.0125C17.3306 14.3125 17.4898 14.3125 17.5886 14.4114C17.6875 14.5102 17.6875 14.6694 17.6875 14.9875V15.325C17.6875 15.6431 17.6875 15.8023 17.5886 15.9011C17.4898 16 17.3306 16 17.0125 16H14.9875C14.6694 16 14.5102 16 14.4114 15.9011C14.3125 15.8023 14.3125 15.6431 14.3125 15.325V14.9875Z" fill="white" style="fill:white;fill-opacity:1;"/>
<path d="M14.3125 20.6125C14.3125 20.2944 14.3125 20.1352 14.4114 20.0364C14.5102 19.9375 14.6694 19.9375 14.9875 19.9375H17.0125C17.3306 19.9375 17.4898 19.9375 17.5886 20.0364C17.6875 20.1352 17.6875 20.2944 17.6875 20.6125V20.95C17.6875 21.2681 17.6875 21.4273 17.5886 21.5261C17.4898 21.625 17.3306 21.625 17.0125 21.625H14.9875C14.6694 21.625 14.5102 21.625 14.4114 21.5261C14.3125 21.4273 14.3125 21.2681 14.3125 20.95V20.6125Z" fill="white" style="fill:white;fill-opacity:1;"/>
<path d="M20.2188 14.3125H21.9062V21.625H20.2188V14.3125Z" fill="white" style="fill:white;fill-opacity:1;"/>
<path d="M19.375 14.9875C19.375 14.6694 19.375 14.5102 19.4739 14.4114C19.5727 14.3125 19.7319 14.3125 20.05 14.3125H22.075C22.3931 14.3125 22.5523 14.3125 22.6511 14.4114C22.75 14.5102 22.75 14.6694 22.75 14.9875V15.325C22.75 15.6431 22.75 15.8023 22.6511 15.9011C22.5523 16 22.3931 16 22.075 16H20.05C19.7319 16 19.5727 16 19.4739 15.9011C19.375 15.8023 19.375 15.6431 19.375 15.325V14.9875Z" fill="white" style="fill:white;fill-opacity:1;"/>
<path d="M19.375 20.6125C19.375 20.2944 19.375 20.1352 19.4739 20.0364C19.5727 19.9375 19.7319 19.9375 20.05 19.9375H22.075C22.3931 19.9375 22.5523 19.9375 22.6511 20.0364C22.75 20.1352 22.75 20.2944 22.75 20.6125V20.95C22.75 21.2681 22.75 21.4273 22.6511 21.5261C22.5523 21.625 22.3931 21.625 22.075 21.625H20.05C19.7319 21.625 19.5727 21.625 19.4739 21.5261C19.375 21.4273 19.375 21.2681 19.375 20.95V20.6125Z" fill="white" style="fill:white;fill-opacity:1;"/>
<path d="M7 24.1562C7 23.6903 7.37776 23.3125 7.84375 23.3125H24.1562C24.6222 23.3125 25 23.6903 25 24.1562C25 24.6222 24.6222 25 24.1562 25H7.84375C7.37776 25 7 24.6222 7 24.1562Z" fill="white" style="fill:white;fill-opacity:1;"/>
</svg>
