<svg width="40" height="40" viewBox="0 0 40 40" fill="none" xmlns="http://www.w3.org/2000/svg">
<rect width="40" height="40" rx="10" fill="#0040FF" style="fill:#0040FF;fill:color(display-p3 0.0000 0.2510 1.0000);fill-opacity:1;"/>
<path fill-rule="evenodd" clip-rule="evenodd" d="M8.68012 13.5932C8.44957 13.7133 8.27666 13.851 8.16139 14.0063C8.05379 14.1617 8 14.3382 8 14.5359C8 14.7902 8.0999 15.0163 8.29972 15.214C8.49952 15.4046 8.77617 15.5 9.12968 15.5H30.8703C31.2316 15.5 31.5082 15.4046 31.7003 15.214C31.9001 15.0163 32 14.7902 32 14.5359C32 14.3382 31.9424 14.1617 31.8271 14.0063C31.7195 13.851 31.5542 13.7133 31.3315 13.5932L21.4871 8.38136C20.9952 8.12713 20.4995 8 20 8C19.5005 8 19.0087 8.12713 18.5245 8.38136L8.68012 13.5932ZM14.1371 13.25H25.8743L20.446 10.3761C20.2426 10.2722 20.1011 10.25 20 10.25C19.899 10.25 19.7645 10.272 19.5732 10.372L14.1371 13.25Z" fill="white" style="fill:white;fill-opacity:1;"/>
<path d="M12.125 17.75H14.375V27.5H12.125V17.75Z" fill="white" style="fill:white;fill-opacity:1;"/>
<path d="M11 18.65C11 18.2258 11 18.0136 11.1318 17.8819C11.2636 17.75 11.4757 17.75 11.9 17.75H14.6C15.0242 17.75 15.2364 17.75 15.3681 17.8819C15.5 18.0136 15.5 18.2258 15.5 18.65V19.1C15.5 19.5242 15.5 19.7364 15.3681 19.8681C15.2364 20 15.0242 20 14.6 20H11.9C11.4757 20 11.2636 20 11.1318 19.8681C11 19.7364 11 19.5242 11 19.1V18.65Z" fill="white" style="fill:white;fill-opacity:1;"/>
<path d="M11 26.15C11 25.7258 11 25.5136 11.1318 25.3819C11.2636 25.25 11.4757 25.25 11.9 25.25H14.6C15.0242 25.25 15.2364 25.25 15.3681 25.3819C15.5 25.5136 15.5 25.7258 15.5 26.15V26.6C15.5 27.0242 15.5 27.2364 15.3681 27.3681C15.2364 27.5 15.0242 27.5 14.6 27.5H11.9C11.4757 27.5 11.2636 27.5 11.1318 27.3681C11 27.2364 11 27.0242 11 26.6V26.15Z" fill="white" style="fill:white;fill-opacity:1;"/>
<path d="M18.875 17.75H21.125V27.5H18.875V17.75Z" fill="white" style="fill:white;fill-opacity:1;"/>
<path d="M17.75 18.65C17.75 18.2258 17.75 18.0136 17.8819 17.8819C18.0136 17.75 18.2258 17.75 18.65 17.75H21.35C21.7742 17.75 21.9864 17.75 22.1181 17.8819C22.25 18.0136 22.25 18.2258 22.25 18.65V19.1C22.25 19.5242 22.25 19.7364 22.1181 19.8681C21.9864 20 21.7742 20 21.35 20H18.65C18.2258 20 18.0136 20 17.8819 19.8681C17.75 19.7364 17.75 19.5242 17.75 19.1V18.65Z" fill="white" style="fill:white;fill-opacity:1;"/>
<path d="M17.75 26.15C17.75 25.7258 17.75 25.5136 17.8819 25.3819C18.0136 25.25 18.2258 25.25 18.65 25.25H21.35C21.7742 25.25 21.9864 25.25 22.1181 25.3819C22.25 25.5136 22.25 25.7258 22.25 26.15V26.6C22.25 27.0242 22.25 27.2364 22.1181 27.3681C21.9864 27.5 21.7742 27.5 21.35 27.5H18.65C18.2258 27.5 18.0136 27.5 17.8819 27.3681C17.75 27.2364 17.75 27.0242 17.75 26.6V26.15Z" fill="white" style="fill:white;fill-opacity:1;"/>
<path d="M25.625 17.75H27.875V27.5H25.625V17.75Z" fill="white" style="fill:white;fill-opacity:1;"/>
<path d="M24.5 18.65C24.5 18.2258 24.5 18.0136 24.6319 17.8819C24.7636 17.75 24.9758 17.75 25.4 17.75H28.1C28.5242 17.75 28.7364 17.75 28.8681 17.8819C29 18.0136 29 18.2258 29 18.65V19.1C29 19.5242 29 19.7364 28.8681 19.8681C28.7364 20 28.5242 20 28.1 20H25.4C24.9758 20 24.7636 20 24.6319 19.8681C24.5 19.7364 24.5 19.5242 24.5 19.1V18.65Z" fill="white" style="fill:white;fill-opacity:1;"/>
<path d="M24.5 26.15C24.5 25.7258 24.5 25.5136 24.6319 25.3819C24.7636 25.25 24.9758 25.25 25.4 25.25H28.1C28.5242 25.25 28.7364 25.25 28.8681 25.3819C29 25.5136 29 25.7258 29 26.15V26.6C29 27.0242 29 27.2364 28.8681 27.3681C28.7364 27.5 28.5242 27.5 28.1 27.5H25.4C24.9758 27.5 24.7636 27.5 24.6319 27.3681C24.5 27.2364 24.5 27.0242 24.5 26.6V26.15Z" fill="white" style="fill:white;fill-opacity:1;"/>
<path d="M8 30.875C8 30.2537 8.50368 29.75 9.125 29.75H30.875C31.4963 29.75 32 30.2537 32 30.875C32 31.4963 31.4963 32 30.875 32H9.125C8.50368 32 8 31.4963 8 30.875Z" fill="white" style="fill:white;fill-opacity:1;"/>
</svg>
