<svg width="16" height="16" viewBox="0 0 16 16" fill="none" xmlns="http://www.w3.org/2000/svg">
<rect width="16" height="16" rx="4" fill="#FF4785" style="fill:#FF4785;fill:color(display-p3 1.0000 0.2784 0.5216);fill-opacity:1;"/>
<g clip-path="url(#clip0_5268_518)">
<path fill-rule="evenodd" clip-rule="evenodd" d="M3.65088 5.9032L4.38163 7.05848C4.56486 6.93644 4.77111 6.8782 4.97482 6.8782C5.33379 6.8782 5.68568 7.05868 5.8951 7.39011C6.05392 7.64122 6.10804 7.94097 6.04684 8.23381C5.99351 8.49006 5.85828 8.71404 5.66148 8.87543L7.38436 7.6056C7.33141 7.2659 7.21018 6.93803 7.02203 6.64064C6.66817 6.08053 6.12241 5.69498 5.48554 5.55564C5.3147 5.51824 5.14251 5.49994 4.97166 5.49994C4.50621 5.49994 4.0504 5.63692 3.65088 5.9032Z" fill="white" style="fill:white;fill-opacity:1;"/>
<path fill-rule="evenodd" clip-rule="evenodd" d="M10.3412 7.12134L10.4267 7.05835C10.3968 7.07803 10.3685 7.0991 10.3412 7.12134ZM8.61548 8.39359C8.66686 8.72816 8.78533 9.05703 8.97625 9.35953C9.44268 10.097 10.2264 10.4987 11.0256 10.4987C11.4796 10.4987 11.939 10.3688 12.3474 10.0976L11.6168 8.94151C11.3716 9.10506 11.0797 9.15956 10.7934 9.09737C10.5076 9.03479 10.2626 8.8618 10.1034 8.61027C9.79477 8.1216 9.90483 7.47659 10.3412 7.12134L8.61548 8.39359Z" fill="white" style="fill:white;fill-opacity:1;"/>
<path fill-rule="evenodd" clip-rule="evenodd" d="M9.66941 5.92159L9.52771 6.0259L7.38445 7.60569L5.6616 8.87549C5.63306 8.89911 5.60313 8.92116 5.57204 8.94181C5.51554 8.97921 5.45671 9.00972 5.39669 9.03551C4.95918 9.22227 4.44629 9.09692 4.13867 8.72021C4.11053 8.68537 4.08337 8.64917 4.05877 8.61039L2.93164 9.35966C3.2857 9.91977 3.83145 10.3051 4.46813 10.4445C4.51064 10.4537 4.55316 10.4618 4.59567 10.4689C4.637 10.4756 4.67872 10.4811 4.72004 10.4858C4.72103 10.486 4.72181 10.486 4.72281 10.4862C4.80782 10.4952 4.89266 10.5 4.97748 10.5C5.4453 10.5 5.90819 10.3593 6.32818 10.0794C6.32937 10.0786 6.33054 10.0778 6.33173 10.0768L6.47007 9.97508L8.6155 8.3937L10.4265 7.05855C10.4541 7.04025 10.4822 7.02392 10.5108 7.00838C10.5191 7.00385 10.5275 6.99952 10.5358 6.99539C10.558 6.98397 10.581 6.97334 10.6039 6.96349C10.6111 6.96035 10.6184 6.95699 10.6257 6.95424C10.656 6.94205 10.6867 6.93123 10.7178 6.92196C10.7206 6.92098 10.7235 6.9204 10.7263 6.9196C10.755 6.91135 10.7837 6.90466 10.8131 6.89875C10.8202 6.89736 10.8271 6.896 10.8343 6.89481C10.8629 6.88969 10.892 6.88556 10.9211 6.883C10.9245 6.88261 10.928 6.88201 10.9314 6.88162C10.9605 6.87926 10.99 6.87789 11.0193 6.87789C11.0223 6.87789 11.0256 6.87809 11.0288 6.87809C11.05 6.87828 11.0713 6.88025 11.0923 6.88162C11.1079 6.88281 11.1236 6.883 11.1392 6.88478C11.1762 6.88892 11.2132 6.89481 11.25 6.90288C11.2856 6.91055 11.3206 6.9202 11.3551 6.93123C11.3876 6.94184 11.4193 6.95424 11.4503 6.96763C11.4602 6.97196 11.4698 6.97707 11.4795 6.98181C11.5003 6.99164 11.5212 7.00169 11.5413 7.01271C11.5525 7.01899 11.5631 7.02548 11.5739 7.03217C11.5922 7.043 11.6101 7.05422 11.6279 7.06624C11.6387 7.07371 11.6491 7.08139 11.6598 7.08906C11.6771 7.10186 11.6936 7.11504 11.7099 7.12842C11.72 7.1365 11.7294 7.14495 11.7393 7.15341C11.7558 7.16857 11.7719 7.18412 11.7879 7.20005C11.7959 7.20833 11.8044 7.21621 11.8119 7.22487C11.8298 7.24414 11.8469 7.26421 11.8635 7.28489C11.8686 7.29098 11.8739 7.29689 11.8788 7.30299C11.9003 7.33095 11.9207 7.35968 11.9398 7.38998L13.0669 6.64092C12.8014 6.22093 12.4281 5.89876 11.9892 5.70549C11.8432 5.64094 11.6897 5.59055 11.5304 5.55591C11.3614 5.51911 11.191 5.50061 11.0215 5.50061C10.5529 5.50061 10.0902 5.64133 9.66941 5.92159Z" fill="white" style="fill:white;fill-opacity:1;"/>
<path fill-rule="evenodd" clip-rule="evenodd" d="M2.93171 9.35939L4.05883 8.61033C3.99723 8.51311 3.95256 8.40958 3.92343 8.30331C3.8943 8.19703 3.88131 8.088 3.88348 7.97995C3.89017 7.61999 4.06552 7.26888 4.3818 7.05849L3.65104 5.90302C2.52333 6.65286 2.20075 8.20314 2.93171 9.35939Z" fill="white" style="fill:white;fill-opacity:1;"/>
<path fill-rule="evenodd" clip-rule="evenodd" d="M11.9397 7.38993C12.0987 7.64126 12.1526 7.94099 12.0916 8.23404C12.0306 8.52728 11.8619 8.77841 11.6167 8.94157L12.3472 10.0976C12.8938 9.73413 13.2695 9.17458 13.4053 8.52178C13.4246 8.42927 13.438 8.33638 13.447 8.24368C13.4535 8.17894 13.4575 8.11419 13.4588 8.04943C13.459 8.04332 13.4594 8.03724 13.4594 8.03113C13.4663 7.54146 13.3325 7.06066 13.0668 6.64087L11.9397 7.38993Z" fill="white" style="fill:white;fill-opacity:1;"/>
<path fill-rule="evenodd" clip-rule="evenodd" d="M3.65088 5.9032L4.38163 7.05848C4.56486 6.93644 4.77111 6.8782 4.97482 6.8782C5.33379 6.8782 5.68568 7.05868 5.8951 7.39011C6.05392 7.64122 6.10804 7.94097 6.04684 8.23381C5.99351 8.49006 5.85828 8.71404 5.66148 8.87543L7.38436 7.6056C7.33141 7.2659 7.21018 6.93803 7.02203 6.64064C6.66817 6.08053 6.12241 5.69498 5.48554 5.55564C5.3147 5.51824 5.14251 5.49994 4.97166 5.49994C4.50621 5.49994 4.0504 5.63692 3.65088 5.9032Z" fill="white" style="fill:white;fill-opacity:1;"/>
<path fill-rule="evenodd" clip-rule="evenodd" d="M9.66941 5.92159L9.52771 6.0259L7.38445 7.60569L5.6616 8.87549C5.63306 8.89911 5.60313 8.92116 5.57204 8.94181C5.51554 8.97921 5.45671 9.00972 5.39669 9.03551C4.95918 9.22227 4.44629 9.09692 4.13867 8.72021C4.11053 8.68537 4.08337 8.64917 4.05877 8.61039L2.93164 9.35966C3.2857 9.91977 3.83145 10.3051 4.46813 10.4445C4.51064 10.4537 4.55316 10.4618 4.59567 10.4689C4.637 10.4756 4.67872 10.4811 4.72004 10.4858C4.72103 10.486 4.72181 10.486 4.72281 10.4862C4.80782 10.4952 4.89266 10.5 4.97748 10.5C5.4453 10.5 5.90819 10.3593 6.32818 10.0794C6.32937 10.0786 6.33054 10.0778 6.33173 10.0768L6.47007 9.97508L8.6155 8.3937L10.4265 7.05855C10.4541 7.04025 10.4822 7.02392 10.5108 7.00838C10.5191 7.00385 10.5275 6.99952 10.5358 6.99539C10.558 6.98397 10.581 6.97334 10.6039 6.96349C10.6111 6.96035 10.6184 6.95699 10.6257 6.95424C10.656 6.94205 10.6867 6.93123 10.7178 6.92196C10.7206 6.92098 10.7235 6.9204 10.7263 6.9196C10.755 6.91135 10.7837 6.90466 10.8131 6.89875C10.8202 6.89736 10.8271 6.896 10.8343 6.89481C10.8629 6.88969 10.892 6.88556 10.9211 6.883C10.9245 6.88261 10.928 6.88201 10.9314 6.88162C10.9605 6.87926 10.99 6.87789 11.0193 6.87789C11.0223 6.87789 11.0256 6.87809 11.0288 6.87809C11.05 6.87828 11.0713 6.88025 11.0923 6.88162C11.1079 6.88281 11.1236 6.883 11.1392 6.88478C11.1762 6.88892 11.2132 6.89481 11.25 6.90288C11.2856 6.91055 11.3206 6.9202 11.3551 6.93123C11.3876 6.94184 11.4193 6.95424 11.4503 6.96763C11.4602 6.97196 11.4698 6.97707 11.4795 6.98181C11.5003 6.99164 11.5212 7.00169 11.5413 7.01271C11.5525 7.01899 11.5631 7.02548 11.5739 7.03217C11.5922 7.043 11.6101 7.05422 11.6279 7.06624C11.6387 7.07371 11.6491 7.08139 11.6598 7.08906C11.6771 7.10186 11.6936 7.11504 11.7099 7.12842C11.72 7.1365 11.7294 7.14495 11.7393 7.15341C11.7558 7.16857 11.7719 7.18412 11.7879 7.20005C11.7959 7.20833 11.8044 7.21621 11.8119 7.22487C11.8298 7.24414 11.8469 7.26421 11.8635 7.28489C11.8686 7.29098 11.8739 7.29689 11.8788 7.30299C11.9003 7.33095 11.9207 7.35968 11.9398 7.38998L13.0669 6.64092C12.8014 6.22093 12.4281 5.89876 11.9892 5.70549C11.8432 5.64094 11.6897 5.59055 11.5304 5.55591C11.3614 5.51911 11.191 5.50061 11.0215 5.50061C10.5529 5.50061 10.0902 5.64133 9.66941 5.92159Z" fill="white" style="fill:white;fill-opacity:1;"/>
<path fill-rule="evenodd" clip-rule="evenodd" d="M10.3412 7.12134L10.4267 7.05835C10.3968 7.07803 10.3685 7.0991 10.3412 7.12134ZM8.61548 8.39359C8.66686 8.72816 8.78533 9.05703 8.97625 9.35953C9.44268 10.097 10.2264 10.4987 11.0256 10.4987C11.4796 10.4987 11.939 10.3688 12.3474 10.0976L11.6168 8.94151C11.3716 9.10506 11.0797 9.15956 10.7934 9.09737C10.5076 9.03479 10.2626 8.8618 10.1034 8.61027C9.79477 8.1216 9.90483 7.47659 10.3412 7.12134L8.61548 8.39359Z" fill="white" style="fill:white;fill-opacity:1;"/>
<path fill-rule="evenodd" clip-rule="evenodd" d="M11.9397 7.38993C12.0987 7.64126 12.1526 7.94099 12.0916 8.23404C12.0306 8.52728 11.8619 8.77841 11.6167 8.94157L12.3472 10.0976C12.8938 9.73413 13.2695 9.17458 13.4053 8.52178C13.4246 8.42927 13.438 8.33638 13.447 8.24368C13.4535 8.17894 13.4575 8.11419 13.4588 8.04943C13.459 8.04332 13.4594 8.03724 13.4594 8.03113C13.4663 7.54146 13.3325 7.06066 13.0668 6.64087L11.9397 7.38993Z" fill="white" style="fill:white;fill-opacity:1;"/>
</g>
<defs>
<clipPath id="clip0_5268_518">
<rect width="10.9196" height="5" fill="white" style="fill:white;fill-opacity:1;" transform="translate(2.54004 5.5)"/>
</clipPath>
</defs>
</svg>
