<svg width="16" height="16" viewBox="0 0 16 16" fill="none" xmlns="http://www.w3.org/2000/svg">
<rect x="0.5" y="0.5" width="15" height="15" rx="3.5" fill="white" style="fill:white;fill-opacity:1;"/>
<rect x="0.5" y="0.5" width="15" height="15" rx="3.5" stroke="#F5F2F0" style="stroke:#F5F2F0;stroke:color(display-p3 0.9608 0.9490 0.9412);stroke-opacity:1;"/>
<path d="M10.7507 6.03271C10.7434 6.08021 10.7346 6.12843 10.7251 6.17885C10.3963 7.86229 9.27477 8.4439 7.84122 8.4439H6.80806L6.76057 8.74347L6.3872 11.113L6.24472 12H8.02315L8.08014 11.6712L8.38921 9.77663L8.64714 9.77809H8.84003C10.0946 9.77809 11.0759 9.26882 11.363 7.7958C11.4836 7.18058 11.4215 6.66693 11.1044 6.30525C11.0035 6.1936 10.8832 6.10125 10.7492 6.03271H10.7507Z" fill="#85D0FA" style="fill:#85D0FA;fill:color(display-p3 0.5216 0.8157 0.9804);fill-opacity:1;"/>
<path d="M7.18725 6.04147C7.19846 5.96803 7.2357 5.90106 7.29216 5.85277C7.34863 5.80449 7.42056 5.7781 7.49486 5.77843H9.44499C9.67588 5.77843 9.8907 5.79304 10.088 5.82519C10.1956 5.84291 10.3022 5.86657 10.4073 5.89607C10.5262 5.92957 10.6413 5.97536 10.7507 6.0327C10.8486 5.41018 10.75 4.98712 10.4131 4.60353C10.0419 4.1812 9.37266 4 8.51559 4H5.72885L4.64016 10.8653L4.59998 11.113H6.38717L6.77296 8.66747L7.18725 6.04147Z" fill="#003087" style="fill:#003087;fill:color(display-p3 0.0000 0.1882 0.5294);fill-opacity:1;"/>
<path fill-rule="evenodd" clip-rule="evenodd" d="M10.2517 5.85587C10.3288 5.87331 10.4051 5.89428 10.4803 5.91871C10.5775 5.95086 10.6674 5.98885 10.7507 6.03269C10.7306 6.15895 10.705 6.28425 10.674 6.40825C10.2911 7.91488 9.20754 8.44388 7.8412 8.44388H6.80804L7.18799 6.04073L7.22964 5.77769H9.445C9.71608 5.77642 9.98659 5.80261 10.2524 5.85587H10.2517Z" fill="#4195F7" style="fill:#4195F7;fill:color(display-p3 0.2549 0.5843 0.9686);fill-opacity:1;"/>
</svg>
