<svg width="24" height="24" viewBox="0 0 24 24" fill="none" xmlns="http://www.w3.org/2000/svg">
<rect width="24" height="24" rx="6" fill="#3200FF" style="fill:#3200FF;fill:color(display-p3 0.1961 0.0000 1.0000);fill-opacity:1;"/>
<path d="M9.02454 9.444C9.19368 9.38421 9.32937 9.33881 9.46058 9.276C9.71441 8.15145 10.769 7.28229 11.9897 7.26C13.2981 7.28229 14.3531 8.15269 14.6059 9.276C14.99 9.38297 15.311 9.53568 15.5652 9.78C15.5714 9.54063 15.5621 9.32643 15.5652 9.108C15.3751 7.37391 13.8667 6 11.9897 6C10.1342 6 8.5928 7.46058 8.50128 9.276C8.50163 9.44406 8.49823 9.60831 8.50128 9.78C8.66319 9.64958 8.84468 9.53237 9.02454 9.444Z" fill="white" style="fill:white;fill-opacity:1;"/>
<path d="M14.093 10H9.81977C9.61181 10 9.3996 10.0457 9.2093 10.168C8.97005 10.2283 8.79721 10.3352 8.68605 10.504C8.39461 10.7683 8.25941 11.2146 8.25 11.764V15.04C8.25941 15.5898 8.39461 16.0357 8.68605 16.3C8.79721 16.4692 8.97005 16.5761 9.2093 16.636C9.3996 16.7575 9.61181 16.804 9.81977 16.804H14.093C15.1733 16.7945 15.7325 16.2146 15.75 15.04V11.764C15.7325 10.5869 15.1733 10.009 14.093 10Z" fill="white" style="fill:white;fill-opacity:1;"/>
</svg>
