<svg width="32" height="24" viewBox="0 0 32 24" fill="none" xmlns="http://www.w3.org/2000/svg">
<rect width="32" height="24" rx="4" fill="#2D03F5" style="fill:#2D03F5;fill:color(display-p3 0.1765 0.0118 0.9608);fill-opacity:1;"/>
<path d="M12.8262 9.82525C13.0066 9.75884 13.1513 9.70842 13.2913 9.63865C13.562 8.38962 14.687 7.42424 15.989 7.39948C17.3846 7.42424 18.51 8.39099 18.7797 9.63865C19.1894 9.75746 19.5318 9.92708 19.8029 10.1984C19.8095 9.93258 19.7995 9.69467 19.8029 9.45205C19.6001 7.526 17.9912 6 15.989 6C14.0098 6 12.3656 7.62227 12.268 9.63865C12.2684 9.82532 12.2648 10.0077 12.268 10.1984C12.4407 10.0536 12.6343 9.9234 12.8262 9.82525Z" fill="white" style="fill:white;fill-opacity:1;"/>
<path d="M18.2326 10.4428H13.6744C13.4526 10.4428 13.2262 10.4935 13.0233 10.6294C12.7681 10.6964 12.5837 10.8151 12.4651 11.0026C12.1542 11.2962 12.01 11.7919 12 12.4021V16.0407C12.01 16.6514 12.1542 17.1466 12.4651 17.4402C12.5837 17.6281 12.7681 17.7469 13.0233 17.8134C13.2262 17.9484 13.4526 18 13.6744 18H18.2326C19.3848 17.9895 19.9813 17.3453 20 16.0407V12.4021C19.9813 11.0947 19.3848 10.4528 18.2326 10.4428Z" fill="white" style="fill:white;fill-opacity:1;"/>
</svg>
