<svg width="16" height="16" viewBox="0 0 16 16" fill="none" xmlns="http://www.w3.org/2000/svg">
<rect width="16" height="16" rx="4" fill="url(#paint0_linear_2524_226)" style=""/>
<path fill-rule="evenodd" clip-rule="evenodd" d="M5.44814 4.44161C5.1759 4.68321 5.1317 5.08409 5.04331 5.88586L4.88696 7.30404C4.7791 8.28241 4.72517 8.7716 5.00995 9.0858C5.29473 9.40001 5.79203 9.40001 6.78664 9.40001H9.21346C10.2081 9.40001 10.7054 9.40001 10.9901 9.0858C11.2749 8.7716 11.221 8.28241 11.1131 7.30404L10.9568 5.88586C10.8684 5.08409 10.8242 4.68321 10.552 4.44161C10.2797 4.20001 9.87218 4.20001 9.05711 4.20001H6.94299C6.12792 4.20001 5.72039 4.20001 5.44814 4.44161ZM6.68627 7.03638C6.48839 7.03638 6.32797 7.19511 6.32797 7.39092C6.32797 7.58673 6.48839 7.74547 6.68627 7.74547H9.31383C9.51171 7.74547 9.67213 7.58673 9.67213 7.39092C9.67213 7.19511 9.51171 7.03638 9.31383 7.03638H6.68627ZM6.32797 5.97274C6.32797 5.77693 6.48839 5.61819 6.68627 5.61819H8.19911C8.39699 5.61819 8.55741 5.77693 8.55741 5.97274C8.55741 6.16855 8.39699 6.32728 8.19911 6.32728H6.68627C6.48838 6.32728 6.32797 6.16855 6.32797 5.97274Z" fill="white" style="fill:white;fill-opacity:1;"/>
<path opacity="0.6" d="M9.43497 11.045L9.11116 10.3385C9.07264 10.2545 8.98427 10.2 8.88648 10.2H7.11362C7.01583 10.2 6.92746 10.2545 6.88894 10.3385L6.56513 11.045C6.54587 11.0871 6.50168 11.1143 6.45279 11.1143H6.16672C5.96421 11.1143 5.80005 11.2678 5.80005 11.4572C5.80005 11.6465 5.96421 11.8 6.16672 11.8H9.83338C10.0359 11.8 10.2 11.6465 10.2 11.4572C10.2 11.2678 10.0359 11.1143 9.83338 11.1143H9.54731C9.49842 11.1143 9.45423 11.0871 9.43497 11.045Z" fill="white" style="fill:white;fill-opacity:1;"/>
<defs>
<linearGradient id="paint0_linear_2524_226" x1="0" y1="16" x2="16" y2="0" gradientUnits="userSpaceOnUse">
<stop stop-color="#0E0806" style="stop-color:#0E0806;stop-color:color(display-p3 0.0549 0.0329 0.0235);stop-opacity:1;"/>
<stop offset="1" stop-color="#254764" style="stop-color:#254764;stop-color:color(display-p3 0.1451 0.2784 0.3922);stop-opacity:1;"/>
</linearGradient>
</defs>
</svg>
