<svg width="64" height="64" viewBox="0 0 64 64" fill="none" xmlns="http://www.w3.org/2000/svg">
<rect width="64" height="64" rx="14" fill="url(#paint0_linear_2524_227)" style=""/>
<path fill-rule="evenodd" clip-rule="evenodd" d="M21.7923 17.7664C20.7034 18.7328 20.5266 20.3363 20.173 23.5434L19.5476 29.2161C19.1161 33.1296 18.9004 35.0863 20.0395 36.3432C21.1787 37.6 23.1679 37.6 27.1463 37.6H36.8536C40.832 37.6 42.8212 37.6 43.9604 36.3432C45.0995 35.0863 44.8838 33.1296 44.4523 29.2161L43.8269 23.5434C43.4733 20.3363 43.2965 18.7328 42.2076 17.7664C41.1186 16.8 39.4885 16.8 36.2282 16.8H27.7717C24.5114 16.8 22.8813 16.8 21.7923 17.7664ZM26.7448 28.1454C25.9533 28.1454 25.3116 28.7804 25.3116 29.5636C25.3116 30.3469 25.9533 30.9818 26.7448 30.9818H37.2551C38.0466 30.9818 38.6883 30.3469 38.6883 29.5636C38.6883 28.7804 38.0466 28.1454 37.2551 28.1454H26.7448ZM25.3116 23.8909C25.3116 23.1077 25.9533 22.4727 26.7448 22.4727H32.7962C33.5877 22.4727 34.2294 23.1077 34.2294 23.8909C34.2294 24.6741 33.5877 25.3091 32.7962 25.3091H26.7448C25.9533 25.3091 25.3116 24.6741 25.3116 23.8909Z" fill="white" style="fill:white;fill-opacity:1;"/>
<path opacity="0.6" d="M37.7396 44.1801L36.4444 41.3541C36.2903 41.018 35.9368 40.8 35.5457 40.8H28.4542C28.0631 40.8 27.7096 41.018 27.5555 41.3541L26.2603 44.1801C26.1832 44.3481 26.0065 44.4571 25.8109 44.4571H24.6666C23.8566 44.4571 23.2 45.0711 23.2 45.8286C23.2 46.586 23.8566 47.2 24.6666 47.2H39.3333C40.1433 47.2 40.8 46.586 40.8 45.8286C40.8 45.0711 40.1433 44.4571 39.3333 44.4571H38.189C37.9934 44.4571 37.8167 44.3481 37.7396 44.1801Z" fill="white" style="fill:white;fill-opacity:1;"/>
<defs>
<linearGradient id="paint0_linear_2524_227" x1="0" y1="64" x2="64" y2="0" gradientUnits="userSpaceOnUse">
<stop stop-color="#0E0806" style="stop-color:#0E0806;stop-color:color(display-p3 0.0549 0.0329 0.0235);stop-opacity:1;"/>
<stop offset="1" stop-color="#254764" style="stop-color:#254764;stop-color:color(display-p3 0.1451 0.2784 0.3922);stop-opacity:1;"/>
</linearGradient>
</defs>
</svg>
