<svg width="24" height="24" viewBox="0 0 24 24" fill="none" xmlns="http://www.w3.org/2000/svg">
<rect width="24" height="24" rx="6" fill="url(#paint0_linear_2524_225)" style=""/>
<path fill-rule="evenodd" clip-rule="evenodd" d="M8.17209 6.66239C7.76373 7.02479 7.69743 7.62611 7.56484 8.82876L7.33032 10.956C7.16852 12.4236 7.08763 13.1574 7.5148 13.6287C7.94197 14.1 8.68793 14.1 10.1798 14.1H13.8201C15.312 14.1 16.0579 14.1 16.4851 13.6287C16.9123 13.1574 16.8314 12.4236 16.6696 10.956L16.4351 8.82876C16.3025 7.62611 16.2362 7.02479 15.8278 6.66239C15.4194 6.29999 14.8081 6.29999 13.5855 6.29999H10.4144C9.19176 6.29999 8.58046 6.29999 8.17209 6.66239ZM10.0293 10.5545C9.73246 10.5545 9.49183 10.7926 9.49183 11.0864C9.49183 11.3801 9.73246 11.6182 10.0293 11.6182H13.9706C14.2674 11.6182 14.5081 11.3801 14.5081 11.0864C14.5081 10.7926 14.2674 10.5545 13.9706 10.5545H10.0293ZM9.49183 8.95908C9.49183 8.66536 9.73246 8.42726 10.0293 8.42726H12.2985C12.5954 8.42726 12.836 8.66536 12.836 8.95908C12.836 9.25279 12.5954 9.4909 12.2985 9.4909H10.0293C9.73246 9.4909 9.49183 9.25279 9.49183 8.95908Z" fill="white" style="fill:white;fill-opacity:1;"/>
<path opacity="0.6" d="M14.1523 16.5675L13.6666 15.5078C13.6088 15.3817 13.4763 15.3 13.3296 15.3H10.6703C10.5236 15.3 10.3911 15.3817 10.3333 15.5078L9.84757 16.5675C9.81868 16.6305 9.7524 16.6714 9.67906 16.6714H9.24995C8.94619 16.6714 8.69995 16.9017 8.69995 17.1857C8.69995 17.4697 8.94619 17.7 9.24995 17.7H14.75C15.0537 17.7 15.3 17.4697 15.3 17.1857C15.3 16.9017 15.0537 16.6714 14.75 16.6714H14.3208C14.2475 16.6714 14.1812 16.6305 14.1523 16.5675Z" fill="white" style="fill:white;fill-opacity:1;"/>
<defs>
<linearGradient id="paint0_linear_2524_225" x1="0" y1="24" x2="24" y2="0" gradientUnits="userSpaceOnUse">
<stop stop-color="#0E0806" style="stop-color:#0E0806;stop-color:color(display-p3 0.0549 0.0329 0.0235);stop-opacity:1;"/>
<stop offset="1" stop-color="#254764" style="stop-color:#254764;stop-color:color(display-p3 0.1451 0.2784 0.3922);stop-opacity:1;"/>
</linearGradient>
</defs>
</svg>
