<svg width="40" height="30" viewBox="0 0 40 30" fill="none" xmlns="http://www.w3.org/2000/svg">
<rect width="40" height="30" rx="5" fill="url(#paint0_linear_2740_2242)" style=""/>
<path fill-rule="evenodd" clip-rule="evenodd" d="M15.0157 7.97684C14.4841 8.45369 14.3977 9.2449 14.2251 10.8273L13.9197 13.6264C13.7091 15.5574 13.6037 16.5229 14.16 17.143C14.7161 17.7631 15.6875 17.7631 17.63 17.7631H22.3699C24.3125 17.7631 25.2839 17.7631 25.84 17.143C26.3962 16.5229 26.2909 15.5574 26.0802 13.6264L25.7749 10.8273C25.6022 9.2449 25.5159 8.45369 24.9842 7.97684C24.4525 7.5 23.6565 7.5 22.0646 7.5H17.9354C16.3435 7.5 15.5475 7.5 15.0157 7.97684ZM17.434 13.0981C17.0475 13.0981 16.7342 13.4114 16.7342 13.7979C16.7342 14.1844 17.0475 14.4976 17.434 14.4976H22.566C22.9525 14.4976 23.2657 14.1844 23.2657 13.7979C23.2657 13.4114 22.9525 13.0981 22.566 13.0981H17.434ZM16.7342 10.9988C16.7342 10.6123 17.0475 10.299 17.434 10.299H20.3887C20.7752 10.299 21.0886 10.6123 21.0886 10.9988C21.0886 11.3853 20.7752 11.6986 20.3887 11.6986H17.434C17.0475 11.6986 16.7342 11.3853 16.7342 10.9988Z" fill="white" style="fill:white;fill-opacity:1;"/>
<path opacity="0.6" d="M22.8026 21.0101L22.1701 19.6158C22.0949 19.4499 21.9222 19.3423 21.7314 19.3423H18.2686C18.0777 19.3423 17.9051 19.4499 17.8299 19.6158L17.1974 21.0101C17.1598 21.093 17.0735 21.1468 16.978 21.1468H16.4192C16.0237 21.1468 15.7031 21.4498 15.7031 21.8235C15.7031 22.1973 16.0237 22.5001 16.4192 22.5001H23.5807C23.9762 22.5001 24.2969 22.1973 24.2969 21.8235C24.2969 21.4498 23.9762 21.1468 23.5807 21.1468H23.022C22.9265 21.1468 22.8402 21.093 22.8026 21.0101Z" fill="white" style="fill:white;fill-opacity:1;"/>
<defs>
<linearGradient id="paint0_linear_2740_2242" x1="0" y1="30" x2="28.8" y2="-8.4" gradientUnits="userSpaceOnUse">
<stop stop-color="#0E0806" style="stop-color:#0E0806;stop-color:color(display-p3 0.0549 0.0329 0.0235);stop-opacity:1;"/>
<stop offset="1" stop-color="#254764" style="stop-color:#254764;stop-color:color(display-p3 0.1451 0.2784 0.3922);stop-opacity:1;"/>
</linearGradient>
</defs>
</svg>
