<svg width="24" height="24" viewBox="0 0 24 24" fill="none" xmlns="http://www.w3.org/2000/svg">
<rect width="24" height="24" rx="6" fill="#F9E95D" style="fill:#F9E95D;fill:color(display-p3 0.9765 0.9137 0.3647);fill-opacity:1;"/>
<path fill-rule="evenodd" clip-rule="evenodd" d="M9.83915 8.6016C9.566 8.59718 9.29458 8.64574 9.03984 8.74463L9.03988 8.74701C8.97146 8.76653 8.9054 8.79355 8.84287 8.82758C8.49744 9.00743 8.18477 9.24433 7.91795 9.52838L7.99788 8.68455H7.01302C7.00687 8.76041 7.00233 8.83464 6.99783 8.90824C6.98777 9.07331 6.97787 9.23524 6.95023 9.40538C6.93101 9.52371 6.91112 9.63741 6.8912 9.75126C6.86972 9.87407 6.84821 9.99705 6.82747 10.1262L5.40015 16.3647L6.49063 16.3504L7.1472 13.49C7.33473 13.7606 7.58058 13.9854 7.86658 14.1479C8.17299 14.3014 8.51175 14.3789 8.85429 14.3739L9.04841 14.3738C9.43989 14.3465 9.81939 14.2413 10.156 14.0392C10.5715 13.8089 10.9139 13.4659 11.1437 13.0495C11.3817 12.671 11.549 12.2523 11.6376 11.8138C11.7534 11.3777 11.792 10.9246 11.7518 10.4752C11.7261 9.95835 11.5141 9.46847 11.1552 9.09645C10.9802 8.92965 10.7735 8.79988 10.5474 8.71487C10.3213 8.62984 10.0804 8.59133 9.83915 8.6016ZM9.04832 9.31673C8.89599 9.36765 8.75032 9.43678 8.6145 9.52264C8.33383 9.72493 8.10812 9.99435 7.95793 10.3064C7.76242 10.6661 7.61737 11.0511 7.52687 11.4506C7.43915 11.8067 7.40452 12.174 7.4241 12.5404C7.42622 12.6867 7.45773 12.8311 7.51678 12.965C7.57582 13.0989 7.66117 13.2195 7.76775 13.3196C7.87432 13.4197 7.99991 13.4973 8.13707 13.5477C8.2742 13.5981 8.42008 13.6203 8.56597 13.613C8.72608 13.6143 8.89417 13.5938 9.04841 13.5508L9.05739 13.548C9.1956 13.5063 9.33009 13.4658 9.45949 13.4013C9.7445 13.2152 9.97738 12.9592 10.136 12.6576C10.3256 12.3214 10.4705 11.9617 10.5671 11.5878C10.6618 11.2251 10.6965 10.8492 10.6699 10.4752C10.6465 10.1482 10.5172 9.83786 10.3016 9.5913C10.1912 9.48141 10.0596 9.39529 9.91475 9.33823C9.76993 9.28118 9.61502 9.25438 9.45949 9.25948C9.32004 9.25903 9.18137 9.28026 9.04841 9.32243L9.04832 9.31673ZM15.6336 9.66458C15.7487 9.64065 15.8657 9.62644 15.9832 9.62207C16.0993 9.61914 16.2148 9.63949 16.3226 9.68186C16.4305 9.72424 16.5286 9.78776 16.611 9.86863C16.7816 10.052 16.8776 10.2912 16.8804 10.5404C16.9 10.8563 16.8719 11.1735 16.7973 11.4813C16.7172 11.8326 16.6 12.1746 16.4476 12.5016C16.3378 12.7442 16.1753 12.96 15.9718 13.1337C15.871 13.2161 15.7507 13.2717 15.6221 13.2952V14.3581C15.6518 14.3581 15.6872 14.3629 15.7229 14.3678C15.7595 14.3728 15.7966 14.3779 15.8285 14.3779C16.2484 14.382 16.662 14.2768 17.0278 14.0728C17.3935 13.8688 17.6986 13.5733 17.9123 13.2159C18.4649 12.3922 18.6961 11.3981 18.563 10.4185C18.5577 9.91986 18.3669 9.44061 18.027 9.07223C17.8567 8.91296 17.6558 8.78923 17.4362 8.7084C17.2165 8.62757 16.9827 8.59129 16.7486 8.60173C16.4131 8.59464 16.0805 8.66451 15.7769 8.80581C15.7314 8.83142 15.6834 8.85231 15.6336 8.86815V9.66458ZM15.6336 9.66458L15.6278 8.86815C15.3671 9.02434 15.1249 9.20874 14.9055 9.41799L14.9456 8.74629H13.3978C13.3576 9.12041 13.2544 9.69293 13.0882 10.4468L11.7668 16.3647H13.4866L14.1459 13.4483C14.2934 13.7376 14.5263 13.9758 14.8138 14.1313C15.0625 14.2631 15.3374 14.3396 15.6192 14.3552V13.2924C15.5384 13.3175 15.4545 13.3318 15.3698 13.3349C15.2424 13.3404 15.1154 13.3179 14.9979 13.2688C14.8804 13.2198 14.7754 13.1456 14.6905 13.0515C14.4981 12.8289 14.3888 12.5478 14.3809 12.2551C14.3068 11.617 14.4446 10.9723 14.7736 10.4185C14.9532 10.0685 15.2606 9.79896 15.6336 9.66458Z" fill="#0054A4" style="fill:#0054A4;fill:color(display-p3 0.0000 0.3294 0.6431);fill-opacity:1;"/>
</svg>
