<svg width="48" height="36" viewBox="0 0 48 36" fill="none" xmlns="http://www.w3.org/2000/svg">
<rect width="48" height="36" rx="6" fill="#F9E95D" style="fill:#F9E95D;fill:color(display-p3 0.9765 0.9137 0.3647);fill-opacity:1;"/>
<path fill-rule="evenodd" clip-rule="evenodd" d="M18.8434 9.00377C18.1916 8.99351 17.5438 9.10609 16.9359 9.33533L16.936 9.34085C16.7727 9.38609 16.6151 9.44873 16.4658 9.52762C15.6415 9.94454 14.8953 10.4937 14.2586 11.1522L14.4493 9.19606H12.099C12.0844 9.37192 12.0735 9.54401 12.0628 9.71461C12.0388 10.0973 12.0151 10.4727 11.9492 10.8671C11.9033 11.1414 11.8558 11.405 11.8083 11.6689C11.757 11.9536 11.7057 12.2387 11.6562 12.538L8.25 27L10.8524 26.9668L12.4192 20.3359C12.8668 20.9632 13.4535 21.4844 14.136 21.8611C14.8672 22.217 15.6756 22.3966 16.4931 22.3849L16.9564 22.3848C17.8906 22.3215 18.7963 22.0775 19.5996 21.6091C20.5912 21.0752 21.4081 20.28 21.9567 19.3148C22.5246 18.4373 22.9239 17.4667 23.1353 16.4503C23.4116 15.4392 23.5038 14.389 23.4078 13.347C23.3464 12.149 22.8405 11.0133 21.984 10.1509C21.5664 9.76425 21.0732 9.46342 20.5336 9.26635C19.994 9.06923 19.4192 8.97995 18.8434 9.00377ZM16.9561 10.6616C16.5926 10.7796 16.245 10.9399 15.9208 11.1389C15.251 11.6079 14.7124 12.2324 14.354 12.9558C13.8874 13.7897 13.5413 14.6822 13.3253 15.6082C13.116 16.4339 13.0333 17.2852 13.08 18.1345C13.0851 18.4738 13.1603 18.8086 13.3012 19.119C13.4421 19.4293 13.6458 19.7089 13.9001 19.941C14.1545 20.173 14.4542 20.3528 14.7815 20.4697C15.1088 20.5866 15.4569 20.638 15.805 20.6211C16.1871 20.6242 16.5883 20.5767 16.9564 20.4768L16.9778 20.4705C17.3076 20.3738 17.6286 20.2798 17.9374 20.1304C18.6175 19.6989 19.1733 19.1055 19.5519 18.4064C20.0043 17.6268 20.3501 16.7932 20.5806 15.9264C20.8065 15.0854 20.8894 14.2141 20.8258 13.347C20.77 12.5891 20.4615 11.8696 19.947 11.2981C19.6836 11.0433 19.3694 10.8437 19.0238 10.7114C18.6782 10.5791 18.3085 10.517 17.9374 10.5289C17.6046 10.5278 17.2736 10.577 16.9564 10.6748L16.9561 10.6616ZM32.6714 11.4679C32.9462 11.4125 33.2254 11.3795 33.5059 11.3694C33.7828 11.3626 34.0584 11.4098 34.3158 11.508C34.5733 11.6062 34.8074 11.7535 35.004 11.941C35.4111 12.366 35.6402 12.9207 35.647 13.4981C35.6936 14.2307 35.6267 14.9658 35.4486 15.6795C35.2575 16.4938 34.9778 17.2866 34.6141 18.0448C34.3519 18.6072 33.9643 19.1074 33.4786 19.5099C33.2381 19.7009 32.9508 19.8299 32.644 19.8844V22.3483C32.715 22.3483 32.7994 22.3595 32.8847 22.3709C32.9721 22.3825 33.0604 22.3943 33.1365 22.3943C34.1387 22.4037 35.1257 22.1598 35.9986 21.687C36.8715 21.2142 37.5995 20.5291 38.1095 19.7005C39.4281 17.791 39.98 15.4865 39.6623 13.2156C39.6496 12.0597 39.1943 10.9487 38.3832 10.0948C37.9769 9.72556 37.4974 9.43873 36.9733 9.25135C36.4491 9.06397 35.891 8.97986 35.3323 9.00407C34.5317 8.98764 33.738 9.1496 33.0134 9.47716C32.9049 9.53653 32.7903 9.58495 32.6714 9.62168V11.4679ZM32.6714 11.4679L32.6577 9.62168C32.0356 9.98375 31.4574 10.4112 30.9339 10.8963L31.0297 9.33919H27.3358C27.2401 10.2065 26.9938 11.5337 26.597 13.2813L23.4436 27H27.5479L29.1212 20.2392C29.4731 20.91 30.0289 21.4622 30.715 21.8226C31.3087 22.1283 31.9647 22.3054 32.6372 22.3417V19.8779C32.4443 19.9361 32.2441 19.9693 32.0421 19.9764C31.738 19.9892 31.4348 19.9369 31.1544 19.8233C30.8741 19.7096 30.6235 19.5375 30.4209 19.3194C29.9617 18.8034 29.701 18.1517 29.6821 17.4731C29.5051 15.9939 29.834 14.4995 30.6192 13.2156C31.0478 12.4042 31.7813 11.7795 32.6714 11.4679Z" fill="#0054A4" style="fill:#0054A4;fill:color(display-p3 0.0000 0.3294 0.6431);fill-opacity:1;"/>
</svg>
