<svg width="64" height="48" viewBox="0 0 64 48" fill="none" xmlns="http://www.w3.org/2000/svg">
<g clip-path="url(#clip0_4559_155)">
<rect width="64" height="48" rx="8" fill="#F94C43" style="fill:#F94C43;fill:color(display-p3 0.9765 0.2980 0.2627);fill-opacity:1;"/>
<rect width="64" height="48" fill="#FF3D00" style="fill:#FF3D00;fill:color(display-p3 1.0000 0.2392 0.0000);fill-opacity:1;"/>
<path d="M40.6644 36.415C40.8812 36.6946 40.8826 37.0875 40.5912 37.3154C40.5481 37.3495 40.3931 37.4417 40.3529 37.4423H33.889L37.8255 33.8769V33.8759L40.6644 36.415ZM23.5833 10.6025C26.2337 10.5151 28.9041 10.5858 31.5619 10.5654L31.7113 10.6367C32.3652 11.2679 33.0554 11.8601 33.7298 12.4687C37.2445 15.6389 40.7296 18.8423 44.2347 22.0205H44.2337C44.9705 22.8585 45.203 24.0718 44.7826 25.1123C44.3849 26.0966 43.2359 26.89 42.4574 27.6035C38.8687 30.8902 35.2528 34.1473 31.6546 37.4238L23.598 37.4267C23.1769 37.2665 23.019 36.782 23.3236 36.4238L36.5628 24.4404C36.7803 24.2679 36.8607 23.9958 36.7093 23.749L23.2757 11.5214C23.0382 11.1779 23.2124 10.7526 23.5833 10.6025ZM26.1986 16.2158C26.5633 16.5646 26.9454 16.8965 27.3197 17.2343C28.4797 18.2806 29.6233 19.3506 30.7972 20.3808L30.848 20.4687L27.3148 23.6914C27.0454 24.1099 27.3091 24.3106 27.5902 24.5849C28.5591 25.5315 29.6403 26.3853 30.6312 27.3115C30.6759 27.3538 30.8567 27.5137 30.848 27.5625L26.1488 31.8027L19.8451 26.0957C18.7868 24.9802 18.7209 23.2501 19.7162 22.0742L26.1263 16.2158H26.1986ZM40.2796 10.5634C40.7549 10.6297 40.9882 11.1797 40.6947 11.5576L37.8265 14.164L33.9261 10.5634H40.2796Z" fill="white" style="fill:white;fill-opacity:1;"/>
</g>
<defs>
<clipPath id="clip0_4559_155">
<rect width="64" height="48" rx="8" fill="white" style="fill:white;fill-opacity:1;"/>
</clipPath>
</defs>
</svg>
