<svg width="40" height="40" viewBox="0 0 40 40" fill="none" xmlns="http://www.w3.org/2000/svg">
<g clip-path="url(#clip0_4550_45)">
<rect width="40" height="40" rx="10" fill="#F94C43" style="fill:#F94C43;fill:color(display-p3 0.9765 0.2980 0.2627);fill-opacity:1;"/>
<rect width="40" height="40" fill="#FF3D00" style="fill:#FF3D00;fill:color(display-p3 1.0000 0.2392 0.0000);fill-opacity:1;"/>
<path d="M27.9513 31.3923C28.1499 31.6488 28.151 32.0094 27.8839 32.2185C27.8443 32.2499 27.7005 32.3347 27.6642 32.3347H21.7335L25.3458 29.0632V29.0622L27.9513 31.3923ZM12.2775 7.70579C14.7095 7.62563 17.16 7.69129 19.5987 7.67258L19.7345 7.73704C20.3346 8.31626 20.9681 8.86017 21.587 9.41868C23.1996 10.8732 24.8055 12.3356 26.4103 13.7986L31.2267 18.1833C31.9027 18.9523 32.1152 20.0655 31.7296 21.0202C31.3647 21.9236 30.3102 22.6526 29.5958 23.3073C26.3028 26.3233 22.9844 29.3115 19.6827 32.3181L12.2902 32.32C11.9038 32.1731 11.7588 31.7288 12.0382 31.4001L24.1876 20.404C24.3871 20.2457 24.4605 19.9957 24.3214 19.7693L11.9952 8.54954C11.7768 8.23417 11.9367 7.84342 12.2775 7.70579ZM14.6769 12.8572C15.0116 13.1772 15.3618 13.4817 15.7052 13.7917C16.7697 14.7518 17.8194 15.7341 18.8966 16.6794L18.9425 16.7595L15.7013 19.7175C15.4543 20.1015 15.6962 20.285 15.9542 20.5368C16.8432 21.4053 17.8341 22.1891 18.7433 23.0388C18.7843 23.0775 18.9506 23.2245 18.9425 23.2693L14.631 27.1599L8.84582 21.9226C7.87488 20.899 7.81538 19.3121 8.72863 18.2331L14.6105 12.8572H14.6769ZM27.5978 7.67063C28.0339 7.73143 28.2481 8.23597 27.9786 8.58274L25.3468 10.9743L21.7677 7.67063H27.5978Z" fill="white" style="fill:white;fill-opacity:1;"/>
</g>
<defs>
<clipPath id="clip0_4550_45">
<rect width="40" height="40" rx="10" fill="white" style="fill:white;fill-opacity:1;"/>
</clipPath>
</defs>
</svg>
