<svg width="24" height="24" viewBox="0 0 24 24" fill="none" xmlns="http://www.w3.org/2000/svg">
<g clip-path="url(#clip0_4559_143)">
<rect width="24" height="24" rx="6" fill="#F94C43" style="fill:#F94C43;fill:color(display-p3 0.9765 0.2980 0.2627);fill-opacity:1;"/>
<rect width="24" height="24" fill="#FF3D00" style="fill:#FF3D00;fill:color(display-p3 1.0000 0.2392 0.0000);fill-opacity:1;"/>
<path d="M16.7703 18.8353C16.8897 18.9892 16.8908 19.2059 16.7303 19.3314C16.7065 19.3502 16.6202 19.4007 16.5985 19.4007H13.0399L15.2078 17.4378L16.7703 18.8353ZM11.7586 4.60383L11.8406 4.64289C12.2007 4.99042 12.5806 5.31658 12.952 5.65168C13.9197 6.52452 14.8835 7.40171 15.8465 8.27961L18.7361 10.9105C19.1416 11.3719 19.2693 12.0399 19.0379 12.6126C18.8189 13.1545 18.1862 13.5919 17.7576 13.9847C15.7819 15.7941 13.7913 17.5871 11.8104 19.3909L7.37384 19.3919C7.1421 19.3037 7.05574 19.0374 7.22345 18.8402L14.5125 12.2425C14.6322 12.1475 14.6761 11.9975 14.5926 11.8616L7.19709 5.1302C7.06606 4.94102 7.16167 4.70599 7.36603 4.62336C8.82518 4.57526 10.2954 4.61504 11.7586 4.60383ZM9.42267 8.27473C10.0613 8.85076 10.6914 9.43994 11.3377 10.0072L11.3651 10.056L9.42072 11.8304C9.27242 12.0608 9.41726 12.1715 9.57209 12.3226C10.1055 12.8437 10.7004 13.3137 11.2459 13.8236C11.2705 13.8468 11.3698 13.9343 11.3651 13.9613L8.77912 16.2962L5.30744 13.1536C4.72489 12.5395 4.68917 11.5872 5.23713 10.9398L8.76642 7.71418H8.80646C9.00716 7.9061 9.21673 8.08883 9.42267 8.27473ZM16.5584 4.60188C16.8201 4.63836 16.9486 4.94167 16.7869 5.14973L15.2078 6.5843L13.0604 4.60188H16.5584Z" fill="white" style="fill:white;fill-opacity:1;"/>
</g>
<defs>
<clipPath id="clip0_4559_143">
<rect width="24" height="24" rx="6" fill="white" style="fill:white;fill-opacity:1;"/>
</clipPath>
</defs>
</svg>
