<svg width="32" height="24" viewBox="0 0 32 24" fill="none" xmlns="http://www.w3.org/2000/svg">
<g clip-path="url(#clip0_4559_181)">
<rect width="32" height="24" rx="4" fill="#F94C43" style="fill:#F94C43;fill:color(display-p3 0.9765 0.2980 0.2627);fill-opacity:1;"/>
<rect width="32" height="24" fill="#FF3D00" style="fill:#FF3D00;fill:color(display-p3 1.0000 0.2392 0.0000);fill-opacity:1;"/>
<path d="M20.3324 18.2075C20.4407 18.3473 20.441 18.5438 20.2953 18.6577C20.2736 18.6749 20.1959 18.7212 20.1762 18.7212H16.9448L18.9125 16.938L20.3324 18.2075ZM15.7807 5.2827L15.8559 5.31785C16.1829 5.63349 16.5274 5.9305 16.8647 6.23485C18.622 7.81994 20.365 9.42114 22.1176 11.0102H22.1166C22.485 11.4293 22.6012 12.0359 22.391 12.5561C22.1922 13.0483 21.6182 13.4455 21.2289 13.8022C19.4346 15.4456 17.6267 17.0741 15.8276 18.7124L11.7992 18.7134C11.5887 18.6333 11.5092 18.3905 11.6615 18.2114L18.2817 12.2202C18.3903 12.134 18.4305 11.9978 18.3549 11.8745L11.6381 5.76121C11.5192 5.5895 11.606 5.37639 11.7914 5.30125C13.1165 5.25757 14.4519 5.29288 15.7807 5.2827ZM13.6596 8.61668C14.2396 9.13984 14.8118 9.67575 15.3989 10.1909L15.4233 10.2348L13.6576 11.8462C13.5231 12.0554 13.6548 12.1553 13.7953 12.2925C14.2797 12.7656 14.8195 13.1928 15.3149 13.6557C15.3371 13.6767 15.4267 13.7559 15.4233 13.7807L13.0746 15.9009L9.92229 13.0473C9.39341 12.4897 9.36057 11.6255 9.85784 11.0376L13.0629 8.10789H13.099C13.2813 8.28221 13.4725 8.44782 13.6596 8.61668ZM20.1401 5.28172C20.3776 5.31498 20.4939 5.5899 20.3471 5.77879L18.9135 7.0825L16.9633 5.28172H20.1401Z" fill="white" style="fill:white;fill-opacity:1;"/>
</g>
<defs>
<clipPath id="clip0_4559_181">
<rect width="32" height="24" rx="4" fill="white" style="fill:white;fill-opacity:1;"/>
</clipPath>
</defs>
</svg>
