<svg width="48" height="36" viewBox="0 0 48 36" fill="none" xmlns="http://www.w3.org/2000/svg">
<g clip-path="url(#clip0_4559_171)">
<rect width="48" height="36" rx="6" fill="#F94C43" style="fill:#F94C43;fill:color(display-p3 0.9765 0.2980 0.2627);fill-opacity:1;"/>
<rect width="48" height="36" fill="#FF3D00" style="fill:#FF3D00;fill:color(display-p3 1.0000 0.2392 0.0000);fill-opacity:1;"/>
<path d="M30.4988 27.3107C30.6614 27.5204 30.6617 27.8156 30.4431 27.9865C30.4105 28.0123 30.294 28.0822 30.2644 28.0822H25.4167L28.3689 25.4074L30.4988 27.3107ZM17.6882 7.95137C19.6759 7.88586 21.6784 7.93931 23.6716 7.92403L23.7829 7.97774C24.2735 8.4512 24.7917 8.89523 25.2976 9.35176C27.9336 11.7294 30.5476 14.1322 33.1765 16.5158H33.1755C33.7281 17.1444 33.9019 18.0539 33.5867 18.8342C33.2883 19.5724 32.4274 20.1682 31.8435 20.7033C29.152 23.1684 26.4396 25.6111 23.741 28.0686L17.698 28.0695C17.3824 27.9493 17.2645 27.5862 17.4929 27.3176L27.4226 18.3303C27.5857 18.2009 27.6456 17.9968 27.532 17.8117L17.4568 8.6418C17.2783 8.38405 17.4097 8.06387 17.6882 7.95137ZM19.6492 12.1623C19.9227 12.4238 20.2093 12.6717 20.49 12.925C21.3599 13.7096 22.217 14.5127 23.0974 15.2854L23.1355 15.3518L20.4861 17.7688C20.2841 18.0827 20.4822 18.2328 20.6931 18.4387C21.4198 19.1486 22.2302 19.789 22.9734 20.4836C23.0069 20.5153 23.1421 20.6355 23.1355 20.6721L19.612 23.8518L14.8835 19.5715C14.0898 18.7349 14.0413 17.4378 14.7878 16.5559L19.5945 12.1623H19.6492ZM30.2097 7.92305C30.5661 7.97273 30.7412 8.38475 30.5212 8.66817L28.3699 10.6232L25.4451 7.92305H30.2097Z" fill="white" style="fill:white;fill-opacity:1;"/>
</g>
<defs>
<clipPath id="clip0_4559_171">
<rect width="48" height="36" rx="6" fill="white" style="fill:white;fill-opacity:1;"/>
</clipPath>
</defs>
</svg>
