<svg width="40" height="30" viewBox="0 0 40 30" fill="none" xmlns="http://www.w3.org/2000/svg">
<g clip-path="url(#clip0_4559_176)">
<rect width="40" height="30" rx="5" fill="#F94C43" style="fill:#F94C43;fill:color(display-p3 0.9765 0.2980 0.2627);fill-opacity:1;"/>
<rect width="40" height="30" fill="#FF3D00" style="fill:#FF3D00;fill:color(display-p3 1.0000 0.2392 0.0000);fill-opacity:1;"/>
<path d="M25.4157 22.7595C25.5508 22.9341 25.5516 23.1796 25.3698 23.322C25.3428 23.3433 25.2453 23.4009 25.2204 23.4011H21.1804L23.6413 21.1726L25.4157 22.7595ZM19.7262 6.60322L19.819 6.64717C20.2277 7.04163 20.6593 7.41232 21.0807 7.79267C23.2775 9.77409 25.4564 11.776 27.6471 13.7624H27.6462C28.1067 14.2862 28.2517 15.0447 27.9889 15.695C27.7404 16.3102 27.0224 16.8067 26.5358 17.2526C24.2929 19.3068 22.0327 21.3425 19.7839 23.3903L14.7487 23.3913C14.4855 23.2912 14.3865 22.9882 14.5768 22.7644L22.8522 15.2751C22.9881 15.1672 23.0378 14.9967 22.943 14.8425L14.5475 7.20088C14.3989 6.98611 14.5079 6.72042 14.7399 6.62666C16.3964 6.57206 18.0652 6.61596 19.7262 6.60322ZM17.0749 10.7712C17.7998 11.425 18.5141 12.0941 19.2477 12.738L19.28 12.7927L17.072 14.8073C16.9036 15.0689 17.0681 15.1944 17.2438 15.3659C17.8494 15.9575 18.5249 16.4912 19.1442 17.07C19.1724 17.0966 19.2851 17.1957 19.28 17.2263L16.3434 19.8767L12.403 16.3093C11.7416 15.6121 11.7009 14.5315 12.3229 13.7966L16.3288 10.1345H16.3747C16.6026 10.3525 16.841 10.56 17.0749 10.7712ZM25.1745 6.60224C25.4715 6.64365 25.6176 6.98716 25.4343 7.22334L23.6413 8.85224L21.2038 6.60224H25.1745Z" fill="white" style="fill:white;fill-opacity:1;"/>
</g>
<defs>
<clipPath id="clip0_4559_176">
<rect width="40" height="30" rx="5" fill="white" style="fill:white;fill-opacity:1;"/>
</clipPath>
</defs>
</svg>
