<svg width="32" height="32" viewBox="0 0 32 32" fill="none" xmlns="http://www.w3.org/2000/svg">
<rect width="32" height="32" rx="7" fill="#FF5B24" style="fill:#FF5B24;fill:color(display-p3 1.0000 0.3569 0.1412);fill-opacity:1;"/>
<path d="M16.4803 20.3636C19.4743 20.3636 21.1736 18.9091 22.7921 16.808C23.6822 15.6768 24.815 15.4343 25.6243 16.0808C26.4334 16.7273 26.5144 17.9394 25.6243 19.0707C23.2776 22.1414 20.2835 24 16.4803 24C12.3533 24 8.7119 21.7374 6.20337 17.7777C5.47509 16.7273 5.63693 15.5959 6.44613 15.0303C7.25534 14.4646 8.46914 14.7071 9.19742 15.8383C10.9777 18.505 13.4053 20.3636 16.4803 20.3636ZM22.0637 10.4243C22.0637 11.8788 20.9308 12.8484 19.6361 12.8484C18.3414 12.8484 17.2085 11.8788 17.2085 10.4243C17.2085 8.96969 18.3414 8 19.6361 8C20.9308 8 22.0637 9.05052 22.0637 10.4243Z" fill="white" style="fill:white;fill-opacity:1;"/>
</svg>
