<svg width="48" height="36" viewBox="0 0 48 36" fill="none" xmlns="http://www.w3.org/2000/svg">
<rect width="48" height="36" rx="6" fill="#FF5B24" style="fill:#FF5B24;fill:color(display-p3 1.0000 0.3569 0.1412);fill-opacity:1;"/>
<path d="M24.9248 23.7273C28.8544 23.7273 31.0848 21.8181 33.209 19.0605C34.3773 17.5758 35.8641 17.2575 36.9263 18.1061C37.9883 18.9546 38.0945 20.5454 36.9263 22.0303C33.8463 26.0605 29.9166 28.5 24.9248 28.5C19.5082 28.5 14.7288 25.5303 11.4364 20.3332C10.4805 18.9546 10.6929 17.4697 11.755 16.7273C12.8171 15.9848 14.4102 16.303 15.366 17.7878C17.7027 21.2878 20.8889 23.7273 24.9248 23.7273ZM32.2531 10.6819C32.2531 12.5909 30.7661 13.8636 29.0669 13.8636C27.3676 13.8636 25.8806 12.5909 25.8806 10.6819C25.8806 8.77272 27.3676 7.5 29.0669 7.5C30.7661 7.5 32.2531 8.87881 32.2531 10.6819Z" fill="white" style="fill:white;fill-opacity:1;"/>
</svg>
