<svg width="40" height="40" viewBox="0 0 40 40" fill="none" xmlns="http://www.w3.org/2000/svg">
<rect width="40" height="40" rx="8.75" fill="#FF5B24" style="fill:#FF5B24;fill:color(display-p3 1.0000 0.3569 0.1412);fill-opacity:1;"/>
<path d="M20.6001 25.4546C24.3426 25.4546 26.4668 23.6363 28.4898 21.01C29.6025 19.596 31.0185 19.2928 32.0301 20.101C33.0415 20.9091 33.1427 22.4242 32.0301 23.8384C29.0967 27.6767 25.3542 30 20.6001 30C15.4414 30 10.8896 27.1717 7.75397 22.2221C6.84362 20.9091 7.04592 19.4949 8.05742 18.7879C9.06893 18.0807 10.5862 18.3839 11.4965 19.7979C13.7219 23.1312 16.7564 25.4546 20.6001 25.4546ZM27.5794 13.0303C27.5794 14.8484 26.1633 16.0606 24.5449 16.0606C22.9266 16.0606 21.5104 14.8484 21.5104 13.0303C21.5104 11.2121 22.9266 10 24.5449 10C26.1633 10 27.5794 11.3132 27.5794 13.0303Z" fill="white" style="fill:white;fill-opacity:1;"/>
</svg>
