<svg width="40" height="40" viewBox="0 0 40 40" fill="none" xmlns="http://www.w3.org/2000/svg">
<rect width="40" height="40" rx="10" fill="#1B16E6" style="fill:#1B16E6;fill:color(display-p3 0.1059 0.0863 0.9020);fill-opacity:1;"/>
<path fill-rule="evenodd" clip-rule="evenodd" d="M20.6575 18.1714C20.6398 19.5532 21.9003 20.3244 22.8498 20.7828C23.8254 21.2533 24.153 21.5549 24.1493 21.9756C24.1419 22.6194 23.3711 22.9035 22.6496 22.9146C21.3911 22.934 20.6594 22.5779 20.0776 22.3086L19.6243 24.4108C20.2079 24.6774 21.2887 24.9098 22.4095 24.92C25.0402 24.92 26.7614 23.6332 26.7707 21.6379C26.7809 19.1058 23.2361 18.9656 23.2603 17.8337C23.2687 17.4906 23.5991 17.1244 24.3234 17.0312C24.6818 16.9842 25.6713 16.9482 26.793 17.4602L27.2334 15.4262C26.6301 15.2085 25.8547 15 24.8893 15C22.4132 15 20.6715 16.3043 20.6575 18.1714ZM31.464 15.1753C30.9837 15.1753 30.5788 15.4529 30.3981 15.8791L26.6401 24.7706H29.269L29.7921 23.338H33.0046L33.308 24.7706H35.625L33.6033 15.1753H31.464ZM31.8329 17.7674L32.5916 21.3705H30.5139L31.8329 17.7674ZM17.4701 15.1753L15.3979 24.7706H17.9029L19.9741 15.1753H17.4701ZM13.7645 15.1753L11.157 21.7062L10.1024 16.1531C9.97855 15.5332 9.48983 15.1753 8.94712 15.1753H4.68458L4.625 15.4539C5.50004 15.642 6.49424 15.9455 7.09652 16.2702C7.46514 16.4686 7.57035 16.642 7.69136 17.1134L9.68905 24.7706H12.3365L16.3952 15.1753H13.7645Z" fill="white" style="fill:white;fill-opacity:1;"/>
</svg>
