<svg width="40" height="30" viewBox="0 0 40 30" fill="none" xmlns="http://www.w3.org/2000/svg">
<rect width="40" height="30" rx="5" fill="#1B16E6" style="fill:#1B16E6;fill:color(display-p3 0.1059 0.0863 0.9020);fill-opacity:1;"/>
<path d="M20.5153 13.1969C20.4982 14.5899 21.7178 15.3673 22.6368 15.8295C23.5808 16.3037 23.898 16.6078 23.8943 17.0318C23.8872 17.6809 23.1413 17.9673 22.4432 17.9784C21.2252 17.998 20.5171 17.639 19.9541 17.3675L19.5154 19.4867C20.0802 19.7554 21.126 19.9898 22.2107 20C24.7565 20 26.4222 18.7028 26.4312 16.6915C26.441 14.1389 23.0107 13.9976 23.034 12.8566C23.0422 12.5107 23.362 12.1415 24.0628 12.0476C24.4097 12.0002 25.3672 11.9639 26.4528 12.48L26.8788 10.4296C26.2952 10.2102 25.5447 10 24.6105 10C22.2143 10 20.5288 11.3149 20.5153 13.1969ZM30.9732 10.1767C30.5083 10.1767 30.1165 10.4566 29.9417 10.8862L26.305 19.8494H28.849L29.3553 18.4052H32.4642L32.7578 19.8494H35L33.0433 10.1767H30.9732ZM31.329 12.7897L32.0632 16.4218H30.0525L31.329 12.7897ZM17.4308 10.1767L15.4255 19.8494H17.8497L19.8541 10.1767H17.4308ZM13.8445 10.1767L11.3212 16.7603L10.3006 11.1624C10.1808 10.5375 9.70782 10.1767 9.18263 10.1767H5.05765L5 10.4575C5.8468 10.6472 6.8089 10.9531 7.39175 11.2804C7.74848 11.4804 7.85028 11.6552 7.96738 12.1304L9.9006 19.8494H12.4626L16.3903 10.1767H13.8445Z" fill="white" style="fill:white;fill-opacity:1;"/>
</svg>
