<svg width="16" height="16" viewBox="0 0 16 16" fill="none" xmlns="http://www.w3.org/2000/svg">
<rect width="16" height="16" rx="4" fill="#1B16E6" style="fill:#1B16E6;fill:color(display-p3 0.1059 0.0863 0.9020);fill-opacity:1;"/>
<g clip-path="url(#clip0_2180_574)">
<path fill-rule="evenodd" clip-rule="evenodd" d="M8.20614 7.22763C8.19929 7.76252 8.6872 8.06104 9.05475 8.23851C9.4324 8.42062 9.55924 8.53739 9.55779 8.70021C9.55491 8.94946 9.25655 9.05943 8.97728 9.06371C8.49009 9.07122 8.20686 8.93338 7.98165 8.82912L7.80616 9.64289C8.03209 9.74608 8.45045 9.83607 8.88431 9.84C9.90265 9.84 10.5689 9.34188 10.5725 8.56952C10.5765 7.58935 9.20429 7.53508 9.21367 7.09693C9.2169 6.96411 9.34483 6.82235 9.62518 6.78628C9.76391 6.76808 10.147 6.75415 10.5812 6.95233L10.7516 6.16497C10.5181 6.08069 10.2179 6 9.84426 6C8.88574 6 8.21154 6.50491 8.20614 7.22763ZM12.3893 6.06786C12.2034 6.06786 12.0466 6.17533 11.9767 6.34031L10.522 9.78217H11.5396L11.7421 9.22762H12.9857L13.1031 9.78217H14L13.2174 6.06786H12.3893ZM12.5321 7.07124L12.8258 8.46598H12.0215L12.5321 7.07124ZM6.97228 6.06786L6.17015 9.78217H7.13984L7.9416 6.06786H6.97228ZM5.53786 6.06786L4.52853 8.59595L4.12027 6.44635C4.07234 6.2064 3.88316 6.06786 3.67308 6.06786H2.02306L2 6.17569C2.33872 6.24854 2.72357 6.36602 2.95672 6.4917C3.09941 6.56847 3.14014 6.6356 3.18698 6.81808L3.96028 9.78217H4.9851L6.5562 6.06786H5.53786Z" fill="white" style="fill:white;fill-opacity:1;"/>
</g>
<defs>
<clipPath id="clip0_2180_574">
<rect width="12" height="4" fill="white" style="fill:white;fill-opacity:1;" transform="translate(2 6)"/>
</clipPath>
</defs>
</svg>
