<svg width="32" height="32" viewBox="0 0 32 32" fill="none" xmlns="http://www.w3.org/2000/svg">
<rect width="32" height="32" rx="8" fill="#1B16E6" style="fill:#1B16E6;fill:color(display-p3 0.1059 0.0863 0.9020);fill-opacity:1;"/>
<g clip-path="url(#clip0_19_396)">
<path fill-rule="evenodd" clip-rule="evenodd" d="M16.4123 14.4553C16.3986 15.525 17.3744 16.1221 18.1095 16.477C18.8648 16.8412 19.1185 17.0748 19.1156 17.4004C19.1098 17.8989 18.5131 18.1189 17.9546 18.1274C16.9802 18.1424 16.4137 17.8668 15.9633 17.6582L15.6123 19.2858C16.0642 19.4922 16.9009 19.6721 17.7686 19.68C19.8053 19.68 21.1378 18.6838 21.145 17.139C21.153 15.1787 18.4086 15.0702 18.4273 14.1939C18.4338 13.9282 18.6897 13.6447 19.2504 13.5726C19.5278 13.5362 20.2939 13.5083 21.1623 13.9047L21.5032 12.3299C21.0362 12.1614 20.4359 12 19.6885 12C17.7715 12 16.4231 13.0098 16.4123 14.4553ZM24.7786 12.1357C24.4067 12.1357 24.0932 12.3507 23.9534 12.6806L21.044 19.5643H23.0792L23.4842 18.4552H25.9713L26.2062 19.5643H28L26.4348 12.1357H24.7786ZM25.0642 14.1425L25.6516 16.932H24.043L25.0642 14.1425ZM13.9446 12.1357L12.3403 19.5643H14.2797L15.8832 12.1357H13.9446ZM11.0757 12.1357L9.05706 17.1919L8.24054 12.8927C8.14469 12.4128 7.76632 12.1357 7.34616 12.1357H4.04613L4 12.3514C4.67745 12.4971 5.44715 12.732 5.91344 12.9834C6.19882 13.1369 6.28027 13.2712 6.37396 13.6362L7.92056 19.5643H9.9702L13.1124 12.1357H11.0757Z" fill="white" style="fill:white;fill-opacity:1;"/>
</g>
<defs>
<clipPath id="clip0_19_396">
<rect width="24" height="8" fill="white" style="fill:white;fill-opacity:1;" transform="translate(4 12)"/>
</clipPath>
</defs>
</svg>
