<svg width="32" height="24" viewBox="0 0 32 24" fill="none" xmlns="http://www.w3.org/2000/svg">
<rect width="32" height="24" rx="4" fill="#1B16E6" style="fill:#1B16E6;fill:color(display-p3 0.1059 0.0863 0.9020);fill-opacity:1;"/>
<path d="M16.4122 10.5576C16.3985 11.6719 17.3743 12.2938 18.1095 12.6636C18.8647 13.043 19.1184 13.2862 19.1155 13.6254C19.1097 14.1447 18.5131 14.3738 17.9545 14.3827C16.9801 14.3984 16.4137 14.1112 15.9632 13.894L15.6123 15.5894C16.0641 15.8044 16.9008 15.9918 17.7685 16C19.8052 16 21.1377 14.9622 21.1449 13.3532C21.1528 11.3111 18.4085 11.1981 18.4272 10.2853C18.4337 10.0086 18.6896 9.71323 19.2503 9.63809C19.5277 9.60015 20.2937 9.57113 21.1623 9.984L21.5031 8.34368C21.0361 8.16812 20.4357 8 19.6884 8C17.7715 8 16.423 9.05189 16.4122 10.5576ZM24.7785 8.14135C24.4067 8.14135 24.0932 8.36525 23.9533 8.70895L21.044 15.8795H23.0792L23.4843 14.7242H25.9713L26.2063 15.8795H28L26.4347 8.14135H24.7785ZM25.0632 10.2317L25.6505 13.1374H24.042L25.0632 10.2317ZM13.9446 8.14135L12.3404 15.8795H14.2797L15.8833 8.14135H13.9446ZM11.0756 8.14135L9.057 13.4082L8.24047 8.92989C8.14461 8.42997 7.76625 8.14135 7.34611 8.14135H4.04612L4 8.366C4.67744 8.51776 5.44712 8.76251 5.9134 9.02436C6.19879 9.18431 6.28023 9.32416 6.37391 9.70429L7.92048 15.8795H9.97009L13.1122 8.14135H11.0756Z" fill="white" style="fill:white;fill-opacity:1;"/>
</svg>
