<svg width="48" height="36" viewBox="0 0 48 36" fill="none" xmlns="http://www.w3.org/2000/svg">
<rect width="48" height="36" rx="6" fill="#FBB427" style="fill:#FBB427;fill:color(display-p3 0.9843 0.7059 0.1529);fill-opacity:1;"/>
<rect x="0.75" y="0.75" width="46.5" height="34.5" rx="5.25" stroke="black" stroke-opacity="0.1" style="stroke:black;stroke-opacity:0.1;" stroke-width="1.5"/>
<g filter="url(#filter0_d_2740_2121)">
<path d="M6.52735 17.5929H18.9726C19.2638 17.5929 19.5 17.3481 19.5 17.046V15.863C19.5 15.5609 19.2638 15.3159 18.9726 15.3159H6.52735C6.23609 15.3159 6 15.5609 6 15.863V17.046C6 17.3481 6.23609 17.5929 6.52735 17.5929Z" fill="white" style="fill:white;fill-opacity:1;"/>
<path d="M7.2408 25.5H18.2592C18.5505 25.5 18.7865 25.2552 18.7865 24.9531V16.9615H6.71347V24.9531C6.71347 25.2552 6.94956 25.5 7.2408 25.5Z" fill="white" style="fill:white;fill-opacity:1;"/>
<path d="M18.7864 17.5929H6.71338V18.2762H18.7864V17.5929Z" fill="#FBB427" style="fill:#FBB427;fill:color(display-p3 0.9843 0.7059 0.1529);fill-opacity:1;"/>
<path d="M12.2801 25.5V15.3159H11.6216V25.5H12.2801Z" fill="#FBB427" style="fill:#FBB427;fill:color(display-p3 0.9843 0.7059 0.1529);fill-opacity:1;"/>
<path d="M13.9774 25.5V15.3159H13.3188V25.5H13.9774Z" fill="#FBB427" style="fill:#FBB427;fill:color(display-p3 0.9843 0.7059 0.1529);fill-opacity:1;"/>
<path d="M12.75 15.3159C12.6659 15.3159 12.5858 15.2787 12.5307 15.2119C12.4755 15.1462 12.4506 15.0589 12.4627 14.9728C12.4691 14.9277 13.118 10.5 16.5225 10.5C18.0221 10.5 18.5542 11.3404 18.5542 12.0598C18.5542 13.4118 16.7534 15.3159 12.75 15.3159ZM16.5225 11.102C14.1359 11.102 13.3223 13.7417 13.1046 14.708C16.2844 14.6056 17.9738 13.1331 17.9738 12.0598C17.9738 11.7925 17.8654 11.5722 17.6524 11.4066C17.397 11.2073 17.0058 11.102 16.5225 11.102Z" fill="white" style="fill:white;fill-opacity:1;"/>
<path d="M12.7503 15.3159C8.74693 15.3159 6.94604 13.4118 6.94604 12.0598C6.94604 11.6059 7.14278 11.2025 7.49913 10.925C7.85607 10.6469 8.36736 10.5 8.97791 10.5C12.3823 10.5 13.0312 14.9277 13.0376 14.9728C13.0498 15.0595 13.0248 15.1462 12.9697 15.2119C12.9145 15.2787 12.8344 15.3159 12.7503 15.3159ZM8.97791 11.102C8.08239 11.102 7.52642 11.4686 7.52642 12.0598C7.52642 13.1337 9.21703 14.6062 12.3986 14.7086C12.1879 13.7363 11.3946 11.102 8.97791 11.102Z" fill="white" style="fill:white;fill-opacity:1;"/>
</g>
<path fill-rule="evenodd" clip-rule="evenodd" d="M24.75 3.75C25.1642 3.75 25.5 4.08579 25.5 4.5V7.875C25.5 8.28921 25.1642 8.625 24.75 8.625C24.3358 8.625 24 8.28921 24 7.875V4.5C24 4.08579 24.3358 3.75 24.75 3.75ZM24.75 13.875C25.1642 13.875 25.5 14.2108 25.5 14.625V21.375C25.5 21.7892 25.1642 22.125 24.75 22.125C24.3358 22.125 24 21.7892 24 21.375V14.625C24 14.2108 24.3358 13.875 24.75 13.875ZM24.75 27.375C25.1642 27.375 25.5 27.7108 25.5 28.125V31.5C25.5 31.9142 25.1642 32.25 24.75 32.25C24.3358 32.25 24 31.9142 24 31.5V28.125C24 27.7108 24.3358 27.375 24.75 27.375Z" fill="white" style="fill:white;fill-opacity:1;"/>
<g filter="url(#filter1_d_2740_2121)">
<path fill-rule="evenodd" clip-rule="evenodd" d="M42 12.0821C42 11.2838 41.44 10.5862 40.71 10.6475C40.6329 10.6539 40.5585 10.6627 40.489 10.6741C38.3493 11.0262 38.1469 16.453 38.1774 19.1118C38.1868 19.9268 38.8035 20.5579 39.5511 20.5579H40.5801C41.3643 20.5579 42 19.8649 42 19.0099V12.0821ZM42 21.416C42 20.9421 41.6477 20.5581 41.2131 20.5581C40.8038 20.5581 40.4629 20.9 40.4288 21.3446L40.193 24.4312C40.149 25.0066 40.5654 25.5 41.0949 25.5C41.5947 25.5 42 25.0582 42 24.5133V21.416Z" fill="white" style="fill:white;fill-opacity:1;"/>
<path fill-rule="evenodd" clip-rule="evenodd" d="M34.0467 11.3823C34.0467 10.895 33.6844 10.5 33.2374 10.5C32.7904 10.5 32.428 10.895 32.428 11.3823V14.4705C32.428 14.7142 32.2469 14.9117 32.0234 14.9117C31.7999 14.9117 31.6187 14.7142 31.6187 14.4705V11.3824C31.6187 10.8951 31.2563 10.5 30.8093 10.5C30.3624 10.5 30 10.8951 30 11.3824V15.0761C30 15.2578 30.0287 15.4323 30.0815 15.5942C30.228 16.1948 30.5636 16.7115 31.0144 17.064C31.6668 17.5743 32.3543 18.2831 32.3142 19.1574L32.084 24.1781C32.0509 24.8974 32.5768 25.5 33.2374 25.5C33.8978 25.5 34.4237 24.8972 34.3906 24.1781L34.1605 19.1574C34.1203 18.2831 34.8079 17.5743 35.4602 17.064C35.9112 16.7115 36.2467 16.1947 36.3933 15.5939C36.4459 15.4319 36.4746 15.2576 36.4746 15.0761V14.9215V14.9117C36.4746 14.9117 36.4746 14.9118 36.4746 14.9117V11.3823C36.4746 10.895 36.1123 10.5 35.6653 10.5C35.2183 10.5 34.8559 10.895 34.8559 11.3823V14.4705C34.8559 14.7142 34.6747 14.9117 34.4513 14.9117C34.2278 14.9117 34.0467 14.7142 34.0467 14.4705V11.3823Z" fill="white" style="fill:white;fill-opacity:1;"/>
</g>
<defs>
<filter id="filter0_d_2740_2121" x="4.5" y="10.5" width="16.5" height="18" filterUnits="userSpaceOnUse" color-interpolation-filters="sRGB">
<feFlood flood-opacity="0" result="BackgroundImageFix"/>
<feColorMatrix in="SourceAlpha" type="matrix" values="0 0 0 0 0 0 0 0 0 0 0 0 0 0 0 0 0 0 127 0" result="hardAlpha"/>
<feOffset dy="1.5"/>
<feGaussianBlur stdDeviation="0.75"/>
<feColorMatrix type="matrix" values="0 0 0 0 0 0 0 0 0 0 0 0 0 0 0 0 0 0 0.07 0"/>
<feBlend mode="normal" in2="BackgroundImageFix" result="effect1_dropShadow_2740_2121"/>
<feBlend mode="normal" in="SourceGraphic" in2="effect1_dropShadow_2740_2121" result="shape"/>
</filter>
<filter id="filter1_d_2740_2121" x="28.5" y="10.5" width="15" height="18" filterUnits="userSpaceOnUse" color-interpolation-filters="sRGB">
<feFlood flood-opacity="0" result="BackgroundImageFix"/>
<feColorMatrix in="SourceAlpha" type="matrix" values="0 0 0 0 0 0 0 0 0 0 0 0 0 0 0 0 0 0 127 0" result="hardAlpha"/>
<feOffset dy="1.5"/>
<feGaussianBlur stdDeviation="0.75"/>
<feColorMatrix type="matrix" values="0 0 0 0 0 0 0 0 0 0 0 0 0 0 0 0 0 0 0.07 0"/>
<feBlend mode="normal" in2="BackgroundImageFix" result="effect1_dropShadow_2740_2121"/>
<feBlend mode="normal" in="SourceGraphic" in2="effect1_dropShadow_2740_2121" result="shape"/>
</filter>
</defs>
</svg>
