<svg width="56" height="42" viewBox="0 0 56 42" fill="none" xmlns="http://www.w3.org/2000/svg">
<rect width="56" height="42" rx="7" fill="#FBB427" style="fill:#FBB427;fill:color(display-p3 0.9843 0.7059 0.1529);fill-opacity:1;"/>
<rect x="0.875" y="0.875" width="54.25" height="40.25" rx="6.125" stroke="black" stroke-opacity="0.1" style="stroke:black;stroke-opacity:0.1;" stroke-width="1.75"/>
<g filter="url(#filter0_d_2740_2122)">
<path d="M7.61524 20.5251H22.1347C22.4745 20.5251 22.75 20.2395 22.75 19.887V18.5069C22.75 18.1544 22.4745 17.8686 22.1347 17.8686H7.61524C7.27544 17.8686 7 18.1544 7 18.5069V19.887C7 20.2395 7.27544 20.5251 7.61524 20.5251Z" fill="white" style="fill:white;fill-opacity:1;"/>
<path d="M8.4476 29.75H21.3025C21.6423 29.75 21.9176 29.4644 21.9176 29.1119V19.7885H7.83238V29.1119C7.83238 29.4644 8.10782 29.75 8.4476 29.75Z" fill="white" style="fill:white;fill-opacity:1;"/>
<path d="M21.9175 20.5251H7.83228V21.3222H21.9175V20.5251Z" fill="#FBB427" style="fill:#FBB427;fill:color(display-p3 0.9843 0.7059 0.1529);fill-opacity:1;"/>
<path d="M14.3269 29.75V17.8686H13.5586V29.75H14.3269Z" fill="#FBB427" style="fill:#FBB427;fill:color(display-p3 0.9843 0.7059 0.1529);fill-opacity:1;"/>
<path d="M16.3069 29.75V17.8686H15.5386V29.75H16.3069Z" fill="#FBB427" style="fill:#FBB427;fill:color(display-p3 0.9843 0.7059 0.1529);fill-opacity:1;"/>
<path d="M14.8751 17.8686C14.7769 17.8686 14.6835 17.8251 14.6191 17.7472C14.5548 17.6706 14.5257 17.5687 14.5399 17.4683C14.5474 17.4156 15.3044 12.25 19.2762 12.25C21.0259 12.25 21.6466 13.2305 21.6466 14.0697C21.6466 15.6472 19.5456 17.8686 14.8751 17.8686ZM19.2762 12.9523C16.492 12.9523 15.5427 16.032 15.2888 17.1593C18.9985 17.0399 20.9695 15.322 20.9695 14.0697C20.9695 13.7579 20.843 13.5008 20.5945 13.3077C20.2966 13.0752 19.8401 12.9523 19.2762 12.9523Z" fill="white" style="fill:white;fill-opacity:1;"/>
<path d="M14.8754 17.8686C10.2048 17.8686 8.10376 15.6472 8.10376 14.0697C8.10376 13.5402 8.33329 13.0696 8.74903 12.7458C9.16545 12.4214 9.76197 12.25 10.4743 12.25C14.4461 12.25 15.2031 17.4156 15.2106 17.4683C15.2248 17.5695 15.1957 17.6706 15.1313 17.7472C15.067 17.8251 14.9736 17.8686 14.8754 17.8686ZM10.4743 12.9523C9.4295 12.9523 8.78086 13.38 8.78086 14.0697C8.78086 15.3227 10.7532 17.0406 14.4651 17.16C14.2193 16.0257 13.2937 12.9523 10.4743 12.9523Z" fill="white" style="fill:white;fill-opacity:1;"/>
</g>
<path fill-rule="evenodd" clip-rule="evenodd" d="M28.875 4.375C29.3582 4.375 29.75 4.76675 29.75 5.25V9.1875C29.75 9.67075 29.3582 10.0625 28.875 10.0625C28.3918 10.0625 28 9.67075 28 9.1875V5.25C28 4.76675 28.3918 4.375 28.875 4.375ZM28.875 16.1875C29.3582 16.1875 29.75 16.5793 29.75 17.0625V24.9375C29.75 25.4207 29.3582 25.8125 28.875 25.8125C28.3918 25.8125 28 25.4207 28 24.9375V17.0625C28 16.5793 28.3918 16.1875 28.875 16.1875ZM28.875 31.9375C29.3582 31.9375 29.75 32.3293 29.75 32.8125V36.75C29.75 37.2332 29.3582 37.625 28.875 37.625C28.3918 37.625 28 37.2332 28 36.75V32.8125C28 32.3293 28.3918 31.9375 28.875 31.9375Z" fill="white" style="fill:white;fill-opacity:1;"/>
<g filter="url(#filter1_d_2740_2122)">
<path fill-rule="evenodd" clip-rule="evenodd" d="M49 14.0958C49 13.1645 48.3467 12.3505 47.4951 12.422C47.4051 12.4296 47.3183 12.4398 47.2373 12.4531C44.7409 12.8639 44.5048 19.1952 44.5404 22.2971C44.5514 23.2479 45.2708 23.9843 46.143 23.9843H47.3435C48.2584 23.9843 49 23.1757 49 22.1782V14.0958ZM49 24.9853C49 24.4325 48.589 23.9844 48.082 23.9844C47.6046 23.9844 47.2068 24.3834 47.1671 24.9021L46.8919 28.5031C46.8406 29.1744 47.3264 29.75 47.9442 29.75C48.5273 29.75 49 29.2346 49 28.5988V24.9853Z" fill="white" style="fill:white;fill-opacity:1;"/>
<path fill-rule="evenodd" clip-rule="evenodd" d="M39.7212 13.2794C39.7212 12.7109 39.2984 12.25 38.7769 12.25C38.2555 12.25 37.8327 12.7109 37.8327 13.2794V16.8823C37.8327 17.1666 37.6213 17.397 37.3606 17.397C37.0998 17.397 36.8885 17.1666 36.8885 16.8823V13.2795C36.8885 12.7109 36.4657 12.25 35.9442 12.25C35.4228 12.25 35 12.7109 35 13.2795V17.5888C35 17.8008 35.0335 18.0043 35.0951 18.1932C35.266 18.894 35.6575 19.4968 36.1834 19.908C36.9446 20.5033 37.7467 21.3303 37.6999 22.3503L37.4313 28.2078C37.3927 29.0469 38.0063 29.75 38.7769 29.75C39.5474 29.75 40.161 29.0467 40.1224 28.2078L39.8539 22.3503C39.807 21.3303 40.6093 20.5033 41.3703 19.908C41.8964 19.4968 42.2878 18.8938 42.4588 18.1929C42.5203 18.0039 42.5537 17.8006 42.5537 17.5888V17.4084V17.397C42.5537 17.397 42.5537 17.3971 42.5537 17.397V13.2794C42.5537 12.7109 42.131 12.25 41.6095 12.25C41.088 12.25 40.6652 12.7109 40.6652 13.2794V16.8823C40.6652 17.1666 40.4539 17.397 40.1931 17.397C39.9324 17.397 39.7212 17.1666 39.7212 16.8823V13.2794Z" fill="white" style="fill:white;fill-opacity:1;"/>
</g>
<defs>
<filter id="filter0_d_2740_2122" x="5.25" y="12.25" width="19.25" height="21" filterUnits="userSpaceOnUse" color-interpolation-filters="sRGB">
<feFlood flood-opacity="0" result="BackgroundImageFix"/>
<feColorMatrix in="SourceAlpha" type="matrix" values="0 0 0 0 0 0 0 0 0 0 0 0 0 0 0 0 0 0 127 0" result="hardAlpha"/>
<feOffset dy="1.75"/>
<feGaussianBlur stdDeviation="0.875"/>
<feColorMatrix type="matrix" values="0 0 0 0 0 0 0 0 0 0 0 0 0 0 0 0 0 0 0.07 0"/>
<feBlend mode="normal" in2="BackgroundImageFix" result="effect1_dropShadow_2740_2122"/>
<feBlend mode="normal" in="SourceGraphic" in2="effect1_dropShadow_2740_2122" result="shape"/>
</filter>
<filter id="filter1_d_2740_2122" x="33.25" y="12.25" width="17.5" height="21" filterUnits="userSpaceOnUse" color-interpolation-filters="sRGB">
<feFlood flood-opacity="0" result="BackgroundImageFix"/>
<feColorMatrix in="SourceAlpha" type="matrix" values="0 0 0 0 0 0 0 0 0 0 0 0 0 0 0 0 0 0 127 0" result="hardAlpha"/>
<feOffset dy="1.75"/>
<feGaussianBlur stdDeviation="0.875"/>
<feColorMatrix type="matrix" values="0 0 0 0 0 0 0 0 0 0 0 0 0 0 0 0 0 0 0.07 0"/>
<feBlend mode="normal" in2="BackgroundImageFix" result="effect1_dropShadow_2740_2122"/>
<feBlend mode="normal" in="SourceGraphic" in2="effect1_dropShadow_2740_2122" result="shape"/>
</filter>
</defs>
</svg>
