<svg width="64" height="64" viewBox="0 0 64 64" fill="none" xmlns="http://www.w3.org/2000/svg">
<rect width="64" height="64" rx="14" fill="#FDF59B" style="fill:#FDF59B;fill:color(display-p3 0.9922 0.9608 0.6078);fill-opacity:1;"/>
<g clip-path="url(#clip0_9303_163)">
<mask id="mask0_9303_163" style="mask-type:luminance" maskUnits="userSpaceOnUse" x="8" y="26" width="48" height="12">
<path d="M55.9757 26H8V37.0562H55.9757V26Z" fill="white" style="fill:white;fill-opacity:1;"/>
</mask>
<g mask="url(#mask0_9303_163)">
<path d="M44.6157 31.5334C44.6157 28.6448 46.6964 26.0106 50.2886 26.0106C53.8808 26.0106 55.9758 28.6448 55.9758 31.5334C55.9758 34.4221 53.8956 37.0562 50.2886 37.0562C46.6816 37.0562 44.6163 34.4221 44.6163 31.5334H44.6157ZM52.8178 31.5334C52.8178 30.1412 51.8896 28.8543 50.2886 28.8543C48.6874 28.8543 47.7592 30.1418 47.7592 31.5334C47.7592 32.925 48.7025 34.2125 50.2886 34.2125C51.8748 34.2125 52.8178 32.925 52.8178 31.5334Z" fill="#1D1C1C" style="fill:#1D1C1C;fill:color(display-p3 0.1137 0.1098 0.1098);fill-opacity:1;"/>
<path d="M42.407 33.5837C43.6045 32.91 44.3226 31.6232 44.3226 30.201C44.3226 28.0909 42.7807 26.2944 40.3861 26.2944H35.3574V36.7718H38.4707V34.0927H39.0545L40.8351 36.7718H44.5022L42.407 33.5837ZM39.7581 31.6831H38.4707V28.7196H39.7729C40.6113 28.7196 41.1501 29.3933 41.1501 30.2017C41.1501 31.0101 40.5962 31.6837 39.7581 31.6837V31.6831Z" fill="#1D1C1C" style="fill:#1D1C1C;fill:color(display-p3 0.1137 0.1098 0.1098);fill-opacity:1;"/>
<path d="M21.146 26.2838L19.2785 32.5283L17.4559 26.2838H14.9766L13.139 32.5283L11.2865 26.2838H8L11.7643 36.7412H14.4682L16.2159 31.0494L17.9493 36.7412H20.6676L24.4325 26.2838H21.146Z" fill="#1D1C1C" style="fill:#1D1C1C;fill:color(display-p3 0.1137 0.1098 0.1098);fill-opacity:1;"/>
<path d="M29.1433 34.1863C29.1433 34.1863 29.1383 34.1863 29.1358 34.1863C27.9713 34.1863 27.1548 33.4914 26.8043 32.5713H34.7158C34.7794 32.2251 34.8125 31.8709 34.8125 31.5122C34.8125 28.631 32.7386 26.0037 29.1433 26V28.8387C30.3147 28.8419 31.1231 29.5355 31.4699 30.4537H23.5696C23.5066 30.7998 23.4741 31.1541 23.4741 31.5128C23.4741 34.3958 25.5506 37.0256 29.1358 37.0256C29.1383 37.0256 29.1408 37.0256 29.1433 37.0256V34.1869V34.1863Z" fill="#1D1C1C" style="fill:#1D1C1C;fill:color(display-p3 0.1137 0.1098 0.1098);fill-opacity:1;"/>
<path d="M29.1354 37.025C29.257 37.025 29.3768 37.0213 29.4953 37.0157C30.2238 36.9789 30.885 36.8323 31.4744 36.5959C32.0638 36.3595 32.5816 36.0345 33.0219 35.6415C33.4623 35.2485 33.8259 34.7882 34.1079 34.2811C34.3642 33.8201 34.5513 33.3211 34.6686 32.8003H31.3721C31.3048 32.9394 31.2262 33.0722 31.1363 33.1964C31.0135 33.366 30.8694 33.5201 30.706 33.653C30.5425 33.7858 30.3592 33.8981 30.1571 33.9848C29.955 34.0715 29.7348 34.1326 29.4965 34.1632C29.3805 34.1782 29.2608 34.1869 29.1366 34.1869C28.395 34.1869 27.7944 33.9043 27.3658 33.4621L25.2227 35.6053C26.1763 36.4761 27.4993 37.025 29.1372 37.025H29.1354Z" fill="url(#paint0_linear_9303_163)" style=""/>
<path d="M29.1354 26C26.0946 26 24.1392 27.8912 23.6152 30.2254H26.9024C27.2953 29.4213 28.0694 28.8387 29.1354 28.8387C29.9849 28.8387 30.6442 29.2018 31.0752 29.7507L33.2377 27.5881C32.2715 26.6206 30.8825 26.0006 29.1347 26.0006L29.1354 26Z" fill="url(#paint1_linear_9303_163)" style=""/>
</g>
</g>
<defs>
<linearGradient id="paint0_linear_9303_163" x1="33.0094" y1="30.861" x2="28.1584" y2="36.8702" gradientUnits="userSpaceOnUse">
<stop offset="0.02" stop-color="#1D1C1C" stop-opacity="0" style="stop-color:none;stop-opacity:0;"/>
<stop offset="0.39" stop-color="#1D1C1C" stop-opacity="0.66" style="stop-color:#1D1C1C;stop-color:color(display-p3 0.1137 0.1098 0.1098);stop-opacity:0.66;"/>
<stop offset="0.68" stop-color="#1D1C1C" style="stop-color:#1D1C1C;stop-color:color(display-p3 0.1137 0.1098 0.1098);stop-opacity:1;"/>
</linearGradient>
<linearGradient id="paint1_linear_9303_163" x1="24.5222" y1="32.207" x2="29.5066" y2="27.2227" gradientUnits="userSpaceOnUse">
<stop offset="0.02" stop-color="#1D1C1C" stop-opacity="0" style="stop-color:none;stop-opacity:0;"/>
<stop offset="0.39" stop-color="#1D1C1C" stop-opacity="0.66" style="stop-color:#1D1C1C;stop-color:color(display-p3 0.1137 0.1098 0.1098);stop-opacity:0.66;"/>
<stop offset="0.68" stop-color="#1D1C1C" style="stop-color:#1D1C1C;stop-color:color(display-p3 0.1137 0.1098 0.1098);stop-opacity:1;"/>
</linearGradient>
<clipPath id="clip0_9303_163">
<rect width="48" height="11.0562" fill="white" style="fill:white;fill-opacity:1;" transform="translate(8 26)"/>
</clipPath>
</defs>
</svg>
