<svg width="16" height="16" viewBox="0 0 16 16" fill="none" xmlns="http://www.w3.org/2000/svg">
<rect width="16" height="16" rx="3.5" fill="#FDF59B" style="fill:#FDF59B;fill:color(display-p3 0.9922 0.9608 0.6078);fill-opacity:1;"/>
<g clip-path="url(#clip0_9303_115)">
<mask id="mask0_9303_115" style="mask-type:luminance" maskUnits="userSpaceOnUse" x="2" y="6" width="12" height="4">
<path d="M13.9939 6.5H2V9.26405H13.9939V6.5Z" fill="white" style="fill:white;fill-opacity:1;"/>
</mask>
<g mask="url(#mask0_9303_115)">
<path d="M11.1538 7.88338C11.1538 7.16122 11.674 6.50269 12.572 6.50269C13.4701 6.50269 13.9938 7.16122 13.9938 7.88338C13.9938 8.60554 13.4738 9.26408 12.572 9.26408C11.6703 9.26408 11.1539 8.60554 11.1539 7.88338H11.1538ZM13.2043 7.88338C13.2043 7.53533 12.9723 7.21362 12.572 7.21362C12.1717 7.21362 11.9397 7.53548 11.9397 7.88338C11.9397 8.23129 12.1755 8.55315 12.572 8.55315C12.9686 8.55315 13.2043 8.23129 13.2043 7.88338Z" fill="#1D1C1C" style="fill:#1D1C1C;fill:color(display-p3 0.1137 0.1098 0.1098);fill-opacity:1;"/>
<path d="M10.6017 8.39593C10.9011 8.22751 11.0807 7.90581 11.0807 7.55026C11.0807 7.02272 10.6952 6.57361 10.0965 6.57361H8.83936V9.19294H9.61767V8.52318H9.76363L10.2088 9.19294H11.1256L10.6017 8.39593ZM9.93951 7.92078H9.61767V7.17991H9.94322C10.1528 7.17991 10.2875 7.34832 10.2875 7.55042C10.2875 7.75252 10.149 7.92093 9.93951 7.92093V7.92078Z" fill="#1D1C1C" style="fill:#1D1C1C;fill:color(display-p3 0.1137 0.1098 0.1098);fill-opacity:1;"/>
<path d="M5.2865 6.57092L4.81962 8.13204L4.36398 6.57092H3.74414L3.28475 8.13204L2.82162 6.57092H2L2.94107 9.18527H3.61705L4.05398 7.76231L4.48732 9.18527H5.16689L6.10812 6.57092H5.2865Z" fill="#1D1C1C" style="fill:#1D1C1C;fill:color(display-p3 0.1137 0.1098 0.1098);fill-opacity:1;"/>
<path d="M7.28595 8.54657C7.28595 8.54657 7.28471 8.54657 7.28408 8.54657C6.99295 8.54657 6.78883 8.37284 6.7012 8.14283H8.67908C8.69498 8.05629 8.70325 7.96771 8.70325 7.87804C8.70325 7.15776 8.18477 6.50094 7.28595 6.5V7.20969C7.5788 7.21047 7.78089 7.38387 7.86759 7.61342H5.89251C5.87676 7.69996 5.86865 7.78854 5.86865 7.8782C5.86865 8.59896 6.38777 9.25641 7.28408 9.25641C7.28471 9.25641 7.28533 9.25641 7.28595 9.25641V8.54672V8.54657Z" fill="#1D1C1C" style="fill:#1D1C1C;fill:color(display-p3 0.1137 0.1098 0.1098);fill-opacity:1;"/>
<path d="M7.28385 9.25626C7.31425 9.25626 7.34419 9.25532 7.37382 9.25392C7.55596 9.24471 7.72125 9.20807 7.8686 9.14897C8.01596 9.08987 8.14539 9.00862 8.25548 8.91038C8.36557 8.81213 8.45648 8.69706 8.52697 8.57027C8.59105 8.45503 8.63783 8.33028 8.66715 8.20007H7.84303C7.82619 8.23485 7.80654 8.26806 7.78408 8.29909C7.75337 8.3415 7.71735 8.38003 7.67649 8.41324C7.63563 8.44646 7.58979 8.47452 7.53927 8.4962C7.48874 8.51788 7.4337 8.53316 7.37414 8.5408C7.34513 8.54454 7.31519 8.54672 7.28416 8.54672C7.09875 8.54672 6.94859 8.47609 6.84146 8.36552L6.30566 8.90133C6.54409 9.11903 6.87483 9.25626 7.28431 9.25626H7.28385Z" fill="url(#paint0_linear_9303_115)" style=""/>
<path d="M7.28384 6.5C6.52366 6.5 6.0348 6.97281 5.90381 7.55634H6.72559C6.82383 7.35533 7.01735 7.20969 7.28384 7.20969C7.49622 7.20969 7.66105 7.30044 7.7688 7.43767L8.30942 6.89702C8.06788 6.65516 7.72062 6.50016 7.28368 6.50016L7.28384 6.5Z" fill="url(#paint1_linear_9303_115)" style=""/>
</g>
</g>
<defs>
<linearGradient id="paint0_linear_9303_115" x1="8.25236" y1="7.71525" x2="7.03961" y2="9.21755" gradientUnits="userSpaceOnUse">
<stop offset="0.02" stop-color="#1D1C1C" stop-opacity="0" style="stop-color:none;stop-opacity:0;"/>
<stop offset="0.39" stop-color="#1D1C1C" stop-opacity="0.66" style="stop-color:#1D1C1C;stop-color:color(display-p3 0.1137 0.1098 0.1098);stop-opacity:0.66;"/>
<stop offset="0.68" stop-color="#1D1C1C" style="stop-color:#1D1C1C;stop-color:color(display-p3 0.1137 0.1098 0.1098);stop-opacity:1;"/>
</linearGradient>
<linearGradient id="paint1_linear_9303_115" x1="6.13054" y1="8.05176" x2="7.37666" y2="6.80568" gradientUnits="userSpaceOnUse">
<stop offset="0.02" stop-color="#1D1C1C" stop-opacity="0" style="stop-color:none;stop-opacity:0;"/>
<stop offset="0.39" stop-color="#1D1C1C" stop-opacity="0.66" style="stop-color:#1D1C1C;stop-color:color(display-p3 0.1137 0.1098 0.1098);stop-opacity:0.66;"/>
<stop offset="0.68" stop-color="#1D1C1C" style="stop-color:#1D1C1C;stop-color:color(display-p3 0.1137 0.1098 0.1098);stop-opacity:1;"/>
</linearGradient>
<clipPath id="clip0_9303_115">
<rect width="12" height="2.76404" fill="white" style="fill:white;fill-opacity:1;" transform="translate(2 6.5)"/>
</clipPath>
</defs>
</svg>
