<svg width="32" height="24" viewBox="0 0 32 24" fill="none" xmlns="http://www.w3.org/2000/svg">
<g clip-path="url(#clip0_4013_140)">
<rect width="32" height="24" fill="#FA5022" style="fill:#FA5022;fill:color(display-p3 0.9804 0.3137 0.1333);fill-opacity:1;"/>
<g clip-path="url(#clip1_4013_140)">
<path d="M26.6418 10.3204V10.969C26.2434 10.4974 25.6651 10.2027 24.9784 10.2027C23.6534 10.2027 22.6268 11.2968 22.6268 12.6471C22.6268 13.9974 23.6534 15.0914 24.9784 15.0914C25.7134 15.0914 26.3243 14.7544 26.7234 14.2236V14.9745H27.9909V10.3204H26.6418ZM25.3076 13.9258C24.5709 13.9258 23.9743 13.3534 23.9743 12.6471C23.9743 11.9407 24.5709 11.3683 25.3076 11.3683C26.0443 11.3683 26.6409 11.9407 26.6409 12.6471C26.6409 13.3534 26.0443 13.9258 25.3076 13.9258ZM11.1043 9.02857H12.4526V14.9737H11.1043V9.02857ZM14.0034 12.3362C14.0034 11.0567 14.8543 10.2034 16.0326 10.2034C16.7643 10.2034 17.3426 10.5035 17.6909 11.0152C18.0401 10.5035 18.6176 10.2034 19.3493 10.2034C20.5276 10.2034 21.3784 11.0567 21.3784 12.3362V14.9745H20.0301V12.2016C20.0301 11.7022 19.6718 11.3768 19.1976 11.3768C18.7234 11.3768 18.3651 11.703 18.3651 12.2016V14.9745H17.0168V12.2016C17.0168 11.7022 16.6584 11.3768 16.1842 11.3768C15.7101 11.3768 15.3518 11.703 15.3518 12.2016V14.9745H14.0034V12.3362ZM8.66258 10.3689C8.34342 9.26478 7.66842 8.91162 7.02592 8.91162C6.38342 8.91162 5.70842 9.26478 5.38925 10.3689L4.00342 14.9753H5.36925C5.59175 14.2059 6.27758 13.7773 7.02592 13.7773C7.77425 13.7773 8.46008 14.2066 8.68258 14.9753H10.0493L8.66258 10.3689ZM7.02592 12.704C6.59092 12.704 6.19675 12.8563 5.90592 13.1033L6.68925 10.4227C6.76425 10.1665 6.87508 10.085 7.02675 10.085C7.17842 10.085 7.28925 10.1665 7.36425 10.4227L8.14675 13.1033C7.85592 12.8563 7.46092 12.704 7.02592 12.704Z" fill="white" style="fill:white;fill-opacity:1;"/>
</g>
</g>
<defs>
<clipPath id="clip0_4013_140">
<rect width="32" height="24" rx="4" fill="white" style="fill:white;fill-opacity:1;"/>
</clipPath>
<clipPath id="clip1_4013_140">
<rect width="25" height="7" fill="white" style="fill:white;fill-opacity:1;" transform="translate(3.5 8.5)"/>
</clipPath>
</defs>
</svg>
