<svg width="16" height="16" viewBox="0 0 16 16" fill="none" xmlns="http://www.w3.org/2000/svg">
<rect width="16" height="16" rx="4" fill="#FA5022" style="fill:#FA5022;fill:color(display-p3 0.9804 0.3137 0.1333);fill-opacity:1;"/>
<g clip-path="url(#clip0_4013_98)">
<path d="M12.2567 7.28015V7.55812C12.0974 7.35599 11.8661 7.2297 11.5914 7.2297C11.0614 7.2297 10.6507 7.69859 10.6507 8.27729C10.6507 8.85599 11.0614 9.32489 11.5914 9.32489C11.8854 9.32489 12.1297 9.18046 12.2894 8.95294V9.27476H12.7964V7.28015H12.2567ZM11.7231 8.82533C11.4284 8.82533 11.1897 8.58 11.1897 8.27729C11.1897 7.97459 11.4284 7.72926 11.7231 7.72926C12.0177 7.72926 12.2564 7.97459 12.2564 8.27729C12.2564 8.58 12.0177 8.82533 11.7231 8.82533ZM6.04175 6.72651H6.58108V9.27444H6.04175V6.72651ZM7.20142 8.14408C7.20142 7.59571 7.54175 7.23003 8.01308 7.23003C8.30575 7.23003 8.53708 7.35863 8.67642 7.57791C8.81608 7.35863 9.04708 7.23003 9.33975 7.23003C9.81108 7.23003 10.1514 7.59571 10.1514 8.14408V9.27476H9.61208V8.08637C9.61208 7.87237 9.46875 7.73289 9.27908 7.73289C9.08942 7.73289 8.94608 7.8727 8.94608 8.08637V9.27476H8.40675V8.08637C8.40675 7.87237 8.26342 7.73289 8.07375 7.73289C7.88408 7.73289 7.74075 7.8727 7.74075 8.08637V9.27476H7.20142V8.14408ZM5.06508 7.30092C4.93742 6.82774 4.66742 6.67639 4.41042 6.67639C4.15342 6.67639 3.88342 6.82774 3.75575 7.30092L3.20142 9.27509H3.74775C3.83675 8.94535 4.11108 8.76168 4.41042 8.76168C4.70975 8.76168 4.98408 8.94568 5.07308 9.27509H5.61975L5.06508 7.30092ZM4.41042 8.30169C4.23642 8.30169 4.07875 8.36698 3.96242 8.47283L4.27575 7.32401C4.30575 7.2142 4.35008 7.17925 4.41075 7.17925C4.47142 7.17925 4.51575 7.2142 4.54575 7.32401L4.85875 8.47283C4.74242 8.36698 4.58442 8.30169 4.41042 8.30169Z" fill="white" style="fill:white;fill-opacity:1;"/>
</g>
<defs>
<clipPath id="clip0_4013_98">
<rect width="10" height="3" fill="white" style="fill:white;fill-opacity:1;" transform="translate(3 6.5)"/>
</clipPath>
</defs>
</svg>
