<svg width="40" height="30" viewBox="0 0 40 30" fill="none" xmlns="http://www.w3.org/2000/svg">
<g clip-path="url(#clip0_4013_132)">
<rect width="40" height="30" fill="#FA5022" style="fill:#FA5022;fill:color(display-p3 0.9804 0.3137 0.1333);fill-opacity:1;"/>
<path d="M32.3445 12.8405V13.6744C31.8824 13.068 31.2115 12.6892 30.415 12.6892C28.878 12.6892 27.6871 14.0958 27.6871 15.8319C27.6871 17.568 28.878 18.9747 30.415 18.9747C31.2676 18.9747 31.9762 18.5414 32.4392 17.8589V18.8244H33.9095V12.8405H32.3445ZM30.7968 17.476C29.9423 17.476 29.2502 16.7401 29.2502 15.8319C29.2502 14.9238 29.9423 14.1878 30.7968 14.1878C31.6514 14.1878 32.3435 14.9238 32.3435 15.8319C32.3435 16.7401 31.6514 17.476 30.7968 17.476ZM14.321 11.1796H15.885V18.8234H14.321V11.1796ZM17.684 15.4323C17.684 13.7872 18.671 12.6902 20.0378 12.6902C20.8866 12.6902 21.5574 13.0759 21.9615 13.7338C22.3665 13.0759 23.0364 12.6902 23.8852 12.6902C25.252 12.6902 26.239 13.7872 26.239 15.4323V18.8244H24.6749V15.2592C24.6749 14.6172 24.2593 14.1987 23.7092 14.1987C23.1592 14.1987 22.7435 14.6182 22.7435 15.2592V18.8244H21.1795V15.2592C21.1795 14.6172 20.7638 14.1987 20.2137 14.1987C19.6637 14.1987 19.248 14.6182 19.248 15.2592V18.8244H17.684V15.4323ZM11.4886 12.9028C11.1184 11.4833 10.3354 11.0292 9.59008 11.0292C8.84478 11.0292 8.06178 11.4833 7.69155 12.9028L6.08398 18.8253H7.66835C7.92645 17.8361 8.72202 17.2851 9.59008 17.2851C10.4582 17.2851 11.2537 17.8371 11.5118 18.8253H13.0972L11.4886 12.9028ZM9.59008 15.9051C9.08548 15.9051 8.62825 16.101 8.29088 16.4186L9.19955 12.9721C9.28655 12.6427 9.41512 12.5378 9.59105 12.5378C9.76698 12.5378 9.89555 12.6427 9.98255 12.9721L10.8903 16.4186C10.5529 16.101 10.0947 15.9051 9.59008 15.9051Z" fill="white" style="fill:white;fill-opacity:1;"/>
</g>
<defs>
<clipPath id="clip0_4013_132">
<rect width="40" height="30" rx="5" fill="white" style="fill:white;fill-opacity:1;"/>
</clipPath>
</defs>
</svg>
