<svg width="48" height="36" viewBox="0 0 48 36" fill="none" xmlns="http://www.w3.org/2000/svg">
<g clip-path="url(#clip0_4013_124)">
<rect width="48" height="36" fill="#FA5022" style="fill:#FA5022;fill:color(display-p3 0.9804 0.3137 0.1333);fill-opacity:1;"/>
<path d="M39.7496 15.3606V16.3799C39.1601 15.6387 38.3041 15.1756 37.2879 15.1756C35.3269 15.1756 33.8074 16.8949 33.8074 19.0168C33.8074 21.1387 35.3269 22.858 37.2879 22.858C38.3757 22.858 39.2797 22.3284 39.8705 21.4942V22.6742H41.7464V15.3606H39.7496ZM37.775 21.0263C36.6848 21.0263 35.8017 20.1267 35.8017 19.0168C35.8017 17.9069 36.6848 17.0074 37.775 17.0074C38.8653 17.0074 39.7484 17.9069 39.7484 19.0168C39.7484 20.1267 38.8653 21.0263 37.775 21.0263ZM16.7541 13.3306H18.7496V22.673H16.7541V13.3306ZM21.0449 18.5284C21.0449 16.5177 22.3041 15.1769 24.048 15.1769C25.1309 15.1769 25.9868 15.6484 26.5024 16.4524C27.0191 15.6484 27.8738 15.1769 28.9567 15.1769C30.7006 15.1769 31.9599 16.5177 31.9599 18.5284V22.6742H29.9643V18.3168C29.9643 17.5321 29.434 17.0207 28.7322 17.0207C28.0305 17.0207 27.5001 17.5333 27.5001 18.3168V22.6742H25.5046V18.3168C25.5046 17.5321 24.9743 17.0207 24.2725 17.0207C23.5707 17.0207 23.0404 17.5333 23.0404 18.3168V22.6742H21.0449V18.5284ZM13.1404 15.4368C12.6681 13.7018 11.6691 13.1469 10.7182 13.1469C9.76727 13.1469 8.76827 13.7018 8.29591 15.4368L6.24487 22.6754H8.26631C8.59561 21.4664 9.61064 20.7929 10.7182 20.7929C11.8257 20.7929 12.8407 21.4676 13.17 22.6754H15.1927L13.1404 15.4368ZM10.7182 19.1063C10.0744 19.1063 9.49101 19.3457 9.06057 19.7338L10.2199 15.5214C10.3309 15.1188 10.4949 14.9907 10.7194 14.9907C10.9439 14.9907 11.1079 15.1188 11.2189 15.5214L12.377 19.7338C11.9466 19.3457 11.362 19.1063 10.7182 19.1063Z" fill="white" style="fill:white;fill-opacity:1;"/>
</g>
<defs>
<clipPath id="clip0_4013_124">
<rect width="48" height="36" rx="6" fill="white" style="fill:white;fill-opacity:1;"/>
</clipPath>
</defs>
</svg>
