<svg width="64" height="48" viewBox="0 0 64 48" fill="none" xmlns="http://www.w3.org/2000/svg">
<g clip-path="url(#clip0_4013_106)">
<rect width="64" height="48" fill="#FA5022" style="fill:#FA5022;fill:color(display-p3 0.9804 0.3137 0.1333);fill-opacity:1;"/>
<path d="M53.7091 20.4009V21.7907C52.8965 20.7801 51.7167 20.1486 50.3159 20.1486C47.6129 20.1486 45.5185 22.4931 45.5185 25.3866C45.5185 28.2801 47.6129 30.6246 50.3159 30.6246C51.8153 30.6246 53.0614 29.9024 53.8757 28.7648V30.3739H56.4614V20.4009H53.7091ZM50.9874 28.1267C49.4846 28.1267 48.2674 26.9001 48.2674 25.3866C48.2674 23.8731 49.4846 22.6464 50.9874 22.6464C52.4902 22.6464 53.7074 23.8731 53.7074 25.3866C53.7074 26.9001 52.4902 28.1267 50.9874 28.1267ZM22.0126 17.6327H24.7632V30.3723H22.0126V17.6327ZM27.9269 24.7205C27.9269 21.9787 29.6626 20.1503 32.0664 20.1503C33.559 20.1503 34.7388 20.7933 35.4494 21.8897C36.1617 20.7933 37.3398 20.1503 38.8324 20.1503C41.2362 20.1503 42.9719 21.9787 42.9719 24.7205V30.3739H40.2213V24.432C40.2213 23.362 39.4903 22.6646 38.523 22.6646C37.5557 22.6646 36.8247 23.3636 36.8247 24.432V30.3739H34.0741V24.432C34.0741 23.362 33.3431 22.6646 32.3758 22.6646C31.4085 22.6646 30.6775 23.3636 30.6775 24.432V30.3739H27.9269V24.7205ZM17.0316 20.5047C16.3805 18.1388 15.0035 17.3821 13.6928 17.3821C12.3821 17.3821 11.0051 18.1388 10.354 20.5047L7.52686 30.3756H10.3132C10.7671 28.7269 12.1662 27.8085 13.6928 27.8085C15.2194 27.8085 16.6185 28.7285 17.0724 30.3756H19.8604L17.0316 20.5047ZM13.6928 25.5086C12.8054 25.5086 12.0013 25.835 11.408 26.3643L13.006 20.6202C13.159 20.0711 13.3851 19.8964 13.6945 19.8964C14.0039 19.8964 14.23 20.0711 14.383 20.6202L15.9793 26.3643C15.386 25.835 14.5802 25.5086 13.6928 25.5086Z" fill="white" style="fill:white;fill-opacity:1;"/>
</g>
<defs>
<clipPath id="clip0_4013_106">
<rect width="64" height="48" rx="8" fill="white" style="fill:white;fill-opacity:1;"/>
</clipPath>
</defs>
</svg>
