<svg width="40" height="40" viewBox="0 0 40 40" fill="none" xmlns="http://www.w3.org/2000/svg">
<rect width="40" height="40" rx="10" fill="#FA5022" style="fill:#FA5022;fill:color(display-p3 0.9804 0.3137 0.1333);fill-opacity:1;"/>
<path d="M32.3445 17.8405V18.6744C31.8824 18.068 31.2115 17.6892 30.415 17.6892C28.878 17.6892 27.6871 19.0958 27.6871 20.8319C27.6871 22.568 28.878 23.9747 30.415 23.9747C31.2676 23.9747 31.9762 23.5414 32.4392 22.8589V23.8244H33.9095V17.8405H32.3445ZM30.7968 22.476C29.9423 22.476 29.2502 21.7401 29.2502 20.8319C29.2502 19.9238 29.9423 19.1878 30.7968 19.1878C31.6514 19.1878 32.3435 19.9238 32.3435 20.8319C32.3435 21.7401 31.6514 22.476 30.7968 22.476ZM14.321 16.1796H15.885V23.8234H14.321V16.1796ZM17.684 20.4323C17.684 18.7872 18.671 17.6902 20.0378 17.6902C20.8866 17.6902 21.5574 18.0759 21.9615 18.7338C22.3665 18.0759 23.0364 17.6902 23.8852 17.6902C25.252 17.6902 26.239 18.7872 26.239 20.4323V23.8244H24.6749V20.2592C24.6749 19.6172 24.2593 19.1987 23.7092 19.1987C23.1592 19.1987 22.7435 19.6182 22.7435 20.2592V23.8244H21.1795V20.2592C21.1795 19.6172 20.7638 19.1987 20.2137 19.1987C19.6637 19.1987 19.248 19.6182 19.248 20.2592V23.8244H17.684V20.4323ZM11.4886 17.9028C11.1184 16.4833 10.3354 16.0292 9.59008 16.0292C8.84478 16.0292 8.06178 16.4833 7.69155 17.9028L6.08398 23.8253H7.66835C7.92645 22.8361 8.72202 22.2851 9.59008 22.2851C10.4582 22.2851 11.2537 22.8371 11.5118 23.8253H13.0972L11.4886 17.9028ZM9.59008 20.9051C9.08548 20.9051 8.62825 21.101 8.29088 21.4186L9.19955 17.9721C9.28655 17.6427 9.41512 17.5378 9.59105 17.5378C9.76698 17.5378 9.89555 17.6427 9.98255 17.9721L10.8903 21.4186C10.5529 21.101 10.0947 20.9051 9.59008 20.9051Z" fill="white" style="fill:white;fill-opacity:1;"/>
</svg>
