<svg width="64" height="64" viewBox="0 0 64 64" fill="none" xmlns="http://www.w3.org/2000/svg">
<g clip-path="url(#clip0_2250_533)">
<rect width="64" height="64" rx="14" fill="#016FD0" style="fill:#016FD0;fill:color(display-p3 0.0039 0.4353 0.8157);fill-opacity:1;"/>
<path d="M0 64.0001H64V6.10352e-05H0V64.0001Z" fill="#006FCF" style="fill:#006FCF;fill:color(display-p3 0.0000 0.4353 0.8118);fill-opacity:1;"/>
<path d="M23.1843 53.8732L48.4905 53.9269L52.4649 49.493L56.4677 53.9102H63.9999V47.4411L59.2824 42.3535L63.9999 37.3121V30.9776L23.1843 30.9409V53.8732Z" fill="white" style="fill:white;fill-opacity:1;"/>
<path fill-rule="evenodd" clip-rule="evenodd" d="M25.9106 51.359V33.4646H41.0833V37.5868H30.823V40.385H40.8386V44.4388H30.823V47.1873H41.0833V51.359L25.9106 51.359Z" fill="#006FCF" style="fill:#006FCF;fill:color(display-p3 0.0000 0.4353 0.8118);fill-opacity:1;"/>
<path d="M57.7809 33.4648L52.636 39.1365L47.5059 33.4648H41.0074L49.4032 42.4016L41.0076 51.359H47.3293L52.497 45.6305L57.7182 51.359H64V51.105L55.7831 42.4016L64 33.6058V33.4648H57.7809Z" fill="#006FCF" style="fill:#006FCF;fill:color(display-p3 0.0000 0.4353 0.8118);fill-opacity:1;"/>
<path d="M54.725 10.5865L52.6233 16.4654L50.5287 10.5865H38.3824V18.4331L34.9266 10.5865H25.0879L14.9831 33.5188H64V10.5865H54.725Z" fill="white" style="fill:white;fill-opacity:1;"/>
<path fill-rule="evenodd" clip-rule="evenodd" d="M27.6331 23.3643L30.0142 17.6727L32.3937 23.3643H27.6331ZM26.9507 13.0779L19.0109 30.9571H24.4567L25.9545 27.377H34.0712L35.568 30.9571H41.1491L33.2422 13.0779H26.9507Z" fill="#006FCF" style="fill:#006FCF;fill:color(display-p3 0.0000 0.4353 0.8118);fill-opacity:1;"/>
<path d="M41.0747 30.9541L45.8893 30.9542V18.6729L50.457 30.9542H54.7842L59.2591 18.7146V30.9959L63.9999 30.9542V13.075H56.6326L52.6682 24.0931L48.7296 13.1014L41.0747 13.0749V30.9541Z" fill="#006FCF" style="fill:#006FCF;fill:color(display-p3 0.0000 0.4353 0.8118);fill-opacity:1;"/>
</g>
<defs>
<clipPath id="clip0_2250_533">
<rect width="64" height="64" rx="14" fill="white" style="fill:white;fill-opacity:1;"/>
</clipPath>
</defs>
</svg>
