<svg width="32" height="24" viewBox="0 0 32 24" fill="none" xmlns="http://www.w3.org/2000/svg">
<rect x="0.5" y="0.5" width="31" height="23" rx="3.5" fill="white" style="fill:white;fill-opacity:1;"/>
<rect x="0.5" y="0.5" width="31" height="23" rx="3.5" stroke="black" style="stroke:black;stroke-opacity:1;"/>
<path d="M8.38964 8.28949C8.66309 7.94238 8.84865 7.47628 8.79972 7C8.39942 7.02021 7.91096 7.26802 7.62815 7.61542C7.37422 7.91291 7.14947 8.3985 7.20805 8.85483C7.6574 8.89438 8.10634 8.62688 8.38964 8.28949ZM8.79461 8.94393C8.14204 8.90447 7.58722 9.3198 7.27557 9.3198C6.96379 9.3198 6.48657 8.96381 5.97043 8.9734C5.29865 8.98341 4.67531 9.36891 4.33439 9.98201C3.63321 11.2086 4.14935 13.0279 4.83121 14.0269C5.16235 14.5211 5.5614 15.0653 6.08724 15.0457C6.58407 15.0259 6.77879 14.7192 7.3827 14.7192C7.98616 14.7192 8.16157 15.0457 8.68749 15.0358C9.23288 15.0259 9.57384 14.5414 9.90497 14.0467C10.2848 13.4833 10.4403 12.9393 10.4501 12.9095C10.4403 12.8996 9.39847 12.4939 9.3888 11.2776C9.37896 10.2591 10.2068 9.77468 10.2457 9.74463C9.77826 9.04292 9.04784 8.96381 8.79461 8.94393Z" fill="black" style="fill:black;fill-opacity:1;"/>
<path d="M15.3014 7.56607C16.7197 7.56607 17.7074 8.55831 17.7074 10.0029C17.7074 11.4527 16.6995 12.4502 15.2659 12.4502H13.6956V14.9846H12.5609V7.56607H15.3014ZM13.6956 11.4836H14.9974C15.9852 11.4836 16.5475 10.9438 16.5475 10.0081C16.5475 9.07248 15.9852 8.53778 15.0025 8.53778H13.6956V11.4836ZM17.9889 13.4475C17.9889 12.4964 18.7032 11.9514 20.0202 11.8692L21.4334 11.7817V11.3705C21.4334 10.769 21.0434 10.44 20.3495 10.44C19.777 10.44 19.3616 10.7381 19.2756 11.1957H18.2523C18.2827 10.2343 19.1742 9.53518 20.3799 9.53518C21.6766 9.53518 22.5226 10.2241 22.5226 11.2933V14.9846H21.474V14.0953H21.4487C21.1498 14.6762 20.4912 15.0411 19.777 15.0411C18.7234 15.0411 17.9889 14.4037 17.9889 13.4475ZM21.4334 12.9694V12.5529L20.1721 12.6352C19.463 12.6814 19.0932 12.9488 19.0932 13.4166C19.0932 13.869 19.4782 14.1621 20.081 14.1621C20.8509 14.1621 21.4334 13.6633 21.4334 12.9694ZM23.4866 16.9691V16.0798C23.5575 16.0899 23.7297 16.1002 23.8208 16.1002C24.3224 16.1002 24.606 15.8844 24.7783 15.3291L24.8796 15.0001L22.9597 9.60201H24.145L25.4824 13.982H25.5077L26.845 9.60201H28L26.0092 15.2726C25.5533 16.5732 25.0315 17 23.9272 17C23.8412 17 23.5625 16.9897 23.4866 16.9691Z" fill="black" style="fill:black;fill-opacity:1;"/>
</svg>
