<svg width="40" height="40" viewBox="0 0 40 40" fill="none" xmlns="http://www.w3.org/2000/svg">
<rect x="0.75" y="0.75" width="38.5" height="38.5" rx="9.25" fill="white" style="fill:white;fill-opacity:1;"/>
<rect x="0.75" y="0.75" width="38.5" height="38.5" rx="9.25" stroke="black" style="stroke:black;stroke-opacity:1;" stroke-width="1.5"/>
<path fill-rule="evenodd" clip-rule="evenodd" d="M11.3376 15.2224C11.6564 14.8262 11.8714 14.2937 11.8139 13.7499C11.3501 13.7724 10.7839 14.0562 10.4564 14.4524C10.1614 14.7924 9.90139 15.3474 9.96889 15.8687C10.4901 15.9137 11.0101 15.6074 11.3389 15.2224H11.3376ZM11.8076 15.9712C11.0514 15.9249 10.4076 16.3999 10.0464 16.3999C9.68514 16.3999 9.13264 15.9937 8.53389 16.0049C7.75514 16.0162 7.03264 16.4549 6.63764 17.1562C5.82514 18.5562 6.42264 20.6349 7.21264 21.7762C7.59764 22.3412 8.06014 22.9624 8.66889 22.9399C9.24389 22.9174 9.47139 22.5674 10.1714 22.5674C10.8714 22.5674 11.0739 22.9399 11.6839 22.9299C12.3151 22.9174 12.7114 22.3637 13.0951 21.7987C13.5351 21.1549 13.7151 20.5337 13.7264 20.4999C13.7151 20.4874 12.5076 20.0249 12.4964 18.6362C12.4839 17.4737 13.4451 16.9199 13.4901 16.8862C12.9476 16.0837 12.1014 15.9937 11.8076 15.9712ZM17.4876 18.8712H18.9964C20.1414 18.8712 20.7926 18.2549 20.7926 17.1862C20.7926 16.1174 20.1414 15.5062 19.0014 15.5062H17.4876V18.8712ZM19.3476 14.3962C20.9926 14.3962 22.1376 15.5299 22.1376 17.1799C22.1376 18.8362 20.9689 19.9749 19.3076 19.9749H17.4864V22.8699H16.1714V14.3962H19.3476ZM26.4564 20.5674V20.0924L24.9939 20.1862C24.1714 20.2387 23.7439 20.5437 23.7439 21.0787C23.7439 21.5949 24.1889 21.9299 24.8876 21.9299C25.7801 21.9299 26.4564 21.3599 26.4564 20.5674ZM22.4626 21.1137C22.4626 20.0274 23.2914 19.4049 24.8176 19.3112L26.4551 19.2112V18.7412C26.4551 18.0537 26.0039 17.6787 25.1989 17.6787C24.5364 17.6787 24.0539 18.0187 23.9539 18.5412H22.7676C22.8039 17.4437 23.8364 16.6449 25.2351 16.6449C26.7376 16.6449 27.7189 17.4324 27.7189 18.6537V22.8699H26.5026V21.8537H26.4739C26.1276 22.5162 25.3639 22.9337 24.5364 22.9337C23.3151 22.9337 22.4626 22.2062 22.4626 21.1137ZM28.8376 25.1374V24.1212C28.9201 24.1324 29.1201 24.1437 29.2251 24.1437C29.8064 24.1437 30.1351 23.8974 30.3351 23.2637L30.4526 22.8887L28.2276 16.7224H29.6014L31.1514 21.7249H31.1814L32.7314 16.7224H34.0689L31.7626 23.1987C31.2339 24.6849 30.6289 25.1724 29.3489 25.1724C29.2489 25.1724 28.9264 25.1599 28.8376 25.1362V25.1374Z" fill="#111111" style="fill:#111111;fill:color(display-p3 0.0667 0.0667 0.0667);fill-opacity:1;"/>
</svg>
