<svg width="32" height="32" viewBox="0 0 32 32" fill="none" xmlns="http://www.w3.org/2000/svg">
<rect x="0.625" y="0.625" width="30.75" height="30.75" rx="7.375" fill="white" style="fill:white;fill-opacity:1;"/>
<rect x="0.625" y="0.625" width="30.75" height="30.75" rx="7.375" stroke="black" style="stroke:black;stroke-opacity:1;" stroke-width="1.25"/>
<path fill-rule="evenodd" clip-rule="evenodd" d="M9.07011 12.1779C9.32511 11.8609 9.49711 11.4349 9.45111 10.9999C9.08011 11.0179 8.62711 11.2449 8.36511 11.5619C8.12911 11.8339 7.92111 12.2779 7.97511 12.6949C8.39211 12.7309 8.80811 12.4859 9.07111 12.1779H9.07011ZM9.44611 12.7769C8.84111 12.7399 8.32611 13.1199 8.03711 13.1199C7.74811 13.1199 7.30611 12.7949 6.82711 12.8039C6.20411 12.8129 5.62611 13.1639 5.31011 13.7249C4.66011 14.8449 5.13811 16.5079 5.77011 17.4209C6.07811 17.8729 6.44811 18.3699 6.93511 18.3519C7.39511 18.3339 7.57711 18.0539 8.13711 18.0539C8.69711 18.0539 8.85911 18.3519 9.34711 18.3439C9.85211 18.3339 10.1691 17.8909 10.4761 17.4389C10.8281 16.9239 10.9721 16.4269 10.9811 16.3999C10.9721 16.3899 10.0061 16.0199 9.99711 14.9089C9.98711 13.9789 10.7561 13.5359 10.7921 13.5089C10.3581 12.8669 9.68111 12.7949 9.44611 12.7769ZM13.9901 15.0969H15.1971C16.1131 15.0969 16.6341 14.6039 16.6341 13.7489C16.6341 12.8939 16.1131 12.4049 15.2011 12.4049H13.9901V15.0969ZM15.4781 11.5169C16.7941 11.5169 17.7101 12.4239 17.7101 13.7439C17.7101 15.0689 16.7751 15.9799 15.4461 15.9799H13.9891V18.2959H12.9371V11.5169H15.4781ZM21.1651 16.4539V16.0739L19.9951 16.1489C19.3371 16.1909 18.9951 16.4349 18.9951 16.8629C18.9951 17.2759 19.3511 17.5439 19.9101 17.5439C20.6241 17.5439 21.1651 17.0879 21.1651 16.4539ZM17.9701 16.8909C17.9701 16.0219 18.6331 15.5239 19.8541 15.4489L21.1641 15.3689V14.9929C21.1641 14.4429 20.8031 14.1429 20.1591 14.1429C19.6291 14.1429 19.2431 14.4149 19.1631 14.8329H18.2141C18.2431 13.9549 19.0691 13.3159 20.1881 13.3159C21.3901 13.3159 22.1751 13.9459 22.1751 14.9229V18.2959H21.2021V17.4829H21.1791C20.9021 18.0129 20.2911 18.3469 19.6291 18.3469C18.6521 18.3469 17.9701 17.7649 17.9701 16.8909ZM23.0701 20.1099V19.2969C23.1361 19.3059 23.2961 19.3149 23.3801 19.3149C23.8451 19.3149 24.1081 19.1179 24.2681 18.6109L24.3621 18.3109L22.5821 13.3779H23.6811L24.9211 17.3799H24.9451L26.1851 13.3779H27.2551L25.4101 18.5589C24.9871 19.7479 24.5031 20.1379 23.4791 20.1379C23.3991 20.1379 23.1411 20.1279 23.0701 20.1089V20.1099Z" fill="#111111" style="fill:#111111;fill:color(display-p3 0.0667 0.0667 0.0667);fill-opacity:1;"/>
</svg>
