<svg width="16" height="16" viewBox="0 0 16 16" fill="none" xmlns="http://www.w3.org/2000/svg">
<rect x="0.5" y="0.5" width="15" height="15" rx="3.5" fill="white" style="fill:white;fill-opacity:1;"/>
<rect x="0.5" y="0.5" width="15" height="15" rx="3.5" stroke="#EEEEEE" style="stroke:#EEEEEE;stroke:color(display-p3 0.9333 0.9333 0.9333);stroke-opacity:1;"/>
<g clip-path="url(#clip0_2537_264)">
<path d="M11.1694 9.43213L11.1273 9.66926C11.0176 9.63251 9.96965 9.38808 9.95492 10.1674C9.94308 10.7914 10.8963 10.7139 11.1148 10.6557L11.1393 10.9143C10.4227 11.115 9.47058 10.8975 9.45074 10.1615C9.42805 9.31279 10.6871 9.2068 11.1694 9.43213Z" fill="#231F20" style="fill:#231F20;fill:color(display-p3 0.1373 0.1216 0.1255);fill-opacity:1;"/>
<path d="M11.1694 9.43214L11.1273 9.66927C11.0176 9.63252 9.96965 9.3881 9.95492 10.1674C9.94308 10.7914 10.8963 10.714 11.1148 10.6557L11.1393 10.9143C10.4227 11.115 9.47058 10.8976 9.45074 10.1615C9.42805 9.3128 10.6871 9.20682 11.1694 9.43214Z" stroke="#231F20" style="stroke:#231F20;stroke:color(display-p3 0.1373 0.1216 0.1255);stroke-opacity:1;" stroke-width="0.200756"/>
<path d="M11.9106 10.9567L11.9105 9.62032L11.2666 9.62046V9.36526L12.9974 9.36487L12.9975 9.62004L12.3659 9.62018L12.366 10.9566L11.9106 10.9567Z" fill="#231F20" style="fill:#231F20;fill:color(display-p3 0.1373 0.1216 0.1255);fill-opacity:1;"/>
<path d="M11.9106 10.9567L11.9105 9.6203L11.2666 9.62044V9.36524L12.9974 9.36485L12.9975 9.62002L12.3659 9.62016L12.366 10.9566L11.9106 10.9567Z" stroke="#231F20" style="stroke:#231F20;stroke:color(display-p3 0.1373 0.1216 0.1255);stroke-opacity:1;" stroke-width="0.200756"/>
<path d="M8.04932 9.35424L9.32573 9.35382L9.32588 9.62083L8.47541 9.62097L8.47569 10.9453H8.04956L8.04932 9.35424Z" fill="#231F20" style="fill:#231F20;fill:color(display-p3 0.1373 0.1216 0.1255);fill-opacity:1;"/>
<path d="M8.04932 9.35425L9.32573 9.35383L9.32588 9.62083L8.47541 9.62098L8.47569 10.9453H8.04956L8.04932 9.35425Z" stroke="#231F20" style="stroke:#231F20;stroke:color(display-p3 0.1373 0.1216 0.1255);stroke-opacity:1;" stroke-width="0.200756"/>
<path d="M8.43555 10.0246L9.27593 10.0244V10.2913L8.43555 10.2915V10.0246Z" fill="#231F20" style="fill:#231F20;fill:color(display-p3 0.1373 0.1216 0.1255);fill-opacity:1;"/>
<path d="M8.43555 10.0245L9.27593 10.0244V10.2913L8.43555 10.2914V10.0245Z" stroke="#231F20" style="stroke:#231F20;stroke:color(display-p3 0.1373 0.1216 0.1255);stroke-opacity:1;" stroke-width="0.200756"/>
<path d="M8.43579 10.6784L9.31955 10.6783V10.945L8.43579 10.9453V10.6784Z" fill="#231F20" style="fill:#231F20;fill:color(display-p3 0.1373 0.1216 0.1255);fill-opacity:1;"/>
<path d="M8.43579 10.6784L9.31955 10.6783V10.945L8.43579 10.9453V10.6784Z" stroke="#231F20" style="stroke:#231F20;stroke:color(display-p3 0.1373 0.1216 0.1255);stroke-opacity:1;" stroke-width="0.200756"/>
<path d="M5.19413 10.9427L5.19385 9.35811L5.67075 9.35797L5.67103 10.9426L5.19413 10.9427Z" fill="#231F20" style="fill:#231F20;fill:color(display-p3 0.1373 0.1216 0.1255);fill-opacity:1;"/>
<path d="M5.19413 10.9427L5.19385 9.35807L5.67075 9.35793L5.67103 10.9425L5.19413 10.9427Z" stroke="#231F20" style="stroke:#231F20;stroke:color(display-p3 0.1373 0.1216 0.1255);stroke-opacity:1;" stroke-width="0.200756"/>
<path d="M3.00297 10.9565L3.00269 9.37203L3.47959 9.37189L3.47987 10.9564L3.00297 10.9565Z" fill="#231F20" style="fill:#231F20;fill:color(display-p3 0.1373 0.1216 0.1255);fill-opacity:1;"/>
<path d="M3.00297 10.9564L3.00269 9.37198L3.47959 9.37184L3.47987 10.9563L3.00297 10.9564Z" stroke="#231F20" style="stroke:#231F20;stroke:color(display-p3 0.1373 0.1216 0.1255);stroke-opacity:1;" stroke-width="0.200756"/>
<path d="M3.31982 10.9563L3.41658 10.6995L3.77333 10.6894C4.18695 10.6893 4.43702 10.459 4.43687 10.1555C4.43687 9.7886 4.10338 9.61518 3.84655 9.61532L3.41302 9.59206L3.35302 9.37185L3.85649 9.3717C4.43578 9.37156 4.93707 9.68181 4.93721 10.1704C4.93731 10.6625 4.43606 10.9562 3.85673 10.9563H3.31982Z" fill="#231F20" style="fill:#231F20;fill:color(display-p3 0.1373 0.1216 0.1255);fill-opacity:1;"/>
<path d="M3.31982 10.9564L3.41658 10.6995L3.77333 10.6895C4.18695 10.6893 4.43702 10.4591 4.43687 10.1556C4.43687 9.78864 4.10338 9.61522 3.84655 9.61536L3.41302 9.5921L3.35302 9.37188L3.85649 9.37174C4.43578 9.3716 4.93707 9.68185 4.93721 10.1704C4.93731 10.6625 4.43606 10.9562 3.85673 10.9564H3.31982Z" stroke="#231F20" style="stroke:#231F20;stroke:color(display-p3 0.1373 0.1216 0.1255);stroke-opacity:1;" stroke-width="0.200756"/>
<path d="M3.00321 12.9473L3.00293 11.3628L3.47983 11.3626L3.48012 12.9472L3.00321 12.9473Z" fill="#231F20" style="fill:#231F20;fill:color(display-p3 0.1373 0.1216 0.1255);fill-opacity:1;"/>
<path d="M3.00321 12.9474L3.00293 11.3628L3.47983 11.3627L3.48012 12.9472L3.00321 12.9474Z" stroke="#231F20" style="stroke:#231F20;stroke:color(display-p3 0.1373 0.1216 0.1255);stroke-opacity:1;" stroke-width="0.200756"/>
<path d="M3.32007 12.9472L3.41668 12.6904L3.77358 12.6802C4.18716 12.6802 4.43712 12.4499 4.43712 12.1464C4.43698 11.7795 4.10348 11.6061 3.84665 11.6061L3.41312 11.5828L3.35308 11.3628L3.85669 11.3626C4.43603 11.3625 4.93728 11.6726 4.93742 12.1613C4.93742 12.6534 4.43631 12.9469 3.85698 12.9471L3.32007 12.9472Z" fill="#231F20" style="fill:#231F20;fill:color(display-p3 0.1373 0.1216 0.1255);fill-opacity:1;"/>
<path d="M3.32007 12.9472L3.41668 12.6904L3.77358 12.6802C4.18716 12.6802 4.43712 12.4499 4.43712 12.1465C4.43698 11.7795 4.10348 11.6061 3.84665 11.6061L3.41312 11.5828L3.35308 11.3628L3.85669 11.3626C4.43603 11.3625 4.93728 11.6726 4.93742 12.1613C4.93742 12.6534 4.43631 12.947 3.85698 12.9471L3.32007 12.9472Z" stroke="#231F20" style="stroke:#231F20;stroke:color(display-p3 0.1373 0.1216 0.1255);stroke-opacity:1;" stroke-width="0.200756"/>
<path d="M7.8223 12.9536L7.82202 11.2356H8.28229L8.28258 12.9534L7.8223 12.9536Z" fill="#231F20" style="fill:#231F20;fill:color(display-p3 0.1373 0.1216 0.1255);fill-opacity:1;"/>
<path d="M7.8223 12.9536L7.82202 11.2356H8.28229L8.28258 12.9534L7.8223 12.9536Z" stroke="#231F20" style="stroke:#231F20;stroke:color(display-p3 0.1373 0.1216 0.1255);stroke-opacity:1;" stroke-width="0.200756"/>
<path d="M10.367 12.9663L10.3667 11.7889L10.827 11.7888L10.8273 12.9662L10.367 12.9663Z" fill="#231F20" style="fill:#231F20;fill:color(display-p3 0.1373 0.1216 0.1255);fill-opacity:1;"/>
<path d="M10.367 12.9664L10.3667 11.7889L10.827 11.7888L10.8273 12.9663L10.367 12.9664Z" stroke="#231F20" style="stroke:#231F20;stroke:color(display-p3 0.1373 0.1216 0.1255);stroke-opacity:1;" stroke-width="0.200756"/>
<path d="M10.3667 11.2385L10.827 11.2383V11.5419L10.3667 11.542V11.2385Z" fill="#231F20" style="fill:#231F20;fill:color(display-p3 0.1373 0.1216 0.1255);fill-opacity:1;"/>
<path d="M10.3667 11.2385L10.827 11.2383V11.5419L10.3667 11.542V11.2385Z" stroke="#231F20" style="stroke:#231F20;stroke:color(display-p3 0.1373 0.1216 0.1255);stroke-opacity:1;" stroke-width="0.200756"/>
<path d="M11.921 12.6559L11.9209 11.485L12.391 11.4849L12.3913 12.6023C12.3913 12.7525 12.6481 12.7991 12.7949 12.7491V13.0092C12.478 13.0827 11.9211 13.0728 11.921 12.6559Z" fill="#231F20" style="fill:#231F20;fill:color(display-p3 0.1373 0.1216 0.1255);fill-opacity:1;"/>
<path d="M11.921 12.6559L11.9209 11.485L12.391 11.4849L12.3913 12.6023C12.3913 12.7525 12.6481 12.7991 12.7949 12.7491V13.0092C12.478 13.0827 11.9211 13.0728 11.921 12.6559Z" stroke="#231F20" style="stroke:#231F20;stroke:color(display-p3 0.1373 0.1216 0.1255);stroke-opacity:1;" stroke-width="0.200756"/>
<path d="M11.554 12.0387V11.7886L12.7811 11.7883L12.7813 12.0385L11.554 12.0387Z" fill="#231F20" style="fill:#231F20;fill:color(display-p3 0.1373 0.1216 0.1255);fill-opacity:1;"/>
<path d="M11.554 12.0387V11.7886L12.7811 11.7884L12.7813 12.0386L11.554 12.0387Z" stroke="#231F20" style="stroke:#231F20;stroke:color(display-p3 0.1373 0.1216 0.1255);stroke-opacity:1;" stroke-width="0.200756"/>
<path d="M10.4998 5.89806C10.4994 4.13467 9.4397 3.37134 8.23523 3.10281V3.01156C10.4261 3.12427 12.0315 4.45537 12.0318 5.97995C12.0322 7.72076 10.1444 8.96392 7.8153 8.96445C5.48635 8.96487 3.60833 7.62954 3.60791 5.98189C3.60763 4.25316 5.24742 3.00345 8.04324 3.00275L8.04366 5.15027L7.38272 5.13734C5.96642 5.18773 4.32663 5.80543 4.32677 6.63497C4.32691 7.54737 5.88412 8.64377 7.7535 8.64335C9.26557 8.64307 10.5 7.546 10.4998 5.89806Z" fill="#231F20" style="fill:#231F20;fill:color(display-p3 0.1373 0.1216 0.1255);fill-opacity:1;"/>
<path d="M10.4998 5.8981C10.4994 4.1347 9.4397 3.37137 8.23523 3.10284V3.01159C10.4261 3.1243 12.0315 4.4554 12.0318 5.97998C12.0322 7.72079 10.1444 8.96395 7.8153 8.96448C5.48635 8.9649 3.60833 7.62957 3.60791 5.98192C3.60763 4.25319 5.24742 3.00348 8.04324 3.00278L8.04366 5.15031L7.38272 5.13737C5.96642 5.18776 4.32663 5.80546 4.32677 6.635C4.32691 7.5474 5.88412 8.64381 7.7535 8.64338C9.26557 8.6431 10.5 7.54603 10.4998 5.8981Z" stroke="#231F20" style="stroke:#231F20;stroke:color(display-p3 0.1373 0.1216 0.1255);stroke-opacity:1;" stroke-width="0.200756"/>
<path d="M8.03184 8.39642C7.2293 8.33931 6.19716 7.80501 6.19702 6.8834C6.19688 5.971 7.07571 5.30925 8.03131 5.27264L8.03184 8.39642Z" fill="#231F20" style="fill:#231F20;fill:color(display-p3 0.1373 0.1216 0.1255);fill-opacity:1;"/>
<path d="M8.03184 8.39642C7.2293 8.33931 6.19716 7.80501 6.19702 6.8834C6.19688 5.971 7.07571 5.30925 8.03131 5.27264L8.03184 8.39642Z" stroke="#231F20" style="stroke:#231F20;stroke:color(display-p3 0.1373 0.1216 0.1255);stroke-opacity:1;" stroke-width="0.200756"/>
<path d="M5.9346 12.2172L6.67495 12.2151C6.65483 12.0365 6.52147 11.9364 6.32137 11.9364C6.10457 11.9365 5.94122 12.0199 5.9346 12.2172ZM5.93128 12.4368C5.95468 12.894 6.87505 12.7303 6.99851 12.6001V12.877C6.81504 12.9637 6.57887 12.9738 6.31654 12.9739C5.83851 12.974 5.45107 12.7306 5.45093 12.3336C5.45093 11.9799 5.80772 11.6997 6.31626 11.6995C6.70811 11.6995 7.14181 11.8829 7.11179 12.4366L5.93128 12.4368Z" fill="#231F20" style="fill:#231F20;fill:color(display-p3 0.1373 0.1216 0.1255);fill-opacity:1;"/>
<path d="M5.9346 12.2172L6.67495 12.2152C6.65483 12.0365 6.52147 11.9364 6.32137 11.9364C6.10457 11.9366 5.94122 12.02 5.9346 12.2172ZM5.93128 12.4369C5.95468 12.894 6.87505 12.7303 6.99851 12.6001V12.877C6.81504 12.9638 6.57887 12.9738 6.31654 12.9739C5.83851 12.9741 5.45107 12.7306 5.45093 12.3337C5.45093 11.9799 5.80772 11.6997 6.31626 11.6996C6.70811 11.6996 7.14181 11.8829 7.11179 12.4366L5.93128 12.4369Z" stroke="#231F20" style="stroke:#231F20;stroke:color(display-p3 0.1373 0.1216 0.1255);stroke-opacity:1;" stroke-width="0.200756"/>
<path d="M6.54784 10.0417L6.85808 10.0416C6.9814 10.0416 7.15814 9.96147 7.15814 9.82976C7.15814 9.68456 7.01195 9.61461 6.86471 9.61461H6.54784V10.0417ZM7.63504 9.77458C7.63519 10.1516 7.28034 10.18 7.26163 10.1815C7.31835 10.2183 7.36899 10.2911 7.37159 10.295L7.73716 10.9453L7.2396 10.9454L6.98817 10.4718C6.98486 10.4637 6.9214 10.3085 6.72747 10.3118L6.55129 10.3119L6.55143 10.9457H6.07865L6.07837 9.35465L6.9331 9.35437C7.17231 9.35437 7.63504 9.41438 7.63504 9.77458Z" fill="#231F20" style="fill:#231F20;fill:color(display-p3 0.1373 0.1216 0.1255);fill-opacity:1;"/>
<path d="M6.54784 10.0418L6.85808 10.0416C6.9814 10.0416 7.15814 9.96149 7.15814 9.82978C7.15814 9.68458 7.01195 9.61464 6.86471 9.61464H6.54784V10.0418ZM7.63504 9.7746C7.63519 10.1516 7.28034 10.1801 7.26163 10.1816C7.31835 10.2183 7.36899 10.2911 7.37159 10.295L7.73716 10.9453L7.2396 10.9455L6.98817 10.4719C6.98486 10.4637 6.9214 10.3085 6.72747 10.3118L6.55129 10.3119L6.55143 10.9457H6.07865L6.07837 9.35468L6.9331 9.35439C7.17231 9.35439 7.63504 9.4144 7.63504 9.7746Z" stroke="#231F20" style="stroke:#231F20;stroke:color(display-p3 0.1373 0.1216 0.1255);stroke-opacity:1;" stroke-width="0.200756"/>
<path d="M8.27915 12.3746C8.27915 12.5746 8.45987 12.7366 8.6827 12.7365C8.90552 12.7365 9.08624 12.5743 9.08624 12.3745C9.0861 12.1747 8.90552 12.0127 8.68255 12.0127C8.45973 12.0128 8.27915 12.1748 8.27915 12.3746ZM8.14233 12.3614C8.14233 11.9226 8.43249 11.7459 8.84774 11.7458C9.23546 11.7456 9.54637 11.9524 9.54651 12.361C9.54651 12.7597 9.23229 12.9966 8.84456 12.9968C8.39602 12.9968 8.14247 12.8067 8.14233 12.3614Z" fill="#231F20" style="fill:#231F20;fill:color(display-p3 0.1373 0.1216 0.1255);fill-opacity:1;"/>
<path d="M8.27915 12.3746C8.27915 12.5746 8.45987 12.7366 8.6827 12.7365C8.90552 12.7365 9.08624 12.5743 9.08624 12.3745C9.0861 12.1747 8.90552 12.0127 8.68255 12.0127C8.45973 12.0128 8.27915 12.1748 8.27915 12.3746ZM8.14233 12.3614C8.14233 11.9226 8.43249 11.7459 8.84774 11.7458C9.23546 11.7456 9.54637 11.9524 9.54651 12.361C9.54651 12.7597 9.23229 12.9966 8.84456 12.9968C8.39602 12.9968 8.14247 12.8067 8.14233 12.3614Z" stroke="#231F20" style="stroke:#231F20;stroke:color(display-p3 0.1373 0.1216 0.1255);stroke-opacity:1;" stroke-width="0.200756"/>
</g>
<defs>
<clipPath id="clip0_2537_264">
<rect width="10" height="10.0469" fill="white" style="fill:white;fill-opacity:1;" transform="translate(3 3)"/>
</clipPath>
</defs>
</svg>
