<svg width="40" height="30" viewBox="0 0 40 30" fill="none" xmlns="http://www.w3.org/2000/svg">
<rect x="0.625" y="0.625" width="38.75" height="28.75" rx="4.375" fill="white" style="fill:white;fill-opacity:1;"/>
<rect x="0.625" y="0.625" width="38.75" height="28.75" rx="4.375" stroke="#ECECF0" style="stroke:#ECECF0;stroke:color(display-p3 0.9255 0.9255 0.9412);stroke-opacity:1;" stroke-width="1.25"/>
<g clip-path="url(#clip0_2740_2116)">
<path d="M26.3388 17.8043L26.2546 18.2764C26.0352 18.2032 23.9393 17.7166 23.9098 19.2679C23.8862 20.5102 25.7926 20.356 26.2296 20.24L26.2785 20.7549C24.8455 21.1543 22.9412 20.7215 22.9015 19.2562C22.8561 17.5667 25.3743 17.3558 26.3388 17.8043Z" fill="#231F20" style="fill:#231F20;fill:color(display-p3 0.1373 0.1216 0.1255);fill-opacity:1;"/>
<path d="M26.3388 17.8043L26.2546 18.2764C26.0352 18.2032 23.9393 17.7166 23.9098 19.2679C23.8862 20.5102 25.7926 20.356 26.2296 20.24L26.2785 20.7549C24.8455 21.1543 22.9412 20.7215 22.9015 19.2562C22.8561 17.5667 25.3743 17.3558 26.3388 17.8043Z" stroke="#231F20" style="stroke:#231F20;stroke:color(display-p3 0.1373 0.1216 0.1255);stroke-opacity:1;" stroke-width="0.100378"/>
<path d="M27.821 20.8392L27.8207 18.1789L26.533 18.1792V17.6711L29.9945 17.6703L29.9948 18.1783L28.7315 18.1786L28.7318 20.839L27.821 20.8392Z" fill="#231F20" style="fill:#231F20;fill:color(display-p3 0.1373 0.1216 0.1255);fill-opacity:1;"/>
<path d="M27.821 20.8392L27.8207 18.1789L26.533 18.1791V17.6711L29.9945 17.6703L29.9948 18.1783L28.7315 18.1786L28.7318 20.839L27.821 20.8392Z" stroke="#231F20" style="stroke:#231F20;stroke:color(display-p3 0.1373 0.1216 0.1255);stroke-opacity:1;" stroke-width="0.100378"/>
<path d="M20.0986 17.6492L22.6515 17.6484L22.6518 18.1799L20.9508 18.1802L20.9514 20.8165H20.0991L20.0986 17.6492Z" fill="#231F20" style="fill:#231F20;fill:color(display-p3 0.1373 0.1216 0.1255);fill-opacity:1;"/>
<path d="M20.0986 17.6492L22.6515 17.6484L22.6518 18.1799L20.9508 18.1802L20.9514 20.8165H20.0991L20.0986 17.6492Z" stroke="#231F20" style="stroke:#231F20;stroke:color(display-p3 0.1373 0.1216 0.1255);stroke-opacity:1;" stroke-width="0.100378"/>
<path d="M20.8711 18.9835L22.5519 18.9832V19.5146L20.8711 19.5148V18.9835Z" fill="#231F20" style="fill:#231F20;fill:color(display-p3 0.1373 0.1216 0.1255);fill-opacity:1;"/>
<path d="M20.8711 18.9835L22.5519 18.9832V19.5146L20.8711 19.5148V18.9835Z" stroke="#231F20" style="stroke:#231F20;stroke:color(display-p3 0.1373 0.1216 0.1255);stroke-opacity:1;" stroke-width="0.100378"/>
<path d="M20.8713 20.2853L22.6389 20.285V20.8159L20.8713 20.8165V20.2853Z" fill="#231F20" style="fill:#231F20;fill:color(display-p3 0.1373 0.1216 0.1255);fill-opacity:1;"/>
<path d="M20.8713 20.2852L22.6389 20.285V20.8159L20.8713 20.8165V20.2852Z" stroke="#231F20" style="stroke:#231F20;stroke:color(display-p3 0.1373 0.1216 0.1255);stroke-opacity:1;" stroke-width="0.100378"/>
<path d="M14.388 20.8113L14.3875 17.6569L15.3413 17.6566L15.3418 20.811L14.388 20.8113Z" fill="#231F20" style="fill:#231F20;fill:color(display-p3 0.1373 0.1216 0.1255);fill-opacity:1;"/>
<path d="M14.388 20.8113L14.3875 17.6569L15.3413 17.6566L15.3418 20.811L14.388 20.8113Z" stroke="#231F20" style="stroke:#231F20;stroke:color(display-p3 0.1373 0.1216 0.1255);stroke-opacity:1;" stroke-width="0.100378"/>
<path d="M10.0057 20.8387L10.0051 17.6846L10.9589 17.6843L10.9595 20.8385L10.0057 20.8387Z" fill="#231F20" style="fill:#231F20;fill:color(display-p3 0.1373 0.1216 0.1255);fill-opacity:1;"/>
<path d="M10.0057 20.8387L10.0051 17.6846L10.9589 17.6843L10.9595 20.8385L10.0057 20.8387Z" stroke="#231F20" style="stroke:#231F20;stroke:color(display-p3 0.1373 0.1216 0.1255);stroke-opacity:1;" stroke-width="0.100378"/>
<path d="M10.6394 20.8385L10.8329 20.3272L11.5464 20.3072C12.3737 20.3069 12.8738 19.8485 12.8735 19.2444C12.8735 18.5139 12.2065 18.1687 11.6929 18.169L10.8258 18.1227L10.7058 17.6843L11.7127 17.684C12.8713 17.6837 13.8739 18.3013 13.8742 19.274C13.8744 20.2535 12.8719 20.8382 11.7132 20.8385H10.6394Z" fill="#231F20" style="fill:#231F20;fill:color(display-p3 0.1373 0.1216 0.1255);fill-opacity:1;"/>
<path d="M10.6394 20.8385L10.8329 20.3272L11.5464 20.3072C12.3737 20.3069 12.8738 19.8485 12.8735 19.2444C12.8735 18.5139 12.2065 18.1687 11.6929 18.169L10.8258 18.1227L10.7058 17.6843L11.7127 17.684C12.8713 17.6837 13.8739 18.3013 13.8742 19.274C13.8744 20.2535 12.8719 20.8382 11.7132 20.8385H10.6394Z" stroke="#231F20" style="stroke:#231F20;stroke:color(display-p3 0.1373 0.1216 0.1255);stroke-opacity:1;" stroke-width="0.100378"/>
<path d="M10.0067 24.8019L10.0061 21.6476L10.9599 21.6473L10.9605 24.8017L10.0067 24.8019Z" fill="#231F20" style="fill:#231F20;fill:color(display-p3 0.1373 0.1216 0.1255);fill-opacity:1;"/>
<path d="M10.0067 24.8019L10.0061 21.6475L10.9599 21.6472L10.9605 24.8016L10.0067 24.8019Z" stroke="#231F20" style="stroke:#231F20;stroke:color(display-p3 0.1373 0.1216 0.1255);stroke-opacity:1;" stroke-width="0.100378"/>
<path d="M10.6401 24.8017L10.8334 24.2904L11.5472 24.2701C12.3743 24.2701 12.8742 23.8118 12.8742 23.2076C12.874 22.4772 12.207 22.132 11.6933 22.132L10.8262 22.0857L10.7062 21.6476L11.7134 21.6473C12.8721 21.647 13.8746 22.2643 13.8748 23.2372C13.8748 24.2168 12.8726 24.8012 11.714 24.8014L10.6401 24.8017Z" fill="#231F20" style="fill:#231F20;fill:color(display-p3 0.1373 0.1216 0.1255);fill-opacity:1;"/>
<path d="M10.6401 24.8016L10.8334 24.2904L11.5472 24.2701C12.3743 24.2701 12.8742 23.8117 12.8742 23.2076C12.874 22.4772 12.207 22.1319 11.6933 22.1319L10.8262 22.0856L10.7062 21.6475L11.7134 21.6473C12.8721 21.647 13.8746 22.2643 13.8748 23.2372C13.8748 24.2167 12.8726 24.8011 11.714 24.8014L10.6401 24.8016Z" stroke="#231F20" style="stroke:#231F20;stroke:color(display-p3 0.1373 0.1216 0.1255);stroke-opacity:1;" stroke-width="0.100378"/>
<path d="M19.6446 24.8143L19.644 21.3943H20.5646L20.5652 24.814L19.6446 24.8143Z" fill="#231F20" style="fill:#231F20;fill:color(display-p3 0.1373 0.1216 0.1255);fill-opacity:1;"/>
<path d="M19.6446 24.8143L19.644 21.3943H20.5646L20.5652 24.814L19.6446 24.8143Z" stroke="#231F20" style="stroke:#231F20;stroke:color(display-p3 0.1373 0.1216 0.1255);stroke-opacity:1;" stroke-width="0.100378"/>
<path d="M24.734 24.8397L24.7334 22.4958L25.6539 22.4955L25.6545 24.8395L24.734 24.8397Z" fill="#231F20" style="fill:#231F20;fill:color(display-p3 0.1373 0.1216 0.1255);fill-opacity:1;"/>
<path d="M24.734 24.8397L24.7334 22.4958L25.6539 22.4955L25.6545 24.8395L24.734 24.8397Z" stroke="#231F20" style="stroke:#231F20;stroke:color(display-p3 0.1373 0.1216 0.1255);stroke-opacity:1;" stroke-width="0.100378"/>
<path d="M24.7334 21.4001L25.6539 21.3998V22.004L24.7334 22.0043V21.4001Z" fill="#231F20" style="fill:#231F20;fill:color(display-p3 0.1373 0.1216 0.1255);fill-opacity:1;"/>
<path d="M24.7334 21.4001L25.6539 21.3998V22.004L24.7334 22.0043V21.4001Z" stroke="#231F20" style="stroke:#231F20;stroke:color(display-p3 0.1373 0.1216 0.1255);stroke-opacity:1;" stroke-width="0.100378"/>
<path d="M27.8421 24.2217L27.8418 21.8908L28.7821 21.8906L28.7826 24.115C28.7826 24.414 29.2963 24.5069 29.5897 24.4072V24.925C28.9561 25.0713 27.8423 25.0516 27.8421 24.2217Z" fill="#231F20" style="fill:#231F20;fill:color(display-p3 0.1373 0.1216 0.1255);fill-opacity:1;"/>
<path d="M27.8421 24.2217L27.8418 21.8908L28.7821 21.8906L28.7826 24.115C28.7826 24.414 29.2963 24.5068 29.5897 24.4072V24.925C28.9561 25.0713 27.8423 25.0516 27.8421 24.2217Z" stroke="#231F20" style="stroke:#231F20;stroke:color(display-p3 0.1373 0.1216 0.1255);stroke-opacity:1;" stroke-width="0.100378"/>
<path d="M27.1082 22.993V22.4953L29.5625 22.4947L29.5628 22.9928L27.1082 22.993Z" fill="#231F20" style="fill:#231F20;fill:color(display-p3 0.1373 0.1216 0.1255);fill-opacity:1;"/>
<path d="M27.1082 22.993V22.4953L29.5625 22.4947L29.5628 22.9928L27.1082 22.993Z" stroke="#231F20" style="stroke:#231F20;stroke:color(display-p3 0.1373 0.1216 0.1255);stroke-opacity:1;" stroke-width="0.100378"/>
<path d="M24.9995 10.7691C24.9987 7.25877 22.8794 5.73924 20.4705 5.20469V5.02303C24.8523 5.24741 28.063 7.89719 28.0636 10.9321C28.0644 14.3975 24.2888 16.8722 19.6306 16.8733C14.9727 16.8741 11.2167 14.2159 11.2158 10.936C11.2153 7.49466 14.4948 5.0069 20.0865 5.00549L20.0873 9.28052L18.7654 9.25477C15.9328 9.35508 12.6533 10.5847 12.6535 12.236C12.6538 14.0523 15.7682 16.2349 19.507 16.2341C22.5311 16.2335 25 14.0496 24.9995 10.7691Z" fill="#231F20" style="fill:#231F20;fill:color(display-p3 0.1373 0.1216 0.1255);fill-opacity:1;"/>
<path d="M24.9995 10.7691C24.9987 7.25876 22.8794 5.73922 20.4705 5.20468V5.02301C24.8523 5.24739 28.063 7.89718 28.0636 10.9321C28.0644 14.3975 24.2888 16.8722 19.6306 16.8733C14.9727 16.8741 11.2167 14.2159 11.2158 10.936C11.2153 7.49464 14.4948 5.00688 20.0865 5.00548L20.0873 9.2805L18.7654 9.25476C15.9328 9.35506 12.6533 10.5847 12.6535 12.236C12.6538 14.0523 15.7682 16.2349 19.507 16.2341C22.5311 16.2335 25 14.0496 24.9995 10.7691Z" stroke="#231F20" style="stroke:#231F20;stroke:color(display-p3 0.1373 0.1216 0.1255);stroke-opacity:1;" stroke-width="0.100378"/>
<path d="M20.0639 15.7425C18.4588 15.6288 16.3946 14.5652 16.3943 12.7306C16.394 10.9143 18.1517 9.59699 20.0629 9.52411L20.0639 15.7425Z" fill="#231F20" style="fill:#231F20;fill:color(display-p3 0.1373 0.1216 0.1255);fill-opacity:1;"/>
<path d="M20.0639 15.7425C18.4588 15.6288 16.3946 14.5652 16.3943 12.7306C16.394 10.9143 18.1517 9.59698 20.0629 9.5241L20.0639 15.7425Z" stroke="#231F20" style="stroke:#231F20;stroke:color(display-p3 0.1373 0.1216 0.1255);stroke-opacity:1;" stroke-width="0.100378"/>
<path d="M15.8694 23.3485L17.3501 23.3443C17.3099 22.9887 17.0432 22.7895 16.643 22.7895C16.2094 22.7898 15.8827 22.9558 15.8694 23.3485ZM15.8628 23.7857C15.9096 24.6957 17.7503 24.3699 17.9973 24.1107V24.6619C17.6303 24.8346 17.158 24.8545 16.6333 24.8548C15.6773 24.8551 14.9024 24.3704 14.9021 23.5802C14.9021 22.8761 15.6157 22.3182 16.6328 22.318C17.4165 22.318 18.2839 22.6829 18.2238 23.7852L15.8628 23.7857Z" fill="#231F20" style="fill:#231F20;fill:color(display-p3 0.1373 0.1216 0.1255);fill-opacity:1;"/>
<path d="M15.8694 23.3484L17.3501 23.3443C17.3099 22.9887 17.0432 22.7895 16.643 22.7895C16.2094 22.7898 15.8827 22.9558 15.8694 23.3484ZM15.8628 23.7857C15.9096 24.6956 17.7503 24.3698 17.9973 24.1107V24.6619C17.6303 24.8345 17.158 24.8545 16.6333 24.8548C15.6773 24.8551 14.9024 24.3704 14.9021 23.5802C14.9021 22.8761 15.6157 22.3182 16.6328 22.3179C17.4165 22.3179 18.2839 22.6829 18.2238 23.7851L15.8628 23.7857Z" stroke="#231F20" style="stroke:#231F20;stroke:color(display-p3 0.1373 0.1216 0.1255);stroke-opacity:1;" stroke-width="0.100378"/>
<path d="M17.0957 19.0178L17.7162 19.0175C17.9628 19.0175 18.3163 18.858 18.3163 18.5958C18.3163 18.3068 18.0239 18.1676 17.7294 18.1676H17.0957V19.0178ZM19.2701 18.486C19.2704 19.2364 18.5607 19.2931 18.5233 19.2961C18.6367 19.3693 18.738 19.5143 18.7432 19.5219L19.4743 20.8165L18.4792 20.8168L17.9763 19.874C17.9697 19.8578 17.8428 19.5488 17.4549 19.5554L17.1026 19.5557L17.1029 20.8174H16.1573L16.1567 17.6501L17.8662 17.6495C18.3446 17.6495 19.2701 17.769 19.2701 18.486Z" fill="#231F20" style="fill:#231F20;fill:color(display-p3 0.1373 0.1216 0.1255);fill-opacity:1;"/>
<path d="M17.0957 19.0178L17.7162 19.0175C17.9628 19.0175 18.3163 18.858 18.3163 18.5958C18.3163 18.3068 18.0239 18.1676 17.7294 18.1676H17.0957V19.0178ZM19.2701 18.486C19.2704 19.2364 18.5607 19.2931 18.5233 19.2961C18.6367 19.3693 18.738 19.5143 18.7432 19.5219L19.4743 20.8165L18.4792 20.8168L17.9763 19.874C17.9697 19.8578 17.8428 19.5488 17.4549 19.5554L17.1026 19.5557L17.1029 20.8174H16.1573L16.1567 17.6501L17.8662 17.6495C18.3446 17.6495 19.2701 17.769 19.2701 18.486Z" stroke="#231F20" style="stroke:#231F20;stroke:color(display-p3 0.1373 0.1216 0.1255);stroke-opacity:1;" stroke-width="0.100378"/>
<path d="M20.5583 23.6618C20.5583 24.06 20.9197 24.3825 21.3654 24.3822C21.811 24.3822 22.1725 24.0594 22.1725 23.6616C22.1722 23.2638 21.811 22.9413 21.3651 22.9413C20.9195 22.9416 20.5583 23.2641 20.5583 23.6618ZM20.2847 23.6356C20.2847 22.7621 20.865 22.4103 21.6955 22.41C22.4709 22.4098 23.0927 22.8213 23.093 23.6348C23.093 24.4285 22.4646 24.9 21.6891 24.9003C20.792 24.9003 20.2849 24.5219 20.2847 23.6356Z" fill="#231F20" style="fill:#231F20;fill:color(display-p3 0.1373 0.1216 0.1255);fill-opacity:1;"/>
<path d="M20.5583 23.6619C20.5583 24.06 20.9197 24.3825 21.3654 24.3822C21.811 24.3822 22.1725 24.0594 22.1725 23.6616C22.1722 23.2638 21.811 22.9413 21.3651 22.9413C20.9195 22.9416 20.5583 23.2641 20.5583 23.6619ZM20.2847 23.6356C20.2847 22.7621 20.865 22.4103 21.6955 22.41C22.4709 22.4098 23.0927 22.8213 23.093 23.6348C23.093 24.4285 22.4646 24.9 21.6891 24.9003C20.792 24.9003 20.2849 24.5219 20.2847 23.6356Z" stroke="#231F20" style="stroke:#231F20;stroke:color(display-p3 0.1373 0.1216 0.1255);stroke-opacity:1;" stroke-width="0.100378"/>
</g>
<defs>
<clipPath id="clip0_2740_2116">
<rect width="20" height="20" fill="white" style="fill:white;fill-opacity:1;" transform="translate(10 5)"/>
</clipPath>
</defs>
</svg>
