<svg width="32" height="32" viewBox="0 0 32 32" fill="none" xmlns="http://www.w3.org/2000/svg">
<rect x="0.5" y="0.5" width="31" height="31" rx="7.5" fill="white" style="fill:white;fill-opacity:1;"/>
<rect x="0.5" y="0.5" width="31" height="31" rx="7.5" stroke="#EEEEEE" style="stroke:#EEEEEE;stroke:color(display-p3 0.9333 0.9333 0.9333);stroke-opacity:1;"/>
<g clip-path="url(#clip0_2537_290)">
<path d="M21.705 18.5779L21.6292 19.0047C21.4317 18.9386 19.5454 18.4986 19.5189 19.9013C19.4976 21.0246 21.2134 20.8852 21.6066 20.7803L21.6507 21.2458C20.361 21.607 18.6471 21.2157 18.6114 19.8907C18.5705 18.3631 20.8369 18.1723 21.705 18.5779Z" fill="#231F20" style="fill:#231F20;fill:color(display-p3 0.1373 0.1216 0.1255);fill-opacity:1;"/>
<path d="M21.705 18.5779L21.6292 19.0047C21.4317 18.9385 19.5454 18.4986 19.5189 19.9013C19.4976 21.0246 21.2134 20.8851 21.6066 20.7803L21.6507 21.2458C20.361 21.607 18.6471 21.2156 18.6114 19.8906C18.5705 18.363 20.8369 18.1723 21.705 18.5779Z" stroke="#231F20" style="stroke:#231F20;stroke:color(display-p3 0.1373 0.1216 0.1255);stroke-opacity:1;" stroke-width="0.200756"/>
<path d="M23.0391 21.3221L23.0389 18.9165L21.8799 18.9168V18.4574L24.9953 18.4567L24.9955 18.916L23.8586 18.9163L23.8589 21.3218L23.0391 21.3221Z" fill="#231F20" style="fill:#231F20;fill:color(display-p3 0.1373 0.1216 0.1255);fill-opacity:1;"/>
<path d="M23.0391 21.3221L23.0389 18.9166L21.8799 18.9168V18.4575L24.9953 18.4568L24.9955 18.9161L23.8586 18.9163L23.8589 21.3219L23.0391 21.3221Z" stroke="#231F20" style="stroke:#231F20;stroke:color(display-p3 0.1373 0.1216 0.1255);stroke-opacity:1;" stroke-width="0.200756"/>
<path d="M16.0889 18.4377L18.3864 18.4369L18.3867 18.9175L16.8558 18.9178L16.8563 21.3016H16.0893L16.0889 18.4377Z" fill="#231F20" style="fill:#231F20;fill:color(display-p3 0.1373 0.1216 0.1255);fill-opacity:1;"/>
<path d="M16.0889 18.4377L18.3864 18.4369L18.3867 18.9175L16.8558 18.9178L16.8563 21.3016H16.0893L16.0889 18.4377Z" stroke="#231F20" style="stroke:#231F20;stroke:color(display-p3 0.1373 0.1216 0.1255);stroke-opacity:1;" stroke-width="0.200756"/>
<path d="M16.7839 19.6442L18.2966 19.6439V20.1243L16.7839 20.1246V19.6442Z" fill="#231F20" style="fill:#231F20;fill:color(display-p3 0.1373 0.1216 0.1255);fill-opacity:1;"/>
<path d="M16.7839 19.6441L18.2966 19.6439V20.1243L16.7839 20.1246V19.6441Z" stroke="#231F20" style="stroke:#231F20;stroke:color(display-p3 0.1373 0.1216 0.1255);stroke-opacity:1;" stroke-width="0.200756"/>
<path d="M16.7842 20.8212L18.3749 20.8209V21.301L16.7842 21.3015V20.8212Z" fill="#231F20" style="fill:#231F20;fill:color(display-p3 0.1373 0.1216 0.1255);fill-opacity:1;"/>
<path d="M16.7842 20.8212L18.3749 20.821V21.3011L16.7842 21.3016V20.8212Z" stroke="#231F20" style="stroke:#231F20;stroke:color(display-p3 0.1373 0.1216 0.1255);stroke-opacity:1;" stroke-width="0.200756"/>
<path d="M10.9492 21.2969L10.9487 18.4446L11.8072 18.4443L11.8077 21.2966L10.9492 21.2969Z" fill="#231F20" style="fill:#231F20;fill:color(display-p3 0.1373 0.1216 0.1255);fill-opacity:1;"/>
<path d="M10.9492 21.2969L10.9487 18.4446L11.8072 18.4443L11.8077 21.2966L10.9492 21.2969Z" stroke="#231F20" style="stroke:#231F20;stroke:color(display-p3 0.1373 0.1216 0.1255);stroke-opacity:1;" stroke-width="0.200756"/>
<path d="M7.00515 21.3216L7.00464 18.4696L7.86307 18.4694L7.86357 21.3214L7.00515 21.3216Z" fill="#231F20" style="fill:#231F20;fill:color(display-p3 0.1373 0.1216 0.1255);fill-opacity:1;"/>
<path d="M7.00515 21.3216L7.00464 18.4696L7.86307 18.4693L7.86357 21.3214L7.00515 21.3216Z" stroke="#231F20" style="stroke:#231F20;stroke:color(display-p3 0.1373 0.1216 0.1255);stroke-opacity:1;" stroke-width="0.200756"/>
<path d="M7.57544 21.3214L7.7496 20.8591L8.39175 20.841C9.13627 20.8407 9.58638 20.4263 9.58613 19.88C9.58613 19.2195 8.98583 18.9074 8.52355 18.9076L7.74319 18.8658L7.63518 18.4694L8.54143 18.4691C9.58416 18.4689 10.4865 19.0273 10.4867 19.9068C10.4869 20.7925 9.58467 21.3212 8.54187 21.3214H7.57544Z" fill="#231F20" style="fill:#231F20;fill:color(display-p3 0.1373 0.1216 0.1255);fill-opacity:1;"/>
<path d="M7.57544 21.3214L7.7496 20.8591L8.39175 20.841C9.13627 20.8407 9.58638 20.4263 9.58613 19.88C9.58613 19.2195 8.98583 18.9074 8.52355 18.9076L7.74319 18.8657L7.63518 18.4694L8.54143 18.4691C9.58416 18.4688 10.4865 19.0273 10.4867 19.9068C10.4869 20.7925 9.58467 21.3212 8.54187 21.3214H7.57544Z" stroke="#231F20" style="stroke:#231F20;stroke:color(display-p3 0.1373 0.1216 0.1255);stroke-opacity:1;" stroke-width="0.200756"/>
<path d="M7.00588 24.9052L7.00537 22.053L7.8638 22.0527L7.8643 24.905L7.00588 24.9052Z" fill="#231F20" style="fill:#231F20;fill:color(display-p3 0.1373 0.1216 0.1255);fill-opacity:1;"/>
<path d="M7.00588 24.9053L7.00537 22.053L7.8638 22.0528L7.8643 24.905L7.00588 24.9053Z" stroke="#231F20" style="stroke:#231F20;stroke:color(display-p3 0.1373 0.1216 0.1255);stroke-opacity:1;" stroke-width="0.200756"/>
<path d="M7.57617 24.905L7.75008 24.4427L8.39249 24.4244C9.13694 24.4244 9.58686 24.0099 9.58686 23.4636C9.58661 22.8032 8.98631 22.491 8.52402 22.491L7.74367 22.4491L7.6356 22.053L8.5421 22.0527C9.5849 22.0525 10.4871 22.6107 10.4874 23.4904C10.4874 24.3761 9.5854 24.9045 8.54261 24.9048L7.57617 24.905Z" fill="#231F20" style="fill:#231F20;fill:color(display-p3 0.1373 0.1216 0.1255);fill-opacity:1;"/>
<path d="M7.57617 24.905L7.75008 24.4427L8.39249 24.4244C9.13694 24.4244 9.58686 24.0099 9.58686 23.4636C9.58661 22.8031 8.98631 22.491 8.52402 22.491L7.74367 22.4491L7.6356 22.053L8.5421 22.0527C9.5849 22.0525 10.4871 22.6107 10.4874 23.4904C10.4874 24.3761 9.5854 24.9045 8.54261 24.9048L7.57617 24.905Z" stroke="#231F20" style="stroke:#231F20;stroke:color(display-p3 0.1373 0.1216 0.1255);stroke-opacity:1;" stroke-width="0.200756"/>
<path d="M15.6802 24.9164L15.6797 21.824H16.5082L16.5087 24.9161L15.6802 24.9164Z" fill="#231F20" style="fill:#231F20;fill:color(display-p3 0.1373 0.1216 0.1255);fill-opacity:1;"/>
<path d="M15.6802 24.9164L15.6797 21.824H16.5082L16.5087 24.9161L15.6802 24.9164Z" stroke="#231F20" style="stroke:#231F20;stroke:color(display-p3 0.1373 0.1216 0.1255);stroke-opacity:1;" stroke-width="0.200756"/>
<path d="M20.2605 24.9394L20.26 22.82L21.0885 22.8198L21.089 24.9392L20.2605 24.9394Z" fill="#231F20" style="fill:#231F20;fill:color(display-p3 0.1373 0.1216 0.1255);fill-opacity:1;"/>
<path d="M20.2605 24.9395L20.26 22.8201L21.0885 22.8198L21.089 24.9393L20.2605 24.9395Z" stroke="#231F20" style="stroke:#231F20;stroke:color(display-p3 0.1373 0.1216 0.1255);stroke-opacity:1;" stroke-width="0.200756"/>
<path d="M20.26 21.8292L21.0885 21.829V22.3753L20.26 22.3756V21.8292Z" fill="#231F20" style="fill:#231F20;fill:color(display-p3 0.1373 0.1216 0.1255);fill-opacity:1;"/>
<path d="M20.26 21.8292L21.0885 21.829V22.3753L20.26 22.3755V21.8292Z" stroke="#231F20" style="stroke:#231F20;stroke:color(display-p3 0.1373 0.1216 0.1255);stroke-opacity:1;" stroke-width="0.200756"/>
<path d="M23.0579 24.3806L23.0576 22.273L23.9039 22.2728L23.9044 24.2842C23.9044 24.5545 24.3667 24.6384 24.6308 24.5483V25.0165C24.0605 25.1488 23.0581 25.131 23.0579 24.3806Z" fill="#231F20" style="fill:#231F20;fill:color(display-p3 0.1373 0.1216 0.1255);fill-opacity:1;"/>
<path d="M23.0579 24.3805L23.0576 22.2729L23.9039 22.2727L23.9044 24.2841C23.9044 24.5544 24.3667 24.6384 24.6308 24.5483V25.0165C24.0605 25.1488 23.0581 25.131 23.0579 24.3805Z" stroke="#231F20" style="stroke:#231F20;stroke:color(display-p3 0.1373 0.1216 0.1255);stroke-opacity:1;" stroke-width="0.200756"/>
<path d="M22.3972 23.2696V22.8195L24.6062 22.819L24.6064 23.2694L22.3972 23.2696Z" fill="#231F20" style="fill:#231F20;fill:color(display-p3 0.1373 0.1216 0.1255);fill-opacity:1;"/>
<path d="M22.3972 23.2697V22.8195L24.6062 22.819L24.6064 23.2694L22.3972 23.2697Z" stroke="#231F20" style="stroke:#231F20;stroke:color(display-p3 0.1373 0.1216 0.1255);stroke-opacity:1;" stroke-width="0.200756"/>
<path d="M20.4996 12.2165C20.4988 9.0424 18.5915 7.66841 16.4234 7.18506V7.0208C20.367 7.22369 23.2567 9.61967 23.2572 12.3639C23.258 15.4974 19.8599 17.7351 15.6675 17.736C11.4754 17.7368 8.095 15.3332 8.09424 12.3674C8.09373 9.25569 11.0454 7.00621 16.0778 7.00494L16.0786 10.8705L14.8889 10.8472C12.3396 10.9379 9.38793 12.0498 9.38819 13.5429C9.38844 15.1853 12.1914 17.1588 15.5563 17.158C18.278 17.1575 20.5 15.1828 20.4996 12.2165Z" fill="#231F20" style="fill:#231F20;fill:color(display-p3 0.1373 0.1216 0.1255);fill-opacity:1;"/>
<path d="M20.4996 12.2165C20.4988 9.04242 18.5915 7.66843 16.4234 7.18508V7.02082C20.367 7.22371 23.2567 9.61969 23.2572 12.3639C23.258 15.4974 19.8599 17.7351 15.6675 17.736C11.4754 17.7368 8.095 15.3332 8.09424 12.3674C8.09373 9.25571 11.0454 7.00623 16.0778 7.00496L16.0786 10.8705L14.8889 10.8472C12.3396 10.9379 9.38793 12.0498 9.38819 13.543C9.38844 15.1853 12.1914 17.1588 15.5563 17.1581C18.278 17.1575 20.5 15.1828 20.4996 12.2165Z" stroke="#231F20" style="stroke:#231F20;stroke:color(display-p3 0.1373 0.1216 0.1255);stroke-opacity:1;" stroke-width="0.200756"/>
<path d="M16.0576 16.7136C14.613 16.6108 12.7551 15.649 12.7549 13.9901C12.7546 12.3478 14.3365 11.1567 16.0566 11.0908L16.0576 16.7136Z" fill="#231F20" style="fill:#231F20;fill:color(display-p3 0.1373 0.1216 0.1255);fill-opacity:1;"/>
<path d="M16.0576 16.7136C14.613 16.6108 12.7551 15.649 12.7549 13.9901C12.7546 12.3478 14.3365 11.1567 16.0566 11.0908L16.0576 16.7136Z" stroke="#231F20" style="stroke:#231F20;stroke:color(display-p3 0.1373 0.1216 0.1255);stroke-opacity:1;" stroke-width="0.200756"/>
<path d="M12.2825 23.591L13.6151 23.5872C13.5789 23.2657 13.3388 23.0856 12.9787 23.0856C12.5884 23.0858 12.2944 23.2359 12.2825 23.591ZM12.2765 23.9864C12.3186 24.8091 13.9753 24.5145 14.1975 24.2802V24.7786C13.8673 24.9347 13.4422 24.9528 12.97 24.9531C12.1095 24.9533 11.4121 24.5151 11.4119 23.8005C11.4119 23.1638 12.0541 22.6594 12.9695 22.6592C13.6748 22.6592 14.4555 22.9892 14.4014 23.9859L12.2765 23.9864Z" fill="#231F20" style="fill:#231F20;fill:color(display-p3 0.1373 0.1216 0.1255);fill-opacity:1;"/>
<path d="M12.2825 23.591L13.6151 23.5873C13.5789 23.2657 13.3388 23.0856 12.9787 23.0856C12.5884 23.0858 12.2944 23.236 12.2825 23.591ZM12.2765 23.9864C12.3186 24.8092 13.9753 24.5146 14.1975 24.2802V24.7787C13.8673 24.9347 13.4422 24.9528 12.97 24.9531C12.1095 24.9533 11.4121 24.5151 11.4119 23.8005C11.4119 23.1638 12.0541 22.6594 12.9695 22.6592C13.6748 22.6592 14.4555 22.9892 14.4014 23.9859L12.2765 23.9864Z" stroke="#231F20" style="stroke:#231F20;stroke:color(display-p3 0.1373 0.1216 0.1255);stroke-opacity:1;" stroke-width="0.200756"/>
<path d="M13.3861 19.6752L13.9445 19.6749C14.1665 19.6749 14.4846 19.5307 14.4846 19.2936C14.4846 19.0323 14.2215 18.9064 13.9564 18.9064H13.3861V19.6752ZM15.343 19.1943C15.3433 19.8729 14.7046 19.9241 14.6709 19.9268C14.773 19.993 14.8641 20.1241 14.8688 20.131L15.5268 21.3016L14.6312 21.3018L14.1787 20.4494C14.1727 20.4347 14.0585 20.1553 13.7094 20.1612L13.3923 20.1615L13.3925 21.3024H12.5415L12.541 18.4384L14.0795 18.4379C14.5101 18.4379 15.343 18.5459 15.343 19.1943Z" fill="#231F20" style="fill:#231F20;fill:color(display-p3 0.1373 0.1216 0.1255);fill-opacity:1;"/>
<path d="M13.3861 19.6751L13.9445 19.6749C14.1665 19.6749 14.4846 19.5307 14.4846 19.2936C14.4846 19.0322 14.2215 18.9063 13.9564 18.9063H13.3861V19.6751ZM15.343 19.1943C15.3433 19.8728 14.7046 19.9241 14.6709 19.9268C14.773 19.9929 14.8641 20.124 14.8688 20.131L15.5268 21.3015L14.6312 21.3018L14.1787 20.4493C14.1727 20.4347 14.0585 20.1552 13.7094 20.1612L13.3923 20.1615L13.3925 21.3023H12.5415L12.541 18.4384L14.0795 18.4379C14.5101 18.4379 15.343 18.5459 15.343 19.1943Z" stroke="#231F20" style="stroke:#231F20;stroke:color(display-p3 0.1373 0.1216 0.1255);stroke-opacity:1;" stroke-width="0.200756"/>
<path d="M16.5026 23.8744C16.5026 24.2344 16.8279 24.526 17.229 24.5257C17.6301 24.5257 17.9554 24.2339 17.9554 23.8742C17.9551 23.5145 17.6301 23.2229 17.2287 23.2229C16.8277 23.2231 16.5026 23.5147 16.5026 23.8744ZM16.2563 23.8507C16.2563 23.0608 16.7786 22.7427 17.5261 22.7425C18.224 22.7422 18.7836 23.1143 18.7839 23.8499C18.7839 24.5676 18.2183 24.994 17.5204 24.9943C16.713 24.9943 16.2566 24.6521 16.2563 23.8507Z" fill="#231F20" style="fill:#231F20;fill:color(display-p3 0.1373 0.1216 0.1255);fill-opacity:1;"/>
<path d="M16.5026 23.8743C16.5026 24.2343 16.8279 24.526 17.229 24.5257C17.6301 24.5257 17.9554 24.2338 17.9554 23.8742C17.9551 23.5144 17.6301 23.2228 17.2287 23.2228C16.8277 23.2231 16.5026 23.5147 16.5026 23.8743ZM16.2563 23.8506C16.2563 23.0608 16.7786 22.7427 17.5261 22.7424C18.224 22.7422 18.7836 23.1143 18.7839 23.8499C18.7839 24.5676 18.2183 24.9939 17.5204 24.9942C16.713 24.9942 16.2566 24.652 16.2563 23.8506Z" stroke="#231F20" style="stroke:#231F20;stroke:color(display-p3 0.1373 0.1216 0.1255);stroke-opacity:1;" stroke-width="0.200756"/>
</g>
<defs>
<clipPath id="clip0_2537_290">
<rect width="18" height="18.0844" fill="white" style="fill:white;fill-opacity:1;" transform="translate(7 7)"/>
</clipPath>
</defs>
</svg>
