<svg width="32" height="24" viewBox="0 0 32 24" fill="none" xmlns="http://www.w3.org/2000/svg">
<rect x="0.5" y="0.5" width="31" height="23" rx="3.5" fill="white" style="fill:white;fill-opacity:1;"/>
<rect x="0.5" y="0.5" width="31" height="23" rx="3.5" stroke="#ECECF0" style="stroke:#ECECF0;stroke:color(display-p3 0.9255 0.9255 0.9412);stroke-opacity:1;"/>
<g clip-path="url(#clip0_2740_2165)">
<path d="M21.0709 14.2435L21.0035 14.6211C20.828 14.5626 19.1513 14.1733 19.1277 15.4144C19.1088 16.4082 20.634 16.2848 20.9835 16.192L21.0227 16.6039C19.8762 16.9235 18.3528 16.5772 18.321 15.4049C18.2847 14.0534 20.2993 13.8846 21.0709 14.2435Z" fill="#231F20" style="fill:#231F20;fill:color(display-p3 0.1373 0.1216 0.1255);fill-opacity:1;"/>
<path d="M21.0709 14.2434L21.0035 14.6211C20.828 14.5626 19.1513 14.1733 19.1277 15.4144C19.1088 16.4082 20.634 16.2848 20.9835 16.192L21.0227 16.6039C19.8762 16.9235 18.3528 16.5772 18.321 15.4049C18.2847 14.0534 20.2993 13.8846 21.0709 14.2434Z" stroke="#231F20" style="stroke:#231F20;stroke:color(display-p3 0.1373 0.1216 0.1255);stroke-opacity:1;" stroke-width="0.0803024"/>
<path d="M22.257 16.6714L22.2568 14.5431L21.2266 14.5433V14.1369L23.9958 14.1363L23.996 14.5426L22.9854 14.5429L22.9857 16.6712L22.257 16.6714Z" fill="#231F20" style="fill:#231F20;fill:color(display-p3 0.1373 0.1216 0.1255);fill-opacity:1;"/>
<path d="M22.257 16.6714L22.2568 14.5431L21.2266 14.5433V14.1369L23.9958 14.1363L23.996 14.5426L22.9854 14.5429L22.9857 16.6712L22.257 16.6714Z" stroke="#231F20" style="stroke:#231F20;stroke:color(display-p3 0.1373 0.1216 0.1255);stroke-opacity:1;" stroke-width="0.0803024"/>
<path d="M16.0789 14.1194L18.1211 14.1187L18.1214 14.5439L16.7606 14.5442L16.7611 16.6532H16.0793L16.0789 14.1194Z" fill="#231F20" style="fill:#231F20;fill:color(display-p3 0.1373 0.1216 0.1255);fill-opacity:1;"/>
<path d="M16.0789 14.1194L18.1211 14.1187L18.1214 14.5439L16.7606 14.5441L16.7611 16.6532H16.0793L16.0789 14.1194Z" stroke="#231F20" style="stroke:#231F20;stroke:color(display-p3 0.1373 0.1216 0.1255);stroke-opacity:1;" stroke-width="0.0803024"/>
<path d="M16.6968 15.1868L18.0414 15.1866V15.6116L16.6968 15.6119V15.1868Z" fill="#231F20" style="fill:#231F20;fill:color(display-p3 0.1373 0.1216 0.1255);fill-opacity:1;"/>
<path d="M16.6968 15.1868L18.0414 15.1866V15.6117L16.6968 15.6119V15.1868Z" stroke="#231F20" style="stroke:#231F20;stroke:color(display-p3 0.1373 0.1216 0.1255);stroke-opacity:1;" stroke-width="0.0803024"/>
<path d="M16.697 16.2282L18.111 16.228V16.6528L16.697 16.6532V16.2282Z" fill="#231F20" style="fill:#231F20;fill:color(display-p3 0.1373 0.1216 0.1255);fill-opacity:1;"/>
<path d="M16.697 16.2282L18.111 16.228V16.6527L16.697 16.6532V16.2282Z" stroke="#231F20" style="stroke:#231F20;stroke:color(display-p3 0.1373 0.1216 0.1255);stroke-opacity:1;" stroke-width="0.0803024"/>
<path d="M11.5105 16.6491L11.51 14.1255L12.2731 14.1253L12.2735 16.6488L11.5105 16.6491Z" fill="#231F20" style="fill:#231F20;fill:color(display-p3 0.1373 0.1216 0.1255);fill-opacity:1;"/>
<path d="M11.5105 16.649L11.51 14.1255L12.2731 14.1253L12.2735 16.6488L11.5105 16.649Z" stroke="#231F20" style="stroke:#231F20;stroke:color(display-p3 0.1373 0.1216 0.1255);stroke-opacity:1;" stroke-width="0.0803024"/>
<path d="M8.0046 16.6709L8.00415 14.1477L8.7672 14.1474L8.76765 16.6708L8.0046 16.6709Z" fill="#231F20" style="fill:#231F20;fill:color(display-p3 0.1373 0.1216 0.1255);fill-opacity:1;"/>
<path d="M8.0046 16.6709L8.00415 14.1476L8.7672 14.1474L8.76765 16.6708L8.0046 16.6709Z" stroke="#231F20" style="stroke:#231F20;stroke:color(display-p3 0.1373 0.1216 0.1255);stroke-opacity:1;" stroke-width="0.0803024"/>
<path d="M8.51147 16.6708L8.66628 16.2618L9.23709 16.2457C9.89888 16.2455 10.299 15.8788 10.2988 15.3955C10.2988 14.8111 9.76516 14.535 9.35424 14.5352L8.66059 14.4981L8.56458 14.1474L9.37013 14.1472C10.297 14.147 11.0991 14.6411 11.0993 15.4192C11.0995 16.2028 10.2975 16.6706 9.37053 16.6708H8.51147Z" fill="#231F20" style="fill:#231F20;fill:color(display-p3 0.1373 0.1216 0.1255);fill-opacity:1;"/>
<path d="M8.51147 16.6708L8.66628 16.2618L9.23709 16.2457C9.89888 16.2455 10.299 15.8788 10.2988 15.3955C10.2988 14.8111 9.76516 14.535 9.35424 14.5352L8.66059 14.4981L8.56458 14.1474L9.37013 14.1472C10.297 14.147 11.0991 14.6411 11.0993 15.4192C11.0995 16.2028 10.2975 16.6706 9.37053 16.6708H8.51147Z" stroke="#231F20" style="stroke:#231F20;stroke:color(display-p3 0.1373 0.1216 0.1255);stroke-opacity:1;" stroke-width="0.0803024"/>
<path d="M8.00533 19.8415L8.00488 17.318L8.76793 17.3178L8.76838 19.8413L8.00533 19.8415Z" fill="#231F20" style="fill:#231F20;fill:color(display-p3 0.1373 0.1216 0.1255);fill-opacity:1;"/>
<path d="M8.00533 19.8416L8.00488 17.318L8.76793 17.3178L8.76838 19.8413L8.00533 19.8416Z" stroke="#231F20" style="stroke:#231F20;stroke:color(display-p3 0.1373 0.1216 0.1255);stroke-opacity:1;" stroke-width="0.0803024"/>
<path d="M8.51221 19.8413L8.66679 19.4323L9.23782 19.4161C9.89956 19.4161 10.2995 19.0494 10.2995 18.5661C10.2993 17.9817 9.76567 17.7055 9.35474 17.7055L8.6611 17.6685L8.56503 17.318L9.37081 17.3178C10.2977 17.3176 11.0997 17.8114 11.1 18.5898C11.1 19.3734 10.2982 19.8409 9.37126 19.8411L8.51221 19.8413Z" fill="#231F20" style="fill:#231F20;fill:color(display-p3 0.1373 0.1216 0.1255);fill-opacity:1;"/>
<path d="M8.51221 19.8413L8.66679 19.4323L9.23782 19.4161C9.89956 19.4161 10.2995 19.0494 10.2995 18.5661C10.2993 17.9817 9.76567 17.7055 9.35474 17.7055L8.6611 17.6685L8.56503 17.318L9.37081 17.3178C10.2977 17.3176 11.0997 17.8114 11.1 18.5898C11.1 19.3734 10.2982 19.8409 9.37126 19.8411L8.51221 19.8413Z" stroke="#231F20" style="stroke:#231F20;stroke:color(display-p3 0.1373 0.1216 0.1255);stroke-opacity:1;" stroke-width="0.0803024"/>
<path d="M15.7158 19.8514L15.7153 17.1155H16.4518L16.4522 19.8512L15.7158 19.8514Z" fill="#231F20" style="fill:#231F20;fill:color(display-p3 0.1373 0.1216 0.1255);fill-opacity:1;"/>
<path d="M15.7158 19.8514L15.7153 17.1155H16.4518L16.4522 19.8512L15.7158 19.8514Z" stroke="#231F20" style="stroke:#231F20;stroke:color(display-p3 0.1373 0.1216 0.1255);stroke-opacity:1;" stroke-width="0.0803024"/>
<path d="M19.7871 19.8718L19.7866 17.9967L20.5231 17.9964L20.5235 19.8716L19.7871 19.8718Z" fill="#231F20" style="fill:#231F20;fill:color(display-p3 0.1373 0.1216 0.1255);fill-opacity:1;"/>
<path d="M19.7871 19.8718L19.7866 17.9967L20.5231 17.9964L20.5235 19.8716L19.7871 19.8718Z" stroke="#231F20" style="stroke:#231F20;stroke:color(display-p3 0.1373 0.1216 0.1255);stroke-opacity:1;" stroke-width="0.0803024"/>
<path d="M19.7866 17.1201L20.5231 17.1198V17.6032L19.7866 17.6034V17.1201Z" fill="#231F20" style="fill:#231F20;fill:color(display-p3 0.1373 0.1216 0.1255);fill-opacity:1;"/>
<path d="M19.7866 17.1201L20.5231 17.1198V17.6032L19.7866 17.6034V17.1201Z" stroke="#231F20" style="stroke:#231F20;stroke:color(display-p3 0.1373 0.1216 0.1255);stroke-opacity:1;" stroke-width="0.0803024"/>
<path d="M22.2737 19.3773L22.2734 17.5126L23.0257 17.5125L23.0261 19.292C23.0261 19.5312 23.437 19.6055 23.6718 19.5257V19.9399C23.1649 20.057 22.2738 20.0412 22.2737 19.3773Z" fill="#231F20" style="fill:#231F20;fill:color(display-p3 0.1373 0.1216 0.1255);fill-opacity:1;"/>
<path d="M22.2737 19.3773L22.2734 17.5126L23.0257 17.5125L23.0261 19.292C23.0261 19.5312 23.437 19.6055 23.6718 19.5257V19.94C23.1649 20.057 22.2738 20.0413 22.2737 19.3773Z" stroke="#231F20" style="stroke:#231F20;stroke:color(display-p3 0.1373 0.1216 0.1255);stroke-opacity:1;" stroke-width="0.0803024"/>
<path d="M21.6865 18.3944V17.9962L23.65 17.9958L23.6502 18.3942L21.6865 18.3944Z" fill="#231F20" style="fill:#231F20;fill:color(display-p3 0.1373 0.1216 0.1255);fill-opacity:1;"/>
<path d="M21.6865 18.3944V17.9962L23.65 17.9958L23.6502 18.3942L21.6865 18.3944Z" stroke="#231F20" style="stroke:#231F20;stroke:color(display-p3 0.1373 0.1216 0.1255);stroke-opacity:1;" stroke-width="0.0803024"/>
<path d="M19.9996 8.61529C19.999 5.80702 18.3035 4.59139 16.3764 4.16375V4.01842C19.8818 4.19793 22.4504 6.31776 22.4509 8.7457C22.4515 11.518 19.431 13.4978 15.7045 13.4986C11.9782 13.4993 8.97333 11.3727 8.97266 8.74879C8.97221 5.99572 11.5959 4.00552 16.0692 4.00439L16.0699 7.42441L15.0124 7.40382C12.7463 7.48406 10.1226 8.46777 10.1228 9.78884C10.1231 11.2419 12.6146 12.9879 15.6056 12.9873C18.0249 12.9868 20 11.2397 19.9996 8.61529Z" fill="#231F20" style="fill:#231F20;fill:color(display-p3 0.1373 0.1216 0.1255);fill-opacity:1;"/>
<path d="M19.9996 8.61527C19.999 5.80699 18.3035 4.59137 16.3764 4.16373V4.0184C19.8818 4.1979 22.4504 6.31773 22.4509 8.74568C22.4515 11.518 19.431 13.4978 15.7045 13.4986C11.9782 13.4993 8.97333 11.3727 8.97266 8.74876C8.97221 5.9957 11.5959 4.00549 16.0692 4.00437L16.0699 7.42439L15.0124 7.40379C12.7463 7.48404 10.1226 8.46775 10.1228 9.78881C10.1231 11.2419 12.6146 12.9879 15.6056 12.9872C18.0249 12.9868 20 11.2397 19.9996 8.61527Z" stroke="#231F20" style="stroke:#231F20;stroke:color(display-p3 0.1373 0.1216 0.1255);stroke-opacity:1;" stroke-width="0.0803024"/>
<path d="M16.0512 12.594C14.7671 12.503 13.1157 11.6521 13.1155 10.1845C13.1153 8.73142 14.5214 7.67756 16.0503 7.61926L16.0512 12.594Z" fill="#231F20" style="fill:#231F20;fill:color(display-p3 0.1373 0.1216 0.1255);fill-opacity:1;"/>
<path d="M16.0512 12.594C14.7671 12.5031 13.1157 11.6522 13.1155 10.1845C13.1153 8.73144 14.5214 7.67759 16.0503 7.61929L16.0512 12.594Z" stroke="#231F20" style="stroke:#231F20;stroke:color(display-p3 0.1373 0.1216 0.1255);stroke-opacity:1;" stroke-width="0.0803024"/>
<path d="M12.6955 18.6788L13.8801 18.6755C13.8479 18.391 13.6345 18.2316 13.3143 18.2316C12.9675 18.2318 12.7061 18.3647 12.6955 18.6788ZM12.6902 19.0286C12.7276 19.7565 14.2002 19.4959 14.3978 19.2886V19.7295C14.1042 19.8676 13.7263 19.8836 13.3066 19.8839C12.5418 19.8841 11.9219 19.4963 11.9216 18.8642C11.9216 18.3009 12.4925 17.8546 13.3062 17.8544C13.9331 17.8544 14.627 18.1463 14.579 19.0281L12.6902 19.0286Z" fill="#231F20" style="fill:#231F20;fill:color(display-p3 0.1373 0.1216 0.1255);fill-opacity:1;"/>
<path d="M12.6955 18.6788L13.8801 18.6755C13.8479 18.391 13.6345 18.2316 13.3143 18.2316C12.9675 18.2318 12.7061 18.3647 12.6955 18.6788ZM12.6902 19.0286C12.7276 19.7565 14.2002 19.4959 14.3978 19.2885V19.7295C14.1042 19.8676 13.7263 19.8836 13.3066 19.8839C12.5418 19.8841 11.9219 19.4963 11.9216 18.8642C11.9216 18.3009 12.4925 17.8546 13.3062 17.8544C13.9331 17.8544 14.627 18.1463 14.579 19.0281L12.6902 19.0286Z" stroke="#231F20" style="stroke:#231F20;stroke:color(display-p3 0.1373 0.1216 0.1255);stroke-opacity:1;" stroke-width="0.0803024"/>
<path d="M13.6764 15.2142L14.1728 15.214C14.3701 15.214 14.6529 15.0864 14.6529 14.8767C14.6529 14.6454 14.419 14.534 14.1834 14.534H13.6764V15.2142ZM15.416 14.7888C15.4162 15.3892 14.8484 15.4345 14.8185 15.4369C14.9093 15.4954 14.9903 15.6114 14.9945 15.6175L15.5794 16.6532L14.7833 16.6534L14.381 15.8992C14.3757 15.8863 14.2741 15.639 13.9638 15.6443L13.682 15.6445L13.6822 16.6539H12.9257L12.9253 14.12L14.2929 14.1196C14.6756 14.1196 15.416 14.2152 15.416 14.7888Z" fill="#231F20" style="fill:#231F20;fill:color(display-p3 0.1373 0.1216 0.1255);fill-opacity:1;"/>
<path d="M13.6764 15.2142L14.1728 15.214C14.3701 15.214 14.6529 15.0864 14.6529 14.8767C14.6529 14.6454 14.419 14.534 14.1834 14.534H13.6764V15.2142ZM15.416 14.7888C15.4162 15.3891 14.8484 15.4345 14.8185 15.4369C14.9093 15.4954 14.9903 15.6114 14.9945 15.6175L15.5794 16.6532L14.7833 16.6534L14.381 15.8992C14.3757 15.8862 14.2741 15.639 13.9638 15.6443L13.682 15.6445L13.6822 16.6539H12.9257L12.9253 14.12L14.2929 14.1196C14.6756 14.1196 15.416 14.2152 15.416 14.7888Z" stroke="#231F20" style="stroke:#231F20;stroke:color(display-p3 0.1373 0.1216 0.1255);stroke-opacity:1;" stroke-width="0.0803024"/>
<path d="M16.4467 18.9295C16.4467 19.248 16.7358 19.506 17.0924 19.5058C17.4489 19.5058 17.738 19.2475 17.738 18.9293C17.7378 18.611 17.4489 18.353 17.0921 18.353C16.7356 18.3533 16.4467 18.6113 16.4467 18.9295ZM16.2278 18.9085C16.2278 18.2097 16.692 17.9283 17.3564 17.928C17.9768 17.9278 18.4742 18.257 18.4745 18.9078C18.4745 19.5428 17.9717 19.92 17.3514 19.9203C16.6337 19.9203 16.228 19.6175 16.2278 18.9085Z" fill="#231F20" style="fill:#231F20;fill:color(display-p3 0.1373 0.1216 0.1255);fill-opacity:1;"/>
<path d="M16.4467 18.9295C16.4467 19.248 16.7358 19.506 17.0924 19.5058C17.4489 19.5058 17.738 19.2475 17.738 18.9293C17.7378 18.611 17.4489 18.353 17.0921 18.353C16.7356 18.3533 16.4467 18.6113 16.4467 18.9295ZM16.2278 18.9085C16.2278 18.2097 16.692 17.9283 17.3564 17.928C17.9768 17.9278 18.4742 18.257 18.4745 18.9078C18.4745 19.5428 17.9717 19.92 17.3514 19.9203C16.6337 19.9203 16.228 19.6175 16.2278 18.9085Z" stroke="#231F20" style="stroke:#231F20;stroke:color(display-p3 0.1373 0.1216 0.1255);stroke-opacity:1;" stroke-width="0.0803024"/>
</g>
<defs>
<clipPath id="clip0_2740_2165">
<rect width="16" height="16" fill="white" style="fill:white;fill-opacity:1;" transform="translate(8 4)"/>
</clipPath>
</defs>
</svg>
