<svg width="40" height="40" viewBox="0 0 40 40" fill="none" xmlns="http://www.w3.org/2000/svg">
<rect width="40" height="40" rx="10" fill="#002D73" style="fill:#002D73;fill:color(display-p3 0.0000 0.1765 0.4510);fill-opacity:1;"/>
<path d="M30.2039 18.9892L21.0036 9.79194C20.734 9.52483 20.37 9.375 19.9907 9.375C19.6113 9.375 19.2473 9.52483 18.9777 9.79194L9.79614 18.9892C9.66271 19.1215 9.55679 19.2789 9.48451 19.4524C9.41222 19.6259 9.375 19.812 9.375 20C9.375 20.188 9.41222 20.3741 9.48451 20.5476C9.55679 20.7211 9.66271 20.8785 9.79614 21.0108L18.984 30.2081C19.2536 30.4752 19.6176 30.625 19.9969 30.625C20.3762 30.625 20.7402 30.4752 21.0098 30.2081L30.2039 21.0108C30.3373 20.8785 30.4432 20.7211 30.5155 20.5476C30.5878 20.3741 30.625 20.188 30.625 20C30.625 19.812 30.5878 19.6259 30.5155 19.4524C30.4432 19.2789 30.3373 19.1215 30.2039 18.9892ZM23.9332 22.2026C23.6963 24.1306 22.3001 25.0604 20.0187 25.0604H15.3998L15.6679 22.9139H20.2306C20.8166 22.9139 21.1345 22.5583 21.2093 21.9343C21.2153 21.87 21.2153 21.8052 21.2093 21.7409H23.9706C23.9706 21.8719 23.9332 22.0404 23.9145 22.2026H23.9332ZM25.8032 20.9547H15.8673L16.1042 19.0204H20.561C21.1843 19.0204 21.4149 18.5649 21.4835 18.022C21.5521 17.4792 21.4835 17.136 20.7854 17.136H16.3348L16.6029 14.9084H21.1532C23.7462 14.9084 24.4443 16.0129 24.2698 17.5291C24.2236 18.0596 24.0505 18.5711 23.7649 19.0204H24.0329C24.2805 19.0189 24.5255 19.0708 24.7514 19.1725C24.9772 19.2742 25.1785 19.4233 25.3417 19.6097C25.5048 19.7961 25.6261 20.0155 25.6971 20.2529C25.7681 20.4904 25.7873 20.7403 25.7533 20.9859L25.8032 20.9547Z" fill="white" style="fill:white;fill-opacity:1;"/>
</svg>
