<svg width="32" height="32" viewBox="0 0 32 32" fill="none" xmlns="http://www.w3.org/2000/svg">
<g clip-path="url(#clip0_19_127)">
<path d="M8 0.5H24C28.1421 0.5 31.5 3.85786 31.5 8V24C31.5 28.1421 28.1421 31.5 24 31.5H8C3.85786 31.5 0.5 28.1421 0.5 24V8C0.5 3.85786 3.85786 0.5 8 0.5Z" fill="white" stroke="#EEEEEE" style="fill:white;fill-opacity:1;stroke:#EEEEEE;stroke:color(display-p3 0.9333 0.9333 0.9333);stroke-opacity:1;"/>
<path d="M9 21C12.6164 21 14.1918 18.411 16 16H4V21H9Z" fill="url(#paint0_linear_19_127)" style=""/>
<path d="M23 11C19.3836 11 17.8082 13.589 16 16H28V11H23Z" fill="url(#paint1_linear_19_127)" style=""/>
</g>
<defs>
<linearGradient id="paint0_linear_19_127" x1="6.42722" y1="18.4555" x2="15.2057" y2="15.1949" gradientUnits="userSpaceOnUse">
<stop stop-color="#005AB9" style="stop-color:#005AB9;stop-color:color(display-p3 0.0000 0.3529 0.7255);stop-opacity:1;"/>
<stop offset="1" stop-color="#1E3764" style="stop-color:#1E3764;stop-color:color(display-p3 0.1176 0.2157 0.3922);stop-opacity:1;"/>
</linearGradient>
<linearGradient id="paint1_linear_19_127" x1="16.7266" y1="16.2401" x2="26.0475" y2="13.06" gradientUnits="userSpaceOnUse">
<stop stop-color="#FBA900" style="stop-color:#FBA900;stop-color:color(display-p3 0.9843 0.6627 0.0000);stop-opacity:1;"/>
<stop offset="1" stop-color="#FFD800" style="stop-color:#FFD800;stop-color:color(display-p3 1.0000 0.8471 0.0000);stop-opacity:1;"/>
</linearGradient>
<clipPath id="clip0_19_127">
<rect width="32" height="32" rx="8" fill="white" style="fill:white;fill-opacity:1;"/>
</clipPath>
</defs>
</svg>
