<svg width="32" height="32" viewBox="0 0 32 32" fill="none" xmlns="http://www.w3.org/2000/svg">
<rect width="32" height="32" rx="8" fill="#002D73" style="fill:#002D73;fill:color(display-p3 0.0000 0.1765 0.4510);fill-opacity:1;"/>
<path d="M24.1631 15.1913L16.8028 7.83355C16.5872 7.61986 16.296 7.5 15.9925 7.5C15.6891 7.5 15.3979 7.61986 15.1822 7.83355L7.83691 15.1913C7.73017 15.2972 7.64543 15.4231 7.58761 15.5619C7.52978 15.7007 7.5 15.8496 7.5 16C7.5 16.1504 7.52978 16.2993 7.58761 16.4381C7.64543 16.5769 7.73017 16.7028 7.83691 16.8087L15.1872 24.1664C15.4029 24.3801 15.6941 24.5 15.9975 24.5C16.301 24.5 16.5922 24.3801 16.8078 24.1664L24.1631 16.8087C24.2698 16.7028 24.3546 16.5769 24.4124 16.4381C24.4702 16.2993 24.5 16.1504 24.5 16C24.5 15.8496 24.4702 15.7007 24.4124 15.5619C24.3546 15.4231 24.2698 15.2972 24.1631 15.1913ZM19.1466 17.7621C18.9571 19.3045 17.8401 20.0483 16.015 20.0483H12.3199L12.5343 18.3311H16.1845C16.6532 18.3311 16.9076 18.0466 16.9674 17.5474C16.9722 17.496 16.9722 17.4442 16.9674 17.3927H19.1765C19.1765 17.4975 19.1466 17.6323 19.1316 17.7621H19.1466ZM20.6425 16.7637H12.6939L12.8834 15.2163H16.4488C16.9475 15.2163 17.132 14.8519 17.1868 14.4176C17.2417 13.9833 17.1868 13.7088 16.6283 13.7088H13.0679L13.2823 11.9268H16.9225C18.997 11.9268 19.5555 12.8103 19.4158 14.0233C19.3789 14.4477 19.2404 14.8569 19.0119 15.2163H19.2263C19.4244 15.2151 19.6204 15.2566 19.8011 15.338C19.9817 15.4193 20.1428 15.5386 20.2733 15.6878C20.4039 15.8369 20.5008 16.0124 20.5577 16.2024C20.6145 16.3923 20.6298 16.5923 20.6026 16.7887L20.6425 16.7637Z" fill="white" style="fill:white;fill-opacity:1;"/>
</svg>
