<svg width="40" height="30" viewBox="0 0 40 30" fill="none" xmlns="http://www.w3.org/2000/svg">
<g clip-path="url(#clip0_3503_134)">
<rect width="40" height="30" rx="5" fill="#002D73" style="fill:#002D73;fill:color(display-p3 0.0000 0.1765 0.4510);fill-opacity:1;"/>
<path d="M30.2039 13.9892L21.0036 4.79194C20.734 4.52483 20.37 4.375 19.9907 4.375C19.6113 4.375 19.2473 4.52483 18.9777 4.79194L9.79614 13.9892C9.66271 14.1215 9.55679 14.2789 9.48451 14.4524C9.41222 14.6259 9.375 14.812 9.375 15C9.375 15.188 9.41222 15.3741 9.48451 15.5476C9.55679 15.7211 9.66271 15.8785 9.79614 16.0108L18.984 25.2081C19.2536 25.4752 19.6176 25.625 19.9969 25.625C20.3762 25.625 20.7402 25.4752 21.0098 25.2081L30.2039 16.0108C30.3373 15.8785 30.4432 15.7211 30.5155 15.5476C30.5878 15.3741 30.625 15.188 30.625 15C30.625 14.812 30.5878 14.6259 30.5155 14.4524C30.4432 14.2789 30.3373 14.1215 30.2039 13.9892ZM23.9332 17.2026C23.6963 19.1306 22.3001 20.0604 20.0187 20.0604H15.3998L15.6679 17.9139H20.2306C20.8166 17.9139 21.1345 17.5583 21.2093 16.9343C21.2153 16.87 21.2153 16.8052 21.2093 16.7409H23.9706C23.9706 16.8719 23.9332 17.0404 23.9145 17.2026H23.9332ZM25.8032 15.9547H15.8673L16.1042 14.0204H20.561C21.1843 14.0204 21.4149 13.5649 21.4835 13.022C21.5521 12.4792 21.4835 12.136 20.7854 12.136H16.3348L16.6029 9.90845H21.1532C23.7462 9.90845 24.4443 11.0129 24.2698 12.5291C24.2236 13.0596 24.0505 13.5711 23.7649 14.0204H24.0329C24.2805 14.0189 24.5255 14.0708 24.7514 14.1725C24.9772 14.2742 25.1785 14.4233 25.3417 14.6097C25.5048 14.7961 25.6261 15.0155 25.6971 15.2529C25.7681 15.4904 25.7873 15.7403 25.7533 15.9859L25.8032 15.9547Z" fill="white" style="fill:white;fill-opacity:1;"/>
</g>
<defs>
<clipPath id="clip0_3503_134">
<rect width="40" height="30" rx="5" fill="white" style="fill:white;fill-opacity:1;"/>
</clipPath>
</defs>
</svg>
