<svg width="40" height="30" viewBox="0 0 40 30" fill="none" xmlns="http://www.w3.org/2000/svg">
<rect width="40" height="30" rx="5" fill="#0054A5" style="fill:#0054A5;fill:color(display-p3 0.0000 0.3294 0.6471);fill-opacity:1;"/>
<path fill-rule="evenodd" clip-rule="evenodd" d="M11.6727 13.4871H9.61766C9.61766 13.1318 9.57813 12.8935 9.49927 12.7721C9.3769 12.5924 9.03946 12.5025 8.48704 12.5025C7.95046 12.5025 7.5949 12.5543 7.42134 12.6578C7.24789 12.7616 7.16097 12.9875 7.16097 13.3352C7.16097 13.6499 7.23794 13.8572 7.39207 13.9565C7.50239 14.027 7.64836 14.0685 7.83018 14.0808L8.24459 14.1117C9.13275 14.1738 9.68746 14.2175 9.9087 14.2425C10.6112 14.3171 11.1203 14.5137 11.4363 14.8327C11.6848 15.0814 11.8331 15.4066 11.8805 15.8081C11.9081 16.0483 11.9219 16.3202 11.9219 16.6221C11.9219 17.3181 11.8588 17.8279 11.7326 18.1509C11.5038 18.7437 10.9898 19.1181 10.19 19.2754C9.85494 19.3418 9.34245 19.375 8.65303 19.375C7.5021 19.375 6.70016 19.3028 6.24731 19.1578C5.69151 18.9801 5.3251 18.6202 5.14776 18.0781C5.04899 17.7764 5 17.2738 5 16.5703H7.05493C7.05493 16.6488 7.05523 16.7087 7.05523 16.75C7.05523 17.1255 7.15758 17.3669 7.3621 17.4745C7.50379 17.5486 7.67485 17.5876 7.87588 17.5922H8.63142C9.01686 17.5922 9.26299 17.5713 9.36903 17.5295C9.55802 17.4513 9.68198 17.3254 9.74123 17.1511C9.77269 17.0437 9.78822 16.9048 9.78822 16.7349C9.78822 16.3542 9.65639 16.1226 9.39293 16.0396C9.29446 16.0067 8.83633 15.961 8.01847 15.903C7.3616 15.8536 6.90537 15.8061 6.64998 15.76C5.97718 15.6276 5.52882 15.3548 5.30508 14.9409C5.10833 14.5892 5.01006 14.0571 5.01006 13.3453C5.01006 12.8033 5.06313 12.3686 5.16947 12.0417C5.27581 11.7147 5.44717 11.4663 5.68365 11.2966C6.03005 11.0359 6.47324 10.8828 7.01281 10.8371C7.46187 10.7959 7.95992 10.7748 8.50775 10.7748C9.37023 10.7748 9.98488 10.8271 10.3513 10.9305C11.2455 11.1838 11.6925 11.8927 11.6925 13.0576C11.6925 13.1532 11.6859 13.2961 11.6727 13.4871Z" fill="white" style="fill:white;fill-opacity:1;"/>
<path fill-rule="evenodd" clip-rule="evenodd" d="M22.8416 15.0784H24.2187C24.6553 15.0618 24.9209 15.0264 25.0165 14.9711C25.147 14.8955 25.2346 14.744 25.2782 14.517C25.3061 14.3659 25.32 14.1411 25.32 13.8427C25.32 13.4769 25.2924 13.2059 25.2367 13.0289C25.1572 12.781 24.967 12.6299 24.6656 12.5751C24.606 12.5668 24.4633 12.5624 24.2373 12.5624H22.8416V15.0784ZM20.6328 19.3162V10.6703H23.8522H24.3575H24.7481C25.3126 10.6703 25.7433 10.7189 26.0392 10.8159C26.7161 11.0394 27.1703 11.4968 27.4029 12.1881C27.5229 12.5509 27.583 13.0972 27.583 13.8266C27.583 14.7036 27.5164 15.3339 27.3846 15.7176C27.1207 16.4764 26.5774 16.9135 25.7569 17.0267C25.6605 17.0437 25.2499 17.0589 24.5253 17.0711L24.1587 17.084H22.8416V19.3162H20.6328Z" fill="white" style="fill:white;fill-opacity:1;"/>
<path fill-rule="evenodd" clip-rule="evenodd" d="M31.9027 16.1377L30.8677 12.3899L29.8634 16.1377H31.9027ZM32.3413 17.8221H29.3881L28.9913 19.3163H26.7059L29.1718 10.6703H32.5039L35 19.3163H32.7628L32.3413 17.8221Z" fill="white" style="fill:white;fill-opacity:1;"/>
<path fill-rule="evenodd" clip-rule="evenodd" d="M17.6752 11.7644C18.5862 11.7644 19.3993 12.2065 19.9339 12.899L20.41 11.8236C19.6652 11.0821 18.6518 10.625 17.5339 10.625C15.7935 10.625 14.3045 11.7323 13.6935 13.2998H12.765L12.2168 14.538H13.4112C13.4023 14.6528 13.3964 14.7678 13.3964 14.885C13.3964 15.027 13.4035 15.1672 13.4167 15.3058H12.8165L12.2684 16.5443H13.722C14.3504 18.0722 15.8207 19.1448 17.5339 19.1448C18.3973 19.1448 19.1985 18.8723 19.8618 18.4068V16.8889C19.3276 17.5296 18.5463 17.9344 17.6752 17.9344C16.6569 17.9344 15.7613 17.3813 15.2398 16.5443H18.2837L18.8319 15.3058H14.792C14.7712 15.1567 14.76 15.0044 14.76 14.8493C14.76 14.7444 14.7651 14.6405 14.7748 14.538H19.1717L19.7198 13.2998H15.1549C15.6598 12.382 16.5992 11.7644 17.6752 11.7644Z" fill="#FEC10E" style="fill:#FEC10E;fill:color(display-p3 0.9961 0.7569 0.0549);fill-opacity:1;"/>
</svg>
