<svg width="40" height="40" viewBox="0 0 40 40" fill="none" xmlns="http://www.w3.org/2000/svg">
<rect width="40" height="40" rx="10" fill="#D50043" style="fill:#D50043;fill:color(display-p3 0.8353 0.0000 0.2627);fill-opacity:1;"/>
<path fill-rule="evenodd" clip-rule="evenodd" d="M11.25 14.1988C11.25 12.5702 12.5653 11.25 14.1988 11.25H25.8012C27.4298 11.25 28.75 12.5653 28.75 14.1988V28.75H14.1988C12.5702 28.75 11.25 27.4347 11.25 25.8012V14.1988ZM15 17.3538V17.6462C15 18.2441 15.4962 18.75 16.1084 18.75H23.8916C24.5041 18.75 25 18.2558 25 17.6462V17.3538C25 16.7559 24.5038 16.25 23.8916 16.25H16.1084C15.4959 16.25 15 16.7442 15 17.3538ZM15 22.3538V22.6462C15 23.2441 15.4962 23.75 16.1084 23.75H23.8916C24.5041 23.75 25 23.2558 25 22.6462V22.3538C25 21.7559 24.5038 21.25 23.8916 21.25H16.1084C15.4959 21.25 15 21.7442 15 22.3538Z" fill="white" style="fill:white;fill-opacity:1;"/>
</svg>
