<svg width="40" height="30" viewBox="0 0 40 30" fill="none" xmlns="http://www.w3.org/2000/svg">
<rect width="40" height="30" rx="5" fill="#D50043" style="fill:#D50043;fill:color(display-p3 0.8353 0.0000 0.2627);fill-opacity:1;"/>
<path fill-rule="evenodd" clip-rule="evenodd" d="M13.75 10.8705C13.75 9.69936 14.6895 8.75 15.8705 8.75H24.1295C25.3006 8.75 26.25 9.68953 26.25 10.8705V21.25H15.8705C14.6994 21.25 13.75 20.3105 13.75 19.1295V10.8705ZM16.4286 13.1099V13.3187C16.4286 13.7628 16.783 14.1071 17.2203 14.1071H22.7797C23.2269 14.1071 23.5714 13.7541 23.5714 13.3187V13.1099C23.5714 12.6657 23.217 12.3214 22.7797 12.3214H17.2203C16.7731 12.3214 16.4286 12.6744 16.4286 13.1099ZM16.4286 16.6813V16.8901C16.4286 17.3343 16.783 17.6786 17.2203 17.6786H22.7797C23.2269 17.6786 23.5714 17.3256 23.5714 16.8901V16.6813C23.5714 16.2372 23.217 15.8929 22.7797 15.8929H17.2203C16.7731 15.8929 16.4286 16.2459 16.4286 16.6813Z" fill="white" style="fill:white;fill-opacity:1;"/>
</svg>
