<svg width="32" height="24" viewBox="0 0 32 24" fill="none" xmlns="http://www.w3.org/2000/svg">
<rect width="32" height="24" rx="4" fill="#D50043" style="fill:#D50043;fill:color(display-p3 0.8353 0.0000 0.2627);fill-opacity:1;"/>
<path fill-rule="evenodd" clip-rule="evenodd" d="M11 8.69636C11 7.75949 11.7516 7 12.6964 7H19.3036C20.2405 7 21 7.75163 21 8.69636V17H12.6964C11.7595 17 11 16.2484 11 15.3036V8.69636ZM13.1429 10.4879V10.655C13.1429 11.0103 13.4264 11.2857 13.7762 11.2857H18.2238C18.5815 11.2857 18.8571 11.0033 18.8571 10.655V10.4879C18.8571 10.1326 18.5736 9.85714 18.2238 9.85714H13.7762C13.4185 9.85714 13.1429 10.1395 13.1429 10.4879ZM13.1429 13.345V13.5121C13.1429 13.8674 13.4264 14.1429 13.7762 14.1429H18.2238C18.5815 14.1429 18.8571 13.8605 18.8571 13.5121V13.345C18.8571 12.9897 18.5736 12.7143 18.2238 12.7143H13.7762C13.4185 12.7143 13.1429 12.9967 13.1429 13.345Z" fill="white" style="fill:white;fill-opacity:1;"/>
</svg>
