<svg width="16" height="16" viewBox="0 0 16 16" fill="none" xmlns="http://www.w3.org/2000/svg">
<rect width="16" height="16" rx="4" fill="#D50043" style="fill:#D50043;fill:color(display-p3 0.8353 0.0000 0.2627);fill-opacity:1;"/>
<path fill-rule="evenodd" clip-rule="evenodd" d="M4.5 5.67954C4.5 5.0281 5.02614 4.5 5.67954 4.5H10.3205C10.9719 4.5 11.5 5.02614 11.5 5.67954V11.5H5.67954C5.0281 11.5 4.5 10.9739 4.5 10.3205V5.67954ZM6 6.94153V7.05847C6 7.29764 6.1985 7.5 6.44335 7.5H9.55665C9.80164 7.5 10 7.30232 10 7.05847V6.94153C10 6.70237 9.8015 6.5 9.55665 6.5H6.44335C6.19836 6.5 6 6.69768 6 6.94153ZM6 8.94153V9.05848C6 9.29764 6.1985 9.5 6.44335 9.5H9.55665C9.80164 9.5 10 9.30232 10 9.05848V8.94153C10 8.70236 9.8015 8.5 9.55665 8.5H6.44335C6.19836 8.5 6 8.69768 6 8.94153Z" fill="white" style="fill:white;fill-opacity:1;"/>
</svg>
