<svg width="24" height="24" viewBox="0 0 24 24" fill="none" xmlns="http://www.w3.org/2000/svg">
<rect width="24" height="24" rx="6" fill="#D50043" style="fill:#D50043;fill:color(display-p3 0.8353 0.0000 0.2627);fill-opacity:1;"/>
<path fill-rule="evenodd" clip-rule="evenodd" d="M6.75 8.51931C6.75 7.54215 7.53921 6.75 8.51931 6.75H15.4807C16.4579 6.75 17.25 7.53921 17.25 8.51931V17.25H8.51931C7.54215 17.25 6.75 16.4608 6.75 15.4807V8.51931ZM9 10.4123V10.5877C9 10.9465 9.29774 11.25 9.66503 11.25H14.335C14.7025 11.25 15 10.9535 15 10.5877V10.4123C15 10.0535 14.7023 9.75 14.335 9.75H9.66503C9.29754 9.75 9 10.0465 9 10.4123ZM9 13.4123V13.5877C9 13.9465 9.29774 14.25 9.66503 14.25H14.335C14.7025 14.25 15 13.9535 15 13.5877V13.4123C15 13.0535 14.7023 12.75 14.335 12.75H9.66503C9.29754 12.75 9 13.0465 9 13.4123Z" fill="white" style="fill:white;fill-opacity:1;"/>
</svg>
