<svg width="32" height="32" viewBox="0 0 32 32" fill="none" xmlns="http://www.w3.org/2000/svg">
<rect width="32" height="32" rx="8" fill="#1E1E1E" style="fill:#1E1E1E;fill:color(display-p3 0.1176 0.1176 0.1176);fill-opacity:1;"/>
<path d="M17.5189 24.9516H10V12.5223C10 11.0044 10.6307 9.53599 11.7294 8.4968C12.845 7.44207 14.3025 6.914 15.8343 7.01143C18.661 7.19075 20.9609 9.60376 20.9609 12.3909C20.9609 13.2777 20.8375 14.1898 20.6708 14.9141C22.0792 15.9152 23 17.5657 23 19.4295C23 22.4751 20.5404 24.9516 17.5189 24.9516ZM15.0523 22.6473H17.5189C19.2805 22.6473 20.7128 21.2029 20.7128 19.4295C20.7128 18.5456 20.3582 17.7451 19.7836 17.1619C18.6961 19.2459 17.1475 21.0448 15.0523 22.6473ZM12.2858 16.2103V21.7846C14.8084 20.1651 16.5392 18.3804 17.6941 16.2159C17.6352 16.2131 17.5763 16.2117 17.5175 16.2117H12.2872L12.2858 16.2103ZM12.2858 13.906H17.5189C17.8622 13.906 18.1972 13.9384 18.5223 13.9992C18.6064 13.5318 18.6737 12.9642 18.6737 12.3909C18.6737 10.7969 17.3353 9.41456 15.69 9.31149C14.7944 9.2536 13.9437 9.56141 13.2948 10.177C12.6446 10.7926 12.2858 11.6257 12.2858 12.5237V13.9074V13.906Z" fill="white" style="fill:white;fill-opacity:1;"/>
</svg>
