<svg width="48" height="36" viewBox="0 0 48 36" fill="none" xmlns="http://www.w3.org/2000/svg">
<rect width="48" height="36" rx="6" fill="#1E1E1E" style="fill:#1E1E1E;fill:color(display-p3 0.1176 0.1176 0.1176);fill-opacity:1;"/>
<path d="M25.1756 28.4999H16.5V13.96C16.5 12.1844 17.2277 10.4666 18.4955 9.25091C19.7826 8.01709 21.4644 7.39934 23.2318 7.51331C26.4935 7.72308 29.1471 10.5459 29.1471 13.8063C29.1471 14.8436 29.0047 15.9107 28.8124 16.7579C30.4375 17.929 31.5 19.8599 31.5 22.0401C31.5 25.6029 28.662 28.4999 25.1756 28.4999ZM22.3296 25.8044H25.1756C27.2082 25.8044 28.8609 24.1147 28.8609 22.0401C28.8609 21.0061 28.4518 20.0696 27.7888 19.3874C26.5339 21.8253 24.7472 23.9298 22.3296 25.8044ZM19.1374 18.2742V24.7952C22.0482 22.9007 24.0453 20.813 25.3778 18.2809C25.3098 18.2776 25.2418 18.2759 25.174 18.2759H19.1391L19.1374 18.2742ZM19.1374 15.5787H25.1756C25.5717 15.5787 25.9582 15.6166 26.3334 15.6877C26.4304 15.1409 26.5082 14.4769 26.5082 13.8063C26.5082 11.9416 24.9637 10.3245 23.0653 10.2039C22.032 10.1362 21.0504 10.4963 20.3018 11.2165C19.5515 11.9366 19.1374 12.9111 19.1374 13.9616V15.5802V15.5787Z" fill="white" style="fill:white;fill-opacity:1;"/>
</svg>
