<svg width="24" height="24" viewBox="0 0 24 24" fill="none" xmlns="http://www.w3.org/2000/svg">
<rect width="24" height="24" rx="6" fill="#1E1E1E" style="fill:#1E1E1E;fill:color(display-p3 0.1176 0.1176 0.1176);fill-opacity:1;"/>
<path d="M13.1392 18.7137H7.5V9.3917C7.5 8.25331 7.97299 7.15199 8.79705 6.3726C9.63373 5.58155 10.7269 5.1855 11.8757 5.25857C13.9958 5.39306 15.7207 7.20282 15.7207 9.29321C15.7207 9.95825 15.6281 10.6423 15.5031 11.1856C16.5594 11.9364 17.25 13.1743 17.25 14.5721C17.25 16.8563 15.4053 18.7137 13.1392 18.7137ZM11.2892 16.9855H13.1392C14.4604 16.9855 15.5346 15.9022 15.5346 14.5721C15.5346 13.9092 15.2687 13.3088 14.8377 12.8714C14.0221 14.4345 12.8606 15.7836 11.2892 16.9855ZM9.21434 12.1577V16.3385C11.1063 15.1238 12.4044 13.7853 13.2705 12.1619C13.2264 12.1598 13.1822 12.1587 13.1381 12.1587H9.21539L9.21434 12.1577ZM9.21434 10.4295H13.1392C13.3967 10.4295 13.6479 10.4538 13.8917 10.4994C13.9548 10.1489 14.0052 9.72314 14.0052 9.29321C14.0052 8.09765 13.0015 7.06092 11.7675 6.98362C11.0958 6.9402 10.4578 7.17105 9.97113 7.63276C9.48342 8.09447 9.21434 8.71924 9.21434 9.39274V10.4305V10.4295Z" fill="white" style="fill:white;fill-opacity:1;"/>
</svg>
