<svg width="40" height="40" viewBox="0 0 40 40" fill="none" xmlns="http://www.w3.org/2000/svg">
<rect width="40" height="40" rx="10" fill="#1E1E1E" style="fill:#1E1E1E;fill:color(display-p3 0.1176 0.1176 0.1176);fill-opacity:1;"/>
<path d="M21.8986 31.1895H12.5V15.6528C12.5 13.7555 13.2883 11.92 14.6618 10.621C16.0562 9.30259 17.8781 8.6425 19.7929 8.76428C23.3263 8.98843 26.2011 12.0047 26.2011 15.4887C26.2011 16.5971 26.0469 17.7372 25.8385 18.6426C27.5991 19.894 28.75 21.9572 28.75 24.2869C28.75 28.0938 25.6755 31.1895 21.8986 31.1895ZM18.8154 28.3092H21.8986C24.1006 28.3092 25.891 26.5036 25.891 24.2869C25.891 23.182 25.4478 22.1813 24.7295 21.4524C23.3701 24.0574 21.4344 26.306 18.8154 28.3092ZM15.3572 20.2628V27.2308C18.5106 25.2064 20.674 22.9756 22.1176 20.2699C22.044 20.2664 21.9704 20.2646 21.8968 20.2646H15.359L15.3572 20.2628ZM15.3572 17.3825H21.8986C22.3278 17.3825 22.7465 17.423 23.1529 17.499C23.258 16.9148 23.3421 16.2052 23.3421 15.4887C23.3421 13.4961 21.6691 11.7682 19.6124 11.6394C18.493 11.567 17.4297 11.9518 16.6186 12.7213C15.8057 13.4908 15.3572 14.5321 15.3572 15.6546V17.3842V17.3825Z" fill="white" style="fill:white;fill-opacity:1;"/>
</svg>
