<svg width="16" height="16" viewBox="0 0 16 16" fill="none" xmlns="http://www.w3.org/2000/svg">
<rect width="16" height="16" rx="4" fill="#1E1E1E" style="fill:#1E1E1E;fill:color(display-p3 0.1176 0.1176 0.1176);fill-opacity:1;"/>
<path d="M8.75943 12.4758H5V6.26113C5 5.50221 5.31533 4.768 5.8647 4.2484C6.42249 3.72104 7.15125 3.457 7.91715 3.50571C9.33052 3.59537 10.4804 4.80188 10.4804 6.19547C10.4804 6.63883 10.4188 7.09489 10.3354 7.45704C11.0396 7.95759 11.5 8.78287 11.5 9.71475C11.5 11.2375 10.2702 12.4758 8.75943 12.4758ZM7.52615 11.3237H8.75943C9.64024 11.3237 10.3564 10.6014 10.3564 9.71475C10.3564 9.27281 10.1791 8.87254 9.89182 8.58095C9.34805 9.62297 8.57374 10.5224 7.52615 11.3237ZM6.1429 8.10513V10.8923C7.40422 10.0826 8.26961 9.19022 8.84703 8.10796C8.81759 8.10655 8.78816 8.10583 8.75874 8.10583H6.14359L6.1429 8.10513ZM6.1429 6.95299H8.75943C8.9311 6.95299 9.09859 6.96922 9.26115 6.99959C9.30321 6.7659 9.33683 6.48209 9.33683 6.19547C9.33683 5.39843 8.66763 4.70728 7.84498 4.65575C7.39721 4.6268 6.97186 4.7807 6.64742 5.08851C6.32228 5.39631 6.1429 5.81283 6.1429 6.26183V6.95369V6.95299Z" fill="white" style="fill:white;fill-opacity:1;"/>
</svg>
