<svg width="40" height="40" viewBox="0 0 40 40" fill="none" xmlns="http://www.w3.org/2000/svg">
<rect x="0.5" y="0.5" width="39" height="39" rx="9.5" fill="white" style="fill:white;fill-opacity:1;"/>
<rect x="0.5" y="0.5" width="39" height="39" rx="9.5" stroke="#F5F2F0" style="stroke:#F5F2F0;stroke:color(display-p3 0.9608 0.9490 0.9412);stroke-opacity:1;"/>
<path fill-rule="evenodd" clip-rule="evenodd" d="M14.8292 16.0065C15.7878 16.7495 17.1241 16.5328 17.8213 15.5112L20.3195 11.8273C21.0167 10.8057 20.8134 9.38172 19.8548 8.63875C18.8961 7.89579 17.5599 8.11248 16.8627 9.13406L14.3353 12.8179C13.6672 13.8395 13.8706 15.2636 14.8292 16.0065ZM26.2747 10.8057C25.316 10.0628 23.9797 10.2795 23.2825 11.3011L13.2314 26.0366C12.5342 27.0582 12.7376 28.4822 13.6962 29.2251C14.6549 29.9682 15.9911 29.7515 16.6883 28.7299L26.7394 13.9943C27.4657 12.9727 27.2332 11.5487 26.2747 10.8057ZM13.8706 9.6294C14.5677 8.60782 14.3644 7.18379 13.4058 6.44083C12.4471 5.69786 11.1108 5.91456 10.4137 6.93614C9.71648 7.95772 9.91982 9.38175 10.8785 10.1247C11.8371 10.8677 13.1734 10.651 13.8706 9.6294ZM29.1215 29.8753C28.1629 29.1323 26.8267 29.349 26.1295 30.3706C25.4323 31.3922 25.6356 32.8162 26.5942 33.5592C27.5529 34.3022 28.8892 34.0854 29.5863 33.0639C30.2835 32.0423 30.0802 30.6182 29.1215 29.8753ZM25.1999 24.0244C24.2413 23.2814 22.905 23.4981 22.2078 24.5197L19.6805 28.2036C18.9833 29.2251 19.1866 30.6492 20.1452 31.3922C21.1039 32.1351 22.4402 31.9184 23.1373 30.8968L25.6647 27.213C26.3619 26.1914 26.1585 24.7674 25.1999 24.0244Z" fill="#05C0C7" style="fill:#05C0C7;fill:color(display-p3 0.0196 0.7529 0.7804);fill-opacity:1;"/>
</svg>
