<svg width="56" height="42" viewBox="0 0 56 42" fill="none" xmlns="http://www.w3.org/2000/svg">
<rect x="0.5" y="0.5" width="55" height="41" rx="6.5" fill="white" style="fill:white;fill-opacity:1;"/>
<rect x="0.5" y="0.5" width="55" height="41" rx="6.5" stroke="#F5F2F0" style="stroke:#F5F2F0;stroke:color(display-p3 0.9608 0.9490 0.9412);stroke-opacity:1;"/>
<path fill-rule="evenodd" clip-rule="evenodd" d="M22.9406 17.0065C23.9214 17.7495 25.2885 17.5328 26.0017 16.5112L28.5577 12.8273C29.271 11.8057 29.0629 10.3817 28.0822 9.63875C27.1014 8.89579 25.7343 9.11248 25.021 10.1341L22.4354 13.8179C21.7518 14.8395 21.9599 16.2636 22.9406 17.0065ZM34.6502 11.8057C33.6694 11.0628 32.3023 11.2795 31.5891 12.3011L21.306 27.0366C20.5927 28.0582 20.8008 29.4822 21.7815 30.2251C22.7623 30.9682 24.1294 30.7515 24.8427 29.7299L35.1257 14.9943C35.8687 13.9727 35.6309 12.5487 34.6502 11.8057ZM21.9599 10.6294C22.6731 9.60782 22.4651 8.18379 21.4843 7.44083C20.5036 6.69786 19.1365 6.91456 18.4232 7.93614C17.7099 8.95772 17.918 10.3817 18.8987 11.1247C19.8795 11.8677 21.2466 11.651 21.9599 10.6294ZM37.5628 30.8753C36.5821 30.1323 35.215 30.349 34.5017 31.3706C33.7884 32.3922 33.9964 33.8162 34.9772 34.5592C35.958 35.3022 37.3251 35.0854 38.0383 34.0639C38.7516 33.0423 38.5436 31.6182 37.5628 30.8753ZM33.5506 25.0244C32.5699 24.2814 31.2028 24.4981 30.4895 25.5197L27.9039 29.2036C27.1906 30.2251 27.3986 31.6492 28.3794 32.3922C29.3601 33.1351 30.7272 32.9184 31.4405 31.8968L34.0262 28.213C34.7395 27.1914 34.5314 25.7674 33.5506 25.0244Z" fill="#05C0C7" style="fill:#05C0C7;fill:color(display-p3 0.0196 0.7529 0.7804);fill-opacity:1;"/>
</svg>
