<svg width="24" height="24" viewBox="0 0 24 24" fill="none" xmlns="http://www.w3.org/2000/svg">
<rect width="24" height="24" rx="6" fill="url(#paint0_linear_3558_57)" style=""/>
<path fill-rule="evenodd" clip-rule="evenodd" d="M9.95001 6.32495H8V14.775H8.0001C8.0001 14.775 8.0001 14.775 8.0001 14.775C8.0001 17.1084 9.8917 19 12.2251 19C14.5585 19 16.4501 17.1084 16.4501 14.775C16.4501 12.4416 14.5585 10.55 12.2251 10.55C11.3875 10.55 10.6067 10.7938 9.95001 11.2142V6.32495ZM14.1752 14.775C14.1752 15.8519 13.3022 16.725 12.2252 16.725C11.1482 16.725 10.2752 15.8519 10.2752 14.775C10.2752 13.698 11.1482 12.825 12.2252 12.825C13.3022 12.825 14.1752 13.698 14.1752 14.775Z" fill="white" style="fill:white;fill-opacity:1;"/>
<rect x="12.2253" y="9.90002" width="3.90001" height="3.90001" rx="1.95001" transform="rotate(-90 12.2253 9.90002)" fill="url(#paint1_linear_3558_57)" style=""/>
<defs>
<linearGradient id="paint0_linear_3558_57" x1="12" y1="23.832" x2="12" y2="0.096001" gradientUnits="userSpaceOnUse">
<stop stop-color="#5A5A5A" style="stop-color:#5A5A5A;stop-color:color(display-p3 0.3529 0.3529 0.3529);stop-opacity:1;"/>
<stop offset="0.146" stop-color="#484848" style="stop-color:#484848;stop-color:color(display-p3 0.2824 0.2824 0.2824);stop-opacity:1;"/>
<stop offset="0.52" stop-color="#212121" style="stop-color:#212121;stop-color:color(display-p3 0.1294 0.1294 0.1294);stop-opacity:1;"/>
<stop offset="0.817" stop-color="#080808" style="stop-color:#080808;stop-color:color(display-p3 0.0314 0.0314 0.0314);stop-opacity:1;"/>
<stop offset="1" style="stop-color:black;stop-opacity:1;"/>
</linearGradient>
<linearGradient id="paint1_linear_3558_57" x1="12.7986" y1="10.4694" x2="15.556" y2="13.2306" gradientUnits="userSpaceOnUse">
<stop stop-color="#E52F08" style="stop-color:#E52F08;stop-color:color(display-p3 0.8980 0.1843 0.0314);stop-opacity:1;"/>
<stop offset="1" stop-color="#E94F96" style="stop-color:#E94F96;stop-color:color(display-p3 0.9137 0.3098 0.5882);stop-opacity:1;"/>
</linearGradient>
</defs>
</svg>
