<svg width="24" height="24" viewBox="0 0 24 24" fill="none" xmlns="http://www.w3.org/2000/svg">
<rect width="24" height="24" rx="6" fill="url(#paint0_linear_1857_1016)" style=""/>
<path d="M20 10.0571C20 9.84116 19.9546 9.62521 19.8637 9.40925C19.7727 9.1933 19.6364 9.02053 19.5 8.89096C19.3182 8.71819 19.1364 8.58862 18.9091 8.54543C18.6818 8.45905 18.4091 8.45905 18.0455 8.45905H13.0455V10.0571V11.6552H18C18.3637 11.6552 18.6818 11.612 18.8637 11.5688C19.0909 11.4824 19.2727 11.396 19.4546 11.2233C19.6364 11.0505 19.7273 10.8778 19.8182 10.705C19.9546 10.489 20 10.2731 20 10.0571Z" fill="white" style="fill:white;fill-opacity:1;"/>
<path d="M20 13.9875C20 13.7715 19.9546 13.5556 19.8637 13.3396C19.7727 13.1237 19.6364 12.9509 19.5 12.8213C19.3182 12.6486 19.1364 12.519 18.9091 12.4758C18.6818 12.3894 18.4091 12.3894 18.0455 12.3894H13.0455V13.9875V15.5856H18C18.3637 15.5856 18.6818 15.5424 18.8637 15.4992C19.0909 15.4128 19.2727 15.3264 19.4546 15.1536C19.6364 14.9809 19.7273 14.8081 19.8182 14.6353C19.9546 14.4194 20 14.2034 20 13.9875Z" fill="white" style="fill:white;fill-opacity:1;"/>
<path d="M12.3636 11.6553C12.1817 9.58213 10.6363 8.20001 8.18178 8.20001C5.59089 8.20001 4 9.7117 4 12.0008C4 14.3764 5.6818 15.8017 8.18178 15.8017C10.6363 15.8017 12.1817 14.4627 12.3636 12.3464H8.13633V11.6121H12.3636V11.6553Z" fill="white" style="fill:white;fill-opacity:1;"/>
<defs>
<linearGradient id="paint0_linear_1857_1016" x1="12" y1="-12" x2="-12" y2="12" gradientUnits="userSpaceOnUse">
<stop stop-color="#083969" style="stop-color:#083969;stop-color:color(display-p3 0.0314 0.2235 0.4118);stop-opacity:1;"/>
<stop offset="0.491699" stop-color="#007B9D" style="stop-color:#007B9D;stop-color:color(display-p3 0.0000 0.4824 0.6157);stop-opacity:1;"/>
<stop offset="1" stop-color="#00A84A" style="stop-color:#00A84A;stop-color:color(display-p3 0.0000 0.6588 0.2902);stop-opacity:1;"/>
</linearGradient>
</defs>
</svg>
