<svg width="32" height="32" viewBox="0 0 32 32" fill="none" xmlns="http://www.w3.org/2000/svg">
<rect width="32" height="32" rx="8" fill="url(#paint0_linear_19_410)" style=""/>
<path d="M26 13.5714C26 13.3014 25.9432 13.0315 25.8295 12.7615C25.7159 12.4916 25.5454 12.2756 25.375 12.1137C25.1477 11.8977 24.9205 11.7358 24.6364 11.6818C24.3523 11.5738 24.0114 11.5738 23.5568 11.5738H17.3069V13.5714V15.569H23.5C23.9546 15.569 24.3523 15.515 24.5795 15.461C24.8636 15.353 25.0909 15.245 25.3182 15.0291C25.5454 14.8131 25.6591 14.5972 25.7727 14.3812C25.9432 14.1113 26 13.8413 26 13.5714Z" fill="white" style="fill:white;fill-opacity:1;"/>
<path d="M26 18.4843C26 18.2144 25.9432 17.9445 25.8295 17.6745C25.7159 17.4046 25.5454 17.1886 25.375 17.0266C25.1477 16.8107 24.9205 16.6487 24.6364 16.5947C24.3523 16.4868 24.0114 16.4868 23.5568 16.4868H17.3069V18.4843V20.4819H23.5C23.9546 20.4819 24.3523 20.428 24.5795 20.374C24.8636 20.266 25.0909 20.158 25.3182 19.9421C25.5454 19.7261 25.6591 19.5101 25.7727 19.2942C25.9432 19.0242 26 18.7543 26 18.4843Z" fill="white" style="fill:white;fill-opacity:1;"/>
<path d="M16.4545 15.5691C16.2272 12.9776 14.2954 11.25 11.2272 11.25C7.98862 11.25 6 13.1396 6 16.001C6 18.9704 8.10225 20.7521 11.2272 20.7521C14.2954 20.7521 16.2272 19.0784 16.4545 16.4329H11.1704V15.5151H16.4545V15.5691Z" fill="white" style="fill:white;fill-opacity:1;"/>
<defs>
<linearGradient id="paint0_linear_19_410" x1="16" y1="-16" x2="-16" y2="16" gradientUnits="userSpaceOnUse">
<stop stop-color="#083969" style="stop-color:#083969;stop-color:color(display-p3 0.0314 0.2235 0.4118);stop-opacity:1;"/>
<stop offset="0.491699" stop-color="#007B9D" style="stop-color:#007B9D;stop-color:color(display-p3 0.0000 0.4824 0.6157);stop-opacity:1;"/>
<stop offset="1" stop-color="#00A84A" style="stop-color:#00A84A;stop-color:color(display-p3 0.0000 0.6588 0.2902);stop-opacity:1;"/>
</linearGradient>
</defs>
</svg>
