<svg width="40" height="40" viewBox="0 0 40 40" fill="none" xmlns="http://www.w3.org/2000/svg">
<rect width="40" height="40" rx="10" fill="url(#paint0_linear_2180_1049)" style=""/>
<path d="M33 16.8378C33 16.4868 32.9261 16.1359 32.7784 15.785C32.6307 15.4341 32.4091 15.1533 32.1875 14.9428C31.8921 14.662 31.5966 14.4515 31.2273 14.3813C30.858 14.2409 30.4148 14.2409 29.8239 14.2409H21.699V16.8378V19.4346H29.75C30.3409 19.4346 30.858 19.3645 31.1534 19.2943C31.5227 19.1539 31.8182 19.0135 32.1137 18.7328C32.4091 18.452 32.5568 18.1713 32.7046 17.8906C32.9261 17.5396 33 17.1887 33 16.8378Z" fill="white" style="fill:white;fill-opacity:1;"/>
<path d="M33 23.2247C33 22.8737 32.9261 22.5228 32.7784 22.1719C32.6307 21.821 32.4091 21.5402 32.1875 21.3297C31.8921 21.0489 31.5966 20.8384 31.2273 20.7682C30.858 20.6278 30.4148 20.6278 29.8239 20.6278H21.699V23.2247V25.8215H29.75C30.3409 25.8215 30.858 25.7514 31.1534 25.6812C31.5227 25.5408 31.8182 25.4004 32.1137 25.1197C32.4091 24.8389 32.5568 24.5582 32.7046 24.2775C32.9261 23.9265 33 23.5756 33 23.2247Z" fill="white" style="fill:white;fill-opacity:1;"/>
<path d="M20.5908 19.4349C20.2953 16.0659 17.784 13.82 13.7954 13.82C9.5852 13.82 7 16.2765 7 19.9963C7 23.8566 9.73293 26.1727 13.7954 26.1727C17.784 26.1727 20.2953 23.9969 20.5908 20.5578H13.7215V19.3647H20.5908V19.4349Z" fill="white" style="fill:white;fill-opacity:1;"/>
<defs>
<linearGradient id="paint0_linear_2180_1049" x1="20" y1="-20" x2="-20" y2="20" gradientUnits="userSpaceOnUse">
<stop stop-color="#083969" style="stop-color:#083969;stop-color:color(display-p3 0.0314 0.2235 0.4118);stop-opacity:1;"/>
<stop offset="0.491699" stop-color="#007B9D" style="stop-color:#007B9D;stop-color:color(display-p3 0.0000 0.4824 0.6157);stop-opacity:1;"/>
<stop offset="1" stop-color="#00A84A" style="stop-color:#00A84A;stop-color:color(display-p3 0.0000 0.6588 0.2902);stop-opacity:1;"/>
</linearGradient>
</defs>
</svg>
