<svg width="16" height="16" viewBox="0 0 16 16" fill="none" xmlns="http://www.w3.org/2000/svg">
<rect x="0.5" y="0.5" width="15" height="15" rx="3.5" fill="white" style="fill:white;fill-opacity:1;"/>
<rect x="0.5" y="0.5" width="15" height="15" rx="3.5" stroke="#EEEEEE" style="stroke:#EEEEEE;stroke:color(display-p3 0.9333 0.9333 0.9333);stroke-opacity:1;"/>
<path fill-rule="evenodd" clip-rule="evenodd" d="M4.66904 7.59398H3.84704C3.84704 7.45818 3.83123 7.36709 3.79969 7.3207C3.75074 7.25202 3.61576 7.21766 3.3948 7.21766C3.18017 7.21766 3.03794 7.23743 2.96853 7.277C2.89915 7.31669 2.86438 7.40301 2.86438 7.53592C2.86438 7.65624 2.89516 7.73546 2.95682 7.77343C3.00094 7.80038 3.05933 7.81621 3.13206 7.82094L3.29782 7.83273C3.65308 7.85647 3.87496 7.87318 3.96346 7.88273C4.24444 7.91123 4.44808 7.98641 4.57449 8.10833C4.6739 8.20339 4.7332 8.32768 4.75216 8.48116C4.76319 8.57297 4.76873 8.67689 4.76873 8.79232C4.76873 9.05833 4.74348 9.25319 4.69302 9.37667C4.60149 9.60324 4.3959 9.74637 4.07597 9.80647C3.94195 9.83185 3.73696 9.84456 3.46119 9.84456C3.00083 9.84456 2.68005 9.81697 2.49892 9.76153C2.2766 9.69361 2.13004 9.55605 2.0591 9.34885C2.0196 9.2335 2 9.04141 2 8.77251H2.82196C2.82196 8.8025 2.82208 8.82539 2.82208 8.84119C2.82208 8.98472 2.86302 9.07698 2.94483 9.11811C3.0015 9.14646 3.06993 9.16133 3.15034 9.1631H3.45255C3.60672 9.1631 3.70517 9.15512 3.74759 9.13916C3.82318 9.10925 3.87277 9.06114 3.89647 8.99451C3.90905 8.95345 3.91526 8.90037 3.91526 8.83542C3.91526 8.68992 3.86253 8.60139 3.75715 8.56964C3.71776 8.55709 3.53451 8.53961 3.20737 8.51744C2.94463 8.49856 2.76214 8.48039 2.65998 8.46279C2.39087 8.41215 2.21152 8.30791 2.12203 8.14971C2.04333 8.01527 2.00402 7.81188 2.00402 7.53981C2.00402 7.33261 2.02525 7.16646 2.06779 7.04149C2.11032 6.91652 2.17887 6.82158 2.27346 6.75671C2.41202 6.65704 2.58929 6.59855 2.80511 6.58107C2.98474 6.56531 3.18395 6.55725 3.40308 6.55725C3.74807 6.55725 3.99392 6.57726 4.14049 6.61679C4.49818 6.71357 4.67697 6.98456 4.67697 7.42984C4.67697 7.46636 4.67434 7.52101 4.66904 7.59398Z" fill="#0054A5" style="fill:#0054A5;fill:color(display-p3 0.0000 0.3294 0.6471);fill-opacity:1;"/>
<path fill-rule="evenodd" clip-rule="evenodd" d="M9.13662 8.20224H9.68743C9.86207 8.19591 9.96829 8.18236 10.0065 8.16123C10.0587 8.13232 10.0938 8.07443 10.1112 7.98767C10.1224 7.92989 10.128 7.84397 10.128 7.72991C10.128 7.5901 10.1169 7.4865 10.0946 7.41887C10.0628 7.32409 9.98673 7.26635 9.86618 7.24538C9.84236 7.24222 9.78529 7.24053 9.69488 7.24053H9.13662V8.20224ZM8.25308 9.82208V6.51733H9.54083H9.74295H9.89919C10.125 6.51733 10.2973 6.5359 10.4156 6.57298C10.6864 6.65838 10.868 6.83323 10.9611 7.09748C11.0091 7.23616 11.0331 7.44497 11.0331 7.72377C11.0331 8.05899 11.0065 8.29991 10.9538 8.44657C10.8482 8.7366 10.6309 8.90367 10.3027 8.94697C10.2641 8.95347 10.0999 8.95928 9.81006 8.96393L9.66341 8.96886H9.13662V9.82208H8.25308Z" fill="#0054A5" style="fill:#0054A5;fill:color(display-p3 0.0000 0.3294 0.6471);fill-opacity:1;"/>
<path fill-rule="evenodd" clip-rule="evenodd" d="M12.7609 8.60714L12.3469 7.17462L11.9452 8.60714H12.7609ZM12.9364 9.251H11.7551L11.5964 9.82212H10.6823L11.6686 6.51733H13.0014L13.9998 9.82212H13.105L12.9364 9.251Z" fill="#0054A5" style="fill:#0054A5;fill:color(display-p3 0.0000 0.3294 0.6471);fill-opacity:1;"/>
<path fill-rule="evenodd" clip-rule="evenodd" d="M7.07003 6.93553C7.43441 6.93553 7.75965 7.10452 7.97348 7.36922L8.16393 6.95814C7.86602 6.67473 7.46066 6.5 7.01352 6.5C6.31733 6.5 5.72175 6.92326 5.47737 7.52241H5.10598L4.88669 7.99567H5.36446C5.36087 8.03957 5.35852 8.08351 5.35852 8.12834C5.35852 8.18258 5.36135 8.23619 5.36665 8.28915H5.12657L4.90732 8.76257H5.48876C5.74011 9.34656 6.32824 9.75656 7.01352 9.75656C7.35886 9.75656 7.67931 9.65239 7.94464 9.47446V8.89427C7.73097 9.13916 7.41844 9.29392 7.07003 9.29392C6.66272 9.29392 6.30447 9.08251 6.09589 8.76257H7.31342L7.53271 8.28915H5.91675C5.90842 8.23218 5.90396 8.17396 5.90396 8.11467C5.90396 8.07457 5.90599 8.03488 5.90986 7.99567H7.6686L7.88785 7.52241H6.06192C6.26388 7.1716 6.63962 6.93553 7.07003 6.93553Z" fill="#FEC10E" style="fill:#FEC10E;fill:color(display-p3 0.9961 0.7569 0.0549);fill-opacity:1;"/>
</svg>
