<svg width="48" height="36" viewBox="0 0 48 36" fill="none" xmlns="http://www.w3.org/2000/svg">
<rect x="0.75" y="0.75" width="46.5" height="34.5" rx="5.25" fill="white" style="fill:white;fill-opacity:1;"/>
<rect x="0.75" y="0.75" width="46.5" height="34.5" rx="5.25" stroke="#ECECF0" style="stroke:#ECECF0;stroke:color(display-p3 0.9255 0.9255 0.9412);stroke-opacity:1;" stroke-width="1.5"/>
<path fill-rule="evenodd" clip-rule="evenodd" d="M14.0072 16.1845H11.5412C11.5412 15.7582 11.4938 15.4722 11.3991 15.3265C11.2523 15.1109 10.8473 15.0031 10.1845 15.0031C9.54055 15.0031 9.11387 15.0651 8.90561 15.1894C8.69747 15.314 8.59316 15.585 8.59316 16.0022C8.59316 16.3799 8.68552 16.6287 8.87049 16.7479C9.00287 16.8324 9.17804 16.8822 9.39622 16.897L9.89351 16.934C10.9593 17.0085 11.625 17.061 11.8904 17.091C12.7334 17.1805 13.3443 17.4165 13.7236 17.7992C14.0218 18.0977 14.1997 18.4879 14.2566 18.9697C14.2897 19.2579 14.3063 19.5842 14.3063 19.9466C14.3063 20.7817 14.2305 21.3934 14.0792 21.7811C13.8046 22.4924 13.1878 22.9418 12.228 23.1304C11.8259 23.2101 11.2109 23.25 10.3836 23.25C9.00252 23.25 8.04019 23.1634 7.49678 22.9893C6.82982 22.7761 6.39012 22.3443 6.17731 21.6938C6.05879 21.3316 6 20.7286 6 19.8844H8.46591C8.46591 19.9785 8.46627 20.0504 8.46627 20.1C8.46627 20.5506 8.5891 20.8402 8.83452 20.9694C9.00455 21.0584 9.20982 21.1051 9.45106 21.1106H10.3577C10.8202 21.1106 11.1156 21.0856 11.2428 21.0355C11.4696 20.9416 11.6184 20.7905 11.6895 20.5813C11.7272 20.4524 11.7459 20.2858 11.7459 20.0819C11.7459 19.6251 11.5877 19.3472 11.2715 19.2475C11.1533 19.2081 10.6036 19.1532 9.62216 19.0836C8.83392 19.0243 8.28645 18.9673 7.97997 18.9121C7.17262 18.7531 6.63458 18.4258 6.3661 17.9291C6.13 17.5071 6.01207 16.8686 6.01207 16.0144C6.01207 15.3639 6.07575 14.8423 6.20336 14.45C6.33097 14.0577 6.5366 13.7596 6.82038 13.5559C7.23606 13.243 7.76789 13.0594 8.41537 13.0045C8.95424 12.955 9.5519 12.9297 10.2093 12.9297C11.2443 12.9297 11.9819 12.9926 12.4216 13.1167C13.4946 13.4205 14.031 14.2713 14.031 15.6692C14.031 15.7838 14.0231 15.9554 14.0072 16.1845Z" fill="#0054A5" style="fill:#0054A5;fill:color(display-p3 0.0000 0.3294 0.6471);fill-opacity:1;"/>
<path fill-rule="evenodd" clip-rule="evenodd" d="M27.41 18.0941H29.0624C29.5864 18.0742 29.905 18.0316 30.0197 17.9653C30.1764 17.8745 30.2815 17.6928 30.3339 17.4204C30.3673 17.239 30.3841 16.9693 30.3841 16.6112C30.3841 16.1723 30.3508 15.847 30.284 15.6347C30.1887 15.3372 29.9604 15.1559 29.5987 15.0901C29.5272 15.0801 29.356 15.0748 29.0848 15.0748H27.41V18.0941ZM24.7593 23.1794V12.8044H28.6226H29.229H29.6977C30.3751 12.8044 30.892 12.8627 31.2471 12.9791C32.0593 13.2472 32.6043 13.7961 32.8835 14.6257C33.0275 15.0611 33.0996 15.7166 33.0996 16.5919C33.0996 17.6443 33.0196 18.4007 32.8616 18.8611C32.5448 19.7716 31.8929 20.2961 30.9082 20.4321C30.7926 20.4525 30.2999 20.4707 29.4303 20.4853L28.9904 20.5008H27.41V23.1794H24.7593Z" fill="#0054A5" style="fill:#0054A5;fill:color(display-p3 0.0000 0.3294 0.6471);fill-opacity:1;"/>
<path fill-rule="evenodd" clip-rule="evenodd" d="M38.2832 19.3652L37.0412 14.8679L35.8361 19.3652H38.2832ZM38.8096 21.3865H35.2657L34.7895 23.1796H32.0471L35.0061 12.8044H39.0047L42 23.1796H39.3153L38.8096 21.3865Z" fill="#0054A5" style="fill:#0054A5;fill:color(display-p3 0.0000 0.3294 0.6471);fill-opacity:1;"/>
<path fill-rule="evenodd" clip-rule="evenodd" d="M21.2103 14.1173C22.3034 14.1173 23.2791 14.6479 23.9207 15.4788L24.492 14.1883C23.5983 13.2985 22.3822 12.75 21.0407 12.75C18.9521 12.75 17.1654 14.0788 16.4322 15.9598H15.318L14.6602 17.4455H16.0935C16.0827 17.5834 16.0757 17.7213 16.0757 17.862C16.0757 18.0324 16.0842 18.2006 16.1001 18.3669H15.3798L14.722 19.8532H16.4664C17.2205 21.6866 18.9849 22.9737 21.0407 22.9737C22.0768 22.9737 23.0381 22.6467 23.8341 22.0881V20.2667C23.1931 21.0355 22.2555 21.5213 21.2103 21.5213C19.9883 21.5213 18.9136 20.8576 18.2878 19.8532H21.9404L22.5983 18.3669H17.7504C17.7254 18.1881 17.712 18.0053 17.712 17.8191C17.712 17.6933 17.7181 17.5686 17.7297 17.4455H23.006L23.6638 15.9598H18.1859C18.7918 14.8584 19.919 14.1173 21.2103 14.1173Z" fill="#FEC10E" style="fill:#FEC10E;fill:color(display-p3 0.9961 0.7569 0.0549);fill-opacity:1;"/>
</svg>
