<svg width="40" height="40" viewBox="0 0 40 40" fill="none" xmlns="http://www.w3.org/2000/svg">
<rect width="40" height="40" rx="10" fill="#DE378C" style="fill:#DE378C;fill:color(display-p3 0.8706 0.2157 0.5490);fill-opacity:1;"/>
<path fill-rule="evenodd" clip-rule="evenodd" d="M17.2143 22.0139C17.6971 21.0235 18.6686 20.2546 19.7857 20.2546C20.9029 20.2546 21.8744 21.0235 22.3572 22.0139H17.2143ZM19.7845 7.5C22.3888 7.5 24.5 9.6854 24.5 12.3813V13.7483C24.5 13.9238 24.3543 14.0972 24.1848 14.0972H22.4499C22.2804 14.0972 22.143 13.9238 22.143 13.7483V12.3813C22.143 11.035 21.0864 9.93978 19.7859 9.93978C18.4854 9.93978 17.4288 11.035 17.4288 12.3813V13.7483C17.4288 13.9238 17.2802 14.0972 17.1108 14.0972H15.3759C15.2064 14.0972 15.0718 13.9238 15.0718 13.7483V12.2814C15.0718 12.2779 15.0717 12.2744 15.0716 12.2709C15.0714 12.2632 15.0712 12.2557 15.072 12.248C15.1404 9.61392 17.2234 7.5 19.7845 7.5ZM14.4975 24.9056C15.1041 27.4529 17.3458 29.4028 20.0122 29.4028H27.4667C27.2917 30.4495 26.3855 31.25 25.2991 31.25H14.7009C13.4904 31.25 12.5 30.2029 12.5 28.9606V18.0843C12.5 16.842 13.4904 15.8565 14.7009 15.8565H25.2991C26.5096 15.8565 27.5 16.8728 27.5 18.1151L27.4897 26.4472H20.0122C18.8665 26.4472 17.8731 25.8931 17.3819 24.9079H25.7V23.4949C25.7 20.2819 23.1309 17.6701 20.0001 17.6701C17.338 17.6701 15.0991 19.5623 14.4881 22.1033C14.4881 22.1033 14.3221 22.9542 14.3221 23.5088C14.3221 24.0633 14.4975 24.9056 14.4975 24.9056Z" fill="white" style="fill:white;fill-opacity:1;"/>
</svg>
