<svg width="32" height="32" viewBox="0 0 32 32" fill="none" xmlns="http://www.w3.org/2000/svg">
<rect width="32" height="32" rx="8" fill="#DE378C" style="fill:#DE378C;fill:color(display-p3 0.8706 0.2157 0.5490);fill-opacity:1;"/>
<path fill-rule="evenodd" clip-rule="evenodd" d="M13.7714 17.6111C14.1577 16.8188 14.9349 16.2037 15.8285 16.2037C16.7223 16.2037 17.4995 16.8188 17.8857 17.6111H13.7714ZM15.8276 6C17.911 6 19.6 7.74832 19.6 9.905V10.9986C19.6 11.139 19.4834 11.2778 19.3479 11.2778H17.9599C17.8244 11.2778 17.7144 11.139 17.7144 10.9986V9.905C17.7144 8.82804 16.8691 7.95183 15.8287 7.95183C14.7883 7.95183 13.9431 8.82804 13.9431 9.905V10.9986C13.9431 11.139 13.8242 11.2778 13.6886 11.2778H12.3007C12.1651 11.2778 12.0574 11.139 12.0574 10.9986V9.82511C12.0574 9.82228 12.0574 9.8195 12.0573 9.81675C12.0571 9.81059 12.057 9.80455 12.0576 9.7984C12.1123 7.69114 13.7787 6 15.8276 6ZM11.598 19.9245C12.0832 21.9623 13.8766 23.5222 16.0097 23.5222H21.9734C21.8333 24.3596 21.1084 25 20.2393 25H11.7607C10.7923 25 10 24.1623 10 23.1685V14.4674C10 13.4736 10.7923 12.6852 11.7607 12.6852H20.2393C21.2077 12.6852 22 13.4983 22 14.4921L21.9918 21.1578H16.0097C15.0932 21.1578 14.2985 20.7144 13.9055 19.9263H20.56V18.7959C20.56 16.2256 18.5047 14.1361 16 14.1361C13.8704 14.1361 12.0793 15.6498 11.5905 17.6826C11.5905 17.6826 11.4577 18.3634 11.4577 18.807C11.4577 19.2507 11.598 19.9245 11.598 19.9245Z" fill="white" style="fill:white;fill-opacity:1;"/>
</svg>
