<svg width="16" height="16" viewBox="0 0 16 16" fill="none" xmlns="http://www.w3.org/2000/svg">
<rect width="16" height="16" rx="4" fill="#DE378C" style="fill:#DE378C;fill:color(display-p3 0.8706 0.2157 0.5490);fill-opacity:1;"/>
<path fill-rule="evenodd" clip-rule="evenodd" d="M6.88572 8.80555C7.07884 8.40939 7.46743 8.10185 7.91427 8.10185C8.36116 8.10185 8.74975 8.40939 8.94287 8.80555H6.88572ZM7.91382 3C8.95552 3 9.80001 3.87416 9.80001 4.9525V5.49932C9.80001 5.5695 9.74172 5.63889 9.67393 5.63889H8.97996C8.91218 5.63889 8.85719 5.5695 8.85719 5.49932V4.9525C8.85719 4.41402 8.43456 3.97591 7.91436 3.97591C7.39416 3.97591 6.97154 4.41402 6.97154 4.9525V5.49932C6.97154 5.5695 6.91209 5.63889 6.8443 5.63889H6.15036C6.08257 5.63889 6.02871 5.5695 6.02871 5.49932V4.91256C6.02871 4.91114 6.02868 4.90975 6.02865 4.90837C6.02857 4.90529 6.0285 4.90228 6.02881 4.8992C6.05617 3.84557 6.88937 3 7.91382 3ZM5.79898 9.96224C6.04162 10.9812 6.93831 11.7611 8.00487 11.7611H10.9867C10.9167 12.1798 10.5542 12.5 10.1197 12.5H5.88034C5.39617 12.5 5 12.0812 5 11.5842V7.23372C5 6.73682 5.39617 6.34259 5.88034 6.34259H10.1197C10.6039 6.34259 11 6.74913 11 7.24603L10.9959 10.5789H8.00487C7.54662 10.5789 7.14925 10.3572 6.95276 9.96315H10.28V9.39795C10.28 8.11278 9.25234 7.06804 8.00002 7.06804C6.93522 7.06804 6.03963 7.8249 5.79524 8.84132C5.79524 8.84132 5.72886 9.18168 5.72886 9.40352C5.72886 9.62533 5.79898 9.96224 5.79898 9.96224Z" fill="white" style="fill:white;fill-opacity:1;"/>
</svg>
