<svg width="48" height="36" viewBox="0 0 48 36" fill="none" xmlns="http://www.w3.org/2000/svg">
<rect width="48" height="36" rx="6" fill="#DE378C" style="fill:#DE378C;fill:color(display-p3 0.8706 0.2157 0.5490);fill-opacity:1;"/>
<path fill-rule="evenodd" clip-rule="evenodd" d="M19.0477 22.8902C19.0477 22.8902 18.8899 22.1455 18.8899 21.6551C18.8899 21.1648 19.0393 20.4124 19.0393 20.4124C19.5892 18.1656 21.6042 16.4925 24.0001 16.4925C26.8178 16.4925 29.13 18.8019 29.13 21.6428V22.8922H21.6437C22.0858 23.7633 22.9799 24.2533 24.011 24.2533H30.7408L30.75 16.886C30.75 15.7875 29.8587 14.8889 28.7692 14.8889H19.2308C18.1414 14.8889 17.25 15.7603 17.25 16.8587V26.4757C17.25 27.5741 18.1414 28.5 19.2308 28.5H28.7692C29.747 28.5 30.5625 27.7922 30.72 26.8667H24.011C21.6112 26.8667 19.5937 25.1426 19.0477 22.8902Z" fill="white" style="fill:white;fill-opacity:1;"/>
<path fill-rule="evenodd" clip-rule="evenodd" d="M23.8071 18.7778C22.8017 18.7778 21.9274 19.4576 21.4929 20.3334H26.1215C25.687 19.4576 24.8126 18.7778 23.8071 18.7778Z" fill="white" style="fill:white;fill-opacity:1;"/>
<path fill-rule="evenodd" clip-rule="evenodd" d="M28.0499 11.8161C28.0499 9.43235 26.1498 7.5 23.806 7.5C21.501 7.5 19.6263 9.36916 19.5647 11.6982C19.5637 11.7081 19.5645 11.7176 19.5645 11.7277V13.0248C19.5645 13.1799 19.6857 13.3333 19.8382 13.3333H21.3996C21.5521 13.3333 21.6858 13.1799 21.6858 13.0248V11.8161C21.6858 10.6257 22.6368 9.65728 23.8072 9.65728C24.9777 9.65728 25.9286 10.6257 25.9286 11.8161V13.0248C25.9286 13.1799 26.0523 13.3333 26.2048 13.3333H27.7662C27.9188 13.3333 28.0499 13.1799 28.0499 13.0248V11.8161Z" fill="white" style="fill:white;fill-opacity:1;"/>
</svg>
