<svg width="32" height="32" viewBox="0 0 32 32" fill="none" xmlns="http://www.w3.org/2000/svg">
<rect width="32" height="32" rx="8" fill="#A0A3B2" style="fill:#A0A3B2;fill:color(display-p3 0.6275 0.6392 0.6980);fill-opacity:1;"/>
<path d="M10 10C10 8.89543 10.8954 8 12 8H20C21.1046 8 22 8.89543 22 10C22 10.5523 21.5523 11 21 11H11C10.4477 11 10 10.5523 10 10Z" fill="white" style="fill:white;fill-opacity:1;"/>
<path d="M10 22C10 21.4477 10.4477 21 11 21H21C21.5523 21 22 21.4477 22 22C22 23.1046 21.1046 24 20 24H12C10.8954 24 10 23.1046 10 22Z" fill="white" style="fill:white;fill-opacity:1;"/>
<path d="M8.87477 12.9784C8 13.4568 8 14.2267 8 15.7667V16.2333C8 17.7733 8 18.5432 8.87477 19.0216C9.74955 19.5 11.1575 19.5 13.9733 19.5H18.0267C20.8425 19.5 22.2505 19.5 23.1252 19.0216C24 18.5432 24 17.7733 24 16.2333V15.7667C24 14.2267 24 13.4568 23.1252 12.9784C22.2505 12.5 20.8425 12.5 18.0267 12.5H13.9733C11.1575 12.5 9.74955 12.5 8.87477 12.9784Z" fill="white" style="fill:white;fill-opacity:1;"/>
</svg>
