<svg width="32" height="24" viewBox="0 0 32 24" fill="none" xmlns="http://www.w3.org/2000/svg">
<rect width="32" height="24" rx="4" fill="#A0A3B2" style="fill:#A0A3B2;fill:color(display-p3 0.6275 0.6392 0.6980);fill-opacity:1;"/>
<path d="M11.5 7.5C11.5 6.67157 12.1716 6 13 6H19C19.8284 6 20.5 6.67157 20.5 7.5C20.5 7.91421 20.1642 8.25 19.75 8.25H12.25C11.8358 8.25 11.5 7.91421 11.5 7.5Z" fill="white" style="fill:white;fill-opacity:1;"/>
<path d="M11.5 16.5C11.5 16.0858 11.8358 15.75 12.25 15.75H19.75C20.1642 15.75 20.5 16.0858 20.5 16.5C20.5 17.3284 19.8284 18 19 18H13C12.1716 18 11.5 17.3284 11.5 16.5Z" fill="white" style="fill:white;fill-opacity:1;"/>
<path d="M10.6561 9.73379C10 10.0926 10 10.6701 10 11.825V12.175C10 13.3299 10 13.9074 10.6561 14.2662C11.3122 14.625 12.3681 14.625 14.48 14.625H17.52C19.6319 14.625 20.6878 14.625 21.3439 14.2662C22 13.9074 22 13.3299 22 12.175V11.825C22 10.6701 22 10.0926 21.3439 9.73379C20.6878 9.375 19.6319 9.375 17.52 9.375H14.48C12.3681 9.375 11.3122 9.375 10.6561 9.73379Z" fill="white" style="fill:white;fill-opacity:1;"/>
</svg>
