<svg width="16" height="16" viewBox="0 0 16 16" fill="none" xmlns="http://www.w3.org/2000/svg">
<rect width="16" height="16" rx="4" fill="#A0A3B2" style="fill:#A0A3B2;fill:color(display-p3 0.6275 0.6392 0.6980);fill-opacity:1;"/>
<path d="M5 5C5 4.44772 5.44772 4 6 4H10C10.5523 4 11 4.44772 11 5C11 5.27614 10.7761 5.5 10.5 5.5H5.5C5.22386 5.5 5 5.27614 5 5Z" fill="white" style="fill:white;fill-opacity:1;"/>
<path d="M5 11C5 10.7239 5.22386 10.5 5.5 10.5H10.5C10.7761 10.5 11 10.7239 11 11C11 11.5523 10.5523 12 10 12H6C5.44772 12 5 11.5523 5 11Z" fill="white" style="fill:white;fill-opacity:1;"/>
<path d="M4.43739 6.4892C4 6.72839 4 7.11337 4 7.88333V8.11667C4 8.88663 4 9.27161 4.43739 9.5108C4.87477 9.75 5.57874 9.75 6.98667 9.75H9.01333C10.4213 9.75 11.1252 9.75 11.5626 9.5108C12 9.27161 12 8.88663 12 8.11667V7.88333C12 7.11337 12 6.72839 11.5626 6.4892C11.1252 6.25 10.4213 6.25 9.01333 6.25H6.98667C5.57874 6.25 4.87477 6.25 4.43739 6.4892Z" fill="white" style="fill:white;fill-opacity:1;"/>
</svg>
