<svg width="24" height="24" viewBox="0 0 24 24" fill="none" xmlns="http://www.w3.org/2000/svg">
<rect width="24" height="24" rx="6" fill="#A0A3B2" style="fill:#A0A3B2;fill:color(display-p3 0.6275 0.6392 0.6980);fill-opacity:1;"/>
<path d="M7.5 7.5C7.5 6.67157 8.17157 6 9 6H15C15.8284 6 16.5 6.67157 16.5 7.5C16.5 7.91421 16.1642 8.25 15.75 8.25H8.25C7.83579 8.25 7.5 7.91421 7.5 7.5Z" fill="white" style="fill:white;fill-opacity:1;"/>
<path d="M7.5 16.5C7.5 16.0858 7.83579 15.75 8.25 15.75H15.75C16.1642 15.75 16.5 16.0858 16.5 16.5C16.5 17.3284 15.8284 18 15 18H9C8.17157 18 7.5 17.3284 7.5 16.5Z" fill="white" style="fill:white;fill-opacity:1;"/>
<path d="M6.65608 9.73379C6 10.0926 6 10.6701 6 11.825V12.175C6 13.3299 6 13.9074 6.65608 14.2662C7.31216 14.625 8.36811 14.625 10.48 14.625H13.52C15.6319 14.625 16.6878 14.625 17.3439 14.2662C18 13.9074 18 13.3299 18 12.175V11.825C18 10.6701 18 10.0926 17.3439 9.73379C16.6878 9.375 15.6319 9.375 13.52 9.375H10.48C8.36811 9.375 7.31216 9.375 6.65608 9.73379Z" fill="white" style="fill:white;fill-opacity:1;"/>
</svg>
