<svg width="48" height="36" viewBox="0 0 48 36" fill="none" xmlns="http://www.w3.org/2000/svg">
<rect width="48" height="36" rx="6" fill="#A0A3B2" style="fill:#A0A3B2;fill:color(display-p3 0.6275 0.6392 0.6980);fill-opacity:1;"/>
<path d="M16.5 10.5C16.5 9.11929 17.6193 8 19 8H29C30.3807 8 31.5 9.11929 31.5 10.5C31.5 11.1904 30.9404 11.75 30.25 11.75H17.75C17.0596 11.75 16.5 11.1904 16.5 10.5Z" fill="white" style="fill:white;fill-opacity:1;"/>
<path d="M16.5 25.5C16.5 24.8096 17.0596 24.25 17.75 24.25H30.25C30.9404 24.25 31.5 24.8096 31.5 25.5C31.5 26.8807 30.3807 28 29 28H19C17.6193 28 16.5 26.8807 16.5 25.5Z" fill="white" style="fill:white;fill-opacity:1;"/>
<path d="M15.0935 14.223C14 14.821 14 15.7834 14 17.7083V18.2917C14 20.2166 14 21.179 15.0935 21.777C16.1869 22.375 17.9468 22.375 21.4667 22.375H26.5333C30.0532 22.375 31.8131 22.375 32.9065 21.777C34 21.179 34 20.2166 34 18.2917V17.7083C34 15.7834 34 14.821 32.9065 14.223C31.8131 13.625 30.0532 13.625 26.5333 13.625H21.4667C17.9468 13.625 16.1869 13.625 15.0935 14.223Z" fill="white" style="fill:white;fill-opacity:1;"/>
</svg>
