<svg width="32" height="32" viewBox="0 0 32 32" fill="none" xmlns="http://www.w3.org/2000/svg">
<g clip-path="url(#clip0_638_977)">
<rect width="32" height="32" rx="8" fill="url(#paint0_linear_638_977)" style=""/>
<path d="M-0.800049 11.2H32.7999V15.2H-0.800049V11.2Z" fill="white" style="fill:white;fill-opacity:1;"/>
<g filter="url(#filter0_d_638_977)">
<path d="M14 13.8909H18V20L16 18.2545L14 20V13.8909Z" fill="white" style="fill:white;fill-opacity:1;"/>
</g>
<g filter="url(#filter1_d_638_977)">
<path d="M17.481 11.0642L21.481 8.92778C21.6327 8.84675 21.8061 8.80268 21.9835 8.80011C22.1609 8.79753 22.3359 8.83653 22.4905 8.91311C22.6451 8.98969 22.7738 9.10109 22.8633 9.23588C22.9529 9.37066 23 9.52398 23 9.68011V16.0657C23 16.212 22.9585 16.356 22.8792 16.4847C22.8 16.6134 22.6856 16.7226 22.5463 16.8026C22.407 16.8825 22.2472 16.9306 22.0815 16.9425C21.9157 16.9544 21.7492 16.9298 21.597 16.8708L17.597 15.3222C17.4193 15.2533 17.2682 15.1404 17.1622 14.9973C17.0562 14.8542 16.9998 14.687 17 14.5162V11.8166C17 11.6654 17.0442 11.5167 17.1285 11.3849C17.2127 11.2531 17.3341 11.1427 17.481 11.0642Z" fill="white" style="fill:white;fill-opacity:1;"/>
</g>
<g filter="url(#filter2_d_638_977)">
<path d="M14.519 11.0642L10.519 8.92778C10.3673 8.84675 10.1939 8.80268 10.0165 8.80011C9.8391 8.79753 9.66411 8.83653 9.50949 8.91311C9.35488 8.98969 9.2262 9.10109 9.13666 9.23588C9.04713 9.37066 8.99996 9.52398 9 9.68011V16.0657C9.00003 16.212 9.04154 16.356 9.12077 16.4847C9.19999 16.6134 9.31444 16.7226 9.45373 16.8026C9.59303 16.8825 9.75278 16.9306 9.91854 16.9425C10.0843 16.9544 10.2508 16.9298 10.403 16.8708L14.403 15.3222C14.5808 15.2533 14.732 15.1402 14.838 14.9969C14.9441 14.8536 15.0003 14.6863 15 14.5153V11.8157C15 11.6645 14.9558 11.5158 14.8715 11.384C14.7873 11.2523 14.6659 11.1418 14.519 11.0633V11.0642Z" fill="white" style="fill:white;fill-opacity:1;"/>
</g>
<g filter="url(#filter3_d_638_977)">
<path d="M16 15.9273C17.6569 15.9273 19 14.5597 19 12.8727C19 11.1857 17.6569 9.81818 16 9.81818C14.3431 9.81818 13 11.1857 13 12.8727C13 14.5597 14.3431 15.9273 16 15.9273Z" fill="white" style="fill:white;fill-opacity:1;"/>
</g>
</g>
<defs>
<filter id="filter0_d_638_977" x="13" y="13.8909" width="6" height="8.10907" filterUnits="userSpaceOnUse" color-interpolation-filters="sRGB">
<feFlood flood-opacity="0" result="BackgroundImageFix"/>
<feColorMatrix in="SourceAlpha" type="matrix" values="0 0 0 0 0 0 0 0 0 0 0 0 0 0 0 0 0 0 127 0" result="hardAlpha"/>
<feOffset dy="1"/>
<feGaussianBlur stdDeviation="0.5"/>
<feColorMatrix type="matrix" values="0 0 0 0 0 0 0 0 0 0 0 0 0 0 0 0 0 0 0.2 0"/>
<feBlend mode="normal" in2="BackgroundImageFix" result="effect1_dropShadow_638_977"/>
<feBlend mode="normal" in="SourceGraphic" in2="effect1_dropShadow_638_977" result="shape"/>
</filter>
<filter id="filter1_d_638_977" x="16" y="8.79999" width="8" height="10.1454" filterUnits="userSpaceOnUse" color-interpolation-filters="sRGB">
<feFlood flood-opacity="0" result="BackgroundImageFix"/>
<feColorMatrix in="SourceAlpha" type="matrix" values="0 0 0 0 0 0 0 0 0 0 0 0 0 0 0 0 0 0 127 0" result="hardAlpha"/>
<feOffset dy="1"/>
<feGaussianBlur stdDeviation="0.5"/>
<feColorMatrix type="matrix" values="0 0 0 0 0 0 0 0 0 0 0 0 0 0 0 0 0 0 0.2 0"/>
<feBlend mode="normal" in2="BackgroundImageFix" result="effect1_dropShadow_638_977"/>
<feBlend mode="normal" in="SourceGraphic" in2="effect1_dropShadow_638_977" result="shape"/>
</filter>
<filter id="filter2_d_638_977" x="8" y="8.79999" width="8" height="10.1454" filterUnits="userSpaceOnUse" color-interpolation-filters="sRGB">
<feFlood flood-opacity="0" result="BackgroundImageFix"/>
<feColorMatrix in="SourceAlpha" type="matrix" values="0 0 0 0 0 0 0 0 0 0 0 0 0 0 0 0 0 0 127 0" result="hardAlpha"/>
<feOffset dy="1"/>
<feGaussianBlur stdDeviation="0.5"/>
<feColorMatrix type="matrix" values="0 0 0 0 0 0 0 0 0 0 0 0 0 0 0 0 0 0 0.2 0"/>
<feBlend mode="normal" in2="BackgroundImageFix" result="effect1_dropShadow_638_977"/>
<feBlend mode="normal" in="SourceGraphic" in2="effect1_dropShadow_638_977" result="shape"/>
</filter>
<filter id="filter3_d_638_977" x="12" y="9.81818" width="8" height="8.10907" filterUnits="userSpaceOnUse" color-interpolation-filters="sRGB">
<feFlood flood-opacity="0" result="BackgroundImageFix"/>
<feColorMatrix in="SourceAlpha" type="matrix" values="0 0 0 0 0 0 0 0 0 0 0 0 0 0 0 0 0 0 127 0" result="hardAlpha"/>
<feOffset dy="1"/>
<feGaussianBlur stdDeviation="0.5"/>
<feColorMatrix type="matrix" values="0 0 0 0 0 0 0 0 0 0 0 0 0 0 0 0 0 0 0.2 0"/>
<feBlend mode="normal" in2="BackgroundImageFix" result="effect1_dropShadow_638_977"/>
<feBlend mode="normal" in="SourceGraphic" in2="effect1_dropShadow_638_977" result="shape"/>
</filter>
<linearGradient id="paint0_linear_638_977" x1="32" y1="32" x2="1.2512" y2="1.2512" gradientUnits="userSpaceOnUse">
<stop stop-color="#0072FF" style="stop-color:#0072FF;stop-color:color(display-p3 0.0000 0.4471 1.0000);stop-opacity:1;"/>
<stop offset="1" stop-color="#00B2FF" style="stop-color:#00B2FF;stop-color:color(display-p3 0.0000 0.6980 1.0000);stop-opacity:1;"/>
</linearGradient>
<clipPath id="clip0_638_977">
<rect width="32" height="32" rx="8" fill="white" style="fill:white;fill-opacity:1;"/>
</clipPath>
</defs>
</svg>
