<svg width="48" height="36" viewBox="0 0 48 36" fill="none" xmlns="http://www.w3.org/2000/svg">
<rect width="48" height="36" rx="6" fill="url(#paint0_linear_2740_2188)" style=""/>
<path d="M48 12H0V16.5H48V12Z" fill="white" style="fill:white;fill-opacity:1;"/>
<g filter="url(#filter0_d_2740_2188)">
<path d="M15 13.5312L24 13.5V25.5L19.5 22.2273L15 25.5V13.5312Z" fill="white" style="fill:white;fill-opacity:1;"/>
</g>
<g filter="url(#filter1_d_2740_2188)">
<path d="M20.1511 11.383L26.9011 7.62579C27.4646 7.31213 28.1336 7.60526 28.3953 8.2805C28.4643 8.45842 28.5 8.65224 28.5 8.84842V19.6519C28.5 20.3964 27.9963 21 27.375 21C27.2113 21 27.0495 20.9572 26.9011 20.8745L20.1511 17.1174C19.754 16.8963 19.5 16.4193 19.5 15.8947V12.6056C19.5 12.081 19.754 11.604 20.1511 11.383Z" fill="white" style="fill:white;fill-opacity:1;"/>
</g>
<g filter="url(#filter2_d_2740_2188)">
<path d="M18.8489 11.383L12.0989 7.62579C11.5354 7.31213 10.8664 7.60526 10.6047 8.2805C10.5357 8.45842 10.5 8.65224 10.5 8.84842V19.6519C10.5 20.3964 11.0037 21 11.625 21C11.7887 21 11.9505 20.9572 12.0989 20.8745L18.8489 17.1174C19.246 16.8963 19.5 16.4193 19.5 15.8947V12.6056C19.5 12.081 19.246 11.604 18.8489 11.383Z" fill="white" style="fill:white;fill-opacity:1;"/>
</g>
<g filter="url(#filter3_d_2740_2188)">
<path d="M19.5 19.5C21.9853 19.5 24 17.4853 24 15C24 12.5147 21.9853 10.5 19.5 10.5C17.0147 10.5 15 12.5147 15 15C15 17.4853 17.0147 19.5 19.5 19.5Z" fill="white" style="fill:white;fill-opacity:1;"/>
</g>
<defs>
<filter id="filter0_d_2740_2188" x="13.5" y="13.5" width="12" height="15" filterUnits="userSpaceOnUse" color-interpolation-filters="sRGB">
<feFlood flood-opacity="0" result="BackgroundImageFix"/>
<feColorMatrix in="SourceAlpha" type="matrix" values="0 0 0 0 0 0 0 0 0 0 0 0 0 0 0 0 0 0 127 0" result="hardAlpha"/>
<feOffset dy="1.5"/>
<feGaussianBlur stdDeviation="0.75"/>
<feColorMatrix type="matrix" values="0 0 0 0 0 0 0 0 0 0 0 0 0 0 0 0 0 0 0.2 0"/>
<feBlend mode="normal" in2="BackgroundImageFix" result="effect1_dropShadow_2740_2188"/>
<feBlend mode="normal" in="SourceGraphic" in2="effect1_dropShadow_2740_2188" result="shape"/>
</filter>
<filter id="filter1_d_2740_2188" x="18" y="7.5" width="12" height="16.5" filterUnits="userSpaceOnUse" color-interpolation-filters="sRGB">
<feFlood flood-opacity="0" result="BackgroundImageFix"/>
<feColorMatrix in="SourceAlpha" type="matrix" values="0 0 0 0 0 0 0 0 0 0 0 0 0 0 0 0 0 0 127 0" result="hardAlpha"/>
<feOffset dy="1.5"/>
<feGaussianBlur stdDeviation="0.75"/>
<feColorMatrix type="matrix" values="0 0 0 0 0 0 0 0 0 0 0 0 0 0 0 0 0 0 0.2 0"/>
<feBlend mode="normal" in2="BackgroundImageFix" result="effect1_dropShadow_2740_2188"/>
<feBlend mode="normal" in="SourceGraphic" in2="effect1_dropShadow_2740_2188" result="shape"/>
</filter>
<filter id="filter2_d_2740_2188" x="9" y="7.5" width="12" height="16.5" filterUnits="userSpaceOnUse" color-interpolation-filters="sRGB">
<feFlood flood-opacity="0" result="BackgroundImageFix"/>
<feColorMatrix in="SourceAlpha" type="matrix" values="0 0 0 0 0 0 0 0 0 0 0 0 0 0 0 0 0 0 127 0" result="hardAlpha"/>
<feOffset dy="1.5"/>
<feGaussianBlur stdDeviation="0.75"/>
<feColorMatrix type="matrix" values="0 0 0 0 0 0 0 0 0 0 0 0 0 0 0 0 0 0 0.2 0"/>
<feBlend mode="normal" in2="BackgroundImageFix" result="effect1_dropShadow_2740_2188"/>
<feBlend mode="normal" in="SourceGraphic" in2="effect1_dropShadow_2740_2188" result="shape"/>
</filter>
<filter id="filter3_d_2740_2188" x="13.5" y="10.5" width="12" height="12" filterUnits="userSpaceOnUse" color-interpolation-filters="sRGB">
<feFlood flood-opacity="0" result="BackgroundImageFix"/>
<feColorMatrix in="SourceAlpha" type="matrix" values="0 0 0 0 0 0 0 0 0 0 0 0 0 0 0 0 0 0 127 0" result="hardAlpha"/>
<feOffset dy="1.5"/>
<feGaussianBlur stdDeviation="0.75"/>
<feColorMatrix type="matrix" values="0 0 0 0 0 0 0 0 0 0 0 0 0 0 0 0 0 0 0.2 0"/>
<feBlend mode="normal" in2="BackgroundImageFix" result="effect1_dropShadow_2740_2188"/>
<feBlend mode="normal" in="SourceGraphic" in2="effect1_dropShadow_2740_2188" result="shape"/>
</filter>
<linearGradient id="paint0_linear_2740_2188" x1="24" y1="-31.9999" x2="72" y2="4.00003" gradientUnits="userSpaceOnUse">
<stop stop-color="#00B2FF" style="stop-color:#00B2FF;stop-color:color(display-p3 0.0000 0.6980 1.0000);stop-opacity:1;"/>
<stop offset="0.806094" stop-color="#007EFF" style="stop-color:#007EFF;stop-color:color(display-p3 0.0000 0.4941 1.0000);stop-opacity:1;"/>
<stop offset="1" stop-color="#0072FF" style="stop-color:#0072FF;stop-color:color(display-p3 0.0000 0.4471 1.0000);stop-opacity:1;"/>
</linearGradient>
</defs>
</svg>
