<svg width="16" height="16" viewBox="0 0 16 16" fill="none" xmlns="http://www.w3.org/2000/svg">
<g clip-path="url(#clip0_2180_623)">
<rect width="16" height="16" rx="4" fill="url(#paint0_linear_2180_623)" style=""/>
<path d="M-0.399902 5.60004H16.4001V7.60004H-0.399902V5.60004Z" fill="white" style="fill:white;fill-opacity:1;"/>
<g filter="url(#filter0_d_2180_623)">
<path d="M7 6.9455H9V10L8 9.12731L7 10V6.9455Z" fill="white" style="fill:white;fill-opacity:1;"/>
</g>
<g filter="url(#filter1_d_2180_623)">
<path d="M8.7405 5.53214L10.7405 4.46392C10.8163 4.4234 10.903 4.40137 10.9917 4.40008C11.0805 4.3988 11.1679 4.4183 11.2453 4.45659C11.3226 4.49488 11.3869 4.55058 11.4317 4.61797C11.4764 4.68536 11.5 4.76202 11.5 4.84008V8.03288C11.5 8.10605 11.4792 8.17805 11.4396 8.24238C11.4 8.30672 11.3428 8.36134 11.2731 8.40131C11.2035 8.44128 11.1236 8.46533 11.0407 8.47129C10.9579 8.47725 10.8746 8.46493 10.7985 8.43544L8.7985 7.66111C8.70965 7.62669 8.63412 7.57025 8.58111 7.49869C8.52811 7.42712 8.49992 7.34353 8.5 7.25811V5.90831C8.49998 5.83271 8.5221 5.75838 8.56423 5.69249C8.60635 5.6266 8.66706 5.57138 8.7405 5.53214Z" fill="white" style="fill:white;fill-opacity:1;"/>
</g>
<g filter="url(#filter2_d_2180_623)">
<path d="M7.2595 5.53214L5.2595 4.46392C5.18367 4.4234 5.09695 4.40137 5.00825 4.40008C4.91955 4.3988 4.83206 4.4183 4.75475 4.45659C4.67744 4.49488 4.6131 4.55058 4.56833 4.61797C4.52356 4.68536 4.49998 4.76202 4.5 4.84008V8.03288C4.50002 8.10605 4.52077 8.17805 4.56038 8.24238C4.6 8.30672 4.65722 8.36134 4.72687 8.40131C4.79651 8.44128 4.87639 8.46533 4.95927 8.47129C5.04214 8.47725 5.1254 8.46493 5.2015 8.43544L7.2015 7.66111C7.29042 7.62666 7.36601 7.57015 7.41902 7.4985C7.47204 7.42685 7.50017 7.34316 7.5 7.25767V5.90787C7.50002 5.83227 7.4779 5.75794 7.43577 5.69205C7.39365 5.62616 7.33294 5.57094 7.2595 5.5317V5.53214Z" fill="white" style="fill:white;fill-opacity:1;"/>
</g>
<g filter="url(#filter3_d_2180_623)">
<path d="M8 7.96366C8.82843 7.96366 9.5 7.27988 9.5 6.43639C9.5 5.5929 8.82843 4.90912 8 4.90912C7.17157 4.90912 6.5 5.5929 6.5 6.43639C6.5 7.27988 7.17157 7.96366 8 7.96366Z" fill="white" style="fill:white;fill-opacity:1;"/>
</g>
</g>
<defs>
<filter id="filter0_d_2180_623" x="6" y="6.9455" width="4" height="5.05457" filterUnits="userSpaceOnUse" color-interpolation-filters="sRGB">
<feFlood flood-opacity="0" result="BackgroundImageFix"/>
<feColorMatrix in="SourceAlpha" type="matrix" values="0 0 0 0 0 0 0 0 0 0 0 0 0 0 0 0 0 0 127 0" result="hardAlpha"/>
<feOffset dy="1"/>
<feGaussianBlur stdDeviation="0.5"/>
<feColorMatrix type="matrix" values="0 0 0 0 0 0 0 0 0 0 0 0 0 0 0 0 0 0 0.2 0"/>
<feBlend mode="normal" in2="BackgroundImageFix" result="effect1_dropShadow_2180_623"/>
<feBlend mode="normal" in="SourceGraphic" in2="effect1_dropShadow_2180_623" result="shape"/>
</filter>
<filter id="filter1_d_2180_623" x="7.5" y="4.40002" width="5" height="6.07275" filterUnits="userSpaceOnUse" color-interpolation-filters="sRGB">
<feFlood flood-opacity="0" result="BackgroundImageFix"/>
<feColorMatrix in="SourceAlpha" type="matrix" values="0 0 0 0 0 0 0 0 0 0 0 0 0 0 0 0 0 0 127 0" result="hardAlpha"/>
<feOffset dy="1"/>
<feGaussianBlur stdDeviation="0.5"/>
<feColorMatrix type="matrix" values="0 0 0 0 0 0 0 0 0 0 0 0 0 0 0 0 0 0 0.2 0"/>
<feBlend mode="normal" in2="BackgroundImageFix" result="effect1_dropShadow_2180_623"/>
<feBlend mode="normal" in="SourceGraphic" in2="effect1_dropShadow_2180_623" result="shape"/>
</filter>
<filter id="filter2_d_2180_623" x="3.5" y="4.40002" width="5" height="6.07275" filterUnits="userSpaceOnUse" color-interpolation-filters="sRGB">
<feFlood flood-opacity="0" result="BackgroundImageFix"/>
<feColorMatrix in="SourceAlpha" type="matrix" values="0 0 0 0 0 0 0 0 0 0 0 0 0 0 0 0 0 0 127 0" result="hardAlpha"/>
<feOffset dy="1"/>
<feGaussianBlur stdDeviation="0.5"/>
<feColorMatrix type="matrix" values="0 0 0 0 0 0 0 0 0 0 0 0 0 0 0 0 0 0 0.2 0"/>
<feBlend mode="normal" in2="BackgroundImageFix" result="effect1_dropShadow_2180_623"/>
<feBlend mode="normal" in="SourceGraphic" in2="effect1_dropShadow_2180_623" result="shape"/>
</filter>
<filter id="filter3_d_2180_623" x="5.5" y="4.90912" width="5" height="5.05457" filterUnits="userSpaceOnUse" color-interpolation-filters="sRGB">
<feFlood flood-opacity="0" result="BackgroundImageFix"/>
<feColorMatrix in="SourceAlpha" type="matrix" values="0 0 0 0 0 0 0 0 0 0 0 0 0 0 0 0 0 0 127 0" result="hardAlpha"/>
<feOffset dy="1"/>
<feGaussianBlur stdDeviation="0.5"/>
<feColorMatrix type="matrix" values="0 0 0 0 0 0 0 0 0 0 0 0 0 0 0 0 0 0 0.2 0"/>
<feBlend mode="normal" in2="BackgroundImageFix" result="effect1_dropShadow_2180_623"/>
<feBlend mode="normal" in="SourceGraphic" in2="effect1_dropShadow_2180_623" result="shape"/>
</filter>
<linearGradient id="paint0_linear_2180_623" x1="16" y1="16" x2="0.6256" y2="0.6256" gradientUnits="userSpaceOnUse">
<stop stop-color="#0072FF" style="stop-color:#0072FF;stop-color:color(display-p3 0.0000 0.4471 1.0000);stop-opacity:1;"/>
<stop offset="1" stop-color="#00B2FF" style="stop-color:#00B2FF;stop-color:color(display-p3 0.0000 0.6980 1.0000);stop-opacity:1;"/>
</linearGradient>
<clipPath id="clip0_2180_623">
<rect width="16" height="16" rx="4" fill="white" style="fill:white;fill-opacity:1;"/>
</clipPath>
</defs>
</svg>
