<svg width="48" height="36" viewBox="0 0 48 36" fill="none" xmlns="http://www.w3.org/2000/svg">
<rect width="48" height="36" rx="6" fill="#0F4CA1" style="fill:#0F4CA1;fill:color(display-p3 0.0588 0.2980 0.6314);fill-opacity:1;"/>
<path fill-rule="evenodd" clip-rule="evenodd" d="M25.2273 26.25H28.9091V19.9661C29.6227 21.3429 31.1856 21.8529 32.507 21.8529C35.7589 21.8529 37.5 19.0104 37.5 15.5901C37.5 12.7927 35.8439 9.75 32.8224 9.75C31.102 9.75 29.6641 10.4829 28.9091 12.1041V9.75H25.2273V26.25ZM33.5985 15.6794C33.5985 17.5231 32.7381 18.7883 31.3124 18.7883C30.0531 18.7883 29.003 17.5231 29.003 15.8345C29.003 14.1029 29.927 12.8146 31.3124 12.8146C32.7803 12.8146 33.5985 14.1464 33.5985 15.6794Z" fill="#FFFFFE" style="fill:#FFFFFE;fill:color(display-p3 1.0000 1.0000 0.9961);fill-opacity:1;"/>
<path fill-rule="evenodd" clip-rule="evenodd" d="M22.7727 10.0121H19.305V12.0658H19.2633C18.4548 10.6678 17.1357 9.75 15.4983 9.75C12.053 9.75 10.5 12.2844 10.5 15.6721C10.5 19.039 12.393 21.3972 15.4349 21.3972C16.9662 21.3972 18.2422 20.787 19.1562 19.4522H19.1993V20.0654C19.1993 22.2945 18.0087 23.3649 15.7963 23.3649C14.2009 23.3649 13.2226 23.0157 12.053 22.4256L11.8611 25.5292C12.7547 25.8557 14.265 26.25 16.094 26.25C20.5607 26.25 22.7727 24.7414 22.7727 20.0654V10.0121ZM14.4562 15.6062C14.4562 14.0551 15.2007 12.7658 16.6259 12.7658C18.3483 12.7658 19.0718 14.185 19.0718 15.4532C19.0718 17.2023 17.9866 18.3822 16.6259 18.3822C15.4773 18.3822 14.4562 17.3758 14.4562 15.6062Z" fill="#FFFFFE" style="fill:#FFFFFE;fill:color(display-p3 1.0000 1.0000 0.9961);fill-opacity:1;"/>
</svg>
