<svg width="40" height="40" viewBox="0 0 40 40" fill="none" xmlns="http://www.w3.org/2000/svg">
<rect width="40" height="40" rx="10" fill="#0F4CA1" style="fill:#0F4CA1;fill:color(display-p3 0.0588 0.2980 0.6314);fill-opacity:1;"/>
<path fill-rule="evenodd" clip-rule="evenodd" d="M21.5625 27.7344H25.1678V21.9325H25.2081C25.8895 23.2036 27.2519 23.6745 28.5137 23.6745C31.6187 23.6745 33.2812 21.0501 33.2812 17.8922C33.2812 15.3093 31.6999 12.5 28.8148 12.5C27.1721 12.5 25.649 13.1766 24.9281 14.6735H24.8879V12.7459H21.5625V27.7344ZM29.5559 17.9746C29.5559 19.6769 28.7343 20.845 27.3729 20.845C26.1705 20.845 25.1678 19.6769 25.1678 18.1178C25.1678 16.519 26.0501 15.3295 27.3729 15.3295C28.7746 15.3295 29.5559 16.5591 29.5559 17.9746ZM19.2188 12.742H15.9075V14.6382H15.8678C15.0957 13.3474 13.8362 12.5 12.2727 12.5C8.98291 12.5 7.5 14.84 7.5 17.9678C7.5 21.0764 9.30757 23.2538 12.2122 23.2538C13.6744 23.2538 14.8928 22.6904 15.7654 21.458H15.8066V22.0242C15.8066 24.0823 14.6698 25.0706 12.5572 25.0706C11.0339 25.0706 10.0997 24.7481 8.98291 24.2033L8.79966 27.0689C9.65297 27.3703 11.0951 27.7344 12.8414 27.7344C17.1066 27.7344 19.2188 26.3415 19.2188 22.0242V12.742ZM11.2776 17.907C11.2776 16.4749 11.9885 15.2844 13.3493 15.2844C14.9941 15.2844 15.6849 16.5949 15.6849 17.7657C15.6849 19.3807 14.6487 20.4701 13.3493 20.4701C12.2526 20.4701 11.2776 19.5409 11.2776 17.907Z" fill="#FFFFFE" style="fill:#FFFFFE;fill:color(display-p3 1.0000 1.0000 0.9961);fill-opacity:1;"/>
</svg>
