<svg width="40" height="30" viewBox="0 0 40 30" fill="none" xmlns="http://www.w3.org/2000/svg">
<rect width="40" height="30" rx="5" fill="#0F4CA1" style="fill:#0F4CA1;fill:color(display-p3 0.0588 0.2980 0.6314);fill-opacity:1;"/>
<path fill-rule="evenodd" clip-rule="evenodd" d="M21.0227 21.875H24.0909V16.6384C24.6856 17.7857 25.988 18.2107 27.0892 18.2107C29.7991 18.2107 31.25 15.842 31.25 12.9918C31.25 10.6605 29.8699 8.125 27.352 8.125C25.9184 8.125 24.7201 8.73571 24.0909 10.0867V8.125H21.0227V21.875ZM27.9987 13.0662C27.9987 14.6026 27.2818 15.6569 26.0937 15.6569C25.0442 15.6569 24.1692 14.6026 24.1692 13.1954C24.1692 11.7524 24.9392 10.6788 26.0937 10.6788C27.3169 10.6788 27.9987 11.7886 27.9987 13.0662Z" fill="#FFFFFE" style="fill:#FFFFFE;fill:color(display-p3 1.0000 1.0000 0.9961);fill-opacity:1;"/>
<path fill-rule="evenodd" clip-rule="evenodd" d="M18.9773 8.34343H16.0875V10.0549H16.0528C15.379 8.8898 14.2797 8.125 12.9153 8.125C10.0442 8.125 8.75 10.237 8.75 13.0601C8.75 15.8658 10.3275 17.831 12.8625 17.831C14.1385 17.831 15.2019 17.3225 15.9635 16.2102H15.9994V16.7212C15.9994 18.5788 15.0072 19.4708 13.1636 19.4708C11.8341 19.4708 11.0188 19.1797 10.0442 18.688L9.88425 21.2743C10.629 21.5464 11.8875 21.875 13.4116 21.875C17.1339 21.875 18.9773 20.6178 18.9773 16.7212V8.34343ZM12.0468 13.0051C12.0468 11.7126 12.6672 10.6381 13.8549 10.6381C15.2903 10.6381 15.8932 11.8209 15.8932 12.8776C15.8932 14.3353 14.9888 15.3185 13.8549 15.3185C12.8978 15.3185 12.0468 14.4798 12.0468 13.0051Z" fill="#FFFFFE" style="fill:#FFFFFE;fill:color(display-p3 1.0000 1.0000 0.9961);fill-opacity:1;"/>
</svg>
