<svg width="40" height="40" viewBox="0 0 40 40" fill="none" xmlns="http://www.w3.org/2000/svg">
<rect x="0.5" y="0.5" width="39" height="39" rx="9.5" fill="white" style="fill:white;fill-opacity:1;"/>
<rect x="0.5" y="0.5" width="39" height="39" rx="9.5" stroke="#EEEEEE" style="stroke:#EEEEEE;stroke:color(display-p3 0.9333 0.9333 0.9333);stroke-opacity:1;"/>
<path d="M19.1683 19.7705V22.6624H18.2505V15.5209H20.6836C21.3002 15.5209 21.826 15.7265 22.2562 16.1376C22.696 16.5487 22.9159 17.0506 22.9159 17.6433C22.9159 18.2504 22.696 18.7523 22.2562 19.1586C21.8308 19.5649 21.305 19.7657 20.6836 19.7657H19.1683V19.7705ZM19.1683 16.4005V18.8909H20.7027C21.066 18.8909 21.3719 18.7666 21.6109 18.5228C21.8547 18.2791 21.979 17.9827 21.979 17.6481C21.979 17.3183 21.8547 17.0267 21.6109 16.7829C21.3719 16.5295 21.0708 16.4053 20.7027 16.4053H19.1683V16.4005Z" fill="#3C4043" style="fill:#3C4043;fill:color(display-p3 0.2353 0.2510 0.2627);fill-opacity:1;"/>
<path d="M25.3155 17.6147C25.9943 17.6147 26.5297 17.7964 26.9216 18.1597C27.3136 18.523 27.5096 19.0201 27.5096 19.6511V22.6625H26.6348V21.9838H26.5966C26.219 22.543 25.7123 22.8203 25.0813 22.8203C24.5411 22.8203 24.0918 22.6625 23.7285 22.3423C23.3652 22.022 23.1836 21.6253 23.1836 21.1473C23.1836 20.6406 23.3748 20.239 23.7572 19.9427C24.1396 19.6415 24.6511 19.4933 25.2868 19.4933C25.8318 19.4933 26.2811 19.5937 26.6301 19.7945V19.5842C26.6301 19.2639 26.5058 18.9962 26.2524 18.7715C25.9991 18.5469 25.7027 18.4369 25.3633 18.4369C24.8519 18.4369 24.4455 18.652 24.1492 19.087L23.3413 18.5803C23.7859 17.935 24.4455 17.6147 25.3155 17.6147ZM24.1301 21.1616C24.1301 21.4006 24.2304 21.6014 24.436 21.7591C24.6367 21.9168 24.8758 21.9981 25.1482 21.9981C25.5354 21.9981 25.8796 21.8547 26.1807 21.5679C26.4819 21.2811 26.6348 20.9465 26.6348 20.5593C26.348 20.3346 25.9513 20.2199 25.4398 20.2199C25.067 20.2199 24.7563 20.3107 24.5077 20.4876C24.2543 20.674 24.1301 20.8987 24.1301 21.1616Z" fill="#3C4043" style="fill:#3C4043;fill:color(display-p3 0.2353 0.2510 0.2627);fill-opacity:1;"/>
<path d="M32.5 17.7725L29.4408 24.8088H28.4943L29.632 22.347L27.6147 17.7725H28.6138L30.0669 21.2811H30.0861L31.501 17.7725H32.5Z" fill="#3C4043" style="fill:#3C4043;fill:color(display-p3 0.2353 0.2510 0.2627);fill-opacity:1;"/>
<path d="M15.5176 19.1874C15.5176 18.8882 15.4909 18.6019 15.4412 18.3265H11.5941V19.904L13.8097 19.9045C13.7198 20.4293 13.4306 20.8767 12.9875 21.175V22.1984H14.3064C15.0764 21.4857 15.5176 20.4322 15.5176 19.1874Z" fill="#4285F4" style="fill:#4285F4;fill:color(display-p3 0.2588 0.5216 0.9569);fill-opacity:1;"/>
<path d="M12.988 21.1749C12.6209 21.4225 12.1481 21.5674 11.5951 21.5674C10.5267 21.5674 9.62041 20.8475 9.29584 19.8771H7.93542V20.9326C8.60942 22.2701 9.9947 23.1878 11.5951 23.1878C12.7012 23.1878 13.6305 22.8241 14.3068 22.1979L12.988 21.1749Z" fill="#34A853" style="fill:#34A853;fill:color(display-p3 0.2039 0.6588 0.3255);fill-opacity:1;"/>
<path d="M9.16778 19.0942C9.16778 18.8217 9.21319 18.5583 9.29589 18.3107V17.2552H7.93547C7.65679 17.8083 7.5 18.4326 7.5 19.0942C7.5 19.7557 7.65727 20.38 7.93547 20.9331L9.29589 19.8776C9.21319 19.63 9.16778 19.3666 9.16778 19.0942Z" fill="#FABB05" style="fill:#FABB05;fill:color(display-p3 0.9804 0.7333 0.0196);fill-opacity:1;"/>
<path d="M11.5951 16.6205C12.1988 16.6205 12.7394 16.8284 13.1663 17.2347L14.335 16.0669C13.6252 15.4058 12.6998 15 11.5951 15C9.99518 15 8.60942 15.9178 7.93542 17.2553L9.29584 18.3107C9.62041 17.3403 10.5267 16.6205 11.5951 16.6205Z" fill="#E94235" style="fill:#E94235;fill:color(display-p3 0.9137 0.2588 0.2078);fill-opacity:1;"/>
</svg>
