<svg width="16" height="16" viewBox="0 0 16 16" fill="none" xmlns="http://www.w3.org/2000/svg">
<rect x="0.5" y="0.5" width="15" height="15" rx="3.5" fill="white" style="fill:white;fill-opacity:1;"/>
<rect x="0.5" y="0.5" width="15" height="15" rx="3.5" stroke="#EEEEEE" style="stroke:#EEEEEE;stroke:color(display-p3 0.9333 0.9333 0.9333);stroke-opacity:1;"/>
<path d="M7.66728 7.90818V9.06497H7.30017V6.20837H8.2734C8.52006 6.20837 8.73038 6.29059 8.90247 6.45503C9.07837 6.61946 9.16633 6.82023 9.16633 7.05732C9.16633 7.30015 9.07837 7.50092 8.90247 7.66344C8.73229 7.82597 8.52197 7.90627 8.2734 7.90627H7.66728V7.90818ZM7.66728 6.56019V7.55637H8.28105C8.42637 7.55637 8.54874 7.50665 8.64434 7.40914C8.74185 7.31162 8.79157 7.19308 8.79157 7.05923C8.79157 6.9273 8.74185 6.81067 8.64434 6.71315C8.54874 6.61182 8.42828 6.5621 8.28105 6.5621H7.66728V6.56019Z" fill="#3C4043" style="fill:#3C4043;fill:color(display-p3 0.2353 0.2510 0.2627);fill-opacity:1;"/>
<path d="M10.1262 7.0459C10.3977 7.0459 10.6119 7.11856 10.7687 7.26387C10.9254 7.40919 11.0038 7.60804 11.0038 7.86043V9.06502H10.6539V8.79351H10.6386C10.4876 9.01722 10.2849 9.12812 10.0325 9.12812C9.81646 9.12812 9.63673 9.06502 9.49141 8.93691C9.3461 8.8088 9.27344 8.6501 9.27344 8.4589C9.27344 8.25622 9.34992 8.09561 9.50288 7.97706C9.65585 7.85661 9.86044 7.79733 10.1147 7.79733C10.3327 7.79733 10.5124 7.83749 10.652 7.91779V7.83366C10.652 7.70555 10.6023 7.59848 10.501 7.50861C10.3996 7.41875 10.2811 7.37477 10.1453 7.37477C9.94074 7.37477 9.77822 7.46081 9.65967 7.63481L9.33653 7.43213C9.51436 7.17401 9.77822 7.0459 10.1262 7.0459ZM9.65202 8.46464C9.65202 8.56024 9.69218 8.64054 9.77439 8.70364C9.8547 8.76674 9.9503 8.79924 10.0593 8.79924C10.2142 8.79924 10.3518 8.74188 10.4723 8.62716C10.5927 8.51244 10.6539 8.37859 10.6539 8.22372C10.5392 8.13385 10.3805 8.08796 10.1759 8.08796C10.0268 8.08796 9.9025 8.12429 9.80307 8.19504C9.70174 8.26961 9.65202 8.35947 9.65202 8.46464Z" fill="#3C4043" style="fill:#3C4043;fill:color(display-p3 0.2353 0.2510 0.2627);fill-opacity:1;"/>
<path d="M13 7.10901L11.7763 9.92354H11.3977L11.8528 8.93884L11.0459 7.10901H11.4455L12.0268 8.51245H12.0344L12.6004 7.10901H13Z" fill="#3C4043" style="fill:#3C4043;fill:color(display-p3 0.2353 0.2510 0.2627);fill-opacity:1;"/>
<path d="M6.2071 7.67499C6.2071 7.55529 6.19639 7.44076 6.17651 7.33063H4.6377V7.9616L5.52393 7.96179C5.48798 8.17174 5.3723 8.3507 5.19506 8.47002V8.87938H5.72259C6.03062 8.5943 6.2071 8.17288 6.2071 7.67499Z" fill="#4285F4" style="fill:#4285F4;fill:color(display-p3 0.2588 0.5216 0.9569);fill-opacity:1;"/>
<path d="M5.19523 8.46999C5.04838 8.56903 4.85928 8.62697 4.63806 8.62697C4.21071 8.62697 3.84819 8.33901 3.71836 7.95087H3.17419V8.37305C3.44379 8.90804 3.9979 9.27515 4.63806 9.27515C5.0805 9.27515 5.45221 9.12964 5.72276 8.87917L5.19523 8.46999Z" fill="#34A853" style="fill:#34A853;fill:color(display-p3 0.2039 0.6588 0.3255);fill-opacity:1;"/>
<path d="M3.66711 7.63766C3.66711 7.52868 3.68528 7.42332 3.71836 7.32428V6.9021H3.17419C3.06271 7.12332 3 7.37304 3 7.63766C3 7.90229 3.06291 8.152 3.17419 8.37323L3.71836 7.95105C3.68528 7.852 3.66711 7.74665 3.66711 7.63766Z" fill="#FABB05" style="fill:#FABB05;fill:color(display-p3 0.9804 0.7333 0.0196);fill-opacity:1;"/>
<path d="M4.63806 6.64818C4.87955 6.64818 5.0958 6.73136 5.26655 6.89388L5.73404 6.42677C5.4501 6.16233 5.07993 6 4.63806 6C3.99809 6 3.44379 6.36711 3.17419 6.9021L3.71836 7.32428C3.84819 6.93614 4.21071 6.64818 4.63806 6.64818Z" fill="#E94235" style="fill:#E94235;fill:color(display-p3 0.9137 0.2588 0.2078);fill-opacity:1;"/>
</svg>
