<svg width="40" height="30" viewBox="0 0 40 30" fill="none" xmlns="http://www.w3.org/2000/svg">
<rect x="0.625" y="0.625" width="38.75" height="28.75" rx="4.375" fill="white" style="fill:white;fill-opacity:1;"/>
<rect x="0.625" y="0.625" width="38.75" height="28.75" rx="4.375" stroke="#ECECF0" style="stroke:#ECECF0;stroke:color(display-p3 0.9255 0.9255 0.9412);stroke-opacity:1;" stroke-width="1.25"/>
<path d="M18.9602 14.8294V18.5148H17.813V9.41397H20.8544C21.6251 9.41397 22.2824 9.67591 22.8202 10.1998C23.3699 10.7237 23.6448 11.3633 23.6448 12.1187C23.6448 12.8923 23.3699 13.5319 22.8202 14.0497C22.2884 14.5675 21.6311 14.8233 20.8544 14.8233H18.9602V14.8294ZM18.9602 10.5348V13.7086H20.8783C21.3324 13.7086 21.7148 13.5502 22.0135 13.2395C22.3183 12.9288 22.4736 12.5512 22.4736 12.1247C22.4736 11.7044 22.3183 11.3328 22.0135 11.0222C21.7148 10.6993 21.3383 10.5409 20.8783 10.5409H18.9602V10.5348Z" fill="#3C4043" style="fill:#3C4043;fill:color(display-p3 0.2353 0.2510 0.2627);fill-opacity:1;"/>
<path d="M26.6445 12.0821C27.493 12.0821 28.1622 12.3136 28.6522 12.7766C29.1422 13.2395 29.3871 13.8731 29.3871 14.6772V18.5149H28.2937V17.6499H28.2459C27.7739 18.3626 27.1405 18.7159 26.3518 18.7159C25.6766 18.7159 25.1149 18.5149 24.6608 18.1067C24.2067 17.6986 23.9796 17.193 23.9796 16.5838C23.9796 15.9381 24.2186 15.4264 24.6966 15.0487C25.1746 14.665 25.814 14.4761 26.6087 14.4761C27.2899 14.4761 27.8515 14.6041 28.2877 14.8599V14.5919C28.2877 14.1837 28.1324 13.8426 27.8157 13.5563C27.499 13.27 27.1285 13.1299 26.7043 13.1299C26.065 13.1299 25.5571 13.404 25.1866 13.9583L24.1768 13.3126C24.7325 12.4903 25.5571 12.0821 26.6445 12.0821ZM25.1627 16.6021C25.1627 16.9067 25.2882 17.1625 25.5451 17.3636C25.7961 17.5646 26.0948 17.6681 26.4354 17.6681C26.9194 17.6681 27.3496 17.4854 27.726 17.1199C28.1025 16.7544 28.2937 16.328 28.2937 15.8346C27.9352 15.5483 27.4392 15.4021 26.7999 15.4021C26.3338 15.4021 25.9454 15.5178 25.6347 15.7432C25.3181 15.9808 25.1627 16.2671 25.1627 16.6021Z" fill="#3C4043" style="fill:#3C4043;fill:color(display-p3 0.2353 0.2510 0.2627);fill-opacity:1;"/>
<path d="M35.6252 12.2831L31.8011 21.25H30.618L32.0401 18.1128L29.5186 12.2831H30.7674L32.5838 16.7544H32.6077L34.3764 12.2831H35.6252Z" fill="#3C4043" style="fill:#3C4043;fill:color(display-p3 0.2353 0.2510 0.2627);fill-opacity:1;"/>
<path d="M14.397 14.0862C14.397 13.7049 14.3635 13.34 14.3014 12.9891H9.49255V14.9994L12.262 15C12.1497 15.6688 11.7882 16.239 11.2343 16.6191V17.9233H12.8829C13.8455 17.0151 14.397 15.6725 14.397 14.0862Z" fill="#4285F4" style="fill:#4285F4;fill:color(display-p3 0.2588 0.5216 0.9569);fill-opacity:1;"/>
<path d="M11.2348 16.6191C10.7759 16.9347 10.185 17.1193 9.49366 17.1193C8.15821 17.1193 7.02532 16.2019 6.6196 14.9653H4.91907V16.3103C5.76157 18.0147 7.49317 19.1843 9.49366 19.1843C10.8763 19.1843 12.0379 18.7208 12.8834 17.9228L11.2348 16.6191Z" fill="#34A853" style="fill:#34A853;fill:color(display-p3 0.2039 0.6588 0.3255);fill-opacity:1;"/>
<path d="M6.45961 13.9675C6.45961 13.6202 6.51638 13.2846 6.61975 12.9691V11.624H4.91922C4.57086 12.3288 4.37488 13.1244 4.37488 13.9675C4.37488 14.8105 4.57146 15.6061 4.91922 16.3109L6.61975 14.9659C6.51638 14.6503 6.45961 14.3147 6.45961 13.9675Z" fill="#FABB05" style="fill:#FABB05;fill:color(display-p3 0.9804 0.7333 0.0196);fill-opacity:1;"/>
<path d="M9.49366 10.8151C10.2483 10.8151 10.9241 11.08 11.4577 11.5978L12.9186 10.1096C12.0313 9.26718 10.8745 8.75 9.49366 8.75C7.49377 8.75 5.76157 9.91959 4.91907 11.624L6.6196 12.9691C7.02532 11.7325 8.15821 10.8151 9.49366 10.8151Z" fill="#E94235" style="fill:#E94235;fill:color(display-p3 0.9137 0.2588 0.2078);fill-opacity:1;"/>
</svg>
