<svg width="40" height="40" viewBox="0 0 40 40" fill="none" xmlns="http://www.w3.org/2000/svg">
<rect width="40" height="40" rx="10" fill="#E664A5" style="fill:#E664A5;fill:color(display-p3 0.9020 0.3922 0.6471);fill-opacity:1;"/>
<path d="M7.5 10.4167V29.1801C7.5 30.0941 8.25269 30.793 9.1129 30.793H20.3495C28.8441 30.793 32.5 26.0618 32.5 19.7715C32.5 13.4812 28.8441 8.75 20.3495 8.75H9.16667C8.25269 8.80376 7.5 9.55645 7.5 10.4167Z" fill="white" style="fill:white;fill-opacity:1;"/>
<path d="M15.027 13.4274V27.2984H21.0485C26.5324 27.2984 28.8979 24.1801 28.8979 19.8252C28.8979 15.6317 26.5324 12.4059 21.0485 12.4059H16.0485C15.5108 12.3521 15.027 12.836 15.027 13.4274Z" fill="#CC0066" style="fill:#CC0066;fill:color(display-p3 0.8000 0.0000 0.4000);fill-opacity:1;"/>
<path d="M20.3495 29.3414H10.6183C9.75807 29.3414 9.05914 28.6425 9.05914 27.7823V11.8683C9.05914 11.0081 9.75807 10.3091 10.6183 10.3091H20.3495C29.5968 10.3091 30.9946 16.2769 30.9946 19.8253C30.9946 25.9543 27.2312 29.3414 20.3495 29.3414ZM10.6183 10.8468C10.0269 10.8468 9.59678 11.3306 9.59678 11.8683V27.7823C9.59678 28.3737 10.0806 28.8038 10.6183 28.8038H20.3495C26.8548 28.8038 30.457 25.578 30.457 19.7715C30.457 11.9758 24.1129 10.793 20.3495 10.793L10.6183 10.8468Z" fill="black" style="fill:black;fill-opacity:1;"/>
<path d="M17.1774 17.9435C17.3924 17.9435 17.6075 17.9973 17.7688 18.0511C17.9301 18.1048 18.0914 18.2123 18.2527 18.3736C18.3602 18.5349 18.4677 18.6962 18.5752 18.8575C18.629 19.0726 18.6828 19.2876 18.6828 19.5564C18.6828 19.8253 18.629 20.0403 18.5752 20.2016C18.5215 20.4167 18.4139 20.5779 18.3064 20.7392C18.1989 20.9005 18.0376 21.0081 17.8225 21.1156C17.6613 21.2231 17.3924 21.2231 17.1774 21.2231H15.7258V17.8898L17.1774 17.9435ZM17.1236 20.6317C17.2311 20.6317 17.3387 20.6317 17.4462 20.5779C17.5537 20.5242 17.6075 20.4704 17.715 20.4167C17.7688 20.3091 17.8763 20.2554 17.8763 20.0941C17.9301 19.9865 17.9301 19.8253 17.9301 19.6102C17.9301 19.4489 17.9301 19.2876 17.8763 19.1801C17.8225 19.0726 17.7688 18.9113 17.715 18.8575C17.6613 18.75 17.5537 18.6962 17.4462 18.6425C17.3387 18.5887 17.1774 18.5887 17.0161 18.5887H16.4785V20.6855L17.1236 20.6317Z" fill="white" style="fill:white;fill-opacity:1;"/>
<path d="M21.6399 17.9435V18.5349H19.8657V19.2876H21.4786V19.8253H19.8657V20.6317H21.6399V21.2231H19.113V17.8898L21.6399 17.9435Z" fill="white" style="fill:white;fill-opacity:1;"/>
<path d="M24.113 17.9435L25.3495 21.2769H24.5968L24.328 20.5242H23.0915L22.8226 21.2769H22.0699L23.3065 17.9435C23.3603 17.9435 24.113 17.9435 24.113 17.9435ZM24.1667 19.9866L23.7366 18.75L23.3065 19.9866H24.1667Z" fill="white" style="fill:white;fill-opacity:1;"/>
<path d="M26.5321 17.9435V20.6317H28.145V21.2231H25.7794V17.8898C25.8332 17.9435 26.5321 17.9435 26.5321 17.9435Z" fill="white" style="fill:white;fill-opacity:1;"/>
<path d="M12.285 21.1156C13.1164 21.1156 13.7904 20.4416 13.7904 19.6102C13.7904 18.7788 13.1164 18.1048 12.285 18.1048C11.4536 18.1048 10.7796 18.7788 10.7796 19.6102C10.7796 20.4416 11.4536 21.1156 12.285 21.1156Z" fill="black" style="fill:black;fill-opacity:1;"/>
<path d="M13.4678 27.2984C12.1775 27.2984 11.156 26.2769 11.156 24.9866V23.1586C11.156 22.5135 11.6936 21.9758 12.3388 21.9758C12.984 21.9758 13.5216 22.5135 13.5216 23.1586L13.4678 27.2984Z" fill="black" style="fill:black;fill-opacity:1;"/>
</svg>
