<svg width="48" height="36" viewBox="0 0 48 36" fill="none" xmlns="http://www.w3.org/2000/svg">
<rect width="48" height="36" rx="6" fill="#E664A5" style="fill:#E664A5;fill:color(display-p3 0.9020 0.3922 0.6471);fill-opacity:1;"/>
<path d="M11.25 8.41861V27.5814C11.25 28.5022 11.9964 29.25 12.9163 29.25H24.3563C33.0012 29.25 36.75 24.4033 36.75 17.9776C36.75 11.5766 33.0012 6.75 24.3563 6.75H12.9148C11.9979 6.75 11.25 7.49624 11.25 8.41861Z" fill="white" style="fill:white;fill-opacity:1;"/>
<path d="M24.3536 27.7158H14.4048C13.982 27.7166 13.5761 27.5488 13.2762 27.249C12.9762 26.9493 12.8066 26.5421 12.8046 26.1167V9.8833C12.805 9.67229 12.8467 9.46342 12.9273 9.26863C13.008 9.07384 13.1259 8.89693 13.2745 8.74801C13.4231 8.59909 13.5994 8.48108 13.7934 8.4007C13.9873 8.32033 14.1951 8.27917 14.4048 8.27957H24.3536C33.7894 8.27957 35.1992 14.3546 35.1992 17.9761C35.1992 24.2581 31.3475 27.7158 24.3536 27.7158ZM14.4048 8.81724C14.123 8.81683 13.8524 8.92876 13.6524 9.12856C13.4523 9.32835 13.3391 9.59973 13.3375 9.8833V26.1183C13.3375 26.7069 13.8151 27.1843 14.4048 27.1843H24.3536C31.0035 27.1843 34.6663 23.9151 34.6663 17.9792C34.6663 10.0069 28.2053 8.81724 24.3536 8.81724H14.4048Z" fill="black" style="fill:black;fill-opacity:1;"/>
<path d="M18.9041 11.4545V25.6115H25.061C30.6543 25.6115 33.0777 22.4473 33.0777 17.9853C33.0777 13.7103 30.6543 10.3885 25.061 10.3885H19.9699C19.6881 10.3881 19.4177 10.5001 19.2179 10.6999C19.0182 10.8997 18.9053 11.1711 18.9041 11.4545Z" fill="#CC0066" style="fill:#CC0066;fill:color(display-p3 0.8000 0.0000 0.4000);fill-opacity:1;"/>
<path d="M30.6404 16.0741V18.8304H32.2867V19.4562H29.8986V16.0726L30.6404 16.0741ZM28.1678 16.0741L29.4317 19.4562H28.6608L28.4058 18.7053H27.1404L26.8762 19.4562H26.1252L27.4045 16.0726L28.1678 16.0741ZM28.2108 18.1476L27.7838 16.9069H27.7746L27.3354 18.1476H28.2108ZM25.623 16.0741V16.6983H23.8384V17.4245H25.4756V18.0008H23.8384V18.8304H25.6614V19.4562H23.0967V16.0726L25.623 16.0741ZM21.071 16.0741C21.2783 16.0726 21.4856 16.1066 21.6791 16.1777C21.8681 16.2459 22.0392 16.3565 22.1794 16.501C22.3196 16.6455 22.4253 16.8203 22.4885 17.012C22.6362 17.4709 22.6437 17.9639 22.51 18.4272C22.4525 18.6252 22.3553 18.8093 22.2243 18.968C22.0932 19.1215 21.9295 19.2435 21.7452 19.3249C21.5323 19.4164 21.3024 19.4612 21.071 19.4562H19.6135V16.0726H21.0725L21.071 16.0741ZM21.0188 18.8304C21.1263 18.8304 21.2307 18.8135 21.3321 18.7779C21.4338 18.7421 21.5259 18.6829 21.6008 18.6049C21.6857 18.5151 21.7506 18.4082 21.7913 18.2912C21.8422 18.1385 21.8662 17.978 21.8619 17.8169C21.8619 17.6624 21.8465 17.5079 21.8128 17.355C21.7828 17.2268 21.7257 17.1066 21.6454 17.0027C21.5663 16.9023 21.4626 16.8246 21.3443 16.7771C21.1973 16.7212 21.0407 16.695 20.8836 16.6999H20.3538V18.8304H21.0188Z" fill="white" style="fill:white;fill-opacity:1;"/>
<path d="M16.1212 20.2225C16.7739 20.2225 17.3022 20.7509 17.3022 21.4029V25.6115C15.9968 25.6115 14.9402 24.5532 14.9402 23.2476V21.4029C14.94 21.247 14.9705 21.0927 15.03 20.9488C15.0894 20.8049 15.1767 20.6742 15.2866 20.5645C15.3966 20.4547 15.5271 20.3679 15.6706 20.3092C15.8142 20.2505 15.9678 20.2211 16.1227 20.2225H16.1212Z" fill="black" style="fill:black;fill-opacity:1;"/>
<path d="M16.1218 19.3248C16.9827 19.3248 17.6806 18.6262 17.6806 17.7644C17.6806 16.9026 16.9827 16.2039 16.1218 16.2039C15.2609 16.2039 14.563 16.9026 14.563 17.7644C14.563 18.6262 15.2609 19.3248 16.1218 19.3248Z" fill="black" style="fill:black;fill-opacity:1;"/>
</svg>
