<svg width="32" height="32" viewBox="0 0 32 32" fill="none" xmlns="http://www.w3.org/2000/svg">
<rect width="32" height="32" rx="8" fill="#E664A5" style="fill:#E664A5;fill:color(display-p3 0.9020 0.3922 0.6471);fill-opacity:1;"/>
<g clip-path="url(#clip0_4456_280)">
<path d="M23.5117 12.6171H14.9732C15.7315 13.4926 16.0861 14.6657 16.0861 15.9895C16.0861 17.3133 15.7295 18.5052 14.967 19.385H23.5096C25.9424 19.385 26.998 17.9794 26.998 15.9937C26.998 14.0079 25.9424 12.6171 23.5096 12.6171H23.5117Z" fill="black" style="fill:black;fill-opacity:1;"/>
<path d="M5 11.7415V20.2585C5 20.6669 5.32588 21 5.72554 21H10.706C14.471 21 16.1025 18.8467 16.1025 15.9895C16.1025 13.1324 14.469 11 10.7039 11H5.72554C5.32588 11 5 11.3331 5 11.7415Z" fill="white" style="fill:white;fill-opacity:1;"/>
<path d="M8.33252 13.0905V19.385H11.0133C13.4462 19.385 14.5017 17.9794 14.5017 15.9937C14.5017 14.0079 13.4462 12.6171 11.0133 12.6171H8.79777C8.53953 12.6171 8.33252 12.8328 8.33252 13.0905Z" fill="#CC0066" style="fill:#CC0066;fill:color(display-p3 0.8000 0.0000 0.4000);fill-opacity:1;"/>
<path d="M10.704 20.3213H6.37532C5.99 20.3213 5.67847 20.0029 5.67847 19.6091V12.393C5.67847 11.9992 5.99 11.6808 6.37532 11.6808H10.706C14.8154 11.6808 15.4282 14.3829 15.4282 15.9916C15.4282 18.7817 13.7496 20.3213 10.706 20.3213H10.704ZM6.37532 11.9196C6.11707 11.9196 5.91212 12.1311 5.91212 12.393V19.6091C5.91212 19.8731 6.11912 20.0846 6.37532 20.0846H10.706C13.6 20.0846 15.1966 18.6309 15.1966 15.9916C15.1966 12.4474 12.3826 11.9175 10.706 11.9175H6.37532V11.9196Z" fill="black" style="fill:black;fill-opacity:1;"/>
<path d="M9.27536 15.1433C9.36964 15.1433 9.45572 15.158 9.53975 15.1873C9.62379 15.2166 9.69142 15.2648 9.75291 15.3234C9.8103 15.3863 9.85743 15.4638 9.89433 15.5538C9.92712 15.646 9.94557 15.7549 9.94557 15.8806C9.94557 15.9916 9.93122 16.0922 9.90662 16.1843C9.87793 16.2765 9.83694 16.3582 9.78365 16.4252C9.73036 16.4923 9.66068 16.5446 9.57665 16.5844C9.49261 16.6221 9.39628 16.6431 9.28356 16.6431H8.64819V15.1391H9.27536V15.1433ZM9.25281 16.3708C9.29995 16.3708 9.343 16.3624 9.39014 16.3477C9.43318 16.3331 9.47417 16.3079 9.50696 16.2702C9.53975 16.2325 9.56845 16.1885 9.59099 16.1299C9.61354 16.0712 9.62379 16.0042 9.62379 15.9183C9.62379 15.845 9.61559 15.7738 9.60124 15.7151C9.58689 15.6565 9.5623 15.5999 9.52951 15.5601C9.49671 15.5203 9.45367 15.4826 9.39833 15.4596C9.34299 15.4365 9.27946 15.4261 9.19953 15.4261H8.96793V16.375H9.25486V16.3708H9.25281Z" fill="white" style="fill:white;fill-opacity:1;"/>
<path d="M11.2553 15.1433V15.4219H10.4785V15.7444H11.1938V16H10.4785V16.3666H11.2737V16.6452H10.1567V15.1412H11.2553V15.1454V15.1433Z" fill="white" style="fill:white;fill-opacity:1;"/>
<path d="M12.366 15.1433L12.9174 16.6473H12.5792L12.4664 16.3142H11.9151L11.7983 16.6473H11.4724L12.0278 15.1433H12.366ZM12.3845 16.0671L12.2 15.5141H12.1959L12.0032 16.0671H12.3845Z" fill="white" style="fill:white;fill-opacity:1;"/>
<path d="M13.4422 15.1433V16.3708H14.1596V16.6494H13.1184V15.1454H13.4402L13.4422 15.1433Z" fill="white" style="fill:white;fill-opacity:1;"/>
<path d="M7.12128 16.5907C7.49595 16.5907 7.79968 16.2803 7.79968 15.8974C7.79968 15.5145 7.49595 15.204 7.12128 15.204C6.7466 15.204 6.44287 15.5145 6.44287 15.8974C6.44287 16.2803 6.7466 16.5907 7.12128 16.5907Z" fill="black" style="fill:black;fill-opacity:1;"/>
<path d="M7.63376 19.385C7.06399 19.385 6.60693 18.9137 6.60693 18.3356V17.5165C6.60693 17.2275 6.83444 16.9908 7.12137 16.9908C7.40421 16.9908 7.63581 17.2233 7.63581 17.5165V19.385H7.63171H7.63376Z" fill="black" style="fill:black;fill-opacity:1;"/>
<path d="M17.9737 14.2886C17.8097 14.2886 17.6826 14.2488 17.5883 14.1692C17.4961 14.0896 17.449 13.9744 17.449 13.8257C17.449 13.6917 17.4961 13.5827 17.5904 13.4969C17.6847 13.411 17.8117 13.3691 17.9716 13.3691C18.1315 13.3691 18.2627 13.4089 18.3528 13.4885C18.443 13.5681 18.4902 13.6812 18.4902 13.8257C18.4902 13.9703 18.443 14.075 18.3508 14.1609C18.2586 14.2468 18.1315 14.2886 17.9716 14.2886H17.9737ZM17.5371 17.8328V14.8731H18.4102V17.8328H17.5371Z" fill="white" style="fill:white;fill-opacity:1;"/>
<path d="M19.2259 17.8308V14.871H20.0539L20.0806 15.4722L19.9064 15.5392C19.9474 15.4051 20.0191 15.2836 20.1216 15.1747C20.2241 15.0658 20.3491 14.9778 20.4946 14.9108C20.6401 14.8438 20.7918 14.8102 20.9517 14.8102C21.1689 14.8102 21.3534 14.8563 21.503 14.9464C21.6526 15.0365 21.7653 15.1726 21.8412 15.3528C21.917 15.5329 21.9559 15.7528 21.9559 16.0126V17.8287H21.0787V16.0838C21.0787 15.9644 21.0623 15.866 21.0295 15.7885C20.9967 15.711 20.9476 15.6523 20.8799 15.6125C20.8123 15.5727 20.7303 15.5559 20.6319 15.5601C20.5561 15.5601 20.4844 15.5727 20.4188 15.5957C20.3532 15.6209 20.2978 15.6544 20.2507 15.7026C20.2036 15.7487 20.1667 15.801 20.138 15.8618C20.1093 15.9225 20.097 15.9854 20.097 16.0566V17.8287H19.2239L19.2259 17.8308Z" fill="white" style="fill:white;fill-opacity:1;"/>
<path d="M25.0876 16.0503C25.0221 15.8994 24.9319 15.7696 24.8151 15.6565C24.6982 15.5454 24.565 15.4575 24.4174 15.3946C24.317 15.3527 24.2084 15.3297 24.0977 15.315L25.0774 14.2405L24.9093 13.8948H22.5646V14.6908L23.7882 14.716L22.9786 15.6146L23.1795 16.1655C23.2512 16.1278 23.323 16.0984 23.3927 16.0754C23.4623 16.0524 23.5279 16.0356 23.5894 16.023C23.6509 16.0105 23.7103 16.0042 23.7636 16.0042C23.8846 16.0042 23.987 16.0251 24.0711 16.0649C24.1551 16.1047 24.2227 16.1655 24.2678 16.2451C24.3129 16.3247 24.3355 16.4231 24.3355 16.5383C24.3355 16.6452 24.3088 16.7436 24.2555 16.8274C24.2022 16.9133 24.1346 16.9782 24.0485 17.0243C23.9624 17.0704 23.8702 17.0934 23.7677 17.0934C23.6653 17.0934 23.5689 17.0767 23.4767 17.041C23.3845 17.0054 23.2943 16.9489 23.2102 16.8714C23.1242 16.7939 23.0422 16.6891 22.9623 16.5593L22.2961 16.9992C22.4847 17.3217 22.6958 17.5501 22.9254 17.682C23.157 17.814 23.4255 17.8789 23.7349 17.8789C24.0034 17.8789 24.2473 17.8203 24.4687 17.7009C24.688 17.5815 24.8622 17.4223 24.9913 17.2191C25.1204 17.0159 25.184 16.7855 25.184 16.5258C25.184 16.354 25.1512 16.1948 25.0856 16.044L25.0876 16.0503Z" fill="white" style="fill:white;fill-opacity:1;"/>
</g>
<defs>
<clipPath id="clip0_4456_280">
<rect width="22" height="10" fill="white" style="fill:white;fill-opacity:1;" transform="translate(5 11)"/>
</clipPath>
</defs>
</svg>
