<svg width="48" height="36" viewBox="0 0 48 36" fill="none" xmlns="http://www.w3.org/2000/svg">
<rect x="0.75" y="0.75" width="46.5" height="34.5" rx="5.25" fill="white" style="fill:white;fill-opacity:1;"/>
<rect x="0.75" y="0.75" width="46.5" height="34.5" rx="5.25" stroke="#ECECF0" style="stroke:#ECECF0;stroke:color(display-p3 0.9255 0.9255 0.9412);stroke-opacity:1;" stroke-width="1.5"/>
<path fill-rule="evenodd" clip-rule="evenodd" d="M12 6H20.2192V14.2192H12V6ZM13.3151 7.31507V12.9041H18.9041V7.31507H13.3151Z" fill="#333333" style="fill:#333333;fill:color(display-p3 0.2000 0.2000 0.2000);fill-opacity:1;"/>
<path d="M18.0822 8.13699H14.137V12.0822H18.0822V8.13699Z" fill="#333333" style="fill:#333333;fill:color(display-p3 0.2000 0.2000 0.2000);fill-opacity:1;"/>
<path fill-rule="evenodd" clip-rule="evenodd" d="M27.7808 6H36V14.2192H27.7808V6ZM29.0959 7.31507V12.9041H34.6849V7.31507H29.0959Z" fill="#333333" style="fill:#333333;fill:color(display-p3 0.2000 0.2000 0.2000);fill-opacity:1;"/>
<path d="M33.863 8.13699H29.9178V12.0822H33.863V8.13699Z" fill="#333333" style="fill:#333333;fill:color(display-p3 0.2000 0.2000 0.2000);fill-opacity:1;"/>
<path fill-rule="evenodd" clip-rule="evenodd" d="M27.7808 21.7808H36V30H27.7808V21.7808ZM29.0959 23.0959V28.6849H34.6849V23.0959H29.0959Z" fill="#333333" style="fill:#333333;fill:color(display-p3 0.2000 0.2000 0.2000);fill-opacity:1;"/>
<path d="M33.863 23.9178H29.9178V27.863H33.863V23.9178Z" fill="#333333" style="fill:#333333;fill:color(display-p3 0.2000 0.2000 0.2000);fill-opacity:1;"/>
<path fill-rule="evenodd" clip-rule="evenodd" d="M12 21.7808H20.2192V30H12V21.7808ZM13.3151 23.0959V28.6849H18.9041V23.0959H13.3151Z" fill="#333333" style="fill:#333333;fill:color(display-p3 0.2000 0.2000 0.2000);fill-opacity:1;"/>
<path d="M18.0822 23.9178H14.137V27.863H18.0822V23.9178Z" fill="#333333" style="fill:#333333;fill:color(display-p3 0.2000 0.2000 0.2000);fill-opacity:1;"/>
<path fill-rule="evenodd" clip-rule="evenodd" d="M22.8493 6H25.1507V30H22.8493V6Z" fill="#333333" style="fill:#333333;fill:color(display-p3 0.2000 0.2000 0.2000);fill-opacity:1;"/>
<path d="M35.8356 17.0137H12.1644V18.9863H35.8356V17.0137Z" fill="#333333" style="fill:#333333;fill:color(display-p3 0.2000 0.2000 0.2000);fill-opacity:1;"/>
<g clip-path="url(#clip0_2741_3804)">
<path d="M17.1429 12.1798V23.8537C17.1429 24.4223 17.6074 24.8571 18.1383 24.8571H25.0728C30.3152 24.8571 32.5715 21.9136 32.5715 18C32.5715 14.0864 30.3152 11.1429 25.0728 11.1429H18.1715C17.6074 11.1763 17.1429 11.6446 17.1429 12.1798Z" fill="white" style="fill:white;fill-opacity:1;"/>
<path d="M21.7881 14.0529V22.6829H25.5043C28.8886 22.6829 30.3485 20.7428 30.3485 18.0334C30.3485 15.4244 28.8886 13.4174 25.5043 13.4174H22.4186C22.0868 13.3839 21.7881 13.685 21.7881 14.0529Z" fill="#CC0066" style="fill:#CC0066;fill:color(display-p3 0.8000 0.0000 0.4000);fill-opacity:1;"/>
<path d="M25.0728 23.954H19.0673C18.5364 23.954 18.1051 23.5192 18.1051 22.984V13.0829C18.1051 12.5477 18.5364 12.1129 19.0673 12.1129H25.0728C30.7798 12.1129 31.6424 15.8258 31.6424 18.0334C31.6424 21.8467 29.3198 23.954 25.0728 23.954ZM19.0673 12.4474C18.7023 12.4474 18.4369 12.7484 18.4369 13.0829V22.984C18.4369 23.3519 18.7355 23.6195 19.0673 23.6195H25.0728C29.0876 23.6195 31.3106 21.6125 31.3106 18C31.3106 13.1498 27.3954 12.4139 25.0728 12.4139L19.0673 12.4474Z" fill="black" style="fill:black;fill-opacity:1;"/>
<path d="M23.1152 16.8627C23.2479 16.8627 23.3807 16.8962 23.4802 16.9296C23.5797 16.9631 23.6793 17.03 23.7788 17.1303C23.8452 17.2306 23.9115 17.331 23.9779 17.4313C24.0111 17.5651 24.0442 17.6989 24.0442 17.8662C24.0442 18.0334 24.0111 18.1672 23.9779 18.2676C23.9447 18.4014 23.8783 18.5017 23.812 18.6021C23.7456 18.7024 23.6461 18.7693 23.5134 18.8362C23.4138 18.9031 23.2479 18.9031 23.1152 18.9031H22.2194V16.8293L23.1152 16.8627ZM23.082 18.5352C23.1484 18.5352 23.2148 18.5352 23.2811 18.5017C23.3475 18.4683 23.3807 18.4348 23.447 18.4014C23.4802 18.3345 23.5465 18.301 23.5465 18.2007C23.5797 18.1338 23.5797 18.0334 23.5797 17.8996C23.5797 17.7993 23.5797 17.6989 23.5465 17.632C23.5134 17.5651 23.4802 17.4648 23.447 17.4313C23.4138 17.3644 23.3475 17.331 23.2811 17.2975C23.2148 17.2641 23.1152 17.2641 23.0157 17.2641H22.6839V18.5686L23.082 18.5352Z" fill="white" style="fill:white;fill-opacity:1;"/>
<path d="M25.8692 16.8627V17.2306H24.7743V17.6989H25.7697V18.0334H24.7743V18.5352H25.8692V18.9031H24.3098V16.8293L25.8692 16.8627Z" fill="white" style="fill:white;fill-opacity:1;"/>
<path d="M27.3955 16.8627L28.1586 18.9366H27.6941L27.5282 18.4683H26.7651L26.5992 18.9366H26.1346L26.8978 16.8627C26.931 16.8627 27.3955 16.8627 27.3955 16.8627ZM27.4287 18.1338L27.1632 17.3644L26.8978 18.1338H27.4287Z" fill="white" style="fill:white;fill-opacity:1;"/>
<path d="M28.8884 16.8627V18.5352H29.8838V18.9031H28.4239V16.8293C28.4571 16.8627 28.8884 16.8627 28.8884 16.8627Z" fill="white" style="fill:white;fill-opacity:1;"/>
<path d="M20.0959 18.8362C20.609 18.8362 21.0249 18.4169 21.0249 17.8996C21.0249 17.3824 20.609 16.963 20.0959 16.963C19.5828 16.963 19.1669 17.3824 19.1669 17.8996C19.1669 18.4169 19.5828 18.8362 20.0959 18.8362Z" fill="black" style="fill:black;fill-opacity:1;"/>
<path d="M20.8259 22.6829C20.0296 22.6829 19.3992 22.0474 19.3992 21.2446V20.1073C19.3992 19.7059 19.731 19.3714 20.1291 19.3714C20.5273 19.3714 20.8591 19.7059 20.8591 20.1073L20.8259 22.6829Z" fill="black" style="fill:black;fill-opacity:1;"/>
</g>
<defs>
<clipPath id="clip0_2741_3804">
<rect width="15.4286" height="13.7143" fill="white" style="fill:white;fill-opacity:1;" transform="translate(17.1429 11.1429)"/>
</clipPath>
</defs>
</svg>
