<svg width="16" height="16" viewBox="0 0 16 16" fill="none" xmlns="http://www.w3.org/2000/svg">
<rect width="16" height="16" rx="4" fill="#E664A5" style="fill:#E664A5;fill:color(display-p3 0.9020 0.3922 0.6471);fill-opacity:1;"/>
<path d="M3 4.16667V11.672C3 12.0376 3.30108 12.3172 3.64516 12.3172H8.13978C11.5376 12.3172 13 10.4247 13 7.9086C13 5.39247 11.5376 3.5 8.13978 3.5H3.66667C3.30107 3.52151 3 3.82258 3 4.16667Z" fill="white" style="fill:white;fill-opacity:1;"/>
<path d="M6.0108 5.37093V10.9193H8.41941C10.613 10.9193 11.5592 9.67201 11.5592 7.93007C11.5592 6.25265 10.613 4.96233 8.41941 4.96233H6.4194C6.20435 4.94082 6.0108 5.13437 6.0108 5.37093Z" fill="#CC0066" style="fill:#CC0066;fill:color(display-p3 0.8000 0.0000 0.4000);fill-opacity:1;"/>
<path d="M8.13979 11.7366H4.24731C3.90323 11.7366 3.62366 11.457 3.62366 11.1129V4.74731C3.62366 4.40323 3.90323 4.12366 4.24731 4.12366H8.13979C11.8387 4.12366 12.3979 6.51075 12.3979 7.93011C12.3979 10.3817 10.8925 11.7366 8.13979 11.7366ZM4.24731 4.33871C4.01075 4.33871 3.83871 4.53226 3.83871 4.74731V11.1129C3.83871 11.3495 4.03226 11.5215 4.24731 11.5215H8.13979C10.7419 11.5215 12.1828 10.2312 12.1828 7.9086C12.1828 4.79032 9.64516 4.31721 8.13979 4.31721L4.24731 4.33871Z" fill="black" style="fill:black;fill-opacity:1;"/>
<path d="M6.87099 7.17745C6.95701 7.17745 7.04303 7.19896 7.10755 7.22046C7.17206 7.24197 7.23658 7.28498 7.3011 7.34949C7.34411 7.41401 7.38712 7.47853 7.43013 7.54304C7.45163 7.62906 7.47314 7.71508 7.47314 7.82261C7.47314 7.93014 7.45163 8.01616 7.43013 8.08068C7.40862 8.1667 7.36561 8.23121 7.3226 8.29573C7.27959 8.36025 7.21508 8.40326 7.12905 8.44627C7.06454 8.48928 6.95701 8.48928 6.87099 8.48928H6.29034V7.15594L6.87099 7.17745ZM6.84948 8.25272C6.89249 8.25272 6.93551 8.25272 6.97852 8.23121C7.02153 8.20971 7.04303 8.1882 7.08604 8.1667C7.10755 8.12369 7.15056 8.10218 7.15056 8.03767C7.17206 7.99465 7.17206 7.93014 7.17206 7.84412C7.17206 7.7796 7.17206 7.71508 7.15056 7.67207C7.12905 7.62906 7.10755 7.56455 7.08604 7.54304C7.06454 7.50003 7.02153 7.47853 6.97852 7.45702C6.93551 7.43551 6.87099 7.43551 6.80647 7.43551H6.59142V8.27422L6.84948 8.25272Z" fill="white" style="fill:white;fill-opacity:1;"/>
<path d="M8.65596 7.17745V7.41401H7.94628V7.71508H8.59144V7.93014H7.94628V8.25272H8.65596V8.48928H7.6452V7.15594L8.65596 7.17745Z" fill="white" style="fill:white;fill-opacity:1;"/>
<path d="M9.64521 7.17749L10.1398 8.51082H9.83876L9.73123 8.20975H9.23661L9.12908 8.51082H8.828L9.32263 7.17749C9.34413 7.17749 9.64521 7.17749 9.64521 7.17749ZM9.66671 7.99469L9.49467 7.50007L9.32263 7.99469H9.66671Z" fill="white" style="fill:white;fill-opacity:1;"/>
<path d="M10.6128 7.17745V8.25272H11.258V8.48928H10.3118V7.15594C10.3333 7.17745 10.6128 7.17745 10.6128 7.17745Z" fill="white" style="fill:white;fill-opacity:1;"/>
<path d="M4.91398 8.44625C5.24654 8.44625 5.51613 8.17665 5.51613 7.84409C5.51613 7.51154 5.24654 7.24194 4.91398 7.24194C4.58142 7.24194 4.31183 7.51154 4.31183 7.84409C4.31183 8.17665 4.58142 8.44625 4.91398 8.44625Z" fill="black" style="fill:black;fill-opacity:1;"/>
<path d="M5.38713 10.9194C4.871 10.9194 4.4624 10.5108 4.4624 9.99465V9.26346C4.4624 9.0054 4.67746 8.79034 4.93552 8.79034C5.19359 8.79034 5.40864 9.0054 5.40864 9.26346L5.38713 10.9194Z" fill="black" style="fill:black;fill-opacity:1;"/>
</svg>
