<svg width="40" height="30" viewBox="0 0 40 30" fill="none" xmlns="http://www.w3.org/2000/svg">
<rect width="40" height="30" rx="5" fill="#FFF48D" style="fill:#FFF48D;fill:color(display-p3 1.0000 0.9569 0.5529);fill-opacity:1;"/>
<path d="M11.8723 4.08359V16.535C11.8723 17.1311 12.3625 17.6185 12.9613 17.6185H20.4367C26.0882 17.6185 28.5374 14.4701 28.5374 10.2929C28.5374 6.11562 26.0873 3.00003 20.4358 3.00003H12.9604C12.3615 3.00003 11.8713 3.4875 11.8713 4.08359H11.8723Z" fill="white" style="fill:white;fill-opacity:1;"/>
<path d="M16.8757 6.05632V15.257H20.8986C24.5519 15.257 26.1357 13.2031 26.1357 10.2993C26.1357 7.39549 24.551 5.36346 20.8986 5.36346H17.5722C17.186 5.36346 16.8757 5.67749 16.8757 6.05724V6.05632Z" fill="#CC0066" style="fill:#CC0066;fill:color(display-p3 0.8000 0.0000 0.4000);fill-opacity:1;"/>
<path fill-rule="evenodd" clip-rule="evenodd" d="M13.9354 16.6272H20.4358C25.0038 16.6272 27.5242 14.3788 27.5242 10.2983C27.5242 7.9468 26.604 3.99686 20.4358 3.99686H13.9354C13.3584 3.99686 12.8901 4.46241 12.8901 5.03752V15.5874C12.8901 16.1616 13.3584 16.6281 13.9354 16.6281V16.6272ZM13.2379 5.03752C13.2379 4.6532 13.5483 4.34374 13.9344 4.34374H20.4349C22.9498 4.34374 27.1745 5.11876 27.1745 10.2983C27.1745 14.1561 24.7792 16.2803 20.4349 16.2803H13.9344C13.5483 16.2803 13.2379 15.9717 13.2379 15.5865V5.03752Z" fill="#232323" style="fill:#232323;fill:color(display-p3 0.1373 0.1373 0.1373);fill-opacity:1;"/>
<path fill-rule="evenodd" clip-rule="evenodd" d="M18.8556 8.96104C18.7333 8.91722 18.6055 8.89531 18.4667 8.89531V8.88983H17.5457V11.1117H18.4777C18.6429 11.1117 18.7862 11.0789 18.9086 11.0241C19.0309 10.9638 19.1322 10.8872 19.2125 10.7886C19.2929 10.69 19.3513 10.5695 19.3933 10.4326C19.4307 10.2956 19.4517 10.1478 19.4517 9.98344C19.4517 9.79721 19.4252 9.63838 19.3768 9.50145C19.3239 9.37 19.2545 9.25498 19.1696 9.16186C19.0793 9.07423 18.9779 9.00303 18.8556 8.95921V8.96104ZM18.6365 10.6745C18.5671 10.6964 18.5032 10.7073 18.4339 10.7073V10.7128H18.013V9.31157H18.3535C18.4704 9.31157 18.5662 9.328 18.6466 9.36087C18.7269 9.39373 18.7899 9.4485 18.8383 9.50875C18.8866 9.569 18.9232 9.65116 18.9451 9.73879C18.9661 9.82642 18.977 9.93049 18.977 10.04C18.977 10.166 18.9606 10.2646 18.9295 10.3522C18.8976 10.4399 18.8547 10.5056 18.8072 10.5604C18.7588 10.6151 18.7004 10.6535 18.6365 10.6754V10.6745Z" fill="white" style="fill:white;fill-opacity:1;"/>
<path d="M21.3742 8.89611V9.30689H20.2341V9.78341H21.283V10.1613H20.2341V10.7036H21.4007V11.1144H19.7603V8.89246H21.3742V8.89793V8.89611Z" fill="white" style="fill:white;fill-opacity:1;"/>
<path fill-rule="evenodd" clip-rule="evenodd" d="M23.8134 11.118L23.0037 8.89615H22.508L21.6928 11.118H22.1721L22.3428 10.6251H23.1525L23.3177 11.118H23.8134ZM22.759 9.44295L23.0311 10.2581H22.4715L22.7536 9.44295H22.759Z" fill="white" style="fill:white;fill-opacity:1;"/>
<path d="M24.5857 8.89529V10.7073H25.64V11.1181H24.1119V8.89621H24.5857V8.89529Z" fill="white" style="fill:white;fill-opacity:1;"/>
<path d="M15.0062 11.151C15.5831 11.151 16.0505 10.6836 16.0505 10.1058C16.0505 9.52796 15.5831 9.06058 15.0062 9.06058C14.4292 9.06058 13.9619 9.52796 13.9619 10.1058C13.9619 10.6836 14.4292 11.151 15.0062 11.151Z" fill="#232323" style="fill:#232323;fill:color(display-p3 0.1373 0.1373 0.1373);fill-opacity:1;"/>
<path d="M15.6277 15.3309C14.8189 15.3309 14.1708 14.6326 14.1708 13.7745V12.5595C14.1708 12.1304 14.4948 11.778 14.902 11.778C15.3091 11.778 15.6332 12.1249 15.6332 12.5595V15.3309H15.6277Z" fill="#232323" style="fill:#232323;fill:color(display-p3 0.1373 0.1373 0.1373);fill-opacity:1;"/>
<path d="M30.2655 20.1617H10.1826C10.0822 20.1617 10 20.0796 10 19.9791C10 19.8787 10.0822 19.7966 10.1826 19.7966H30.2655C30.3659 19.7966 30.448 19.8787 30.448 19.9791C30.448 20.0796 30.3659 20.1617 30.2655 20.1617Z" fill="#1D1C1C" style="fill:#1D1C1C;fill:color(display-p3 0.1137 0.1098 0.1098);fill-opacity:1;"/>
<path d="M25.4802 24.7041C25.4802 23.4827 26.3492 22.3699 27.8499 22.3699C29.3507 22.3699 30.2261 23.4836 30.2261 24.7041C30.2261 25.9246 29.3571 27.0383 27.8499 27.0383C26.3492 27.0383 25.4802 25.9246 25.4802 24.7041ZM28.907 24.7041C28.907 24.1153 28.5191 23.5721 27.8499 23.5721C27.1808 23.5721 26.7929 24.1162 26.7929 24.7041C26.7929 25.292 27.1872 25.8369 27.8499 25.8369C28.5127 25.8369 28.907 25.2929 28.907 24.7041Z" fill="#1D1C1C" style="fill:#1D1C1C;fill:color(display-p3 0.1137 0.1098 0.1098);fill-opacity:1;"/>
<path d="M24.5574 25.5713C25.0576 25.2865 25.3579 24.7424 25.3579 24.1418C25.3579 23.2499 24.7135 22.4904 23.713 22.4904H21.6125V26.9187H22.9133V25.7867H23.157L23.901 26.9187H25.4328L24.5574 25.5713ZM23.451 24.768H22.9133V23.5156H23.4574C23.8079 23.5156 24.0325 23.8004 24.0325 24.1418C24.0325 24.4832 23.8006 24.768 23.451 24.768Z" fill="#1D1C1C" style="fill:#1D1C1C;fill:color(display-p3 0.1137 0.1098 0.1098);fill-opacity:1;"/>
<path d="M15.6752 22.4858L14.8947 25.1249L14.1333 22.4858H13.0973L12.3295 25.1249L11.5554 22.4858H10.1825L11.7554 26.9059H12.8855L13.6158 24.4996L14.3397 26.9059H15.4752L17.0481 22.4858H15.6752Z" fill="#1D1C1C" style="fill:#1D1C1C;fill:color(display-p3 0.1137 0.1098 0.1098);fill-opacity:1;"/>
<path d="M19.0163 25.826H19.0127C18.5261 25.826 18.1847 25.532 18.0387 25.1432H21.3441C21.3706 24.9971 21.3843 24.8474 21.3843 24.6959C21.3843 23.4781 20.518 22.3672 19.0154 22.3662V23.5657C19.5047 23.5667 19.8425 23.8606 19.9876 24.2486H16.6867C16.6602 24.3946 16.6465 24.5443 16.6465 24.6959C16.6465 25.9145 17.5138 27.0264 19.0118 27.0264H19.0154V25.826H19.0163Z" fill="#1D1C1C" style="fill:#1D1C1C;fill:color(display-p3 0.1137 0.1098 0.1098);fill-opacity:1;"/>
<path d="M19.0127 27.0255C19.0638 27.0255 19.1131 27.0237 19.1633 27.0218C19.4673 27.0063 19.7439 26.9442 19.9904 26.8447C20.2368 26.7443 20.4532 26.6074 20.6367 26.4413C20.8201 26.2751 20.9726 26.0807 21.0903 25.8661C21.1971 25.6717 21.2757 25.4599 21.3249 25.2399H19.9474C19.9191 25.2984 19.8863 25.3549 19.8489 25.407C19.7977 25.4791 19.7375 25.5439 19.669 25.5996C19.6006 25.6562 19.5239 25.7037 19.4399 25.7402C19.355 25.7767 19.2637 25.8022 19.1642 25.8159C19.1158 25.8223 19.0656 25.826 19.0136 25.826C18.7032 25.826 18.4531 25.7064 18.2742 25.5193L17.3787 26.4248C17.7767 26.7927 18.3289 27.0246 19.0136 27.0246L19.0127 27.0255Z" fill="url(#paint0_linear_2740_2182)" style=""/>
<path d="M19.0125 22.3653C17.7418 22.3653 16.9248 23.1649 16.7067 24.1508H18.0796C18.2439 23.8112 18.5671 23.5648 19.0125 23.5648C19.3676 23.5648 19.6433 23.7181 19.8232 23.95L20.7269 23.0362C20.3234 22.6273 19.7428 22.3653 19.0135 22.3653H19.0125Z" fill="url(#paint1_linear_2740_2182)" style=""/>
<defs>
<linearGradient id="paint0_linear_2740_2182" x1="20.6531" y1="24.4375" x2="18.5982" y2="26.9543" gradientUnits="userSpaceOnUse">
<stop offset="0.02" stop-color="#1D1C1C" stop-opacity="0" style="stop-color:none;stop-opacity:0;"/>
<stop offset="0.68" stop-color="#1D1C1C" style="stop-color:#1D1C1C;stop-color:color(display-p3 0.1137 0.1098 0.1098);stop-opacity:1;"/>
</linearGradient>
<linearGradient id="paint1_linear_2740_2182" x1="17.0682" y1="24.9715" x2="19.175" y2="22.8892" gradientUnits="userSpaceOnUse">
<stop offset="0.02" stop-color="#1D1C1C" stop-opacity="0" style="stop-color:none;stop-opacity:0;"/>
<stop offset="0.68" stop-color="#1D1C1C" style="stop-color:#1D1C1C;stop-color:color(display-p3 0.1137 0.1098 0.1098);stop-opacity:1;"/>
</linearGradient>
</defs>
</svg>
