<svg width="40" height="30" viewBox="0 0 40 30" fill="none" xmlns="http://www.w3.org/2000/svg">
<rect width="40" height="30" rx="5" fill="#E664A5" style="fill:#E664A5;fill:color(display-p3 0.9020 0.3922 0.6471);fill-opacity:1;"/>
<g clip-path="url(#clip0_4456_493)">
<path d="M30.2431 10.2639H18.5997C19.6338 11.4897 20.1173 13.132 20.1173 14.9853C20.1173 16.8387 19.631 18.5073 18.5913 19.739H30.2403C33.5578 19.739 34.9971 17.7712 34.9971 14.9912C34.9971 12.2111 33.5578 10.2639 30.2403 10.2639H30.2431Z" fill="black" style="fill:black;fill-opacity:1;"/>
<path d="M5 9.03812V20.9619C5 21.5337 5.44438 22 5.98938 22H12.7809C17.915 22 20.1397 18.9853 20.1397 14.9853C20.1397 10.9853 17.9122 8 12.7781 8H5.98938C5.44438 8 5 8.46628 5 9.03812Z" fill="white" style="fill:white;fill-opacity:1;"/>
<path d="M9.54443 10.9267V19.739H13.2001C16.5176 19.739 17.957 17.7712 17.957 14.9912C17.957 12.2111 16.5176 10.2639 13.2001 10.2639H10.1789C9.82671 10.2639 9.54443 10.566 9.54443 10.9267Z" fill="#CC0066" style="fill:#CC0066;fill:color(display-p3 0.8000 0.0000 0.4000);fill-opacity:1;"/>
<path d="M12.778 21.0498H6.8753C6.34987 21.0498 5.92505 20.6041 5.92505 20.0528V9.95013C5.92505 9.39881 6.34987 8.95306 6.8753 8.95306H12.7808C18.3845 8.95306 19.2202 12.7361 19.2202 14.9883C19.2202 18.8944 16.9312 21.0498 12.7808 21.0498H12.778ZM6.8753 9.28737C6.52315 9.28737 6.24366 9.58356 6.24366 9.95013V20.0528C6.24366 20.4223 6.52594 20.7185 6.8753 20.7185H12.7808C16.7272 20.7185 18.9044 18.6833 18.9044 14.9883C18.9044 10.0264 15.067 9.28444 12.7808 9.28444H6.8753V9.28737Z" fill="black" style="fill:black;fill-opacity:1;"/>
<path d="M10.8301 13.8006C10.9586 13.8006 11.076 13.8211 11.1906 13.8622C11.3052 13.9032 11.3974 13.9707 11.4813 14.0528C11.5595 14.1407 11.6238 14.2493 11.6741 14.3754C11.7188 14.5044 11.744 14.6569 11.744 14.8328C11.744 14.9883 11.7244 15.129 11.6909 15.2581C11.6518 15.3871 11.5959 15.5015 11.5232 15.5953C11.4505 15.6891 11.3555 15.7625 11.2409 15.8182C11.1263 15.871 10.995 15.9003 10.8413 15.9003H9.97485V13.7947H10.8301V13.8006ZM10.7993 15.519C10.8636 15.519 10.9223 15.5073 10.9866 15.4868C11.0453 15.4663 11.1012 15.4311 11.1459 15.3783C11.1906 15.3255 11.2297 15.2639 11.2605 15.1818C11.2912 15.0997 11.3052 15.0059 11.3052 14.8856C11.3052 14.783 11.294 14.6833 11.2745 14.6012C11.2549 14.519 11.2214 14.4399 11.1766 14.3842C11.1319 14.3284 11.0732 14.2756 10.9978 14.2434C10.9223 14.2111 10.8357 14.1965 10.7267 14.1965H10.4109V15.5249H10.8021V15.519H10.7993Z" fill="white" style="fill:white;fill-opacity:1;"/>
<path d="M13.53 13.8006V14.1906H12.4708V14.6422H13.4462V15H12.4708V15.5132H13.5552V15.9032H12.032V13.7976H13.53V13.8035V13.8006Z" fill="white" style="fill:white;fill-opacity:1;"/>
<path d="M15.0447 13.8006L15.7965 15.9061H15.3354L15.1817 15.4399H14.4299L14.2706 15.9061H13.8262L14.5836 13.8006H15.0447ZM15.0699 15.0938L14.8183 14.3196H14.8128L14.55 15.0938H15.0699Z" fill="white" style="fill:white;fill-opacity:1;"/>
<path d="M16.5121 13.8006V15.519H17.4903V15.9091H16.0706V13.8035H16.5093L16.5121 13.8006Z" fill="white" style="fill:white;fill-opacity:1;"/>
<path d="M7.89263 15.827C8.40354 15.827 8.81773 15.3924 8.81773 14.8563C8.81773 14.3202 8.40354 13.8856 7.89263 13.8856C7.38171 13.8856 6.96753 14.3202 6.96753 14.8563C6.96753 15.3924 7.38171 15.827 7.89263 15.827Z" fill="black" style="fill:black;fill-opacity:1;"/>
<path d="M8.59139 19.739C7.81442 19.739 7.19116 19.0792 7.19116 18.2698V17.1232C7.19116 16.7185 7.50139 16.3871 7.89267 16.3871C8.27836 16.3871 8.59418 16.7126 8.59418 17.1232V19.739H8.58859H8.59139Z" fill="black" style="fill:black;fill-opacity:1;"/>
<path d="M22.6916 12.6041C22.468 12.6041 22.2947 12.5484 22.1661 12.4369C22.0404 12.3255 21.9761 12.1642 21.9761 11.956C21.9761 11.7683 22.0404 11.6158 22.1689 11.4956C22.2975 11.3754 22.4708 11.3167 22.6888 11.3167C22.9068 11.3167 23.0856 11.3724 23.2086 11.4839C23.3316 11.5953 23.3959 11.7537 23.3959 11.956C23.3959 12.1584 23.3316 12.305 23.2058 12.4252C23.08 12.5455 22.9068 12.6041 22.6888 12.6041H22.6916ZM22.0963 17.566V13.4223H23.2869V17.566H22.0963Z" fill="white" style="fill:white;fill-opacity:1;"/>
<path d="M24.3993 17.5631V13.4194H25.5284L25.5647 14.261L25.3272 14.3548C25.3831 14.1672 25.4809 13.9971 25.6206 13.8446C25.7604 13.6921 25.9309 13.5689 26.1293 13.4751C26.3277 13.3812 26.5346 13.3343 26.7525 13.3343C27.0488 13.3343 27.3003 13.3988 27.5044 13.5249C27.7084 13.651 27.8621 13.8417 27.9655 14.0939C28.0689 14.3461 28.122 14.654 28.122 15.0176V17.5601H26.9258V15.1173C26.9258 14.9502 26.9035 14.8123 26.8588 14.7038C26.814 14.5953 26.747 14.5132 26.6547 14.4575C26.5625 14.4018 26.4507 14.3783 26.3166 14.3842C26.2131 14.3842 26.1153 14.4018 26.0259 14.434C25.9365 14.4692 25.861 14.5161 25.7967 14.5836C25.7324 14.6481 25.6821 14.7214 25.643 14.8065C25.6039 14.8915 25.5871 14.9795 25.5871 15.0792V17.5601H24.3965L24.3993 17.5631Z" fill="white" style="fill:white;fill-opacity:1;"/>
<path d="M32.3925 15.0704C32.3031 14.8592 32.1801 14.6774 32.0208 14.5191C31.8615 14.3636 31.6798 14.2405 31.4786 14.1525C31.3417 14.0939 31.1935 14.0616 31.0426 14.0411L32.3786 12.5367L32.1494 12.0528H28.9521V13.1672L30.6206 13.2024L29.5166 14.4604L29.7905 15.2317C29.8883 15.1789 29.9862 15.1378 30.0812 15.1056C30.1762 15.0733 30.2656 15.0499 30.3495 15.0323C30.4333 15.0147 30.5144 15.0059 30.5871 15.0059C30.752 15.0059 30.8917 15.0352 31.0063 15.0909C31.1209 15.1466 31.2131 15.2317 31.2746 15.3431C31.3361 15.4546 31.3668 15.5924 31.3668 15.7537C31.3668 15.9032 31.3305 16.0411 31.2578 16.1584C31.1852 16.2786 31.0929 16.3695 30.9755 16.434C30.8582 16.4985 30.7324 16.5308 30.5926 16.5308C30.4529 16.5308 30.3215 16.5073 30.1958 16.4575C30.07 16.4076 29.947 16.3285 29.8324 16.22C29.7151 16.1114 29.6033 15.9648 29.4943 15.783L28.5859 16.3988C28.8431 16.8504 29.1309 17.1701 29.444 17.3548C29.7598 17.5396 30.1259 17.6305 30.5479 17.6305C30.9141 17.6305 31.2466 17.5484 31.5485 17.3812C31.8475 17.2141 32.0851 16.9912 32.2612 16.7068C32.4373 16.4223 32.5239 16.0997 32.5239 15.7361C32.5239 15.4956 32.4792 15.2727 32.3897 15.0616L32.3925 15.0704Z" fill="white" style="fill:white;fill-opacity:1;"/>
</g>
<defs>
<clipPath id="clip0_4456_493">
<rect width="30" height="14" fill="white" style="fill:white;fill-opacity:1;" transform="translate(5 8)"/>
</clipPath>
</defs>
</svg>
