<svg width="24" height="24" viewBox="0 0 24 24" fill="none" xmlns="http://www.w3.org/2000/svg">
<rect width="24" height="24" rx="6" fill="#FFF48D" style="fill:#FFF48D;fill:color(display-p3 1.0000 0.9569 0.5529);fill-opacity:1;"/>
<path d="M5.26217 3.45404V12.9716C5.26217 13.4272 5.63687 13.7998 6.09461 13.7998H11.8086C16.1285 13.7998 18.0006 11.3932 18.0006 8.20025C18.0006 5.00727 16.1278 2.62579 11.8079 2.62579H6.09391C5.63618 2.62579 5.26147 2.9984 5.26147 3.45404H5.26217Z" fill="white" style="fill:white;fill-opacity:1;"/>
<path d="M9.08667 4.96186V11.9946H12.1617C14.9542 11.9946 16.1648 10.4247 16.1648 8.20507C16.1648 5.98548 14.9535 4.43225 12.1617 4.43225H9.61907C9.32391 4.43225 9.08667 4.67228 9.08667 4.96255V4.96186Z" fill="#CC0066" style="fill:#CC0066;fill:color(display-p3 0.8000 0.0000 0.4000);fill-opacity:1;"/>
<path fill-rule="evenodd" clip-rule="evenodd" d="M6.83916 13.0421H11.808C15.2996 13.0421 17.2261 11.3235 17.2261 8.2045C17.2261 6.40705 16.5228 3.38782 11.808 3.38782H6.83916C6.39818 3.38782 6.04022 3.74368 6.04022 4.18327V12.2474C6.04022 12.6863 6.39818 13.0428 6.83916 13.0428V13.0421ZM6.30607 4.18327C6.30607 3.88951 6.54331 3.65297 6.83847 3.65297H11.8073C13.7296 3.65297 16.9589 4.24537 16.9589 8.2045C16.9589 11.1533 15.1279 12.777 11.8073 12.777H6.83847C6.54331 12.777 6.30607 12.5411 6.30607 12.2467V4.18327Z" fill="#232323" style="fill:#232323;fill:color(display-p3 0.1373 0.1373 0.1373);fill-opacity:1;"/>
<path fill-rule="evenodd" clip-rule="evenodd" d="M10.6001 7.18223C10.5066 7.14874 10.4089 7.13199 10.3029 7.13199V7.12781H9.59882V8.82617H10.3112C10.4375 8.82617 10.5471 8.80105 10.6406 8.75919C10.7341 8.71313 10.8115 8.65452 10.8729 8.57916C10.9343 8.5038 10.979 8.4117 11.0111 8.30703C11.0397 8.20237 11.0558 8.08933 11.0558 7.96373C11.0558 7.82139 11.0355 7.69998 10.9985 7.59531C10.9581 7.49483 10.905 7.40691 10.8401 7.33574C10.7711 7.26876 10.6936 7.21433 10.6001 7.18084V7.18223ZM10.4326 8.49194C10.3796 8.50869 10.3308 8.51706 10.2777 8.51706V8.52125H9.95607V7.45018H10.2163C10.3057 7.45018 10.3789 7.46274 10.4403 7.48786C10.5017 7.51297 10.5499 7.55484 10.5869 7.60089C10.6238 7.64695 10.6517 7.70974 10.6685 7.77673C10.6845 7.84372 10.6929 7.92326 10.6929 8.00699C10.6929 8.10329 10.6804 8.17864 10.6566 8.24563C10.6322 8.31262 10.5994 8.36285 10.5631 8.40472C10.5261 8.44659 10.4815 8.47589 10.4326 8.49264V8.49194Z" fill="white" style="fill:white;fill-opacity:1;"/>
<path d="M12.5252 7.13267V7.44667H11.6537V7.8109H12.4554V8.09978H11.6537V8.51425H12.5455V8.82825H11.2916V7.12988H12.5252V7.13407V7.13267Z" fill="white" style="fill:white;fill-opacity:1;"/>
<path fill-rule="evenodd" clip-rule="evenodd" d="M14.3897 8.83099L13.7708 7.13263H13.3919L12.7688 8.83099H13.1351L13.2656 8.4542H13.8845L14.0108 8.83099H14.3897ZM13.5838 7.55059L13.7917 8.1737H13.364L13.5796 7.55059H13.5838Z" fill="white" style="fill:white;fill-opacity:1;"/>
<path d="M14.98 7.13196V8.51702H15.7859V8.83102H14.6179V7.13266H14.98V7.13196Z" fill="white" style="fill:white;fill-opacity:1;"/>
<path d="M7.65762 8.85612C8.09861 8.85612 8.45586 8.49887 8.45586 8.05718C8.45586 7.6155 8.09861 7.25824 7.65762 7.25824C7.21663 7.25824 6.85938 7.6155 6.85938 8.05718C6.85938 8.49887 7.21663 8.85612 7.65762 8.85612Z" fill="#232323" style="fill:#232323;fill:color(display-p3 0.1373 0.1373 0.1373);fill-opacity:1;"/>
<path d="M8.1328 12.0512C7.51458 12.0512 7.01917 11.5174 7.01917 10.8615V9.9328C7.01917 9.60485 7.26687 9.33551 7.57808 9.33551C7.88928 9.33551 8.13699 9.60066 8.13699 9.9328V12.0512H8.1328Z" fill="#232323" style="fill:#232323;fill:color(display-p3 0.1373 0.1373 0.1373);fill-opacity:1;"/>
<path d="M19.3215 15.7438H3.97061C3.89385 15.7438 3.83105 15.681 3.83105 15.6042C3.83105 15.5275 3.89385 15.4647 3.97061 15.4647H19.3215C19.3982 15.4647 19.461 15.5275 19.461 15.6042C19.461 15.681 19.3982 15.7438 19.3215 15.7438Z" fill="#1D1C1C" style="fill:#1D1C1C;fill:color(display-p3 0.1137 0.1098 0.1098);fill-opacity:1;"/>
<path d="M15.6638 19.2159C15.6638 18.2823 16.328 17.4317 17.4752 17.4317C18.6223 17.4317 19.2914 18.283 19.2914 19.2159C19.2914 20.1488 18.6272 21.0001 17.4752 21.0001C16.328 21.0001 15.6638 20.1488 15.6638 19.2159ZM18.2832 19.2159C18.2832 18.7658 17.9866 18.3507 17.4752 18.3507C16.9637 18.3507 16.6671 18.7665 16.6671 19.2159C16.6671 19.6653 16.9686 20.0818 17.4752 20.0818C17.9817 20.0818 18.2832 19.6659 18.2832 19.2159Z" fill="#1D1C1C" style="fill:#1D1C1C;fill:color(display-p3 0.1137 0.1098 0.1098);fill-opacity:1;"/>
<path d="M14.9583 19.8788C15.3407 19.6611 15.5703 19.2452 15.5703 18.7861C15.5703 18.1043 15.0776 17.5238 14.3129 17.5238H12.7073V20.9087H13.7017V20.0434H13.888L14.4566 20.9087H15.6275L14.9583 19.8788ZM14.1126 19.2647H13.7017V18.3074H14.1175C14.3855 18.3074 14.5571 18.5251 14.5571 18.7861C14.5571 19.047 14.3799 19.2647 14.1126 19.2647Z" fill="#1D1C1C" style="fill:#1D1C1C;fill:color(display-p3 0.1137 0.1098 0.1098);fill-opacity:1;"/>
<path d="M8.16904 17.5203L7.57245 19.5375L6.99051 17.5203H6.19855L5.61173 19.5375L5.02002 17.5203H3.97058L5.17283 20.8988H6.03667L6.59488 19.0595L7.14821 20.8988H8.01623L9.21848 17.5203H8.16904Z" fill="#1D1C1C" style="fill:#1D1C1C;fill:color(display-p3 0.1137 0.1098 0.1098);fill-opacity:1;"/>
<path d="M10.7228 20.0734H10.72C10.3481 20.0734 10.0872 19.8487 9.97553 19.5515H12.5021C12.5224 19.4399 12.5328 19.3254 12.5328 19.2096C12.5328 18.2788 11.8707 17.4296 10.7221 17.4289V18.3458C11.0961 18.3465 11.3543 18.5711 11.4653 18.8677H8.94214C8.9219 18.9793 8.91144 19.0938 8.91144 19.2096C8.91144 20.1411 9.57432 20.991 10.7194 20.991H10.7221V20.0734H10.7228Z" fill="#1D1C1C" style="fill:#1D1C1C;fill:color(display-p3 0.1137 0.1098 0.1098);fill-opacity:1;"/>
<path d="M10.7201 20.9903C10.7592 20.9903 10.7969 20.9889 10.8353 20.9875C11.0676 20.9756 11.279 20.9282 11.4674 20.8521C11.6558 20.7753 11.8212 20.6707 11.9615 20.5437C12.1017 20.4167 12.2182 20.2681 12.3082 20.1041C12.3899 19.9555 12.4499 19.7936 12.4876 19.6254H11.4346C11.413 19.6701 11.3879 19.7133 11.3593 19.7531C11.3202 19.8082 11.2742 19.8578 11.2218 19.9003C11.1695 19.9436 11.1109 19.9799 11.0467 20.0078C10.9818 20.0357 10.912 20.0553 10.836 20.0657C10.799 20.0706 10.7606 20.0734 10.7208 20.0734C10.4836 20.0734 10.2924 19.982 10.1556 19.8389L9.47113 20.5311C9.77536 20.8123 10.1975 20.9896 10.7208 20.9896L10.7201 20.9903Z" fill="url(#paint0_linear_1857_978)" style=""/>
<path d="M10.7201 17.4282C9.74879 17.4282 9.12429 18.0394 8.95752 18.793H10.007C10.1326 18.5334 10.3796 18.345 10.7201 18.345C10.9915 18.345 11.2022 18.4623 11.3397 18.6395L12.0305 17.941C11.7221 17.6284 11.2783 17.4282 10.7208 17.4282H10.7201Z" fill="url(#paint1_linear_1857_978)" style=""/>
<defs>
<linearGradient id="paint0_linear_1857_978" x1="11.974" y1="19.0121" x2="10.4033" y2="20.9358" gradientUnits="userSpaceOnUse">
<stop offset="0.02" stop-color="#1D1C1C" stop-opacity="0" style="stop-color:none;stop-opacity:0;"/>
<stop offset="0.68" stop-color="#1D1C1C" style="stop-color:#1D1C1C;stop-color:color(display-p3 0.1137 0.1098 0.1098);stop-opacity:1;"/>
</linearGradient>
<linearGradient id="paint1_linear_1857_978" x1="9.23384" y1="19.4203" x2="10.8443" y2="17.8287" gradientUnits="userSpaceOnUse">
<stop offset="0.02" stop-color="#1D1C1C" stop-opacity="0" style="stop-color:none;stop-opacity:0;"/>
<stop offset="0.68" stop-color="#1D1C1C" style="stop-color:#1D1C1C;stop-color:color(display-p3 0.1137 0.1098 0.1098);stop-opacity:1;"/>
</linearGradient>
</defs>
</svg>
