<svg width="24" height="24" viewBox="0 0 24 24" fill="none" xmlns="http://www.w3.org/2000/svg">
<rect x="0.5" y="0.5" width="23" height="23" rx="5.5" fill="white" style="fill:white;fill-opacity:1;"/>
<rect x="0.5" y="0.5" width="23" height="23" rx="5.5" stroke="#EEEEEE" style="stroke:#EEEEEE;stroke:color(display-p3 0.9333 0.9333 0.9333);stroke-opacity:1;"/>
<path fill-rule="evenodd" clip-rule="evenodd" d="M3.63281 3.44623H9.49219V9.3056H3.63281V3.44623ZM4.57031 4.38373V8.3681H8.55469V4.38373H4.57031Z" fill="#333333" style="fill:#333333;fill:color(display-p3 0.2000 0.2000 0.2000);fill-opacity:1;"/>
<path d="M7.96875 4.96967H5.15625V7.78217H7.96875V4.96967Z" fill="#333333" style="fill:#333333;fill:color(display-p3 0.2000 0.2000 0.2000);fill-opacity:1;"/>
<path fill-rule="evenodd" clip-rule="evenodd" d="M14.8828 3.44623H20.7422V9.3056H14.8828V3.44623ZM15.8203 4.38373V8.3681H19.8047V4.38373H15.8203Z" fill="#333333" style="fill:#333333;fill:color(display-p3 0.2000 0.2000 0.2000);fill-opacity:1;"/>
<path d="M19.2188 4.96967H16.4062V7.78217H19.2188V4.96967Z" fill="#333333" style="fill:#333333;fill:color(display-p3 0.2000 0.2000 0.2000);fill-opacity:1;"/>
<path fill-rule="evenodd" clip-rule="evenodd" d="M14.8828 14.6962H20.7422V20.5556H14.8828V14.6962ZM15.8203 15.6337V19.6181H19.8047V15.6337H15.8203Z" fill="#333333" style="fill:#333333;fill:color(display-p3 0.2000 0.2000 0.2000);fill-opacity:1;"/>
<path d="M19.2188 16.2197H16.4062V19.0322H19.2188V16.2197Z" fill="#333333" style="fill:#333333;fill:color(display-p3 0.2000 0.2000 0.2000);fill-opacity:1;"/>
<path fill-rule="evenodd" clip-rule="evenodd" d="M3.63281 14.6962H9.49219V20.5556H3.63281V14.6962ZM4.57031 15.6337V19.6181H8.55469V15.6337H4.57031Z" fill="#333333" style="fill:#333333;fill:color(display-p3 0.2000 0.2000 0.2000);fill-opacity:1;"/>
<path d="M7.96875 16.2197H5.15625V19.0322H7.96875V16.2197Z" fill="#333333" style="fill:#333333;fill:color(display-p3 0.2000 0.2000 0.2000);fill-opacity:1;"/>
<path fill-rule="evenodd" clip-rule="evenodd" d="M11.3672 3.44623H13.0078V20.5556H11.3672V3.44623Z" fill="#333333" style="fill:#333333;fill:color(display-p3 0.2000 0.2000 0.2000);fill-opacity:1;"/>
<path d="M20.625 11.2978H3.75V12.704H20.625V11.2978Z" fill="#333333" style="fill:#333333;fill:color(display-p3 0.2000 0.2000 0.2000);fill-opacity:1;"/>
<g clip-path="url(#clip0_1857_975)">
<path d="M7.3125 8.07195V15.9526C7.3125 16.3365 7.62863 16.63 7.98992 16.63H12.7093C16.277 16.63 17.8125 14.6429 17.8125 12.001C17.8125 9.35905 16.277 7.37195 12.7093 7.37195H8.0125C7.62863 7.39453 7.3125 7.71066 7.3125 8.07195Z" fill="white" style="fill:white;fill-opacity:1;"/>
<path d="M10.4738 9.33645V15.1623H13.0028C15.3061 15.1623 16.2996 13.8526 16.2996 12.0235C16.2996 10.2623 15.3061 8.90742 13.0028 8.90742H10.9028C10.677 8.88484 10.4738 9.08806 10.4738 9.33645Z" fill="#CC0066" style="fill:#CC0066;fill:color(display-p3 0.8000 0.0000 0.4000);fill-opacity:1;"/>
<path d="M12.7093 16.0203H8.62218C8.26089 16.0203 7.96735 15.7268 7.96735 15.3655V8.68163C7.96735 8.32034 8.26089 8.02679 8.62218 8.02679H12.7093C16.5932 8.02679 17.1803 10.5332 17.1803 12.0236C17.1803 14.5978 15.5996 16.0203 12.7093 16.0203ZM8.62218 8.2526C8.3738 8.2526 8.19315 8.45583 8.19315 8.68163V15.3655C8.19315 15.6139 8.39638 15.7945 8.62218 15.7945H12.7093C15.4415 15.7945 16.9544 14.4397 16.9544 12.001C16.9544 8.7268 14.2899 8.23002 12.7093 8.23002L8.62218 8.2526Z" fill="black" style="fill:black;fill-opacity:1;"/>
<path d="M11.377 11.2332C11.4673 11.2332 11.5577 11.2558 11.6254 11.2784C11.6931 11.301 11.7609 11.3461 11.8286 11.4139C11.8738 11.4816 11.9189 11.5493 11.9641 11.6171C11.9867 11.7074 12.0093 11.7977 12.0093 11.9106C12.0093 12.0235 11.9867 12.1139 11.9641 12.1816C11.9415 12.2719 11.8964 12.3397 11.8512 12.4074C11.806 12.4751 11.7383 12.5203 11.648 12.5655C11.5802 12.6106 11.4673 12.6106 11.377 12.6106H10.7673V11.2106L11.377 11.2332ZM11.3544 12.3622C11.3996 12.3622 11.4448 12.3622 11.4899 12.3397C11.5351 12.3171 11.5577 12.2945 11.6028 12.2719C11.6254 12.2268 11.6706 12.2042 11.6706 12.1364C11.6931 12.0913 11.6931 12.0235 11.6931 11.9332C11.6931 11.8655 11.6931 11.7977 11.6706 11.7526C11.648 11.7074 11.6254 11.6397 11.6028 11.6171C11.5802 11.5719 11.5351 11.5493 11.4899 11.5268C11.4448 11.5042 11.377 11.5042 11.3093 11.5042H11.0835V12.3848L11.3544 12.3622Z" fill="white" style="fill:white;fill-opacity:1;"/>
<path d="M13.2512 11.2332V11.4816H12.5061V11.7977H13.1835V12.0235H12.5061V12.3622H13.2512V12.6106H12.1899V11.2106L13.2512 11.2332Z" fill="white" style="fill:white;fill-opacity:1;"/>
<path d="M14.2899 11.2332L14.8093 12.6332H14.4932L14.3803 12.3171H13.8609L13.748 12.6332H13.4319L13.9512 11.2332C13.9738 11.2332 14.2899 11.2332 14.2899 11.2332ZM14.3125 12.0913L14.1319 11.5719L13.9512 12.0913H14.3125Z" fill="white" style="fill:white;fill-opacity:1;"/>
<path d="M15.306 11.2332V12.3622H15.9834V12.6106H14.9899V11.2106C15.0124 11.2332 15.306 11.2332 15.306 11.2332Z" fill="white" style="fill:white;fill-opacity:1;"/>
<path d="M9.3222 12.5655C9.67139 12.5655 9.95446 12.2824 9.95446 11.9332C9.95446 11.584 9.67139 11.301 9.3222 11.301C8.97301 11.301 8.68994 11.584 8.68994 11.9332C8.68994 12.2824 8.97301 12.5655 9.3222 12.5655Z" fill="black" style="fill:black;fill-opacity:1;"/>
<path d="M9.81899 15.1623C9.27705 15.1623 8.84802 14.7333 8.84802 14.1913V13.4236C8.84802 13.1526 9.07383 12.9268 9.3448 12.9268C9.61576 12.9268 9.84157 13.1526 9.84157 13.4236L9.81899 15.1623Z" fill="black" style="fill:black;fill-opacity:1;"/>
</g>
<defs>
<clipPath id="clip0_1857_975">
<rect width="10.5" height="9.25807" fill="white" style="fill:white;fill-opacity:1;" transform="translate(7.3125 7.37195)"/>
</clipPath>
</defs>
</svg>
