<svg width="40" height="40" viewBox="0 0 40 40" fill="none" xmlns="http://www.w3.org/2000/svg">
<rect width="40" height="40" rx="10" fill="#E664A5" style="fill:#E664A5;fill:color(display-p3 0.9020 0.3922 0.6471);fill-opacity:1;"/>
<g clip-path="url(#clip0_4456_246)">
<path d="M30.2431 15.2639H18.5997C19.6338 16.4897 20.1173 18.132 20.1173 19.9853C20.1173 21.8387 19.631 23.5073 18.5913 24.739H30.2403C33.5578 24.739 34.9971 22.7712 34.9971 19.9912C34.9971 17.2111 33.5578 15.2639 30.2403 15.2639H30.2431Z" fill="black" style="fill:black;fill-opacity:1;"/>
<path d="M5 14.0381V25.9619C5 26.5337 5.44438 27 5.98938 27H12.7809C17.915 27 20.1397 23.9853 20.1397 19.9853C20.1397 15.9853 17.9122 13 12.7781 13H5.98938C5.44438 13 5 13.4663 5 14.0381Z" fill="white" style="fill:white;fill-opacity:1;"/>
<path d="M9.54443 15.9267V24.739H13.2001C16.5176 24.739 17.957 22.7712 17.957 19.9912C17.957 17.2111 16.5176 15.2639 13.2001 15.2639H10.1789C9.82671 15.2639 9.54443 15.566 9.54443 15.9267Z" fill="#CC0066" style="fill:#CC0066;fill:color(display-p3 0.8000 0.0000 0.4000);fill-opacity:1;"/>
<path d="M12.778 26.0498H6.8753C6.34987 26.0498 5.92505 25.6041 5.92505 25.0528V14.9501C5.92505 14.3988 6.34987 13.9531 6.8753 13.9531H12.7808C18.3845 13.9531 19.2202 17.7361 19.2202 19.9883C19.2202 23.8944 16.9312 26.0498 12.7808 26.0498H12.778ZM6.8753 14.2874C6.52315 14.2874 6.24366 14.5836 6.24366 14.9501V25.0528C6.24366 25.4223 6.52594 25.7185 6.8753 25.7185H12.7808C16.7272 25.7185 18.9044 23.6833 18.9044 19.9883C18.9044 15.0264 15.067 14.2844 12.7808 14.2844H6.8753V14.2874Z" fill="black" style="fill:black;fill-opacity:1;"/>
<path d="M10.8301 18.8006C10.9586 18.8006 11.076 18.8211 11.1906 18.8622C11.3052 18.9032 11.3974 18.9707 11.4813 19.0528C11.5595 19.1408 11.6238 19.2493 11.6741 19.3754C11.7188 19.5044 11.744 19.6569 11.744 19.8329C11.744 19.9883 11.7244 20.129 11.6909 20.2581C11.6518 20.3871 11.5959 20.5015 11.5232 20.5953C11.4505 20.6892 11.3555 20.7625 11.2409 20.8182C11.1263 20.871 10.995 20.9003 10.8413 20.9003H9.97485V18.7947H10.8301V18.8006ZM10.7993 20.5191C10.8636 20.5191 10.9223 20.5073 10.9866 20.4868C11.0453 20.4663 11.1012 20.4311 11.1459 20.3783C11.1906 20.3255 11.2297 20.2639 11.2605 20.1818C11.2912 20.0997 11.3052 20.0059 11.3052 19.8856C11.3052 19.783 11.294 19.6833 11.2745 19.6012C11.2549 19.5191 11.2214 19.4399 11.1766 19.3842C11.1319 19.3285 11.0732 19.2757 10.9978 19.2434C10.9223 19.2112 10.8357 19.1965 10.7267 19.1965H10.4109V20.5249H10.8021V20.5191H10.7993Z" fill="white" style="fill:white;fill-opacity:1;"/>
<path d="M13.53 18.8006V19.1906H12.4708V19.6422H13.4462V20H12.4708V20.5132H13.5552V20.9032H12.032V18.7977H13.53V18.8035V18.8006Z" fill="white" style="fill:white;fill-opacity:1;"/>
<path d="M15.0447 18.8006L15.7965 20.9062H15.3354L15.1817 20.4399H14.4299L14.2706 20.9062H13.8262L14.5836 18.8006H15.0447ZM15.0699 20.0939L14.8183 19.3197H14.8128L14.55 20.0939H15.0699Z" fill="white" style="fill:white;fill-opacity:1;"/>
<path d="M16.5121 18.8006V20.5191H17.4903V20.9091H16.0706V18.8035H16.5093L16.5121 18.8006Z" fill="white" style="fill:white;fill-opacity:1;"/>
<path d="M7.89263 20.827C8.40354 20.827 8.81773 20.3924 8.81773 19.8563C8.81773 19.3202 8.40354 18.8856 7.89263 18.8856C7.38171 18.8856 6.96753 19.3202 6.96753 19.8563C6.96753 20.3924 7.38171 20.827 7.89263 20.827Z" fill="black" style="fill:black;fill-opacity:1;"/>
<path d="M8.59139 24.739C7.81442 24.739 7.19116 24.0792 7.19116 23.2698V22.1232C7.19116 21.7185 7.50139 21.3871 7.89267 21.3871C8.27836 21.3871 8.59418 21.7126 8.59418 22.1232V24.739H8.58859H8.59139Z" fill="black" style="fill:black;fill-opacity:1;"/>
<path d="M22.6916 17.6041C22.468 17.6041 22.2947 17.5484 22.1661 17.4369C22.0404 17.3255 21.9761 17.1642 21.9761 16.956C21.9761 16.7683 22.0404 16.6158 22.1689 16.4956C22.2975 16.3754 22.4708 16.3167 22.6888 16.3167C22.9068 16.3167 23.0856 16.3724 23.2086 16.4839C23.3316 16.5953 23.3959 16.7537 23.3959 16.956C23.3959 17.1584 23.3316 17.305 23.2058 17.4252C23.08 17.5455 22.9068 17.6041 22.6888 17.6041H22.6916ZM22.0963 22.566V18.4223H23.2869V22.566H22.0963Z" fill="white" style="fill:white;fill-opacity:1;"/>
<path d="M24.3993 22.563V18.4193H25.5284L25.5647 19.261L25.3272 19.3548C25.3831 19.1671 25.4809 18.997 25.6206 18.8446C25.7604 18.6921 25.9309 18.5689 26.1293 18.4751C26.3277 18.3812 26.5346 18.3343 26.7525 18.3343C27.0488 18.3343 27.3003 18.3988 27.5044 18.5249C27.7084 18.651 27.8621 18.8416 27.9655 19.0938C28.0689 19.346 28.122 19.6539 28.122 20.0176V22.5601H26.9258V20.1173C26.9258 19.9501 26.9035 19.8123 26.8588 19.7038C26.814 19.5953 26.747 19.5132 26.6547 19.4575C26.5625 19.4017 26.4507 19.3783 26.3166 19.3841C26.2131 19.3841 26.1153 19.4017 26.0259 19.434C25.9365 19.4692 25.861 19.5161 25.7967 19.5836C25.7324 19.6481 25.6821 19.7214 25.643 19.8064C25.6039 19.8915 25.5871 19.9795 25.5871 20.0792V22.5601H24.3965L24.3993 22.563Z" fill="white" style="fill:white;fill-opacity:1;"/>
<path d="M32.3925 20.0704C32.3031 19.8592 32.1801 19.6774 32.0208 19.5191C31.8615 19.3636 31.6798 19.2405 31.4786 19.1525C31.3417 19.0939 31.1935 19.0616 31.0426 19.0411L32.3786 17.5367L32.1494 17.0528H28.9521V18.1672L30.6206 18.2024L29.5166 19.4604L29.7905 20.2317C29.8883 20.1789 29.9862 20.1378 30.0812 20.1056C30.1762 20.0733 30.2656 20.0499 30.3495 20.0323C30.4333 20.0147 30.5144 20.0059 30.5871 20.0059C30.752 20.0059 30.8917 20.0352 31.0063 20.0909C31.1209 20.1466 31.2131 20.2317 31.2746 20.3431C31.3361 20.4546 31.3668 20.5924 31.3668 20.7537C31.3668 20.9032 31.3305 21.0411 31.2578 21.1584C31.1852 21.2786 31.0929 21.3695 30.9755 21.434C30.8582 21.4985 30.7324 21.5308 30.5926 21.5308C30.4529 21.5308 30.3215 21.5073 30.1958 21.4575C30.07 21.4076 29.947 21.3285 29.8324 21.22C29.7151 21.1114 29.6033 20.9648 29.4943 20.783L28.5859 21.3988C28.8431 21.8504 29.1309 22.1701 29.444 22.3548C29.7598 22.5396 30.1259 22.6305 30.5479 22.6305C30.9141 22.6305 31.2466 22.5484 31.5485 22.3812C31.8475 22.2141 32.0851 21.9912 32.2612 21.7068C32.4373 21.4223 32.5239 21.0997 32.5239 20.7361C32.5239 20.4956 32.4792 20.2727 32.3897 20.0616L32.3925 20.0704Z" fill="white" style="fill:white;fill-opacity:1;"/>
</g>
<defs>
<clipPath id="clip0_4456_246">
<rect width="30" height="14" fill="white" style="fill:white;fill-opacity:1;" transform="translate(5 13)"/>
</clipPath>
</defs>
</svg>
