<svg width="32" height="24" viewBox="0 0 32 24" fill="none" xmlns="http://www.w3.org/2000/svg">
<rect x="0.5" y="0.5" width="31" height="23" rx="3.5" fill="white" style="fill:white;fill-opacity:1;"/>
<rect x="0.5" y="0.5" width="31" height="23" rx="3.5" stroke="#ECECF0" style="stroke:#ECECF0;stroke:color(display-p3 0.9255 0.9255 0.9412);stroke-opacity:1;"/>
<path fill-rule="evenodd" clip-rule="evenodd" d="M8 4H13.4795V9.47945H8V4ZM8.87671 4.87671V8.60274H12.6027V4.87671H8.87671Z" fill="#333333" style="fill:#333333;fill:color(display-p3 0.2000 0.2000 0.2000);fill-opacity:1;"/>
<path d="M12.0548 5.42466H9.42466V8.05479H12.0548V5.42466Z" fill="#333333" style="fill:#333333;fill:color(display-p3 0.2000 0.2000 0.2000);fill-opacity:1;"/>
<path fill-rule="evenodd" clip-rule="evenodd" d="M18.5205 4H24V9.47945H18.5205V4ZM19.3973 4.87671V8.60274H23.1233V4.87671H19.3973Z" fill="#333333" style="fill:#333333;fill:color(display-p3 0.2000 0.2000 0.2000);fill-opacity:1;"/>
<path d="M22.5753 5.42466H19.9452V8.05479H22.5753V5.42466Z" fill="#333333" style="fill:#333333;fill:color(display-p3 0.2000 0.2000 0.2000);fill-opacity:1;"/>
<path fill-rule="evenodd" clip-rule="evenodd" d="M18.5205 14.5205H24V20H18.5205V14.5205ZM19.3973 15.3973V19.1233H23.1233V15.3973H19.3973Z" fill="#333333" style="fill:#333333;fill:color(display-p3 0.2000 0.2000 0.2000);fill-opacity:1;"/>
<path d="M22.5753 15.9452H19.9452V18.5753H22.5753V15.9452Z" fill="#333333" style="fill:#333333;fill:color(display-p3 0.2000 0.2000 0.2000);fill-opacity:1;"/>
<path fill-rule="evenodd" clip-rule="evenodd" d="M8 14.5205H13.4795V20H8V14.5205ZM8.87671 15.3973V19.1233H12.6027V15.3973H8.87671Z" fill="#333333" style="fill:#333333;fill:color(display-p3 0.2000 0.2000 0.2000);fill-opacity:1;"/>
<path d="M12.0548 15.9452H9.42466V18.5753H12.0548V15.9452Z" fill="#333333" style="fill:#333333;fill:color(display-p3 0.2000 0.2000 0.2000);fill-opacity:1;"/>
<path fill-rule="evenodd" clip-rule="evenodd" d="M15.2329 4H16.7671V20H15.2329V4Z" fill="#333333" style="fill:#333333;fill:color(display-p3 0.2000 0.2000 0.2000);fill-opacity:1;"/>
<path d="M23.8904 11.3425H8.10959V12.6575H23.8904V11.3425Z" fill="#333333" style="fill:#333333;fill:color(display-p3 0.2000 0.2000 0.2000);fill-opacity:1;"/>
<g clip-path="url(#clip0_2741_3807)">
<path d="M11.4286 8.11985V15.9024C11.4286 16.2815 11.7383 16.5714 12.0922 16.5714H16.7152C20.2102 16.5714 21.7143 14.609 21.7143 12C21.7143 9.39093 20.2102 7.42856 16.7152 7.42856H12.1143C11.7383 7.45086 11.4286 7.76305 11.4286 8.11985Z" fill="white" style="fill:white;fill-opacity:1;"/>
<path d="M14.5254 9.36863V15.1219H17.0028C19.259 15.1219 20.2323 13.8286 20.2323 12.0223C20.2323 10.2829 19.259 8.94493 17.0028 8.94493H14.9457C14.7245 8.92263 14.5254 9.12333 14.5254 9.36863Z" fill="#CC0066" style="fill:#CC0066;fill:color(display-p3 0.8000 0.0000 0.4000);fill-opacity:1;"/>
<path d="M16.7152 15.9693H12.7115C12.3576 15.9693 12.0701 15.6794 12.0701 15.3226V8.72195C12.0701 8.36515 12.3576 8.07526 12.7115 8.07526H16.7152C20.5198 8.07526 21.095 10.5505 21.095 12.0223C21.095 14.5645 19.5466 15.9693 16.7152 15.9693ZM12.7115 8.29825C12.4682 8.29825 12.2913 8.49895 12.2913 8.72195V15.3226C12.2913 15.5679 12.4903 15.7463 12.7115 15.7463H16.7152C19.3917 15.7463 20.8738 14.4084 20.8738 12C20.8738 8.76655 18.2636 8.27595 16.7152 8.27595L12.7115 8.29825Z" fill="black" style="fill:black;fill-opacity:1;"/>
<path d="M15.4102 11.2418C15.4986 11.2418 15.5871 11.2641 15.6535 11.2864C15.7198 11.3087 15.7862 11.3533 15.8526 11.4202C15.8968 11.4871 15.941 11.554 15.9853 11.6209C16.0074 11.7101 16.0295 11.7993 16.0295 11.9108C16.0295 12.0223 16.0074 12.1115 15.9853 12.1784C15.9632 12.2676 15.9189 12.3345 15.8747 12.4014C15.8304 12.4683 15.7641 12.5129 15.6756 12.5575C15.6092 12.6021 15.4986 12.6021 15.4102 12.6021H14.8129V11.2195L15.4102 11.2418ZM15.388 12.3568C15.4323 12.3568 15.4765 12.3568 15.5208 12.3345C15.565 12.3122 15.5871 12.2899 15.6314 12.2676C15.6535 12.223 15.6977 12.2007 15.6977 12.1338C15.7198 12.0892 15.7198 12.0223 15.7198 11.9331C15.7198 11.8662 15.7198 11.7993 15.6977 11.7547C15.6756 11.7101 15.6535 11.6432 15.6314 11.6209C15.6092 11.5763 15.565 11.554 15.5208 11.5317C15.4765 11.5094 15.4102 11.5094 15.3438 11.5094H15.1226V12.3791L15.388 12.3568Z" fill="white" style="fill:white;fill-opacity:1;"/>
<path d="M17.2462 11.2418V11.4871H16.5162V11.7993H17.1798V12.0223H16.5162V12.3568H17.2462V12.6021H16.2065V11.2195L17.2462 11.2418Z" fill="white" style="fill:white;fill-opacity:1;"/>
<path d="M18.2636 11.2418L18.7724 12.6244H18.4627L18.3521 12.3122H17.8434L17.7328 12.6244H17.4231L17.9319 11.2418C17.954 11.2418 18.2636 11.2418 18.2636 11.2418ZM18.2858 12.0892L18.1088 11.5763L17.9319 12.0892H18.2858Z" fill="white" style="fill:white;fill-opacity:1;"/>
<path d="M19.259 11.2418V12.3568H19.9226V12.6021H18.9493V11.2195C18.9714 11.2418 19.259 11.2418 19.259 11.2418Z" fill="white" style="fill:white;fill-opacity:1;"/>
<path d="M13.3972 12.5575C13.7393 12.5575 14.0166 12.2779 14.0166 11.9331C14.0166 11.5882 13.7393 11.3087 13.3972 11.3087C13.0552 11.3087 12.7779 11.5882 12.7779 11.9331C12.7779 12.2779 13.0552 12.5575 13.3972 12.5575Z" fill="black" style="fill:black;fill-opacity:1;"/>
<path d="M13.884 15.1219C13.3531 15.1219 12.9328 14.6982 12.9328 14.1631V13.4049C12.9328 13.1373 13.154 12.9143 13.4194 12.9143C13.6849 12.9143 13.9061 13.1373 13.9061 13.4049L13.884 15.1219Z" fill="black" style="fill:black;fill-opacity:1;"/>
</g>
<defs>
<clipPath id="clip0_2741_3807">
<rect width="10.2857" height="9.14286" fill="white" style="fill:white;fill-opacity:1;" transform="translate(11.4286 7.42856)"/>
</clipPath>
</defs>
</svg>
