<svg width="16" height="16" viewBox="0 0 16 16" fill="none" xmlns="http://www.w3.org/2000/svg">
<rect x="0.5" y="0.5" width="15" height="15" rx="3.5" fill="white" style="fill:white;fill-opacity:1;"/>
<rect x="0.5" y="0.5" width="15" height="15" rx="3.5" stroke="#EEEEEE" style="stroke:#EEEEEE;stroke:color(display-p3 0.9333 0.9333 0.9333);stroke-opacity:1;"/>
<path fill-rule="evenodd" clip-rule="evenodd" d="M2.42188 2.29749H6.32812V6.20374H2.42188V2.29749ZM3.04688 2.92249V5.57874H5.70312V2.92249H3.04688Z" fill="#333333" style="fill:#333333;fill:color(display-p3 0.2000 0.2000 0.2000);fill-opacity:1;"/>
<path d="M5.3125 3.31311H3.4375V5.18811H5.3125V3.31311Z" fill="#333333" style="fill:#333333;fill:color(display-p3 0.2000 0.2000 0.2000);fill-opacity:1;"/>
<path fill-rule="evenodd" clip-rule="evenodd" d="M9.92188 2.29749H13.8281V6.20374H9.92188V2.29749ZM10.5469 2.92249V5.57874H13.2031V2.92249H10.5469Z" fill="#333333" style="fill:#333333;fill:color(display-p3 0.2000 0.2000 0.2000);fill-opacity:1;"/>
<path d="M12.8125 3.31311H10.9375V5.18811H12.8125V3.31311Z" fill="#333333" style="fill:#333333;fill:color(display-p3 0.2000 0.2000 0.2000);fill-opacity:1;"/>
<path fill-rule="evenodd" clip-rule="evenodd" d="M9.92188 9.79749H13.8281V13.7037H9.92188V9.79749ZM10.5469 10.4225V13.0787H13.2031V10.4225H10.5469Z" fill="#333333" style="fill:#333333;fill:color(display-p3 0.2000 0.2000 0.2000);fill-opacity:1;"/>
<path d="M12.8125 10.8131H10.9375V12.6881H12.8125V10.8131Z" fill="#333333" style="fill:#333333;fill:color(display-p3 0.2000 0.2000 0.2000);fill-opacity:1;"/>
<path fill-rule="evenodd" clip-rule="evenodd" d="M2.42188 9.79749H6.32812V13.7037H2.42188V9.79749ZM3.04688 10.4225V13.0787H5.70312V10.4225H3.04688Z" fill="#333333" style="fill:#333333;fill:color(display-p3 0.2000 0.2000 0.2000);fill-opacity:1;"/>
<path d="M5.3125 10.8131H3.4375V12.6881H5.3125V10.8131Z" fill="#333333" style="fill:#333333;fill:color(display-p3 0.2000 0.2000 0.2000);fill-opacity:1;"/>
<path fill-rule="evenodd" clip-rule="evenodd" d="M7.57812 2.29749H8.67188V13.7037H7.57812V2.29749Z" fill="#333333" style="fill:#333333;fill:color(display-p3 0.2000 0.2000 0.2000);fill-opacity:1;"/>
<path d="M13.75 7.53186H2.5V8.46936H13.75V7.53186Z" fill="#333333" style="fill:#333333;fill:color(display-p3 0.2000 0.2000 0.2000);fill-opacity:1;"/>
<g clip-path="url(#clip0_2180_462)">
<path d="M4.875 5.38128V10.635C4.875 10.891 5.08575 11.0867 5.32661 11.0867H8.47285C10.8513 11.0867 11.875 9.76193 11.875 8.00063C11.875 6.23934 10.8513 4.91461 8.47285 4.91461H5.34167C5.08575 4.92967 4.875 5.14042 4.875 5.38128Z" fill="white" style="fill:white;fill-opacity:1;"/>
<path d="M6.98254 6.2243V10.1082H8.66857C10.204 10.1082 10.8664 9.23505 10.8664 8.0157C10.8664 6.8415 10.204 5.93828 8.66857 5.93828H7.26857C7.11803 5.92322 6.98254 6.05871 6.98254 6.2243Z" fill="#CC0066" style="fill:#CC0066;fill:color(display-p3 0.8000 0.0000 0.4000);fill-opacity:1;"/>
<path d="M8.47287 10.6802H5.74814C5.50728 10.6802 5.31158 10.4845 5.31158 10.2437V5.78776C5.31158 5.5469 5.50728 5.3512 5.74814 5.3512H8.47287C11.0621 5.3512 11.4535 7.02216 11.4535 8.01571C11.4535 9.73184 10.3998 10.6802 8.47287 10.6802ZM5.74814 5.50173C5.58255 5.50173 5.46212 5.63722 5.46212 5.78776V10.2437C5.46212 10.4093 5.59761 10.5297 5.74814 10.5297H8.47287C10.2944 10.5297 11.303 9.62647 11.303 8.00066C11.303 5.81786 9.52664 5.48668 8.47287 5.48668L5.74814 5.50173Z" fill="black" style="fill:black;fill-opacity:1;"/>
<path d="M7.58467 7.48881C7.64489 7.48881 7.7051 7.50386 7.75027 7.51892C7.79543 7.53397 7.84059 7.56408 7.88575 7.60924C7.91586 7.6544 7.94596 7.69956 7.97607 7.74472C7.99113 7.80494 8.00618 7.86515 8.00618 7.94042C8.00618 8.01569 7.99113 8.07591 7.97607 8.12107C7.96102 8.18128 7.93091 8.22644 7.9008 8.2716C7.8707 8.31677 7.82553 8.34687 7.76532 8.37698C7.72016 8.40709 7.64489 8.40709 7.58467 8.40709H7.17822V7.47375L7.58467 7.48881ZM7.56962 8.2415C7.59973 8.2415 7.62984 8.2415 7.65994 8.22644C7.69005 8.21139 7.7051 8.19634 7.73521 8.18128C7.75027 8.15117 7.78037 8.13612 7.78037 8.09096C7.79543 8.06085 7.79543 8.01569 7.79543 7.95547C7.79543 7.91031 7.79543 7.86515 7.78037 7.83504C7.76532 7.80494 7.75027 7.75978 7.73521 7.74472C7.72016 7.71461 7.69005 7.69956 7.65994 7.68451C7.62984 7.66945 7.58467 7.66945 7.53951 7.66945H7.38898V8.25655L7.56962 8.2415Z" fill="white" style="fill:white;fill-opacity:1;"/>
<path d="M8.83418 7.48881V7.6544H8.3374V7.86515H8.78901V8.01569H8.3374V8.2415H8.83418V8.40709H8.12665V7.47375L8.83418 7.48881Z" fill="white" style="fill:white;fill-opacity:1;"/>
<path d="M9.52663 7.48883L9.87287 8.42216H9.66212L9.58685 8.21141H9.24061L9.16534 8.42216H8.95459L9.30083 7.48883C9.31588 7.48883 9.52663 7.48883 9.52663 7.48883ZM9.54169 8.06087L9.42126 7.71464L9.30083 8.06087H9.54169Z" fill="white" style="fill:white;fill-opacity:1;"/>
<path d="M10.204 7.48881V8.2415H10.6556V8.40709H9.99323V7.47375C10.0083 7.48881 10.204 7.48881 10.204 7.48881Z" fill="white" style="fill:white;fill-opacity:1;"/>
<path d="M6.21478 8.37695C6.44757 8.37695 6.63629 8.18823 6.63629 7.95544C6.63629 7.72265 6.44757 7.53394 6.21478 7.53394C5.98199 7.53394 5.79327 7.72265 5.79327 7.95544C5.79327 8.18823 5.98199 8.37695 6.21478 8.37695Z" fill="black" style="fill:black;fill-opacity:1;"/>
<path d="M6.54599 10.1082C6.1847 10.1082 5.89868 9.82216 5.89868 9.46087V8.94904C5.89868 8.7684 6.04922 8.61786 6.22986 8.61786C6.41051 8.61786 6.56105 8.7684 6.56105 8.94904L6.54599 10.1082Z" fill="black" style="fill:black;fill-opacity:1;"/>
</g>
<defs>
<clipPath id="clip0_2180_462">
<rect width="7" height="6.17204" fill="white" style="fill:white;fill-opacity:1;" transform="translate(4.875 4.91461)"/>
</clipPath>
</defs>
</svg>
