<svg width="16" height="16" viewBox="0 0 16 16" fill="none" xmlns="http://www.w3.org/2000/svg">
<rect width="16" height="16" rx="4" fill="#E664A5" style="fill:#E664A5;fill:color(display-p3 0.9020 0.3922 0.6471);fill-opacity:1;"/>
<g clip-path="url(#clip0_4456_348)">
<path d="M12.4387 5.97028H7.39328C7.84139 6.49562 8.05091 7.19943 8.05091 7.99374C8.05091 8.78804 7.84018 9.50316 7.38965 10.031H12.4375C13.8751 10.031 14.4988 9.1877 14.4988 7.99625C14.4988 6.8048 13.8751 5.97028 12.4375 5.97028H12.4387Z" fill="black" style="fill:black;fill-opacity:1;"/>
<path d="M1.5 5.44491V10.5551C1.5 10.8002 1.69257 11 1.92873 11H4.87172C7.09652 11 8.06055 9.708 8.06055 7.99372C8.06055 6.27943 7.0953 5 4.8705 5H1.92873C1.69257 5 1.5 5.19983 1.5 5.44491Z" fill="white" style="fill:white;fill-opacity:1;"/>
<path d="M3.46924 6.25431V10.031H5.05336C6.49095 10.031 7.11466 9.1877 7.11466 7.99625C7.11466 6.8048 6.49095 5.97028 5.05336 5.97028H3.74416C3.59156 5.97028 3.46924 6.09973 3.46924 6.25431Z" fill="#CC0066" style="fill:#CC0066;fill:color(display-p3 0.8000 0.0000 0.4000);fill-opacity:1;"/>
<path d="M4.87051 10.5928H2.31265C2.08497 10.5928 1.90088 10.4017 1.90088 10.1655V5.83576C1.90088 5.59948 2.08497 5.40845 2.31265 5.40845H4.87172C7.29999 5.40845 7.66211 7.02973 7.66211 7.99496C7.66211 9.66902 6.67021 10.5928 4.87172 10.5928H4.87051ZM2.31265 5.55172C2.16006 5.55172 2.03894 5.67866 2.03894 5.83576V10.1655C2.03894 10.3238 2.16127 10.4508 2.31265 10.4508H4.87172C6.5818 10.4508 7.52525 9.57854 7.52525 7.99496C7.52525 5.86844 5.8624 5.55047 4.87172 5.55047H2.31265V5.55172Z" fill="black" style="fill:black;fill-opacity:1;"/>
<path d="M4.02636 7.48597C4.08207 7.48597 4.13294 7.49477 4.18259 7.51237C4.23225 7.52996 4.27221 7.55887 4.30855 7.59406C4.34246 7.63176 4.37031 7.67826 4.39211 7.73231C4.41149 7.78761 4.42239 7.85296 4.42239 7.92837C4.42239 7.99498 4.41391 8.05531 4.39938 8.11061C4.38242 8.16591 4.3582 8.21492 4.32671 8.25514C4.29523 8.29536 4.25405 8.32678 4.20439 8.35066C4.15474 8.37328 4.09782 8.38585 4.0312 8.38585H3.65576V7.48346H4.02636V7.48597ZM4.01304 8.22246C4.04089 8.22246 4.06633 8.21744 4.09418 8.20864C4.11962 8.19984 4.14384 8.18476 4.16321 8.16214C4.18259 8.13951 4.19955 8.11312 4.21287 8.07793C4.22619 8.04274 4.23225 8.00252 4.23225 7.95099C4.23225 7.907 4.2274 7.86427 4.21893 7.82908C4.21045 7.79389 4.19591 7.75996 4.17654 7.73608C4.15716 7.7122 4.13173 7.68958 4.09903 7.67575C4.06633 7.66193 4.02878 7.65564 3.98155 7.65564H3.84469V8.22498H4.01425V8.22246H4.01304Z" fill="white" style="fill:white;fill-opacity:1;"/>
<path d="M5.19627 7.486V7.65315H4.73726V7.8467H5.15994V8.00003H4.73726V8.21997H5.20717V8.38713H4.54712V7.48474H5.19627V7.48725V7.486Z" fill="white" style="fill:white;fill-opacity:1;"/>
<path d="M5.85275 7.48596L6.17854 8.38835H5.9787L5.91209 8.18852H5.58631L5.51727 8.38835H5.32471L5.65292 7.48596H5.85275ZM5.86365 8.04021L5.75465 7.70842H5.75223L5.63838 8.04021H5.86365Z" fill="white" style="fill:white;fill-opacity:1;"/>
<path d="M6.48847 7.48596V8.22245H6.91236V8.38961H6.29712V7.48722H6.48726L6.48847 7.48596Z" fill="white" style="fill:white;fill-opacity:1;"/>
<path d="M2.75341 8.35441C2.97481 8.35441 3.15429 8.16816 3.15429 7.9384C3.15429 7.70865 2.97481 7.5224 2.75341 7.5224C2.53202 7.5224 2.35254 7.70865 2.35254 7.9384C2.35254 8.16816 2.53202 8.35441 2.75341 8.35441Z" fill="black" style="fill:black;fill-opacity:1;"/>
<path d="M3.05623 10.031C2.71954 10.031 2.44946 9.74823 2.44946 9.40135V8.90994C2.44946 8.7365 2.5839 8.59448 2.75345 8.59448C2.92058 8.59448 3.05744 8.73399 3.05744 8.90994V10.031H3.05502H3.05623Z" fill="black" style="fill:black;fill-opacity:1;"/>
<path d="M9.16624 6.97319C9.06936 6.97319 8.99427 6.94931 8.93856 6.90155C8.88406 6.85379 8.8562 6.78467 8.8562 6.69543C8.8562 6.615 8.88406 6.54964 8.93977 6.49811C8.99548 6.44658 9.07057 6.42145 9.16503 6.42145C9.2595 6.42145 9.33701 6.44533 9.3903 6.49309C9.44359 6.54084 9.47144 6.60871 9.47144 6.69543C9.47144 6.78215 9.44359 6.84499 9.38909 6.89652C9.33459 6.94805 9.2595 6.97319 9.16503 6.97319H9.16624ZM8.90828 9.0997V7.32384H9.42421V9.0997H8.90828Z" fill="white" style="fill:white;fill-opacity:1;"/>
<path d="M9.90624 9.09845V7.32258H10.3955L10.4113 7.68328L10.3083 7.7235C10.3325 7.64307 10.3749 7.57017 10.4355 7.50482C10.496 7.43946 10.5699 7.38668 10.6559 7.34646C10.7419 7.30624 10.8315 7.28613 10.926 7.28613C11.0544 7.28613 11.1634 7.31378 11.2518 7.36783C11.3402 7.42187 11.4068 7.50356 11.4516 7.61165C11.4964 7.71973 11.5194 7.8517 11.5194 8.00754V9.09719H11.0011V8.05027C11.0011 7.97863 10.9914 7.91956 10.972 7.87306C10.9526 7.82656 10.9236 7.79137 10.8836 7.76749C10.8436 7.74361 10.7952 7.73356 10.7371 7.73607C10.6922 7.73607 10.6499 7.74361 10.6111 7.75744C10.5723 7.77252 10.5396 7.79263 10.5118 7.82153C10.4839 7.84918 10.4621 7.8806 10.4452 7.91705C10.4282 7.9535 10.421 7.9912 10.421 8.03393V9.09719H9.90503L9.90624 9.09845Z" fill="white" style="fill:white;fill-opacity:1;"/>
<path d="M13.37 8.03013C13.3312 7.93964 13.2779 7.86172 13.2089 7.79385C13.1399 7.72724 13.0612 7.67446 12.974 7.63675C12.9146 7.61162 12.8504 7.59779 12.785 7.58899L13.3639 6.94425L13.2646 6.73688H11.8791V7.21446L12.6021 7.22955L12.1238 7.76872L12.2424 8.09926C12.2848 8.07663 12.3272 8.05904 12.3684 8.04521C12.4096 8.03139 12.4483 8.02133 12.4847 8.01379C12.521 8.00625 12.5561 8.00248 12.5876 8.00248C12.6591 8.00248 12.7196 8.01505 12.7693 8.03893C12.8189 8.06281 12.8589 8.09926 12.8855 8.14702C12.9122 8.19477 12.9255 8.25384 12.9255 8.32297C12.9255 8.38707 12.9098 8.44614 12.8783 8.49641C12.8468 8.54794 12.8068 8.5869 12.756 8.61455C12.7051 8.6422 12.6506 8.65602 12.59 8.65602C12.5295 8.65602 12.4726 8.64597 12.4181 8.6246C12.3636 8.60324 12.3103 8.5693 12.2606 8.5228C12.2097 8.4763 12.1613 8.41346 12.1141 8.33554L11.7205 8.59947C11.8319 8.79301 11.9566 8.93001 12.0923 9.00919C12.2291 9.08836 12.3878 9.12733 12.5707 9.12733C12.7293 9.12733 12.8734 9.09213 13.0042 9.0205C13.1338 8.94886 13.2368 8.85334 13.3131 8.73143C13.3894 8.60952 13.4269 8.47127 13.4269 8.31543C13.4269 8.21237 13.4075 8.11685 13.3688 8.02636L13.37 8.03013Z" fill="white" style="fill:white;fill-opacity:1;"/>
</g>
<defs>
<clipPath id="clip0_4456_348">
<rect width="13" height="6" fill="white" style="fill:white;fill-opacity:1;" transform="translate(1.5 5)"/>
</clipPath>
</defs>
</svg>
