<svg width="40" height="40" viewBox="0 0 40 40" fill="none" xmlns="http://www.w3.org/2000/svg">
<rect width="40" height="40" rx="10" fill="#FFF48D" style="fill:#FFF48D;fill:color(display-p3 1.0000 0.9569 0.5529);fill-opacity:1;"/>
<path d="M10.2033 6.88913V21.9302C10.2033 22.6503 10.7955 23.2392 11.5189 23.2392H20.549C27.376 23.2392 30.3346 19.4359 30.3346 14.3898C30.3346 9.34378 27.3749 5.5802 20.5479 5.5802H11.5178C10.7944 5.5802 10.2022 6.16905 10.2022 6.88913H10.2033Z" fill="white" style="fill:white;fill-opacity:1;"/>
<path d="M16.2473 9.27208V20.3864H21.107C25.5201 20.3864 27.4333 17.9053 27.4333 14.3975C27.4333 10.8898 25.519 8.43512 21.107 8.43512H17.0887C16.6222 8.43512 16.2473 8.81446 16.2473 9.27319V9.27208Z" fill="#CC0066" style="fill:#CC0066;fill:color(display-p3 0.8000 0.0000 0.4000);fill-opacity:1;"/>
<path fill-rule="evenodd" clip-rule="evenodd" d="M12.6955 22.0416H20.548C26.066 22.0416 29.1106 19.3256 29.1106 14.3964C29.1106 11.5558 27.9991 6.78436 20.548 6.78436H12.6955C11.9986 6.78436 11.4329 7.34675 11.4329 8.04146V20.7856C11.4329 21.4792 11.9986 22.0427 12.6955 22.0427V22.0416ZM11.8531 8.04146C11.8531 7.57722 12.228 7.2034 12.6944 7.2034H20.5469C23.5849 7.2034 28.6883 8.13961 28.6883 14.3964C28.6883 19.0565 25.7947 21.6226 20.5469 21.6226H12.6944C12.228 21.6226 11.8531 21.2498 11.8531 20.7845V8.04146Z" fill="#232323" style="fill:#232323;fill:color(display-p3 0.1373 0.1373 0.1373);fill-opacity:1;"/>
<path fill-rule="evenodd" clip-rule="evenodd" d="M18.6391 12.781C18.4913 12.728 18.337 12.7016 18.1693 12.7016V12.6949H17.0567V15.379H18.1826C18.3822 15.379 18.5553 15.3393 18.7031 15.2731C18.8508 15.2003 18.9732 15.1077 19.0703 14.9886C19.1673 14.8695 19.2379 14.724 19.2886 14.5585C19.3338 14.3931 19.3592 14.2145 19.3592 14.016C19.3592 13.7911 19.3272 13.5992 19.2688 13.4338C19.2048 13.275 19.121 13.136 19.0184 13.0236C18.9093 12.9177 18.7869 12.8317 18.6391 12.7788V12.781ZM18.3745 14.8508C18.2906 14.8772 18.2135 14.8905 18.1296 14.8905V14.8971H17.6213V13.2044H18.0326C18.1738 13.2044 18.2895 13.2243 18.3866 13.264C18.4836 13.3036 18.5597 13.3698 18.6182 13.4426C18.6766 13.5154 18.7207 13.6146 18.7472 13.7205C18.7725 13.8263 18.7858 13.952 18.7858 14.0844C18.7858 14.2365 18.7659 14.3556 18.7284 14.4615C18.6898 14.5674 18.638 14.6468 18.5807 14.7129C18.5222 14.7791 18.4516 14.8254 18.3745 14.8519V14.8508Z" fill="white" style="fill:white;fill-opacity:1;"/>
<path d="M21.6815 12.7027V13.1989H20.3042V13.7745H21.5712V14.231H20.3042V14.886H21.7135V15.3823H19.7319V12.6982H21.6815V12.7049V12.7027Z" fill="white" style="fill:white;fill-opacity:1;"/>
<path fill-rule="evenodd" clip-rule="evenodd" d="M24.628 15.3867L23.6499 12.7026H23.0511L22.0663 15.3867H22.6453L22.8515 14.7912H23.8296L24.0292 15.3867H24.628ZM23.3543 13.3632L23.6829 14.3479H23.007L23.3477 13.3632H23.3543Z" fill="white" style="fill:white;fill-opacity:1;"/>
<path d="M25.5609 12.7015V14.8904H26.8345V15.3867H24.9886V12.7026H25.5609V12.7015Z" fill="white" style="fill:white;fill-opacity:1;"/>
<path d="M13.989 15.4264C14.6859 15.4264 15.2505 14.8618 15.2505 14.1637C15.2505 13.4657 14.6859 12.9011 13.989 12.9011C13.2921 12.9011 12.7275 13.4657 12.7275 14.1637C12.7275 14.8618 13.2921 15.4264 13.989 15.4264Z" fill="#232323" style="fill:#232323;fill:color(display-p3 0.1373 0.1373 0.1373);fill-opacity:1;"/>
<path d="M14.7399 20.4757C13.7629 20.4757 12.9799 19.6321 12.9799 18.5955V17.1278C12.9799 16.6095 13.3714 16.1839 13.8632 16.1839C14.355 16.1839 14.7465 16.6029 14.7465 17.1278V20.4757H14.7399Z" fill="#232323" style="fill:#232323;fill:color(display-p3 0.1373 0.1373 0.1373);fill-opacity:1;"/>
<path d="M32.422 26.3113H8.16213C8.04083 26.3113 7.94159 26.212 7.94159 26.0907C7.94159 25.9694 8.04083 25.8702 8.16213 25.8702H32.422C32.5433 25.8702 32.6425 25.9694 32.6425 26.0907C32.6425 26.212 32.5433 26.3113 32.422 26.3113Z" fill="#1D1C1C" style="fill:#1D1C1C;fill:color(display-p3 0.1137 0.1098 0.1098);fill-opacity:1;"/>
<path d="M26.6415 31.7985C26.6415 30.323 27.6913 28.9788 29.5041 28.9788C31.317 28.9788 32.3745 30.3241 32.3745 31.7985C32.3745 33.2728 31.3247 34.6181 29.5041 34.6181C27.6913 34.6181 26.6415 33.2728 26.6415 31.7985ZM30.7811 31.7985C30.7811 31.0872 30.3124 30.4311 29.5041 30.4311C28.6958 30.4311 28.2272 31.0883 28.2272 31.7985C28.2272 32.5086 28.7036 33.167 29.5041 33.167C30.3047 33.167 30.7811 32.5097 30.7811 31.7985Z" fill="#1D1C1C" style="fill:#1D1C1C;fill:color(display-p3 0.1137 0.1098 0.1098);fill-opacity:1;"/>
<path d="M25.5267 32.846C26.131 32.502 26.4938 31.8447 26.4938 31.1192C26.4938 30.0418 25.7153 29.1243 24.5067 29.1243H21.9694V34.4736H23.5407V33.1063H23.8352L24.7339 34.4736H26.5842L25.5267 32.846ZM24.1902 31.8756H23.5407V30.3627H24.198C24.6214 30.3627 24.8927 30.7067 24.8927 31.1192C24.8927 31.5316 24.6126 31.8756 24.1902 31.8756Z" fill="#1D1C1C" style="fill:#1D1C1C;fill:color(display-p3 0.1137 0.1098 0.1098);fill-opacity:1;"/>
<path d="M14.7972 29.1188L13.8544 32.3067L12.9347 29.1188H11.6832L10.7558 32.3067L9.82066 29.1188H8.16217L10.0622 34.4581H11.4273L12.3095 31.5514L13.184 34.4581H14.5557L16.4557 29.1188H14.7972Z" fill="#1D1C1C" style="fill:#1D1C1C;fill:color(display-p3 0.1137 0.1098 0.1098);fill-opacity:1;"/>
<path d="M18.8332 33.1536H18.8288C18.241 33.1536 17.8286 32.7985 17.6522 32.3288H21.6451C21.6771 32.1523 21.6936 31.9715 21.6936 31.7884C21.6936 30.3174 20.6472 28.9754 18.8321 28.9743V30.4233C19.4231 30.4244 19.8311 30.7795 20.0065 31.2481H16.019C15.9871 31.4245 15.9705 31.6054 15.9705 31.7884C15.9705 33.2606 17.0181 34.6037 18.8277 34.6037H18.8321V33.1536H18.8332Z" fill="#1D1C1C" style="fill:#1D1C1C;fill:color(display-p3 0.1137 0.1098 0.1098);fill-opacity:1;"/>
<path d="M18.8287 34.6027C18.8905 34.6027 18.95 34.6005 19.0107 34.5982C19.3779 34.5795 19.712 34.5045 20.0097 34.3843C20.3075 34.263 20.5688 34.0976 20.7905 33.8969C21.0121 33.6962 21.1963 33.4613 21.3385 33.2022C21.4675 32.9673 21.5624 32.7115 21.6219 32.4457H19.9579C19.9237 32.5163 19.884 32.5847 19.8388 32.6475C19.7771 32.7347 19.7043 32.8129 19.6216 32.8802C19.5389 32.9486 19.4463 33.0059 19.3448 33.05C19.2422 33.0941 19.132 33.125 19.0118 33.1416C18.9533 33.1493 18.8927 33.1537 18.8298 33.1537C18.4549 33.1537 18.1528 33.0092 17.9366 32.7832L16.8549 33.8771C17.3356 34.3215 18.0028 34.6016 18.8298 34.6016L18.8287 34.6027Z" fill="url(#paint0_linear_2180_987)" style=""/>
<path d="M18.8287 28.9732C17.2938 28.9732 16.3068 29.9392 16.0433 31.1301H17.7018C17.9003 30.7199 18.2906 30.4222 18.8287 30.4222C19.2577 30.4222 19.5907 30.6074 19.808 30.8875L20.8997 29.7837C20.4122 29.2897 19.7109 28.9732 18.8298 28.9732H18.8287Z" fill="url(#paint1_linear_2180_987)" style=""/>
<defs>
<linearGradient id="paint0_linear_2180_987" x1="20.8103" y1="31.4764" x2="18.3281" y2="34.5166" gradientUnits="userSpaceOnUse">
<stop offset="0.02" stop-color="#1D1C1C" stop-opacity="0" style="stop-color:none;stop-opacity:0;"/>
<stop offset="0.68" stop-color="#1D1C1C" style="stop-color:#1D1C1C;stop-color:color(display-p3 0.1137 0.1098 0.1098);stop-opacity:1;"/>
</linearGradient>
<linearGradient id="paint1_linear_2180_987" x1="16.48" y1="32.1215" x2="19.025" y2="29.6062" gradientUnits="userSpaceOnUse">
<stop offset="0.02" stop-color="#1D1C1C" stop-opacity="0" style="stop-color:none;stop-opacity:0;"/>
<stop offset="0.68" stop-color="#1D1C1C" style="stop-color:#1D1C1C;stop-color:color(display-p3 0.1137 0.1098 0.1098);stop-opacity:1;"/>
</linearGradient>
</defs>
</svg>
