<svg width="40" height="40" viewBox="0 0 40 40" fill="none" xmlns="http://www.w3.org/2000/svg">
<rect width="40" height="40" rx="10" fill="#001C5D" style="fill:#001C5D;fill:color(display-p3 0.0000 0.1098 0.3647);fill-opacity:1;"/>
<g clip-path="url(#clip0_2180_1100)">
<path d="M8.5 16.4545C7.66818 16.4545 7 17.1363 7 17.9545V25.9045C7 26.7363 7.66818 27.4045 8.5 27.4045C9.33182 27.4045 10 26.7363 10 25.9045V17.9545C10 17.1363 9.33182 16.4545 8.5 16.4545Z" fill="#33EBC7" style="fill:#33EBC7;fill:color(display-p3 0.2000 0.9216 0.7804);fill-opacity:1;"/>
<path d="M8.5 15.5136C9.33182 15.5136 10 14.8454 10 14.0136C10 13.1818 9.33182 12.5136 8.5 12.5136C7.66818 12.5136 7 13.1818 7 14.0136C7 14.8454 7.66818 15.5136 8.5 15.5136Z" fill="#33EBC7" style="fill:#33EBC7;fill:color(display-p3 0.2000 0.9216 0.7804);fill-opacity:1;"/>
<path d="M17.3909 16.4409C15.9455 16.4409 15.0182 16.9864 14.4455 17.5182C14.2682 17.3546 14.0637 17.2046 13.8591 17.0818C13.75 17 13.6273 16.9318 13.4909 16.8773C13.3273 16.8091 13.15 16.7818 12.9591 16.7818C12.1273 16.7818 11.4591 17.45 11.4591 18.2818C11.4591 18.8546 11.7727 19.3455 12.2364 19.6046C12.25 19.6046 12.25 19.6182 12.2637 19.6182C12.3591 19.6727 12.4409 19.7409 12.4955 19.7955C12.8773 20.1909 13.0137 20.8864 13.0409 21.3091C13.0409 21.4182 13.0409 21.5273 13.0546 21.6091V25.8909C13.0546 26.7227 13.7227 27.4046 14.5546 27.4046C15.3864 27.4046 16.0546 26.7364 16.0546 25.9046V21.5682V20.9136V20.9C16.0546 20.0955 16.7091 19.4409 17.5137 19.4409C18.3182 19.4409 18.9727 20.0955 18.9727 20.9V20.9136V21.5409C18.9727 21.5546 18.9727 21.5682 18.9727 21.5955V25.9046C18.9727 26.7364 19.6409 27.4046 20.4727 27.4046C21.3046 27.4046 21.9727 26.7364 21.9727 25.9046V21.6773C21.9727 21.65 21.9727 21.6091 21.9727 21.5546C21.9727 20.9682 21.8637 19.0591 20.5818 17.7227C19.8046 16.8909 18.6864 16.4409 17.3909 16.4409Z" fill="#33EBC7" style="fill:#33EBC7;fill:color(display-p3 0.2000 0.9216 0.7804);fill-opacity:1;"/>
<path d="M33.25 19.7818C33.2909 19.7273 33.3454 19.6727 33.3864 19.6182C33.4136 19.5909 33.4273 19.55 33.4545 19.5227C33.5091 19.4409 33.5636 19.3727 33.6182 19.2909C33.6182 19.2773 33.6318 19.2773 33.6318 19.2636C33.7136 19.1545 33.7818 19.0318 33.8364 18.8955V18.8818C34.1227 18.2818 34.2727 17.5864 34.2727 16.8364C34.2727 15.3909 33.7273 14.4636 33.1954 13.8909C32.5136 13.2091 31.6818 12.5 29.2682 12.5H24.8227C23.9909 12.5 23.3091 13.1682 23.3091 14C23.3091 14.8318 23.9773 15.5 24.8091 15.5H29.1454H29.8H29.8136C30.6182 15.5 31.2727 16.1545 31.2727 16.9591C31.2727 17.7091 30.7136 18.3227 30.0045 18.4045C29.8273 18.4182 29.65 18.4182 29.4454 18.4182H29.1864C29.1727 18.4182 29.1591 18.4182 29.1318 18.4182H24.8227C23.9909 18.4182 23.3227 19.0864 23.3227 19.9182C23.3227 20.75 23.9909 21.4182 24.8227 21.4182H29.1591H29.8136H29.8273C30.6318 21.4182 31.2864 22.0727 31.2864 22.8773C31.2864 23.6818 30.6318 24.3364 29.8273 24.3364H29.8136H29.1864C29.1727 24.3364 29.1591 24.3364 29.1318 24.3364H24.8227C23.9909 24.3364 23.3227 25.0045 23.3227 25.8364C23.3227 26.6682 23.9909 27.3364 24.8227 27.3364H29.05C29.0773 27.3364 29.1182 27.3364 29.1727 27.3364C29.7591 27.3364 31.6682 27.2273 33.0045 25.9455C33.85 25.1409 34.3 24.0227 34.3 22.7273C34.3 21.2818 33.7545 20.3545 33.2227 19.7818C33.2091 19.8227 33.2364 19.8091 33.25 19.7818Z" fill="#33EBC7" style="fill:#33EBC7;fill:color(display-p3 0.2000 0.9216 0.7804);fill-opacity:1;"/>
</g>
<defs>
<clipPath id="clip0_2180_1100">
<rect width="27.2727" height="15" fill="white" style="fill:white;fill-opacity:1;" transform="translate(7 12.5)"/>
</clipPath>
</defs>
</svg>
