<svg width="40" height="30" viewBox="0 0 40 30" fill="none" xmlns="http://www.w3.org/2000/svg">
<rect width="40" height="30" rx="5" fill="#001C5D" style="fill:#001C5D;fill:color(display-p3 0.0000 0.1098 0.3647);fill-opacity:1;"/>
<path d="M7.76099 11.4799C6.92308 11.4799 6.25 12.1661 6.25 12.9894V20.9904C6.25 21.8276 6.92308 22.5 7.76099 22.5C8.5989 22.5 9.27198 21.8276 9.27198 20.9904V12.9894C9.27198 12.1661 8.5989 11.4799 7.76099 11.4799Z" fill="#33EBC7" style="fill:#33EBC7;fill:color(display-p3 0.2000 0.9216 0.7804);fill-opacity:1;"/>
<path d="M7.76099 10.5329C8.5989 10.5329 9.27198 9.86048 9.27198 9.02334C9.27198 8.18619 8.5989 7.51372 7.76099 7.51372C6.92308 7.51372 6.25 8.18619 6.25 9.02334C6.25 9.86048 6.92308 10.5329 7.76099 10.5329Z" fill="#33EBC7" style="fill:#33EBC7;fill:color(display-p3 0.2000 0.9216 0.7804);fill-opacity:1;"/>
<path d="M16.717 11.4662C15.261 11.4662 14.3269 12.0151 13.75 12.5503C13.5714 12.3856 13.3654 12.2347 13.1594 12.1112C13.0495 12.0288 12.9258 11.9602 12.7884 11.9053C12.6236 11.8367 12.445 11.8092 12.2527 11.8092C11.4148 11.8092 10.7417 12.4817 10.7417 13.3189C10.7417 13.8952 11.0577 14.3894 11.5247 14.65C11.5384 14.65 11.5384 14.6637 11.5522 14.6637C11.6483 14.7187 11.7308 14.7873 11.7857 14.8422C12.1703 15.2402 12.3077 15.9401 12.3352 16.3656C12.3352 16.4753 12.3352 16.5851 12.3489 16.6675V20.9767C12.3489 21.8139 13.022 22.5 13.8598 22.5C14.6978 22.5 15.3708 21.8276 15.3708 20.9904V15.9538C15.3708 15.1442 16.0303 14.4853 16.8406 14.4853C17.651 14.4853 18.3105 15.1442 18.3105 15.9538V16.5988C18.3105 16.6125 18.3105 16.6262 18.3105 16.6538V20.9904C18.3105 21.8276 18.9835 22.5 19.8215 22.5C20.6593 22.5 21.3324 21.8276 21.3324 20.9904V16.7361C21.3324 16.7086 21.3324 16.6675 21.3324 16.6125C21.3324 16.0224 21.2225 14.1012 19.9313 12.7562C19.1483 11.919 18.022 11.4662 16.717 11.4662Z" fill="#33EBC7" style="fill:#33EBC7;fill:color(display-p3 0.2000 0.9216 0.7804);fill-opacity:1;"/>
<path d="M32.6923 14.8285C32.7335 14.7736 32.7884 14.7187 32.8297 14.6637C32.8571 14.6363 32.8709 14.5952 32.8983 14.5677C32.9532 14.4853 33.0082 14.4168 33.0631 14.3344C33.0631 14.3207 33.0769 14.3207 33.0769 14.307C33.1593 14.1971 33.228 14.0737 33.283 13.9365V13.9228C33.5715 13.3189 33.7225 12.619 33.7225 11.8641C33.7225 10.4094 33.1731 9.47622 32.6373 8.89982C31.9505 8.21363 31.1126 7.5 28.6813 7.5H24.2033C23.3654 7.5 22.6785 8.17247 22.6785 9.00961C22.6785 9.84675 23.3516 10.5192 24.1895 10.5192H29.2308C30.0412 10.5192 30.7006 11.178 30.7006 11.9877C30.7006 12.7425 30.1374 13.3601 29.423 13.4423C29.2445 13.456 29.0659 13.456 28.8598 13.456H28.5989C28.5852 13.456 28.5713 13.456 28.5439 13.456H24.2033C23.3654 13.456 22.6923 14.1286 22.6923 14.9657C22.6923 15.8029 23.3654 16.4753 24.2033 16.4753H29.2445C30.0549 16.4753 30.7143 17.1341 30.7143 17.9437C30.7143 18.7535 30.0549 19.4122 29.2445 19.4122H28.5989C28.5852 19.4122 28.5713 19.4122 28.5439 19.4122H24.2033C23.3654 19.4122 22.6923 20.0846 22.6923 20.9218C22.6923 21.7589 23.3654 22.4314 24.2033 22.4314H28.4615C28.489 22.4314 28.5302 22.4314 28.5852 22.4314C29.1757 22.4314 31.0988 22.3216 32.445 21.0317C33.2967 20.2219 33.75 19.0966 33.75 17.7928C33.75 16.3381 33.2005 15.4048 32.6649 14.8285C32.651 14.8697 32.6786 14.856 32.6923 14.8285Z" fill="#33EBC7" style="fill:#33EBC7;fill:color(display-p3 0.2000 0.9216 0.7804);fill-opacity:1;"/>
</svg>
