<svg width="48" height="36" viewBox="0 0 48 36" fill="none" xmlns="http://www.w3.org/2000/svg">
<rect width="48" height="36" rx="6" fill="#001C5D" style="fill:#001C5D;fill:color(display-p3 0.0000 0.1098 0.3647);fill-opacity:1;"/>
<path d="M9.31319 13.7759C8.3077 13.7759 7.5 14.5993 7.5 15.5873V25.1885C7.5 26.1931 8.3077 27 9.31319 27C10.3187 27 11.1264 26.1931 11.1264 25.1885V15.5873C11.1264 14.5993 10.3187 13.7759 9.31319 13.7759Z" fill="#33EBC7" style="fill:#33EBC7;fill:color(display-p3 0.2000 0.9216 0.7804);fill-opacity:1;"/>
<path d="M9.31319 12.6395C10.3187 12.6395 11.1264 11.8326 11.1264 10.828C11.1264 9.82343 10.3187 9.01647 9.31319 9.01647C8.3077 9.01647 7.5 9.82343 7.5 10.828C7.5 11.8326 8.3077 12.6395 9.31319 12.6395Z" fill="#33EBC7" style="fill:#33EBC7;fill:color(display-p3 0.2000 0.9216 0.7804);fill-opacity:1;"/>
<path d="M20.0604 13.7594C18.3132 13.7594 17.1922 14.4181 16.5001 15.0603C16.2856 14.8628 16.0384 14.6816 15.7912 14.5334C15.6593 14.4346 15.511 14.3523 15.3461 14.2864C15.1483 14.204 14.9341 14.1711 14.7033 14.1711C13.6978 14.1711 12.8901 14.9781 12.8901 15.9827C12.8901 16.6743 13.2692 17.2672 13.8297 17.58C13.8461 17.58 13.8461 17.5965 13.8626 17.5965C13.978 17.6625 14.0769 17.7447 14.1428 17.8107C14.6044 18.2882 14.7692 19.1281 14.8022 19.6387C14.8022 19.7703 14.8022 19.9021 14.8187 20.001V25.172C14.8187 26.1767 15.6264 27 16.6318 27C17.6374 27 18.445 26.1931 18.445 25.1885V19.1446C18.445 18.173 19.2363 17.3824 20.2088 17.3824C21.1812 17.3824 21.9726 18.173 21.9726 19.1446V19.9186C21.9726 19.935 21.9726 19.9515 21.9726 19.9845V25.1885C21.9726 26.1931 22.7802 27 23.7857 27C24.7912 27 25.5989 26.1931 25.5989 25.1885V20.0833C25.5989 20.0504 25.5989 20.001 25.5989 19.935C25.5989 19.2269 25.467 16.9214 23.9175 15.3075C22.978 14.3029 21.6264 13.7594 20.0604 13.7594Z" fill="#33EBC7" style="fill:#33EBC7;fill:color(display-p3 0.2000 0.9216 0.7804);fill-opacity:1;"/>
<path d="M39.2308 17.7942C39.2802 17.7283 39.3461 17.6625 39.3956 17.5965C39.4286 17.5636 39.445 17.5142 39.478 17.4813C39.5438 17.3824 39.6099 17.3001 39.6758 17.2013C39.6758 17.1848 39.6922 17.1848 39.6922 17.1684C39.7912 17.0366 39.8735 16.8885 39.9396 16.7238V16.7073C40.2857 15.9827 40.4671 15.1428 40.4671 14.237C40.4671 12.4913 39.8077 11.3715 39.1647 10.6798C38.3406 9.85636 37.3351 9 34.4175 9H29.044C28.0384 9 27.2142 9.80696 27.2142 10.8115C27.2142 11.8161 28.0219 12.6231 29.0274 12.6231H35.0769C36.0494 12.6231 36.8407 13.4136 36.8407 14.3852C36.8407 15.291 36.1648 16.0321 35.3076 16.1308C35.0934 16.1473 34.8791 16.1473 34.6318 16.1473H34.3187C34.3022 16.1473 34.2856 16.1473 34.2527 16.1473H29.044C28.0384 16.1473 27.2308 16.9543 27.2308 17.9588C27.2308 18.9634 28.0384 19.7703 29.044 19.7703H35.0934C36.0659 19.7703 36.8572 20.5609 36.8572 21.5325C36.8572 22.5042 36.0659 23.2947 35.0934 23.2947H34.3187C34.3022 23.2947 34.2856 23.2947 34.2527 23.2947H29.044C28.0384 23.2947 27.2308 24.1015 27.2308 25.1062C27.2308 26.1107 28.0384 26.9177 29.044 26.9177H34.1538C34.1868 26.9177 34.2362 26.9177 34.3022 26.9177C35.0109 26.9177 37.3186 26.7859 38.934 25.238C39.956 24.2662 40.5 22.9159 40.5 21.3513C40.5 19.6058 39.8406 18.4858 39.1978 17.7942C39.1812 17.8436 39.2143 17.8271 39.2308 17.7942Z" fill="#33EBC7" style="fill:#33EBC7;fill:color(display-p3 0.2000 0.9216 0.7804);fill-opacity:1;"/>
</svg>
