<svg width="32" height="24" viewBox="0 0 32 24" fill="none" xmlns="http://www.w3.org/2000/svg">
<g clip-path="url(#clip0_3586_718)">
<rect width="32" height="24" fill="#F8F9FE" style="fill:#F8F9FE;fill:color(display-p3 0.9725 0.9765 0.9961);fill-opacity:1;"/>
<g clip-path="url(#clip1_3586_718)">
<path fill-rule="evenodd" clip-rule="evenodd" d="M14.959 16.3718C15.1408 16.3718 15.2873 16.2255 15.2873 16.0438C15.2873 15.8622 15.1408 15.7158 14.959 15.7158C14.7772 15.7158 14.6307 15.8622 14.6307 16.0438C14.6307 16.2255 14.7772 16.3718 14.959 16.3718ZM7.12916 18.3929C7.20067 18.3929 7.25833 18.3351 7.25833 18.2637V16.6101C7.25833 16.5387 7.20067 16.4809 7.12916 16.4809C7.05766 16.4813 7 16.4234 7 16.352V16.0593C7 15.9879 7.05766 15.9301 7.12916 15.9301H8.35238C8.97706 15.9301 9.30882 16.3004 9.30882 16.7782C9.30882 17.0107 9.17081 17.2219 8.9859 17.3294V17.3554C9.20118 17.4586 9.40377 17.6826 9.40377 18.0184C9.40377 18.6041 8.95169 18.9441 8.44311 18.9441H7.12916C7.05766 18.9441 7 18.8863 7 18.8149V18.5222C7 18.4508 7.05766 18.3929 7.12916 18.3929ZM8.34393 17.1314C8.53767 17.1314 8.66684 16.9936 8.66684 16.817C8.66684 16.6404 8.52883 16.5111 8.34393 16.5111H8.00794C7.93644 16.5111 7.87878 16.569 7.87878 16.6404V17.0022C7.87878 17.0736 7.93644 17.1314 8.00794 17.1314H8.34393ZM8.357 18.3673C8.5765 18.3673 8.7491 18.2252 8.7491 18.0013C8.7491 17.7773 8.57265 17.6395 8.35277 17.6395H8.00833C7.93683 17.6395 7.87916 17.6974 7.87916 17.7688V18.2381C7.87916 18.3095 7.93683 18.3673 8.00833 18.3673H8.357ZM9.74821 18.1992V16.8477C9.74821 16.7522 9.82547 16.6749 9.92119 16.6749H10.1895C10.2933 16.6749 10.3775 16.7592 10.3775 16.8628V17.997C10.3775 18.2039 10.5047 18.3611 10.6923 18.3887C10.9299 18.4236 11.1398 18.2276 11.1398 17.9873V16.8547C11.1398 16.7553 11.2201 16.6749 11.3193 16.6749H11.5888C11.688 16.6749 11.7683 16.7553 11.7683 16.8547V18.8028C11.7683 18.8808 11.7049 18.9445 11.6269 18.9445H11.3462C11.2321 18.9445 11.1394 18.8521 11.1394 18.738H11.0964C10.993 18.8843 10.8077 19.0008 10.5451 19.0008C10.0669 19.0008 9.74821 18.6433 9.74821 18.2V18.1992ZM12.466 18.2043L12.4603 18.2054L12.4607 18.2062C12.2569 18.2427 12.1585 18.4795 12.2788 18.6476C12.4507 18.8874 12.7497 19.0008 13.0865 19.0008C13.6766 19.0008 14.0341 18.6864 14.0341 18.2299C14.0341 17.6986 13.5858 17.6011 13.2368 17.5253C13.0144 17.4769 12.8324 17.4374 12.8324 17.2999C12.8324 17.2005 12.9358 17.1361 13.0865 17.1361C13.198 17.1361 13.2933 17.1741 13.3637 17.2525C13.434 17.3309 13.5436 17.362 13.6454 17.3344C13.8553 17.2778 13.9276 17.013 13.7719 16.8609C13.6093 16.7013 13.3706 16.6191 13.0777 16.6191C12.5737 16.6191 12.2119 16.9335 12.2119 17.3251C12.2119 17.8754 12.6521 17.9745 12.9968 18.052C13.2187 18.102 13.401 18.143 13.401 18.2897C13.401 18.3972 13.306 18.4706 13.1165 18.4706C12.9635 18.4706 12.8232 18.4224 12.7459 18.3188C12.6806 18.2315 12.5737 18.1849 12.466 18.2043ZM18.3065 17.8119C18.3065 17.1015 18.832 16.6191 19.4651 16.6191C20.1629 16.6191 20.598 17.1357 20.598 17.8076C20.598 17.8957 20.5265 17.9667 20.4385 17.9667H18.9523C18.9566 18.2637 19.1764 18.4446 19.4736 18.4446C19.6566 18.4446 19.8326 18.3805 19.9303 18.2349C19.9549 18.1985 19.9995 18.1814 20.0422 18.1915L20.4043 18.2749C20.47 18.2901 20.5058 18.3615 20.4781 18.4228C20.2878 18.8409 19.8849 19 19.4821 19C18.7886 19 18.3061 18.4962 18.3061 17.8115L18.3065 17.8119ZM19.8742 17.5491C19.9238 17.5491 19.9584 17.4998 19.9411 17.4532C19.8745 17.2723 19.6935 17.1403 19.4651 17.1403C19.2203 17.1403 19.0507 17.2847 18.9838 17.4505C18.965 17.4978 18.9988 17.5495 19.05 17.5495H19.8742V17.5491ZM21.488 18.2835C21.4503 18.214 21.3699 18.1794 21.2923 18.1934V18.1938C21.0382 18.2392 20.9371 18.5517 21.1185 18.7357C21.2954 18.915 21.5591 19.0004 21.8516 19.0004C22.4417 19.0004 22.7992 18.686 22.7992 18.2295C22.7992 17.6982 22.3509 17.6008 22.0019 17.5249C21.7796 17.4765 21.5975 17.437 21.5975 17.2995C21.5975 17.2001 21.7009 17.1357 21.8516 17.1357C21.9462 17.1357 22.0311 17.1656 22.0957 17.2203C22.2037 17.3119 22.346 17.3519 22.4824 17.315L22.5001 17.3104C22.6462 17.2712 22.7154 17.0992 22.6308 16.9738C22.4736 16.7406 22.1984 16.6194 21.8428 16.6194C21.3388 16.6194 20.9771 16.9339 20.9771 17.3255C20.9771 17.8758 21.4172 17.9748 21.7619 18.0524C21.9838 18.1024 22.1661 18.1434 22.1661 18.2901C22.1661 18.3976 22.0711 18.4709 21.8816 18.4709C21.7117 18.4709 21.5579 18.4119 21.488 18.2835ZM23.4266 18.2054C23.5377 18.1857 23.6465 18.2346 23.7157 18.3234C23.7937 18.424 23.9321 18.4706 24.0832 18.4706C24.2727 18.4706 24.3676 18.3972 24.3676 18.2897C24.3676 18.143 24.1853 18.102 23.9635 18.052C23.6188 17.9745 23.1786 17.8754 23.1786 17.3251C23.1786 16.9335 23.5404 16.6191 24.0443 16.6191C24.3373 16.6191 24.5756 16.7013 24.7386 16.8609C24.8943 17.013 24.822 17.2778 24.6121 17.3344C24.5102 17.362 24.4007 17.3309 24.3303 17.2525C24.26 17.1741 24.1647 17.1361 24.0532 17.1361C23.9025 17.1361 23.7991 17.2005 23.7991 17.2999C23.7991 17.4374 23.9811 17.4769 24.2035 17.5253C24.5525 17.6011 25.0008 17.6986 25.0008 18.2299C25.0008 18.6864 24.6433 19.0008 24.0532 19.0008C23.7164 19.0008 23.4173 18.8874 23.2455 18.6476C23.1252 18.4795 23.2236 18.2427 23.4273 18.2062L23.4266 18.2054ZM14.6307 16.9067C14.6307 16.725 14.7772 16.5787 14.959 16.5787C15.1408 16.5787 15.2892 16.725 15.2873 16.9067V18.6452C15.2873 18.8269 15.1408 18.9732 14.959 18.9732C14.7772 18.9732 14.6307 18.8269 14.6307 18.6452V16.9067ZM16.2576 16.7514C16.3852 16.6323 16.5935 16.5111 16.9149 16.5111L16.9161 16.5108C17.2051 16.5108 17.4519 16.6105 17.633 16.7957C17.9182 17.0938 17.9417 17.5169 17.9417 17.6488V18.6188C17.9417 18.8036 17.7929 18.9526 17.6076 18.9526C17.4223 18.9526 17.2736 18.804 17.2736 18.6188V17.6574C17.2736 17.6548 17.2728 17.6523 17.2721 17.6502C17.2716 17.6488 17.2713 17.6477 17.2713 17.6469V17.5064V17.5044C17.2713 17.3259 17.1244 17.1811 16.9457 17.1811C16.7669 17.1811 16.6224 17.3259 16.6201 17.5044V17.5064V17.6531V18.6188C16.6201 18.804 16.469 18.955 16.2837 18.955C16.0984 18.955 15.9473 18.804 15.9473 18.6188V17.6636C15.9473 17.6559 15.9469 17.647 15.9464 17.6371C15.9457 17.6251 15.945 17.6117 15.945 17.5976C15.9366 17.5021 15.9066 17.3468 15.8216 17.2595C15.8089 17.2467 15.7939 17.232 15.7705 17.2191C15.7693 17.2191 15.7683 17.2187 15.7672 17.2182C15.7662 17.2177 15.7651 17.2172 15.764 17.2172C15.6598 17.1621 15.5894 17.0515 15.5894 16.9238C15.5894 16.7386 15.7405 16.5876 15.9258 16.5876C15.9685 16.5876 16.0088 16.5942 16.045 16.609C16.0746 16.6194 16.1003 16.6346 16.1257 16.6536C16.1726 16.6835 16.2172 16.7153 16.2576 16.7514Z" fill="#713DFF" style="fill:#713DFF;fill:color(display-p3 0.4431 0.2392 1.0000);fill-opacity:1;"/>
<path fill-rule="evenodd" clip-rule="evenodd" d="M24.409 9.72929C24.384 9.76733 24.3525 9.80537 24.321 9.84341L24.3206 9.84418C24.3083 9.8566 24.2956 9.87562 24.2956 9.88843C24.6478 10.2692 25.006 10.8914 25.006 11.8498C25.006 12.713 24.7104 13.4494 24.1572 13.9889C23.2769 14.8394 22.026 14.9092 21.6362 14.9092H18.7692C18.2222 14.9092 17.782 14.4648 17.782 13.9124C17.782 13.3601 18.2222 12.9157 18.7692 12.9157H21.6109C21.6183 12.9157 21.6258 12.9135 21.632 12.9117C21.6362 12.9105 21.6399 12.9094 21.6424 12.9094H22.0637C22.5919 12.9094 23.0194 12.4716 23.0194 11.9383C23.0194 11.405 22.5919 10.9733 22.0637 10.9671H18.7692C18.2222 10.9671 17.7759 10.5165 17.7759 9.96412V9.95131C17.7759 9.39897 18.2161 8.95453 18.7631 8.95453H21.6047C21.6122 8.95453 21.6197 8.95237 21.6258 8.9506C21.6301 8.94937 21.6337 8.94832 21.6362 8.94832H21.8061C21.9384 8.94832 22.0641 8.94832 22.1771 8.94211C22.6484 8.87845 23.0132 8.47244 23.0132 7.97715C23.0132 7.44383 22.5857 7.0122 22.0575 7.00599H18.7631C18.2161 7.00599 17.7697 6.55534 17.7697 6.00299C17.7697 5.45065 18.2161 5 18.7631 5H21.6927C23.2896 5 23.8301 5.46967 24.2829 5.92692C24.6351 6.3077 24.9934 6.92991 24.9934 7.88827C24.9934 8.38976 24.893 8.84701 24.7043 9.24681V9.25302C24.6731 9.34191 24.6289 9.41799 24.5724 9.49407C24.5659 9.49407 24.5597 9.50067 24.5597 9.50688C24.5501 9.52145 24.5409 9.53562 24.5319 9.54949C24.5055 9.58991 24.4809 9.62777 24.4529 9.66563C24.4448 9.68241 24.4339 9.69636 24.4238 9.70933C24.4185 9.71616 24.4134 9.72273 24.409 9.72929ZM9.0127 6.00921C9.0127 6.56155 8.57254 7.00599 8.02552 7.00599C7.47849 7.00599 7.03833 6.56155 7.03833 6.00921C7.03833 5.45725 7.47887 5.01281 8.02552 5.01281C8.57216 5.01281 9.0127 5.45686 9.0127 6.00921ZM7.03833 8.6312C7.03833 8.07885 7.47849 7.63441 8.02552 7.63441C8.57254 7.63441 9.01885 8.07885 9.0127 8.6312V13.9128C9.0127 14.4652 8.57254 14.9096 8.02552 14.9096C7.47849 14.9096 7.03833 14.4652 7.03833 13.9128V8.6312ZM13.8783 7.6216C12.9292 7.6216 12.3129 7.98336 11.9358 8.33891C11.8163 8.23101 11.6844 8.13591 11.546 8.04702C11.4707 7.98996 11.3953 7.94532 11.3073 7.91388C11.2004 7.86963 11.0809 7.85023 10.9552 7.85023C10.4081 7.85023 9.96183 8.30087 9.96183 8.85322C9.96183 9.234 10.1694 9.56432 10.4773 9.72929C10.4804 9.72929 10.4836 9.73084 10.4868 9.73239C10.4899 9.73395 10.4931 9.7355 10.4962 9.7355C10.5645 9.77309 10.6081 9.81712 10.6455 9.85486L10.6469 9.85622C10.8983 10.1167 10.9863 10.5797 11.0117 10.8654C11.0117 10.9073 11.0135 10.9473 11.0152 10.9832C11.0166 11.0126 11.0178 11.0393 11.0178 11.0622V13.9124C11.0178 14.4648 11.4641 14.9154 12.0112 14.9154C12.5582 14.9154 13.0045 14.4648 13.0045 13.9124V11.0304V10.5925V10.5863C13.0107 10.053 13.4381 9.62138 13.9663 9.62138C14.4945 9.62138 14.9281 10.053 14.9281 10.5863V10.5925V11.0114C14.9281 11.0139 14.9292 11.0176 14.9304 11.0219C14.9321 11.0281 14.9343 11.0356 14.9343 11.0432V13.9124C14.9343 14.4648 15.3744 14.9092 15.9215 14.9092C16.4685 14.9092 16.9087 14.4648 16.9087 13.9124V11.0176C16.9087 10.624 16.8395 9.36093 15.9972 8.47205C15.4629 7.91971 14.7336 7.6216 13.8787 7.6216H13.8783Z" fill="#102F76" style="fill:#102F76;fill:color(display-p3 0.0627 0.1843 0.4627);fill-opacity:1;"/>
</g>
</g>
<defs>
<clipPath id="clip0_3586_718">
<rect width="32" height="24" rx="4" fill="white" style="fill:white;fill-opacity:1;"/>
</clipPath>
<clipPath id="clip1_3586_718">
<rect width="18" height="14" fill="white" style="fill:white;fill-opacity:1;" transform="translate(7 5)"/>
</clipPath>
</defs>
</svg>
