<svg width="16" height="16" viewBox="0 0 16 16" fill="none" xmlns="http://www.w3.org/2000/svg">
<rect width="16" height="16" rx="4" fill="#F8F9FE" style="fill:#F8F9FE;fill:color(display-p3 0.9725 0.9765 0.9961);fill-opacity:1;"/>
<g clip-path="url(#clip0_3586_713)">
<path fill-rule="evenodd" clip-rule="evenodd" d="M7.4795 10.1859C7.57041 10.1859 7.64364 10.1127 7.64364 10.0219C7.64364 9.93108 7.57041 9.85791 7.4795 9.85791C7.38858 9.85791 7.31535 9.93108 7.31535 10.0219C7.31535 10.1127 7.38858 10.1859 7.4795 10.1859ZM3.56458 11.1965C3.60033 11.1965 3.62916 11.1675 3.62916 11.1318V10.3051C3.62916 10.2694 3.60033 10.2404 3.56458 10.2404C3.52883 10.2406 3.5 10.2117 3.5 10.176V10.0297C3.5 9.99396 3.52883 9.96504 3.56458 9.96504H4.17619C4.48853 9.96504 4.65441 10.1502 4.65441 10.3891C4.65441 10.5054 4.5854 10.6109 4.49295 10.6647V10.6777C4.60059 10.7293 4.70188 10.8413 4.70188 11.0092C4.70188 11.302 4.47585 11.4721 4.22155 11.4721H3.56458C3.52883 11.4721 3.5 11.4431 3.5 11.4074V11.2611C3.5 11.2254 3.52883 11.1965 3.56458 11.1965ZM4.17196 10.5657C4.26884 10.5657 4.33342 10.4968 4.33342 10.4085C4.33342 10.3202 4.26442 10.2556 4.17196 10.2556H4.00397C3.96822 10.2556 3.93939 10.2845 3.93939 10.3202V10.5011C3.93939 10.5368 3.96822 10.5657 4.00397 10.5657H4.17196ZM4.1785 11.1837C4.28825 11.1837 4.37455 11.1126 4.37455 11.0006C4.37455 10.8887 4.28633 10.8198 4.17638 10.8198H4.00416C3.96841 10.8198 3.93958 10.8487 3.93958 10.8844V11.119C3.93958 11.1547 3.96841 11.1837 4.00416 11.1837H4.1785ZM4.8741 11.0996V10.4238C4.8741 10.3761 4.91274 10.3375 4.9606 10.3375H5.09476C5.14666 10.3375 5.18875 10.3796 5.18875 10.4314V10.9985C5.18875 11.1019 5.25237 11.1805 5.34617 11.1943C5.46495 11.2118 5.5699 11.1138 5.5699 10.9937V10.4273C5.5699 10.3776 5.61007 10.3375 5.65966 10.3375H5.7944C5.84399 10.3375 5.88416 10.3776 5.88416 10.4273V11.4014C5.88416 11.4404 5.85245 11.4722 5.81343 11.4722H5.67312C5.61603 11.4722 5.56971 11.4261 5.56971 11.369H5.54818C5.49648 11.4422 5.40383 11.5004 5.27255 11.5004C5.03344 11.5004 4.8741 11.3216 4.8741 11.1V11.0996ZM6.23302 11.1021L6.23014 11.1027L6.23033 11.1031C6.12846 11.1214 6.07926 11.2397 6.13942 11.3238C6.22533 11.4437 6.37487 11.5004 6.54325 11.5004C6.83829 11.5004 7.01704 11.3432 7.01704 11.115C7.01704 10.8493 6.79289 10.8006 6.61841 10.7626C6.50722 10.7385 6.4162 10.7187 6.4162 10.6499C6.4162 10.6003 6.4679 10.568 6.54325 10.568C6.59899 10.568 6.64666 10.5871 6.68183 10.6263C6.71701 10.6655 6.77179 10.681 6.82272 10.6672C6.92767 10.6389 6.9638 10.5065 6.88596 10.4304C6.80465 10.3507 6.68529 10.3095 6.53883 10.3095C6.28684 10.3095 6.10597 10.4667 6.10597 10.6626C6.10597 10.9377 6.32606 10.9872 6.49841 11.026C6.60933 11.051 6.70048 11.0715 6.70048 11.1448C6.70048 11.1986 6.653 11.2353 6.55824 11.2353C6.48174 11.2353 6.41159 11.2112 6.37295 11.1594C6.34028 11.1157 6.28684 11.0924 6.23302 11.1021ZM9.15325 10.9059C9.15325 10.5508 9.416 10.3095 9.73257 10.3095C10.0814 10.3095 10.299 10.5678 10.299 10.9038C10.299 10.9478 10.2633 10.9834 10.2192 10.9834H9.47616C9.47828 11.1318 9.58822 11.2223 9.7368 11.2223C9.82829 11.2223 9.91632 11.1903 9.96514 11.1175C9.97744 11.0992 9.99974 11.0907 10.0211 11.0957L10.2021 11.1375C10.235 11.145 10.2529 11.1807 10.239 11.2114C10.1439 11.4204 9.94246 11.5 9.74103 11.5C9.39428 11.5 9.15306 11.2481 9.15306 10.9057L9.15325 10.9059ZM9.93708 10.7745C9.96188 10.7745 9.97918 10.7499 9.97053 10.7266C9.93727 10.6362 9.84674 10.5702 9.73257 10.5702C9.61013 10.5702 9.52537 10.6424 9.49192 10.7252C9.48251 10.7489 9.49942 10.7747 9.52498 10.7747H9.93708V10.7745ZM10.744 11.1417C10.7251 11.107 10.685 11.0897 10.6461 11.0967V11.0969C10.5191 11.1196 10.4685 11.2758 10.5593 11.3678C10.6477 11.4575 10.7795 11.5002 10.9258 11.5002C11.2208 11.5002 11.3996 11.343 11.3996 11.1148C11.3996 10.8491 11.1755 10.8004 11.001 10.7624C10.8898 10.7383 10.7988 10.7185 10.7988 10.6497C10.7988 10.6001 10.8505 10.5678 10.9258 10.5678C10.9731 10.5678 11.0156 10.5828 11.0479 10.6102C11.1019 10.656 11.173 10.6759 11.2412 10.6575L11.2501 10.6552C11.3231 10.6356 11.3577 10.5496 11.3154 10.4869C11.2368 10.3703 11.0992 10.3097 10.9214 10.3097C10.6694 10.3097 10.4885 10.4669 10.4885 10.6628C10.4885 10.9379 10.7086 10.9874 10.881 11.0262C10.9919 11.0512 11.083 11.0717 11.083 11.145C11.083 11.1988 11.0356 11.2355 10.9408 11.2355C10.8558 11.2355 10.779 11.206 10.744 11.1417ZM11.7133 11.1027C11.7688 11.0928 11.8232 11.1173 11.8578 11.1617C11.8968 11.212 11.966 11.2353 12.0416 11.2353C12.1363 11.2353 12.1838 11.1986 12.1838 11.1448C12.1838 11.0715 12.0927 11.051 11.9817 11.026C11.8094 10.9872 11.5893 10.9377 11.5893 10.6626C11.5893 10.4667 11.7702 10.3095 12.0222 10.3095C12.1686 10.3095 12.2878 10.3507 12.3693 10.4304C12.4471 10.5065 12.411 10.6389 12.3061 10.6672C12.2551 10.681 12.2003 10.6655 12.1652 10.6263C12.13 10.5871 12.0823 10.568 12.0266 10.568C11.9512 10.568 11.8995 10.6003 11.8995 10.6499C11.8995 10.7187 11.9906 10.7385 12.1017 10.7626C12.2762 10.8006 12.5004 10.8493 12.5004 11.115C12.5004 11.3432 12.3216 11.5004 12.0266 11.5004C11.8582 11.5004 11.7087 11.4437 11.6228 11.3238C11.5626 11.2397 11.6118 11.1214 11.7137 11.1031L11.7133 11.1027ZM7.31535 10.4533C7.31535 10.3625 7.38858 10.2893 7.4795 10.2893C7.57041 10.2893 7.64461 10.3625 7.64364 10.4533V11.3226C7.64364 11.4134 7.57041 11.4866 7.4795 11.4866C7.38858 11.4866 7.31535 11.4134 7.31535 11.3226V10.4533ZM8.12878 10.3757C8.19259 10.3161 8.29677 10.2556 8.45746 10.2556L8.45803 10.2554C8.60257 10.2554 8.72597 10.3053 8.8165 10.3978C8.95912 10.5469 8.97085 10.7584 8.97085 10.8244V11.3094C8.97085 11.4018 8.89646 11.4763 8.80382 11.4763C8.71117 11.4763 8.63679 11.402 8.63679 11.3094V10.8287C8.63679 10.8274 8.63638 10.8261 8.63604 10.8251C8.63582 10.8244 8.63563 10.8238 8.63563 10.8234V10.7532V10.7522C8.63563 10.6629 8.56221 10.5906 8.47283 10.5906C8.38346 10.5906 8.31119 10.6629 8.31003 10.7522V10.7532V10.8266V11.3094C8.31003 11.402 8.23449 11.4775 8.14185 11.4775C8.0492 11.4775 7.97367 11.402 7.97367 11.3094V10.8318C7.97367 10.828 7.97343 10.8235 7.97318 10.8186C7.97286 10.8125 7.97251 10.8058 7.97251 10.7988C7.96828 10.7511 7.95329 10.6734 7.91081 10.6298C7.90447 10.6234 7.89697 10.616 7.88525 10.6096C7.88467 10.6096 7.88414 10.6093 7.88362 10.6091C7.88309 10.6088 7.88256 10.6086 7.88198 10.6086C7.82989 10.581 7.79472 10.5257 7.79472 10.4619C7.79472 10.3693 7.87026 10.2938 7.9629 10.2938C7.98424 10.2938 8.00442 10.2971 8.02249 10.3045C8.03729 10.3097 8.05017 10.3173 8.06285 10.3268C8.0863 10.3417 8.1086 10.3577 8.12878 10.3757Z" fill="#713DFF" style="fill:#713DFF;fill:color(display-p3 0.4431 0.2392 1.0000);fill-opacity:1;"/>
<path fill-rule="evenodd" clip-rule="evenodd" d="M12.2046 6.86464C12.1921 6.88366 12.1764 6.90268 12.1606 6.9217L12.1604 6.92209C12.1543 6.9283 12.1479 6.93781 12.1479 6.94422C12.324 7.13461 12.5031 7.44571 12.5031 7.92489C12.5031 8.35652 12.3553 8.72469 12.0787 8.99445C11.6386 9.41968 11.0131 9.45461 10.8182 9.45461H9.38474C9.11123 9.45461 8.89115 9.23239 8.89115 8.95622C8.89115 8.68005 9.11123 8.45783 9.38474 8.45783H10.8055C10.8093 8.45783 10.813 8.45675 10.8161 8.45586C10.8182 8.45525 10.82 8.45472 10.8213 8.45472H11.032C11.2961 8.45472 11.5098 8.2358 11.5098 7.96914C11.5098 7.70248 11.2961 7.48666 11.032 7.48356H9.38474C9.11123 7.48356 8.88807 7.25823 8.88807 6.98206V6.97566C8.88807 6.69948 9.10815 6.47727 9.38166 6.47727H10.8025C10.8062 6.47727 10.81 6.47619 10.813 6.4753C10.8152 6.47468 10.817 6.47416 10.8182 6.47416H10.9032C10.9693 6.47416 11.0322 6.47416 11.0887 6.47105C11.3243 6.43923 11.5067 6.23622 11.5067 5.98858C11.5067 5.72191 11.293 5.5061 11.0289 5.50299H9.38166C9.10815 5.50299 8.885 5.27767 8.885 5.0015C8.885 4.72532 9.10815 4.5 9.38166 4.5H10.8465C11.6449 4.5 11.9152 4.73483 12.1416 4.96346C12.3177 5.15385 12.4968 5.46496 12.4968 5.94413C12.4968 6.19488 12.4466 6.42351 12.3523 6.62341V6.62651C12.3367 6.67095 12.3146 6.70899 12.2863 6.74703C12.2831 6.74703 12.28 6.75033 12.28 6.75344C12.2752 6.76073 12.2706 6.76781 12.266 6.77475C12.2529 6.79496 12.2406 6.81389 12.2266 6.83282C12.2225 6.8412 12.2171 6.84818 12.212 6.85466C12.2094 6.85808 12.2068 6.86136 12.2046 6.86464ZM4.50647 5.0046C4.50647 5.28078 4.28639 5.50299 4.01288 5.50299C3.73937 5.50299 3.51929 5.28078 3.51929 5.0046C3.51929 4.72862 3.73956 4.5064 4.01288 4.5064C4.2862 4.5064 4.50647 4.72843 4.50647 5.0046ZM3.51929 6.3156C3.51929 6.03943 3.73937 5.81721 4.01288 5.81721C4.28639 5.81721 4.50955 6.03943 4.50647 6.3156V8.95642C4.50647 9.23259 4.28639 9.45481 4.01288 9.45481C3.73937 9.45481 3.51929 9.23259 3.51929 8.95642V6.3156ZM6.93926 5.8108C6.4647 5.8108 6.15659 5.99168 5.96803 6.16946C5.90826 6.1155 5.84233 6.06795 5.77313 6.02351C5.73546 5.99498 5.69779 5.97266 5.65377 5.95694C5.60034 5.93482 5.54056 5.92511 5.47771 5.92511C5.20419 5.92511 4.98104 6.15044 4.98104 6.42661C4.98104 6.617 5.08483 6.78216 5.23879 6.86464C5.24033 6.86464 5.24191 6.86542 5.2435 6.8662C5.24509 6.86697 5.24667 6.86775 5.24821 6.86775C5.2824 6.88654 5.3042 6.90856 5.32288 6.92743L5.32288 6.92743L5.32355 6.92811C5.44926 7.05833 5.49328 7.28987 5.50596 7.43271C5.50596 7.45364 5.50689 7.47363 5.50773 7.49161C5.50841 7.50631 5.50904 7.51967 5.50904 7.53111V8.95622C5.50904 9.23239 5.73219 9.45772 6.0057 9.45772C6.27922 9.45772 6.50237 9.23239 6.50237 8.95622V7.51519V7.29627V7.29317C6.50545 7.0265 6.71919 6.81069 6.98328 6.81069C7.24738 6.81069 7.46419 7.0265 7.46419 7.29317V7.29627V7.50568C7.46419 7.50696 7.46471 7.50879 7.46532 7.51094L7.46532 7.51095C7.46619 7.51405 7.46726 7.51782 7.46726 7.5216V8.95622C7.46726 9.23239 7.68734 9.45461 7.96086 9.45461C8.23437 9.45461 8.45445 9.23239 8.45445 8.95622V7.50879C8.45445 7.31199 8.41985 6.68046 7.99872 6.23603C7.73155 5.95985 7.36693 5.8108 6.93946 5.8108H6.93926Z" fill="#102F76" style="fill:#102F76;fill:color(display-p3 0.0627 0.1843 0.4627);fill-opacity:1;"/>
</g>
<defs>
<clipPath id="clip0_3586_713">
<rect width="9" height="7" fill="white" style="fill:white;fill-opacity:1;" transform="translate(3.5 4.5)"/>
</clipPath>
</defs>
</svg>
