<svg width="56" height="42" viewBox="0 0 56 42" fill="none" xmlns="http://www.w3.org/2000/svg">
<g clip-path="url(#clip0_3586_715)">
<rect width="56" height="42" fill="#F8F9FE" style="fill:#F8F9FE;fill:color(display-p3 0.9725 0.9765 0.9961);fill-opacity:1;"/>
<g clip-path="url(#clip1_3586_715)">
<path fill-rule="evenodd" clip-rule="evenodd" d="M26.1782 28.6507C26.4964 28.6507 26.7528 28.3946 26.7528 28.0767C26.7528 27.7588 26.4964 27.5027 26.1782 27.5027C25.86 27.5027 25.6037 27.7588 25.6037 28.0767C25.6037 28.3946 25.86 28.6507 26.1782 28.6507ZM12.476 32.1876C12.6012 32.1876 12.7021 32.0864 12.7021 31.9614V29.0677C12.7021 28.9427 12.6012 28.8415 12.476 28.8415C12.3509 28.8422 12.25 28.741 12.25 28.616V28.1038C12.25 27.9788 12.3509 27.8776 12.476 27.8776H14.6167C15.7099 27.8776 16.2904 28.5257 16.2904 29.3618C16.2904 29.7687 16.0489 30.1383 15.7253 30.3264V30.3719C16.1021 30.5526 16.4566 30.9446 16.4566 31.5321C16.4566 32.5571 15.6655 33.1522 14.7754 33.1522H12.476C12.3509 33.1522 12.25 33.051 12.25 32.926V32.4138C12.25 32.2888 12.3509 32.1876 12.476 32.1876ZM14.6019 29.98C14.9409 29.98 15.167 29.7388 15.167 29.4298C15.167 29.1207 14.9255 28.8945 14.6019 28.8945H14.0139C13.8888 28.8945 13.7879 28.9957 13.7879 29.1207V29.7538C13.7879 29.8788 13.8888 29.98 14.0139 29.98H14.6019ZM14.6247 32.1428C15.0089 32.1428 15.3109 31.8942 15.3109 31.5022C15.3109 31.1103 15.0021 30.8692 14.6173 30.8692H14.0146C13.8894 30.8692 13.7885 30.9704 13.7885 31.0954V31.9166C13.7885 32.0416 13.8894 32.1428 14.0146 32.1428H14.6247ZM17.0594 31.8487V29.4834C17.0594 29.3163 17.1946 29.1812 17.3621 29.1812H17.8317C18.0133 29.1812 18.1606 29.3286 18.1606 29.5099V31.4948C18.1606 31.8568 18.3833 32.1319 18.7116 32.1801C19.1273 32.2413 19.4946 31.8983 19.4946 31.4778V29.4957C19.4946 29.3218 19.6353 29.1812 19.8088 29.1812H20.2804C20.454 29.1812 20.5946 29.3218 20.5946 29.4957V32.9049C20.5946 33.0415 20.4836 33.1529 20.347 33.1529H19.8559C19.6561 33.1529 19.494 32.9912 19.494 32.7915H19.4186C19.2377 33.0476 18.9134 33.2514 18.4539 33.2514C17.6171 33.2514 17.0594 32.6258 17.0594 31.85V31.8487ZM21.8156 31.8575L21.8055 31.8595L21.8062 31.8609C21.4496 31.9247 21.2774 32.3391 21.488 32.6332C21.7887 33.053 22.3121 33.2514 22.9014 33.2514C23.934 33.2514 24.5597 32.7012 24.5597 31.9023C24.5597 30.9726 23.7751 30.802 23.1644 30.6692C22.7753 30.5846 22.4567 30.5154 22.4567 30.2748C22.4567 30.1009 22.6377 29.9881 22.9014 29.9881C23.0965 29.9881 23.2633 30.0547 23.3864 30.1919C23.5095 30.3291 23.7012 30.3835 23.8795 30.3352C24.2468 30.2361 24.3733 29.7728 24.1009 29.5065C23.8163 29.2274 23.3985 29.0833 22.8859 29.0833C22.0039 29.0833 21.3709 29.6336 21.3709 30.3189C21.3709 31.2819 22.1412 31.4553 22.7444 31.5911C23.1326 31.6785 23.4517 31.7503 23.4517 32.0069C23.4517 32.1951 23.2855 32.3235 22.9538 32.3235C22.6861 32.3235 22.4405 32.2392 22.3053 32.0579C22.191 31.905 22.0039 31.8235 21.8156 31.8575ZM32.0364 31.1708C32.0364 29.9277 32.956 29.0833 34.064 29.0833C35.285 29.0833 36.0465 29.9875 36.0465 31.1633C36.0465 31.3175 35.9214 31.4418 35.7674 31.4418H33.1666C33.174 31.9614 33.5588 32.278 34.0788 32.278C34.399 32.278 34.7071 32.1659 34.878 31.9112C34.9211 31.8473 34.9991 31.8174 35.0738 31.8351L35.7075 31.9811C35.8225 32.0076 35.8851 32.1326 35.8366 32.2399C35.5036 32.9715 34.7986 33.25 34.0936 33.25C32.88 33.25 32.0357 32.3683 32.0357 31.1701L32.0364 31.1708ZM34.7798 30.7109C34.8666 30.7109 34.9271 30.6246 34.8968 30.5431C34.7805 30.2266 34.4636 29.9956 34.064 29.9956C33.6355 29.9956 33.3388 30.2483 33.2217 30.5383C33.1888 30.6212 33.248 30.7116 33.3374 30.7116H34.7798V30.7109ZM37.6039 31.9961C37.538 31.8745 37.3974 31.814 37.2615 31.8385V31.8392C36.8168 31.9186 36.6399 32.4654 36.9574 32.7874C37.2669 33.1012 37.7284 33.2507 38.2403 33.2507C39.273 33.2507 39.8986 32.7005 39.8986 31.9017C39.8986 30.9719 39.1141 30.8013 38.5034 30.6686C38.1142 30.584 37.7957 30.5147 37.7957 30.2741C37.7957 30.1002 37.9766 29.9875 38.2403 29.9875C38.4058 29.9875 38.5545 30.0398 38.6675 30.1355C38.8566 30.2959 39.1055 30.3658 39.3443 30.3013L39.3752 30.2931C39.6309 30.2245 39.752 29.9236 39.604 29.7042C39.3288 29.296 38.8471 29.084 38.2249 29.084C37.3429 29.084 36.7099 29.6342 36.7099 30.3196C36.7099 31.2826 37.4802 31.456 38.0834 31.5918C38.4716 31.6791 38.7906 31.751 38.7906 32.0076C38.7906 32.1958 38.6245 32.3242 38.2928 32.3242C37.9955 32.3242 37.7264 32.2209 37.6039 31.9961ZM40.9965 31.8595C41.1909 31.8249 41.3813 31.9105 41.5024 32.066C41.639 32.242 41.8811 32.3235 42.1455 32.3235C42.4772 32.3235 42.6433 32.1951 42.6433 32.0069C42.6433 31.7503 42.3243 31.6785 41.9361 31.5911C41.3329 31.4553 40.5626 31.2819 40.5626 30.3189C40.5626 29.6336 41.1956 29.0833 42.0776 29.0833C42.5902 29.0833 43.0073 29.2274 43.2925 29.5065C43.565 29.7728 43.4385 30.2361 43.0712 30.3352C42.8929 30.3835 42.7012 30.3291 42.5781 30.1919C42.455 30.0547 42.2881 29.9881 42.0931 29.9881C41.8293 29.9881 41.6484 30.1009 41.6484 30.2748C41.6484 30.5154 41.967 30.5846 42.3561 30.6692C42.9668 30.802 43.7513 30.9726 43.7513 31.9023C43.7513 32.7012 43.1257 33.2514 42.0931 33.2514C41.5037 33.2514 40.9804 33.053 40.6796 32.6332C40.4691 32.3391 40.6413 31.9247 40.9978 31.8609L40.9965 31.8595ZM25.6037 29.5867C25.6037 29.2688 25.86 29.0127 26.1782 29.0127C26.4964 29.0127 26.7561 29.2688 26.7528 29.5867V32.6292C26.7528 32.9471 26.4964 33.2031 26.1782 33.2031C25.86 33.2031 25.6037 32.9471 25.6037 32.6292V29.5867ZM28.4507 29.315C28.6741 29.1064 29.0387 28.8945 29.6011 28.8945L29.6031 28.8938C30.109 28.8938 30.5409 29.0684 30.8578 29.3924C31.3569 29.9141 31.398 30.6545 31.398 30.8855V32.583C31.398 32.9063 31.1376 33.1671 30.8134 33.1671C30.4891 33.1671 30.2288 32.907 30.2288 32.583V30.9004C30.2288 30.8959 30.2273 30.8915 30.2262 30.8879C30.2254 30.8855 30.2247 30.8834 30.2247 30.8821V30.6362V30.6328C30.2247 30.3203 29.9677 30.0669 29.6549 30.0669C29.3421 30.0669 29.0891 30.3203 29.0851 30.6328V30.6362V30.8929V32.583C29.0851 32.907 28.8207 33.1712 28.4965 33.1712C28.1722 33.1712 27.9078 32.907 27.9078 32.583V30.9113C27.9078 30.8978 27.907 30.8822 27.9061 30.865C27.905 30.8439 27.9038 30.8205 27.9038 30.7958C27.889 30.6287 27.8365 30.357 27.6878 30.2041C27.6656 30.1817 27.6394 30.1559 27.5984 30.1335C27.5964 30.1335 27.5945 30.1327 27.5927 30.1318C27.5908 30.131 27.589 30.1301 27.5869 30.1301C27.4046 30.0337 27.2815 29.8401 27.2815 29.6166C27.2815 29.2926 27.5459 29.0283 27.8702 29.0283C27.9448 29.0283 28.0155 29.0399 28.0787 29.0657C28.1305 29.084 28.1756 29.1105 28.22 29.1438C28.3021 29.1961 28.3801 29.2518 28.4507 29.315Z" fill="#713DFF" style="fill:#713DFF;fill:color(display-p3 0.4431 0.2392 1.0000);fill-opacity:1;"/>
<path fill-rule="evenodd" clip-rule="evenodd" d="M42.7161 17.0263C42.6724 17.0928 42.6172 17.1594 42.5621 17.226L42.5614 17.2273C42.5399 17.2491 42.5177 17.2823 42.5177 17.3048C43.1339 17.9711 43.7609 19.06 43.7609 20.7371C43.7609 22.2478 43.2435 23.5364 42.2755 24.4806C40.7349 25.9689 38.5458 26.0911 37.8637 26.0911H32.8465C31.8892 26.0911 31.1189 25.3134 31.1189 24.3468C31.1189 23.3802 31.8892 22.6024 32.8465 22.6024H37.8193C37.8324 22.6024 37.8455 22.5986 37.8562 22.5955C37.8637 22.5934 37.87 22.5915 37.8745 22.5915H38.6118C39.5361 22.5915 40.2842 21.8253 40.2842 20.892C40.2842 19.9587 39.5361 19.2033 38.6118 19.1925H32.8465C31.8892 19.1925 31.1081 18.4038 31.1081 17.4372V17.4148C31.1081 16.4482 31.8784 15.6704 32.8357 15.6704H37.8085C37.8216 15.6704 37.8347 15.6667 37.8455 15.6635C37.8529 15.6614 37.8593 15.6596 37.8637 15.6596H38.161C38.3925 15.6596 38.6124 15.6596 38.8102 15.6487C39.635 15.5373 40.2734 14.8268 40.2734 13.96C40.2734 13.0267 39.5253 12.2713 38.601 12.2605H32.8357C31.8784 12.2605 31.0974 11.4718 31.0974 10.5052C31.0974 9.53864 31.8784 8.75 32.8357 8.75H37.9626C40.7571 8.75 41.703 9.57192 42.4955 10.3721C43.1117 11.0385 43.7387 12.1273 43.7387 13.8045C43.7387 14.6821 43.5631 15.4823 43.2328 16.1819V16.1928C43.1783 16.3483 43.1009 16.4815 43.002 16.6146C42.9906 16.6146 42.9798 16.6262 42.9798 16.637C42.963 16.6625 42.9469 16.6873 42.9311 16.7116C42.885 16.7823 42.8419 16.8486 42.7928 16.9149C42.7787 16.9442 42.7597 16.9686 42.742 16.9913C42.7327 17.0033 42.7238 17.0148 42.7161 17.0263ZM15.7725 10.5161C15.7725 11.4827 15.0023 12.2605 14.045 12.2605C13.0877 12.2605 12.3174 11.4827 12.3174 10.5161C12.3174 9.55018 13.0883 8.77242 14.045 8.77242C15.0016 8.77242 15.7725 9.5495 15.7725 10.5161ZM12.3174 15.1046C12.3174 14.138 13.0877 13.3602 14.045 13.3602C15.0023 13.3602 15.7833 14.138 15.7725 15.1046V24.3475C15.7725 25.3141 15.0023 26.0918 14.045 26.0918C13.0877 26.0918 12.3174 25.3141 12.3174 24.3475V15.1046ZM24.2873 13.3378C22.6263 13.3378 21.5479 13.9709 20.888 14.5931C20.6788 14.4043 20.448 14.2378 20.2058 14.0823C20.074 13.9824 19.9421 13.9043 19.7881 13.8493C19.6011 13.7719 19.3918 13.7379 19.1719 13.7379C18.2146 13.7379 17.4335 14.5265 17.4335 15.4931C17.4335 16.1595 17.7968 16.7376 18.3356 17.0263C18.341 17.0263 18.3466 17.029 18.3521 17.0317C18.3577 17.0344 18.3632 17.0371 18.3686 17.0371C18.4883 17.1029 18.5646 17.18 18.63 17.246L18.6323 17.2484C19.0723 17.7042 19.2263 18.5145 19.2707 19.0145C19.2707 19.0877 19.274 19.1577 19.2769 19.2206C19.2793 19.2721 19.2815 19.3188 19.2815 19.3589V24.3468C19.2815 25.3134 20.0625 26.102 21.0198 26.102C21.9771 26.102 22.7582 25.3134 22.7582 24.3468V19.3032V18.537V18.5261C22.7689 17.5928 23.517 16.8374 24.4414 16.8374C25.3657 16.8374 26.1245 17.5928 26.1245 18.5261V18.537V19.2699C26.1245 19.2744 26.1263 19.2808 26.1285 19.2883L26.1285 19.2883C26.1316 19.2992 26.1353 19.3124 26.1353 19.3256V24.3468C26.1353 25.3134 26.9056 26.0911 27.8629 26.0911C28.8202 26.0911 29.5905 25.3134 29.5905 24.3468V19.2808C29.5905 18.592 29.4694 16.3816 27.9954 14.8261C27.0603 13.8595 25.7841 13.3378 24.288 13.3378H24.2873Z" fill="#102F76" style="fill:#102F76;fill:color(display-p3 0.0627 0.1843 0.4627);fill-opacity:1;"/>
</g>
</g>
<defs>
<clipPath id="clip0_3586_715">
<rect width="56" height="42" rx="7" fill="white" style="fill:white;fill-opacity:1;"/>
</clipPath>
<clipPath id="clip1_3586_715">
<rect width="31.5" height="24.5" fill="white" style="fill:white;fill-opacity:1;" transform="translate(12.25 8.75)"/>
</clipPath>
</defs>
</svg>
