<svg width="48" height="36" viewBox="0 0 48 36" fill="none" xmlns="http://www.w3.org/2000/svg">
<g clip-path="url(#clip0_3586_716)">
<rect width="48" height="36" fill="#F8F9FE" style="fill:#F8F9FE;fill:color(display-p3 0.9725 0.9765 0.9961);fill-opacity:1;"/>
<g clip-path="url(#clip1_3586_716)">
<path fill-rule="evenodd" clip-rule="evenodd" d="M22.4385 24.5577C22.7112 24.5577 22.9309 24.3382 22.9309 24.0657C22.9309 23.7932 22.7112 23.5737 22.4385 23.5737C22.1657 23.5737 21.9461 23.7932 21.9461 24.0657C21.9461 24.3382 22.1657 24.5577 22.4385 24.5577ZM10.6937 27.5894C10.801 27.5894 10.8875 27.5026 10.8875 27.3955V24.9152C10.8875 24.8081 10.801 24.7213 10.6937 24.7213C10.5865 24.7219 10.5 24.6351 10.5 24.528V24.089C10.5 23.9819 10.5865 23.8951 10.6937 23.8951H12.5286C13.4656 23.8951 13.9632 24.4506 13.9632 25.1673C13.9632 25.5161 13.7562 25.8328 13.4789 25.9941V26.0331C13.8018 26.188 14.1057 26.5239 14.1057 27.0275C14.1057 27.9061 13.4275 28.4162 12.6647 28.4162H10.6937C10.5865 28.4162 10.5 28.3294 10.5 28.2223V27.7833C10.5 27.6761 10.5865 27.5894 10.6937 27.5894ZM12.5159 25.6971C12.8065 25.6971 13.0003 25.4904 13.0003 25.2255C13.0003 24.9606 12.7932 24.7667 12.5159 24.7667H12.0119C11.9047 24.7667 11.8182 24.8535 11.8182 24.9606V25.5032C11.8182 25.6104 11.9047 25.6971 12.0119 25.6971H12.5159ZM12.5355 27.551C12.8647 27.551 13.1237 27.3379 13.1237 27.0019C13.1237 26.666 12.859 26.4593 12.5292 26.4593H12.0125C11.9052 26.4593 11.8187 26.546 11.8187 26.6532V27.3571C11.8187 27.4642 11.9052 27.551 12.0125 27.551H12.5355ZM14.6223 27.2989V25.2715C14.6223 25.1283 14.7382 25.0124 14.8818 25.0124H15.2843C15.44 25.0124 15.5662 25.1388 15.5662 25.2942V26.9955C15.5662 27.3058 15.7571 27.5416 16.0385 27.583C16.3949 27.6354 16.7097 27.3414 16.7097 26.981V25.282C16.7097 25.1329 16.8302 25.0124 16.979 25.0124H17.3832C17.532 25.0124 17.6525 25.1329 17.6525 25.282V28.2042C17.6525 28.3213 17.5573 28.4167 17.4403 28.4167H17.0193C16.8481 28.4167 16.7091 28.2782 16.7091 28.107H16.6445C16.4894 28.3265 16.2115 28.5012 15.8177 28.5012C15.1003 28.5012 14.6223 27.9649 14.6223 27.3V27.2989ZM18.6991 27.3064L18.6904 27.3082L18.691 27.3093C18.3854 27.3641 18.2378 27.7192 18.4183 27.9713C18.676 28.3312 19.1246 28.5012 19.6297 28.5012C20.5149 28.5012 21.0511 28.0296 21.0511 27.3449C21.0511 26.5479 20.3787 26.4017 19.8552 26.2879C19.5217 26.2154 19.2486 26.156 19.2486 25.9498C19.2486 25.8008 19.4037 25.7041 19.6297 25.7041C19.797 25.7041 19.94 25.7612 20.0455 25.8788C20.151 25.9964 20.3154 26.043 20.4682 26.0016C20.783 25.9166 20.8914 25.5196 20.6579 25.2913C20.414 25.052 20.0559 24.9286 19.6165 24.9286C18.8605 24.9286 18.3179 25.4002 18.3179 25.9877C18.3179 26.8131 18.9782 26.9617 19.4952 27.0781C19.828 27.153 20.1014 27.2145 20.1014 27.4345C20.1014 27.5958 19.959 27.7058 19.6747 27.7058C19.4452 27.7058 19.2348 27.6336 19.1189 27.4782C19.0208 27.3472 18.8605 27.2773 18.6991 27.3064ZM27.4598 26.7178C27.4598 25.6523 28.248 24.9286 29.1977 24.9286C30.2443 24.9286 30.897 25.7035 30.897 26.7114C30.897 26.8435 30.7898 26.9501 30.6577 26.9501H28.4285C28.4348 27.3955 28.7647 27.6668 29.2104 27.6668C29.4849 27.6668 29.749 27.5708 29.8954 27.3524C29.9323 27.2977 29.9992 27.2721 30.0632 27.2872L30.6064 27.4124C30.705 27.4351 30.7586 27.5422 30.7171 27.6342C30.4317 28.2613 29.8274 28.5 29.2231 28.5C28.1828 28.5 27.4592 27.7443 27.4592 26.7172L27.4598 26.7178ZM29.8112 26.3236C29.8856 26.3236 29.9375 26.2497 29.9116 26.1798C29.8118 25.9085 29.5402 25.7105 29.1977 25.7105C28.8304 25.7105 28.5761 25.9271 28.4758 26.1757C28.4475 26.2468 28.4983 26.3242 28.575 26.3242H29.8112V26.3236ZM32.2319 27.4252C32.1754 27.321 32.0549 27.2692 31.9384 27.2901V27.2907C31.5573 27.3588 31.4056 27.8275 31.6778 28.1035C31.943 28.3725 32.3386 28.5006 32.7774 28.5006C33.6625 28.5006 34.1988 28.029 34.1988 27.3443C34.1988 26.5473 33.5264 26.4011 33.0029 26.2873C32.6693 26.2148 32.3963 26.1555 32.3963 25.9492C32.3963 25.8002 32.5514 25.7035 32.7774 25.7035C32.9193 25.7035 33.0467 25.7484 33.1436 25.8305C33.3056 25.9679 33.519 26.0278 33.7237 25.9725L33.7502 25.9655C33.9693 25.9067 34.0731 25.6488 33.9462 25.4607C33.7104 25.1108 33.2975 24.9292 32.7642 24.9292C32.0082 24.9292 31.4656 25.4008 31.4656 25.9883C31.4656 26.8137 32.1258 26.9623 32.6429 27.0787C32.9757 27.1536 33.2491 27.2151 33.2491 27.4351C33.2491 27.5964 33.1067 27.7064 32.8224 27.7064C32.5675 27.7064 32.3369 27.6179 32.2319 27.4252ZM35.1399 27.3082C35.3065 27.2785 35.4697 27.3518 35.5735 27.4852C35.6905 27.636 35.8981 27.7058 36.1247 27.7058C36.409 27.7058 36.5514 27.5958 36.5514 27.4345C36.5514 27.2145 36.278 27.153 35.9452 27.0781C35.4282 26.9617 34.7679 26.8131 34.7679 25.9877C34.7679 25.4002 35.3105 24.9286 36.0665 24.9286C36.5059 24.9286 36.8634 25.052 37.1079 25.2913C37.3414 25.5196 37.233 25.9166 36.9182 26.0016C36.7654 26.043 36.601 25.9964 36.4955 25.8788C36.39 25.7612 36.247 25.7041 36.0798 25.7041C35.8537 25.7041 35.6986 25.8008 35.6986 25.9498C35.6986 26.156 35.9717 26.2154 36.3052 26.2879C36.8287 26.4017 37.5011 26.5479 37.5011 27.3449C37.5011 28.0296 36.9649 28.5012 36.0798 28.5012C35.5746 28.5012 35.126 28.3312 34.8683 27.9713C34.6878 27.7192 34.8354 27.3641 35.141 27.3093L35.1399 27.3082ZM21.9461 25.36C21.9461 25.0875 22.1657 24.868 22.4385 24.868C22.7112 24.868 22.9338 25.0875 22.9309 25.36V27.9678C22.9309 28.2403 22.7112 28.4598 22.4385 28.4598C22.1657 28.4598 21.9461 28.2403 21.9461 27.9678V25.36ZM24.3863 25.1271C24.5778 24.9484 24.8903 24.7667 25.3724 24.7667L25.3741 24.7661C25.8077 24.7661 26.1779 24.9158 26.4495 25.1935C26.8774 25.6407 26.9125 26.2753 26.9125 26.4733V27.9283C26.9125 28.2054 26.6894 28.429 26.4115 28.429C26.1335 28.429 25.9104 28.206 25.9104 27.9283V26.4861C25.9104 26.4822 25.9091 26.4784 25.9081 26.4753C25.9075 26.4733 25.9069 26.4715 25.9069 26.4703V26.2596V26.2567C25.9069 25.9888 25.6866 25.7717 25.4185 25.7717C25.1504 25.7717 24.9336 25.9888 24.9301 26.2567V26.2596V26.4797V27.9283C24.9301 28.206 24.7035 28.4325 24.4255 28.4325C24.1476 28.4325 23.921 28.206 23.921 27.9283V26.4954C23.921 26.4839 23.9203 26.4705 23.9195 26.4557C23.9186 26.4376 23.9175 26.4176 23.9175 26.3964C23.9049 26.2532 23.8599 26.0203 23.7324 25.8893C23.7134 25.8701 23.6909 25.8479 23.6558 25.8287C23.654 25.8287 23.6524 25.828 23.6508 25.8273C23.6493 25.8265 23.6477 25.8258 23.6459 25.8258C23.4897 25.7431 23.3842 25.5772 23.3842 25.3856C23.3842 25.1079 23.6108 24.8814 23.8887 24.8814C23.9527 24.8814 24.0133 24.8913 24.0675 24.9134C24.1119 24.9292 24.1505 24.9519 24.1886 24.9804C24.2589 25.0252 24.3258 25.073 24.3863 25.1271Z" fill="#713DFF" style="fill:#713DFF;fill:color(display-p3 0.4431 0.2392 1.0000);fill-opacity:1;"/>
<path fill-rule="evenodd" clip-rule="evenodd" d="M36.6137 14.5939C36.5762 14.651 36.5289 14.7081 36.4816 14.7651L36.4811 14.7663C36.4626 14.7849 36.4436 14.8134 36.4436 14.8326C36.9718 15.4038 37.5092 16.3371 37.5092 17.7747C37.5092 19.0696 37.0658 20.1741 36.236 20.9834C34.9155 22.259 33.0392 22.3638 32.4545 22.3638H28.154C27.3334 22.3638 26.6732 21.6972 26.6732 20.8687C26.6732 20.0401 27.3334 19.3735 28.154 19.3735H32.4164C32.4276 19.3735 32.4388 19.3703 32.448 19.3676C32.4545 19.3657 32.4599 19.3642 32.4637 19.3642H33.0957C33.888 19.3642 34.5292 18.7074 34.5292 17.9074C34.5292 17.1074 33.888 16.46 33.0957 16.4507H28.154C27.3334 16.4507 26.664 15.7747 26.664 14.9462V14.927C26.664 14.0985 27.3242 13.4318 28.1447 13.4318H32.4072C32.4184 13.4318 32.4296 13.4286 32.4388 13.4259C32.4452 13.424 32.4507 13.4225 32.4545 13.4225H32.7093C32.9077 13.4225 33.0962 13.4225 33.2658 13.4132C33.9727 13.3177 34.5199 12.7087 34.5199 11.9657C34.5199 11.1657 33.8787 10.5183 33.0864 10.509H28.1447C27.3242 10.509 26.6547 9.83301 26.6547 9.00449C26.6547 8.17597 27.3242 7.5 28.1447 7.5H32.5392C34.9345 7.5 35.7453 8.2045 36.4245 8.89037C36.9527 9.46154 37.4901 10.3949 37.4901 11.8324C37.4901 12.5846 37.3396 13.2705 37.0565 13.8702V13.8795C37.0098 14.0129 36.9435 14.127 36.8587 14.2411C36.8489 14.2411 36.8397 14.251 36.8397 14.2603C36.8253 14.2822 36.8115 14.3034 36.7979 14.3242C36.7585 14.3849 36.7215 14.4416 36.6794 14.4984C36.6673 14.5236 36.651 14.5445 36.6359 14.564C36.6279 14.5742 36.6202 14.5841 36.6137 14.5939ZM13.5192 9.01381C13.5192 9.84233 12.8589 10.509 12.0384 10.509C11.2179 10.509 10.5576 9.84233 10.5576 9.01381C10.5576 8.18587 11.2184 7.51921 12.0384 7.51921C12.8584 7.51921 13.5192 8.18529 13.5192 9.01381ZM10.5576 12.9468C10.5576 12.1183 11.2179 11.4516 12.0384 11.4516C12.8589 11.4516 13.5284 12.1183 13.5192 12.9468V20.8692C13.5192 21.6978 12.8589 22.3644 12.0384 22.3644C11.2179 22.3644 10.5576 21.6978 10.5576 20.8692V12.9468ZM20.8176 11.4324C19.3939 11.4324 18.4695 11.975 17.9039 12.5084C17.7245 12.3465 17.5267 12.2039 17.3192 12.0705C17.2061 11.9849 17.0931 11.918 16.9611 11.8708C16.8008 11.8045 16.6214 11.7753 16.4329 11.7753C15.6123 11.7753 14.9429 12.4513 14.9429 13.2798C14.9429 13.851 15.2543 14.3465 15.7161 14.5939C15.7207 14.5939 15.7255 14.5963 15.7303 14.5986C15.735 14.6009 15.7398 14.6032 15.7444 14.6032C15.8469 14.6596 15.9123 14.7257 15.9684 14.7823L15.9704 14.7843C16.3475 15.175 16.4796 15.8696 16.5176 16.2981C16.5176 16.3609 16.5204 16.4209 16.5229 16.4748C16.525 16.5189 16.5269 16.559 16.5269 16.5933V20.8687C16.5269 21.6972 17.1963 22.3732 18.0169 22.3732C18.8374 22.3732 19.5069 21.6972 19.5069 20.8687V16.5456V15.8888V15.8795C19.5161 15.0795 20.1573 14.4321 20.9496 14.4321C21.7419 14.4321 22.3923 15.0795 22.3923 15.8795V15.8888V16.517C22.3923 16.5209 22.3939 16.5264 22.3957 16.5328C22.3983 16.5421 22.4015 16.5535 22.4015 16.5648V20.8687C22.4015 21.6972 23.0618 22.3638 23.8823 22.3638C24.7029 22.3638 25.3631 21.6972 25.3631 20.8687V16.5264C25.3631 15.936 25.2593 14.0414 23.9959 12.7081C23.1944 11.8796 22.1005 11.4324 20.8181 11.4324H20.8176Z" fill="#102F76" style="fill:#102F76;fill:color(display-p3 0.0627 0.1843 0.4627);fill-opacity:1;"/>
</g>
</g>
<defs>
<clipPath id="clip0_3586_716">
<rect width="48" height="36" rx="6" fill="white" style="fill:white;fill-opacity:1;"/>
</clipPath>
<clipPath id="clip1_3586_716">
<rect width="27" height="21" fill="white" style="fill:white;fill-opacity:1;" transform="translate(10.5 7.5)"/>
</clipPath>
</defs>
</svg>
