<svg width="40" height="30" viewBox="0 0 40 30" fill="none" xmlns="http://www.w3.org/2000/svg">
<g clip-path="url(#clip0_3586_717)">
<rect width="40" height="30" fill="#F8F9FE" style="fill:#F8F9FE;fill:color(display-p3 0.9725 0.9765 0.9961);fill-opacity:1;"/>
<g clip-path="url(#clip1_3586_717)">
<path fill-rule="evenodd" clip-rule="evenodd" d="M18.6987 20.4648C18.926 20.4648 19.1091 20.2818 19.1091 20.0548C19.1091 19.8277 18.926 19.6448 18.6987 19.6448C18.4715 19.6448 18.2884 19.8277 18.2884 20.0548C18.2884 20.2818 18.4715 20.4648 18.6987 20.4648ZM8.91146 22.9912C9.00083 22.9912 9.07291 22.9189 9.07291 22.8296V20.7627C9.07291 20.6734 9.00083 20.6011 8.91146 20.6011C8.82208 20.6016 8.75 20.5293 8.75 20.44V20.0742C8.75 19.9849 8.82208 19.9126 8.91146 19.9126H10.4405C11.2213 19.9126 11.636 20.3755 11.636 20.9727C11.636 21.2634 11.4635 21.5273 11.2324 21.6617V21.6942C11.5015 21.8233 11.7547 22.1033 11.7547 22.5229C11.7547 23.2551 11.1896 23.6801 10.5539 23.6801H8.91146C8.82208 23.6801 8.75 23.6078 8.75 23.5186V23.1527C8.75 23.0635 8.82208 22.9912 8.91146 22.9912ZM10.4299 21.4143C10.6721 21.4143 10.8335 21.242 10.8335 21.0213C10.8335 20.8005 10.661 20.6389 10.4299 20.6389H10.0099C9.92055 20.6389 9.84848 20.7112 9.84848 20.8005V21.2527C9.84848 21.342 9.92055 21.4143 10.0099 21.4143H10.4299ZM10.4462 22.9591C10.7206 22.9591 10.9364 22.7816 10.9364 22.5016C10.9364 22.2216 10.7158 22.0494 10.441 22.0494H10.0104C9.92103 22.0494 9.84896 22.1217 9.84896 22.211V22.7976C9.84896 22.8868 9.92103 22.9591 10.0104 22.9591H10.4462ZM12.1853 22.749V21.0596C12.1853 20.9402 12.2818 20.8437 12.4015 20.8437H12.7369C12.8666 20.8437 12.9719 20.949 12.9719 21.0785V22.4963C12.9719 22.7549 13.1309 22.9514 13.3654 22.9858C13.6624 23.0295 13.9248 22.7845 13.9248 22.4841V21.0683C13.9248 20.9441 14.0252 20.8437 14.1492 20.8437H14.486C14.61 20.8437 14.7104 20.9441 14.7104 21.0683V23.5035C14.7104 23.601 14.6311 23.6806 14.5336 23.6806H14.1828C14.0401 23.6806 13.9243 23.5651 13.9243 23.4225H13.8705C13.7412 23.6054 13.5096 23.751 13.1814 23.751C12.5836 23.751 12.1853 23.3041 12.1853 22.75V22.749ZM15.5826 22.7554L15.5753 22.7568L15.5758 22.7578C15.3212 22.8034 15.1981 23.0994 15.3485 23.3094C15.5633 23.6093 15.9372 23.751 16.3581 23.751C17.0957 23.751 17.5426 23.358 17.5426 22.7874C17.5426 22.1233 16.9822 22.0014 16.546 21.9066C16.268 21.8462 16.0405 21.7967 16.0405 21.6249C16.0405 21.5006 16.1698 21.4201 16.3581 21.4201C16.4975 21.4201 16.6166 21.4676 16.7046 21.5657C16.7925 21.6637 16.9295 21.7025 17.0568 21.668C17.3192 21.5972 17.4095 21.2663 17.2149 21.0761C17.0116 20.8767 16.7132 20.7738 16.3471 20.7738C15.7171 20.7738 15.2649 21.1668 15.2649 21.6564C15.2649 22.3442 15.8151 22.4681 16.246 22.5651C16.5233 22.6275 16.7512 22.6788 16.7512 22.8621C16.7512 22.9965 16.6325 23.0882 16.3956 23.0882C16.2044 23.0882 16.029 23.028 15.9324 22.8985C15.8507 22.7893 15.7171 22.7311 15.5826 22.7554ZM22.8831 22.2648C22.8831 21.3769 23.54 20.7738 24.3314 20.7738C25.2036 20.7738 25.7475 21.4196 25.7475 22.2595C25.7475 22.3696 25.6581 22.4584 25.5481 22.4584H23.6904C23.6957 22.8296 23.9706 23.0557 24.342 23.0557C24.5707 23.0557 24.7908 22.9756 24.9129 22.7937C24.9436 22.7481 24.9994 22.7267 25.0527 22.7393L25.5053 22.8437C25.5875 22.8626 25.6322 22.9519 25.5976 23.0285C25.3597 23.5511 24.8562 23.75 24.3526 23.75C23.4857 23.75 22.8826 23.1202 22.8826 22.2643L22.8831 22.2648ZM24.8427 21.9363C24.9047 21.9363 24.9479 21.8747 24.9263 21.8165C24.8432 21.5904 24.6169 21.4254 24.3314 21.4254C24.0253 21.4254 23.8134 21.6059 23.7298 21.8131C23.7063 21.8723 23.7486 21.9368 23.8125 21.9368H24.8427V21.9363ZM26.8599 22.8543C26.8129 22.7675 26.7124 22.7243 26.6154 22.7418V22.7423C26.2977 22.799 26.1714 23.1896 26.3982 23.4196C26.6192 23.6437 26.9488 23.7505 27.3145 23.7505C28.0521 23.7505 28.499 23.3575 28.499 22.7869C28.499 22.1228 27.9386 22.0009 27.5024 21.9061C27.2244 21.8457 26.9969 21.7962 26.9969 21.6244C26.9969 21.5002 27.1262 21.4196 27.3145 21.4196C27.4327 21.4196 27.5389 21.457 27.6197 21.5254C27.7547 21.6399 27.9325 21.6899 28.1031 21.6438L28.1252 21.638C28.3078 21.5889 28.3943 21.374 28.2885 21.2173C28.092 20.9257 27.748 20.7743 27.3035 20.7743C26.6735 20.7743 26.2213 21.1673 26.2213 21.6569C26.2213 22.3447 26.7715 22.4686 27.2024 22.5655C27.4797 22.628 27.7076 22.6793 27.7076 22.8626C27.7076 22.997 27.5889 23.0887 27.352 23.0887C27.1396 23.0887 26.9474 23.0149 26.8599 22.8543ZM29.2832 22.7568C29.4221 22.7321 29.5581 22.7932 29.6446 22.9043C29.7421 23.03 29.9151 23.0882 30.1039 23.0882C30.3408 23.0882 30.4595 22.9965 30.4595 22.8621C30.4595 22.6788 30.2317 22.6275 29.9544 22.5651C29.5235 22.4681 28.9733 22.3442 28.9733 21.6564C28.9733 21.1668 29.4255 20.7738 30.0554 20.7738C30.4216 20.7738 30.7195 20.8767 30.9232 21.0761C31.1179 21.2663 31.0275 21.5972 30.7651 21.668C30.6378 21.7025 30.5009 21.6637 30.4129 21.5657C30.325 21.4676 30.2058 21.4201 30.0665 21.4201C29.8781 21.4201 29.7488 21.5006 29.7488 21.6249C29.7488 21.7967 29.9764 21.8462 30.2544 21.9066C30.6906 22.0014 31.251 22.1233 31.251 22.7874C31.251 23.358 30.8041 23.751 30.0665 23.751C29.6455 23.751 29.2717 23.6093 29.0569 23.3094C28.9065 23.0994 29.0295 22.8034 29.2842 22.7578L29.2832 22.7568ZM18.2884 21.1333C18.2884 20.9063 18.4715 20.7234 18.6987 20.7234C18.926 20.7234 19.1115 20.9063 19.1091 21.1333V23.3065C19.1091 23.5336 18.926 23.7165 18.6987 23.7165C18.4715 23.7165 18.2884 23.5336 18.2884 23.3065V21.1333ZM20.3219 20.9393C20.4815 20.7903 20.7419 20.6389 21.1436 20.6389L21.1451 20.6385C21.5064 20.6385 21.8149 20.7631 22.0413 20.9946C22.3978 21.3672 22.4271 21.8961 22.4271 22.061V23.2735C22.4271 23.5045 22.2412 23.6908 22.0095 23.6908C21.7779 23.6908 21.592 23.505 21.592 23.2735V22.0717C21.592 22.0685 21.5909 22.0653 21.5901 22.0628C21.5896 22.061 21.5891 22.0596 21.5891 22.0586V21.883V21.8805C21.5891 21.6574 21.4055 21.4764 21.1821 21.4764C20.9586 21.4764 20.778 21.6574 20.7751 21.8805V21.883V22.0664V23.2735C20.7751 23.505 20.5862 23.6937 20.3546 23.6937C20.123 23.6937 19.9342 23.505 19.9342 23.2735V22.0795C19.9342 22.0699 19.9336 22.0587 19.9329 22.0464C19.9322 22.0314 19.9313 22.0146 19.9313 21.997C19.9207 21.8776 19.8832 21.6836 19.777 21.5744C19.7612 21.5584 19.7424 21.5399 19.7131 21.5239C19.7117 21.5239 19.7104 21.5233 19.709 21.5227C19.7077 21.5221 19.7064 21.5215 19.705 21.5215C19.5747 21.4526 19.4868 21.3143 19.4868 21.1547C19.4868 20.9233 19.6756 20.7345 19.9073 20.7345C19.9606 20.7345 20.011 20.7428 20.0562 20.7612C20.0932 20.7743 20.1254 20.7932 20.1571 20.817C20.2158 20.8544 20.2715 20.8941 20.3219 20.9393Z" fill="#713DFF" style="fill:#713DFF;fill:color(display-p3 0.4431 0.2392 1.0000);fill-opacity:1;"/>
<path fill-rule="evenodd" clip-rule="evenodd" d="M30.5115 12.1616C30.4802 12.2092 30.4408 12.2567 30.4014 12.3043L30.401 12.3052C30.3856 12.3208 30.3697 12.3445 30.3697 12.3605C30.8099 12.8365 31.2577 13.6143 31.2577 14.8122C31.2577 15.8913 30.8882 16.8117 30.1967 17.4861C29.0963 18.5492 27.5327 18.6365 27.0455 18.6365H23.4617C22.7779 18.6365 22.2277 18.081 22.2277 17.3906C22.2277 16.7001 22.7779 16.1446 23.4617 16.1446H27.0138C27.0231 16.1446 27.0324 16.1419 27.0401 16.1397C27.0455 16.1381 27.05 16.1368 27.0532 16.1368H27.5798C28.24 16.1368 28.7744 15.5895 28.7744 14.9229C28.7744 14.2562 28.24 13.7167 27.5798 13.7089H23.4617C22.7779 13.7089 22.2201 13.1456 22.2201 12.4552V12.4391C22.2201 11.7487 22.7703 11.1932 23.454 11.1932H27.0061C27.0154 11.1932 27.0248 11.1905 27.0324 11.1883C27.0378 11.1867 27.0423 11.1854 27.0455 11.1854H27.2579C27.4232 11.1854 27.5803 11.1854 27.7216 11.1776C28.3107 11.0981 28.7667 10.5906 28.7667 9.97144C28.7667 9.30479 28.2324 8.76525 27.5721 8.75749H23.454C22.7703 8.75749 22.2124 8.19418 22.2124 7.50374C22.2124 6.81331 22.7703 6.25 23.454 6.25H27.1161C29.1122 6.25 29.7878 6.83709 30.3539 7.40864C30.794 7.88462 31.2419 8.66239 31.2419 9.86033C31.2419 10.4872 31.1165 11.0588 30.8805 11.5585V11.5663C30.8416 11.6774 30.7863 11.7725 30.7157 11.8676C30.7075 11.8676 30.6998 11.8758 30.6998 11.8836C30.6878 11.9018 30.6763 11.9195 30.665 11.9368C30.6321 11.9874 30.6013 12.0347 30.5663 12.082C30.5562 12.103 30.5426 12.1204 30.53 12.1367C30.5233 12.1452 30.5169 12.1534 30.5115 12.1616ZM11.2661 7.51151C11.2661 8.20194 10.7159 8.75749 10.0321 8.75749C9.34829 8.75749 8.7981 8.20194 8.7981 7.51151C8.7981 6.82156 9.34877 6.26601 10.0321 6.26601C10.7154 6.26601 11.2661 6.82107 11.2661 7.51151ZM8.7981 10.789C8.7981 10.0986 9.34829 9.54302 10.0321 9.54302C10.7159 9.54302 11.2737 10.0986 11.2661 10.789V17.391C11.2661 18.0815 10.7159 18.637 10.0321 18.637C9.34829 18.637 8.7981 18.0815 8.7981 17.391V10.789ZM17.348 9.527C16.1616 9.527 15.3914 9.9792 14.92 10.4236C14.7705 10.2888 14.6057 10.1699 14.4327 10.0588C14.3385 9.98745 14.2443 9.93166 14.1343 9.89235C14.0007 9.83704 13.8513 9.81278 13.6941 9.81278C13.0104 9.81278 12.4525 10.3761 12.4525 11.0665C12.4525 11.5425 12.712 11.9554 13.0969 12.1616C13.1007 12.1616 13.1047 12.1636 13.1086 12.1655C13.1126 12.1674 13.1166 12.1694 13.1204 12.1694C13.2059 12.2164 13.2604 12.2714 13.3071 12.3186L13.3088 12.3203C13.623 12.6458 13.7331 13.2247 13.7648 13.5818C13.7648 13.6341 13.7671 13.6841 13.7692 13.729C13.7709 13.7658 13.7725 13.7992 13.7725 13.8278V17.3906C13.7725 18.081 14.3304 18.6443 15.0141 18.6443C15.6979 18.6443 16.2558 18.081 16.2558 17.3906V13.788V13.2407V13.2329C16.2635 12.5663 16.7978 12.0267 17.4581 12.0267C18.1183 12.0267 18.6603 12.5663 18.6603 13.2329V13.2407V13.7642C18.6603 13.7674 18.6616 13.772 18.6632 13.7774C18.6654 13.7851 18.668 13.7946 18.668 13.804V17.3906C18.668 18.081 19.2182 18.6365 19.902 18.6365C20.5858 18.6365 21.136 18.081 21.136 17.3906V13.772C21.136 13.28 21.0495 11.7012 19.9967 10.5901C19.3288 9.89963 18.4172 9.527 17.3485 9.527H17.348Z" fill="#102F76" style="fill:#102F76;fill:color(display-p3 0.0627 0.1843 0.4627);fill-opacity:1;"/>
</g>
</g>
<defs>
<clipPath id="clip0_3586_717">
<rect width="40" height="30" rx="5" fill="white" style="fill:white;fill-opacity:1;"/>
</clipPath>
<clipPath id="clip1_3586_717">
<rect width="22.5" height="17.5" fill="white" style="fill:white;fill-opacity:1;" transform="translate(8.75 6.25)"/>
</clipPath>
</defs>
</svg>
