<svg width="32" height="32" viewBox="0 0 32 32" fill="none" xmlns="http://www.w3.org/2000/svg">
<rect width="32" height="32" rx="8" fill="#FFA8CD" style="fill:#FFA8CD;fill:color(display-p3 1.0000 0.6588 0.8039);fill-opacity:1;"/>
<path d="M26.5904 18.1963C25.9857 18.1963 25.5145 17.6963 25.5145 17.0892C25.5145 16.4821 25.9857 15.9821 26.5904 15.9821C27.195 15.9821 27.6662 16.4821 27.6662 17.0892C27.6662 17.6963 27.195 18.1963 26.5904 18.1963ZM26.2879 19.3659C26.8037 19.3659 27.4617 19.1695 27.8264 18.4016L27.8619 18.4195C27.7019 18.8391 27.7019 19.0891 27.7019 19.1516V19.2498H29V14.9285H27.7019V15.0267C27.7019 15.0892 27.7019 15.3392 27.8619 15.7589L27.8264 15.7767C27.4617 15.0089 26.8037 14.8125 26.2879 14.8125C25.0521 14.8125 24.1807 15.7946 24.1807 17.0892C24.1807 18.3838 25.0521 19.3659 26.2879 19.3659ZM21.9221 14.8125C21.3352 14.8125 20.8728 15.0178 20.4994 15.7767L20.4638 15.7589C20.6239 15.3392 20.6239 15.0892 20.6239 15.0267V14.9285H19.3256V19.2498H20.6594V16.9731C20.6594 16.3749 21.0062 15.9999 21.5664 15.9999C22.1266 15.9999 22.4023 16.3213 22.4023 16.9642V19.2498H23.7361V16.4999C23.7361 15.5178 22.9712 14.8125 21.9221 14.8125ZM17.3961 15.7767L17.3605 15.7589C17.5206 15.3392 17.5206 15.0892 17.5206 15.0267V14.9285H16.2224V19.2498H17.5561L17.565 17.1695C17.565 16.5624 17.8851 16.1963 18.4098 16.1963C18.552 16.1963 18.6676 16.2142 18.801 16.2499V14.9285C18.2141 14.8035 17.6895 15.0267 17.3961 15.7767ZM13.1546 18.1963C12.55 18.1963 12.0787 17.6963 12.0787 17.0892C12.0787 16.4821 12.55 15.9821 13.1546 15.9821C13.7593 15.9821 14.2305 16.4821 14.2305 17.0892C14.2305 17.6963 13.7593 18.1963 13.1546 18.1963ZM12.8523 19.3659C13.368 19.3659 14.026 19.1695 14.3906 18.4016L14.4262 18.4195C14.2661 18.8391 14.2661 19.0891 14.2661 19.1516V19.2498H15.5643V14.9285H14.2661V15.0267C14.2661 15.0892 14.2661 15.3392 14.4262 15.7589L14.3906 15.7767C14.026 15.0089 13.368 14.8125 12.8523 14.8125C11.6163 14.8125 10.7449 15.7946 10.7449 17.0892C10.7449 18.3838 11.6163 19.3659 12.8523 19.3659ZM8.88647 19.2498H10.2203V13H8.88647V19.2498ZM7.90837 13H6.54788C6.54788 14.1161 5.86321 15.116 4.82285 15.8303L4.41381 16.116V13H3V19.2498H4.41381V16.1517L6.7524 19.2498H8.47746L6.22778 16.2856C7.25035 15.5446 7.91725 14.3928 7.90837 13Z" fill="#0B051D" style="fill:#0B051D;fill:color(display-p3 0.0431 0.0196 0.1137);fill-opacity:1;"/>
</svg>
