<svg width="48" height="36" viewBox="0 0 48 36" fill="none" xmlns="http://www.w3.org/2000/svg">
<rect width="48" height="36" rx="6" fill="#FFA8CD" style="fill:#FFA8CD;fill:color(display-p3 1.0000 0.6588 0.8039);fill-opacity:1;"/>
<path d="M40.2929 20.9943C39.3627 20.9943 38.6377 20.2251 38.6377 19.2911C38.6377 18.357 39.3627 17.5878 40.2929 17.5878C41.2231 17.5878 41.9481 18.357 41.9481 19.2911C41.9481 20.2251 41.2231 20.9943 40.2929 20.9943ZM39.8276 22.7937C40.6211 22.7937 41.6334 22.4915 42.1945 21.3102L42.249 21.3377C42.0029 21.9833 42.0029 22.3679 42.0029 22.4641V22.6151H44V15.967H42.0029V16.1181C42.0029 16.2142 42.0029 16.5988 42.249 17.2444L42.1945 17.2719C41.6334 16.0906 40.6211 15.7884 39.8276 15.7884C37.9263 15.7884 36.5857 17.2994 36.5857 19.2911C36.5857 21.2827 37.9263 22.7937 39.8276 22.7937ZM33.1109 15.7884C32.208 15.7884 31.4967 16.1043 30.9221 17.2719L30.8674 17.2444C31.1136 16.5988 31.1136 16.2142 31.1136 16.1181V15.967H29.1164V22.6151H31.1684V19.1125C31.1684 18.1922 31.7019 17.6153 32.5637 17.6153C33.4256 17.6153 33.8496 18.1097 33.8496 19.0987V22.6151H35.9016V18.3845C35.9016 16.8735 34.725 15.7884 33.1109 15.7884ZM26.1478 17.2719L26.0931 17.2444C26.3393 16.5988 26.3393 16.2142 26.3393 16.1181V15.967H24.3421V22.6151H26.3941L26.4077 19.4147C26.4077 18.4806 26.9002 17.9174 27.7073 17.9174C27.9262 17.9174 28.1041 17.9449 28.3093 17.9999V15.967C27.4064 15.7747 26.5993 16.1181 26.1478 17.2719ZM19.6225 20.9943C18.6922 20.9943 17.9672 20.2251 17.9672 19.2911C17.9672 18.357 18.6922 17.5878 19.6225 17.5878C20.5527 17.5878 21.2778 18.357 21.2778 19.2911C21.2778 20.2251 20.5527 20.9943 19.6225 20.9943ZM19.1574 22.7937C19.9508 22.7937 20.9631 22.4915 21.524 21.3102L21.5787 21.3377C21.3325 21.9833 21.3325 22.3679 21.3325 22.4641V22.6151H23.3297V15.967H21.3325V16.1181C21.3325 16.2142 21.3325 16.5988 21.5787 17.2444L21.524 17.2719C20.9631 16.0906 19.9508 15.7884 19.1574 15.7884C17.2558 15.7884 15.9152 17.2994 15.9152 19.2911C15.9152 21.2827 17.2558 22.7937 19.1574 22.7937ZM13.0561 22.6151H15.1081V13H13.0561V22.6151ZM11.5513 13H9.45828C9.45828 14.717 8.40494 16.2554 6.80438 17.3543L6.1751 17.7938V13H4V22.6151H6.1751V17.8488L9.77292 22.6151H12.4269L8.96581 18.0548C10.539 16.9148 11.565 15.1428 11.5513 13Z" fill="#0B051D" style="fill:#0B051D;fill:color(display-p3 0.0431 0.0196 0.1137);fill-opacity:1;"/>
</svg>
