<svg width="24" height="24" viewBox="0 0 24 24" fill="none" xmlns="http://www.w3.org/2000/svg">
<rect width="24" height="24" rx="6" fill="#FFA8CD" style="fill:#FFA8CD;fill:color(display-p3 1.0000 0.6588 0.8039);fill-opacity:1;"/>
<path d="M20.1464 13.9971C19.6813 13.9971 19.3188 13.6125 19.3188 13.1455C19.3188 12.6785 19.6813 12.2939 20.1464 12.2939C20.6115 12.2939 20.974 12.6785 20.974 13.1455C20.974 13.6125 20.6115 13.9971 20.1464 13.9971ZM19.9138 14.8969C20.3106 14.8969 20.8167 14.7458 21.0973 14.1551L21.1245 14.1689C21.0015 14.4916 21.0015 14.684 21.0015 14.732V14.8076H22V11.4835H21.0015V11.559C21.0015 11.6071 21.0015 11.7994 21.1245 12.1222L21.0973 12.1359C20.8167 11.5453 20.3106 11.3942 19.9138 11.3942C18.9632 11.3942 18.2929 12.1497 18.2929 13.1455C18.2929 14.1414 18.9632 14.8969 19.9138 14.8969ZM16.5555 11.3942C16.104 11.3942 15.7483 11.5522 15.4611 12.1359L15.4337 12.1222C15.5568 11.7994 15.5568 11.6071 15.5568 11.559V11.4835H14.5582V14.8076H15.5842V13.0562C15.5842 12.5961 15.8509 12.3076 16.2819 12.3076C16.7128 12.3076 16.9248 12.5549 16.9248 13.0494V14.8076H17.9508V12.6922C17.9508 11.9368 17.3625 11.3942 16.5555 11.3942ZM13.0739 12.1359L13.0465 12.1222C13.1697 11.7994 13.1697 11.6071 13.1697 11.559V11.4835H12.171V14.8076H13.197L13.2039 13.2073C13.2039 12.7403 13.4501 12.4587 13.8537 12.4587C13.9631 12.4587 14.052 12.4725 14.1546 12.4999V11.4835C13.7032 11.3873 13.2996 11.559 13.0739 12.1359ZM9.81125 13.9971C9.34612 13.9971 8.98361 13.6125 8.98361 13.1455C8.98361 12.6785 9.34612 12.2939 9.81125 12.2939C10.2764 12.2939 10.6389 12.6785 10.6389 13.1455C10.6389 13.6125 10.2764 13.9971 9.81125 13.9971ZM9.57869 14.8969C9.97541 14.8969 10.4816 14.7458 10.762 14.1551L10.7894 14.1689C10.6662 14.4916 10.6662 14.684 10.6662 14.732V14.8076H11.6649V11.4835H10.6662V11.559C10.6662 11.6071 10.6662 11.7994 10.7894 12.1222L10.762 12.1359C10.4816 11.5453 9.97541 11.3942 9.57869 11.3942C8.62792 11.3942 7.95762 12.1497 7.95762 13.1455C7.95762 14.1414 8.62792 14.8969 9.57869 14.8969ZM6.52805 14.8076H7.55406V10H6.52805V14.8076ZM5.77567 10H4.72914C4.72914 10.8585 4.20247 11.6277 3.40219 12.1771L3.08755 12.3969V10H2V14.8076H3.08755V12.4244L4.88646 14.8076H6.21343L4.48291 12.5274C5.2695 11.9574 5.7825 11.0714 5.77567 10Z" fill="#0B051D" style="fill:#0B051D;fill:color(display-p3 0.0431 0.0196 0.1137);fill-opacity:1;"/>
</svg>
