<svg width="40" height="40" viewBox="0 0 40 40" fill="none" xmlns="http://www.w3.org/2000/svg">
<rect width="40" height="40" rx="10" fill="#FFA8CD" style="fill:#FFA8CD;fill:color(display-p3 1.0000 0.6588 0.8039);fill-opacity:1;"/>
<path d="M33.0343 22.3954C32.2901 22.3954 31.7101 21.7801 31.7101 21.0329C31.7101 20.2856 32.2901 19.6702 33.0343 19.6702C33.7785 19.6702 34.3584 20.2856 34.3584 21.0329C34.3584 21.7801 33.7785 22.3954 33.0343 22.3954ZM32.6621 23.835C33.2969 23.835 34.1068 23.5932 34.5556 22.6482L34.5992 22.6702C34.4024 23.1866 34.4024 23.4943 34.4024 23.5713V23.6921H36V18.3736H34.4024V18.4945C34.4024 18.5714 34.4024 18.8791 34.5992 19.3955L34.5556 19.4175C34.1068 18.4725 33.2969 18.2307 32.6621 18.2307C31.1411 18.2307 30.0686 19.4395 30.0686 21.0329C30.0686 22.6262 31.1411 23.835 32.6621 23.835ZM27.2887 18.2307C26.5664 18.2307 25.9973 18.4835 25.5377 19.4175L25.4939 19.3955C25.6909 18.8791 25.6909 18.5714 25.6909 18.4945V18.3736H24.0931V23.6921H25.7347V20.89C25.7347 20.1538 26.1615 19.6922 26.851 19.6922C27.5405 19.6922 27.8797 20.0878 27.8797 20.879V23.6921H29.5213V20.3076C29.5213 19.0988 28.58 18.2307 27.2887 18.2307ZM21.7183 19.4175L21.6745 19.3955C21.8715 18.8791 21.8715 18.5714 21.8715 18.4945V18.3736H20.2737V23.6921H21.9153L21.9262 21.1317C21.9262 20.3845 22.3202 19.934 22.9659 19.934C23.141 19.934 23.2833 19.9559 23.4474 19.9999V18.3736C22.7251 18.2197 22.0794 18.4945 21.7183 19.4175ZM16.498 22.3954C15.7538 22.3954 15.1738 21.7801 15.1738 21.0329C15.1738 20.2856 15.7538 19.6702 16.498 19.6702C17.2422 19.6702 17.8222 20.2856 17.8222 21.0329C17.8222 21.7801 17.2422 22.3954 16.498 22.3954ZM16.1259 23.835C16.7607 23.835 17.5705 23.5932 18.0192 22.6482L18.063 22.6702C17.866 23.1866 17.866 23.4943 17.866 23.5713V23.6921H19.4638V18.3736H17.866V18.4945C17.866 18.5714 17.866 18.8791 18.063 19.3955L18.0192 19.4175C17.5705 18.4725 16.7607 18.2307 16.1259 18.2307C14.6047 18.2307 13.5322 19.4395 13.5322 21.0329C13.5322 22.6262 14.6047 23.835 16.1259 23.835ZM11.2449 23.6921H12.8865V16H11.2449V23.6921ZM10.0411 16H8.36662C8.36662 17.3736 7.52395 18.6043 6.24351 19.4834L5.74008 19.8351V16H4V23.6921H5.74008V19.879L8.61834 23.6921H10.7415L7.97265 20.0439C9.23119 19.1318 10.052 17.7142 10.0411 16Z" fill="#0B051D" style="fill:#0B051D;fill:color(display-p3 0.0431 0.0196 0.1137);fill-opacity:1;"/>
</svg>
