<svg width="32" height="32" viewBox="0 0 32 32" fill="none" xmlns="http://www.w3.org/2000/svg">
<rect width="32" height="32" rx="8" fill="black" style="fill:black;fill-opacity:1;"/>
<rect x="0.5" y="0.5" width="31" height="31" rx="7.5" stroke="white" stroke-opacity="0.1" style="stroke:white;stroke-opacity:0.1;"/>
<path fill-rule="evenodd" clip-rule="evenodd" d="M12.0779 22C15.3137 22 18 19.3137 18 16.0779C18 12.6863 15.3137 10 12.0779 10C8.68629 10 6 12.6863 6 16.0779C6 19.3137 8.68629 22 12.0779 22Z" fill="#E7001A" style="fill:#E7001A;fill:color(display-p3 0.9059 0.0000 0.1020);fill-opacity:1;"/>
<path fill-rule="evenodd" clip-rule="evenodd" d="M20.0779 22C23.3137 22 26 19.3137 26 16.0779C26 12.6863 23.3137 10 20.0779 10C16.6863 10 14 12.6863 14 16.0779C14 19.3137 16.6863 22 20.0779 22Z" fill="#F49B1C" style="fill:#F49B1C;fill:color(display-p3 0.9569 0.6078 0.1098);fill-opacity:1;"/>
<path opacity="0.3" fill-rule="evenodd" clip-rule="evenodd" d="M16.012 11.5355C14.7725 12.6432 14 14.2591 14 16.0779C14 17.8131 14.7725 19.3903 16.012 20.4799C17.2275 19.3903 18 17.8131 18 16.0779C18 14.2591 17.2275 12.6432 16.012 11.5355Z" fill="#E7001A" style="fill:#E7001A;fill:color(display-p3 0.9059 0.0000 0.1020);fill-opacity:1;"/>
</svg>
