<svg width="48" height="36" viewBox="0 0 48 36" fill="none" xmlns="http://www.w3.org/2000/svg">
<rect width="48" height="36" rx="6" fill="black" style="fill:black;fill-opacity:1;"/>
<path d="M19.5 25.5C23.6421 25.5 27 22.1421 27 18C27 13.8579 23.6421 10.5 19.5 10.5C15.3579 10.5 12 13.8579 12 18C12 22.1421 15.3579 25.5 19.5 25.5Z" fill="#E7001A" style="fill:#E7001A;fill:color(display-p3 0.9059 0.0000 0.1020);fill-opacity:1;"/>
<path d="M28.5 25.5C32.6421 25.5 36 22.1421 36 18C36 13.8579 32.6421 10.5 28.5 10.5C24.3579 10.5 21 13.8579 21 18C21 22.1421 24.3579 25.5 28.5 25.5Z" fill="#F49B1C" style="fill:#F49B1C;fill:color(display-p3 0.9569 0.6078 0.1098);fill-opacity:1;"/>
<path opacity="0.3" fill-rule="evenodd" clip-rule="evenodd" d="M24 11.9995C25.8217 13.3678 27 15.5463 27 18C27 20.4537 25.8217 22.6322 24 24.0005C22.1783 22.6322 21 20.4537 21 18C21 15.5463 22.1783 13.3678 24 11.9995Z" fill="#E7001A" style="fill:#E7001A;fill:color(display-p3 0.9059 0.0000 0.1020);fill-opacity:1;"/>
</svg>
