<svg width="40" height="30" viewBox="0 0 40 30" fill="none" xmlns="http://www.w3.org/2000/svg">
<rect width="40" height="30" rx="5" fill="white" style="fill:white;fill-opacity:1;"/>
<path fill-rule="evenodd" clip-rule="evenodd" d="M19.9463 24.2049H28.2084C30.0938 24.2049 30.1134 22.2003 29.9208 21.2111C29.816 20.5455 28.6853 20.556 28.5609 21.2111V21.9828C28.5605 22.153 28.4928 22.3161 28.3724 22.4364C28.2521 22.5567 28.089 22.6245 27.9189 22.6248H12.0811C11.911 22.6245 11.7479 22.5567 11.6276 22.4364C11.5072 22.3161 11.4395 22.153 11.4392 21.9828V21.2111C11.3147 20.556 10.184 20.5455 10.0792 21.2111C9.88656 22.2003 9.90622 24.2049 11.7916 24.2049H19.9463ZM14.1067 5H26.8445C27.7394 5 28.4718 5.77564 28.4718 6.72291V7.54572C28.4718 8.70918 26.8995 8.70394 26.8995 7.55358V7.10549C26.8995 6.9665 26.8443 6.8332 26.746 6.73491C26.6477 6.63663 26.5144 6.58141 26.3754 6.58141H13.6115C13.4725 6.58141 13.3392 6.63663 13.2409 6.73491C13.1426 6.8332 13.0874 6.9665 13.0874 7.10549V7.54572C13.0874 8.70263 11.5859 8.69477 11.5859 7.57061V6.72422C11.5898 5.77695 12.3209 5 13.2158 5H14.1067Z" fill="#FF0000" style="fill:#FF0000;fill:color(display-p3 1.0000 0.0000 0.0000);fill-opacity:1;"/>
<path fill-rule="evenodd" clip-rule="evenodd" d="M28.1508 14.4609C28.5882 14.6562 28.9607 14.9723 29.2248 15.3719C29.4889 15.7715 29.6336 16.2382 29.6418 16.7171C29.6418 18.1033 28.4312 19.2379 26.9519 19.2379H22.8025C22.6225 19.2433 22.4477 19.1775 22.3158 19.0549C22.1838 18.9323 22.1055 18.7627 22.0977 18.5828V10.6849C22.0983 10.5014 22.1716 10.3257 22.3015 10.1961C22.4314 10.0664 22.6073 9.99349 22.7908 9.99314H26.2458C26.7638 9.99194 27.2707 10.1433 27.7032 10.4284C28.1358 10.7134 28.4748 11.1196 28.678 11.5961C28.8812 12.0726 28.9395 12.5984 28.8458 13.1079C28.752 13.6174 28.5103 14.088 28.1508 14.4609ZM25.0548 13.8189H26.3715V13.8045C26.667 13.7581 26.9364 13.6081 27.1313 13.3812C27.3262 13.1543 27.434 12.8655 27.4354 12.5664C27.4344 12.2345 27.3021 11.9165 27.0674 11.6818C26.8327 11.4472 26.5147 11.3149 26.1829 11.3138H23.5297V17.8648H26.893C27.0664 17.8703 27.2391 17.841 27.4009 17.7784C27.5627 17.7159 27.7102 17.6215 27.8348 17.5008C27.9594 17.3801 28.0585 17.2356 28.1261 17.0759C28.1938 16.9162 28.2286 16.7445 28.2286 16.571C28.2286 16.3975 28.1938 16.2259 28.1261 16.0661C28.0585 15.9064 27.9594 15.7619 27.8348 15.6412C27.7102 15.5205 27.5627 15.4261 27.4009 15.3636C27.2391 15.301 27.0664 15.2717 26.893 15.2772H26.3689H25.0548C24.9593 15.2772 24.8647 15.2584 24.7765 15.2218C24.6883 15.1853 24.6081 15.1317 24.5406 15.0642C24.4731 14.9967 24.4195 14.9165 24.383 14.8283C24.3464 14.7401 24.3276 14.6455 24.3276 14.55C24.3276 14.4545 24.3464 14.36 24.383 14.2717C24.4195 14.1835 24.4731 14.1034 24.5406 14.0358C24.6081 13.9683 24.6883 13.9148 24.7765 13.8782C24.8647 13.8417 24.9593 13.8229 25.0548 13.8229" fill="#1D1D1B" style="fill:#1D1D1B;fill:color(display-p3 0.1137 0.1137 0.1059);fill-opacity:1;"/>
<path d="M21.4386 18.4505C21.4546 18.5614 21.4481 18.6744 21.4195 18.7828C21.3908 18.8912 21.3406 18.9926 21.2718 19.0811C21.203 19.1696 21.117 19.2433 21.0191 19.2978C20.9211 19.3523 20.8132 19.3865 20.7017 19.3983C20.5903 19.4102 20.4775 19.3994 20.3703 19.3666C20.2631 19.3338 20.1637 19.2798 20.0778 19.2077C19.992 19.1356 19.9216 19.0469 19.8709 18.947C19.8201 18.847 19.7901 18.7379 19.7825 18.626L19.0973 12.3488L16.6852 18.4871V18.5029V18.516V18.5291V18.5369V18.5487V18.5618C16.6323 18.6544 16.5615 18.7354 16.4769 18.8003L16.4638 18.8108C16.4199 18.8504 16.3715 18.8847 16.3196 18.913L16.3039 18.9208L16.2895 18.9287H16.2803H16.2698H16.2607H16.2502H16.2423H16.2332H16.2253H16.2174H16.207C16.1286 18.9566 16.0464 18.9721 15.9633 18.9745H15.903C15.8095 18.9719 15.7173 18.9528 15.6305 18.9182H15.6187H15.6069H15.5964H15.5885H15.5781H15.5689H15.5623L15.5479 18.9103L15.5348 18.9025H15.527C15.4805 18.8777 15.4366 18.8483 15.3959 18.8147L15.3684 18.7898L15.3475 18.7701L15.2977 18.757L15.2728 18.7295C15.2392 18.6889 15.2098 18.645 15.185 18.5985V18.5906L15.1771 18.5775L15.1693 18.5631V18.554V18.5435V18.5356V18.5238V18.5133V18.5015L12.7126 12.3488L12.03 18.626C12.0068 18.8455 11.8973 19.0467 11.7256 19.1854C11.554 19.3241 11.3343 19.3889 11.1149 19.3656C10.8954 19.3423 10.6942 19.2328 10.5555 19.0612C10.4168 18.8896 10.352 18.6699 10.3753 18.4505L11.1797 11.0504C11.1991 10.8762 11.2516 10.7072 11.3343 10.5526C11.4375 10.3594 11.5852 10.1935 11.7652 10.0687C11.9452 9.94383 12.1523 9.86359 12.3694 9.83457H12.4139C12.4841 9.82936 12.5546 9.82936 12.6249 9.83457C12.7096 9.83794 12.7938 9.84935 12.8764 9.86864C13.0938 9.91841 13.2956 10.0206 13.4644 10.1663C13.6332 10.312 13.7637 10.4968 13.8447 10.7045L15.9069 15.9165L17.9652 10.6875C18.062 10.4397 18.229 10.2254 18.4456 10.0709C18.6622 9.91637 18.9192 9.82834 19.185 9.81754C19.2553 9.81233 19.3258 9.81233 19.396 9.81754H19.4405C19.6576 9.84676 19.8646 9.92708 20.0445 10.0519C20.2245 10.1767 20.3722 10.3425 20.4756 10.5355C20.5158 10.613 20.5495 10.6936 20.5765 10.7766C20.603 10.862 20.621 10.9497 20.6302 11.0386L21.4386 18.4505Z" fill="#1D1D1B" style="fill:#1D1D1B;fill:color(display-p3 0.1137 0.1137 0.1059);fill-opacity:1;"/>
</svg>
