<svg width="48" height="36" viewBox="0 0 48 36" fill="none" xmlns="http://www.w3.org/2000/svg">
<rect width="48" height="36" rx="6" fill="white" style="fill:white;fill-opacity:1;"/>
<path fill-rule="evenodd" clip-rule="evenodd" d="M23.9355 29.0459H33.8501C36.1125 29.0459 36.1361 26.6404 35.905 25.4533C35.7792 24.6546 34.4224 24.6672 34.273 25.4533V26.3794C34.2726 26.5836 34.1913 26.7793 34.0469 26.9237C33.9025 27.0681 33.7068 27.1494 33.5026 27.1498H14.4974C14.2932 27.1494 14.0975 27.0681 13.9531 26.9237C13.8087 26.7793 13.7274 26.5836 13.727 26.3794V25.4533C13.5776 24.6672 12.2208 24.6546 12.095 25.4533C11.8639 26.6404 11.8875 29.0459 14.1499 29.0459H23.9355ZM16.9281 6H32.2134C33.2872 6 34.1661 6.93077 34.1661 8.0675V9.05486C34.1661 10.451 32.2794 10.4447 32.2794 9.0643V8.52659C32.2794 8.3598 32.2132 8.19984 32.0952 8.08189C31.9773 7.96395 31.8173 7.89769 31.6505 7.89769H16.3338C16.167 7.89769 16.007 7.96395 15.8891 8.08189C15.7711 8.19984 15.7049 8.3598 15.7049 8.52659V9.05486C15.7049 10.4432 13.9031 10.4337 13.9031 9.08474V8.06907C13.9078 6.93234 14.7851 6 15.8589 6H16.9281Z" fill="#FF0000" style="fill:#FF0000;fill:color(display-p3 1.0000 0.0000 0.0000);fill-opacity:1;"/>
<path fill-rule="evenodd" clip-rule="evenodd" d="M33.7808 17.3531C34.3057 17.5875 34.7528 17.9667 35.0697 18.4463C35.3866 18.9258 35.5602 19.4858 35.5701 20.0605C35.5701 21.724 34.1173 23.0855 32.3422 23.0855H27.363C27.1469 23.0919 26.9371 23.013 26.7788 22.8659C26.6205 22.7188 26.5265 22.5153 26.5171 22.2994V12.8219C26.5179 12.6018 26.6059 12.3909 26.7617 12.2353C26.9175 12.0798 27.1286 11.9922 27.3488 11.9918H31.4948C32.1164 11.9904 32.7247 12.172 33.2438 12.5141C33.7628 12.8562 34.1696 13.3435 34.4135 13.9153C34.6573 14.4872 34.7273 15.1181 34.6148 15.7295C34.5023 16.3409 34.2123 16.9056 33.7808 17.3531ZM30.0656 16.5827H31.6457V16.5654C32.0003 16.5098 32.3235 16.3297 32.5575 16.0575C32.7914 15.7852 32.9208 15.4386 32.9224 15.0797C32.9212 14.6814 32.7624 14.2998 32.4808 14.0182C32.1992 13.7366 31.8176 13.5779 31.4193 13.5766H28.2355V21.4378H32.2715C32.4795 21.4444 32.6868 21.4092 32.8809 21.3341C33.0751 21.2591 33.2522 21.1458 33.4017 21.001C33.5512 20.8561 33.6701 20.6827 33.7513 20.4911C33.8324 20.2994 33.8743 20.0934 33.8743 19.8852C33.8743 19.6771 33.8324 19.4711 33.7513 19.2794C33.6701 19.0877 33.5512 18.9143 33.4017 18.7695C33.2522 18.6247 33.0751 18.5114 32.8809 18.4363C32.6868 18.3613 32.4795 18.326 32.2715 18.3326H31.6426H30.0656C29.951 18.3326 29.8376 18.3101 29.7317 18.2662C29.6258 18.2224 29.5296 18.1581 29.4486 18.0771C29.3676 17.996 29.3033 17.8998 29.2595 17.794C29.2156 17.6881 29.193 17.5746 29.193 17.4601C29.193 17.3455 29.2156 17.232 29.2595 17.1261C29.3033 17.0203 29.3676 16.9241 29.4486 16.843C29.5296 16.762 29.6258 16.6977 29.7317 16.6539C29.8376 16.61 29.951 16.5875 30.0656 16.5875" fill="#1D1D1B" style="fill:#1D1D1B;fill:color(display-p3 0.1137 0.1137 0.1059);fill-opacity:1;"/>
<path d="M25.7264 22.1406C25.7456 22.2737 25.7378 22.4094 25.7034 22.5394C25.669 22.6695 25.6088 22.7912 25.5262 22.8974C25.4437 23.0036 25.3405 23.0921 25.223 23.1575C25.1054 23.2229 24.9759 23.2639 24.8422 23.2781C24.7084 23.2923 24.5732 23.2793 24.4445 23.24C24.3159 23.2007 24.1965 23.1358 24.0935 23.0493C23.9905 22.9628 23.906 22.8564 23.8452 22.7364C23.7843 22.6165 23.7482 22.4855 23.7391 22.3513L22.9168 14.8187L20.0223 22.1846V22.2035V22.2192V22.2349V22.2444V22.2585V22.2743C19.9588 22.3853 19.8738 22.4826 19.7723 22.5604L19.7566 22.573C19.704 22.6205 19.6459 22.6617 19.5837 22.6956L19.5648 22.705L19.5475 22.7145H19.5365H19.5239H19.5129H19.5003H19.4909H19.4799H19.4705H19.461H19.4484C19.3545 22.7481 19.2558 22.7666 19.156 22.7695H19.0837C18.9716 22.7663 18.8609 22.7434 18.7567 22.7019H18.7425H18.7284H18.7158H18.7063H18.6938H18.6828H18.6749L18.6576 22.6925L18.6419 22.683H18.6324C18.5766 22.6533 18.524 22.618 18.4752 22.5777L18.4422 22.5478L18.4171 22.5242L18.3573 22.5085L18.3274 22.4755C18.2871 22.4268 18.2518 22.3741 18.2221 22.3183V22.3088L18.2127 22.2931L18.2032 22.2758V22.2648V22.2522V22.2428V22.2287V22.2161V22.2019L15.2553 14.8187L14.4361 22.3513C14.4082 22.6146 14.2768 22.8561 14.0708 23.0225C13.8649 23.189 13.6013 23.2668 13.3379 23.2388C13.0746 23.2109 12.8332 23.0795 12.6667 22.8735C12.5003 22.6676 12.4225 22.4039 12.4504 22.1406L13.4158 13.2606C13.4391 13.0515 13.502 12.8487 13.6013 12.6631C13.7251 12.4313 13.9024 12.2323 14.1184 12.0825C14.3343 11.9327 14.5828 11.8364 14.8433 11.8016H14.8968C14.9811 11.7953 15.0657 11.7953 15.1499 11.8016C15.2516 11.8056 15.3527 11.8193 15.4518 11.8424C15.7126 11.9022 15.9548 12.0248 16.1574 12.1996C16.3599 12.3745 16.5166 12.5962 16.6137 12.8455L19.0884 19.0999L21.5584 12.8251C21.6745 12.5277 21.8748 12.2705 22.1348 12.0851C22.3948 11.8997 22.7031 11.7941 23.0221 11.7811C23.1064 11.7749 23.191 11.7749 23.2753 11.7811H23.3287C23.5892 11.8162 23.8376 11.9126 24.0535 12.0624C24.2694 12.2121 24.4467 12.411 24.5708 12.6427C24.619 12.7357 24.6595 12.8324 24.6919 12.932C24.7237 13.0344 24.7452 13.1398 24.7563 13.2464L25.7264 22.1406Z" fill="#1D1D1B" style="fill:#1D1D1B;fill:color(display-p3 0.1137 0.1137 0.1059);fill-opacity:1;"/>
</svg>
