<svg width="32" height="32" viewBox="0 0 32 32" fill="none" xmlns="http://www.w3.org/2000/svg">
<rect width="32" height="32" rx="8" fill="white" style="fill:white;fill-opacity:1;"/>
<path fill-rule="evenodd" clip-rule="evenodd" d="M16.449 25.2447H24.298C26.0891 25.2447 26.1078 23.3403 25.9248 22.4006C25.8252 21.7683 24.7511 21.7782 24.6328 22.4006V23.1337C24.6325 23.2953 24.5681 23.4503 24.4538 23.5646C24.3395 23.6789 24.1846 23.7432 24.0229 23.7436H8.97709C8.81544 23.7432 8.6605 23.6789 8.54619 23.5646C8.43188 23.4503 8.36752 23.2953 8.36719 23.1337V22.4006C8.24895 21.7782 7.17478 21.7683 7.0752 22.4006C6.89223 23.3403 6.9109 25.2447 8.70201 25.2447H16.449ZM10.9014 7H23.0023C23.8524 7 24.5482 7.73686 24.5482 8.63677V9.41843C24.5482 10.5237 23.0545 10.5187 23.0545 9.4259V9.00022C23.0545 8.86817 23.0021 8.74154 22.9087 8.64817C22.8153 8.5548 22.6887 8.50234 22.5567 8.50234H10.4309C10.2988 8.50234 10.1722 8.5548 10.0788 8.64817C9.98547 8.74154 9.93301 8.86817 9.93301 9.00022V9.41843C9.93301 10.5175 8.5066 10.51 8.5066 9.44208V8.63801C8.51033 7.7381 9.20487 7 10.055 7H10.9014Z" fill="#FF0000" style="fill:#FF0000;fill:color(display-p3 1.0000 0.0000 0.0000);fill-opacity:1;"/>
<path fill-rule="evenodd" clip-rule="evenodd" d="M24.2431 15.9879C24.6586 16.1734 25.0126 16.4736 25.2635 16.8533C25.5144 17.2329 25.6518 17.6762 25.6596 18.1312C25.6596 19.4481 24.5095 20.526 23.1043 20.526H19.1623C18.9913 20.5311 18.8252 20.4686 18.6999 20.3522C18.5746 20.2357 18.5001 20.0746 18.4927 19.9037V12.4007C18.4933 12.2264 18.563 12.0594 18.6863 11.9363C18.8097 11.8131 18.9768 11.7438 19.1511 11.7435H22.4334C22.9255 11.7423 23.4071 11.8861 23.818 12.157C24.2289 12.4278 24.5509 12.8136 24.744 13.2663C24.937 13.719 24.9924 14.2185 24.9034 14.7025C24.8143 15.1865 24.5847 15.6335 24.2431 15.9879ZM21.3019 15.378H22.5529V15.3643C22.8336 15.3202 23.0895 15.1777 23.2746 14.9621C23.4598 14.7466 23.5622 14.4722 23.5635 14.188C23.5626 13.8728 23.4369 13.5707 23.2139 13.3477C22.991 13.1248 22.6889 12.9991 22.3736 12.9981H19.8531V19.2216H23.0482C23.2129 19.2268 23.377 19.1989 23.5307 19.1395C23.6844 19.0801 23.8246 18.9904 23.943 18.8757C24.0613 18.7611 24.1555 18.6238 24.2197 18.4721C24.284 18.3203 24.3171 18.1572 24.3171 17.9924C24.3171 17.8277 24.284 17.6646 24.2197 17.5128C24.1555 17.3611 24.0613 17.2238 23.943 17.1092C23.8246 16.9945 23.6844 16.9048 23.5307 16.8454C23.377 16.786 23.2129 16.7581 23.0482 16.7633H22.5504H21.3019C21.2112 16.7633 21.1214 16.7454 21.0376 16.7107C20.9538 16.676 20.8776 16.6251 20.8135 16.561C20.7493 16.4968 20.6984 16.4207 20.6637 16.3369C20.629 16.2531 20.6111 16.1632 20.6111 16.0725C20.6111 15.9818 20.629 15.892 20.6637 15.8082C20.6984 15.7243 20.7493 15.6482 20.8135 15.584C20.8776 15.5199 20.9538 15.469 21.0376 15.4343C21.1214 15.3996 21.2112 15.3817 21.3019 15.3817" fill="#1D1D1B" style="fill:#1D1D1B;fill:color(display-p3 0.1137 0.1137 0.1059);fill-opacity:1;"/>
<path d="M17.8666 19.778C17.8819 19.8834 17.8757 19.9908 17.8485 20.0937C17.8212 20.1966 17.7735 20.293 17.7081 20.3771C17.6428 20.4612 17.5611 20.5312 17.4681 20.583C17.375 20.6348 17.2725 20.6672 17.1666 20.6785C17.0607 20.6897 16.9536 20.6794 16.8518 20.6483C16.75 20.6172 16.6555 20.5659 16.5739 20.4974C16.4924 20.4289 16.4255 20.3446 16.3773 20.2497C16.3291 20.1547 16.3005 20.051 16.2933 19.9448L15.6424 13.9815L13.3509 19.8128V19.8278V19.8402V19.8527V19.8601V19.8713V19.8838C13.3006 19.9717 13.2334 20.0487 13.153 20.1103L13.1405 20.1203C13.0989 20.1579 13.0529 20.1905 13.0036 20.2174L12.9887 20.2248L12.975 20.2323H12.9663H12.9563H12.9476H12.9377H12.9302H12.9215H12.914H12.9065H12.8966C12.8222 20.2589 12.744 20.2736 12.6651 20.2759H12.6078C12.519 20.2733 12.4314 20.2552 12.3489 20.2223H12.3377H12.3265H12.3166H12.3091H12.2991H12.2904H12.2842L12.2705 20.2149L12.2581 20.2074H12.2506C12.2064 20.1838 12.1647 20.1559 12.1261 20.124L12.1 20.1004L12.0801 20.0817L12.0328 20.0692L12.0091 20.0431C11.9772 20.0045 11.9493 19.9628 11.9257 19.9186V19.9112L11.9183 19.8987L11.9108 19.885V19.8763V19.8664V19.8589V19.8477V19.8377V19.8265L9.57699 13.9815L8.92851 19.9448C8.90639 20.1532 8.80237 20.3444 8.63932 20.4761C8.47627 20.6079 8.26756 20.6695 8.05909 20.6474C7.85063 20.6253 7.65949 20.5213 7.52772 20.3582C7.39595 20.1952 7.33435 19.9864 7.35646 19.778L8.1207 12.748C8.13916 12.5824 8.18901 12.4219 8.26758 12.275C8.36564 12.0915 8.50595 11.9339 8.67693 11.8153C8.8479 11.6967 9.04463 11.6205 9.25088 11.5929H9.2932C9.35991 11.5879 9.42689 11.5879 9.4936 11.5929C9.5741 11.5961 9.65412 11.6069 9.73258 11.6253C9.93905 11.6725 10.1308 11.7696 10.2911 11.908C10.4515 12.0465 10.5755 12.222 10.6524 12.4194L12.6115 17.3707L14.567 12.4032C14.6589 12.1677 14.8175 11.9642 15.0233 11.8174C15.2291 11.6706 15.4732 11.587 15.7258 11.5767C15.7925 11.5718 15.8595 11.5718 15.9262 11.5767H15.9685C16.1747 11.6045 16.3713 11.6808 16.5423 11.7994C16.7132 11.9179 16.8536 12.0754 16.9518 12.2588C16.9899 12.3324 17.022 12.409 17.0476 12.4878C17.0728 12.5689 17.0899 12.6523 17.0987 12.7368L17.8666 19.778Z" fill="#1D1D1B" style="fill:#1D1D1B;fill:color(display-p3 0.1137 0.1137 0.1059);fill-opacity:1;"/>
</svg>
