<svg width="40" height="40" viewBox="0 0 40 40" fill="none" xmlns="http://www.w3.org/2000/svg">
<rect width="40" height="40" rx="10" fill="white" style="fill:white;fill-opacity:1;"/>
<path fill-rule="evenodd" clip-rule="evenodd" d="M19.9409 27.0857H29.0292C31.1032 27.0857 31.1248 24.8806 30.9129 23.7925C30.7976 23.0603 29.5539 23.0719 29.4169 23.7925V24.6414C29.4166 24.8285 29.342 25.0079 29.2097 25.1403C29.0773 25.2727 28.8979 25.3472 28.7107 25.3476H11.2893C11.1021 25.3472 10.9227 25.2727 10.7903 25.1403C10.658 25.0079 10.5834 24.8285 10.5831 24.6414V23.7925C10.4461 23.0719 9.20238 23.0603 9.08708 23.7925C8.87522 24.8806 8.89684 27.0857 10.9708 27.0857H19.9409ZM13.5174 5.96027H27.5289C28.5133 5.96027 29.3189 6.81347 29.3189 7.85547V8.76056C29.3189 10.0404 27.5895 10.0346 27.5895 8.76921V8.27631C27.5895 8.12341 27.5287 7.97678 27.4206 7.86867C27.3125 7.76056 27.1659 7.69982 27.013 7.69982H12.9726C12.8197 7.69982 12.6731 7.76056 12.565 7.86867C12.4569 7.97678 12.3961 8.12341 12.3961 8.27631V8.76056C12.3961 10.0332 10.7445 10.0245 10.7445 8.78794V7.85691C10.7488 6.81491 11.553 5.96027 12.5374 5.96027H13.5174Z" fill="#FF0000" style="fill:#FF0000;fill:color(display-p3 1.0000 0.0000 0.0000);fill-opacity:1;"/>
<path fill-rule="evenodd" clip-rule="evenodd" d="M28.9658 16.3673C29.4469 16.5822 29.8568 16.9298 30.1473 17.3694C30.4378 17.809 30.5969 18.3223 30.6059 18.8491C30.6059 20.3739 29.2742 21.622 27.6471 21.622H23.0827C22.8847 21.6279 22.6924 21.5556 22.5473 21.4207C22.4022 21.2859 22.316 21.0993 22.3074 20.9014V12.2137C22.3081 12.0119 22.3887 11.8186 22.5316 11.676C22.6745 11.5334 22.8679 11.4531 23.0698 11.4528H26.8703C27.4401 11.4514 27.9977 11.618 28.4735 11.9315C28.9493 12.2451 29.3222 12.6918 29.5457 13.216C29.7692 13.7402 29.8334 14.3186 29.7303 14.879C29.6272 15.4394 29.3613 15.9571 28.9658 16.3673ZM25.5602 15.6611H27.0086V15.6453C27.3337 15.5943 27.63 15.4292 27.8444 15.1796C28.0588 14.9301 28.1774 14.6123 28.1789 14.2833C28.1778 13.9183 28.0322 13.5685 27.7741 13.3103C27.516 13.0522 27.1662 12.9067 26.8011 12.9055H23.8826V20.1116H27.5822C27.7729 20.1177 27.9629 20.0854 28.1409 20.0166C28.3189 19.9478 28.4812 19.8439 28.6183 19.7112C28.7553 19.5784 28.8643 19.4195 28.9387 19.2438C29.0131 19.0681 29.0515 18.8792 29.0515 18.6884C29.0515 18.4976 29.0131 18.3088 28.9387 18.1331C28.8643 17.9574 28.7553 17.7984 28.6183 17.6657C28.4812 17.5329 28.3189 17.429 28.1409 17.3603C27.9629 17.2915 27.7729 17.2591 27.5822 17.2652H27.0058H25.5602C25.4552 17.2652 25.3512 17.2445 25.2541 17.2043C25.1571 17.1641 25.0689 17.1052 24.9946 17.0309C24.9203 16.9567 24.8614 16.8685 24.8212 16.7714C24.781 16.6744 24.7603 16.5704 24.7603 16.4653C24.7603 16.3603 24.781 16.2563 24.8212 16.1592C24.8614 16.0622 24.9203 15.974 24.9946 15.8997C25.0689 15.8255 25.1571 15.7665 25.2541 15.7263C25.3512 15.6861 25.4552 15.6655 25.5602 15.6655" fill="#1D1D1B" style="fill:#1D1D1B;fill:color(display-p3 0.1137 0.1137 0.1059);fill-opacity:1;"/>
<path d="M21.5825 20.7558C21.6001 20.8778 21.593 21.0022 21.5614 21.1214C21.5299 21.2406 21.4747 21.3522 21.399 21.4495C21.3233 21.5469 21.2288 21.628 21.121 21.6879C21.0133 21.7479 20.8946 21.7855 20.7719 21.7985C20.6493 21.8115 20.5254 21.7996 20.4074 21.7636C20.2895 21.7275 20.1801 21.6681 20.0857 21.5888C19.9913 21.5095 19.9138 21.4119 19.858 21.302C19.8022 21.192 19.7691 21.072 19.7608 20.9489L19.007 14.044L16.3537 20.7962V20.8135V20.8279V20.8423V20.8509V20.8639V20.8783C16.2956 20.9801 16.2177 21.0693 16.1246 21.1406L16.1102 21.1522C16.0619 21.1957 16.0087 21.2334 15.9516 21.2646L15.9343 21.2732L15.9185 21.2819H15.9084H15.8969H15.8868H15.8753H15.8666H15.8565H15.8479H15.8392H15.8277C15.7415 21.3126 15.6511 21.3297 15.5596 21.3323H15.4933C15.3906 21.3294 15.2891 21.3084 15.1936 21.2703H15.1806H15.1676H15.1561H15.1474H15.1359H15.1258H15.1186L15.1028 21.2617L15.0884 21.253H15.0797C15.0285 21.2258 14.9803 21.1934 14.9356 21.1565L14.9053 21.1291L14.8823 21.1075L14.8275 21.0931L14.8001 21.0628C14.7632 21.0181 14.7308 20.9698 14.7035 20.9187V20.91L14.6949 20.8956L14.6863 20.8798V20.8697V20.8581V20.8495V20.8365V20.825V20.812L11.984 14.044L11.2331 20.9489C11.2075 21.1903 11.087 21.4116 10.8982 21.5642C10.7094 21.7168 10.4678 21.7881 10.2264 21.7625C9.98501 21.7369 9.76369 21.6164 9.61112 21.4277C9.45854 21.2389 9.38722 20.9972 9.41283 20.7558L10.2977 12.6158C10.3191 12.4241 10.3768 12.2382 10.4678 12.0681C10.5813 11.8556 10.7438 11.6732 10.9418 11.5359C11.1398 11.3985 11.3675 11.3103 11.6064 11.2783H11.6554C11.7326 11.2726 11.8102 11.2726 11.8874 11.2783C11.9806 11.2821 12.0733 11.2946 12.1641 11.3158C12.4032 11.3706 12.6252 11.483 12.8109 11.6433C12.9965 11.8035 13.1401 12.0068 13.2292 12.2353L15.4977 17.9685L17.7618 12.2166C17.8683 11.9439 18.0519 11.7082 18.2902 11.5383C18.5285 11.3683 18.8111 11.2715 19.1036 11.2596C19.1808 11.2539 19.2584 11.2539 19.3356 11.2596H19.3846C19.6234 11.2918 19.8511 11.3801 20.049 11.5174C20.2469 11.6547 20.4095 11.837 20.5232 12.0494C20.5674 12.1346 20.6045 12.2233 20.6342 12.3146C20.6633 12.4085 20.6831 12.505 20.6933 12.6028L21.5825 20.7558Z" fill="#1D1D1B" style="fill:#1D1D1B;fill:color(display-p3 0.1137 0.1137 0.1059);fill-opacity:1;"/>
<path d="M16.9139 31.8508C16.8558 32.0737 16.796 32.313 16.7326 32.5759C16.6691 32.8387 16.6057 33.0744 16.5513 33.301C16.4969 33.5275 16.4335 33.7342 16.37 33.91C16.3361 34.0351 16.29 34.1565 16.2323 34.2726C16.1967 34.3301 16.1458 34.3765 16.0853 34.4067C16.0247 34.4368 15.957 34.4493 15.8897 34.443C15.8283 34.4414 15.7675 34.4323 15.7084 34.4158C15.669 34.4039 15.6325 34.3838 15.6013 34.357C15.5701 34.3301 15.5448 34.2971 15.5271 34.2599C15.4697 34.1387 15.4236 34.0125 15.3894 33.8828C15.335 33.7016 15.277 33.4804 15.2081 33.2357C15.1392 32.991 15.0866 32.7336 15.0268 32.4599C14.967 32.1861 14.909 31.9324 14.8619 31.6985C14.8147 31.4647 14.7712 31.2635 14.7386 31.1003C14.706 30.9372 14.6878 30.8375 14.6824 30.803C14.6814 30.7891 14.6814 30.7752 14.6824 30.7613V30.7378C14.6814 30.7054 14.6881 30.6732 14.702 30.6439C14.7158 30.6146 14.7365 30.589 14.7621 30.5692C14.8177 30.5253 14.8872 30.5027 14.9579 30.5057C15.0217 30.503 15.0848 30.5194 15.1392 30.5529C15.1915 30.5919 15.2266 30.6498 15.2371 30.7142C15.2371 30.7142 15.248 30.7813 15.2697 30.8955C15.2915 31.0097 15.3223 31.1456 15.3567 31.3142C15.3912 31.4828 15.431 31.6768 15.4727 31.8888C15.5144 32.1009 15.5598 32.3166 15.6087 32.5342C15.6576 32.7517 15.703 32.9602 15.7501 33.165C15.7972 33.3698 15.8389 33.5439 15.8806 33.6907C15.9205 33.5529 15.9658 33.3952 16.0147 33.2176C16.0637 33.0399 16.1144 32.855 16.1634 32.6738C16.2123 32.4925 16.2576 32.2949 16.303 32.1064C16.3483 31.9178 16.39 31.7438 16.4299 31.5771C16.4697 31.4103 16.5006 31.2707 16.5296 31.1438C16.5586 31.0169 16.5803 30.9245 16.5966 30.8628C16.6149 30.7916 16.6556 30.728 16.7126 30.6816C16.768 30.6313 16.8391 30.6018 16.9139 30.5982C16.9937 30.5945 17.0721 30.6196 17.135 30.6689C17.1914 30.7147 17.2299 30.7789 17.2438 30.8502C17.2927 31.0477 17.3398 31.2725 17.3924 31.519C17.445 31.7656 17.5012 32.0139 17.5574 32.2659C17.6136 32.5179 17.6752 32.7662 17.7386 33.0091C17.8021 33.252 17.8601 33.4659 17.9199 33.6526C17.9598 33.5058 18.0051 33.3318 18.0522 33.1288C18.0994 32.9257 18.1447 32.7154 18.1936 32.4979C18.2426 32.2804 18.2915 32.0701 18.335 31.858C18.3785 31.6459 18.422 31.4556 18.4583 31.287C18.4946 31.1184 18.5254 30.9807 18.5453 30.8755C18.5653 30.7704 18.5798 30.7124 18.5798 30.7088C18.5923 30.6456 18.627 30.589 18.6776 30.5492C18.7318 30.5153 18.7951 30.4989 18.8589 30.5021C18.9302 30.4996 19 30.5221 19.0565 30.5656C19.0819 30.5856 19.1023 30.6113 19.1161 30.6405C19.1299 30.6698 19.1368 30.7018 19.1363 30.7341V30.7577C19.1371 30.7722 19.1371 30.7867 19.1363 30.8012C19.1363 30.8338 19.1127 30.9317 19.0783 31.0985C19.0438 31.2653 19.0021 31.461 18.9532 31.6949C18.9042 31.9287 18.848 32.1825 18.7882 32.4526C18.7284 32.7227 18.6649 32.9801 18.6069 33.2248C18.5489 33.4695 18.4909 33.6853 18.4257 33.8702C18.3917 33.9987 18.3456 34.1238 18.2879 34.2436C18.2513 34.3197 18.1862 34.3783 18.1066 34.4067C18.0481 34.4265 17.9871 34.4375 17.9254 34.4394C17.9006 34.4411 17.8758 34.4411 17.851 34.4394C17.8154 34.4343 17.7803 34.4264 17.7459 34.4158C17.707 34.4019 17.6703 34.3824 17.6371 34.3578C17.5991 34.3298 17.5691 34.2923 17.5501 34.249C17.4972 34.1243 17.4535 33.9959 17.4196 33.8647C17.367 33.6834 17.3127 33.484 17.2528 33.2593C17.193 33.0345 17.1368 32.7952 17.0716 32.5487C17.0063 32.3021 16.961 32.0719 16.912 31.858" fill="#1D1D1B" style="fill:#1D1D1B;fill:color(display-p3 0.1137 0.1137 0.1059);fill-opacity:1;"/>
<path d="M20.1206 33.3084C20.059 33.5042 20.0046 33.6855 19.9593 33.8523C19.914 34.019 19.8669 34.155 19.827 34.2619C19.8174 34.3341 19.7795 34.3994 19.7217 34.4436C19.6639 34.4878 19.5909 34.5072 19.5188 34.4976C19.4467 34.488 19.3814 34.4501 19.3372 34.3923C19.293 34.3345 19.2736 34.2615 19.2832 34.1894C19.2828 34.1623 19.2871 34.1353 19.2959 34.1097L19.372 33.8577C19.4155 33.7163 19.4717 33.5405 19.5406 33.3266C19.6095 33.1127 19.6874 32.8843 19.7708 32.6323C19.8542 32.3803 19.9412 32.1302 20.03 31.8836C20.1188 31.6371 20.2113 31.4069 20.2947 31.1948C20.3643 31.0166 20.4461 30.8434 20.5394 30.6764C20.5658 30.6158 20.6127 30.5664 20.6717 30.5368C20.7434 30.5095 20.8199 30.4972 20.8965 30.5005C20.9752 30.4989 21.0535 30.5131 21.1267 30.5422C21.1571 30.5568 21.1843 30.5773 21.2068 30.6025C21.2292 30.6277 21.2463 30.6571 21.2572 30.6891C21.3152 30.8105 21.3841 30.9755 21.4621 31.1803C21.54 31.3851 21.627 31.6081 21.714 31.8474C21.801 32.0867 21.8953 32.3296 21.9751 32.5725C22.0548 32.8154 22.14 33.051 22.2107 33.2649C22.2814 33.4788 22.3431 33.6619 22.392 33.8088C22.4409 33.9556 22.4754 34.0571 22.4863 34.1024C22.495 34.1281 22.4993 34.1551 22.4989 34.1822C22.5008 34.216 22.4951 34.2498 22.4822 34.2812C22.4694 34.3125 22.4497 34.3406 22.4246 34.3635C22.3959 34.389 22.3623 34.4085 22.3259 34.4206C22.2894 34.4328 22.2508 34.4374 22.2125 34.4341C22.1561 34.4395 22.0998 34.4233 22.0548 34.3888C22.0168 34.3531 21.9887 34.3082 21.9733 34.2583C21.9316 34.1514 21.8844 34.0154 21.8282 33.8486C21.772 33.6819 21.714 33.5006 21.647 33.3048H20.1152M21.4748 32.7737C21.3877 32.509 21.308 32.2661 21.23 32.0486C21.1521 31.8311 21.0832 31.6226 20.9962 31.416C20.9763 31.3706 20.9545 31.3199 20.9327 31.2583C20.911 31.1966 20.8965 31.1658 20.8929 31.1549C20.8759 31.1859 20.8625 31.2188 20.853 31.2528C20.8294 31.3181 20.8095 31.3706 20.7877 31.416C20.7062 31.6154 20.6282 31.8256 20.5521 32.0486C20.4759 32.2716 20.3962 32.5127 20.311 32.7737H21.4748Z" fill="#1D1D1B" style="fill:#1D1D1B;fill:color(display-p3 0.1137 0.1137 0.1059);fill-opacity:1;"/>
<path d="M23.5574 32.9006C23.5361 32.8793 23.5167 32.8563 23.4994 32.8317L23.4396 32.7483C23.3816 32.6667 23.3217 32.567 23.2583 32.451C23.1949 32.335 23.1224 32.2117 23.0553 32.0885C22.9882 31.9652 22.9229 31.8256 22.8613 31.6933C22.7997 31.561 22.7381 31.4377 22.6891 31.3308C22.6402 31.2238 22.593 31.1169 22.5568 31.0335C22.5295 30.975 22.5071 30.9143 22.4897 30.8522C22.4827 30.8371 22.4772 30.8213 22.4734 30.8051C22.4734 30.8051 22.4734 30.7815 22.4734 30.7598C22.4732 30.726 22.4798 30.6925 22.4929 30.6613C22.506 30.6302 22.5253 30.602 22.5495 30.5785C22.578 30.5524 22.6115 30.5324 22.648 30.5197C22.6844 30.5069 22.7231 30.5016 22.7616 30.5042C22.7945 30.5005 22.8278 30.5041 22.8591 30.5147C22.8905 30.5254 22.9191 30.5428 22.9429 30.5658C22.9747 30.6015 22.9999 30.6426 23.0172 30.6872L23.077 30.8214C23.1078 30.8903 23.1459 30.9755 23.1894 31.077C23.2329 31.1785 23.2855 31.2909 23.3435 31.4141C23.4015 31.5374 23.4577 31.6552 23.5248 31.7767L23.697 32.1157C23.7437 32.2069 23.7957 32.2953 23.8529 32.3803C23.9453 32.236 24.0294 32.0865 24.1048 31.9326C24.1937 31.7513 24.2861 31.5791 24.3604 31.4033C24.4348 31.2274 24.5127 31.0734 24.5743 30.941L24.6813 30.6891C24.6992 30.6444 24.725 30.6032 24.7574 30.5676C24.7806 30.5437 24.8091 30.5257 24.8406 30.515C24.8722 30.5042 24.9058 30.5012 24.9387 30.506C24.9773 30.5032 25.016 30.5084 25.0524 30.5212C25.0889 30.5339 25.1224 30.5541 25.1508 30.5803C25.1757 30.6033 25.1954 30.6314 25.2085 30.6627C25.2216 30.6939 25.2279 30.7277 25.2269 30.7616C25.2288 30.7766 25.2288 30.7918 25.2269 30.8069L25.2124 30.854L25.1417 31.0353C25.1073 31.1205 25.0638 31.2166 25.0112 31.3326C24.9586 31.4486 24.9043 31.57 24.8426 31.6951C24.781 31.8202 24.7121 31.958 24.645 32.0903C24.578 32.2226 24.5109 32.3441 24.4438 32.4528C24.3768 32.5616 24.3133 32.6722 24.2626 32.7519C24.2278 32.8027 24.1884 32.85 24.1447 32.8933V34.1622C24.1465 34.1992 24.1407 34.2361 24.1276 34.2708C24.1145 34.3054 24.0944 34.3369 24.0686 34.3635C24.0167 34.4147 23.9467 34.4434 23.8737 34.4434C23.8008 34.4434 23.7308 34.4147 23.6789 34.3635C23.651 34.3365 23.6291 34.304 23.6145 34.2681C23.5998 34.2323 23.5927 34.1937 23.5937 34.155V32.8861" fill="#1D1D1B" style="fill:#1D1D1B;fill:color(display-p3 0.1137 0.1137 0.1059);fill-opacity:1;"/>
</svg>
