<svg width="56" height="42" viewBox="0 0 56 42" fill="none" xmlns="http://www.w3.org/2000/svg">
<rect width="56" height="42" rx="7" fill="#111111" style="fill:#111111;fill:color(display-p3 0.0667 0.0667 0.0667);fill-opacity:1;"/>
<g clip-path="url(#clip0_2741_2539)">
<path fill-rule="evenodd" clip-rule="evenodd" d="M38.6629 17.444C39.3825 17.444 39.9658 16.8689 39.9658 16.1595C39.9658 15.4501 39.3825 14.875 38.6629 14.875C37.9433 14.875 37.3599 15.4501 37.3599 16.1595C37.3599 16.8689 37.9433 17.444 38.6629 17.444ZM24.7642 18.8699C22.4579 18.8699 20.5859 20.7196 20.5859 22.9889C20.5859 25.2582 22.4623 27.1079 24.7642 27.1079C27.0662 27.1079 28.9425 25.2582 28.9425 22.9889C28.9425 20.7196 27.0705 18.8699 24.7642 18.8699ZM24.7642 25.1597C23.5524 25.1597 22.5665 24.1878 22.5665 22.9932C22.5665 21.7986 23.5524 20.8266 24.7642 20.8266C25.976 20.8266 26.962 21.7986 26.962 22.9932C26.962 24.1878 25.976 25.1597 24.7642 25.1597ZM15.9125 18.8613C16.0211 18.8613 16.1254 18.8656 16.2339 18.8741C17.146 18.9512 17.9843 19.3665 18.5967 20.0431C19.2091 20.7153 19.5479 21.5845 19.5479 22.4879V26.9409H17.5499V22.4323C17.5456 21.5459 16.8029 20.8223 15.8995 20.8223C15.8474 20.8223 15.7909 20.8266 15.7344 20.8309C14.9266 20.9123 14.249 21.6659 14.249 22.4794V26.9409H12.2511V22.4451C12.2467 21.5545 11.5084 20.8266 10.605 20.8266C10.5528 20.8266 10.4964 20.8309 10.4399 20.8352C9.6364 20.9165 8.9545 21.6701 8.9545 22.4879V26.9409H7V22.4323C7 20.4627 8.62875 18.8613 10.6267 18.8613C11.6256 18.8613 12.5768 19.2723 13.2631 19.9874C13.9494 19.2681 14.9049 18.8613 15.9125 18.8613ZM32.0176 15.0677H30.0197V26.9495H32.0176V15.0677ZM33.8418 15.0677H35.8397V26.9495H33.8418V15.0677ZM39.6619 19.0668H37.6639V26.9452H39.6619V19.0668ZM47.8403 20.0259C48.5874 20.7752 49 21.7601 49 22.8047V23.7082H42.9236C43.193 24.6588 44.0703 25.3268 45.0867 25.3268C45.8815 25.3268 46.5981 24.9285 47.0107 24.2563L47.0932 24.1236L48.7437 24.9242L48.6482 25.0826C47.8968 26.3286 46.52 27.1036 45.0519 27.1036H45.0476C43.927 27.1036 42.8759 26.6669 42.0811 25.8748C41.2863 25.0826 40.8563 24.0379 40.8693 22.9333C40.8823 21.85 41.3167 20.8352 42.0898 20.0688C42.8629 19.3023 43.8966 18.8741 44.9911 18.8613H45.0433C46.0986 18.8613 47.0889 19.2766 47.8403 20.0259ZM46.9803 22.0812C46.6937 21.2419 45.8772 20.6511 44.965 20.6511C44.0529 20.6511 43.2364 21.2419 42.9541 22.0812H46.9803Z" fill="white" style="fill:white;fill-opacity:1;"/>
</g>
<defs>
<clipPath id="clip0_2741_2539">
<rect width="42" height="12.25" fill="white" style="fill:white;fill-opacity:1;" transform="translate(7 14.875)"/>
</clipPath>
</defs>
</svg>
