<svg width="16" height="16" viewBox="0 0 16 16" fill="none" xmlns="http://www.w3.org/2000/svg">
<rect width="16" height="16" rx="4" fill="#111111" style="fill:#111111;fill:color(display-p3 0.0667 0.0667 0.0667);fill-opacity:1;"/>
<g clip-path="url(#clip0_2197_206)">
<path fill-rule="evenodd" clip-rule="evenodd" d="M11.0465 6.7445C11.2521 6.7445 11.4188 6.57784 11.4188 6.37225C11.4188 6.16666 11.2521 6 11.0465 6C10.8409 6 10.6742 6.16666 10.6742 6.37225C10.6742 6.57784 10.8409 6.7445 11.0465 6.7445ZM7.07549 7.15769C6.41655 7.15769 5.88169 7.69373 5.88169 8.35138C5.88169 9.009 6.41779 9.54505 7.07549 9.54505C7.7332 9.54505 8.26928 9.009 8.26928 8.35138C8.26928 7.69373 7.73444 7.15769 7.07549 7.15769ZM7.07549 8.98047C6.72926 8.98047 6.44757 8.69881 6.44757 8.35262C6.44757 8.00643 6.72926 7.72475 7.07549 7.72475C7.42171 7.72475 7.70342 8.00643 7.70342 8.35262C7.70342 8.69881 7.42171 8.98047 7.07549 8.98047ZM4.54643 7.15521C4.57745 7.15521 4.60724 7.15645 4.63826 7.15894C4.89886 7.18127 5.13836 7.30163 5.31335 7.49768C5.48831 7.69249 5.58511 7.94439 5.58511 8.20619V9.49666H5.01427V8.19006C5.01303 7.93321 4.80082 7.72351 4.54271 7.72351C4.52782 7.72351 4.51169 7.72475 4.49556 7.726L4.49556 7.726C4.26474 7.74957 4.07114 7.96796 4.07114 8.20371V9.49666H3.50031V8.19378C3.49907 7.93569 3.28811 7.72475 3.02999 7.72475C3.0151 7.72475 2.99897 7.726 2.98283 7.72724C2.75326 7.75081 2.55843 7.96921 2.55843 8.20619V9.49666H2V8.19006C2 7.61928 2.46536 7.15521 3.03619 7.15521C3.32161 7.15521 3.59338 7.27433 3.78945 7.48155C3.98553 7.27309 4.25853 7.15521 4.54643 7.15521ZM9.14789 6.05584H8.57704V9.49914H9.14789V6.05584ZM9.66908 6.05584H10.2399V9.49914H9.66908V6.05584ZM11.332 7.21477H10.7611V9.4979H11.332V7.21477ZM13.6687 7.49272C13.8821 7.70986 14 7.99526 14 8.29801V8.55983H12.2639C12.3408 8.8353 12.5915 9.02887 12.8819 9.02887C13.109 9.02887 13.3137 8.91347 13.4316 8.71867L13.4552 8.6802L13.9268 8.91222L13.8995 8.95813C13.6848 9.31921 13.2914 9.54381 12.872 9.54381H12.8707C12.5506 9.54381 12.2502 9.41725 12.0232 9.18769C11.7961 8.95813 11.6732 8.65537 11.6769 8.33525C11.6807 8.02132 11.8048 7.72724 12.0257 7.50513C12.2465 7.28302 12.5419 7.15894 12.8546 7.15521H12.8695C13.171 7.15521 13.454 7.27557 13.6687 7.49272ZM13.423 8.08832C13.341 7.84511 13.1078 7.67388 12.8471 7.67388C12.5866 7.67388 12.3533 7.84511 12.2726 8.08832H13.423Z" fill="white" style="fill:white;fill-opacity:1;"/>
</g>
<defs>
<clipPath id="clip0_2197_206">
<rect width="12" height="3.55" fill="white" style="fill:white;fill-opacity:1;" transform="translate(2 6)"/>
</clipPath>
</defs>
</svg>
