<svg width="40" height="30" viewBox="0 0 40 30" fill="none" xmlns="http://www.w3.org/2000/svg">
<rect width="40" height="30" rx="5" fill="#111111" style="fill:#111111;fill:color(display-p3 0.0667 0.0667 0.0667);fill-opacity:1;"/>
<g clip-path="url(#clip0_2741_2542)">
<path fill-rule="evenodd" clip-rule="evenodd" d="M27.6163 12.46C28.1304 12.46 28.547 12.0492 28.547 11.5425C28.547 11.0358 28.1304 10.625 27.6163 10.625C27.1023 10.625 26.6856 11.0358 26.6856 11.5425C26.6856 12.0492 27.1023 12.46 27.6163 12.46ZM17.6887 13.4785C16.0414 13.4785 14.7042 14.7997 14.7042 16.4207C14.7042 18.0416 16.0445 19.3628 17.6887 19.3628C19.333 19.3628 20.6732 18.0416 20.6732 16.4207C20.6732 14.7997 19.3361 13.4785 17.6887 13.4785ZM17.6887 17.9712C16.8231 17.9712 16.1189 17.277 16.1189 16.4237C16.1189 15.5704 16.8231 14.8762 17.6887 14.8762C18.5543 14.8762 19.2586 15.5704 19.2586 16.4237C19.2586 17.277 18.5543 17.9712 17.6887 17.9712ZM11.3661 13.4724C11.4436 13.4724 11.5181 13.4754 11.5957 13.4815C12.2471 13.5366 12.8459 13.8332 13.2834 14.3165C13.7208 14.7966 13.9628 15.4175 13.9628 16.0628V19.2435H12.5357V16.023C12.5326 15.3899 12.0021 14.8731 11.3568 14.8731C11.3195 14.8731 11.2792 14.8762 11.2389 14.8792C10.6618 14.9373 10.1779 15.4756 10.1779 16.0567V19.2435H8.75078V16.0322C8.74767 15.3961 8.22027 14.8762 7.57497 14.8762C7.53776 14.8762 7.49743 14.8792 7.45712 14.8823H7.45711H7.4571H7.45709H7.45709H7.45708C6.88314 14.9404 6.39607 15.4787 6.39607 16.0628V19.2435H5V16.023C5 14.6162 6.16339 13.4724 7.59048 13.4724C8.30403 13.4724 8.98345 13.766 9.47363 14.2767C9.96383 13.7629 10.6463 13.4724 11.3661 13.4724ZM22.8697 10.7626H21.4426V19.2496H22.8697V10.7626ZM24.1727 10.7626H25.5998V19.2496H24.1727V10.7626ZM28.3299 13.6192H26.9028V19.2466H28.3299V13.6192ZM34.1717 14.3042C34.7053 14.8395 35 15.5429 35 16.2891V16.9344H30.6597C30.8521 17.6134 31.4788 18.0905 32.2048 18.0905C32.7725 18.0905 33.2844 17.8061 33.5791 17.3259L33.638 17.2311L34.8169 17.803L34.7487 17.9162C34.212 18.8062 33.2285 19.3597 32.18 19.3597H32.1769C31.3764 19.3597 30.6256 19.0478 30.0579 18.482C29.4902 17.9162 29.1831 17.1699 29.1924 16.3809C29.2017 15.6071 29.5119 14.8823 30.0641 14.3348C30.6163 13.7874 31.3547 13.4815 32.1365 13.4724H32.1738C32.9276 13.4724 33.6349 13.769 34.1717 14.3042ZM33.5574 15.7723C33.3526 15.1728 32.7694 14.7508 32.1179 14.7508C31.4664 14.7508 30.8831 15.1728 30.6815 15.7723H33.5574Z" fill="white" style="fill:white;fill-opacity:1;"/>
</g>
<defs>
<clipPath id="clip0_2741_2542">
<rect width="30" height="8.75" fill="white" style="fill:white;fill-opacity:1;" transform="translate(5 10.625)"/>
</clipPath>
</defs>
</svg>
