<svg width="48" height="36" viewBox="0 0 48 36" fill="none" xmlns="http://www.w3.org/2000/svg">
<rect width="48" height="36" rx="6" fill="#111111" style="fill:#111111;fill:color(display-p3 0.0667 0.0667 0.0667);fill-opacity:1;"/>
<g clip-path="url(#clip0_2741_2540)">
<path fill-rule="evenodd" clip-rule="evenodd" d="M33.1396 14.952C33.7564 14.952 34.2564 14.4591 34.2564 13.851C34.2564 13.2429 33.7564 12.75 33.1396 12.75C32.5228 12.75 32.0227 13.2429 32.0227 13.851C32.0227 14.4591 32.5228 14.952 33.1396 14.952ZM21.2265 16.1742C19.2496 16.1742 17.6451 17.7596 17.6451 19.7048C17.6451 21.6499 19.2534 23.2354 21.2265 23.2354C23.1996 23.2354 24.8078 21.6499 24.8078 19.7048C24.8078 17.7596 23.2033 16.1742 21.2265 16.1742ZM21.2265 21.5655C20.1878 21.5655 19.3427 20.7324 19.3427 19.7085C19.3427 18.6845 20.1878 17.8514 21.2265 17.8514C22.2651 17.8514 23.1103 18.6845 23.1103 19.7085C23.1103 20.7324 22.2651 21.5655 21.2265 21.5655ZM13.6393 16.1668C13.7323 16.1668 13.8217 16.1705 13.9148 16.1778C14.6966 16.2439 15.4151 16.5999 15.94 17.1798C16.4649 17.756 16.7553 18.501 16.7553 19.2754V23.0922H15.0428V19.2276C15.0391 18.4679 14.4025 17.8477 13.6281 17.8477C13.5835 17.8477 13.5351 17.8514 13.4867 17.8551L13.4867 17.8551C12.7942 17.9248 12.2134 18.5707 12.2134 19.268V23.0922H10.5009V19.2387C10.4972 18.4753 9.86432 17.8514 9.08997 17.8514C9.0453 17.8514 8.9969 17.8551 8.9485 17.8587C8.25977 17.9285 7.67529 18.5744 7.67529 19.2754V23.0922H6V19.2276C6 17.5394 7.39607 16.1668 9.10858 16.1668C9.96484 16.1668 10.7801 16.5192 11.3684 17.1321C11.9566 16.5155 12.7756 16.1668 13.6393 16.1668ZM27.4437 12.9152H25.7311V23.0996H27.4437V12.9152ZM29.0072 12.9152H30.7198V23.0996H29.0072V12.9152ZM33.9959 16.343H32.2834V23.0959H33.9959V16.343ZM41.006 17.1651C41.6463 17.8073 42 18.6515 42 19.5469V20.3213H36.7917C37.0225 21.1361 37.7745 21.7086 38.6457 21.7086C39.327 21.7086 39.9412 21.3673 40.2949 20.7911L40.3656 20.6774L41.7803 21.3636L41.6984 21.4994C41.0544 22.5674 39.8742 23.2317 38.6159 23.2317H38.6122C37.6517 23.2317 36.7508 22.8574 36.0695 22.1784C35.3882 21.4994 35.0197 20.6039 35.0308 19.6571C35.042 18.7285 35.4143 17.8587 36.077 17.2018C36.7396 16.5448 37.6257 16.1778 38.5638 16.1668H38.6085C39.5131 16.1668 40.3619 16.5228 41.006 17.1651ZM40.2689 18.9267C40.0231 18.2074 39.3233 17.7009 38.5414 17.7009C37.7597 17.7009 37.0598 18.2074 36.8178 18.9267H40.2689Z" fill="white" style="fill:white;fill-opacity:1;"/>
</g>
<defs>
<clipPath id="clip0_2741_2540">
<rect width="36" height="10.5" fill="white" style="fill:white;fill-opacity:1;" transform="translate(6 12.75)"/>
</clipPath>
</defs>
</svg>
