<svg width="40" height="40" viewBox="0 0 40 40" fill="none" xmlns="http://www.w3.org/2000/svg">
<rect width="40" height="40" rx="10" fill="#111111" style="fill:#111111;fill:color(display-p3 0.0667 0.0667 0.0667);fill-opacity:1;"/>
<g clip-path="url(#clip0_2197_228)">
<path fill-rule="evenodd" clip-rule="evenodd" d="M27.6163 16.8612C28.1304 16.8612 28.547 16.4446 28.547 15.9306C28.547 15.4167 28.1304 15 27.6163 15C27.1023 15 26.6856 15.4167 26.6856 15.9306C26.6856 16.4446 27.1023 16.8612 27.6163 16.8612ZM17.6887 17.8942C16.0414 17.8942 14.7042 19.2343 14.7042 20.8784C14.7042 22.5225 16.0445 23.8626 17.6887 23.8626C19.333 23.8626 20.6732 22.5225 20.6732 20.8784C20.6732 19.2343 19.3361 17.8942 17.6887 17.8942ZM17.6887 22.4512C16.8231 22.4512 16.1189 21.747 16.1189 20.8816C16.1189 20.0161 16.8231 19.3119 17.6887 19.3119C18.5543 19.3119 19.2586 20.0161 19.2586 20.8816C19.2586 21.747 18.5543 22.4512 17.6887 22.4512ZM11.3661 17.888C11.4436 17.888 11.5181 17.8911 11.5957 17.8973C12.2471 17.9532 12.8459 18.2541 13.2834 18.7442C13.7208 19.2312 13.9628 19.861 13.9628 20.5155V23.7417H12.5357V20.4752C12.5326 19.833 12.0021 19.3088 11.3568 19.3088C11.3195 19.3088 11.2792 19.3119 11.2389 19.315C10.6618 19.3739 10.1779 19.9199 10.1779 20.5093V23.7417H8.75078V20.4845C8.74767 19.8392 8.22027 19.3119 7.57497 19.3119C7.53775 19.3119 7.49741 19.315 7.45708 19.3181C6.88314 19.377 6.39607 19.923 6.39607 20.5155V23.7417H5V20.4752C5 19.0482 6.16339 17.888 7.59048 17.888C8.30403 17.888 8.98345 18.1858 9.47363 18.7039C9.96383 18.1827 10.6463 17.888 11.3661 17.888ZM22.8697 15.1396H21.4426V23.7479H22.8697V15.1396ZM24.1727 15.1396H25.5998V23.7479H24.1727V15.1396ZM28.3299 18.0369H26.9028V23.7448H28.3299V18.0369ZM34.1717 18.7318C34.7053 19.2747 35 19.9882 35 20.745V21.3996H30.6597C30.8521 22.0882 31.4788 22.5722 32.2048 22.5722C32.7725 22.5722 33.2844 22.2837 33.5791 21.7967L33.638 21.7005L34.8169 22.2806L34.7487 22.3953C34.212 23.298 33.2285 23.8595 32.18 23.8595H32.1769C31.3764 23.8595 30.6256 23.5431 30.0579 22.9692C29.4902 22.3953 29.1831 21.6384 29.1924 20.8381C29.2017 20.0533 29.5119 19.3181 30.0641 18.7628C30.6163 18.2075 31.3547 17.8973 32.1365 17.888H32.1737C32.9276 17.888 33.6349 18.1889 34.1717 18.7318ZM33.5574 20.2208C33.3526 19.6128 32.7694 19.1847 32.1179 19.1847C31.4664 19.1847 30.8831 19.6128 30.6815 20.2208H33.5574Z" fill="white" style="fill:white;fill-opacity:1;"/>
</g>
<defs>
<clipPath id="clip0_2197_228">
<rect width="30" height="8.875" fill="white" style="fill:white;fill-opacity:1;" transform="translate(5 15)"/>
</clipPath>
</defs>
</svg>
