<svg width="32" height="32" viewBox="0 0 32 32" fill="none" xmlns="http://www.w3.org/2000/svg">
<rect width="32" height="32" rx="8" fill="#111111" style="fill:#111111;fill:color(display-p3 0.0667 0.0667 0.0667);fill-opacity:1;"/>
<g clip-path="url(#clip0_2197_115)">
<path fill-rule="evenodd" clip-rule="evenodd" d="M22.0931 13.489C22.5043 13.489 22.8376 13.1557 22.8376 12.7445C22.8376 12.3333 22.5043 12 22.0931 12C21.6819 12 21.3485 12.3333 21.3485 12.7445C21.3485 13.1557 21.6819 13.489 22.0931 13.489ZM14.151 14.3154C12.8331 14.3154 11.7634 15.3875 11.7634 16.7028C11.7634 18.018 12.8356 19.0901 14.151 19.0901C15.4664 19.0901 16.5386 18.018 16.5386 16.7028C16.5386 15.3875 15.4689 14.3154 14.151 14.3154ZM14.151 17.9609C13.4585 17.9609 12.8951 17.3976 12.8951 16.7052C12.8951 16.0129 13.4585 15.4495 14.151 15.4495C14.8434 15.4495 15.4068 16.0129 15.4068 16.7052C15.4068 17.3976 14.8434 17.9609 14.151 17.9609ZM9.09286 14.3104C9.15489 14.3104 9.21449 14.3129 9.27653 14.3179C9.79772 14.3625 10.2767 14.6033 10.6267 14.9954C10.9766 15.385 11.1702 15.8888 11.1702 16.4124V18.9933H10.0285V16.3801C10.0261 15.8664 9.60164 15.447 9.08541 15.447C9.05564 15.447 9.02338 15.4495 8.99112 15.452L8.99111 15.452C8.52948 15.4991 8.14229 15.9359 8.14229 16.4074V18.9933H7.00062V16.3876C6.99814 15.8714 6.57621 15.4495 6.05998 15.4495C6.0302 15.4495 5.99793 15.452 5.96567 15.4545C5.50652 15.5016 5.11686 15.9384 5.11686 16.4124V18.9933H4V16.3801C4 15.2386 4.93071 14.3104 6.07239 14.3104C6.64323 14.3104 7.18676 14.5487 7.57891 14.9631C7.97106 14.5462 8.51707 14.3104 9.09286 14.3104ZM18.2958 12.1117H17.1541V18.9983H18.2958V12.1117ZM19.3382 12.1117H20.4798V18.9983H19.3382V12.1117ZM22.6639 14.4295H21.5222V18.9958H22.6639V14.4295ZM27.3373 14.9854C27.7642 15.4197 28 15.9905 28 16.596V17.1197H24.5278C24.6817 17.6706 25.183 18.0577 25.7638 18.0577C26.218 18.0577 26.6275 17.8269 26.8633 17.4373L26.9104 17.3604L27.8536 17.8244L27.799 17.9163C27.3696 18.6384 26.5828 19.0876 25.744 19.0876H25.7415C25.1011 19.0876 24.5005 18.8345 24.0463 18.3754C23.5922 17.9163 23.3464 17.3107 23.3539 16.6705C23.3613 16.0426 23.6095 15.4545 24.0513 15.0103C24.4931 14.566 25.0838 14.3179 25.7092 14.3104H25.739C26.3421 14.3104 26.9079 14.5511 27.3373 14.9854ZM26.8459 16.1766C26.6821 15.6902 26.2155 15.3478 25.6943 15.3478C25.1731 15.3478 24.7065 15.6902 24.5452 16.1766H26.8459Z" fill="white" style="fill:white;fill-opacity:1;"/>
</g>
<defs>
<clipPath id="clip0_2197_115">
<rect width="24" height="7.1" fill="white" style="fill:white;fill-opacity:1;" transform="translate(4 12)"/>
</clipPath>
</defs>
</svg>
