<svg width="16" height="16" viewBox="0 0 16 16" fill="none" xmlns="http://www.w3.org/2000/svg">
<rect width="16" height="16" rx="4" fill="white" style="fill:white;fill-opacity:1;"/>
<path fill-rule="evenodd" clip-rule="evenodd" d="M7.97314 12.6025H12.1042C13.0469 12.6025 13.0567 11.6002 12.9604 11.1056C12.908 10.7728 12.3427 10.778 12.2804 11.1056V11.4914C12.2803 11.5765 12.2464 11.658 12.1862 11.7182C12.1261 11.7784 12.0445 11.8122 11.9594 11.8124H4.04057C3.95549 11.8122 3.87395 11.7784 3.81378 11.7182C3.75362 11.658 3.71975 11.5765 3.71958 11.4914V11.1056C3.65734 10.778 3.09199 10.7728 3.03958 11.1056C2.94328 11.6002 2.95311 12.6025 3.8958 12.6025H7.97314ZM5.05336 3H11.4222C11.8697 3 12.2359 3.38782 12.2359 3.86146V4.27286C12.2359 4.85459 11.4498 4.85197 11.4498 4.27679V4.05275C11.4498 3.98325 11.4222 3.9166 11.373 3.86746C11.3239 3.81831 11.2572 3.79071 11.1877 3.79071H4.80573C4.73623 3.79071 4.66958 3.81831 4.62044 3.86746C4.5713 3.9166 4.54369 3.98325 4.54369 4.05275V4.27286C4.54369 4.85131 3.79295 4.84738 3.79295 4.28531V3.86211C3.79491 3.38847 4.16046 3 4.60789 3H5.05336Z" fill="#3D73B9" style="fill:#3D73B9;fill:color(display-p3 0.2392 0.4510 0.7255);fill-opacity:1;"/>
<path fill-rule="evenodd" clip-rule="evenodd" d="M12.0754 7.73048C12.2941 7.82814 12.4804 7.98614 12.6124 8.18595C12.7445 8.38576 12.8168 8.61909 12.8209 8.85856C12.8209 9.55166 12.2156 10.119 11.476 10.119H9.40127C9.31127 10.1216 9.22383 10.0888 9.15788 10.0275C9.09192 9.96618 9.05275 9.88138 9.04883 9.79142V5.84248C9.04917 5.75074 9.08582 5.66286 9.15075 5.59805C9.21569 5.53323 9.30363 5.49676 9.39538 5.49659H11.1229C11.3819 5.49598 11.6353 5.57167 11.8516 5.71421C12.0679 5.85674 12.2374 6.0598 12.339 6.29806C12.4406 6.53632 12.4698 6.79922 12.4229 7.05396C12.376 7.3087 12.2551 7.54399 12.0754 7.73048ZM10.5274 7.40948H11.1858V7.40227C11.3335 7.37908 11.4682 7.30406 11.5657 7.19062C11.6631 7.07719 11.717 6.93276 11.7177 6.7832C11.7172 6.61726 11.651 6.45827 11.5337 6.34093C11.4164 6.22359 11.2574 6.15744 11.0914 6.15693H9.76485V9.43243H11.4465C11.5332 9.43519 11.6195 9.4205 11.7004 9.38923C11.7813 9.35796 11.8551 9.31075 11.9174 9.25041C11.9797 9.19006 12.0292 9.11781 12.0631 9.03795C12.0969 8.95809 12.1143 8.87225 12.1143 8.78552C12.1143 8.69879 12.0969 8.61294 12.0631 8.53308C12.0292 8.45322 11.9797 8.38097 11.9174 8.32063C11.8551 8.26028 11.7813 8.21307 11.7004 8.18181C11.6195 8.15054 11.5332 8.13585 11.4465 8.1386H11.1845H10.5274C10.4796 8.1386 10.4324 8.1292 10.3883 8.11093C10.3441 8.09266 10.3041 8.06588 10.2703 8.03211C10.2365 7.99835 10.2098 7.95827 10.1915 7.91416C10.1732 7.87005 10.1638 7.82277 10.1638 7.77502C10.1638 7.72728 10.1732 7.68 10.1915 7.63589C10.2098 7.59178 10.2365 7.5517 10.2703 7.51793C10.3041 7.48417 10.3441 7.45739 10.3883 7.43912C10.4324 7.42085 10.4796 7.41144 10.5274 7.41144" fill="#1D1D1B" style="fill:#1D1D1B;fill:color(display-p3 0.1137 0.1137 0.1059);fill-opacity:1;"/>
<path d="M8.71929 9.72521C8.72731 9.78068 8.72406 9.8372 8.70973 9.89138C8.69539 9.94556 8.67028 9.9963 8.63588 10.0405C8.60148 10.0848 8.55851 10.1216 8.50954 10.1489C8.46056 10.1762 8.40659 10.1932 8.35086 10.1992C8.29513 10.2051 8.23877 10.1997 8.18517 10.1833C8.13157 10.1669 8.08183 10.1399 8.03892 10.1038C7.99601 10.0678 7.96081 10.0234 7.93544 9.97346C7.91006 9.92349 7.89503 9.86891 7.89125 9.81299L7.54863 6.67441L6.34259 9.74355V9.75141V9.75797V9.76452V9.76845V9.77434V9.78089C6.31614 9.82717 6.28073 9.8677 6.23843 9.90012L6.23188 9.90536C6.20994 9.92516 6.18576 9.94231 6.15982 9.95646L6.15195 9.96039L6.14475 9.96432H6.14016H6.13492H6.13034H6.1251H6.12116H6.11658H6.11265H6.10872H6.10348C6.06432 9.97831 6.0232 9.98605 5.98163 9.98725H5.95149C5.90477 9.98592 5.85865 9.97638 5.81523 9.95908H5.80934H5.80344H5.7982H5.79427H5.78903H5.78444H5.78117L5.77396 9.95515L5.76741 9.95122H5.76348C5.74023 9.93882 5.71828 9.92412 5.69797 9.90733L5.68421 9.89488L5.67373 9.88505L5.64884 9.8785L5.63639 9.86475C5.6196 9.84444 5.6049 9.82249 5.5925 9.79924V9.79531L5.58857 9.78875L5.58464 9.78155V9.77696V9.77172V9.76779V9.7619V9.75666V9.75076L4.35632 6.67441L4.01502 9.81299C4.00338 9.92271 3.94863 10.0233 3.86281 10.0927C3.777 10.162 3.66715 10.1944 3.55743 10.1828C3.44771 10.1712 3.34711 10.1164 3.27776 10.0306C3.20841 9.94478 3.17599 9.83493 3.18763 9.72521L3.58986 6.0252C3.59957 5.93807 3.62581 5.85358 3.66716 5.77627C3.71877 5.67967 3.79262 5.59674 3.88261 5.53432C3.97259 5.4719 4.07614 5.43178 4.18469 5.41727H4.20696C4.24207 5.41466 4.27732 5.41466 4.31243 5.41727C4.3548 5.41896 4.39692 5.42466 4.43821 5.4343C4.54688 5.45919 4.64781 5.51029 4.73219 5.58314C4.81658 5.65599 4.88186 5.74838 4.92233 5.85226L5.95346 8.45825L6.98262 5.84374C7.03102 5.71981 7.11448 5.61267 7.22279 5.53542C7.33111 5.45817 7.45959 5.41415 7.59252 5.40875C7.62763 5.40615 7.66288 5.40615 7.69799 5.40875H7.72026C7.82878 5.42336 7.93228 5.46353 8.02225 5.52594C8.11223 5.58835 8.1861 5.67122 8.23779 5.76775C8.25788 5.80648 8.27475 5.8468 8.28824 5.88829C8.30148 5.93097 8.31048 5.97486 8.31509 6.01931L8.71929 9.72521Z" fill="#1D1D1B" style="fill:#1D1D1B;fill:color(display-p3 0.1137 0.1137 0.1059);fill-opacity:1;"/>
</svg>
