<svg width="32" height="32" viewBox="0 0 32 32" fill="none" xmlns="http://www.w3.org/2000/svg">
<rect x="0.5" y="0.5" width="31" height="31" rx="7.5" fill="white" style="fill:white;fill-opacity:1;"/>
<rect x="0.5" y="0.5" width="31" height="31" rx="7.5" stroke="#EEEEEE" style="stroke:#EEEEEE;stroke:color(display-p3 0.9333 0.9333 0.9333);stroke-opacity:1;"/>
<path fill-rule="evenodd" clip-rule="evenodd" d="M19.4411 20.1522C19.6145 19.8624 19.6447 19.6583 19.6447 19.6583L17.9349 15.1892C17.9349 15.1892 17.6246 14.3244 18.3083 14.0683C19.0326 13.7966 19.2941 14.4884 19.3485 14.6335C19.4029 14.7785 20.4287 17.5101 20.4287 17.5101L21.4164 14.6397C21.4164 14.6397 21.6994 13.7473 22.4905 14.0656C23.1443 14.3287 22.8085 15.2041 22.8085 15.2041C22.8085 15.2041 21.7977 18.195 20.9503 20.3648C20.4442 21.6611 20.012 21.7889 19.5182 21.9105C18.8573 22.0732 17.6077 21.9925 17.6077 21.1708C17.6077 20.5226 18.2713 20.4822 18.5707 20.4918C18.5867 20.4921 19.2055 20.5457 19.4411 20.1522Z" fill="#1CB9DE" style="fill:#1CB9DE;fill:color(display-p3 0.1098 0.7255 0.8706);fill-opacity:1;"/>
<path fill-rule="evenodd" clip-rule="evenodd" d="M15.4699 12.6397L13.9069 16.9521L12.2031 12.6659C12.2031 12.6659 11.9506 11.8534 11.2402 11.8534C10.417 11.8534 10.4439 12.5054 10.4253 12.6659C10.4068 12.8265 10.4253 19.3684 10.4253 19.3684C10.4253 19.3684 10.417 20.0551 11.1723 20.0551C11.9439 20.0551 11.9069 19.3622 11.913 19.3622C11.9192 19.3622 11.913 15.9087 11.913 15.9087L13.1662 19.3622C13.1662 19.3622 13.3513 20.0412 13.9316 20.0289C14.5119 20.0166 14.6786 19.3622 14.6786 19.3622L15.728 15.915V19.3622C15.728 19.3622 15.728 20.0551 16.4873 20.0551C17.2218 20.0551 17.2218 19.3622 17.2218 19.3622L17.2229 12.6721C17.2229 12.6721 17.2229 11.8534 16.4255 11.8573C15.7643 11.8604 15.5131 12.4943 15.4699 12.6397C15.4649 12.6567 15.4626 12.6659 15.4626 12.6659L15.4699 12.6397Z" fill="#1CB9DE" style="fill:#1CB9DE;fill:color(display-p3 0.1098 0.7255 0.8706);fill-opacity:1;"/>
<path fill-rule="evenodd" clip-rule="evenodd" d="M27.5307 18.5913H25.4238V16.5831H27.5307C28.0402 16.6093 28.535 16.8686 28.535 17.5873C28.535 18.3253 28.0851 18.5913 27.5307 18.5913ZM25.4238 13.4386H27.3876C27.781 13.4487 28.1939 13.6585 28.1939 14.245C28.1939 14.8561 27.8329 15.0513 27.3876 15.0513H25.4238V13.4386ZM29.1905 15.6598C29.2306 15.6047 29.7346 15.1964 29.6948 14.1108C29.6145 11.9128 27.7056 11.9379 27.2831 11.9251C26.6024 11.9046 26.1927 11.9128 24.9434 11.9251C23.8886 11.9355 23.8962 12.8942 23.8962 12.8942V20.055C23.8962 20.055 25.7953 20.055 27.452 20.055C29.3548 20.055 30.0626 19.0075 30.0626 17.5429C30.0626 16.0695 29.1905 15.6598 29.1905 15.6598Z" fill="#204256" style="fill:#204256;fill:color(display-p3 0.1255 0.2588 0.3373);fill-opacity:1;"/>
<path fill-rule="evenodd" clip-rule="evenodd" d="M31 22.6937H23.8642L23.871 22.7044C21.9565 24.9477 19.1131 26.3744 15.9326 26.3744C10.1661 26.3744 5.49158 21.6994 5.49158 15.9331C5.49158 10.1666 10.1661 5.49208 15.9326 5.49208C19.1268 5.49208 21.9838 6.92691 23.8985 9.18664H25.9951C23.8195 5.94774 20.1276 3.8125 15.9326 3.8125C9.23906 3.8125 3.8125 9.23912 3.8125 15.9331C3.8125 22.627 9.23906 28.0535 15.9326 28.0535C19.4441 28.0535 22.5998 26.5545 24.8119 24.1675H31V22.6937Z" fill="#1CB9DE" style="fill:#1CB9DE;fill:color(display-p3 0.1098 0.7255 0.8706);fill-opacity:1;"/>
</svg>
