<svg width="16" height="16" viewBox="0 0 16 16" fill="none" xmlns="http://www.w3.org/2000/svg">
<rect x="0.5" y="0.5" width="15" height="15" rx="3.5" fill="white" style="fill:white;fill-opacity:1;"/>
<rect x="0.5" y="0.5" width="15" height="15" rx="3.5" stroke="#EEEEEE" style="stroke:#EEEEEE;stroke:color(display-p3 0.9333 0.9333 0.9333);stroke-opacity:1;"/>
<path fill-rule="evenodd" clip-rule="evenodd" d="M9.72054 10.0761C9.80725 9.9312 9.82236 9.82916 9.82236 9.82916L8.96743 7.59459C8.96743 7.59459 8.81232 7.16221 9.15416 7.03415C9.5163 6.89828 9.64704 7.2442 9.67424 7.31673C9.70145 7.38926 10.2143 8.75507 10.2143 8.75507L10.7082 7.31987C10.7082 7.31987 10.8497 6.87363 11.2452 7.03278C11.5721 7.16436 11.4042 7.60205 11.4042 7.60205C11.4042 7.60205 10.8988 9.09748 10.4752 10.1824C10.2221 10.8306 10.006 10.8945 9.75912 10.9552C9.42863 11.0366 8.80383 10.9963 8.80383 10.5854C8.80383 10.2613 9.13563 10.2411 9.28533 10.2459C9.29335 10.2461 9.60274 10.2729 9.72054 10.0761Z" fill="#1CB9DE" style="fill:#1CB9DE;fill:color(display-p3 0.1098 0.7255 0.8706);fill-opacity:1;"/>
<path fill-rule="evenodd" clip-rule="evenodd" d="M7.73488 6.31984L6.95341 8.47604L6.1015 6.33296C6.1015 6.33296 5.97524 5.9267 5.62003 5.9267C5.20845 5.9267 5.22188 6.25271 5.21261 6.33296C5.20335 6.41327 5.21261 9.68419 5.21261 9.68419C5.21261 9.68419 5.20845 10.0276 5.58607 10.0276C5.97191 10.0276 5.95338 9.68111 5.95646 9.68111C5.95954 9.68111 5.95646 7.95437 5.95646 7.95437L6.58303 9.68111C6.58303 9.68111 6.67559 10.0206 6.96575 10.0144C7.25589 10.0083 7.33922 9.68111 7.33922 9.68111L7.86396 7.95748V9.68111C7.86396 9.68111 7.86396 10.0276 8.24358 10.0276C8.61085 10.0276 8.61085 9.68111 8.61085 9.68111L8.61138 6.33607C8.61138 6.33607 8.61138 5.9267 8.21271 5.92866C7.88209 5.93021 7.75648 6.24715 7.73488 6.31984C7.73239 6.32833 7.73124 6.33296 7.73124 6.33296L7.73488 6.31984Z" fill="#1CB9DE" style="fill:#1CB9DE;fill:color(display-p3 0.1098 0.7255 0.8706);fill-opacity:1;"/>
<path fill-rule="evenodd" clip-rule="evenodd" d="M13.7653 9.29563H12.7119V8.29153H13.7653C14.0201 8.30465 14.2675 8.43429 14.2675 8.79364C14.2675 9.16265 14.0425 9.29563 13.7653 9.29563ZM12.7119 6.7193H13.6938C13.8905 6.72437 14.0969 6.82927 14.0969 7.12252C14.0969 7.42804 13.9164 7.52567 13.6938 7.52567H12.7119V6.7193ZM14.5952 7.82989C14.6153 7.80234 14.8673 7.5982 14.8474 7.05539C14.8072 5.9564 13.8528 5.96893 13.6415 5.96253C13.3012 5.9523 13.0964 5.9564 12.4717 5.96253C11.9443 5.96775 11.9481 6.4471 11.9481 6.4471V10.0275C11.9481 10.0275 12.8977 10.0275 13.726 10.0275C14.6774 10.0275 15.0313 9.50375 15.0313 8.77147C15.0313 8.03475 14.5952 7.82989 14.5952 7.82989Z" fill="#204256" style="fill:#204256;fill:color(display-p3 0.1255 0.2588 0.3373);fill-opacity:1;"/>
<path fill-rule="evenodd" clip-rule="evenodd" d="M15.5 11.3468H11.9321L11.9355 11.3522C10.9783 12.4738 9.55657 13.1872 7.96628 13.1872C5.08306 13.1872 2.74579 10.8497 2.74579 7.96653C2.74579 5.08331 5.08306 2.74604 7.96628 2.74604C9.56338 2.74604 10.9919 3.46346 11.9493 4.59332H12.9976C11.9097 2.97387 10.0638 1.90625 7.96628 1.90625C4.61953 1.90625 1.90625 4.61956 1.90625 7.96653C1.90625 11.3135 4.61953 14.0268 7.96628 14.0268C9.72203 14.0268 11.2999 13.2773 12.406 12.0838H15.5V11.3468Z" fill="#1CB9DE" style="fill:#1CB9DE;fill:color(display-p3 0.1098 0.7255 0.8706);fill-opacity:1;"/>
</svg>
