<svg width="24" height="24" viewBox="0 0 24 24" fill="none" xmlns="http://www.w3.org/2000/svg">
<rect width="24" height="24" rx="6" fill="#D13239" style="fill:#D13239;fill:color(display-p3 0.8196 0.1961 0.2235);fill-opacity:1;"/>
<path fill-rule="evenodd" clip-rule="evenodd" d="M9.81814 9.38948C9.74936 9.31665 9.65023 9.26 9.54098 9.2155C9.42566 9.17099 9.29821 9.13862 9.17278 9.11636C9.01498 9.08804 8.86122 9.0759 8.75197 9.07186C8.65082 9.06781 8.58608 9.06781 8.58608 9.06781H7.20229H6.17253L5.25 14.6394H6.11184L6.45172 12.5759L8.12279 12.5839C8.12279 12.5839 8.77423 12.6102 9.23549 12.3655C9.69676 12.1207 9.82017 11.5643 9.82017 11.5643C9.82017 11.5643 9.87075 11.358 9.91323 11.1071C9.95976 10.8299 10.0063 10.4981 10.0306 10.3221C10.0407 10.2453 10.0468 10.1967 10.0468 10.1967C10.0468 10.1967 10.0589 10.14 10.0589 10.051C10.0609 9.92763 10.0427 9.7415 9.9456 9.56347C9.91121 9.50075 9.87075 9.44411 9.81814 9.38948ZM9.15457 10.3727C9.15457 10.3828 9.07769 10.8299 8.97654 11.36C8.9381 11.5623 8.78232 11.6715 8.60429 11.71C8.30892 11.7727 7.99129 11.7605 7.99129 11.7605L6.59536 11.7565L6.90287 9.90537L8.1673 9.90942C8.1673 9.90942 8.25227 9.90739 8.37163 9.90942C8.50718 9.91144 8.68724 9.91751 8.83492 9.93774C8.96238 9.95393 9.06353 9.98023 9.0959 10.0207C9.13839 10.0733 9.15457 10.1421 9.16064 10.2028C9.16873 10.2918 9.15457 10.3666 9.15457 10.3727Z" fill="white" style="fill:white;fill-opacity:1;"/>
<path fill-rule="evenodd" clip-rule="evenodd" d="M10.6537 11.0201L11.5256 11.0221L11.5782 10.6842C11.5782 10.6842 11.6713 10.0733 11.8797 9.95593C11.9464 9.9175 12.0536 9.8831 12.1771 9.86085C12.4057 9.82039 12.695 9.81634 12.9317 9.82443C13.2938 9.83657 13.4314 9.84062 13.7996 9.8831C14.1678 9.92559 14.0747 10.2817 14.0747 10.2817L14.0019 10.8137C14.0019 10.8137 13.9695 11.0525 13.8845 11.2001C13.8097 11.3316 13.6033 11.4207 13.484 11.4591C13.1967 11.5522 12.2135 11.803 12.2135 11.803L11.4406 12.0256C11.4406 12.0256 10.9652 12.1631 10.7002 12.4565C10.4331 12.7518 10.3279 13.0857 10.2915 13.2596C10.2551 13.4336 10.0508 14.6374 10.0508 14.6374L14.2224 14.6394L14.362 13.8059L11.0623 13.8099L11.121 13.47C11.121 13.47 11.1594 13.1201 11.3011 13.0047C11.3456 12.9683 11.3678 12.9198 11.6308 12.8267C11.7886 12.7701 12.3268 12.6264 12.3268 12.6264L13.571 12.2865C13.571 12.2865 14.2507 12.1126 14.5178 11.7403C14.7848 11.3701 14.888 10.66 14.888 10.66C14.888 10.66 14.9608 9.9701 14.9042 9.75363C14.8496 9.53715 14.6452 9.2782 14.3964 9.16693C14.1475 9.05566 13.8886 8.99092 13.138 9.00103C12.3875 9.01115 12.0152 9.04554 11.6349 9.18716C11.2545 9.32675 11.034 9.58166 10.8944 9.94177C10.7427 10.2837 10.6537 11.0201 10.6537 11.0201Z" fill="#D4D4D4" style="fill:#D4D4D4;fill:color(display-p3 0.8297 0.8297 0.8297);fill-opacity:1;"/>
<path fill-rule="evenodd" clip-rule="evenodd" d="M18.5073 12.5698L19.092 9.0658H18.0561L14.8313 12.5293L14.6857 13.4074H17.5059L17.2995 14.6374L18.1654 14.6394L18.3697 13.4074L19.1688 13.4094L19.3125 12.5698H18.5073ZM17.6455 12.5718L15.8226 12.5698L18.042 10.2048L17.6455 12.5718Z" fill="#D4D4D4" style="fill:#D4D4D4;fill:color(display-p3 0.8297 0.8297 0.8297);fill-opacity:1;"/>
</svg>
