<svg width="40" height="30" viewBox="0 0 40 30" fill="none" xmlns="http://www.w3.org/2000/svg">
<rect width="40" height="30" rx="5" fill="#0040FF" style="fill:#0040FF;fill:color(display-p3 0.0000 0.2510 1.0000);fill-opacity:1;"/>
<path fill-rule="evenodd" clip-rule="evenodd" d="M12.4534 10.7288C12.2997 10.8089 12.1844 10.9007 12.1076 11.0042C12.0359 11.1078 12 11.2255 12 11.3573C12 11.5268 12.0666 11.6775 12.1998 11.8093C12.333 11.9364 12.5174 12 12.7531 12H27.2469C27.4877 12 27.6721 11.9364 27.8002 11.8093C27.9334 11.6775 28 11.5268 28 11.3573C28 11.2255 27.9616 11.1078 27.8847 11.0042C27.813 10.9007 27.7028 10.8089 27.5543 10.7288L20.9914 7.25424C20.6635 7.08475 20.333 7 20 7C19.667 7 19.3391 7.08475 19.0163 7.25424L12.4534 10.7288ZM16.0914 10.5H23.9162L20.2973 8.58406C20.1617 8.51481 20.0674 8.5 20 8.5C19.9327 8.5 19.843 8.51467 19.7155 8.58135L16.0914 10.5Z" fill="white" style="fill:white;fill-opacity:1;"/>
<path d="M14.75 13.5H16.25V20H14.75V13.5Z" fill="white" style="fill:white;fill-opacity:1;"/>
<path d="M14 14.1C14 13.8172 14 13.6757 14.0879 13.5879C14.1757 13.5 14.3172 13.5 14.6 13.5H16.4C16.6828 13.5 16.8243 13.5 16.9121 13.5879C17 13.6757 17 13.8172 17 14.1V14.4C17 14.6828 17 14.8243 16.9121 14.9121C16.8243 15 16.6828 15 16.4 15H14.6C14.3172 15 14.1757 15 14.0879 14.9121C14 14.8243 14 14.6828 14 14.4V14.1Z" fill="white" style="fill:white;fill-opacity:1;"/>
<path d="M14 19.1C14 18.8172 14 18.6757 14.0879 18.5879C14.1757 18.5 14.3172 18.5 14.6 18.5H16.4C16.6828 18.5 16.8243 18.5 16.9121 18.5879C17 18.6757 17 18.8172 17 19.1V19.4C17 19.6828 17 19.8243 16.9121 19.9121C16.8243 20 16.6828 20 16.4 20H14.6C14.3172 20 14.1757 20 14.0879 19.9121C14 19.8243 14 19.6828 14 19.4V19.1Z" fill="white" style="fill:white;fill-opacity:1;"/>
<path d="M19.25 13.5H20.75V20H19.25V13.5Z" fill="white" style="fill:white;fill-opacity:1;"/>
<path d="M18.5 14.1C18.5 13.8172 18.5 13.6757 18.5879 13.5879C18.6757 13.5 18.8172 13.5 19.1 13.5H20.9C21.1828 13.5 21.3243 13.5 21.4121 13.5879C21.5 13.6757 21.5 13.8172 21.5 14.1V14.4C21.5 14.6828 21.5 14.8243 21.4121 14.9121C21.3243 15 21.1828 15 20.9 15H19.1C18.8172 15 18.6757 15 18.5879 14.9121C18.5 14.8243 18.5 14.6828 18.5 14.4V14.1Z" fill="white" style="fill:white;fill-opacity:1;"/>
<path d="M18.5 19.1C18.5 18.8172 18.5 18.6757 18.5879 18.5879C18.6757 18.5 18.8172 18.5 19.1 18.5H20.9C21.1828 18.5 21.3243 18.5 21.4121 18.5879C21.5 18.6757 21.5 18.8172 21.5 19.1V19.4C21.5 19.6828 21.5 19.8243 21.4121 19.9121C21.3243 20 21.1828 20 20.9 20H19.1C18.8172 20 18.6757 20 18.5879 19.9121C18.5 19.8243 18.5 19.6828 18.5 19.4V19.1Z" fill="white" style="fill:white;fill-opacity:1;"/>
<path d="M23.75 13.5H25.25V20H23.75V13.5Z" fill="white" style="fill:white;fill-opacity:1;"/>
<path d="M23 14.1C23 13.8172 23 13.6757 23.0879 13.5879C23.1757 13.5 23.3172 13.5 23.6 13.5H25.4C25.6828 13.5 25.8243 13.5 25.9121 13.5879C26 13.6757 26 13.8172 26 14.1V14.4C26 14.6828 26 14.8243 25.9121 14.9121C25.8243 15 25.6828 15 25.4 15H23.6C23.3172 15 23.1757 15 23.0879 14.9121C23 14.8243 23 14.6828 23 14.4V14.1Z" fill="white" style="fill:white;fill-opacity:1;"/>
<path d="M23 19.1C23 18.8172 23 18.6757 23.0879 18.5879C23.1757 18.5 23.3172 18.5 23.6 18.5H25.4C25.6828 18.5 25.8243 18.5 25.9121 18.5879C26 18.6757 26 18.8172 26 19.1V19.4C26 19.6828 26 19.8243 25.9121 19.9121C25.8243 20 25.6828 20 25.4 20H23.6C23.3172 20 23.1757 20 23.0879 19.9121C23 19.8243 23 19.6828 23 19.4V19.1Z" fill="white" style="fill:white;fill-opacity:1;"/>
<path d="M12 22.25C12 21.8358 12.3358 21.5 12.75 21.5H27.25C27.6642 21.5 28 21.8358 28 22.25C28 22.6642 27.6642 23 27.25 23H12.75C12.3358 23 12 22.6642 12 22.25Z" fill="white" style="fill:white;fill-opacity:1;"/>
</svg>
