<svg width="24" height="24" viewBox="0 0 24 24" fill="none" xmlns="http://www.w3.org/2000/svg">
<rect width="24" height="24" rx="6" fill="#FF4785" style="fill:#FF4785;fill:color(display-p3 1.0000 0.2784 0.5216);fill-opacity:1;"/>
<g clip-path="url(#clip0_5268_410)">
<path fill-rule="evenodd" clip-rule="evenodd" d="M5.90527 9.06451L6.92833 10.6819C7.18485 10.511 7.47359 10.4295 7.7588 10.4295C8.26136 10.4295 8.754 10.6822 9.04718 11.1462C9.26954 11.4977 9.34529 11.9174 9.25962 12.3274C9.18496 12.6861 8.99564 12.9997 8.72011 13.2256L11.1321 11.4479C11.058 10.9723 10.8883 10.5133 10.6249 10.0969C10.1295 9.31276 9.36542 8.77299 8.4738 8.57791C8.23462 8.52556 7.99355 8.49994 7.75437 8.49994C7.10274 8.49994 6.4646 8.69171 5.90527 9.06451Z" fill="white" style="fill:white;fill-opacity:1;"/>
<path fill-rule="evenodd" clip-rule="evenodd" d="M15.2717 10.7699L15.3915 10.6817C15.3496 10.7093 15.3099 10.7388 15.2717 10.7699ZM12.8557 12.551C12.9277 13.0194 13.0935 13.4799 13.3608 13.9034C14.0138 14.9358 15.111 15.4981 16.2299 15.4981C16.8655 15.4981 17.5086 15.3163 18.0804 14.9366L17.0576 13.3181C16.7143 13.5471 16.3057 13.6234 15.9048 13.5363C15.5047 13.4487 15.1617 13.2065 14.9388 12.8544C14.5067 12.1703 14.6608 11.2672 15.2717 10.7699L12.8557 12.551Z" fill="white" style="fill:white;fill-opacity:1;"/>
<path fill-rule="evenodd" clip-rule="evenodd" d="M14.3311 9.09022L14.1327 9.23625L11.1321 11.448L8.72013 13.2257C8.68018 13.2588 8.63828 13.2896 8.59475 13.3185C8.51566 13.3709 8.43329 13.4136 8.34926 13.4497C7.73675 13.7112 7.0187 13.5357 6.58804 13.0083C6.54864 12.9595 6.51062 12.9088 6.47617 12.8545L4.89819 13.9035C5.39388 14.6877 6.15793 15.2272 7.04928 15.4222C7.1088 15.4352 7.16831 15.4465 7.22783 15.4564C7.28569 15.4658 7.3441 15.4735 7.40195 15.4801C7.40335 15.4804 7.40444 15.4804 7.40583 15.4807C7.52485 15.4933 7.64362 15.5 7.76236 15.5C8.41732 15.5 9.06536 15.303 9.65334 14.9111C9.65501 14.91 9.65665 14.9089 9.65832 14.9076L9.852 14.7651L12.8556 12.5512L15.3911 10.682C15.4296 10.6564 15.469 10.6335 15.509 10.6117C15.5206 10.6054 15.5324 10.5993 15.544 10.5935C15.5751 10.5776 15.6074 10.5627 15.6393 10.5489C15.6495 10.5445 15.6597 10.5398 15.6699 10.5359C15.7123 10.5189 15.7553 10.5037 15.7988 10.4907C15.8027 10.4894 15.8068 10.4886 15.8107 10.4874C15.8509 10.4759 15.8911 10.4665 15.9322 10.4582C15.9421 10.4563 15.9518 10.4544 15.962 10.4527C16.0019 10.4456 16.0427 10.4398 16.0835 10.4362C16.0882 10.4357 16.0931 10.4348 16.0978 10.4343C16.1386 10.431 16.1799 10.4291 16.221 10.4291C16.2251 10.4291 16.2298 10.4293 16.2342 10.4293C16.264 10.4296 16.2937 10.4324 16.3232 10.4343C16.345 10.4359 16.367 10.4362 16.3888 10.4387C16.4406 10.4445 16.4924 10.4527 16.5439 10.464C16.5937 10.4748 16.6428 10.4883 16.691 10.5037C16.7365 10.5186 16.7808 10.5359 16.8244 10.5547C16.8381 10.5607 16.8517 10.5679 16.8652 10.5745C16.8944 10.5883 16.9236 10.6024 16.9517 10.6178C16.9674 10.6266 16.9823 10.6357 16.9974 10.645C17.023 10.6602 17.0481 10.6759 17.0729 10.6927C17.0881 10.7032 17.1027 10.714 17.1176 10.7247C17.1418 10.7426 17.1649 10.7611 17.1878 10.7798C17.2019 10.7911 17.2151 10.8029 17.2289 10.8148C17.252 10.836 17.2746 10.8578 17.2969 10.8801C17.3082 10.8917 17.3201 10.9027 17.3305 10.9148C17.3556 10.9418 17.3796 10.9699 17.4027 10.9988C17.4099 11.0074 17.4173 11.0156 17.4242 11.0242C17.4543 11.0633 17.4829 11.1036 17.5096 11.146L19.0876 10.0973C18.7159 9.50931 18.1932 9.05826 17.5788 8.78768C17.3744 8.69731 17.1594 8.62677 16.9365 8.57828C16.6998 8.52676 16.4612 8.50085 16.224 8.50085C15.568 8.50085 14.9202 8.69786 14.3311 9.09022Z" fill="white" style="fill:white;fill-opacity:1;"/>
<path fill-rule="evenodd" clip-rule="evenodd" d="M4.89833 13.9032L6.47631 12.8545C6.39007 12.7184 6.32752 12.5735 6.28674 12.4247C6.24596 12.2759 6.22778 12.1233 6.23081 11.972C6.24018 11.468 6.48568 10.9765 6.92846 10.6819L5.90541 9.06427C4.3266 10.114 3.875 12.2844 4.89833 13.9032Z" fill="white" style="fill:white;fill-opacity:1;"/>
<path fill-rule="evenodd" clip-rule="evenodd" d="M17.5098 11.1459C17.7324 11.4978 17.8079 11.9174 17.7225 12.3277C17.6371 12.7382 17.4009 13.0898 17.0576 13.3182L18.0804 14.9367C18.8456 14.4278 19.3715 13.6444 19.5617 12.7305C19.5887 12.601 19.6074 12.4709 19.6201 12.3412C19.6292 12.2505 19.6347 12.1599 19.6366 12.0692C19.6369 12.0607 19.6374 12.0521 19.6374 12.0436C19.6471 11.3581 19.4597 10.6849 19.0877 10.0972L17.5098 11.1459Z" fill="white" style="fill:white;fill-opacity:1;"/>
<path fill-rule="evenodd" clip-rule="evenodd" d="M5.90527 9.06451L6.92833 10.6819C7.18485 10.511 7.47359 10.4295 7.7588 10.4295C8.26136 10.4295 8.754 10.6822 9.04718 11.1462C9.26954 11.4977 9.34529 11.9174 9.25962 12.3274C9.18496 12.6861 8.99564 12.9997 8.72011 13.2256L11.1321 11.4479C11.058 10.9723 10.8883 10.5133 10.6249 10.0969C10.1295 9.31276 9.36542 8.77299 8.4738 8.57791C8.23462 8.52556 7.99355 8.49994 7.75437 8.49994C7.10274 8.49994 6.4646 8.69171 5.90527 9.06451Z" fill="white" style="fill:white;fill-opacity:1;"/>
<path fill-rule="evenodd" clip-rule="evenodd" d="M14.3311 9.09022L14.1327 9.23625L11.1321 11.448L8.72013 13.2257C8.68018 13.2588 8.63828 13.2896 8.59475 13.3185C8.51566 13.3709 8.43329 13.4136 8.34926 13.4497C7.73675 13.7112 7.0187 13.5357 6.58804 13.0083C6.54864 12.9595 6.51062 12.9088 6.47617 12.8545L4.89819 13.9035C5.39388 14.6877 6.15793 15.2272 7.04928 15.4222C7.1088 15.4352 7.16831 15.4465 7.22783 15.4564C7.28569 15.4658 7.3441 15.4735 7.40195 15.4801C7.40335 15.4804 7.40444 15.4804 7.40583 15.4807C7.52485 15.4933 7.64362 15.5 7.76236 15.5C8.41732 15.5 9.06536 15.303 9.65334 14.9111C9.65501 14.91 9.65665 14.9089 9.65832 14.9076L9.852 14.7651L12.8556 12.5512L15.3911 10.682C15.4296 10.6564 15.469 10.6335 15.509 10.6117C15.5206 10.6054 15.5324 10.5993 15.544 10.5935C15.5751 10.5776 15.6074 10.5627 15.6393 10.5489C15.6495 10.5445 15.6597 10.5398 15.6699 10.5359C15.7123 10.5189 15.7553 10.5037 15.7988 10.4907C15.8027 10.4894 15.8068 10.4886 15.8107 10.4874C15.8509 10.4759 15.8911 10.4665 15.9322 10.4582C15.9421 10.4563 15.9518 10.4544 15.962 10.4527C16.0019 10.4456 16.0427 10.4398 16.0835 10.4362C16.0882 10.4357 16.0931 10.4348 16.0978 10.4343C16.1386 10.431 16.1799 10.4291 16.221 10.4291C16.2251 10.4291 16.2298 10.4293 16.2342 10.4293C16.264 10.4296 16.2937 10.4324 16.3232 10.4343C16.345 10.4359 16.367 10.4362 16.3888 10.4387C16.4406 10.4445 16.4924 10.4527 16.5439 10.464C16.5937 10.4748 16.6428 10.4883 16.691 10.5037C16.7365 10.5186 16.7808 10.5359 16.8244 10.5547C16.8381 10.5607 16.8517 10.5679 16.8652 10.5745C16.8944 10.5883 16.9236 10.6024 16.9517 10.6178C16.9674 10.6266 16.9823 10.6357 16.9974 10.645C17.023 10.6602 17.0481 10.6759 17.0729 10.6927C17.0881 10.7032 17.1027 10.714 17.1176 10.7247C17.1418 10.7426 17.1649 10.7611 17.1878 10.7798C17.2019 10.7911 17.2151 10.8029 17.2289 10.8148C17.252 10.836 17.2746 10.8578 17.2969 10.8801C17.3082 10.8917 17.3201 10.9027 17.3305 10.9148C17.3556 10.9418 17.3796 10.9699 17.4027 10.9988C17.4099 11.0074 17.4173 11.0156 17.4242 11.0242C17.4543 11.0633 17.4829 11.1036 17.5096 11.146L19.0876 10.0973C18.7159 9.50931 18.1932 9.05826 17.5788 8.78768C17.3744 8.69731 17.1594 8.62677 16.9365 8.57828C16.6998 8.52676 16.4612 8.50085 16.224 8.50085C15.568 8.50085 14.9202 8.69786 14.3311 9.09022Z" fill="white" style="fill:white;fill-opacity:1;"/>
<path fill-rule="evenodd" clip-rule="evenodd" d="M15.2717 10.7699L15.3915 10.6817C15.3496 10.7093 15.3099 10.7388 15.2717 10.7699ZM12.8557 12.551C12.9277 13.0194 13.0935 13.4799 13.3608 13.9034C14.0138 14.9358 15.111 15.4981 16.2299 15.4981C16.8655 15.4981 17.5086 15.3163 18.0804 14.9366L17.0576 13.3181C16.7143 13.5471 16.3057 13.6234 15.9048 13.5363C15.5047 13.4487 15.1617 13.2065 14.9388 12.8544C14.5067 12.1703 14.6608 11.2672 15.2717 10.7699L12.8557 12.551Z" fill="white" style="fill:white;fill-opacity:1;"/>
<path fill-rule="evenodd" clip-rule="evenodd" d="M17.5098 11.1459C17.7324 11.4978 17.8079 11.9174 17.7225 12.3277C17.6371 12.7382 17.4009 13.0898 17.0576 13.3182L18.0804 14.9367C18.8456 14.4278 19.3715 13.6444 19.5617 12.7305C19.5887 12.601 19.6074 12.4709 19.6201 12.3412C19.6292 12.2505 19.6347 12.1599 19.6366 12.0692C19.6369 12.0607 19.6374 12.0521 19.6374 12.0436C19.6471 11.3581 19.4597 10.6849 19.0877 10.0972L17.5098 11.1459Z" fill="white" style="fill:white;fill-opacity:1;"/>
</g>
<defs>
<clipPath id="clip0_5268_410">
<rect width="15.2874" height="7" fill="white" style="fill:white;fill-opacity:1;" transform="translate(4.3501 8.5)"/>
</clipPath>
</defs>
</svg>
