<svg width="40" height="30" viewBox="0 0 40 30" fill="none" xmlns="http://www.w3.org/2000/svg">
<rect width="40" height="30" rx="5" fill="#FF4785" style="fill:#FF4785;fill:color(display-p3 1.0000 0.2784 0.5216);fill-opacity:1;"/>
<g clip-path="url(#clip0_5268_1110)">
<path fill-rule="evenodd" clip-rule="evenodd" d="M10.4436 10.3871L12.0513 12.9288C12.4544 12.6603 12.9081 12.5321 13.3563 12.5321C14.146 12.5321 14.9202 12.9292 15.3809 13.6583C15.7303 14.2108 15.8493 14.8702 15.7147 15.5145C15.5974 16.0782 15.2999 16.571 14.8669 16.926L18.6573 14.1324C18.5408 13.3851 18.2741 12.6638 17.8601 12.0095C17.0816 10.7773 15.881 9.92906 14.4799 9.6225C14.104 9.54024 13.7252 9.49997 13.3493 9.49997C12.3253 9.49997 11.3226 9.80132 10.4436 10.3871Z" fill="white" style="fill:white;fill-opacity:1;"/>
<path fill-rule="evenodd" clip-rule="evenodd" d="M25.1622 13.067L25.3505 12.9284C25.2847 12.9717 25.2224 13.0181 25.1622 13.067ZM21.3657 15.8659C21.4788 16.602 21.7394 17.3255 22.1594 17.991C23.1856 19.6134 24.9097 20.4971 26.668 20.4971C27.6669 20.4971 28.6775 20.2113 29.5759 19.6147L27.9687 17.0714C27.4292 17.4312 26.7871 17.5511 26.1571 17.4142C25.5284 17.2766 24.9894 16.896 24.6391 16.3426C23.9602 15.2676 24.2023 13.8485 25.1622 13.067L21.3657 15.8659Z" fill="white" style="fill:white;fill-opacity:1;"/>
<path fill-rule="evenodd" clip-rule="evenodd" d="M23.6844 10.4275L23.3727 10.657L18.6575 14.1325L14.8672 16.9261C14.8044 16.9781 14.7386 17.0265 14.6702 17.072C14.5459 17.1543 14.4165 17.2214 14.2844 17.2781C13.3219 17.689 12.1936 17.4132 11.5168 16.5845C11.4549 16.5078 11.3951 16.4282 11.341 16.3429L8.86133 17.9913C9.64026 19.2235 10.8409 20.0713 12.2416 20.3778C12.3351 20.3982 12.4287 20.4159 12.5222 20.4315C12.6131 20.4462 12.7049 20.4584 12.7958 20.4687C12.798 20.4692 12.7997 20.4692 12.8019 20.4696C12.9889 20.4895 13.1756 20.4999 13.3622 20.4999C14.3914 20.4999 15.4097 20.1904 16.3337 19.5746C16.3363 19.5729 16.3389 19.5712 16.3415 19.569L16.6459 19.3452L21.3658 15.8661L25.3501 12.9288C25.4107 12.8886 25.4726 12.8526 25.5354 12.8184C25.5536 12.8085 25.5722 12.7989 25.5904 12.7898C25.6393 12.7647 25.69 12.7414 25.7402 12.7197C25.7562 12.7128 25.7723 12.7054 25.7883 12.6993C25.855 12.6725 25.9225 12.6487 25.9909 12.6283C25.997 12.6262 26.0035 12.6249 26.0095 12.6231C26.0727 12.605 26.136 12.5902 26.2005 12.5772C26.2161 12.5742 26.2312 12.5712 26.2472 12.5686C26.31 12.5573 26.3741 12.5482 26.4382 12.5426C26.4456 12.5418 26.4534 12.5404 26.4607 12.5396C26.5248 12.5344 26.5898 12.5314 26.6543 12.5314C26.6607 12.5314 26.6681 12.5318 26.675 12.5318C26.7218 12.5322 26.7685 12.5366 26.8149 12.5396C26.8491 12.5422 26.8837 12.5426 26.9179 12.5465C26.9993 12.5556 27.0808 12.5686 27.1617 12.5863C27.2401 12.6032 27.3171 12.6245 27.3929 12.6487C27.4644 12.672 27.5341 12.6993 27.6025 12.7288C27.6241 12.7383 27.6454 12.7495 27.6666 12.76C27.7125 12.7816 27.7584 12.8037 27.8025 12.828C27.8272 12.8418 27.8506 12.8561 27.8744 12.8708C27.9146 12.8946 27.954 12.9193 27.993 12.9457C28.0168 12.9622 28.0398 12.9791 28.0632 12.9959C28.1013 13.0241 28.1376 13.0531 28.1736 13.0825C28.1957 13.1003 28.2164 13.1189 28.2381 13.1375C28.2745 13.1709 28.31 13.2051 28.3451 13.2401C28.3628 13.2583 28.3814 13.2757 28.3979 13.2947C28.4373 13.3371 28.4749 13.3813 28.5113 13.4268C28.5226 13.4401 28.5343 13.4532 28.5451 13.4666C28.5923 13.5281 28.6373 13.5913 28.6793 13.6579L31.159 12.01C30.5749 11.0861 29.7535 10.3773 28.788 9.95208C28.4667 9.81006 28.129 9.69922 27.7787 9.62301C27.4068 9.54204 27.0318 9.50134 26.659 9.50134C25.6281 9.50134 24.6101 9.81093 23.6844 10.4275Z" fill="white" style="fill:white;fill-opacity:1;"/>
<path fill-rule="evenodd" clip-rule="evenodd" d="M8.86137 17.9907L11.3411 16.3428C11.2055 16.1289 11.1072 15.9012 11.0432 15.6674C10.9791 15.4336 10.9505 15.1937 10.9553 14.956C10.97 14.1641 11.3558 13.3916 12.0516 12.9288L10.4439 10.3867C7.96294 12.0364 7.25328 15.447 8.86137 17.9907Z" fill="white" style="fill:white;fill-opacity:1;"/>
<path fill-rule="evenodd" clip-rule="evenodd" d="M28.6793 13.6579C29.0291 14.2108 29.1477 14.8702 29.0135 15.515C28.8793 16.1601 28.5082 16.7126 27.9688 17.0715L29.5759 19.6148C30.7784 18.8152 31.6049 17.5842 31.9037 16.148C31.9461 15.9445 31.9755 15.7401 31.9955 15.5362C32.0098 15.3937 32.0184 15.2513 32.0214 15.1088C32.0219 15.0954 32.0227 15.082 32.0227 15.0686C32.0379 13.9913 31.7435 12.9335 31.1589 12.01L28.6793 13.6579Z" fill="white" style="fill:white;fill-opacity:1;"/>
<path fill-rule="evenodd" clip-rule="evenodd" d="M10.4436 10.3871L12.0513 12.9288C12.4544 12.6603 12.9081 12.5321 13.3563 12.5321C14.146 12.5321 14.9202 12.9292 15.3809 13.6583C15.7303 14.2108 15.8493 14.8702 15.7147 15.5145C15.5974 16.0782 15.2999 16.571 14.8669 16.926L18.6573 14.1324C18.5408 13.3851 18.2741 12.6638 17.8601 12.0095C17.0816 10.7773 15.881 9.92906 14.4799 9.6225C14.104 9.54024 13.7252 9.49997 13.3493 9.49997C12.3253 9.49997 11.3226 9.80132 10.4436 10.3871Z" fill="white" style="fill:white;fill-opacity:1;"/>
<path fill-rule="evenodd" clip-rule="evenodd" d="M23.6844 10.4275L23.3727 10.657L18.6575 14.1325L14.8672 16.9261C14.8044 16.9781 14.7386 17.0265 14.6702 17.072C14.5459 17.1543 14.4165 17.2214 14.2844 17.2781C13.3219 17.689 12.1936 17.4132 11.5168 16.5845C11.4549 16.5078 11.3951 16.4282 11.341 16.3429L8.86133 17.9913C9.64026 19.2235 10.8409 20.0713 12.2416 20.3778C12.3351 20.3982 12.4287 20.4159 12.5222 20.4315C12.6131 20.4462 12.7049 20.4584 12.7958 20.4687C12.798 20.4692 12.7997 20.4692 12.8019 20.4696C12.9889 20.4895 13.1756 20.4999 13.3622 20.4999C14.3914 20.4999 15.4097 20.1904 16.3337 19.5746C16.3363 19.5729 16.3389 19.5712 16.3415 19.569L16.6459 19.3452L21.3658 15.8661L25.3501 12.9288C25.4107 12.8886 25.4726 12.8526 25.5354 12.8184C25.5536 12.8085 25.5722 12.7989 25.5904 12.7898C25.6393 12.7647 25.69 12.7414 25.7402 12.7197C25.7562 12.7128 25.7723 12.7054 25.7883 12.6993C25.855 12.6725 25.9225 12.6487 25.9909 12.6283C25.997 12.6262 26.0035 12.6249 26.0095 12.6231C26.0727 12.605 26.136 12.5902 26.2005 12.5772C26.2161 12.5742 26.2312 12.5712 26.2472 12.5686C26.31 12.5573 26.3741 12.5482 26.4382 12.5426C26.4456 12.5418 26.4534 12.5404 26.4607 12.5396C26.5248 12.5344 26.5898 12.5314 26.6543 12.5314C26.6607 12.5314 26.6681 12.5318 26.675 12.5318C26.7218 12.5322 26.7685 12.5366 26.8149 12.5396C26.8491 12.5422 26.8837 12.5426 26.9179 12.5465C26.9993 12.5556 27.0808 12.5686 27.1617 12.5863C27.2401 12.6032 27.3171 12.6245 27.3929 12.6487C27.4644 12.672 27.5341 12.6993 27.6025 12.7288C27.6241 12.7383 27.6454 12.7495 27.6666 12.76C27.7125 12.7816 27.7584 12.8037 27.8025 12.828C27.8272 12.8418 27.8506 12.8561 27.8744 12.8708C27.9146 12.8946 27.954 12.9193 27.993 12.9457C28.0168 12.9622 28.0398 12.9791 28.0632 12.9959C28.1013 13.0241 28.1376 13.0531 28.1736 13.0825C28.1957 13.1003 28.2164 13.1189 28.2381 13.1375C28.2745 13.1709 28.31 13.2051 28.3451 13.2401C28.3628 13.2583 28.3814 13.2757 28.3979 13.2947C28.4373 13.3371 28.4749 13.3813 28.5113 13.4268C28.5226 13.4401 28.5343 13.4532 28.5451 13.4666C28.5923 13.5281 28.6373 13.5913 28.6793 13.6579L31.159 12.01C30.5749 11.0861 29.7535 10.3773 28.788 9.95208C28.4667 9.81006 28.129 9.69922 27.7787 9.62301C27.4068 9.54204 27.0318 9.50134 26.659 9.50134C25.6281 9.50134 24.6101 9.81093 23.6844 10.4275Z" fill="white" style="fill:white;fill-opacity:1;"/>
<path fill-rule="evenodd" clip-rule="evenodd" d="M25.1622 13.067L25.3505 12.9284C25.2847 12.9717 25.2224 13.0181 25.1622 13.067ZM21.3657 15.8659C21.4788 16.602 21.7394 17.3255 22.1594 17.991C23.1856 19.6134 24.9097 20.4971 26.668 20.4971C27.6669 20.4971 28.6775 20.2113 29.5759 19.6147L27.9687 17.0714C27.4292 17.4312 26.7871 17.5511 26.1571 17.4142C25.5284 17.2766 24.9894 16.896 24.6391 16.3426C23.9602 15.2676 24.2023 13.8485 25.1622 13.067L21.3657 15.8659Z" fill="white" style="fill:white;fill-opacity:1;"/>
<path fill-rule="evenodd" clip-rule="evenodd" d="M28.6793 13.6579C29.0291 14.2108 29.1477 14.8702 29.0135 15.515C28.8793 16.1601 28.5082 16.7126 27.9688 17.0715L29.5759 19.6148C30.7784 18.8152 31.6049 17.5842 31.9037 16.148C31.9461 15.9445 31.9755 15.7401 31.9955 15.5362C32.0098 15.3937 32.0184 15.2513 32.0214 15.1088C32.0219 15.0954 32.0227 15.082 32.0227 15.0686C32.0379 13.9913 31.7435 12.9335 31.1589 12.01L28.6793 13.6579Z" fill="white" style="fill:white;fill-opacity:1;"/>
</g>
<defs>
<clipPath id="clip0_5268_1110">
<rect width="24.0231" height="11" fill="white" style="fill:white;fill-opacity:1;" transform="translate(8 9.5)"/>
</clipPath>
</defs>
</svg>
