<svg width="32" height="24" viewBox="0 0 32 24" fill="none" xmlns="http://www.w3.org/2000/svg">
<rect width="32" height="24" rx="4" fill="#FF4785" style="fill:#FF4785;fill:color(display-p3 1.0000 0.2784 0.5216);fill-opacity:1;"/>
<g clip-path="url(#clip0_5268_1218)">
<path fill-rule="evenodd" clip-rule="evenodd" d="M8.16919 8.22584L9.48454 10.3053C9.81436 10.0857 10.1856 9.98083 10.5523 9.98083C11.1984 9.98083 11.8318 10.3057 12.2088 10.9023C12.4947 11.3543 12.5921 11.8938 12.4819 12.4209C12.3859 12.8822 12.1425 13.2854 11.7883 13.5758L14.8894 11.2902C14.7942 10.6787 14.5759 10.0885 14.2373 9.55323C13.6003 8.54503 12.618 7.85104 11.4716 7.60022C11.1641 7.53292 10.8541 7.49997 10.5466 7.49997C9.70879 7.49997 8.88833 7.74653 8.16919 8.22584Z" fill="white" style="fill:white;fill-opacity:1;"/>
<path fill-rule="evenodd" clip-rule="evenodd" d="M20.2117 10.4184L20.3658 10.3051C20.3119 10.3405 20.2609 10.3784 20.2117 10.4184ZM17.1055 12.7085C17.198 13.3107 17.4112 13.9027 17.7549 14.4472C18.5944 15.7746 20.0051 16.4976 21.4437 16.4976C22.261 16.4976 23.0878 16.2638 23.8229 15.7756L22.5079 13.6947C22.0665 13.9891 21.5411 14.0872 21.0257 13.9753C20.5113 13.8626 20.0703 13.5513 19.7837 13.0985C19.2282 12.2189 19.4263 11.0579 20.2117 10.4184L17.1055 12.7085Z" fill="white" style="fill:white;fill-opacity:1;"/>
<path fill-rule="evenodd" clip-rule="evenodd" d="M19.0025 8.25885L18.7474 8.44661L14.8896 11.2902L11.7884 13.5759C11.7371 13.6184 11.6832 13.6581 11.6272 13.6953C11.5255 13.7626 11.4196 13.8175 11.3116 13.8639C10.5241 14.2001 9.60088 13.9745 9.04717 13.2964C8.99651 13.2337 8.94763 13.1685 8.90335 13.0987L6.87451 14.4474C7.51182 15.4556 8.49418 16.1492 9.6402 16.4C9.71672 16.4167 9.79324 16.4312 9.86976 16.4439C9.94415 16.456 10.0193 16.4659 10.0936 16.4744C10.0954 16.4748 10.0968 16.4748 10.0986 16.4751C10.2516 16.4914 10.4043 16.5 10.557 16.5C11.3991 16.5 12.2323 16.2467 12.9883 15.7429C12.9904 15.7415 12.9925 15.74 12.9947 15.7383L13.2437 15.5551L17.1055 12.7087L20.3653 10.3054C20.4149 10.2725 20.4656 10.2431 20.517 10.2151C20.5319 10.2069 20.5471 10.1991 20.5619 10.1917C20.602 10.1712 20.6434 10.152 20.6845 10.1343C20.6976 10.1286 20.7108 10.1226 20.7238 10.1176C20.7784 10.0957 20.8336 10.0762 20.8896 10.0595C20.8946 10.0578 20.8999 10.0567 20.9049 10.0553C20.9566 10.0404 21.0083 10.0284 21.0611 10.0177C21.0739 10.0152 21.0862 10.0128 21.0993 10.0106C21.1507 10.0015 21.2031 9.99401 21.2556 9.98941C21.2616 9.98871 21.268 9.98761 21.274 9.98691C21.3264 9.98266 21.3796 9.98021 21.4324 9.98021C21.4377 9.98021 21.4437 9.98056 21.4494 9.98056C21.4876 9.98091 21.5259 9.98446 21.5638 9.98691C21.5918 9.98906 21.6201 9.98941 21.6481 9.9926C21.7147 10 21.7813 10.0106 21.8475 10.0252C21.9116 10.039 21.9747 10.0564 22.0367 10.0762C22.0952 10.0953 22.1522 10.1176 22.2082 10.1417C22.2259 10.1495 22.2433 10.1587 22.2606 10.1673C22.2982 10.185 22.3357 10.203 22.3718 10.2229C22.392 10.2342 22.4112 10.2459 22.4307 10.2579C22.4636 10.2774 22.4958 10.2976 22.5277 10.3192C22.5472 10.3327 22.566 10.3465 22.5851 10.3603C22.6163 10.3833 22.646 10.4071 22.6754 10.4312C22.6935 10.4457 22.7105 10.4609 22.7282 10.4761C22.758 10.5034 22.7871 10.5314 22.8157 10.5601C22.8302 10.575 22.8455 10.5892 22.859 10.6048C22.8912 10.6395 22.922 10.6756 22.9518 10.7128C22.961 10.7238 22.9706 10.7344 22.9794 10.7454C23.018 10.7957 23.0549 10.8474 23.0892 10.902L25.118 9.55365C24.6401 8.79768 23.9681 8.21776 23.1781 7.86988C22.9153 7.75368 22.6389 7.66299 22.3524 7.60064C22.0481 7.5344 21.7413 7.5011 21.4363 7.5011C20.5928 7.5011 19.7599 7.75439 19.0025 8.25885Z" fill="white" style="fill:white;fill-opacity:1;"/>
<path fill-rule="evenodd" clip-rule="evenodd" d="M6.87448 14.447L8.90331 13.0987C8.79243 12.9237 8.71201 12.7373 8.65958 12.546C8.60715 12.3547 8.58377 12.1585 8.58767 11.964C8.59971 11.316 8.91536 10.684 9.48465 10.3054L8.16929 8.22549C6.1394 9.57521 5.55877 12.3657 6.87448 14.447Z" fill="white" style="fill:white;fill-opacity:1;"/>
<path fill-rule="evenodd" clip-rule="evenodd" d="M23.0891 10.9019C23.3754 11.3543 23.4724 11.8938 23.3626 12.4213C23.2528 12.9492 22.9492 13.4012 22.5078 13.6949L23.8228 15.7758C24.8066 15.1215 25.4829 14.1143 25.7273 12.9393C25.762 12.7727 25.7861 12.6055 25.8024 12.4387C25.8141 12.3221 25.8212 12.2056 25.8236 12.089C25.824 12.078 25.8247 12.0671 25.8247 12.0561C25.8371 11.1747 25.5962 10.3093 25.118 9.55362L23.0891 10.9019Z" fill="white" style="fill:white;fill-opacity:1;"/>
<path fill-rule="evenodd" clip-rule="evenodd" d="M8.16919 8.22584L9.48454 10.3053C9.81436 10.0857 10.1856 9.98083 10.5523 9.98083C11.1984 9.98083 11.8318 10.3057 12.2088 10.9023C12.4947 11.3543 12.5921 11.8938 12.4819 12.4209C12.3859 12.8822 12.1425 13.2854 11.7883 13.5758L14.8894 11.2902C14.7942 10.6787 14.5759 10.0885 14.2373 9.55323C13.6003 8.54503 12.618 7.85104 11.4716 7.60022C11.1641 7.53292 10.8541 7.49997 10.5466 7.49997C9.70879 7.49997 8.88833 7.74653 8.16919 8.22584Z" fill="white" style="fill:white;fill-opacity:1;"/>
<path fill-rule="evenodd" clip-rule="evenodd" d="M19.0025 8.25885L18.7474 8.44661L14.8896 11.2902L11.7884 13.5759C11.7371 13.6184 11.6832 13.6581 11.6272 13.6953C11.5255 13.7626 11.4196 13.8175 11.3116 13.8639C10.5241 14.2001 9.60088 13.9745 9.04717 13.2964C8.99651 13.2337 8.94763 13.1685 8.90335 13.0987L6.87451 14.4474C7.51182 15.4556 8.49418 16.1492 9.6402 16.4C9.71672 16.4167 9.79324 16.4312 9.86976 16.4439C9.94415 16.456 10.0193 16.4659 10.0936 16.4744C10.0954 16.4748 10.0968 16.4748 10.0986 16.4751C10.2516 16.4914 10.4043 16.5 10.557 16.5C11.3991 16.5 12.2323 16.2467 12.9883 15.7429C12.9904 15.7415 12.9925 15.74 12.9947 15.7383L13.2437 15.5551L17.1055 12.7087L20.3653 10.3054C20.4149 10.2725 20.4656 10.2431 20.517 10.2151C20.5319 10.2069 20.5471 10.1991 20.5619 10.1917C20.602 10.1712 20.6434 10.152 20.6845 10.1343C20.6976 10.1286 20.7108 10.1226 20.7238 10.1176C20.7784 10.0957 20.8336 10.0762 20.8896 10.0595C20.8946 10.0578 20.8999 10.0567 20.9049 10.0553C20.9566 10.0404 21.0083 10.0284 21.0611 10.0177C21.0739 10.0152 21.0862 10.0128 21.0993 10.0106C21.1507 10.0015 21.2031 9.99401 21.2556 9.98941C21.2616 9.98871 21.268 9.98761 21.274 9.98691C21.3264 9.98266 21.3796 9.98021 21.4324 9.98021C21.4377 9.98021 21.4437 9.98056 21.4494 9.98056C21.4876 9.98091 21.5259 9.98446 21.5638 9.98691C21.5918 9.98906 21.6201 9.98941 21.6481 9.9926C21.7147 10 21.7813 10.0106 21.8475 10.0252C21.9116 10.039 21.9747 10.0564 22.0367 10.0762C22.0952 10.0953 22.1522 10.1176 22.2082 10.1417C22.2259 10.1495 22.2433 10.1587 22.2606 10.1673C22.2982 10.185 22.3357 10.203 22.3718 10.2229C22.392 10.2342 22.4112 10.2459 22.4307 10.2579C22.4636 10.2774 22.4958 10.2976 22.5277 10.3192C22.5472 10.3327 22.566 10.3465 22.5851 10.3603C22.6163 10.3833 22.646 10.4071 22.6754 10.4312C22.6935 10.4457 22.7105 10.4609 22.7282 10.4761C22.758 10.5034 22.7871 10.5314 22.8157 10.5601C22.8302 10.575 22.8455 10.5892 22.859 10.6048C22.8912 10.6395 22.922 10.6756 22.9518 10.7128C22.961 10.7238 22.9706 10.7344 22.9794 10.7454C23.018 10.7957 23.0549 10.8474 23.0892 10.902L25.118 9.55365C24.6401 8.79768 23.9681 8.21776 23.1781 7.86988C22.9153 7.75368 22.6389 7.66299 22.3524 7.60064C22.0481 7.5344 21.7413 7.5011 21.4363 7.5011C20.5928 7.5011 19.7599 7.75439 19.0025 8.25885Z" fill="white" style="fill:white;fill-opacity:1;"/>
<path fill-rule="evenodd" clip-rule="evenodd" d="M20.2117 10.4184L20.3658 10.3051C20.3119 10.3405 20.2609 10.3784 20.2117 10.4184ZM17.1055 12.7085C17.198 13.3107 17.4112 13.9027 17.7549 14.4472C18.5944 15.7746 20.0051 16.4976 21.4437 16.4976C22.261 16.4976 23.0878 16.2638 23.8229 15.7756L22.5079 13.6947C22.0665 13.9891 21.5411 14.0872 21.0257 13.9753C20.5113 13.8626 20.0703 13.5513 19.7837 13.0985C19.2282 12.2189 19.4263 11.0579 20.2117 10.4184L17.1055 12.7085Z" fill="white" style="fill:white;fill-opacity:1;"/>
<path fill-rule="evenodd" clip-rule="evenodd" d="M23.0891 10.9019C23.3754 11.3543 23.4724 11.8938 23.3626 12.4213C23.2528 12.9492 22.9492 13.4012 22.5078 13.6949L23.8228 15.7758C24.8066 15.1215 25.4829 14.1143 25.7273 12.9393C25.762 12.7727 25.7861 12.6055 25.8024 12.4387C25.8141 12.3221 25.8212 12.2056 25.8236 12.089C25.824 12.078 25.8247 12.0671 25.8247 12.0561C25.8371 11.1747 25.5962 10.3093 25.118 9.55362L23.0891 10.9019Z" fill="white" style="fill:white;fill-opacity:1;"/>
</g>
<defs>
<clipPath id="clip0_5268_1218">
<rect width="19.6553" height="9" fill="white" style="fill:white;fill-opacity:1;" transform="translate(6.16992 7.5)"/>
</clipPath>
</defs>
</svg>
