<svg width="40" height="40" viewBox="0 0 40 40" fill="none" xmlns="http://www.w3.org/2000/svg">
<rect width="40" height="40" rx="10" fill="#FF4785" style="fill:#FF4785;fill:color(display-p3 1.0000 0.2784 0.5216);fill-opacity:1;"/>
<g clip-path="url(#clip0_5268_194)">
<path fill-rule="evenodd" clip-rule="evenodd" d="M8.68799 14.5484L10.5879 17.5522C11.0643 17.2349 11.6006 17.0834 12.1302 17.0834C13.0636 17.0834 13.9785 17.5527 14.523 18.4144C14.9359 19.0673 15.0766 19.8466 14.9175 20.608C14.7788 21.2743 14.4272 21.8566 13.9155 22.2762L18.395 18.9747C18.2574 18.0914 17.9422 17.239 17.453 16.4658C16.5329 15.0095 15.114 14.007 13.4581 13.6448C13.0139 13.5475 12.5662 13.4999 12.122 13.4999C10.9119 13.4999 9.72674 13.8561 8.68799 14.5484Z" fill="white" style="fill:white;fill-opacity:1;"/>
<path fill-rule="evenodd" clip-rule="evenodd" d="M26.0827 17.7155L26.3052 17.5517C26.2275 17.6029 26.1538 17.6577 26.0827 17.7155ZM21.5959 21.0233C21.7295 21.8932 22.0376 22.7483 22.5339 23.5348C23.7467 25.4521 25.7843 26.4965 27.8623 26.4965C29.0428 26.4965 30.2371 26.1588 31.2989 25.4537L29.3995 22.4479C28.7619 22.8731 28.003 23.0148 27.2585 22.8531C26.5155 22.6904 25.8784 22.2407 25.4645 21.5867C24.6621 20.3161 24.9483 18.6391 26.0827 17.7155L21.5959 21.0233Z" fill="white" style="fill:white;fill-opacity:1;"/>
<path fill-rule="evenodd" clip-rule="evenodd" d="M24.3363 14.5961L23.9679 14.8673L18.3954 18.9748L13.916 22.2763C13.8418 22.3377 13.764 22.395 13.6831 22.4487C13.5363 22.5459 13.3833 22.6253 13.2272 22.6923C12.0897 23.1779 10.7562 22.852 9.9564 21.8726C9.88323 21.782 9.81261 21.6878 9.74865 21.587L6.81812 23.5351C7.73867 24.9914 9.15763 25.9933 10.813 26.3556C10.9235 26.3797 11.0341 26.4006 11.1446 26.419C11.252 26.4364 11.3605 26.4508 11.468 26.4631C11.4705 26.4636 11.4726 26.4636 11.4752 26.4641C11.6962 26.4876 11.9168 26.4999 12.1373 26.4999C13.3536 26.4999 14.5571 26.1341 15.6491 25.4064C15.6522 25.4044 15.6552 25.4023 15.6583 25.3997L16.018 25.1352L21.5961 21.0236L26.3049 17.5522C26.3765 17.5047 26.4497 17.4622 26.5239 17.4218C26.5454 17.41 26.5673 17.3988 26.5888 17.388C26.6467 17.3583 26.7066 17.3307 26.7659 17.3051C26.7848 17.2969 26.8038 17.2882 26.8227 17.281C26.9015 17.2493 26.9813 17.2212 27.0622 17.1971C27.0694 17.1946 27.077 17.193 27.0842 17.191C27.1589 17.1695 27.2336 17.1521 27.3099 17.1367C27.3283 17.1331 27.3462 17.1296 27.3651 17.1265C27.4393 17.1132 27.515 17.1025 27.5907 17.0958C27.5995 17.0948 27.6087 17.0932 27.6174 17.0922C27.6931 17.0861 27.7699 17.0825 27.8461 17.0825C27.8538 17.0825 27.8625 17.083 27.8707 17.083C27.9259 17.0835 27.9812 17.0887 28.036 17.0922C28.0764 17.0953 28.1173 17.0958 28.1577 17.1004C28.2539 17.1112 28.3502 17.1265 28.4458 17.1475C28.5384 17.1674 28.6295 17.1925 28.7191 17.2212C28.8035 17.2488 28.8859 17.281 28.9667 17.3158C28.9923 17.3271 29.0174 17.3404 29.0425 17.3527C29.0967 17.3783 29.151 17.4044 29.2031 17.433C29.2323 17.4494 29.26 17.4663 29.2881 17.4837C29.3357 17.5118 29.3822 17.541 29.4283 17.5722C29.4564 17.5916 29.4836 17.6116 29.5112 17.6316C29.5563 17.6648 29.5992 17.6991 29.6417 17.7339C29.6678 17.7549 29.6923 17.7769 29.7179 17.7989C29.7609 17.8383 29.8029 17.8787 29.8443 17.9201C29.8653 17.9416 29.8873 17.9621 29.9068 17.9847C29.9533 18.0348 29.9978 18.087 30.0408 18.1407C30.0541 18.1565 30.068 18.1719 30.0807 18.1878C30.1365 18.2605 30.1897 18.3352 30.2393 18.4139L33.1699 16.4664C32.4796 15.3744 31.5089 14.5368 30.3678 14.0343C29.9881 13.8664 29.589 13.7354 29.175 13.6454C28.7355 13.5497 28.2923 13.5016 27.8517 13.5016C26.6334 13.5016 25.4303 13.8675 24.3363 14.5961Z" fill="white" style="fill:white;fill-opacity:1;"/>
<path fill-rule="evenodd" clip-rule="evenodd" d="M6.81799 23.5345L9.74852 21.5869C9.58836 21.3341 9.4722 21.065 9.39647 20.7887C9.32074 20.5124 9.28697 20.2289 9.29259 19.948C9.30999 19.012 9.76592 18.0992 10.5882 17.5522L8.68827 14.5479C5.7562 16.4975 4.91752 20.5282 6.81799 23.5345Z" fill="white" style="fill:white;fill-opacity:1;"/>
<path fill-rule="evenodd" clip-rule="evenodd" d="M30.2391 18.4139C30.6526 19.0673 30.7928 19.8466 30.6342 20.6086C30.4755 21.371 30.037 22.0239 29.3994 22.4481L31.2988 25.4539C32.7199 24.5088 33.6967 23.054 34.0498 21.3567C34.0999 21.1162 34.1347 20.8746 34.1583 20.6336C34.1751 20.4653 34.1854 20.2969 34.1889 20.1286C34.1894 20.1127 34.1905 20.0969 34.1905 20.081C34.2084 18.8078 33.8604 17.5578 33.1696 16.4663L30.2391 18.4139Z" fill="white" style="fill:white;fill-opacity:1;"/>
<path fill-rule="evenodd" clip-rule="evenodd" d="M8.68799 14.5484L10.5879 17.5522C11.0643 17.2349 11.6006 17.0834 12.1302 17.0834C13.0636 17.0834 13.9785 17.5527 14.523 18.4144C14.9359 19.0673 15.0766 19.8466 14.9175 20.608C14.7788 21.2743 14.4272 21.8566 13.9155 22.2762L18.395 18.9747C18.2574 18.0914 17.9422 17.239 17.453 16.4658C16.5329 15.0095 15.114 14.007 13.4581 13.6448C13.0139 13.5475 12.5662 13.4999 12.122 13.4999C10.9119 13.4999 9.72674 13.8561 8.68799 14.5484Z" fill="white" style="fill:white;fill-opacity:1;"/>
<path fill-rule="evenodd" clip-rule="evenodd" d="M24.3363 14.5961L23.9679 14.8673L18.3954 18.9748L13.916 22.2763C13.8418 22.3377 13.764 22.395 13.6831 22.4487C13.5363 22.5459 13.3833 22.6253 13.2272 22.6923C12.0897 23.1779 10.7562 22.852 9.9564 21.8726C9.88323 21.782 9.81261 21.6878 9.74865 21.587L6.81812 23.5351C7.73867 24.9914 9.15763 25.9933 10.813 26.3556C10.9235 26.3797 11.0341 26.4006 11.1446 26.419C11.252 26.4364 11.3605 26.4508 11.468 26.4631C11.4705 26.4636 11.4726 26.4636 11.4752 26.4641C11.6962 26.4876 11.9168 26.4999 12.1373 26.4999C13.3536 26.4999 14.5571 26.1341 15.6491 25.4064C15.6522 25.4044 15.6552 25.4023 15.6583 25.3997L16.018 25.1352L21.5961 21.0236L26.3049 17.5522C26.3765 17.5047 26.4497 17.4622 26.5239 17.4218C26.5454 17.41 26.5673 17.3988 26.5888 17.388C26.6467 17.3583 26.7066 17.3307 26.7659 17.3051C26.7848 17.2969 26.8038 17.2882 26.8227 17.281C26.9015 17.2493 26.9813 17.2212 27.0622 17.1971C27.0694 17.1946 27.077 17.193 27.0842 17.191C27.1589 17.1695 27.2336 17.1521 27.3099 17.1367C27.3283 17.1331 27.3462 17.1296 27.3651 17.1265C27.4393 17.1132 27.515 17.1025 27.5907 17.0958C27.5995 17.0948 27.6087 17.0932 27.6174 17.0922C27.6931 17.0861 27.7699 17.0825 27.8461 17.0825C27.8538 17.0825 27.8625 17.083 27.8707 17.083C27.9259 17.0835 27.9812 17.0887 28.036 17.0922C28.0764 17.0953 28.1173 17.0958 28.1577 17.1004C28.2539 17.1112 28.3502 17.1265 28.4458 17.1475C28.5384 17.1674 28.6295 17.1925 28.7191 17.2212C28.8035 17.2488 28.8859 17.281 28.9667 17.3158C28.9923 17.3271 29.0174 17.3404 29.0425 17.3527C29.0967 17.3783 29.151 17.4044 29.2031 17.433C29.2323 17.4494 29.26 17.4663 29.2881 17.4837C29.3357 17.5118 29.3822 17.541 29.4283 17.5722C29.4564 17.5916 29.4836 17.6116 29.5112 17.6316C29.5563 17.6648 29.5992 17.6991 29.6417 17.7339C29.6678 17.7549 29.6923 17.7769 29.7179 17.7989C29.7609 17.8383 29.8029 17.8787 29.8443 17.9201C29.8653 17.9416 29.8873 17.9621 29.9068 17.9847C29.9533 18.0348 29.9978 18.087 30.0408 18.1407C30.0541 18.1565 30.068 18.1719 30.0807 18.1878C30.1365 18.2605 30.1897 18.3352 30.2393 18.4139L33.1699 16.4664C32.4796 15.3744 31.5089 14.5368 30.3678 14.0343C29.9881 13.8664 29.589 13.7354 29.175 13.6454C28.7355 13.5497 28.2923 13.5016 27.8517 13.5016C26.6334 13.5016 25.4303 13.8675 24.3363 14.5961Z" fill="white" style="fill:white;fill-opacity:1;"/>
<path fill-rule="evenodd" clip-rule="evenodd" d="M26.0827 17.7155L26.3052 17.5517C26.2275 17.6029 26.1538 17.6577 26.0827 17.7155ZM21.5959 21.0233C21.7295 21.8932 22.0376 22.7483 22.5339 23.5348C23.7467 25.4521 25.7843 26.4965 27.8623 26.4965C29.0428 26.4965 30.2371 26.1588 31.2989 25.4537L29.3995 22.4479C28.7619 22.8731 28.003 23.0148 27.2585 22.8531C26.5155 22.6904 25.8784 22.2407 25.4645 21.5867C24.6621 20.3161 24.9483 18.6391 26.0827 17.7155L21.5959 21.0233Z" fill="white" style="fill:white;fill-opacity:1;"/>
<path fill-rule="evenodd" clip-rule="evenodd" d="M30.2391 18.4139C30.6526 19.0673 30.7928 19.8466 30.6342 20.6086C30.4755 21.371 30.037 22.0239 29.3994 22.4481L31.2988 25.4539C32.7199 24.5088 33.6967 23.054 34.0498 21.3567C34.0999 21.1162 34.1347 20.8746 34.1583 20.6336C34.1751 20.4653 34.1854 20.2969 34.1889 20.1286C34.1894 20.1127 34.1905 20.0969 34.1905 20.081C34.2084 18.8078 33.8604 17.5578 33.1696 16.4663L30.2391 18.4139Z" fill="white" style="fill:white;fill-opacity:1;"/>
</g>
<defs>
<clipPath id="clip0_5268_194">
<rect width="28.391" height="13" fill="white" style="fill:white;fill-opacity:1;" transform="translate(5.80005 13.5)"/>
</clipPath>
</defs>
</svg>
