<svg width="48" height="36" viewBox="0 0 48 36" fill="none" xmlns="http://www.w3.org/2000/svg">
<path d="M6 0.75H42C44.8995 0.75 47.25 3.10051 47.25 6V30C47.25 32.8995 44.8995 35.25 42 35.25H6C3.10051 35.25 0.75 32.8995 0.75 30V6C0.750001 3.10051 3.10051 0.75 6 0.75Z" fill="white" style="fill:white;fill-opacity:1;"/>
<path d="M6 0.75H42C44.8995 0.75 47.25 3.10051 47.25 6V30C47.25 32.8995 44.8995 35.25 42 35.25H6C3.10051 35.25 0.75 32.8995 0.75 30V6C0.750001 3.10051 3.10051 0.75 6 0.75Z" stroke="#ECECF0" style="stroke:#ECECF0;stroke:color(display-p3 0.9255 0.9255 0.9412);stroke-opacity:1;" stroke-width="1.5"/>
<path d="M29.9641 13.5735C29.9477 13.6804 29.9279 13.7889 29.9066 13.9023C29.1668 17.6901 26.6432 18.9987 23.4177 18.9987H21.0931L20.9863 19.6727L20.1462 25.0042L19.8256 27H23.8271L23.9553 26.2602L24.6507 21.9973L25.2311 22.0006H25.6651C28.4878 22.0006 30.6957 20.8547 31.3418 17.5405C31.613 16.1562 31.4733 15.0005 30.7598 14.1867C30.5329 13.9355 30.2622 13.7277 29.9608 13.5735H29.9641Z" fill="#85D0FA" style="fill:#85D0FA;fill:color(display-p3 0.5216 0.8157 0.9804);fill-opacity:1;"/>
<path d="M21.9464 13.5933C21.9716 13.4281 22.0554 13.2774 22.1824 13.1687C22.3095 13.0601 22.4713 13.0007 22.6385 13.0015H27.0263C27.5458 13.0015 28.0291 13.0343 28.473 13.1067C28.7152 13.1465 28.9551 13.1998 29.1914 13.2661C29.459 13.3415 29.7179 13.4446 29.9641 13.5736C30.1844 12.1729 29.9625 11.221 29.2046 10.3579C28.3694 9.40771 26.8635 9 24.9351 9H18.665L16.2154 24.4469L16.125 25.0042H20.1462L21.0142 19.5018L21.9464 13.5933Z" fill="#003087" style="fill:#003087;fill:color(display-p3 0.0000 0.1882 0.5294);fill-opacity:1;"/>
<path fill-rule="evenodd" clip-rule="evenodd" d="M28.8413 13.1757C29.0149 13.2149 29.1866 13.2621 29.3558 13.3171C29.5745 13.3894 29.7767 13.4749 29.9641 13.5735C29.919 13.8576 29.8614 14.1395 29.7915 14.4185C28.93 17.8084 26.492 18.9987 23.4177 18.9987H21.0931L21.948 13.5916L22.0417 12.9998H27.0263C27.6362 12.9969 28.2449 13.0558 28.8429 13.1757H28.8413Z" fill="#4195F7" style="fill:#4195F7;fill:color(display-p3 0.2549 0.5843 0.9686);fill-opacity:1;"/>
</svg>
