<svg width="32" height="24" viewBox="0 0 32 24" fill="none" xmlns="http://www.w3.org/2000/svg">
<path d="M4 0.5H28C29.933 0.5 31.5 2.067 31.5 4V20C31.5 21.933 29.933 23.5 28 23.5H4C2.067 23.5 0.5 21.933 0.5 20V4C0.5 2.067 2.067 0.5 4 0.5Z" fill="white" style="fill:white;fill-opacity:1;"/>
<path d="M4 0.5H28C29.933 0.5 31.5 2.067 31.5 4V20C31.5 21.933 29.933 23.5 28 23.5H4C2.067 23.5 0.5 21.933 0.5 20V4C0.5 2.067 2.067 0.5 4 0.5Z" stroke="#ECECF0" style="stroke:#ECECF0;stroke:color(display-p3 0.9255 0.9255 0.9412);stroke-opacity:1;"/>
<path d="M19.9761 9.04901C19.9651 9.12025 19.9519 9.19259 19.9377 9.26821C19.4445 11.7934 17.7622 12.6658 15.6118 12.6658H14.0621L13.9908 13.1151L13.4308 16.6694L13.2171 18H15.8847L15.9702 17.5068L16.4338 14.6649L16.8207 14.6671H17.11C18.9919 14.6671 20.4638 13.9032 20.8945 11.6936C21.0753 10.7708 20.9822 10.0003 20.5065 9.45782C20.3553 9.29034 20.1748 9.15182 19.9739 9.04901H19.9761Z" fill="#85D0FA" style="fill:#85D0FA;fill:color(display-p3 0.5216 0.8157 0.9804);fill-opacity:1;"/>
<path d="M14.6309 9.0622C14.6477 8.95204 14.7036 8.85158 14.7883 8.77916C14.873 8.70673 14.9809 8.66716 15.0923 8.66764H18.0175C18.3639 8.66764 18.6861 8.68956 18.982 8.73779C19.1435 8.76436 19.3034 8.79985 19.4609 8.8441C19.6393 8.89435 19.8119 8.96304 19.9761 9.04905C20.1229 8.11527 19.975 7.48069 19.4697 6.90529C18.913 6.27181 17.909 6 16.6234 6H12.4433L10.8103 16.2979L10.75 16.6695H13.4308L14.0095 13.0012L14.6309 9.0622Z" fill="#003087" style="fill:#003087;fill:color(display-p3 0.0000 0.1882 0.5294);fill-opacity:1;"/>
<path fill-rule="evenodd" clip-rule="evenodd" d="M19.2275 8.78378C19.3432 8.80994 19.4577 8.84139 19.5706 8.87804C19.7163 8.92626 19.8511 8.98325 19.9761 9.04901C19.946 9.23839 19.9076 9.42635 19.861 9.61235C19.2867 11.8723 17.6613 12.6658 15.6118 12.6658H14.0621L14.632 9.06107L14.6945 8.66651H18.0175C18.4242 8.66459 18.8299 8.70388 19.2286 8.78378H19.2275Z" fill="#4195F7" style="fill:#4195F7;fill:color(display-p3 0.2549 0.5843 0.9686);fill-opacity:1;"/>
</svg>
