<svg width="32" height="32" viewBox="0 0 32 32" fill="none" xmlns="http://www.w3.org/2000/svg">
<rect x="0.5" y="0.5" width="31" height="31" rx="7.5" fill="white" style="fill:white;fill-opacity:1;"/>
<rect x="0.5" y="0.5" width="31" height="31" rx="7.5" stroke="#F5F2F0" style="stroke:#F5F2F0;stroke:color(display-p3 0.9608 0.9490 0.9412);stroke-opacity:1;"/>
<path d="M21.5014 12.0654C21.4868 12.1604 21.4693 12.2568 21.4503 12.3576C20.7927 15.7245 18.5495 16.8877 15.6824 16.8877H13.6161L13.5211 17.4869L12.7744 22.2259L12.4894 24H16.0463L16.1603 23.3424L16.7784 19.5532L17.2943 19.5561H17.6801C20.1892 19.5561 22.1517 18.5376 22.726 15.5915C22.9671 14.3611 22.8429 13.3338 22.2087 12.6104C22.007 12.3871 21.7664 12.2024 21.4985 12.0654H21.5014Z" fill="#85D0FA" style="fill:#85D0FA;fill:color(display-p3 0.5216 0.8157 0.9804);fill-opacity:1;"/>
<path d="M14.3746 12.0829C14.397 11.9361 14.4715 11.8021 14.5844 11.7055C14.6973 11.609 14.8412 11.5562 14.9898 11.5569H18.89C19.3518 11.5569 19.7815 11.5861 20.176 11.6504C20.3913 11.6858 20.6045 11.7331 20.8146 11.7921C21.0524 11.8591 21.2826 11.9507 21.5014 12.0654C21.6972 10.8204 21.5 9.97425 20.8263 9.20705C20.0839 8.36241 18.7454 8 17.0312 8H11.4578L9.28039 21.7306L9.20001 22.226H12.7744L13.546 17.3349L14.3746 12.0829Z" fill="#003087" style="fill:#003087;fill:color(display-p3 0.0000 0.1882 0.5294);fill-opacity:1;"/>
<path fill-rule="evenodd" clip-rule="evenodd" d="M20.5033 11.7117C20.6576 11.7466 20.8103 11.7886 20.9607 11.8374C21.1551 11.9017 21.3348 11.9777 21.5014 12.0654C21.4613 12.3179 21.4101 12.5685 21.348 12.8165C20.5822 15.8298 18.4151 16.8878 15.6824 16.8878H13.6161L14.376 12.0815L14.4593 11.5554H18.89C19.4322 11.5528 19.9732 11.6052 20.5048 11.7117H20.5033Z" fill="#4195F7" style="fill:#4195F7;fill:color(display-p3 0.2549 0.5843 0.9686);fill-opacity:1;"/>
</svg>
