<svg width="24" height="24" viewBox="0 0 24 24" fill="none" xmlns="http://www.w3.org/2000/svg">
<rect x="0.5" y="0.5" width="23" height="23" rx="5.5" fill="white" style="fill:white;fill-opacity:1;"/>
<rect x="0.5" y="0.5" width="23" height="23" rx="5.5" stroke="#F5F2F0" style="stroke:#F5F2F0;stroke:color(display-p3 0.9608 0.9490 0.9412);stroke-opacity:1;"/>
<path d="M16.1261 9.04901C16.1151 9.12025 16.1019 9.19259 16.0877 9.26821C15.5945 11.7934 13.9121 12.6658 11.7618 12.6658H10.2121L10.1408 13.1151L9.58078 16.6694L9.36707 18H12.0347L12.1202 17.5068L12.5838 14.6649L12.9707 14.6671H13.26C15.1418 14.6671 16.6138 13.9032 17.0445 11.6936C17.2253 10.7708 17.1322 10.0003 16.6565 9.45782C16.5052 9.29034 16.3248 9.15182 16.1239 9.04901H16.1261Z" fill="#85D0FA" style="fill:#85D0FA;fill:color(display-p3 0.5216 0.8157 0.9804);fill-opacity:1;"/>
<path d="M10.7809 9.0622C10.7977 8.95204 10.8536 8.85159 10.9383 8.77916C11.023 8.70673 11.1309 8.66716 11.2423 8.66765H14.1675C14.5139 8.66765 14.8361 8.68957 15.132 8.73779C15.2935 8.76436 15.4534 8.79985 15.6109 8.8441C15.7893 8.89435 15.9619 8.96304 16.1261 9.04905C16.2729 8.11527 16.125 7.48069 15.6197 6.90529C15.0629 6.27181 14.059 6 12.7734 6H8.5933L6.96027 16.2979L6.89999 16.6695H9.58079L10.1595 13.0012L10.7809 9.0622Z" fill="#003087" style="fill:#003087;fill:color(display-p3 0.0000 0.1882 0.5294);fill-opacity:1;"/>
<path fill-rule="evenodd" clip-rule="evenodd" d="M15.3775 8.78378C15.4932 8.80994 15.6077 8.84139 15.7206 8.87804C15.8663 8.92626 16.0011 8.98325 16.1261 9.04901C16.096 9.23839 16.0576 9.42635 16.011 9.61235C15.4367 11.8723 13.8113 12.6658 11.7618 12.6658H10.2121L10.782 9.06107L10.8445 8.66651H14.1675C14.5741 8.66459 14.9799 8.70388 15.3786 8.78378H15.3775Z" fill="#4195F7" style="fill:#4195F7;fill:color(display-p3 0.2549 0.5843 0.9686);fill-opacity:1;"/>
</svg>
