<svg width="40" height="40" viewBox="0 0 40 40" fill="none" xmlns="http://www.w3.org/2000/svg">
<rect width="40" height="40" rx="10" fill="#3200FF" style="fill:#3200FF;fill:color(display-p3 0.1961 0.0000 1.0000);fill-opacity:1;"/>
<path d="M15.0409 15.74C15.3228 15.6404 15.549 15.5647 15.7677 15.46C16.1907 13.5858 17.9484 12.1371 19.9828 12.1C22.1635 12.1371 23.9219 13.5878 24.3432 15.46C24.9834 15.6383 25.5184 15.8928 25.9421 16.3C25.9523 15.901 25.9368 15.5441 25.9421 15.18C25.6251 12.2898 23.1112 10 19.9828 10C16.8904 10 14.3213 12.4343 14.1688 15.46C14.1694 15.7401 14.1637 16.0139 14.1688 16.3C14.4387 16.0826 14.7412 15.8873 15.0409 15.74Z" fill="white" style="fill:white;fill-opacity:1;"/>
<path d="M23.4884 16.6667H16.3663C16.0197 16.6667 15.666 16.7428 15.3488 16.9467C14.9501 17.0472 14.662 17.2255 14.4767 17.5067C13.991 17.9473 13.7657 18.6911 13.75 19.6067V25.0667C13.7657 25.9831 13.991 26.7262 14.4767 27.1667C14.662 27.4487 14.9501 27.627 15.3488 27.7267C15.666 27.9293 16.0197 28.0067 16.3663 28.0067H23.4884C25.2888 27.991 26.2208 27.0244 26.25 25.0667V19.6067C26.2208 17.645 25.2888 16.6818 23.4884 16.6667Z" fill="white" style="fill:white;fill-opacity:1;"/>
</svg>
