<svg width="48" height="36" viewBox="0 0 48 36" fill="none" xmlns="http://www.w3.org/2000/svg">
<rect width="48" height="36" rx="6" fill="#2D03F5" style="fill:#2D03F5;fill:color(display-p3 0.1765 0.0118 0.9608);fill-opacity:1;"/>
<path d="M19.2393 14.7379C19.5099 14.6383 19.727 14.5626 19.9369 14.458C20.3431 12.5844 22.0304 11.1364 23.9834 11.0992C26.0769 11.1364 27.765 12.5865 28.1695 14.458C28.784 14.6362 29.2976 14.8906 29.7044 15.2977C29.7142 14.8989 29.6993 14.542 29.7044 14.1781C29.4001 11.289 26.9867 9 23.9834 9C21.0148 9 18.5485 11.4334 18.402 14.458C18.4026 14.738 18.3972 15.0116 18.402 15.2977C18.6611 15.0804 18.9515 14.8851 19.2393 14.7379Z" fill="white" style="fill:white;fill-opacity:1;"/>
<path d="M27.3488 15.6642H20.5116C20.1789 15.6642 19.8394 15.7403 19.5349 15.9441C19.1521 16.0445 18.8755 16.2227 18.6977 16.5039C18.2314 16.9443 18.0151 17.6878 18 18.6031V24.0611C18.0151 24.9771 18.2314 25.7199 18.6977 26.1603C18.8755 26.4422 19.1521 26.6204 19.5349 26.7201C19.8394 26.9226 20.1789 27 20.5116 27H27.3488C29.0772 26.9842 29.9719 26.018 30 24.0611V18.6031C29.9719 16.6421 29.0772 15.6793 27.3488 15.6642Z" fill="white" style="fill:white;fill-opacity:1;"/>
</svg>
