<svg width="32" height="32" viewBox="0 0 32 32" fill="none" xmlns="http://www.w3.org/2000/svg">
<rect width="32" height="32" rx="8" fill="url(#paint0_linear_2524_224)" style=""/>
<path fill-rule="evenodd" clip-rule="evenodd" d="M10.8963 8.88322C10.3518 9.36642 10.2634 10.1682 10.0866 11.7717L9.77392 14.6081C9.5582 16.5648 9.45033 17.5432 10.0199 18.1716C10.5895 18.8 11.5841 18.8 13.5733 18.8H18.4269C20.4161 18.8 21.4107 18.8 21.9803 18.1716C22.5499 17.5432 22.442 16.5648 22.2263 14.6081L21.9136 11.7717C21.7368 10.1682 21.6484 9.36642 21.1039 8.88322C20.5594 8.40002 19.7444 8.40002 18.1142 8.40002H13.886C12.2558 8.40002 11.4408 8.40002 10.8963 8.88322ZM13.3725 14.0728C12.9768 14.0728 12.6559 14.3902 12.6559 14.7818C12.6559 15.1735 12.9768 15.4909 13.3725 15.4909H18.6277C19.0234 15.4909 19.3443 15.1735 19.3443 14.7818C19.3443 14.3902 19.0234 14.0728 18.6277 14.0728H13.3725ZM12.6559 11.9455C12.6559 11.5539 12.9768 11.2364 13.3725 11.2364H16.3982C16.794 11.2364 17.1148 11.5539 17.1148 11.9455C17.1148 12.3371 16.794 12.6546 16.3982 12.6546H13.3725C12.9768 12.6546 12.6559 12.3371 12.6559 11.9455Z" fill="white" style="fill:white;fill-opacity:1;"/>
<path opacity="0.6" d="M18.8699 22.0901L18.2223 20.6771C18.1453 20.509 17.9685 20.4 17.773 20.4H14.2272C14.0317 20.4 13.8549 20.509 13.7779 20.6771L13.1303 22.0901C13.0917 22.1741 13.0034 22.2286 12.9056 22.2286H12.3334C11.9284 22.2286 11.6001 22.5356 11.6001 22.9143C11.6001 23.293 11.9284 23.6 12.3334 23.6H19.6668C20.0718 23.6 20.4001 23.293 20.4001 22.9143C20.4001 22.5356 20.0718 22.2286 19.6668 22.2286H19.0946C18.9968 22.2286 18.9085 22.1741 18.8699 22.0901Z" fill="white" style="fill:white;fill-opacity:1;"/>
<defs>
<linearGradient id="paint0_linear_2524_224" x1="0" y1="32" x2="32" y2="0" gradientUnits="userSpaceOnUse">
<stop stop-color="#0E0806" style="stop-color:#0E0806;stop-color:color(display-p3 0.0549 0.0329 0.0235);stop-opacity:1;"/>
<stop offset="1" stop-color="#254764" style="stop-color:#254764;stop-color:color(display-p3 0.1451 0.2784 0.3922);stop-opacity:1;"/>
</linearGradient>
</defs>
</svg>
