<svg width="48" height="36" viewBox="0 0 48 36" fill="none" xmlns="http://www.w3.org/2000/svg">
<rect width="48" height="36" rx="6" fill="url(#paint0_linear_2740_2134)" style=""/>
<path fill-rule="evenodd" clip-rule="evenodd" d="M18.0189 9.57221C17.3809 10.1444 17.2773 11.0939 17.0701 12.9928L16.7037 16.3517C16.4509 18.6688 16.3245 19.8275 16.992 20.5716C17.6593 21.3158 18.825 21.3158 21.156 21.3158H26.8438C29.175 21.3158 30.3406 21.3158 31.008 20.5716C31.6755 19.8275 31.549 18.6688 31.2963 16.3517L30.9298 12.9928C30.7227 11.0939 30.619 10.1444 29.9811 9.57221C29.343 9 28.3878 9 26.4775 9H21.5224C19.6122 9 18.657 9 18.0189 9.57221ZM20.9208 15.7178C20.457 15.7178 20.0811 16.0936 20.0811 16.5574C20.0811 17.0212 20.457 17.3972 20.9208 17.3972H27.0792C27.543 17.3972 27.9189 17.0212 27.9189 16.5574C27.9189 16.0936 27.543 15.7178 27.0792 15.7178H20.9208ZM20.0811 13.1986C20.0811 12.7348 20.457 12.3588 20.9208 12.3588H24.4665C24.9303 12.3588 25.3063 12.7348 25.3063 13.1986C25.3063 13.6623 24.9303 14.0383 24.4665 14.0383H20.9208C20.457 14.0383 20.0811 13.6623 20.0811 13.1986Z" fill="white" style="fill:white;fill-opacity:1;"/>
<path opacity="0.6" d="M27.3631 25.2121L26.6041 23.5389C26.5138 23.3398 26.3067 23.2107 26.0776 23.2107H21.9223C21.6933 23.2107 21.4861 23.3398 21.3958 23.5389L20.6369 25.2121C20.5917 25.3116 20.4882 25.3761 20.3736 25.3761H19.7031C19.2285 25.3761 18.8438 25.7397 18.8438 26.1882C18.8438 26.6367 19.2285 27.0001 19.7031 27.0001H28.2969C28.7715 27.0001 29.1562 26.6367 29.1562 26.1882C29.1562 25.7397 28.7715 25.3761 28.2969 25.3761H27.6264C27.5118 25.3761 27.4083 25.3116 27.3631 25.2121Z" fill="white" style="fill:white;fill-opacity:1;"/>
<defs>
<linearGradient id="paint0_linear_2740_2134" x1="0" y1="36" x2="34.56" y2="-10.08" gradientUnits="userSpaceOnUse">
<stop stop-color="#0E0806" style="stop-color:#0E0806;stop-color:color(display-p3 0.0549 0.0329 0.0235);stop-opacity:1;"/>
<stop offset="1" stop-color="#254764" style="stop-color:#254764;stop-color:color(display-p3 0.1451 0.2784 0.3922);stop-opacity:1;"/>
</linearGradient>
</defs>
</svg>
