<svg width="56" height="42" viewBox="0 0 56 42" fill="none" xmlns="http://www.w3.org/2000/svg">
<rect width="56" height="42" rx="7" fill="url(#paint0_linear_2740_2135)" style=""/>
<path fill-rule="evenodd" clip-rule="evenodd" d="M21.022 11.1676C20.2777 11.8352 20.1568 12.9429 19.9151 15.1583L19.4876 19.0769C19.1927 21.7803 19.0452 23.132 19.824 24.0002C20.6025 24.8684 21.9625 24.8684 24.682 24.8684H31.3178C34.0375 24.8684 35.3974 24.8684 36.176 24.0002C36.9547 23.132 36.8072 21.7803 36.5123 19.0769L36.0848 15.1583C35.8431 12.9429 35.7222 11.8352 34.9779 11.1676C34.2335 10.5 33.1191 10.5 30.8904 10.5H25.1095C22.8809 10.5 21.7665 10.5 21.022 11.1676ZM24.4076 18.3374C23.8665 18.3374 23.4279 18.7759 23.4279 19.317C23.4279 19.8581 23.8665 20.2967 24.4076 20.2967H31.5924C32.1335 20.2967 32.572 19.8581 32.572 19.317C32.572 18.7759 32.1335 18.3374 31.5924 18.3374H24.4076ZM23.4279 15.3983C23.4279 14.8573 23.8665 14.4187 24.4076 14.4187H28.5442C29.0853 14.4187 29.524 14.8573 29.524 15.3983C29.524 15.9394 29.0853 16.378 28.5442 16.378H24.4076C23.8665 16.378 23.4279 15.9394 23.4279 15.3983Z" fill="white" style="fill:white;fill-opacity:1;"/>
<path opacity="0.6" d="M31.9237 29.4142L31.0382 27.4621C30.9328 27.2298 30.6911 27.0792 30.4239 27.0792H25.5761C25.3088 27.0792 25.0672 27.2298 24.9618 27.4621L24.0763 29.4142C24.0237 29.5302 23.9029 29.6055 23.7692 29.6055H22.9869C22.4332 29.6055 21.9844 30.0297 21.9844 30.5529C21.9844 31.0762 22.4332 31.5002 22.9869 31.5002H33.013C33.5667 31.5002 34.0156 31.0762 34.0156 30.5529C34.0156 30.0297 33.5667 29.6055 33.013 29.6055H32.2308C32.0971 29.6055 31.9763 29.5302 31.9237 29.4142Z" fill="white" style="fill:white;fill-opacity:1;"/>
<defs>
<linearGradient id="paint0_linear_2740_2135" x1="0" y1="42" x2="40.32" y2="-11.76" gradientUnits="userSpaceOnUse">
<stop stop-color="#0E0806" style="stop-color:#0E0806;stop-color:color(display-p3 0.0549 0.0329 0.0235);stop-opacity:1;"/>
<stop offset="1" stop-color="#254764" style="stop-color:#254764;stop-color:color(display-p3 0.1451 0.2784 0.3922);stop-opacity:1;"/>
</linearGradient>
</defs>
</svg>
