<svg width="40" height="40" viewBox="0 0 40 40" fill="none" xmlns="http://www.w3.org/2000/svg">
<rect width="40" height="40" rx="10" fill="url(#paint0_linear_2524_228)" style=""/>
<path fill-rule="evenodd" clip-rule="evenodd" d="M13.6202 11.104C12.9396 11.708 12.8291 12.7102 12.6082 14.7146L12.2173 18.2601C11.9476 20.706 11.8128 21.929 12.5247 22.7145C13.2367 23.5 14.48 23.5 16.9665 23.5H23.0335C25.52 23.5 26.7633 23.5 27.4753 22.7145C28.1872 21.929 28.0524 20.706 27.7827 18.2601L27.3918 14.7146C27.1709 12.7102 27.0604 11.708 26.3798 11.104C25.6992 10.5 24.6803 10.5 22.6426 10.5H17.3574C15.3197 10.5 14.3008 10.5 13.6202 11.104ZM16.7156 17.5909C16.2208 17.5909 15.8198 17.9877 15.8198 18.4773C15.8198 18.9668 16.2208 19.3636 16.7156 19.3636H23.2844C23.7792 19.3636 24.1802 18.9668 24.1802 18.4773C24.1802 17.9877 23.7792 17.5909 23.2844 17.5909H16.7156ZM15.8198 14.9318C15.8198 14.4423 16.2208 14.0455 16.7156 14.0455H20.4976C20.9924 14.0455 21.3934 14.4423 21.3934 14.9318C21.3934 15.4213 20.9924 15.8182 20.4976 15.8182H16.7156C16.2208 15.8182 15.8198 15.4213 15.8198 14.9318Z" fill="white" style="fill:white;fill-opacity:1;"/>
<path opacity="0.6" d="M23.5873 27.6125L22.7778 25.8463C22.6815 25.6362 22.4605 25.5 22.2161 25.5H17.7839C17.5395 25.5 17.3185 25.6362 17.2222 25.8463L16.4127 27.6125C16.3646 27.7176 16.2541 27.7857 16.1319 27.7857H15.4167C14.9104 27.7857 14.5 28.1695 14.5 28.6429C14.5 29.1162 14.9104 29.5 15.4167 29.5H24.5833C25.0896 29.5 25.5 29.1162 25.5 28.6429C25.5 28.1695 25.0896 27.7857 24.5833 27.7857H23.8681C23.7459 27.7857 23.6354 27.7176 23.5873 27.6125Z" fill="white" style="fill:white;fill-opacity:1;"/>
<defs>
<linearGradient id="paint0_linear_2524_228" x1="0" y1="40" x2="40" y2="0" gradientUnits="userSpaceOnUse">
<stop stop-color="#0E0806" style="stop-color:#0E0806;stop-color:color(display-p3 0.0549 0.0329 0.0235);stop-opacity:1;"/>
<stop offset="1" stop-color="#254764" style="stop-color:#254764;stop-color:color(display-p3 0.1451 0.2784 0.3922);stop-opacity:1;"/>
</linearGradient>
</defs>
</svg>
