<svg width="40" height="40" viewBox="0 0 40 40" fill="none" xmlns="http://www.w3.org/2000/svg">
<rect width="40" height="40" rx="10" fill="#F9E95D" style="fill:#F9E95D;fill:color(display-p3 0.9765 0.9137 0.3647);fill-opacity:1;"/>
<path fill-rule="evenodd" clip-rule="evenodd" d="M16.3986 14.336C15.9433 14.3286 15.491 14.4096 15.0664 14.5744L15.0665 14.5784C14.9524 14.6109 14.8423 14.6559 14.7381 14.7126C14.1624 15.0124 13.6413 15.4072 13.1966 15.8806L13.3298 14.4743H11.6884C11.6781 14.6007 11.6706 14.7244 11.6631 14.8471C11.6463 15.1222 11.6298 15.3921 11.5837 15.6756C11.5517 15.8729 11.5185 16.0624 11.4853 16.2521C11.4495 16.4568 11.4137 16.6618 11.3791 16.877L9.00024 27.2745L10.8177 27.2506L11.912 22.4833C12.2246 22.9343 12.6343 23.309 13.111 23.5798C13.6217 23.8357 14.1862 23.9649 14.7572 23.9565L15.0807 23.9564C15.7332 23.9108 16.3657 23.7355 16.9267 23.3987C17.6192 23.0148 18.1898 22.4431 18.5729 21.7492C18.9695 21.1183 19.2484 20.4205 19.396 19.6897C19.589 18.9628 19.6534 18.2077 19.5863 17.4586C19.5434 16.5973 19.1901 15.7808 18.5919 15.1608C18.3003 14.8828 17.9558 14.6665 17.579 14.5248C17.2022 14.3831 16.8007 14.3189 16.3986 14.336ZM15.0805 15.5279C14.8267 15.6128 14.5839 15.728 14.3575 15.8711C13.8897 16.2082 13.5135 16.6573 13.2632 17.1773C12.9374 17.7769 12.6956 18.4186 12.5448 19.0843C12.3986 19.6779 12.3409 20.29 12.3735 20.9006C12.377 21.1445 12.4296 21.3852 12.528 21.6084C12.6264 21.8315 12.7686 22.0325 12.9462 22.1994C13.1239 22.3662 13.3332 22.4955 13.5618 22.5795C13.7903 22.6635 14.0335 22.7005 14.2766 22.6883C14.5435 22.6906 14.8236 22.6564 15.0807 22.5846L15.0957 22.5801C15.326 22.5106 15.5502 22.443 15.7658 22.3356C16.2408 22.0253 16.629 21.5987 16.8934 21.0961C17.2093 20.5356 17.4509 19.9362 17.6118 19.3131C17.7696 18.7085 17.8275 18.082 17.7831 17.4586C17.7441 16.9137 17.5286 16.3965 17.1693 15.9855C16.9853 15.8024 16.7659 15.6588 16.5246 15.5637C16.2832 15.4686 16.025 15.424 15.7658 15.4325C15.5334 15.4317 15.3023 15.4671 15.0807 15.5374L15.0805 15.5279ZM26.0559 16.1076C26.2478 16.0678 26.4428 16.0441 26.6388 16.0368C26.8322 16.0319 27.0246 16.0658 27.2044 16.1365C27.3842 16.2071 27.5477 16.313 27.685 16.4477C27.9693 16.7533 28.1293 17.1521 28.1341 17.5673C28.1666 18.0939 28.1199 18.6225 27.9955 19.1356C27.8621 19.721 27.6667 20.291 27.4127 20.8361C27.2296 21.2404 26.9589 21.6001 26.6197 21.8895C26.4517 22.0268 26.2511 22.1195 26.0368 22.1587V23.9301C26.0864 23.9301 26.1453 23.9382 26.2049 23.9464C26.2659 23.9547 26.3276 23.9632 26.3808 23.9632C27.0807 23.97 27.77 23.7946 28.3796 23.4547C28.9892 23.1147 29.4977 22.6222 29.8539 22.0265C30.7748 20.6536 31.1602 18.9968 30.9383 17.3641C30.9295 16.5331 30.6115 15.7344 30.045 15.1204C29.7612 14.855 29.4264 14.6487 29.0603 14.514C28.6943 14.3793 28.3045 14.3188 27.9143 14.3362C27.3552 14.3244 26.8008 14.4409 26.2948 14.6764C26.219 14.7191 26.139 14.7539 26.0559 14.7803V16.1076ZM26.0559 16.1076L26.0464 14.7803C25.6119 15.0406 25.2081 15.3479 24.8425 15.6967L24.9094 14.5772H22.3296C22.2627 15.2007 22.0907 16.1549 21.8137 17.4114L19.6113 27.2745H22.4777L23.5765 22.4138C23.8223 22.8961 24.2105 23.2931 24.6896 23.5522C25.1042 23.7719 25.5624 23.8993 26.032 23.9254V22.154C25.8973 22.1959 25.7575 22.2197 25.6164 22.2249C25.4041 22.2341 25.1923 22.1965 24.9965 22.1147C24.8007 22.0331 24.6257 21.9093 24.4842 21.7525C24.1635 21.3815 23.9814 20.913 23.9682 20.4251C23.8446 19.3616 24.0743 18.2872 24.6227 17.3641C24.922 16.7808 25.4343 16.3316 26.0559 16.1076Z" fill="#0054A4" style="fill:#0054A4;fill:color(display-p3 0.0000 0.3294 0.6431);fill-opacity:1;"/>
</svg>
