<svg width="32" height="24" viewBox="0 0 32 24" fill="none" xmlns="http://www.w3.org/2000/svg">
<rect width="32" height="24" rx="4" fill="#F9E95D" style="fill:#F9E95D;fill:color(display-p3 0.9765 0.9137 0.3647);fill-opacity:1;"/>
<path fill-rule="evenodd" clip-rule="evenodd" d="M12.5623 6.00251C12.1277 5.99567 11.6959 6.07072 11.2906 6.22355L11.2907 6.22723C11.1818 6.2574 11.0767 6.29915 10.9772 6.35175C10.4277 6.6297 9.93021 6.99582 9.50573 7.4348L9.63289 6.13071H8.06602C8.05623 6.24795 8.04901 6.36267 8.04186 6.47641C8.02584 6.73152 8.01009 6.98177 7.96612 7.24471C7.93554 7.42759 7.90389 7.6033 7.87221 7.77925C7.83802 7.96906 7.80381 8.15912 7.77082 8.35868L5.5 18L7.23491 17.9779L8.27948 13.5573C8.57785 13.9755 8.96899 14.3229 9.42399 14.574C9.91148 14.8113 10.4504 14.9311 10.9954 14.9233L11.3042 14.9232C11.9271 14.881 12.5308 14.7184 13.0664 14.4061C13.7275 14.0501 14.2721 13.52 14.6378 12.8765C15.0164 12.2915 15.2826 11.6445 15.4235 10.9668C15.6077 10.2928 15.6692 9.59265 15.6052 8.89801C15.5643 8.09931 15.227 7.34222 14.656 6.76728C14.3776 6.5095 14.0488 6.30895 13.6891 6.17756C13.3293 6.04615 12.9461 5.98663 12.5623 6.00251ZM11.3041 7.10771C11.0617 7.18641 10.83 7.29325 10.6139 7.42593C10.1674 7.73857 9.80827 8.15494 9.56932 8.63718C9.25828 9.19311 9.02751 9.78813 8.88352 10.4054C8.74397 10.9559 8.68888 11.5235 8.72002 12.0897C8.72339 12.3158 8.77354 12.5391 8.86747 12.746C8.96141 12.9529 9.0972 13.1393 9.26675 13.294C9.43631 13.4487 9.63612 13.5686 9.85433 13.6465C10.0725 13.7244 10.3046 13.7587 10.5367 13.7474C10.7914 13.7494 11.0589 13.7178 11.3042 13.6512L11.3185 13.647C11.5384 13.5826 11.7524 13.5199 11.9582 13.4203C12.4117 13.1326 12.7822 12.737 13.0346 12.2709C13.3362 11.7512 13.5668 11.1954 13.7204 10.6176C13.871 10.057 13.9263 9.47605 13.8839 8.89801C13.8467 8.39273 13.641 7.9131 13.298 7.53205C13.1224 7.36221 12.9129 7.22912 12.6826 7.14094C12.4521 7.05276 12.2057 7.01136 11.9582 7.01924C11.7364 7.01854 11.5158 7.05134 11.3042 7.11651L11.3041 7.10771ZM21.7809 7.64529C21.9641 7.60832 22.1502 7.58635 22.3373 7.5796C22.5219 7.57508 22.7056 7.60652 22.8772 7.67201C23.0489 7.7375 23.2049 7.83567 23.336 7.96065C23.6074 8.24399 23.7601 8.61377 23.7647 8.99876C23.7957 9.48712 23.7512 9.97721 23.6324 10.453C23.505 10.9959 23.3186 11.5244 23.0761 12.0298C22.9013 12.4048 22.6429 12.7383 22.319 13.0066C22.1587 13.134 21.9672 13.2199 21.7627 13.2563V14.8989C21.81 14.8989 21.8663 14.9063 21.9231 14.9139C21.9814 14.9217 22.0403 14.9295 22.091 14.9295C22.7591 14.9358 23.4171 14.7732 23.9991 14.458C24.581 14.1428 25.0663 13.686 25.4064 13.1336C26.2854 11.8607 26.6533 10.3244 26.4416 8.81041C26.4331 8.03982 26.1295 7.29916 25.5888 6.72984C25.3179 6.48371 24.9983 6.29249 24.6488 6.16757C24.2994 6.04265 23.9274 5.98657 23.5549 6.00271C23.0211 5.99176 22.492 6.09973 22.0089 6.3181C21.9366 6.35769 21.8602 6.38997 21.7809 6.41445V7.64529ZM21.7809 7.64529L21.7718 6.41445C21.357 6.65583 20.9716 6.94083 20.6226 7.26421L20.6865 6.22613H18.2239C18.1601 6.80431 17.9959 7.6891 17.7314 8.85422L15.6291 18H18.3653L19.4141 13.4928C19.6487 13.94 20.0193 14.3081 20.4767 14.5484C20.8725 14.7522 21.3098 14.8703 21.7581 14.8945V13.2519C21.6295 13.2907 21.4961 13.3128 21.3614 13.3176C21.1587 13.3261 20.9565 13.2913 20.7696 13.2155C20.5827 13.1398 20.4157 13.025 20.2806 12.8796C19.9745 12.5356 19.8006 12.1011 19.7881 11.6488C19.6701 10.6626 19.8894 9.66631 20.4128 8.81041C20.6985 8.26946 21.1876 7.85297 21.7809 7.64529Z" fill="#0054A4" style="fill:#0054A4;fill:color(display-p3 0.0000 0.3294 0.6431);fill-opacity:1;"/>
</svg>
