<svg width="16" height="16" viewBox="0 0 16 16" fill="none" xmlns="http://www.w3.org/2000/svg">
<rect width="16" height="16" rx="4" fill="#F9E95D" style="fill:#F9E95D;fill:color(display-p3 0.9765 0.9137 0.3647);fill-opacity:1;"/>
<path fill-rule="evenodd" clip-rule="evenodd" d="M6.55944 5.73442C6.37734 5.73147 6.19639 5.76385 6.02656 5.82977L6.02659 5.83136C5.98097 5.84437 5.93694 5.86238 5.89525 5.88507C5.66496 6.00497 5.45651 6.16291 5.27864 6.35227L5.33192 5.78972H4.67535C4.67125 5.8403 4.66822 5.88978 4.66522 5.93885C4.65851 6.0489 4.65191 6.15685 4.63349 6.27027C4.62067 6.34916 4.60741 6.42496 4.59414 6.50086C4.57981 6.58273 4.56547 6.66472 4.55165 6.75081L3.6001 10.9098L4.32709 10.9003L4.7648 8.99335C4.88982 9.17373 5.05372 9.32362 5.24439 9.43195C5.44866 9.5343 5.6745 9.58596 5.90286 9.5826L6.03227 9.58256C6.29326 9.56435 6.54626 9.4942 6.77069 9.35948C7.0477 9.20593 7.27591 8.97726 7.42916 8.69968C7.5878 8.44733 7.69935 8.16821 7.7584 7.8759C7.83559 7.58515 7.86135 7.28311 7.83452 6.98346C7.81737 6.63892 7.67605 6.31233 7.43677 6.06432C7.32012 5.95312 7.18234 5.86661 7.0316 5.80993C6.88086 5.75325 6.72029 5.72757 6.55944 5.73442ZM6.03221 6.21117C5.93066 6.24512 5.83355 6.29121 5.743 6.34845C5.55589 6.48331 5.40541 6.66292 5.30529 6.87095C5.17495 7.11076 5.07825 7.36743 5.01791 7.63372C4.95944 7.87118 4.93635 8.11601 4.9494 8.36026C4.95081 8.45782 4.97182 8.55411 5.01119 8.64337C5.05055 8.73262 5.10745 8.81302 5.1785 8.87976C5.24955 8.9465 5.33327 8.99821 5.42471 9.03182C5.51614 9.06542 5.61339 9.08022 5.71065 9.07535C5.81739 9.07623 5.92945 9.06257 6.03227 9.03386L6.03826 9.03205C6.1304 9.00425 6.22006 8.9772 6.30632 8.93423C6.49634 8.81013 6.65159 8.63948 6.75736 8.43843C6.88374 8.21426 6.98035 7.97451 7.04472 7.72525C7.10785 7.4834 7.131 7.23281 7.11324 6.98346C7.09765 6.7655 7.01145 6.5586 6.86774 6.39422C6.79414 6.32096 6.70637 6.26355 6.60984 6.22551C6.51329 6.18747 6.41001 6.16961 6.30632 6.17301C6.21336 6.17271 6.12091 6.18686 6.03227 6.21497L6.03221 6.21117ZM10.4224 6.44307C10.4991 6.42712 10.5771 6.41765 10.6555 6.41473C10.7329 6.41278 10.8098 6.42635 10.8817 6.4546C10.9537 6.48285 11.0191 6.5252 11.074 6.57911C11.1877 6.70133 11.2517 6.86085 11.2536 7.02692C11.2666 7.23758 11.248 7.449 11.1982 7.65423C11.1448 7.88842 11.0667 8.11642 10.9651 8.33445C10.8918 8.49618 10.7835 8.64003 10.6479 8.7558C10.5807 8.81073 10.5004 8.84781 10.4147 8.8635V9.57206C10.4346 9.57206 10.4581 9.57528 10.482 9.57856C10.5064 9.5819 10.531 9.58528 10.5523 9.58528C10.8323 9.58801 11.108 9.51786 11.3518 9.38188C11.5957 9.24591 11.7991 9.04888 11.9415 8.8106C12.3099 8.26147 12.4641 7.59875 12.3753 6.94567C12.3718 6.61326 12.2446 6.29376 12.018 6.04817C11.9045 5.942 11.7705 5.85951 11.6241 5.80562C11.4777 5.75173 11.3218 5.72755 11.1657 5.73451C10.9421 5.72978 10.7203 5.77636 10.5179 5.87056C10.4876 5.88763 10.4556 5.90156 10.4224 5.91212V6.44307ZM10.4224 6.44307L10.4185 5.91212C10.2447 6.01625 10.0832 6.13918 9.937 6.27868L9.96375 5.83088H8.93185C8.9051 6.0803 8.8363 6.46197 8.72546 6.96457L7.84452 10.9098H8.99109L9.4306 8.96553C9.52891 9.15843 9.68419 9.31723 9.87585 9.4209C10.0417 9.50878 10.225 9.55973 10.4128 9.57017V8.86161C10.3589 8.87836 10.303 8.8879 10.2466 8.88996C10.1616 8.89363 10.0769 8.8786 9.9986 8.84591C9.92027 8.81323 9.85027 8.76373 9.79367 8.70101C9.66541 8.55262 9.59256 8.3652 9.5873 8.17006C9.53785 7.74466 9.62974 7.31488 9.84909 6.94567C9.96881 6.71232 10.1737 6.53266 10.4224 6.44307Z" fill="#0054A4" style="fill:#0054A4;fill:color(display-p3 0.0000 0.3294 0.6431);fill-opacity:1;"/>
</svg>
