<svg width="16" height="16" viewBox="0 0 16 16" fill="none" xmlns="http://www.w3.org/2000/svg">
<g clip-path="url(#clip0_4559_149)">
<rect width="16" height="16" rx="4" fill="#F94C43" style="fill:#F94C43;fill:color(display-p3 0.9765 0.2980 0.2627);fill-opacity:1;"/>
<rect width="16" height="16" fill="#FF3D00" style="fill:#FF3D00;fill:color(display-p3 1.0000 0.2392 0.0000);fill-opacity:1;"/>
<path d="M11.1799 12.557C11.2595 12.6596 11.2604 12.8034 11.1536 12.8871C11.1377 12.8997 11.0802 12.934 11.0657 12.934H8.69362L10.138 11.6254V11.6244L11.1799 12.557ZM7.83912 3.06876L7.89381 3.09513C8.13385 3.32681 8.38746 3.54458 8.63502 3.76798L12.4905 7.27384C12.7608 7.58145 12.8459 8.02679 12.6917 8.40861C12.5455 8.76974 12.1238 9.06086 11.8381 9.32267C10.521 10.529 9.19398 11.7246 7.8733 12.9272L4.91627 12.9281C4.7617 12.8693 4.70386 12.6915 4.81569 12.56L9.67506 8.16154C9.75481 8.09821 9.78434 7.99817 9.72877 7.90763L4.79811 3.41935C4.71106 3.29336 4.77447 3.13759 4.91041 3.08243C5.8832 3.05037 6.86364 3.07624 7.83912 3.06876ZM6.28248 5.51603C6.70829 5.90007 7.12793 6.29314 7.55885 6.6713L7.5774 6.70353L6.28053 7.88712C6.18197 8.04043 6.2781 8.11377 6.38112 8.21427C6.7367 8.56164 7.13367 8.87537 7.49733 9.21525C7.51358 9.23061 7.57937 9.28858 7.5774 9.30704L5.8528 10.8637L3.53834 8.76896C3.14999 8.35955 3.12624 7.72496 3.49147 7.29337L5.84401 5.14298H5.87037C6.00425 5.271 6.14511 5.39202 6.28248 5.51603ZM11.0393 3.06779C11.2137 3.09216 11.2993 3.29434 11.1917 3.43302L10.1389 4.39005L8.70729 3.06779H11.0393Z" fill="white" style="fill:white;fill-opacity:1;"/>
</g>
<defs>
<clipPath id="clip0_4559_149">
<rect width="16" height="16" rx="4" fill="white" style="fill:white;fill-opacity:1;"/>
</clipPath>
</defs>
</svg>
