<svg width="32" height="32" viewBox="0 0 32 32" fill="none" xmlns="http://www.w3.org/2000/svg">
<g clip-path="url(#clip0_4550_137)">
<rect width="32" height="32" rx="8" fill="#F94C43" style="fill:#F94C43;fill:color(display-p3 0.9765 0.2980 0.2627);fill-opacity:1;"/>
<rect width="32" height="32" fill="#FF3D00" style="fill:#FF3D00;fill:color(display-p3 1.0000 0.2392 0.0000);fill-opacity:1;"/>
<path d="M22.3609 25.1132C22.52 25.3184 22.5211 25.608 22.3072 25.7753C22.2753 25.8005 22.1604 25.868 22.1314 25.868H17.3872L20.2769 23.2499L22.3609 25.1132ZM9.8218 6.16493C11.7673 6.1008 13.7273 6.15254 15.6782 6.13758L15.7876 6.18934C16.2677 6.65276 16.7749 7.08819 17.27 7.53504C19.8501 9.86225 22.4089 12.2137 24.982 14.5468H24.981C25.5219 15.162 25.6919 16.0525 25.3833 16.8163C25.0914 17.5389 24.2478 18.1216 23.6763 18.6454C21.0419 21.0581 18.3879 23.4492 15.7466 25.8544L9.83156 25.8563C9.52258 25.7387 9.40693 25.3829 9.63039 25.12L19.3501 16.3231C19.5096 16.1965 19.5686 15.9964 19.4575 15.8153L9.59621 6.83973C9.42148 6.58744 9.54921 6.27504 9.8218 6.16493ZM11.7417 10.286C12.0094 10.542 12.2893 10.7852 12.564 11.0331C13.4155 11.8011 14.255 12.5864 15.1167 13.3427L15.1538 13.4081L12.5611 15.7733C12.3632 16.0807 12.5567 16.2281 12.7632 16.4296C13.4745 17.1244 14.2673 17.7517 14.9947 18.4315C15.0276 18.4627 15.1603 18.5793 15.1538 18.6151L11.7046 21.7274L7.07668 17.538C6.29995 16.7192 6.25249 15.45 6.98293 14.5868L11.688 10.286H11.7417ZM22.0786 6.13661C22.4273 6.18546 22.5979 6.58877 22.3823 6.8661L20.2769 8.77918L17.4146 6.13661H22.0786Z" fill="white" style="fill:white;fill-opacity:1;"/>
</g>
<defs>
<clipPath id="clip0_4550_137">
<rect width="32" height="32" rx="8" fill="white" style="fill:white;fill-opacity:1;"/>
</clipPath>
</defs>
</svg>
