<svg width="48" height="36" viewBox="0 0 48 36" fill="none" xmlns="http://www.w3.org/2000/svg">
<rect x="0.75" y="0.75" width="46.5" height="34.5" rx="5.25" fill="white" style="fill:white;fill-opacity:1;"/>
<rect x="0.75" y="0.75" width="46.5" height="34.5" rx="5.25" stroke="#ECECF0" style="stroke:#ECECF0;stroke:color(display-p3 0.9255 0.9255 0.9412);stroke-opacity:1;" stroke-width="1.5"/>
<path fill-rule="evenodd" clip-rule="evenodd" d="M18.8257 28.8314C23.6468 31.1373 29.597 29.9962 33.1915 25.7131C37.4522 20.6365 36.7904 13.0684 31.7135 8.8092L28.3385 12.8307C32.3047 16.1581 32.8217 22.0708 29.4933 26.0369C26.8389 29.199 22.4689 30.2551 18.8257 28.8314Z" fill="url(#paint0_linear_4559_397)" style=""/>
<path fill-rule="evenodd" clip-rule="evenodd" d="M18.8257 28.8314C23.6468 31.1373 29.597 29.9962 33.1915 25.7131C33.6246 25.1975 34.0138 24.6465 34.355 24.066C34.9227 20.5385 33.6743 16.8099 30.7378 14.3464C30.0104 13.7352 29.2034 13.2255 28.3389 12.8313C32.3048 16.1587 32.8215 22.071 29.4931 26.0368C26.8391 29.1993 22.4692 30.2551 18.8257 28.8314Z" fill="url(#paint1_linear_4559_397)" style=""/>
<path fill-rule="evenodd" clip-rule="evenodd" d="M29.1743 7.16836C24.3532 4.86277 18.4031 6.0039 14.8085 10.2869C10.5478 15.3636 11.2096 22.9317 16.2864 27.1909L19.6616 23.1694C15.6953 19.8419 15.1782 13.9293 18.5069 9.96316C21.1609 6.80064 25.5308 5.74482 29.1742 7.1685" fill="url(#paint2_linear_4559_397)" style=""/>
<path fill-rule="evenodd" clip-rule="evenodd" d="M29.1744 7.16836C24.3533 4.86277 18.4032 6.0039 14.8086 10.2869C14.3755 10.8026 13.9863 11.3535 13.6451 11.9341C13.0774 15.4616 14.3258 19.19 17.2622 21.6537C17.9897 22.2648 18.7967 22.7745 19.6612 23.1688C15.6954 19.8414 15.1786 13.9291 18.507 9.96316C21.161 6.80064 25.5309 5.74482 29.1743 7.1685" fill="url(#paint3_linear_4559_397)" style=""/>
<defs>
<linearGradient id="paint0_linear_4559_397" x1="32.7051" y1="21.4468" x2="27.6064" y2="11.2898" gradientUnits="userSpaceOnUse">
<stop stop-color="#EF2131" style="stop-color:#EF2131;stop-color:color(display-p3 0.9373 0.1294 0.1922);stop-opacity:1;"/>
<stop offset="1" stop-color="#FECF2C" style="stop-color:#FECF2C;stop-color:color(display-p3 0.9961 0.8118 0.1725);stop-opacity:1;"/>
</linearGradient>
<linearGradient id="paint1_linear_4559_397" x1="28.0383" y1="12.8311" x2="19.1003" y2="28.3044" gradientUnits="userSpaceOnUse">
<stop stop-color="#FBC52C" style="stop-color:#FBC52C;stop-color:color(display-p3 0.9843 0.7725 0.1725);stop-opacity:1;"/>
<stop offset="0.264" stop-color="#F87130" style="stop-color:#F87130;stop-color:color(display-p3 0.9725 0.4431 0.1882);stop-opacity:1;"/>
<stop offset="0.561" stop-color="#EF52E2" style="stop-color:#EF52E2;stop-color:color(display-p3 0.9373 0.3216 0.8863);stop-opacity:1;"/>
<stop offset="1" stop-color="#661EEC" style="stop-color:#661EEC;stop-color:color(display-p3 0.4000 0.1176 0.9255);stop-opacity:1;"/>
</linearGradient>
<linearGradient id="paint2_linear_4559_397" x1="15.5327" y1="14.692" x2="20.4194" y2="24.6307" gradientUnits="userSpaceOnUse">
<stop stop-color="#78F6D8" style="stop-color:#78F6D8;stop-color:color(display-p3 0.4706 0.9647 0.8471);stop-opacity:1;"/>
<stop offset="0.266" stop-color="#77D1F6" style="stop-color:#77D1F6;stop-color:color(display-p3 0.4667 0.8196 0.9647);stop-opacity:1;"/>
<stop offset="0.554" stop-color="#70A4F3" style="stop-color:#70A4F3;stop-color:color(display-p3 0.4392 0.6431 0.9529);stop-opacity:1;"/>
<stop offset="1" stop-color="#661EEC" style="stop-color:#661EEC;stop-color:color(display-p3 0.4000 0.1176 0.9255);stop-opacity:1;"/>
</linearGradient>
<linearGradient id="paint3_linear_4559_397" x1="20.159" y1="23.1688" x2="29.0274" y2="7.7486" gradientUnits="userSpaceOnUse">
<stop stop-color="#536EED" style="stop-color:#536EED;stop-color:color(display-p3 0.3255 0.4314 0.9294);stop-opacity:1;"/>
<stop offset="0.247" stop-color="#54C3EC" style="stop-color:#54C3EC;stop-color:color(display-p3 0.3294 0.7647 0.9255);stop-opacity:1;"/>
<stop offset="0.564" stop-color="#64D769" style="stop-color:#64D769;stop-color:color(display-p3 0.3922 0.8431 0.4118);stop-opacity:1;"/>
<stop offset="1" stop-color="#FECF2C" style="stop-color:#FECF2C;stop-color:color(display-p3 0.9961 0.8118 0.1725);stop-opacity:1;"/>
</linearGradient>
</defs>
</svg>
