<svg width="40" height="40" viewBox="0 0 40 40" fill="none" xmlns="http://www.w3.org/2000/svg">
<rect x="0.5" y="0.5" width="39" height="39" rx="9.5" fill="white" style="fill:white;fill-opacity:1;"/>
<rect x="0.5" y="0.5" width="39" height="39" rx="9.5" stroke="#EEEEEE" style="stroke:#EEEEEE;stroke:color(display-p3 0.9333 0.9333 0.9333);stroke-opacity:1;"/>
<path fill-rule="evenodd" clip-rule="evenodd" d="M15.688 29.0262C19.7056 30.9478 24.6641 29.9968 27.6595 26.4276C31.2101 22.1971 30.6586 15.8903 26.4279 12.341L23.6153 15.6923C26.9205 18.4651 27.3514 23.3924 24.5776 26.6974C22.3657 29.3325 18.724 30.2126 15.688 29.0262Z" fill="url(#paint0_linear_4559_276)" style=""/>
<path fill-rule="evenodd" clip-rule="evenodd" d="M15.688 29.0262C19.7056 30.9478 24.6641 29.9968 27.6595 26.4276C28.0204 25.9979 28.3447 25.5388 28.6291 25.055C29.1022 22.1154 28.0618 19.0083 25.6148 16.9554C25.0086 16.446 24.336 16.0213 23.6157 15.6927C26.9206 18.4656 27.3511 23.3925 24.5775 26.6973C22.3658 29.3328 18.7243 30.2126 15.688 29.0262Z" fill="url(#paint1_linear_4559_276)" style=""/>
<path fill-rule="evenodd" clip-rule="evenodd" d="M24.3119 10.9736C20.2943 9.05231 15.3359 10.0032 12.3404 13.5724C8.78984 17.803 9.34129 24.1098 13.572 27.6591L16.3847 24.3078C13.0794 21.535 12.6485 16.6077 15.4224 13.3026C17.6341 10.6672 21.2756 9.78735 24.3118 10.9737" fill="url(#paint2_linear_4559_276)" style=""/>
<path fill-rule="evenodd" clip-rule="evenodd" d="M24.312 10.9736C20.2944 9.05231 15.336 10.0032 12.3404 13.5724C11.9795 14.0022 11.6552 14.4613 11.3708 14.9451C10.8978 17.8847 11.9381 20.9917 14.3852 23.0447C14.9914 23.554 15.6639 23.9788 16.3843 24.3073C13.0795 21.5345 12.6488 16.6076 15.4224 13.3026C17.6342 10.6672 21.2757 9.78735 24.3118 10.9737" fill="url(#paint3_linear_4559_276)" style=""/>
<defs>
<linearGradient id="paint0_linear_4559_276" x1="27.2542" y1="22.8723" x2="23.0052" y2="14.4081" gradientUnits="userSpaceOnUse">
<stop stop-color="#EF2131" style="stop-color:#EF2131;stop-color:color(display-p3 0.9373 0.1294 0.1922);stop-opacity:1;"/>
<stop offset="1" stop-color="#FECF2C" style="stop-color:#FECF2C;stop-color:color(display-p3 0.9961 0.8118 0.1725);stop-opacity:1;"/>
</linearGradient>
<linearGradient id="paint1_linear_4559_276" x1="23.3652" y1="15.6926" x2="15.9168" y2="28.587" gradientUnits="userSpaceOnUse">
<stop stop-color="#FBC52C" style="stop-color:#FBC52C;stop-color:color(display-p3 0.9843 0.7725 0.1725);stop-opacity:1;"/>
<stop offset="0.264" stop-color="#F87130" style="stop-color:#F87130;stop-color:color(display-p3 0.9725 0.4431 0.1882);stop-opacity:1;"/>
<stop offset="0.561" stop-color="#EF52E2" style="stop-color:#EF52E2;stop-color:color(display-p3 0.9373 0.3216 0.8863);stop-opacity:1;"/>
<stop offset="1" stop-color="#661EEC" style="stop-color:#661EEC;stop-color:color(display-p3 0.4000 0.1176 0.9255);stop-opacity:1;"/>
</linearGradient>
<linearGradient id="paint2_linear_4559_276" x1="12.9439" y1="17.2433" x2="17.0162" y2="25.5256" gradientUnits="userSpaceOnUse">
<stop stop-color="#78F6D8" style="stop-color:#78F6D8;stop-color:color(display-p3 0.4706 0.9647 0.8471);stop-opacity:1;"/>
<stop offset="0.266" stop-color="#77D1F6" style="stop-color:#77D1F6;stop-color:color(display-p3 0.4667 0.8196 0.9647);stop-opacity:1;"/>
<stop offset="0.554" stop-color="#70A4F3" style="stop-color:#70A4F3;stop-color:color(display-p3 0.4392 0.6431 0.9529);stop-opacity:1;"/>
<stop offset="1" stop-color="#661EEC" style="stop-color:#661EEC;stop-color:color(display-p3 0.4000 0.1176 0.9255);stop-opacity:1;"/>
</linearGradient>
<linearGradient id="paint3_linear_4559_276" x1="16.7991" y1="24.3073" x2="24.1894" y2="11.4572" gradientUnits="userSpaceOnUse">
<stop stop-color="#536EED" style="stop-color:#536EED;stop-color:color(display-p3 0.3255 0.4314 0.9294);stop-opacity:1;"/>
<stop offset="0.247" stop-color="#54C3EC" style="stop-color:#54C3EC;stop-color:color(display-p3 0.3294 0.7647 0.9255);stop-opacity:1;"/>
<stop offset="0.564" stop-color="#64D769" style="stop-color:#64D769;stop-color:color(display-p3 0.3922 0.8431 0.4118);stop-opacity:1;"/>
<stop offset="1" stop-color="#FECF2C" style="stop-color:#FECF2C;stop-color:color(display-p3 0.9961 0.8118 0.1725);stop-opacity:1;"/>
</linearGradient>
</defs>
</svg>
