<svg width="32" height="32" viewBox="0 0 32 32" fill="none" xmlns="http://www.w3.org/2000/svg">
<rect width="32" height="32" rx="8" fill="black" style="fill:black;fill-opacity:1;"/>
<g clip-path="url(#clip0_2572_593)">
<g clip-path="url(#clip1_2572_593)">
<path d="M28.5 22.4377C28.477 22.8394 28.2627 23.2066 27.9261 23.4247L16.8256 29.8629C16.5078 30.0457 15.9914 30.0457 15.6744 29.8629L4.57391 23.4247C4.25617 23.242 4 22.804 4 22.4377V9.56291C4.02217 9.16037 4.234 8.79405 4.57391 8.57508L15.6744 2.13768C15.9914 1.95411 16.5078 1.95411 16.8256 2.13768L27.9261 8.57508C28.243 8.75536 28.5 9.19577 28.5 9.56291V22.4377Z" fill="white" style="fill:white;fill-opacity:1;"/>
<path d="M22.0408 16.0291L19.1376 20.2966L17.6564 18.0196L19.3659 15.4537C19.6836 14.9969 20.3634 13.7365 19.5777 12.0226C18.9422 10.624 17.5628 9.95807 16.3543 9.95807C15.1449 9.95807 13.8304 10.5788 13.1177 12.0226C12.3164 13.6789 13.0118 14.968 13.3139 15.4085L15.0554 17.9908L16.3411 19.8587L18.2755 22.8337C18.2911 22.8493 18.5924 23.3185 19.1376 23.3185C19.6508 23.3185 19.9685 22.8493 20.0169 22.8041L24.5516 16.0612H22.0408V16.0291ZM16.3411 16.1353L15.0841 14.177C14.5545 13.3118 15.1449 12.0226 16.3411 12.0226C17.5341 12.0226 18.1244 13.3118 17.5957 14.177L16.3411 16.1353Z" fill="url(#paint0_radial_2572_593)" style=""/>
<path d="M13.5579 20.1608L10.713 16.151L9.45843 14.1926C8.92968 13.3282 9.52001 12.035 10.713 12.035C10.8632 12.035 11.0012 12.0515 11.1358 12.0967L12.1367 10.2602C11.681 10.061 11.1843 9.95477 10.7286 9.95477C9.52001 9.95477 8.20141 10.5788 7.49285 12.0226C6.69069 13.6756 7.38693 14.968 7.68826 15.4085L12.6663 22.804C12.7106 22.8625 13.0283 23.335 13.5579 23.335C14.0867 23.335 14.388 22.8781 14.4364 22.8172L15.9307 20.5246L14.6483 18.6271L13.5579 20.1608Z" fill="url(#paint1_radial_2572_593)" style=""/>
</g>
</g>
<defs>
<radialGradient id="paint0_radial_2572_593" cx="0" cy="0" r="1" gradientUnits="userSpaceOnUse" gradientTransform="translate(15.3961 11.1274) scale(13.3761 15.1385)">
<stop stop-color="#FFCC00" style="stop-color:#FFCC00;stop-color:color(display-p3 1.0000 0.8000 0.0000);stop-opacity:1;"/>
<stop offset="0.09157" stop-color="#FFC800" style="stop-color:#FFC800;stop-color:color(display-p3 1.0000 0.7843 0.0000);stop-opacity:1;"/>
<stop offset="0.1739" stop-color="#FFBD00" style="stop-color:#FFBD00;stop-color:color(display-p3 1.0000 0.7412 0.0000);stop-opacity:1;"/>
<stop offset="0.2528" stop-color="#FFAB00" style="stop-color:#FFAB00;stop-color:color(display-p3 1.0000 0.6706 0.0000);stop-opacity:1;"/>
<stop offset="0.3295" stop-color="#FF9100" style="stop-color:#FF9100;stop-color:color(display-p3 1.0000 0.5686 0.0000);stop-opacity:1;"/>
<stop offset="0.4046" stop-color="#FF7000" style="stop-color:#FF7000;stop-color:color(display-p3 1.0000 0.4392 0.0000);stop-opacity:1;"/>
<stop offset="0.4786" stop-color="#FF4700" style="stop-color:#FF4700;stop-color:color(display-p3 1.0000 0.2784 0.0000);stop-opacity:1;"/>
<stop offset="0.5503" stop-color="#FF1800" style="stop-color:#FF1800;stop-color:color(display-p3 1.0000 0.0941 0.0000);stop-opacity:1;"/>
<stop offset="0.5822" stop-color="#FF0000" style="stop-color:#FF0000;stop-color:color(display-p3 1.0000 0.0000 0.0000);stop-opacity:1;"/>
<stop offset="1" stop-color="#FF0000" style="stop-color:#FF0000;stop-color:color(display-p3 1.0000 0.0000 0.0000);stop-opacity:1;"/>
</radialGradient>
<radialGradient id="paint1_radial_2572_593" cx="0" cy="0" r="1" gradientUnits="userSpaceOnUse" gradientTransform="translate(7.33392 11.8994) scale(12.2651 18.6194)">
<stop stop-color="#00B4E6" style="stop-color:#00B4E6;stop-color:color(display-p3 0.0000 0.7059 0.9020);stop-opacity:1;"/>
<stop offset="0.201" stop-color="#00B0E3" style="stop-color:#00B0E3;stop-color:color(display-p3 0.0000 0.6902 0.8902);stop-opacity:1;"/>
<stop offset="0.3898" stop-color="#01A5DB" style="stop-color:#01A5DB;stop-color:color(display-p3 0.0039 0.6471 0.8588);stop-opacity:1;"/>
<stop offset="0.5737" stop-color="#0292CD" style="stop-color:#0292CD;stop-color:color(display-p3 0.0078 0.5725 0.8039);stop-opacity:1;"/>
<stop offset="0.7546" stop-color="#0377BA" style="stop-color:#0377BA;stop-color:color(display-p3 0.0118 0.4667 0.7294);stop-opacity:1;"/>
<stop offset="0.9316" stop-color="#0455A1" style="stop-color:#0455A1;stop-color:color(display-p3 0.0157 0.3333 0.6314);stop-opacity:1;"/>
<stop offset="1" stop-color="#054696" style="stop-color:#054696;stop-color:color(display-p3 0.0196 0.2745 0.5882);stop-opacity:1;"/>
</radialGradient>
<clipPath id="clip0_2572_593">
<rect width="24.5" height="28" fill="white" style="fill:white;fill-opacity:1;" transform="translate(4 2)"/>
</clipPath>
<clipPath id="clip1_2572_593">
<rect width="24.5" height="28" fill="white" style="fill:white;fill-opacity:1;" transform="translate(4 2)"/>
</clipPath>
</defs>
</svg>
