<svg width="40" height="30" viewBox="0 0 40 30" fill="none" xmlns="http://www.w3.org/2000/svg">
<rect width="40" height="30" rx="5" fill="black" style="fill:black;fill-opacity:1;"/>
<path d="M30.625 20.748C30.605 21.1066 30.4192 21.4344 30.1273 21.6291L20.4993 27.3776C20.2236 27.5408 19.7757 27.5408 19.5007 27.3776L9.87278 21.6291C9.59718 21.466 9.375 21.075 9.375 20.748V9.25259C9.39423 8.89318 9.57796 8.5661 9.87278 8.3706L19.5007 2.62293C19.7757 2.45902 20.2236 2.45902 20.4993 2.62293L30.1273 8.3706C30.4021 8.53156 30.625 8.92479 30.625 9.25259V20.748Z" fill="white" style="fill:white;fill-opacity:1;"/>
<path d="M25.0226 15.0259L22.5045 18.8362L21.2198 16.8032L22.7024 14.5123C22.978 14.1043 23.5677 12.979 22.8861 11.4488C22.3349 10.2 21.1385 9.60541 20.0903 9.60541C19.0414 9.60541 17.9012 10.1596 17.2831 11.4488C16.5881 12.9276 17.1912 14.0786 17.4533 14.4718L18.9637 16.7775L20.0789 18.4452L21.7567 21.1015C21.7703 21.1155 22.0316 21.5344 22.5045 21.5344C22.9495 21.5344 23.2252 21.1155 23.2672 21.075L27.2002 15.0546H25.0226V15.0259ZM20.0789 15.1208L18.9886 13.3723C18.5293 12.5998 19.0414 11.4488 20.0789 11.4488C21.1136 11.4488 21.6256 12.5998 21.1671 13.3723L20.0789 15.1208Z" fill="url(#paint0_radial_2740_2130)" style=""/>
<path d="M17.6649 18.715L15.1973 15.1347L14.1092 13.3862C13.6505 12.6145 14.1625 11.4598 15.1973 11.4598C15.3276 11.4598 15.4472 11.4745 15.5641 11.5149L16.4321 9.87514C16.0369 9.69727 15.6061 9.60245 15.2109 9.60245C14.1625 9.60245 13.0189 10.1596 12.4043 11.4488C11.7086 12.9246 12.3124 14.0786 12.5738 14.4718L16.8915 21.075C16.9299 21.1272 17.2055 21.549 17.6649 21.549C18.1234 21.549 18.3848 21.1412 18.4268 21.0868L19.7229 19.0397L18.6105 17.3456L17.6649 18.715Z" fill="url(#paint1_radial_2740_2130)" style=""/>
<defs>
<radialGradient id="paint0_radial_2740_2130" cx="0" cy="0" r="1" gradientUnits="userSpaceOnUse" gradientTransform="translate(19.2592 10.6495) scale(11.6017 13.5165)">
<stop stop-color="#FFCC00" style="stop-color:#FFCC00;stop-color:color(display-p3 1.0000 0.8000 0.0000);stop-opacity:1;"/>
<stop offset="0.09157" stop-color="#FFC800" style="stop-color:#FFC800;stop-color:color(display-p3 1.0000 0.7843 0.0000);stop-opacity:1;"/>
<stop offset="0.1739" stop-color="#FFBD00" style="stop-color:#FFBD00;stop-color:color(display-p3 1.0000 0.7412 0.0000);stop-opacity:1;"/>
<stop offset="0.2528" stop-color="#FFAB00" style="stop-color:#FFAB00;stop-color:color(display-p3 1.0000 0.6706 0.0000);stop-opacity:1;"/>
<stop offset="0.3295" stop-color="#FF9100" style="stop-color:#FF9100;stop-color:color(display-p3 1.0000 0.5686 0.0000);stop-opacity:1;"/>
<stop offset="0.4046" stop-color="#FF7000" style="stop-color:#FF7000;stop-color:color(display-p3 1.0000 0.4392 0.0000);stop-opacity:1;"/>
<stop offset="0.4786" stop-color="#FF4700" style="stop-color:#FF4700;stop-color:color(display-p3 1.0000 0.2784 0.0000);stop-opacity:1;"/>
<stop offset="0.5503" stop-color="#FF1800" style="stop-color:#FF1800;stop-color:color(display-p3 1.0000 0.0941 0.0000);stop-opacity:1;"/>
<stop offset="0.5822" stop-color="#FF0000" style="stop-color:#FF0000;stop-color:color(display-p3 1.0000 0.0000 0.0000);stop-opacity:1;"/>
<stop offset="1" stop-color="#FF0000" style="stop-color:#FF0000;stop-color:color(display-p3 1.0000 0.0000 0.0000);stop-opacity:1;"/>
</radialGradient>
<radialGradient id="paint1_radial_2740_2130" cx="0" cy="0" r="1" gradientUnits="userSpaceOnUse" gradientTransform="translate(12.2665 11.3387) scale(10.6381 16.6244)">
<stop stop-color="#00B4E6" style="stop-color:#00B4E6;stop-color:color(display-p3 0.0000 0.7059 0.9020);stop-opacity:1;"/>
<stop offset="0.201" stop-color="#00B0E3" style="stop-color:#00B0E3;stop-color:color(display-p3 0.0000 0.6902 0.8902);stop-opacity:1;"/>
<stop offset="0.3898" stop-color="#01A5DB" style="stop-color:#01A5DB;stop-color:color(display-p3 0.0039 0.6471 0.8588);stop-opacity:1;"/>
<stop offset="0.5737" stop-color="#0292CD" style="stop-color:#0292CD;stop-color:color(display-p3 0.0078 0.5725 0.8039);stop-opacity:1;"/>
<stop offset="0.7546" stop-color="#0377BA" style="stop-color:#0377BA;stop-color:color(display-p3 0.0118 0.4667 0.7294);stop-opacity:1;"/>
<stop offset="0.9316" stop-color="#0455A1" style="stop-color:#0455A1;stop-color:color(display-p3 0.0157 0.3333 0.6314);stop-opacity:1;"/>
<stop offset="1" stop-color="#054696" style="stop-color:#054696;stop-color:color(display-p3 0.0196 0.2745 0.5882);stop-opacity:1;"/>
</radialGradient>
</defs>
</svg>
