<svg width="40" height="40" viewBox="0 0 40 40" fill="none" xmlns="http://www.w3.org/2000/svg">
<rect width="40" height="40" rx="10" fill="black" style="fill:black;fill-opacity:1;"/>
<g clip-path="url(#clip0_2572_565)">
<g clip-path="url(#clip1_2572_565)">
<path d="M35.625 28.0471C35.5963 28.5493 35.3284 29.0082 34.9076 29.2809L21.0319 37.3287C20.6348 37.5571 19.9892 37.5571 19.5931 37.3287L5.71739 29.2809C5.32021 29.0525 5 28.505 5 28.0471V11.9536C5.02771 11.4505 5.2925 10.9926 5.71739 10.7188L19.5931 2.6721C19.9892 2.44263 20.6348 2.44263 21.0319 2.6721L34.9076 10.7188C35.3038 10.9442 35.625 11.4947 35.625 11.9536V28.0471Z" fill="white" style="fill:white;fill-opacity:1;"/>
<path d="M27.551 20.0364L23.922 25.3707L22.0705 22.5245L24.2073 19.3171C24.6045 18.7461 25.4543 17.1707 24.4721 15.0283C23.6777 13.28 21.9535 12.4476 20.4428 12.4476C18.9311 12.4476 17.288 13.2234 16.3971 15.0283C15.3954 17.0986 16.2647 18.71 16.6424 19.2606L18.8192 22.4885L20.4264 24.8233L22.8444 28.5421C22.8639 28.5616 23.2405 29.1482 23.922 29.1482C24.5634 29.1482 24.9606 28.5616 25.0212 28.5051L30.6895 20.0765H27.551V20.0364ZM20.4264 20.1692L18.8551 17.7212C18.1932 16.6397 18.9311 15.0283 20.4264 15.0283C21.9176 15.0283 22.6555 16.6397 21.9946 17.7212L20.4264 20.1692Z" fill="url(#paint0_radial_2572_565)" style=""/>
<path d="M16.9472 25.2009L13.3911 20.1887L11.8229 17.7407C11.1619 16.6602 11.8998 15.0437 13.3911 15.0437C13.5789 15.0437 13.7513 15.0643 13.9196 15.1209L15.1707 12.8252C14.6011 12.5762 13.9802 12.4434 13.4106 12.4434C11.8998 12.4434 10.2516 13.2234 9.36588 15.0283C8.36318 17.0945 9.23348 18.71 9.61014 19.2605L15.8326 28.505C15.8881 28.5781 16.2852 29.1687 16.9472 29.1687C17.6081 29.1687 17.9848 28.5976 18.0454 28.5215L19.9132 25.6557L18.3101 23.2839L16.9472 25.2009Z" fill="url(#paint1_radial_2572_565)" style=""/>
</g>
</g>
<defs>
<radialGradient id="paint0_radial_2572_565" cx="0" cy="0" r="1" gradientUnits="userSpaceOnUse" gradientTransform="translate(19.2451 13.9093) scale(16.7201 18.9231)">
<stop stop-color="#FFCC00" style="stop-color:#FFCC00;stop-color:color(display-p3 1.0000 0.8000 0.0000);stop-opacity:1;"/>
<stop offset="0.09157" stop-color="#FFC800" style="stop-color:#FFC800;stop-color:color(display-p3 1.0000 0.7843 0.0000);stop-opacity:1;"/>
<stop offset="0.1739" stop-color="#FFBD00" style="stop-color:#FFBD00;stop-color:color(display-p3 1.0000 0.7412 0.0000);stop-opacity:1;"/>
<stop offset="0.2528" stop-color="#FFAB00" style="stop-color:#FFAB00;stop-color:color(display-p3 1.0000 0.6706 0.0000);stop-opacity:1;"/>
<stop offset="0.3295" stop-color="#FF9100" style="stop-color:#FF9100;stop-color:color(display-p3 1.0000 0.5686 0.0000);stop-opacity:1;"/>
<stop offset="0.4046" stop-color="#FF7000" style="stop-color:#FF7000;stop-color:color(display-p3 1.0000 0.4392 0.0000);stop-opacity:1;"/>
<stop offset="0.4786" stop-color="#FF4700" style="stop-color:#FF4700;stop-color:color(display-p3 1.0000 0.2784 0.0000);stop-opacity:1;"/>
<stop offset="0.5503" stop-color="#FF1800" style="stop-color:#FF1800;stop-color:color(display-p3 1.0000 0.0941 0.0000);stop-opacity:1;"/>
<stop offset="0.5822" stop-color="#FF0000" style="stop-color:#FF0000;stop-color:color(display-p3 1.0000 0.0000 0.0000);stop-opacity:1;"/>
<stop offset="1" stop-color="#FF0000" style="stop-color:#FF0000;stop-color:color(display-p3 1.0000 0.0000 0.0000);stop-opacity:1;"/>
</radialGradient>
<radialGradient id="paint1_radial_2572_565" cx="0" cy="0" r="1" gradientUnits="userSpaceOnUse" gradientTransform="translate(9.16722 14.8742) scale(15.3313 23.2742)">
<stop stop-color="#00B4E6" style="stop-color:#00B4E6;stop-color:color(display-p3 0.0000 0.7059 0.9020);stop-opacity:1;"/>
<stop offset="0.201" stop-color="#00B0E3" style="stop-color:#00B0E3;stop-color:color(display-p3 0.0000 0.6902 0.8902);stop-opacity:1;"/>
<stop offset="0.3898" stop-color="#01A5DB" style="stop-color:#01A5DB;stop-color:color(display-p3 0.0039 0.6471 0.8588);stop-opacity:1;"/>
<stop offset="0.5737" stop-color="#0292CD" style="stop-color:#0292CD;stop-color:color(display-p3 0.0078 0.5725 0.8039);stop-opacity:1;"/>
<stop offset="0.7546" stop-color="#0377BA" style="stop-color:#0377BA;stop-color:color(display-p3 0.0118 0.4667 0.7294);stop-opacity:1;"/>
<stop offset="0.9316" stop-color="#0455A1" style="stop-color:#0455A1;stop-color:color(display-p3 0.0157 0.3333 0.6314);stop-opacity:1;"/>
<stop offset="1" stop-color="#054696" style="stop-color:#054696;stop-color:color(display-p3 0.0196 0.2745 0.5882);stop-opacity:1;"/>
</radialGradient>
<clipPath id="clip0_2572_565">
<rect width="30.625" height="35" fill="white" style="fill:white;fill-opacity:1;" transform="translate(5 2.5)"/>
</clipPath>
<clipPath id="clip1_2572_565">
<rect width="30.625" height="35" fill="white" style="fill:white;fill-opacity:1;" transform="translate(5 2.5)"/>
</clipPath>
</defs>
</svg>
