<svg width="24" height="24" viewBox="0 0 24 24" fill="none" xmlns="http://www.w3.org/2000/svg">
<rect width="24" height="24" rx="5.25" fill="#FF5B24" style="fill:#FF5B24;fill:color(display-p3 1.0000 0.3569 0.1412);fill-opacity:1;"/>
<path d="M12.3602 15.2727C14.6057 15.2727 15.8802 14.1818 17.0941 12.606C17.7616 11.7576 18.6112 11.5757 19.2182 12.0606C19.8251 12.5455 19.8858 13.4545 19.2182 14.303C17.4582 16.606 15.2126 18 12.3602 18C9.26499 18 6.53393 16.303 4.65253 13.3333C4.10632 12.5455 4.2277 11.697 4.8346 11.2727C5.4415 10.8484 6.35186 11.0303 6.89807 11.8787C8.23327 13.8787 10.054 15.2727 12.3602 15.2727ZM16.5478 7.8182C16.5478 8.90906 15.6981 9.63633 14.7271 9.63633C13.7561 9.63633 12.9064 8.90906 12.9064 7.8182C12.9064 6.72727 13.7561 6 14.7271 6C15.6981 6 16.5478 6.78789 16.5478 7.8182Z" fill="white" style="fill:white;fill-opacity:1;"/>
</svg>
