<svg width="40" height="30" viewBox="0 0 40 30" fill="none" xmlns="http://www.w3.org/2000/svg">
<rect width="40" height="30" rx="5" fill="#FF5B24" style="fill:#FF5B24;fill:color(display-p3 1.0000 0.3569 0.1412);fill-opacity:1;"/>
<path d="M20.7706 19.7727C24.0452 19.7727 25.9039 18.1818 27.6741 15.8838C28.6476 14.6465 29.8866 14.3812 30.7718 15.0884C31.6568 15.7955 31.7453 17.1212 30.7718 18.3586C28.2051 21.7171 24.9303 23.75 20.7706 23.75C16.2567 23.75 12.2739 21.2753 9.53018 16.9444C8.73362 15.7955 8.91063 14.5581 9.79569 13.9394C10.6808 13.3206 12.0084 13.5859 12.8049 14.8232C14.7521 17.7398 17.4073 19.7727 20.7706 19.7727ZM26.8774 8.90155C26.8774 10.4924 25.6383 11.553 24.2223 11.553C22.8062 11.553 21.5671 10.4924 21.5671 8.90155C21.5671 7.3106 22.8062 6.25 24.2223 6.25C25.6383 6.25 26.8774 7.39901 26.8774 8.90155Z" fill="white" style="fill:white;fill-opacity:1;"/>
</svg>
