<svg width="56" height="42" viewBox="0 0 56 42" fill="none" xmlns="http://www.w3.org/2000/svg">
<rect width="56" height="42" rx="7" fill="#FF5B24" style="fill:#FF5B24;fill:color(display-p3 1.0000 0.3569 0.1412);fill-opacity:1;"/>
<path d="M29.0791 27.6818C33.6636 27.6818 36.2658 25.4545 38.744 22.2373C40.107 20.5051 41.8416 20.1337 43.0808 21.1238C44.3198 22.1137 44.4437 23.9697 43.0808 25.7021C39.4874 30.404 34.9028 33.25 29.0791 33.25C22.7596 33.25 17.1837 29.7854 13.3425 23.7221C12.2274 22.1137 12.4752 20.3813 13.7143 19.5152C14.9534 18.6489 16.812 19.0202 17.9272 20.7524C20.6532 24.8358 24.3705 27.6818 29.0791 27.6818ZM37.6287 12.4622C37.6287 14.6893 35.8939 16.1742 33.9115 16.1742C31.929 16.1742 30.1942 14.6893 30.1942 12.4622C30.1942 10.2348 31.929 8.75 33.9115 8.75C35.8939 8.75 37.6287 10.3586 37.6287 12.4622Z" fill="white" style="fill:white;fill-opacity:1;"/>
</svg>
