<svg width="16" height="16" viewBox="0 0 16 16" fill="none" xmlns="http://www.w3.org/2000/svg">
<rect width="16" height="16" rx="3.5" fill="#FF5B24" style="fill:#FF5B24;fill:color(display-p3 1.0000 0.3569 0.1412);fill-opacity:1;"/>
<path d="M8.24015 10.1818C9.73713 10.1818 10.5868 9.45453 11.396 8.40401C11.8411 7.83839 12.4075 7.71714 12.8121 8.04042C13.2167 8.36365 13.2572 8.96969 12.8121 9.53537C11.6388 11.0707 10.1418 12 8.24015 12C6.17666 12 4.35595 10.8687 3.10168 8.88885C2.73754 8.36365 2.81847 7.79797 3.22307 7.51516C3.62767 7.23229 4.23457 7.35354 4.59871 7.91917C5.48885 9.2525 6.70265 10.1818 8.24015 10.1818ZM11.0319 5.21214C11.0319 5.93938 10.4654 6.42422 9.81806 6.42422C9.17072 6.42422 8.60426 5.93938 8.60426 5.21214C8.60426 4.48484 9.17072 4 9.81806 4C10.4654 4 11.0319 4.52526 11.0319 5.21214Z" fill="white" style="fill:white;fill-opacity:1;"/>
</svg>
