<svg width="56" height="42" viewBox="0 0 56 42" fill="none" xmlns="http://www.w3.org/2000/svg">
<rect width="56" height="42" rx="7" fill="#1B16E6" style="fill:#1B16E6;fill:color(display-p3 0.1059 0.0863 0.9020);fill-opacity:1;"/>
<path d="M28.7214 18.4757C28.6974 20.4259 30.405 21.5142 31.6916 22.1612C33.0132 22.8252 33.4572 23.2509 33.4521 23.8445C33.442 24.7532 32.3979 25.1542 31.4204 25.1698C29.7152 25.1971 28.7239 24.6946 27.9357 24.3145L27.3215 27.2814C28.1123 27.6576 29.5765 27.9857 31.0949 28C34.6591 28 36.991 26.1839 37.0036 23.3681C37.0174 19.7945 32.2149 19.5966 32.2476 17.9993C32.259 17.515 32.7068 16.9981 33.688 16.8667C34.1735 16.8003 35.514 16.7495 37.034 17.472L37.6304 14.6014C36.8132 14.2942 35.7625 14 34.4547 14C31.1001 14 28.7403 15.8408 28.7214 18.4757ZM43.3624 14.2474C42.7117 14.2474 42.1631 14.6392 41.9183 15.2407L36.827 27.7891H40.3886L41.0975 25.7673H45.4498L45.861 27.7891H49L46.2607 14.2474H43.3624ZM43.8606 17.9055L44.8884 22.9905H42.0735L43.8606 17.9055ZM24.4031 14.2474L21.5957 27.7891H24.9896L27.7957 14.2474H24.4031ZM19.3823 14.2474L15.8497 23.4644L14.4208 15.6273C14.2531 14.7525 13.5909 14.2474 12.8557 14.2474H7.08072L7 14.6405C8.18552 14.9061 9.53246 15.3344 10.3484 15.7926C10.8479 16.0725 10.9904 16.3173 11.1543 16.9825L13.8608 27.7891H17.4477L22.9464 14.2474H19.3823Z" fill="white" style="fill:white;fill-opacity:1;"/>
</svg>
