<svg width="32" height="24" viewBox="0 0 32 24" fill="none" xmlns="http://www.w3.org/2000/svg">
<rect width="32" height="24" rx="4" fill="#FBB427" style="fill:#FBB427;fill:color(display-p3 0.9843 0.7059 0.1529);fill-opacity:1;"/>
<rect x="0.5" y="0.5" width="31" height="23" rx="3.5" stroke="black" stroke-opacity="0.1" style="stroke:black;stroke-opacity:0.1;"/>
<g filter="url(#filter0_d_2740_2248)">
<path d="M4.35157 11.7286H12.6484C12.8426 11.7286 13 11.5654 13 11.364V10.5754C13 10.3739 12.8426 10.2106 12.6484 10.2106H4.35157C4.1574 10.2106 4 10.3739 4 10.5754V11.364C4 11.5654 4.1574 11.7286 4.35157 11.7286Z" fill="white" style="fill:white;fill-opacity:1;"/>
<path d="M4.8272 17H12.1728C12.367 17 12.5244 16.8368 12.5244 16.6354V11.3077H4.47565V16.6354C4.47565 16.8368 4.63304 17 4.8272 17Z" fill="white" style="fill:white;fill-opacity:1;"/>
<path d="M12.5243 11.7286H4.47559V12.1841H12.5243V11.7286Z" fill="#FBB427" style="fill:#FBB427;fill:color(display-p3 0.9843 0.7059 0.1529);fill-opacity:1;"/>
<path d="M8.18683 17V10.2106H7.7478V17H8.18683Z" fill="#FBB427" style="fill:#FBB427;fill:color(display-p3 0.9843 0.7059 0.1529);fill-opacity:1;"/>
<path d="M9.31818 17V10.2106H8.87915V17H9.31818Z" fill="#FBB427" style="fill:#FBB427;fill:color(display-p3 0.9843 0.7059 0.1529);fill-opacity:1;"/>
<path d="M8.49994 10.2106C8.44383 10.2106 8.39044 10.1858 8.35369 10.1413C8.31693 10.0975 8.3003 10.0393 8.30842 9.9819C8.31268 9.95179 8.74525 7 11.0149 7C12.0147 7 12.3694 7.56026 12.3694 8.03985C12.3694 8.94123 11.1688 10.2106 8.49994 10.2106ZM11.0149 7.40133C9.42388 7.40133 8.88144 9.16116 8.73634 9.80531C10.8562 9.73708 11.9825 8.75542 11.9825 8.03985C11.9825 7.86166 11.9102 7.71477 11.7682 7.60441C11.5979 7.47156 11.3371 7.40133 11.0149 7.40133Z" fill="white" style="fill:white;fill-opacity:1;"/>
<path d="M8.50037 10.2106C5.83145 10.2106 4.63086 8.94123 4.63086 8.03985C4.63086 7.73724 4.76202 7.46835 4.99958 7.28334C5.23754 7.09793 5.57841 7 5.98544 7C8.25506 7 8.68762 9.95179 8.69188 9.9819C8.7 10.0397 8.68337 10.0975 8.64661 10.1413C8.60986 10.1858 8.55646 10.2106 8.50037 10.2106ZM5.98544 7.40133C5.38843 7.40133 5.01777 7.64574 5.01777 8.03985C5.01777 8.75583 6.14485 9.73748 8.2659 9.80571C8.12544 9.15756 7.59654 7.40133 5.98544 7.40133Z" fill="white" style="fill:white;fill-opacity:1;"/>
</g>
<path fill-rule="evenodd" clip-rule="evenodd" d="M16.5 2.5C16.7761 2.5 17 2.72386 17 3V5.25C17 5.52614 16.7761 5.75 16.5 5.75C16.2239 5.75 16 5.52614 16 5.25V3C16 2.72386 16.2239 2.5 16.5 2.5ZM16.5 9.25C16.7761 9.25 17 9.47386 17 9.75V14.25C17 14.5261 16.7761 14.75 16.5 14.75C16.2239 14.75 16 14.5261 16 14.25V9.75C16 9.47386 16.2239 9.25 16.5 9.25ZM16.5 18.25C16.7761 18.25 17 18.4739 17 18.75V21C17 21.2761 16.7761 21.5 16.5 21.5C16.2239 21.5 16 21.2761 16 21V18.75C16 18.4739 16.2239 18.25 16.5 18.25Z" fill="white" style="fill:white;fill-opacity:1;"/>
<g filter="url(#filter1_d_2740_2248)">
<path fill-rule="evenodd" clip-rule="evenodd" d="M28.0001 8.05471C28.0001 7.52253 27.6267 7.05743 27.1401 7.0983C27.0887 7.10261 27.0391 7.10842 26.9928 7.11604C25.5663 7.35077 25.4314 10.9687 25.4517 12.7412C25.458 13.2845 25.8691 13.7053 26.3675 13.7053H27.0535C27.5763 13.7053 28.0001 13.2432 28.0001 12.6733V8.05471ZM28.0001 14.2773C28.0001 13.9614 27.7652 13.7054 27.4755 13.7054C27.2026 13.7054 26.9754 13.9334 26.9526 14.2297L26.7954 16.2875C26.7661 16.6711 27.0437 17 27.3967 17C27.7299 17 28.0001 16.7055 28.0001 16.3422V14.2773Z" fill="white" style="fill:white;fill-opacity:1;"/>
<path fill-rule="evenodd" clip-rule="evenodd" d="M22.6978 7.58823C22.6978 7.26335 22.4562 7 22.1583 7C21.8603 7 21.6187 7.26335 21.6187 7.58823V9.64703C21.6187 9.80947 21.4979 9.94115 21.3489 9.94115C21.1999 9.94115 21.0791 9.80947 21.0791 9.64703V7.58826C21.0791 7.26337 20.8376 7 20.5396 7C20.2416 7 20 7.26337 20 7.58826V10.0507C20 10.1719 20.0191 10.2882 20.0543 10.3961C20.152 10.7965 20.3757 11.141 20.6763 11.376C21.1112 11.7162 21.5696 12.1887 21.5428 12.7716L21.3893 16.1188C21.3673 16.5982 21.7179 17 22.1583 17C22.5985 17 22.9491 16.5981 22.9271 16.1188L22.7736 12.7716C22.7469 12.1887 23.2053 11.7162 23.6402 11.376C23.9408 11.141 24.1645 10.7964 24.2622 10.3959C24.2973 10.288 24.3164 10.1718 24.3164 10.0507V9.94768V9.94117C24.3164 9.94116 24.3164 9.94118 24.3164 9.94117V7.58822C24.3164 7.26335 24.0748 7 23.7768 7C23.4789 7 23.2373 7.26335 23.2373 7.58822V9.64703C23.2373 9.80947 23.1165 9.94115 22.9675 9.94115C22.8185 9.94115 22.6978 9.80947 22.6978 9.64703V7.58823Z" fill="white" style="fill:white;fill-opacity:1;"/>
</g>
<defs>
<filter id="filter0_d_2740_2248" x="3" y="7" width="11" height="12" filterUnits="userSpaceOnUse" color-interpolation-filters="sRGB">
<feFlood flood-opacity="0" result="BackgroundImageFix"/>
<feColorMatrix in="SourceAlpha" type="matrix" values="0 0 0 0 0 0 0 0 0 0 0 0 0 0 0 0 0 0 127 0" result="hardAlpha"/>
<feOffset dy="1"/>
<feGaussianBlur stdDeviation="0.5"/>
<feColorMatrix type="matrix" values="0 0 0 0 0 0 0 0 0 0 0 0 0 0 0 0 0 0 0.07 0"/>
<feBlend mode="normal" in2="BackgroundImageFix" result="effect1_dropShadow_2740_2248"/>
<feBlend mode="normal" in="SourceGraphic" in2="effect1_dropShadow_2740_2248" result="shape"/>
</filter>
<filter id="filter1_d_2740_2248" x="19" y="7" width="10" height="12" filterUnits="userSpaceOnUse" color-interpolation-filters="sRGB">
<feFlood flood-opacity="0" result="BackgroundImageFix"/>
<feColorMatrix in="SourceAlpha" type="matrix" values="0 0 0 0 0 0 0 0 0 0 0 0 0 0 0 0 0 0 127 0" result="hardAlpha"/>
<feOffset dy="1"/>
<feGaussianBlur stdDeviation="0.5"/>
<feColorMatrix type="matrix" values="0 0 0 0 0 0 0 0 0 0 0 0 0 0 0 0 0 0 0.07 0"/>
<feBlend mode="normal" in2="BackgroundImageFix" result="effect1_dropShadow_2740_2248"/>
<feBlend mode="normal" in="SourceGraphic" in2="effect1_dropShadow_2740_2248" result="shape"/>
</filter>
</defs>
</svg>
