<svg width="40" height="40" viewBox="0 0 40 40" fill="none" xmlns="http://www.w3.org/2000/svg">
<rect width="40" height="40" rx="8.75" fill="#FDF59B" style="fill:#FDF59B;fill:color(display-p3 0.9922 0.9608 0.6078);fill-opacity:1;"/>
<g clip-path="url(#clip0_9303_151)">
<mask id="mask0_9303_151" style="mask-type:luminance" maskUnits="userSpaceOnUse" x="5" y="16" width="30" height="8">
<path d="M34.9848 16.25H5V23.1601H34.9848V16.25Z" fill="white" style="fill:white;fill-opacity:1;"/>
</mask>
<g mask="url(#mask0_9303_151)">
<path d="M27.8848 19.7084C27.8848 17.903 29.1852 16.2567 31.4303 16.2567C33.6754 16.2567 34.9848 17.903 34.9848 19.7084C34.9848 21.5138 33.6847 23.1601 31.4303 23.1601C29.1759 23.1601 27.8851 21.5138 27.8851 19.7084H27.8848ZM33.0111 19.7084C33.0111 18.8383 32.4309 18.034 31.4303 18.034C30.4295 18.034 29.8494 18.8386 29.8494 19.7084C29.8494 20.5782 30.439 21.3828 31.4303 21.3828C32.4217 21.3828 33.0111 20.5782 33.0111 19.7084Z" fill="#1D1C1C" style="fill:#1D1C1C;fill:color(display-p3 0.1137 0.1098 0.1098);fill-opacity:1;"/>
<path d="M26.5046 20.9898C27.2531 20.5688 27.7019 19.7645 27.7019 18.8757C27.7019 17.5568 26.7382 16.434 25.2416 16.434H22.0986V22.9823H24.0444V21.3079H24.4093L25.5222 22.9823H27.8141L26.5046 20.9898ZM24.849 19.8019H24.0444V17.9498H24.8583C25.3823 17.9498 25.719 18.3708 25.719 18.8761C25.719 19.3813 25.3728 19.8023 24.849 19.8023V19.8019Z" fill="#1D1C1C" style="fill:#1D1C1C;fill:color(display-p3 0.1137 0.1098 0.1098);fill-opacity:1;"/>
<path d="M13.2162 16.4274L12.0491 20.3302L10.9099 16.4274H9.36035L8.21189 20.3302L7.05406 16.4274H5L7.35267 22.9632H9.04263L10.135 19.4058L11.2183 22.9632H12.9172L15.2703 16.4274H13.2162Z" fill="#1D1C1C" style="fill:#1D1C1C;fill:color(display-p3 0.1137 0.1098 0.1098);fill-opacity:1;"/>
<path d="M18.2146 21.3664C18.2146 21.3664 18.2115 21.3664 18.21 21.3664C17.4821 21.3664 16.9718 20.9321 16.7527 20.3571H21.6975C21.7372 20.1407 21.7579 19.9193 21.7579 19.6951C21.7579 17.8944 20.4617 16.2523 18.2146 16.25V18.0242C18.9468 18.0262 19.452 18.4597 19.6687 19.0335H14.731C14.6917 19.2499 14.6714 19.4713 14.6714 19.6955C14.6714 21.4974 15.9692 23.141 18.21 23.141C18.2115 23.141 18.2131 23.141 18.2146 23.141V21.3668V21.3664Z" fill="#1D1C1C" style="fill:#1D1C1C;fill:color(display-p3 0.1137 0.1098 0.1098);fill-opacity:1;"/>
<path d="M18.2096 23.1406C18.2856 23.1406 18.3605 23.1383 18.4345 23.1348C18.8899 23.1118 19.3031 23.0202 19.6715 22.8724C20.0399 22.7247 20.3635 22.5216 20.6387 22.2759C20.9139 22.0303 21.1412 21.7426 21.3174 21.4257C21.4776 21.1376 21.5946 20.8257 21.6679 20.5002H19.6076C19.5655 20.5871 19.5164 20.6702 19.4602 20.7477C19.3834 20.8538 19.2934 20.9501 19.1912 21.0331C19.0891 21.1161 18.9745 21.1863 18.8482 21.2405C18.7219 21.2947 18.5842 21.3329 18.4353 21.352C18.3628 21.3614 18.288 21.3668 18.2104 21.3668C17.7469 21.3668 17.3715 21.1902 17.1036 20.9138L15.7642 22.2533C16.3602 22.7976 17.1871 23.1406 18.2108 23.1406H18.2096Z" fill="url(#paint0_linear_9303_151)" style=""/>
<path d="M18.2098 16.25C16.3094 16.25 15.0872 17.432 14.7598 18.8909H16.8142C17.0598 18.3883 17.5436 18.0242 18.2098 18.0242C18.7408 18.0242 19.1529 18.2511 19.4222 18.5942L20.7738 17.2426C20.1699 16.6379 19.3018 16.2504 18.2094 16.2504L18.2098 16.25Z" fill="url(#paint1_linear_9303_151)" style=""/>
</g>
</g>
<defs>
<linearGradient id="paint0_linear_9303_151" x1="20.6309" y1="19.2881" x2="17.599" y2="23.0439" gradientUnits="userSpaceOnUse">
<stop offset="0.02" stop-color="#1D1C1C" stop-opacity="0" style="stop-color:none;stop-opacity:0;"/>
<stop offset="0.39" stop-color="#1D1C1C" stop-opacity="0.66" style="stop-color:#1D1C1C;stop-color:color(display-p3 0.1137 0.1098 0.1098);stop-opacity:0.66;"/>
<stop offset="0.68" stop-color="#1D1C1C" style="stop-color:#1D1C1C;stop-color:color(display-p3 0.1137 0.1098 0.1098);stop-opacity:1;"/>
</linearGradient>
<linearGradient id="paint1_linear_9303_151" x1="15.3266" y1="20.1294" x2="18.4419" y2="17.0142" gradientUnits="userSpaceOnUse">
<stop offset="0.02" stop-color="#1D1C1C" stop-opacity="0" style="stop-color:none;stop-opacity:0;"/>
<stop offset="0.39" stop-color="#1D1C1C" stop-opacity="0.66" style="stop-color:#1D1C1C;stop-color:color(display-p3 0.1137 0.1098 0.1098);stop-opacity:0.66;"/>
<stop offset="0.68" stop-color="#1D1C1C" style="stop-color:#1D1C1C;stop-color:color(display-p3 0.1137 0.1098 0.1098);stop-opacity:1;"/>
</linearGradient>
<clipPath id="clip0_9303_151">
<rect width="30" height="6.91011" fill="white" style="fill:white;fill-opacity:1;" transform="translate(5 16.25)"/>
</clipPath>
</defs>
</svg>
