<svg width="32" height="32" viewBox="0 0 32 32" fill="none" xmlns="http://www.w3.org/2000/svg">
<rect width="32" height="32" rx="7" fill="#FDF59B" style="fill:#FDF59B;fill:color(display-p3 0.9922 0.9608 0.6078);fill-opacity:1;"/>
<g clip-path="url(#clip0_9303_139)">
<mask id="mask0_9303_139" style="mask-type:luminance" maskUnits="userSpaceOnUse" x="4" y="13" width="24" height="6">
<path d="M27.9879 13H4V18.5281H27.9879V13Z" fill="white" style="fill:white;fill-opacity:1;"/>
</mask>
<g mask="url(#mask0_9303_139)">
<path d="M22.3076 15.7667C22.3076 14.3224 23.348 13.0053 25.1441 13.0053C26.9402 13.0053 27.9877 14.3224 27.9877 15.7667C27.9877 17.211 26.9476 18.5281 25.1441 18.5281C23.3406 18.5281 22.3079 17.211 22.3079 15.7667H22.3076ZM26.4087 15.7667C26.4087 15.0706 25.9446 14.4272 25.1441 14.4272C24.3434 14.4272 23.8793 15.0709 23.8793 15.7667C23.8793 16.4625 24.351 17.1062 25.1441 17.1062C25.9371 17.1062 26.4087 16.4625 26.4087 15.7667Z" fill="#1D1C1C" style="fill:#1D1C1C;fill:color(display-p3 0.1137 0.1098 0.1098);fill-opacity:1;"/>
<path d="M21.2035 16.7919C21.8023 16.455 22.1613 15.8116 22.1613 15.1005C22.1613 14.0454 21.3904 13.1472 20.193 13.1472H17.6787V18.3859H19.2353V17.0464H19.5273L20.4175 18.3859H22.2511L21.2035 16.7919ZM19.879 15.8416H19.2353V14.3598H19.8864C20.3056 14.3598 20.575 14.6966 20.575 15.1008C20.575 15.505 20.2981 15.8419 19.879 15.8419V15.8416Z" fill="#1D1C1C" style="fill:#1D1C1C;fill:color(display-p3 0.1137 0.1098 0.1098);fill-opacity:1;"/>
<path d="M10.573 13.1419L9.63925 16.2641L8.72796 13.1419H7.48828L6.56951 16.2641L5.64324 13.1419H4L5.88214 18.3706H7.23411L8.10796 15.5247L8.97465 18.3706H10.3338L12.2162 13.1419H10.573Z" fill="#1D1C1C" style="fill:#1D1C1C;fill:color(display-p3 0.1137 0.1098 0.1098);fill-opacity:1;"/>
<path d="M14.5719 17.0931C14.5719 17.0931 14.5694 17.0931 14.5682 17.0931C13.9859 17.0931 13.5777 16.7457 13.4024 16.2857H17.3582C17.39 16.1126 17.4065 15.9354 17.4065 15.7561C17.4065 14.3155 16.3695 13.0019 14.5719 13V14.4194C15.1576 14.4209 15.5618 14.7677 15.7352 15.2268H11.785C11.7535 15.3999 11.7373 15.5771 11.7373 15.7564C11.7373 17.1979 12.7755 18.5128 14.5682 18.5128C14.5694 18.5128 14.5707 18.5128 14.5719 18.5128V17.0934V17.0931Z" fill="#1D1C1C" style="fill:#1D1C1C;fill:color(display-p3 0.1137 0.1098 0.1098);fill-opacity:1;"/>
<path d="M14.5677 18.5125C14.6285 18.5125 14.6884 18.5106 14.7476 18.5078C15.1119 18.4894 15.4425 18.4161 15.7372 18.2979C16.0319 18.1797 16.2908 18.0172 16.511 17.8208C16.7311 17.6243 16.913 17.3941 17.0539 17.1405C17.1821 16.9101 17.2757 16.6606 17.3343 16.4001H15.6861C15.6524 16.4697 15.6131 16.5361 15.5682 16.5982C15.5067 16.683 15.4347 16.7601 15.353 16.8265C15.2713 16.8929 15.1796 16.949 15.0785 16.9924C14.9775 17.0358 14.8674 17.0663 14.7483 17.0816C14.6903 17.0891 14.6304 17.0934 14.5683 17.0934C14.1975 17.0934 13.8972 16.9522 13.6829 16.731L12.6113 17.8027C13.0882 18.2381 13.7497 18.5125 14.5686 18.5125H14.5677Z" fill="url(#paint0_linear_9303_139)" style=""/>
<path d="M14.5677 13C13.0473 13 12.0696 13.9456 11.8076 15.1127H13.4512C13.6477 14.7107 14.0347 14.4194 14.5677 14.4194C14.9924 14.4194 15.3221 14.6009 15.5376 14.8753L16.6188 13.794C16.1358 13.3103 15.4412 13.0003 14.5674 13.0003L14.5677 13Z" fill="url(#paint1_linear_9303_139)" style=""/>
</g>
</g>
<defs>
<linearGradient id="paint0_linear_9303_139" x1="16.5047" y1="15.4305" x2="14.0792" y2="18.4351" gradientUnits="userSpaceOnUse">
<stop offset="0.02" stop-color="#1D1C1C" stop-opacity="0" style="stop-color:none;stop-opacity:0;"/>
<stop offset="0.39" stop-color="#1D1C1C" stop-opacity="0.66" style="stop-color:#1D1C1C;stop-color:color(display-p3 0.1137 0.1098 0.1098);stop-opacity:0.66;"/>
<stop offset="0.68" stop-color="#1D1C1C" style="stop-color:#1D1C1C;stop-color:color(display-p3 0.1137 0.1098 0.1098);stop-opacity:1;"/>
</linearGradient>
<linearGradient id="paint1_linear_9303_139" x1="12.2611" y1="16.1035" x2="14.7533" y2="13.6114" gradientUnits="userSpaceOnUse">
<stop offset="0.02" stop-color="#1D1C1C" stop-opacity="0" style="stop-color:none;stop-opacity:0;"/>
<stop offset="0.39" stop-color="#1D1C1C" stop-opacity="0.66" style="stop-color:#1D1C1C;stop-color:color(display-p3 0.1137 0.1098 0.1098);stop-opacity:0.66;"/>
<stop offset="0.68" stop-color="#1D1C1C" style="stop-color:#1D1C1C;stop-color:color(display-p3 0.1137 0.1098 0.1098);stop-opacity:1;"/>
</linearGradient>
<clipPath id="clip0_9303_139">
<rect width="24" height="5.52809" fill="white" style="fill:white;fill-opacity:1;" transform="translate(4 13)"/>
</clipPath>
</defs>
</svg>
