<svg width="64" height="48" viewBox="0 0 64 48" fill="none" xmlns="http://www.w3.org/2000/svg">
<rect width="64" height="48" rx="8" fill="#FDF59B" style="fill:#FDF59B;fill:color(display-p3 0.9922 0.9608 0.6078);fill-opacity:1;"/>
<g clip-path="url(#clip0_9303_345)">
<mask id="mask0_9303_345" style="mask-type:luminance" maskUnits="userSpaceOnUse" x="8" y="18" width="48" height="12">
<path d="M55.9757 18H8V29.0562H55.9757V18Z" fill="white" style="fill:white;fill-opacity:1;"/>
</mask>
<g mask="url(#mask0_9303_345)">
<path d="M44.6157 23.5334C44.6157 20.6448 46.6964 18.0106 50.2886 18.0106C53.8808 18.0106 55.9758 20.6448 55.9758 23.5334C55.9758 26.4221 53.8956 29.0562 50.2886 29.0562C46.6816 29.0562 44.6163 26.4221 44.6163 23.5334H44.6157ZM52.8178 23.5334C52.8178 22.1412 51.8896 20.8543 50.2886 20.8543C48.6874 20.8543 47.7592 22.1418 47.7592 23.5334C47.7592 24.925 48.7025 26.2125 50.2886 26.2125C51.8748 26.2125 52.8178 24.925 52.8178 23.5334Z" fill="#1D1C1C" style="fill:#1D1C1C;fill:color(display-p3 0.1137 0.1098 0.1098);fill-opacity:1;"/>
<path d="M42.407 25.5837C43.6045 24.91 44.3226 23.6232 44.3226 22.201C44.3226 20.0909 42.7807 18.2944 40.3861 18.2944H35.3574V28.7718H38.4707V26.0927H39.0545L40.8351 28.7718H44.5022L42.407 25.5837ZM39.7581 23.6831H38.4707V20.7196H39.7729C40.6113 20.7196 41.1501 21.3933 41.1501 22.2017C41.1501 23.0101 40.5962 23.6837 39.7581 23.6837V23.6831Z" fill="#1D1C1C" style="fill:#1D1C1C;fill:color(display-p3 0.1137 0.1098 0.1098);fill-opacity:1;"/>
<path d="M21.146 18.2838L19.2785 24.5283L17.4559 18.2838H14.9766L13.139 24.5283L11.2865 18.2838H8L11.7643 28.7412H14.4682L16.2159 23.0494L17.9493 28.7412H20.6676L24.4325 18.2838H21.146Z" fill="#1D1C1C" style="fill:#1D1C1C;fill:color(display-p3 0.1137 0.1098 0.1098);fill-opacity:1;"/>
<path d="M29.1433 26.1863C29.1433 26.1863 29.1383 26.1863 29.1358 26.1863C27.9713 26.1863 27.1548 25.4914 26.8043 24.5713H34.7158C34.7794 24.2251 34.8125 23.8709 34.8125 23.5122C34.8125 20.631 32.7386 18.0037 29.1433 18V20.8387C30.3147 20.8419 31.1231 21.5355 31.4699 22.4537H23.5696C23.5066 22.7998 23.4741 23.1541 23.4741 23.5128C23.4741 26.3958 25.5506 29.0256 29.1358 29.0256C29.1383 29.0256 29.1408 29.0256 29.1433 29.0256V26.1869V26.1863Z" fill="#1D1C1C" style="fill:#1D1C1C;fill:color(display-p3 0.1137 0.1098 0.1098);fill-opacity:1;"/>
<path d="M29.1354 29.025C29.257 29.025 29.3768 29.0213 29.4953 29.0157C30.2238 28.9789 30.885 28.8323 31.4744 28.5959C32.0638 28.3595 32.5816 28.0345 33.0219 27.6415C33.4623 27.2485 33.8259 26.7882 34.1079 26.2811C34.3642 25.8201 34.5513 25.3211 34.6686 24.8003H31.3721C31.3048 24.9394 31.2262 25.0722 31.1363 25.1964C31.0135 25.366 30.8694 25.5201 30.706 25.653C30.5425 25.7858 30.3592 25.8981 30.1571 25.9848C29.955 26.0715 29.7348 26.1326 29.4965 26.1632C29.3805 26.1782 29.2608 26.1869 29.1366 26.1869C28.395 26.1869 27.7944 25.9043 27.3658 25.4621L25.2227 27.6053C26.1763 28.4761 27.4993 29.025 29.1372 29.025H29.1354Z" fill="url(#paint0_linear_9303_345)" style=""/>
<path d="M29.1354 18C26.0946 18 24.1392 19.8912 23.6152 22.2254H26.9024C27.2953 21.4213 28.0694 20.8387 29.1354 20.8387C29.9849 20.8387 30.6442 21.2018 31.0752 21.7507L33.2377 19.5881C32.2715 18.6206 30.8825 18.0006 29.1347 18.0006L29.1354 18Z" fill="url(#paint1_linear_9303_345)" style=""/>
</g>
</g>
<defs>
<linearGradient id="paint0_linear_9303_345" x1="33.0094" y1="22.861" x2="28.1584" y2="28.8702" gradientUnits="userSpaceOnUse">
<stop offset="0.02" stop-color="#1D1C1C" stop-opacity="0" style="stop-color:none;stop-opacity:0;"/>
<stop offset="0.39" stop-color="#1D1C1C" stop-opacity="0.66" style="stop-color:#1D1C1C;stop-color:color(display-p3 0.1137 0.1098 0.1098);stop-opacity:0.66;"/>
<stop offset="0.68" stop-color="#1D1C1C" style="stop-color:#1D1C1C;stop-color:color(display-p3 0.1137 0.1098 0.1098);stop-opacity:1;"/>
</linearGradient>
<linearGradient id="paint1_linear_9303_345" x1="24.5222" y1="24.207" x2="29.5066" y2="19.2227" gradientUnits="userSpaceOnUse">
<stop offset="0.02" stop-color="#1D1C1C" stop-opacity="0" style="stop-color:none;stop-opacity:0;"/>
<stop offset="0.39" stop-color="#1D1C1C" stop-opacity="0.66" style="stop-color:#1D1C1C;stop-color:color(display-p3 0.1137 0.1098 0.1098);stop-opacity:0.66;"/>
<stop offset="0.68" stop-color="#1D1C1C" style="stop-color:#1D1C1C;stop-color:color(display-p3 0.1137 0.1098 0.1098);stop-opacity:1;"/>
</linearGradient>
<clipPath id="clip0_9303_345">
<rect width="48" height="11.0562" fill="white" style="fill:white;fill-opacity:1;" transform="translate(8 18)"/>
</clipPath>
</defs>
</svg>
