<svg width="24" height="24" viewBox="0 0 24 24" fill="none" xmlns="http://www.w3.org/2000/svg">
<rect width="24" height="24" rx="5.25" fill="#FDF59B" style="fill:#FDF59B;fill:color(display-p3 0.9922 0.9608 0.6078);fill-opacity:1;"/>
<g clip-path="url(#clip0_9303_127)">
<mask id="mask0_9303_127" style="mask-type:luminance" maskUnits="userSpaceOnUse" x="3" y="9" width="18" height="5">
<path d="M20.9909 9.75H3V13.8961H20.9909V9.75Z" fill="white" style="fill:white;fill-opacity:1;"/>
</mask>
<g mask="url(#mask0_9303_127)">
<path d="M16.731 11.825C16.731 10.7418 17.5112 9.75397 18.8583 9.75397C20.2054 9.75397 20.991 10.7418 20.991 11.825C20.991 12.9083 20.2109 13.8961 18.8583 13.8961C17.5057 13.8961 16.7312 12.9083 16.7312 11.825H16.731ZM19.8067 11.825C19.8067 11.3029 19.4587 10.8204 18.8583 10.8204C18.2578 10.8204 17.9098 11.3032 17.9098 11.825C17.9098 12.3469 18.2635 12.8297 18.8583 12.8297C19.4531 12.8297 19.8067 12.3469 19.8067 11.825Z" fill="#1D1C1C" style="fill:#1D1C1C;fill:color(display-p3 0.1137 0.1098 0.1098);fill-opacity:1;"/>
<path d="M15.9024 12.5939C16.3515 12.3413 16.6207 11.8587 16.6207 11.3254C16.6207 10.5341 16.0425 9.86041 15.1445 9.86041H13.2588V13.7894H14.4263V12.7848H14.6452L15.3129 13.7894H16.6881L15.9024 12.5939ZM14.909 11.8812H14.4263V10.7699H14.9146C15.229 10.7699 15.431 11.0225 15.431 11.3256C15.431 11.6288 15.2233 11.8814 14.909 11.8814V11.8812Z" fill="#1D1C1C" style="fill:#1D1C1C;fill:color(display-p3 0.1137 0.1098 0.1098);fill-opacity:1;"/>
<path d="M7.92974 9.85645L7.22943 12.1981L6.54597 9.85645H5.61621L4.92713 12.1981L4.23243 9.85645H3L4.4116 13.778H5.42558L6.08097 11.6435L6.73099 13.778H7.75034L9.16218 9.85645H7.92974Z" fill="#1D1C1C" style="fill:#1D1C1C;fill:color(display-p3 0.1137 0.1098 0.1098);fill-opacity:1;"/>
<path d="M10.9287 12.8198C10.9287 12.8198 10.9268 12.8198 10.9259 12.8198C10.4892 12.8198 10.183 12.5593 10.0516 12.2143H13.0184C13.0422 12.0844 13.0546 11.9516 13.0546 11.8171C13.0546 10.7366 12.2769 9.7514 10.9287 9.75V10.8145C11.368 10.8157 11.6711 11.0758 11.8011 11.4201H8.83852C8.8149 11.5499 8.80273 11.6828 8.80273 11.8173C8.80273 12.8984 9.58141 13.8846 10.9259 13.8846C10.9268 13.8846 10.9277 13.8846 10.9287 13.8846V12.8201V12.8198Z" fill="#1D1C1C" style="fill:#1D1C1C;fill:color(display-p3 0.1137 0.1098 0.1098);fill-opacity:1;"/>
<path d="M10.9258 13.8844C10.9714 13.8844 11.0163 13.883 11.0607 13.8809C11.3339 13.8671 11.5819 13.8121 11.8029 13.7235C12.0239 13.6348 12.2181 13.5129 12.3832 13.3656C12.5484 13.2182 12.6847 13.0456 12.7904 12.8554C12.8866 12.6825 12.9567 12.4954 13.0007 12.3001H11.7645C11.7393 12.3523 11.7098 12.4021 11.6761 12.4486C11.6301 12.5123 11.576 12.57 11.5147 12.6199C11.4535 12.6697 11.3847 12.7118 11.3089 12.7443C11.2331 12.7768 11.1505 12.7997 11.0612 12.8112C11.0177 12.8168 10.9728 12.8201 10.9262 12.8201C10.6481 12.8201 10.4229 12.7141 10.2622 12.5483L9.4585 13.352C9.81613 13.6785 10.3122 13.8844 10.9265 13.8844H10.9258Z" fill="url(#paint0_linear_9303_127)" style=""/>
<path d="M10.9255 9.75C9.78524 9.75 9.05195 10.4592 8.85547 11.3345H10.0881C10.2355 11.033 10.5258 10.8145 10.9255 10.8145C11.2441 10.8145 11.4913 10.9507 11.653 11.1565L12.4639 10.3455C12.1016 9.98274 11.5807 9.75023 10.9253 9.75023L10.9255 9.75Z" fill="url(#paint1_linear_9303_127)" style=""/>
</g>
</g>
<defs>
<linearGradient id="paint0_linear_9303_127" x1="12.3785" y1="11.5729" x2="10.5594" y2="13.8263" gradientUnits="userSpaceOnUse">
<stop offset="0.02" stop-color="#1D1C1C" stop-opacity="0" style="stop-color:none;stop-opacity:0;"/>
<stop offset="0.39" stop-color="#1D1C1C" stop-opacity="0.66" style="stop-color:#1D1C1C;stop-color:color(display-p3 0.1137 0.1098 0.1098);stop-opacity:0.66;"/>
<stop offset="0.68" stop-color="#1D1C1C" style="stop-color:#1D1C1C;stop-color:color(display-p3 0.1137 0.1098 0.1098);stop-opacity:1;"/>
</linearGradient>
<linearGradient id="paint1_linear_9303_127" x1="9.19557" y1="12.0776" x2="11.0647" y2="10.2085" gradientUnits="userSpaceOnUse">
<stop offset="0.02" stop-color="#1D1C1C" stop-opacity="0" style="stop-color:none;stop-opacity:0;"/>
<stop offset="0.39" stop-color="#1D1C1C" stop-opacity="0.66" style="stop-color:#1D1C1C;stop-color:color(display-p3 0.1137 0.1098 0.1098);stop-opacity:0.66;"/>
<stop offset="0.68" stop-color="#1D1C1C" style="stop-color:#1D1C1C;stop-color:color(display-p3 0.1137 0.1098 0.1098);stop-opacity:1;"/>
</linearGradient>
<clipPath id="clip0_9303_127">
<rect width="18" height="4.14607" fill="white" style="fill:white;fill-opacity:1;" transform="translate(3 9.75)"/>
</clipPath>
</defs>
</svg>
