<svg width="56" height="42" viewBox="0 0 56 42" fill="none" xmlns="http://www.w3.org/2000/svg">
<rect width="56" height="42" rx="7" fill="#FDF59B" style="fill:#FDF59B;fill:color(display-p3 0.9922 0.9608 0.6078);fill-opacity:1;"/>
<g clip-path="url(#clip0_9303_358)">
<mask id="mask0_9303_358" style="mask-type:luminance" maskUnits="userSpaceOnUse" x="7" y="15" width="42" height="11">
<path d="M48.9788 15.75H7V25.4242H48.9788V15.75Z" fill="white" style="fill:white;fill-opacity:1;"/>
</mask>
<g mask="url(#mask0_9303_358)">
<path d="M39.0386 20.5917C39.0386 18.0642 40.8592 15.7593 44.0024 15.7593C47.1455 15.7593 48.9787 18.0642 48.9787 20.5917C48.9787 23.1193 47.1585 25.4242 44.0024 25.4242C40.8462 25.4242 39.039 23.1193 39.039 20.5917H39.0386ZM46.2154 20.5917C46.2154 19.3735 45.4032 18.2475 44.0024 18.2475C42.6013 18.2475 41.7891 19.3741 41.7891 20.5917C41.7891 21.8094 42.6145 22.9359 44.0024 22.9359C45.3902 22.9359 46.2154 21.8094 46.2154 20.5917Z" fill="#1D1C1C" style="fill:#1D1C1C;fill:color(display-p3 0.1137 0.1098 0.1098);fill-opacity:1;"/>
<path d="M37.1058 22.3858C38.1537 21.7963 38.7821 20.6703 38.7821 19.4259C38.7821 17.5795 37.4329 16.0076 35.3376 16.0076H30.9375V25.1753H33.6616V22.8311H34.1724L35.7305 25.1753H38.9392L37.1058 22.3858ZM34.7881 20.7227H33.6616V18.1297H34.801C35.5346 18.1297 36.0061 18.7191 36.0061 19.4265C36.0061 20.1338 35.5214 20.7233 34.7881 20.7233V20.7227Z" fill="#1D1C1C" style="fill:#1D1C1C;fill:color(display-p3 0.1137 0.1098 0.1098);fill-opacity:1;"/>
<path d="M18.5027 15.9984L16.8687 21.4623L15.2739 15.9984H13.1045L11.4966 21.4623L9.87568 15.9984H7L10.2937 25.1486H12.6597L14.1889 20.1682L15.7056 25.1486H18.0841L21.3784 15.9984H18.5027Z" fill="#1D1C1C" style="fill:#1D1C1C;fill:color(display-p3 0.1137 0.1098 0.1098);fill-opacity:1;"/>
<path d="M25.5006 22.913C25.5006 22.913 25.4962 22.913 25.494 22.913C24.4751 22.913 23.7607 22.3049 23.4539 21.4999H30.3765C30.4322 21.197 30.4611 20.887 30.4611 20.5732C30.4611 18.0521 28.6464 15.7533 25.5006 15.75V18.2339C26.5256 18.2366 27.2329 18.8435 27.5363 19.647H20.6235C20.5684 19.9499 20.54 20.2599 20.54 20.5737C20.54 23.0964 22.3569 25.3974 25.494 25.3974C25.4962 25.3974 25.4984 25.3974 25.5006 25.3974V22.9135V22.913Z" fill="#1D1C1C" style="fill:#1D1C1C;fill:color(display-p3 0.1137 0.1098 0.1098);fill-opacity:1;"/>
<path d="M25.4935 25.3969C25.5999 25.3969 25.7047 25.3936 25.8084 25.3887C26.4458 25.3565 27.0244 25.2282 27.5401 25.0214C28.0559 24.8145 28.5089 24.5302 28.8942 24.1863C29.2795 23.8425 29.5977 23.4397 29.8444 22.996C30.0687 22.5926 30.2324 22.156 30.335 21.7003H27.4506C27.3917 21.822 27.3229 21.9382 27.2443 22.0468C27.1368 22.1953 27.0107 22.3301 26.8677 22.4463C26.7247 22.5626 26.5643 22.6608 26.3874 22.7367C26.2106 22.8126 26.0179 22.8661 25.8095 22.8928C25.7079 22.9059 25.6032 22.9135 25.4945 22.9135C24.8456 22.9135 24.3201 22.6663 23.9451 22.2793L22.0698 24.1547C22.9043 24.9166 24.0619 25.3969 25.4951 25.3969H25.4935Z" fill="url(#paint0_linear_9303_358)" style=""/>
<path d="M25.4932 15.75C22.8326 15.75 21.1215 17.4048 20.6631 19.4472H23.5393C23.8832 18.7437 24.5605 18.2339 25.4932 18.2339C26.2365 18.2339 26.8134 18.5515 27.1905 19.0319L29.0827 17.1396C28.2373 16.2931 27.0219 15.7505 25.4926 15.7505L25.4932 15.75Z" fill="url(#paint1_linear_9303_358)" style=""/>
</g>
</g>
<defs>
<linearGradient id="paint0_linear_9303_358" x1="28.8833" y1="20.0034" x2="24.6386" y2="25.2614" gradientUnits="userSpaceOnUse">
<stop offset="0.02" stop-color="#1D1C1C" stop-opacity="0" style="stop-color:none;stop-opacity:0;"/>
<stop offset="0.39" stop-color="#1D1C1C" stop-opacity="0.66" style="stop-color:#1D1C1C;stop-color:color(display-p3 0.1137 0.1098 0.1098);stop-opacity:0.66;"/>
<stop offset="0.68" stop-color="#1D1C1C" style="stop-color:#1D1C1C;stop-color:color(display-p3 0.1137 0.1098 0.1098);stop-opacity:1;"/>
</linearGradient>
<linearGradient id="paint1_linear_9303_358" x1="21.4567" y1="21.1812" x2="25.8181" y2="16.8199" gradientUnits="userSpaceOnUse">
<stop offset="0.02" stop-color="#1D1C1C" stop-opacity="0" style="stop-color:none;stop-opacity:0;"/>
<stop offset="0.39" stop-color="#1D1C1C" stop-opacity="0.66" style="stop-color:#1D1C1C;stop-color:color(display-p3 0.1137 0.1098 0.1098);stop-opacity:0.66;"/>
<stop offset="0.68" stop-color="#1D1C1C" style="stop-color:#1D1C1C;stop-color:color(display-p3 0.1137 0.1098 0.1098);stop-opacity:1;"/>
</linearGradient>
<clipPath id="clip0_9303_358">
<rect width="42" height="9.67416" fill="white" style="fill:white;fill-opacity:1;" transform="translate(7 15.75)"/>
</clipPath>
</defs>
</svg>
