<svg width="40" height="30" viewBox="0 0 40 30" fill="none" xmlns="http://www.w3.org/2000/svg">
<rect width="40" height="30" rx="5" fill="#FDF59B" style="fill:#FDF59B;fill:color(display-p3 0.9922 0.9608 0.6078);fill-opacity:1;"/>
<g clip-path="url(#clip0_9303_406)">
<mask id="mask0_9303_406" style="mask-type:luminance" maskUnits="userSpaceOnUse" x="5" y="11" width="30" height="8">
<path d="M34.9848 11.25H5V18.1601H34.9848V11.25Z" fill="white" style="fill:white;fill-opacity:1;"/>
</mask>
<g mask="url(#mask0_9303_406)">
<path d="M27.8848 14.7084C27.8848 12.903 29.1852 11.2567 31.4303 11.2567C33.6754 11.2567 34.9848 12.903 34.9848 14.7084C34.9848 16.5138 33.6847 18.1601 31.4303 18.1601C29.1759 18.1601 27.8851 16.5138 27.8851 14.7084H27.8848ZM33.0111 14.7084C33.0111 13.8383 32.4309 13.034 31.4303 13.034C30.4295 13.034 29.8494 13.8386 29.8494 14.7084C29.8494 15.5782 30.439 16.3828 31.4303 16.3828C32.4217 16.3828 33.0111 15.5782 33.0111 14.7084Z" fill="#1D1C1C" style="fill:#1D1C1C;fill:color(display-p3 0.1137 0.1098 0.1098);fill-opacity:1;"/>
<path d="M26.5046 15.9898C27.2531 15.5688 27.7019 14.7645 27.7019 13.8757C27.7019 12.5568 26.7382 11.434 25.2416 11.434H22.0986V17.9823H24.0444V16.3079H24.4093L25.5222 17.9823H27.8141L26.5046 15.9898ZM24.849 14.8019H24.0444V12.9498H24.8583C25.3823 12.9498 25.719 13.3708 25.719 13.8761C25.719 14.3813 25.3728 14.8023 24.849 14.8023V14.8019Z" fill="#1D1C1C" style="fill:#1D1C1C;fill:color(display-p3 0.1137 0.1098 0.1098);fill-opacity:1;"/>
<path d="M13.2162 11.4274L12.0491 15.3302L10.9099 11.4274H9.36035L8.21189 15.3302L7.05406 11.4274H5L7.35267 17.9632H9.04263L10.135 14.4058L11.2183 17.9632H12.9172L15.2703 11.4274H13.2162Z" fill="#1D1C1C" style="fill:#1D1C1C;fill:color(display-p3 0.1137 0.1098 0.1098);fill-opacity:1;"/>
<path d="M18.2151 16.3664C18.2151 16.3664 18.212 16.3664 18.2104 16.3664C17.4826 16.3664 16.9723 15.9321 16.7532 15.3571H21.6979C21.7377 15.1407 21.7584 14.9193 21.7584 14.6951C21.7584 12.8944 20.4622 11.2523 18.2151 11.25V13.0242C18.9472 13.0262 19.4525 13.4597 19.6692 14.0335H14.7315C14.6921 14.2499 14.6719 14.4713 14.6719 14.6955C14.6719 16.4974 15.9697 18.141 18.2104 18.141C18.212 18.141 18.2136 18.141 18.2151 18.141V16.3668V16.3664Z" fill="#1D1C1C" style="fill:#1D1C1C;fill:color(display-p3 0.1137 0.1098 0.1098);fill-opacity:1;"/>
<path d="M18.2096 18.1406C18.2856 18.1406 18.3605 18.1383 18.4345 18.1348C18.8899 18.1118 19.3031 18.0202 19.6715 17.8724C20.0399 17.7247 20.3635 17.5216 20.6387 17.2759C20.9139 17.0303 21.1412 16.7426 21.3174 16.4257C21.4776 16.1376 21.5946 15.8257 21.6679 15.5002H19.6076C19.5655 15.5871 19.5164 15.6702 19.4602 15.7477C19.3834 15.8538 19.2934 15.9501 19.1912 16.0331C19.0891 16.1161 18.9745 16.1863 18.8482 16.2405C18.7219 16.2947 18.5842 16.3329 18.4353 16.352C18.3628 16.3614 18.288 16.3668 18.2104 16.3668C17.7469 16.3668 17.3715 16.1902 17.1036 15.9138L15.7642 17.2533C16.3602 17.7976 17.1871 18.1406 18.2108 18.1406H18.2096Z" fill="url(#paint0_linear_9303_406)" style=""/>
<path d="M18.2098 11.25C16.3094 11.25 15.0872 12.432 14.7598 13.8909H16.8142C17.0598 13.3883 17.5436 13.0242 18.2098 13.0242C18.7408 13.0242 19.1529 13.2511 19.4222 13.5942L20.7738 12.2426C20.1699 11.6379 19.3018 11.2504 18.2094 11.2504L18.2098 11.25Z" fill="url(#paint1_linear_9303_406)" style=""/>
</g>
</g>
<defs>
<linearGradient id="paint0_linear_9303_406" x1="20.6309" y1="14.2881" x2="17.599" y2="18.0439" gradientUnits="userSpaceOnUse">
<stop offset="0.02" stop-color="#1D1C1C" stop-opacity="0" style="stop-color:none;stop-opacity:0;"/>
<stop offset="0.39" stop-color="#1D1C1C" stop-opacity="0.66" style="stop-color:#1D1C1C;stop-color:color(display-p3 0.1137 0.1098 0.1098);stop-opacity:0.66;"/>
<stop offset="0.68" stop-color="#1D1C1C" style="stop-color:#1D1C1C;stop-color:color(display-p3 0.1137 0.1098 0.1098);stop-opacity:1;"/>
</linearGradient>
<linearGradient id="paint1_linear_9303_406" x1="15.3266" y1="15.1294" x2="18.4419" y2="12.0142" gradientUnits="userSpaceOnUse">
<stop offset="0.02" stop-color="#1D1C1C" stop-opacity="0" style="stop-color:none;stop-opacity:0;"/>
<stop offset="0.39" stop-color="#1D1C1C" stop-opacity="0.66" style="stop-color:#1D1C1C;stop-color:color(display-p3 0.1137 0.1098 0.1098);stop-opacity:0.66;"/>
<stop offset="0.68" stop-color="#1D1C1C" style="stop-color:#1D1C1C;stop-color:color(display-p3 0.1137 0.1098 0.1098);stop-opacity:1;"/>
</linearGradient>
<clipPath id="clip0_9303_406">
<rect width="30" height="6.91011" fill="white" style="fill:white;fill-opacity:1;" transform="translate(5 11.25)"/>
</clipPath>
</defs>
</svg>
