<svg width="16" height="16" viewBox="0 0 16 16" fill="none" xmlns="http://www.w3.org/2000/svg">
<rect x="0.5" y="0.5" width="15" height="15" rx="3.5" fill="white" style="fill:white;fill-opacity:1;"/>
<rect x="0.5" y="0.5" width="15" height="15" rx="3.5" stroke="black" style="stroke:black;stroke-opacity:1;"/>
<path fill-rule="evenodd" clip-rule="evenodd" d="M4.53506 6.089C4.66256 5.9305 4.74855 5.7175 4.72555 5.5C4.54006 5.509 4.31356 5.6225 4.18256 5.781C4.06456 5.917 3.96056 6.139 3.98756 6.3475C4.19606 6.3655 4.40406 6.243 4.53556 6.089H4.53506ZM4.72305 6.3885C4.42055 6.37 4.16306 6.56 4.01856 6.56C3.87406 6.56 3.65306 6.3975 3.41356 6.402C3.10206 6.4065 2.81306 6.582 2.65506 6.8625C2.33006 7.4225 2.56906 8.254 2.88506 8.7105C3.03906 8.9365 3.22406 9.185 3.46756 9.176C3.69756 9.167 3.78856 9.027 4.06856 9.027C4.34856 9.027 4.42956 9.176 4.67356 9.172C4.92606 9.167 5.08456 8.9455 5.23806 8.7195C5.41406 8.462 5.48606 8.2135 5.49056 8.2C5.48606 8.195 5.00306 8.01 4.99856 7.4545C4.99356 6.9895 5.37806 6.768 5.39606 6.7545C5.17906 6.4335 4.84055 6.3975 4.72305 6.3885ZM6.99506 7.5485H7.59856C8.05656 7.5485 8.31706 7.302 8.31706 6.8745C8.31706 6.447 8.05655 6.2025 7.60055 6.2025H6.99506V7.5485ZM7.73906 5.7585C8.39706 5.7585 8.85505 6.212 8.85505 6.872C8.85505 7.5345 8.38756 7.99 7.72305 7.99H6.99455V9.148H6.46855V5.7585H7.73906ZM10.5826 8.227V8.037L9.99755 8.0745C9.66855 8.0955 9.49755 8.2175 9.49755 8.4315C9.49755 8.638 9.67556 8.772 9.95506 8.772C10.3121 8.772 10.5826 8.544 10.5826 8.227ZM8.98505 8.4455C8.98505 8.011 9.31656 7.762 9.92706 7.7245L10.5821 7.6845V7.4965C10.5821 7.2215 10.4016 7.0715 10.0796 7.0715C9.81456 7.0715 9.62156 7.2075 9.58156 7.4165H9.10705C9.12155 6.9775 9.53456 6.658 10.0941 6.658C10.6951 6.658 11.0876 6.973 11.0876 7.4615V9.148H10.6011V8.7415H10.5896C10.4511 9.0065 10.1456 9.1735 9.81456 9.1735C9.32606 9.1735 8.98505 8.8825 8.98505 8.4455ZM11.5351 10.055V9.6485C11.5681 9.653 11.6481 9.6575 11.6901 9.6575C11.9226 9.6575 12.0541 9.559 12.1341 9.3055L12.1811 9.1555L11.2911 6.689H11.8406L12.4606 8.69H12.4726L13.0926 6.689H13.6276L12.7051 9.2795C12.4936 9.874 12.2516 10.069 11.7396 10.069C11.6996 10.069 11.5706 10.064 11.5351 10.0545V10.055Z" fill="#111111" style="fill:#111111;fill:color(display-p3 0.0667 0.0667 0.0667);fill-opacity:1;"/>
</svg>
