<svg width="48" height="36" viewBox="0 0 48 36" fill="none" xmlns="http://www.w3.org/2000/svg">
<rect x="0.75" y="0.75" width="46.5" height="34.5" rx="5.25" fill="white" style="fill:white;fill-opacity:1;"/>
<rect x="0.75" y="0.75" width="46.5" height="34.5" rx="5.25" stroke="#ECECF0" style="stroke:#ECECF0;stroke:color(display-p3 0.9255 0.9255 0.9412);stroke-opacity:1;" stroke-width="1.5"/>
<g clip-path="url(#clip0_2740_2174)">
<path d="M31.6064 21.3652L31.5054 21.9316C31.2421 21.8438 28.7271 21.26 28.6917 23.1215C28.6633 24.6122 30.9511 24.4272 31.4754 24.288L31.5341 24.9058C29.8145 25.3852 27.5293 24.8658 27.4817 23.1074C27.4272 21.0801 30.449 20.8269 31.6064 21.3652Z" fill="#231F20" style="fill:#231F20;fill:color(display-p3 0.1373 0.1216 0.1255);fill-opacity:1;"/>
<path d="M31.6064 21.3652L31.5054 21.9316C31.2421 21.8438 28.7271 21.26 28.6917 23.1215C28.6633 24.6123 30.9511 24.4272 31.4754 24.288L31.5341 24.9058C29.8145 25.3852 27.5293 24.8658 27.4817 23.1074C27.4272 21.0801 30.449 20.8269 31.6064 21.3652Z" stroke="#231F20" style="stroke:#231F20;stroke:color(display-p3 0.1373 0.1216 0.1255);stroke-opacity:1;" stroke-width="0.120454"/>
<path d="M33.3853 25.0071L33.3849 21.8146L31.8396 21.815V21.2053L35.9934 21.2044L35.9938 21.814L34.4779 21.8143L34.4782 25.0067L33.3853 25.0071Z" fill="#231F20" style="fill:#231F20;fill:color(display-p3 0.1373 0.1216 0.1255);fill-opacity:1;"/>
<path d="M33.3853 25.0071L33.3849 21.8146L31.8396 21.815V21.2053L35.9934 21.2044L35.9938 21.814L34.4779 21.8143L34.4782 25.0067L33.3853 25.0071Z" stroke="#231F20" style="stroke:#231F20;stroke:color(display-p3 0.1373 0.1216 0.1255);stroke-opacity:1;" stroke-width="0.120454"/>
<path d="M24.1184 21.1791L27.1818 21.1781L27.1821 21.8159L25.141 21.8162L25.1417 24.9798H24.119L24.1184 21.1791Z" fill="#231F20" style="fill:#231F20;fill:color(display-p3 0.1373 0.1216 0.1255);fill-opacity:1;"/>
<path d="M24.1184 21.1791L27.1818 21.178L27.1821 21.8159L25.141 21.8162L25.1417 24.9798H24.119L24.1184 21.1791Z" stroke="#231F20" style="stroke:#231F20;stroke:color(display-p3 0.1373 0.1216 0.1255);stroke-opacity:1;" stroke-width="0.120454"/>
<path d="M25.0454 22.7802L27.0623 22.7799V23.4175L25.0454 23.4178V22.7802Z" fill="#231F20" style="fill:#231F20;fill:color(display-p3 0.1373 0.1216 0.1255);fill-opacity:1;"/>
<path d="M25.0454 22.7802L27.0623 22.7799V23.4175L25.0454 23.4178V22.7802Z" stroke="#231F20" style="stroke:#231F20;stroke:color(display-p3 0.1373 0.1216 0.1255);stroke-opacity:1;" stroke-width="0.120454"/>
<path d="M25.0457 24.3423L27.1667 24.342V24.9791L25.0457 24.9798V24.3423Z" fill="#231F20" style="fill:#231F20;fill:color(display-p3 0.1373 0.1216 0.1255);fill-opacity:1;"/>
<path d="M25.0457 24.3423L27.1667 24.342V24.9791L25.0457 24.9798V24.3423Z" stroke="#231F20" style="stroke:#231F20;stroke:color(display-p3 0.1373 0.1216 0.1255);stroke-opacity:1;" stroke-width="0.120454"/>
<path d="M17.2658 24.9736L17.2651 21.1882L18.4097 21.1879L18.4104 24.9732L17.2658 24.9736Z" fill="#231F20" style="fill:#231F20;fill:color(display-p3 0.1373 0.1216 0.1255);fill-opacity:1;"/>
<path d="M17.2658 24.9736L17.2651 21.1882L18.4097 21.1879L18.4104 24.9732L17.2658 24.9736Z" stroke="#231F20" style="stroke:#231F20;stroke:color(display-p3 0.1373 0.1216 0.1255);stroke-opacity:1;" stroke-width="0.120454"/>
<path d="M12.007 25.0064L12.0063 21.2215L13.1509 21.2212L13.1516 25.0062L12.007 25.0064Z" fill="#231F20" style="fill:#231F20;fill:color(display-p3 0.1373 0.1216 0.1255);fill-opacity:1;"/>
<path d="M12.007 25.0064L12.0063 21.2215L13.1509 21.2212L13.1516 25.0062L12.007 25.0064Z" stroke="#231F20" style="stroke:#231F20;stroke:color(display-p3 0.1373 0.1216 0.1255);stroke-opacity:1;" stroke-width="0.120454"/>
<path d="M12.7673 25.0062L12.9995 24.3927L13.8558 24.3686C14.8484 24.3682 15.4486 23.8182 15.4483 23.0933C15.4483 22.2167 14.6479 21.8024 14.0315 21.8028L12.991 21.7472L12.847 21.2212L14.0553 21.2208C15.4456 21.2205 16.6487 21.9616 16.6491 23.1288C16.6493 24.3042 15.4463 25.0058 14.0559 25.0062H12.7673Z" fill="#231F20" style="fill:#231F20;fill:color(display-p3 0.1373 0.1216 0.1255);fill-opacity:1;"/>
<path d="M12.7673 25.0062L12.9995 24.3927L13.8558 24.3686C14.8484 24.3682 15.4486 23.8182 15.4483 23.0933C15.4483 22.2167 14.6479 21.8024 14.0315 21.8028L12.991 21.7472L12.847 21.2212L14.0553 21.2208C15.4456 21.2205 16.6487 21.9616 16.6491 23.1288C16.6493 24.3042 15.4463 25.0058 14.0559 25.0062H12.7673Z" stroke="#231F20" style="stroke:#231F20;stroke:color(display-p3 0.1373 0.1216 0.1255);stroke-opacity:1;" stroke-width="0.120454"/>
<path d="M12.008 29.7623L12.0073 25.9771L13.1519 25.9767L13.1526 29.762L12.008 29.7623Z" fill="#231F20" style="fill:#231F20;fill:color(display-p3 0.1373 0.1216 0.1255);fill-opacity:1;"/>
<path d="M12.008 29.7623L12.0073 25.977L13.1519 25.9767L13.1526 29.762L12.008 29.7623Z" stroke="#231F20" style="stroke:#231F20;stroke:color(display-p3 0.1373 0.1216 0.1255);stroke-opacity:1;" stroke-width="0.120454"/>
<path d="M12.7683 29.762L13.0002 29.1485L13.8567 29.1241C14.8493 29.1241 15.4492 28.5741 15.4492 27.8491C15.4489 26.9726 14.6485 26.5583 14.0321 26.5583L12.9916 26.5028L12.8475 25.9771L14.0562 25.9767C15.4466 25.9764 16.6496 26.7172 16.6499 27.8847C16.6499 29.0601 15.4473 29.7614 14.0569 29.7617L12.7683 29.762Z" fill="#231F20" style="fill:#231F20;fill:color(display-p3 0.1373 0.1216 0.1255);fill-opacity:1;"/>
<path d="M12.7683 29.762L13.0002 29.1485L13.8567 29.1241C14.8493 29.1241 15.4492 28.5741 15.4492 27.8491C15.4489 26.9726 14.6485 26.5583 14.0321 26.5583L12.9916 26.5028L12.8475 25.977L14.0562 25.9767C15.4466 25.9764 16.6496 26.7171 16.6499 27.8847C16.6499 29.0601 15.4473 29.7614 14.0569 29.7617L12.7683 29.762Z" stroke="#231F20" style="stroke:#231F20;stroke:color(display-p3 0.1373 0.1216 0.1255);stroke-opacity:1;" stroke-width="0.120454"/>
<path d="M23.5737 29.7771L23.573 25.6732H24.6777L24.6783 29.7768L23.5737 29.7771Z" fill="#231F20" style="fill:#231F20;fill:color(display-p3 0.1373 0.1216 0.1255);fill-opacity:1;"/>
<path d="M23.5737 29.7771L23.573 25.6732H24.6777L24.6783 29.7768L23.5737 29.7771Z" stroke="#231F20" style="stroke:#231F20;stroke:color(display-p3 0.1373 0.1216 0.1255);stroke-opacity:1;" stroke-width="0.120454"/>
<path d="M29.6809 29.8077L29.6802 26.995L30.7848 26.9947L30.7855 29.8074L29.6809 29.8077Z" fill="#231F20" style="fill:#231F20;fill:color(display-p3 0.1373 0.1216 0.1255);fill-opacity:1;"/>
<path d="M29.6809 29.8077L29.6802 26.995L30.7848 26.9947L30.7855 29.8074L29.6809 29.8077Z" stroke="#231F20" style="stroke:#231F20;stroke:color(display-p3 0.1373 0.1216 0.1255);stroke-opacity:1;" stroke-width="0.120454"/>
<path d="M29.6802 25.6801L30.7848 25.6797V26.4048L29.6802 26.4051V25.6801Z" fill="#231F20" style="fill:#231F20;fill:color(display-p3 0.1373 0.1216 0.1255);fill-opacity:1;"/>
<path d="M29.6802 25.6801L30.7848 25.6798V26.4048L29.6802 26.4051V25.6801Z" stroke="#231F20" style="stroke:#231F20;stroke:color(display-p3 0.1373 0.1216 0.1255);stroke-opacity:1;" stroke-width="0.120454"/>
<path d="M33.4105 29.066L33.4102 26.269L34.5385 26.2687L34.5392 28.938C34.5392 29.2968 35.1555 29.4082 35.5077 29.2886V29.91C34.7473 30.0855 33.4107 30.0619 33.4105 29.066Z" fill="#231F20" style="fill:#231F20;fill:color(display-p3 0.1373 0.1216 0.1255);fill-opacity:1;"/>
<path d="M33.4105 29.066L33.4102 26.269L34.5385 26.2687L34.5392 28.938C34.5392 29.2968 35.1555 29.4082 35.5077 29.2886V29.9099C34.7473 30.0855 33.4107 30.0619 33.4105 29.066Z" stroke="#231F20" style="stroke:#231F20;stroke:color(display-p3 0.1373 0.1216 0.1255);stroke-opacity:1;" stroke-width="0.120454"/>
<path d="M32.5298 27.5917V26.9943L35.4751 26.9937L35.4753 27.5913L32.5298 27.5917Z" fill="#231F20" style="fill:#231F20;fill:color(display-p3 0.1373 0.1216 0.1255);fill-opacity:1;"/>
<path d="M32.5298 27.5917V26.9943L35.4751 26.9937L35.4753 27.5913L32.5298 27.5917Z" stroke="#231F20" style="stroke:#231F20;stroke:color(display-p3 0.1373 0.1216 0.1255);stroke-opacity:1;" stroke-width="0.120454"/>
<path d="M29.9995 12.9229C29.9984 8.71053 27.4553 6.88709 24.5646 6.24563V6.02763C29.8227 6.29689 33.6756 9.47663 33.6763 13.1186C33.6773 17.277 29.1465 20.2467 23.5567 20.2479C17.9672 20.2489 13.46 17.0591 13.459 13.1232C13.4583 8.99359 17.3938 6.00828 24.1038 6.00659L24.1048 11.1366L22.5185 11.1057C19.1194 11.2261 15.1839 12.7017 15.1843 14.6833C15.1846 16.8628 18.9219 19.4819 23.4084 19.4809C27.0374 19.4802 30 16.8595 29.9995 12.9229Z" fill="#231F20" style="fill:#231F20;fill:color(display-p3 0.1373 0.1216 0.1255);fill-opacity:1;"/>
<path d="M29.9995 12.9229C29.9984 8.71049 27.4553 6.88705 24.5646 6.24559V6.0276C29.8227 6.29685 33.6756 9.4766 33.6763 13.1185C33.6773 17.277 29.1465 20.2466 23.5567 20.2479C17.9672 20.2489 13.46 17.0591 13.459 13.1231C13.4583 8.99355 17.3938 6.00824 24.1038 6.00655L24.1048 11.1366L22.5185 11.1057C19.1194 11.2261 15.1839 12.7016 15.1843 14.6832C15.1846 16.8628 18.9219 19.4819 23.4084 19.4809C27.0374 19.4802 30.0001 16.8595 29.9995 12.9229Z" stroke="#231F20" style="stroke:#231F20;stroke:color(display-p3 0.1373 0.1216 0.1255);stroke-opacity:1;" stroke-width="0.120454"/>
<path d="M24.0769 18.891C22.1508 18.7546 19.6737 17.4782 19.6733 15.2767C19.673 13.0972 21.7822 11.5164 24.0756 11.4289L24.0769 18.891Z" fill="#231F20" style="fill:#231F20;fill:color(display-p3 0.1373 0.1216 0.1255);fill-opacity:1;"/>
<path d="M24.0769 18.891C22.1508 18.7546 19.6737 17.4782 19.6733 15.2767C19.673 13.0972 21.7822 11.5164 24.0756 11.4289L24.0769 18.891Z" stroke="#231F20" style="stroke:#231F20;stroke:color(display-p3 0.1373 0.1216 0.1255);stroke-opacity:1;" stroke-width="0.120454"/>
<path d="M19.0431 28.0182L20.82 28.0132C20.7717 27.5865 20.4516 27.3474 19.9714 27.3474C19.4511 27.3478 19.059 27.547 19.0431 28.0182ZM19.0352 28.5429C19.0913 29.6348 21.3002 29.2438 21.5965 28.9328V29.5943C21.1562 29.8015 20.5894 29.8255 19.9598 29.8258C18.8125 29.8261 17.8827 29.2445 17.8823 28.2963C17.8823 27.4513 18.7386 26.7819 19.9591 26.7816C20.8996 26.7816 21.9404 27.2195 21.8684 28.5422L19.0352 28.5429Z" fill="#231F20" style="fill:#231F20;fill:color(display-p3 0.1373 0.1216 0.1255);fill-opacity:1;"/>
<path d="M19.0431 28.0182L20.82 28.0132C20.7717 27.5865 20.4516 27.3474 19.9714 27.3474C19.4511 27.3477 19.059 27.547 19.0431 28.0182ZM19.0352 28.5429C19.0913 29.6348 21.3002 29.2438 21.5965 28.9328V29.5943C21.1562 29.8015 20.5894 29.8254 19.9598 29.8258C18.8125 29.8261 17.8827 29.2445 17.8823 28.2963C17.8823 27.4513 18.7386 26.7819 19.9591 26.7815C20.8996 26.7815 21.9404 27.2195 21.8684 28.5422L19.0352 28.5429Z" stroke="#231F20" style="stroke:#231F20;stroke:color(display-p3 0.1373 0.1216 0.1255);stroke-opacity:1;" stroke-width="0.120454"/>
<path d="M20.5149 22.8214L21.2595 22.821C21.5555 22.821 21.9796 22.6296 21.9796 22.315C21.9796 21.9682 21.6288 21.8011 21.2754 21.8011H20.5149V22.8214ZM23.1242 22.1832C23.1245 23.0837 22.2729 23.1517 22.228 23.1554C22.3641 23.2432 22.4857 23.4171 22.4919 23.4263L23.3693 24.9798L22.1751 24.9802L21.5717 23.8488C21.5638 23.8294 21.4115 23.4585 20.946 23.4665L20.5232 23.4668L20.5235 24.9808H19.3889L19.3882 21.1801L21.4395 21.1794C22.0136 21.1794 23.1242 21.3228 23.1242 22.1832Z" fill="#231F20" style="fill:#231F20;fill:color(display-p3 0.1373 0.1216 0.1255);fill-opacity:1;"/>
<path d="M20.5149 22.8214L21.2595 22.8211C21.5555 22.8211 21.9796 22.6297 21.9796 22.315C21.9796 21.9682 21.6288 21.8011 21.2754 21.8011H20.5149V22.8214ZM23.1242 22.1832C23.1245 23.0837 22.2729 23.1518 22.228 23.1554C22.3641 23.2432 22.4857 23.4171 22.4919 23.4263L23.3693 24.9798L22.1751 24.9802L21.5717 23.8488C21.5638 23.8294 21.4115 23.4586 20.946 23.4665L20.5232 23.4668L20.5235 24.9808H19.3889L19.3882 21.1801L21.4395 21.1794C22.0136 21.1794 23.1242 21.3228 23.1242 22.1832Z" stroke="#231F20" style="stroke:#231F20;stroke:color(display-p3 0.1373 0.1216 0.1255);stroke-opacity:1;" stroke-width="0.120454"/>
<path d="M24.6702 28.3942C24.6702 28.872 25.1039 29.259 25.6387 29.2586C26.1734 29.2586 26.6072 28.8713 26.6072 28.394C26.6068 27.9166 26.1734 27.5296 25.6383 27.5296C25.1035 27.5299 24.6702 27.9169 24.6702 28.3942ZM24.3418 28.3627C24.3418 27.3145 25.0382 26.8924 26.0348 26.8921C26.9653 26.8917 27.7115 27.3855 27.7118 28.3617C27.7118 29.3142 26.9577 29.8801 26.0271 29.8804C24.9507 29.8804 24.3421 29.4263 24.3418 28.3627Z" fill="#231F20" style="fill:#231F20;fill:color(display-p3 0.1373 0.1216 0.1255);fill-opacity:1;"/>
<path d="M24.6702 28.3942C24.6702 28.872 25.1039 29.259 25.6387 29.2586C26.1734 29.2586 26.6072 28.8713 26.6072 28.394C26.6068 27.9166 26.1734 27.5296 25.6383 27.5296C25.1035 27.5299 24.6702 27.9169 24.6702 28.3942ZM24.3418 28.3627C24.3418 27.3145 25.0382 26.8924 26.0348 26.8921C26.9653 26.8917 27.7115 27.3855 27.7118 28.3617C27.7118 29.3142 26.9577 29.8801 26.0271 29.8804C24.9507 29.8804 24.3421 29.4263 24.3418 28.3627Z" stroke="#231F20" style="stroke:#231F20;stroke:color(display-p3 0.1373 0.1216 0.1255);stroke-opacity:1;" stroke-width="0.120454"/>
</g>
<defs>
<clipPath id="clip0_2740_2174">
<rect width="24" height="24" fill="white" style="fill:white;fill-opacity:1;" transform="translate(12 6)"/>
</clipPath>
</defs>
</svg>
