<svg width="24" height="24" viewBox="0 0 24 24" fill="none" xmlns="http://www.w3.org/2000/svg">
<rect width="24" height="24" rx="6" fill="#002D73" style="fill:#002D73;fill:color(display-p3 0.0000 0.1765 0.4510);fill-opacity:1;"/>
<path d="M18.1223 11.3935L12.6021 5.87516C12.4404 5.7149 12.222 5.625 11.9944 5.625C11.7668 5.625 11.5484 5.7149 11.3866 5.87516L5.87769 11.3935C5.79763 11.4729 5.73408 11.5673 5.6907 11.6714C5.64733 11.7755 5.625 11.8872 5.625 12C5.625 12.1128 5.64733 12.2245 5.6907 12.3286C5.73408 12.4327 5.79763 12.5271 5.87769 12.6065L11.3904 18.1248C11.5521 18.2851 11.7705 18.375 11.9981 18.375C12.2257 18.375 12.4441 18.2851 12.6059 18.1248L18.1223 12.6065C18.2024 12.5271 18.2659 12.4327 18.3093 12.3286C18.3527 12.2245 18.375 12.1128 18.375 12C18.375 11.8872 18.3527 11.7755 18.3093 11.6714C18.2659 11.5673 18.2024 11.4729 18.1223 11.3935ZM14.3599 13.3216C14.2178 14.4784 13.38 15.0362 12.0112 15.0362H9.23991L9.40073 13.7483H12.1384C12.4899 13.7483 12.6807 13.535 12.7256 13.1606C12.7292 13.122 12.7292 13.0831 12.7256 13.0445H14.3824C14.3824 13.1231 14.3599 13.2242 14.3487 13.3216H14.3599ZM15.4819 12.5728H9.52041L9.66252 11.4122H12.3366C12.7106 11.4122 12.849 11.1389 12.8901 10.8132C12.9312 10.4875 12.8901 10.2816 12.4712 10.2816H9.8009L9.96172 8.94507H12.6919C14.2477 8.94507 14.6666 9.60772 14.5619 10.5175C14.5342 10.8358 14.4303 11.1427 14.2589 11.4122H14.4198C14.5683 11.4114 14.7153 11.4425 14.8508 11.5035C14.9863 11.5645 15.1071 11.654 15.205 11.7658C15.3029 11.8777 15.3756 12.0093 15.4182 12.1518C15.4609 12.2942 15.4724 12.4442 15.452 12.5915L15.4819 12.5728Z" fill="white" style="fill:white;fill-opacity:1;"/>
</svg>
