<svg width="24" height="24" viewBox="0 0 24 24" fill="none" xmlns="http://www.w3.org/2000/svg">
<rect width="24" height="24" rx="6" fill="#0054A5" style="fill:#0054A5;fill:color(display-p3 0.0000 0.3294 0.6471);fill-opacity:1;"/>
<path fill-rule="evenodd" clip-rule="evenodd" d="M7.00356 11.391H5.77056C5.77056 11.1873 5.74684 11.0506 5.69953 10.9811C5.62611 10.878 5.42364 10.8265 5.0922 10.8265C4.77025 10.8265 4.55692 10.8561 4.45279 10.9155C4.34872 10.975 4.29656 11.1045 4.29656 11.3039C4.29656 11.4844 4.34274 11.6032 4.43522 11.6601C4.50142 11.7006 4.589 11.7243 4.69809 11.7314L4.94673 11.7491C5.47962 11.7847 5.81244 11.8098 5.94518 11.8241C6.36666 11.8668 6.67212 11.9796 6.86173 12.1625C7.01085 12.3051 7.0998 12.4915 7.12824 12.7217C7.14479 12.8595 7.15309 13.0153 7.15309 13.1885C7.15309 13.5875 7.11522 13.8798 7.03952 14.065C6.90224 14.4049 6.59386 14.6196 6.11395 14.7097C5.91292 14.7478 5.60544 14.7668 5.19179 14.7668C4.50124 14.7668 4.02008 14.7255 3.74838 14.6423C3.4149 14.5404 3.19506 14.3341 3.08866 14.0233C3.02939 13.8503 3 13.5621 3 13.1588H4.23294C4.23294 13.2038 4.23312 13.2381 4.23312 13.2618C4.23312 13.4771 4.29453 13.6155 4.41724 13.6772C4.50225 13.7197 4.60489 13.742 4.72551 13.7446H5.17882C5.41008 13.7446 5.55776 13.7327 5.62139 13.7087C5.73478 13.6639 5.80915 13.5917 5.8447 13.4918C5.86358 13.4302 5.8729 13.3506 5.8729 13.2531C5.8729 13.0349 5.7938 12.9021 5.63572 12.8545C5.57664 12.8356 5.30177 12.8094 4.81106 12.7762C4.41694 12.7478 4.14321 12.7206 3.98997 12.6942C3.5863 12.6182 3.31729 12.4619 3.18305 12.2246C3.065 12.0229 3.00603 11.7178 3.00603 11.3097C3.00603 10.9989 3.03788 10.7497 3.10168 10.5622C3.16548 10.3748 3.2683 10.2324 3.41018 10.1351C3.61802 9.98556 3.88393 9.89782 4.20767 9.8716C4.4771 9.84796 4.77593 9.83588 5.10462 9.83588C5.6221 9.83588 5.99089 9.86589 6.21073 9.92518C6.74727 10.0704 7.01545 10.4768 7.01545 11.1448C7.01545 11.1995 7.01151 11.2815 7.00356 11.391Z" fill="white" style="fill:white;fill-opacity:1;"/>
<path fill-rule="evenodd" clip-rule="evenodd" d="M13.7049 12.3034H14.5311C14.7931 12.2939 14.9524 12.2735 15.0097 12.2418C15.0881 12.1985 15.1406 12.1116 15.1668 11.9815C15.1835 11.8948 15.1919 11.766 15.1919 11.5949C15.1919 11.3852 15.1753 11.2298 15.1419 11.1283C15.0942 10.9861 14.9801 10.8995 14.7992 10.8681C14.7635 10.8633 14.6779 10.8608 14.5423 10.8608H13.7049V12.3034ZM12.3796 14.7331V9.776H14.3112H14.6144H14.8487C15.1874 9.776 15.4459 9.80385 15.6234 9.85947C16.0295 9.98757 16.302 10.2498 16.4416 10.6462C16.5136 10.8542 16.5496 11.1674 16.5496 11.5857C16.5496 12.0885 16.5097 12.4499 16.4306 12.6699C16.2723 13.1049 15.9463 13.3555 15.454 13.4205C15.3962 13.4302 15.1498 13.4389 14.715 13.4459L14.4951 13.4533H13.7049V14.7331H12.3796Z" fill="white" style="fill:white;fill-opacity:1;"/>
<path fill-rule="evenodd" clip-rule="evenodd" d="M19.1414 12.9107L18.5204 10.7619L17.9178 12.9107H19.1414ZM19.4046 13.8765H17.6326L17.3946 14.7332H16.0234L17.5029 9.776H19.5021L20.9998 14.7332H19.6574L19.4046 13.8765Z" fill="white" style="fill:white;fill-opacity:1;"/>
<path fill-rule="evenodd" clip-rule="evenodd" d="M10.605 10.4033C11.1516 10.4033 11.6395 10.6568 11.9602 11.0538L12.2459 10.4372C11.799 10.0121 11.191 9.75 10.5203 9.75C9.476 9.75 8.58263 10.3849 8.21605 11.2836H7.65897L7.33003 11.9935H8.04669C8.04131 12.0594 8.03779 12.1253 8.03779 12.1925C8.03779 12.2739 8.04203 12.3543 8.04997 12.4337H7.68985L7.36098 13.1439H8.23314C8.61017 14.0198 9.49237 14.6348 10.5203 14.6348C11.0383 14.6348 11.519 14.4786 11.917 14.2117V13.3414C11.5965 13.7087 11.1277 13.9409 10.605 13.9409C9.99407 13.9409 9.4567 13.6238 9.14384 13.1439H10.9701L11.2991 12.4337H8.87512C8.86263 12.3483 8.85594 12.2609 8.85594 12.172C8.85594 12.1119 8.85899 12.0523 8.86479 11.9935H11.5029L11.8318 11.2836H9.09288C9.39583 10.7574 9.95942 10.4033 10.605 10.4033Z" fill="#FEC10E" style="fill:#FEC10E;fill:color(display-p3 0.9961 0.7569 0.0549);fill-opacity:1;"/>
</svg>
