<svg width="32" height="32" viewBox="0 0 32 32" fill="none" xmlns="http://www.w3.org/2000/svg">
<rect width="32" height="32" rx="8" fill="#D50043" style="fill:#D50043;fill:color(display-p3 0.8353 0.0000 0.2627);fill-opacity:1;"/>
<path fill-rule="evenodd" clip-rule="evenodd" d="M9 11.3591C9 10.0562 10.0523 9 11.3591 9H20.6409C21.9438 9 23 10.0523 23 11.3591V23H11.3591C10.0562 23 9 21.9477 9 20.6409V11.3591ZM12 13.8831V14.1169C12 14.5953 12.397 15 12.8867 15H19.1133C19.6033 15 20 14.6046 20 14.1169V13.8831C20 13.4047 19.603 13 19.1133 13H12.8867C12.3967 13 12 13.3954 12 13.8831ZM12 17.8831V18.117C12 18.5953 12.397 19 12.8867 19H19.1133C19.6033 19 20 18.6046 20 18.117V17.8831C20 17.4047 19.603 17 19.1133 17H12.8867C12.3967 17 12 17.3954 12 17.8831Z" fill="white" style="fill:white;fill-opacity:1;"/>
</svg>
