<svg width="48" height="36" viewBox="0 0 48 36" fill="none" xmlns="http://www.w3.org/2000/svg">
<rect width="48" height="36" rx="6" fill="#D50043" style="fill:#D50043;fill:color(display-p3 0.8353 0.0000 0.2627);fill-opacity:1;"/>
<path fill-rule="evenodd" clip-rule="evenodd" d="M16.5 13.0445C16.5 11.6392 17.6274 10.5 19.0445 10.5H28.9555C30.3608 10.5 31.5 11.6274 31.5 13.0445V25.5H19.0445C17.6392 25.5 16.5 24.3726 16.5 22.9555V13.0445ZM19.7143 15.7318V15.9824C19.7143 16.5154 20.1396 16.9286 20.6643 16.9286H27.3357C27.8723 16.9286 28.2857 16.505 28.2857 15.9824V15.7318C28.2857 15.1989 27.8604 14.7857 27.3357 14.7857H20.6643C20.1277 14.7857 19.7143 15.2093 19.7143 15.7318ZM19.7143 20.0176V20.2682C19.7143 20.8011 20.1396 21.2143 20.6643 21.2143H27.3357C27.8723 21.2143 28.2857 20.7907 28.2857 20.2682V20.0176C28.2857 19.4846 27.8604 19.0714 27.3357 19.0714H20.6643C20.1277 19.0714 19.7143 19.495 19.7143 20.0176Z" fill="white" style="fill:white;fill-opacity:1;"/>
</svg>
