<svg width="40" height="30" viewBox="0 0 40 30" fill="none" xmlns="http://www.w3.org/2000/svg">
<rect width="40" height="30" rx="5" fill="#1E1E1E" style="fill:#1E1E1E;fill:color(display-p3 0.1176 0.1176 0.1176);fill-opacity:1;"/>
<path d="M20.9796 23.75H13.75V11.6333C13.75 10.1537 14.3564 8.72217 15.4129 7.70911C16.4855 6.68093 17.887 6.16614 19.3599 6.26111C22.0779 6.43592 24.2893 8.78824 24.2893 11.5053C24.2893 12.3697 24.1706 13.2589 24.0104 13.9649C25.3646 14.9409 26.25 16.55 26.25 18.3667C26.25 21.3358 23.885 23.75 20.9796 23.75ZM18.608 21.5037H20.9796C22.6735 21.5037 24.0508 20.0956 24.0508 18.3667C24.0508 17.5051 23.7099 16.7247 23.1574 16.1562C22.1116 18.1878 20.6226 19.9415 18.608 21.5037ZM15.9479 15.2285V20.6627C18.3735 19.0839 20.0378 17.3442 21.1481 15.2341C21.0915 15.2313 21.0349 15.2299 20.9784 15.2299H15.9493L15.9479 15.2285ZM15.9479 12.9823H20.9796C21.3098 12.9823 21.6319 13.0138 21.9445 13.0731C22.0254 12.6174 22.0901 12.0641 22.0901 11.5053C22.0901 9.95132 20.8031 8.60379 19.2211 8.50331C18.36 8.44688 17.542 8.74694 16.9181 9.34706C16.2929 9.94719 15.9479 10.7593 15.9479 11.6347V12.9835V12.9823Z" fill="white" style="fill:white;fill-opacity:1;"/>
</svg>
