<svg width="48" height="36" viewBox="0 0 48 36" fill="none" xmlns="http://www.w3.org/2000/svg">
<rect x="0.5" y="0.5" width="47" height="35" rx="5.5" fill="white" style="fill:white;fill-opacity:1;"/>
<rect x="0.5" y="0.5" width="47" height="35" rx="5.5" stroke="#F5F2F0" style="stroke:#F5F2F0;stroke:color(display-p3 0.9608 0.9490 0.9412);stroke-opacity:1;"/>
<path fill-rule="evenodd" clip-rule="evenodd" d="M19.3463 14.577C20.209 15.2139 21.4117 15.0281 22.0391 14.1525L24.2876 10.9948C24.9151 10.1192 24.732 8.89862 23.8693 8.26179C23.0065 7.62496 21.8039 7.8107 21.1764 8.68634L18.9018 11.844C18.3005 12.7196 18.4835 13.9402 19.3463 14.577ZM29.6472 10.1192C28.7844 9.48238 27.5818 9.66812 26.9543 10.5438L17.9083 23.1742C17.2808 24.0499 17.4638 25.2705 18.3266 25.9073C19.1894 26.5441 20.392 26.3584 21.0195 25.4827L30.0655 12.8523C30.7191 11.9766 30.5099 10.756 29.6472 10.1192ZM18.4835 9.11091C19.111 8.23527 18.9279 7.01468 18.0652 6.37785C17.2024 5.74102 15.9998 5.92676 15.3723 6.80241C14.7448 7.67805 14.9278 8.89864 15.7906 9.53547C16.6534 10.1723 17.856 9.98655 18.4835 9.11091ZM32.2094 26.4645C31.3466 25.8277 30.144 26.0135 29.5165 26.8891C28.889 27.7647 29.072 28.9853 29.9348 29.6221C30.7976 30.259 32.0002 30.0732 32.6277 29.1976C33.2552 28.3219 33.0721 27.1013 32.2094 26.4645ZM28.6799 21.4495C27.8171 20.8127 26.6145 20.9984 25.987 21.8741L23.7124 25.0317C23.085 25.9073 23.268 27.1279 24.1307 27.7647C24.9935 28.4015 26.1961 28.2158 26.8236 27.3401L29.0982 24.1825C29.7257 23.3069 29.5427 22.0863 28.6799 21.4495Z" fill="#05C0C7" style="fill:#05C0C7;fill:color(display-p3 0.0196 0.7529 0.7804);fill-opacity:1;"/>
</svg>
