<svg width="32" height="32" viewBox="0 0 32 32" fill="none" xmlns="http://www.w3.org/2000/svg">
<rect x="0.5" y="0.5" width="31" height="31" rx="7.5" fill="white" style="fill:white;fill-opacity:1;"/>
<rect x="0.5" y="0.5" width="31" height="31" rx="7.5" stroke="#F5F2F0" style="stroke:#F5F2F0;stroke:color(display-p3 0.9608 0.9490 0.9412);stroke-opacity:1;"/>
<path fill-rule="evenodd" clip-rule="evenodd" d="M11.8634 12.8623C12.6303 13.446 13.6993 13.2758 14.257 12.4731L16.2556 9.57861C16.8134 8.77594 16.6507 7.65707 15.8838 7.0733C15.1169 6.48955 14.0479 6.65981 13.4901 7.46248L11.4683 10.357C10.9338 11.1596 11.0964 12.2785 11.8634 12.8623ZM21.0197 8.77594C20.2528 8.19218 19.1838 8.36244 18.626 9.16511L10.5851 20.743C10.0274 21.5457 10.1901 22.6646 10.957 23.2483C11.7239 23.8321 12.7929 23.6619 13.3507 22.8592L21.3915 11.2812C21.9725 10.4786 21.7866 9.3597 21.0197 8.77594ZM11.0964 7.85167C11.6542 7.049 11.4915 5.93012 10.7246 5.34636C9.9577 4.7626 8.88868 4.93287 8.33093 5.73554C7.77318 6.53821 7.93586 7.65709 8.70277 8.24084C9.46967 8.82461 10.5387 8.65434 11.0964 7.85167ZM23.2972 23.7592C22.5303 23.1754 21.4613 23.3457 20.9036 24.1483C20.3458 24.951 20.5085 26.0699 21.2754 26.6536C22.0423 27.2374 23.1113 27.0671 23.6691 26.2645C24.2268 25.4618 24.0641 24.3429 23.2972 23.7592ZM20.1599 19.162C19.393 18.5783 18.324 18.7485 17.7663 19.5512L15.7444 22.4457C15.1866 23.2483 15.3493 24.3672 16.1162 24.951C16.8831 25.5347 17.9521 25.3645 18.5099 24.5618L20.5318 21.6673C21.0895 20.8647 20.9268 19.7458 20.1599 19.162Z" fill="#05C0C7" style="fill:#05C0C7;fill:color(display-p3 0.0196 0.7529 0.7804);fill-opacity:1;"/>
</svg>
