<svg width="16" height="16" viewBox="0 0 16 16" fill="none" xmlns="http://www.w3.org/2000/svg">
<rect x="0.5" y="0.5" width="15" height="15" rx="3.5" fill="white" style="fill:white;fill-opacity:1;"/>
<rect x="0.5" y="0.5" width="15" height="15" rx="3.5" stroke="#F5F2F0" style="stroke:#F5F2F0;stroke:color(display-p3 0.9608 0.9490 0.9412);stroke-opacity:1;"/>
<path fill-rule="evenodd" clip-rule="evenodd" d="M6.69022 6.57375C7.02574 6.83911 7.49343 6.76172 7.73744 6.39686L8.61184 5.08119C8.85586 4.71634 8.78468 4.20776 8.44917 3.94241C8.11364 3.67707 7.64595 3.75446 7.40193 4.11931L6.51737 5.43498C6.28352 5.79983 6.3547 6.30842 6.69022 6.57375ZM10.6961 4.71634C10.3606 4.45099 9.8929 4.52838 9.64889 4.89323L6.131 10.1559C5.88699 10.5208 5.95816 11.0294 6.29368 11.2947C6.6292 11.5601 7.09689 11.4827 7.34091 11.1178L10.8588 5.85511C11.113 5.49026 11.0316 4.98168 10.6961 4.71634ZM6.35469 4.29621C6.59871 3.93136 6.52753 3.42278 6.19201 3.15744C5.85649 2.89209 5.3888 2.96949 5.14478 3.33434C4.90077 3.69919 4.97194 4.20777 5.30746 4.47311C5.64298 4.73846 6.11068 4.66106 6.35469 4.29621ZM11.6925 11.5269C11.357 11.2615 10.8893 11.3389 10.6453 11.7038C10.4013 12.0686 10.4724 12.5772 10.808 12.8426C11.1435 13.1079 11.6112 13.0305 11.8552 12.6657C12.0992 12.3008 12.0281 11.7922 11.6925 11.5269ZM10.3199 9.43728C9.98444 9.17195 9.51675 9.24933 9.27274 9.6142L8.38816 10.9299C8.14415 11.2947 8.21533 11.8033 8.55083 12.0686C8.88636 12.334 9.35406 12.2566 9.59807 11.8917L10.4826 10.5761C10.7267 10.2112 10.6555 9.70264 10.3199 9.43728Z" fill="#05C0C7" style="fill:#05C0C7;fill:color(display-p3 0.0196 0.7529 0.7804);fill-opacity:1;"/>
</svg>
