<svg width="56" height="42" viewBox="0 0 56 42" fill="none" xmlns="http://www.w3.org/2000/svg">
<rect width="56" height="42" rx="7" fill="url(#paint0_linear_2740_2221)" style=""/>
<path d="M45 16.8963C45 16.4374 44.9034 15.9785 44.7102 15.5196C44.517 15.0607 44.2272 14.6936 43.9375 14.4182C43.5511 14.0511 43.1647 13.7758 42.6818 13.684C42.1988 13.5004 41.6193 13.5004 40.8466 13.5004H30.2217V16.8963V20.2922H40.75C41.5227 20.2922 42.1988 20.2005 42.5852 20.1087C43.0682 19.9251 43.4545 19.7416 43.8409 19.3744C44.2272 19.0073 44.4204 18.6402 44.6136 18.2731C44.9034 17.8141 45 17.3552 45 16.8963Z" fill="white" style="fill:white;fill-opacity:1;"/>
<path d="M45 25.2484C45 24.7895 44.9034 24.3306 44.7102 23.8717C44.517 23.4128 44.2272 23.0456 43.9375 22.7703C43.5511 22.4032 43.1647 22.1278 42.6818 22.036C42.1988 21.8525 41.6193 21.8525 40.8466 21.8525H30.2217V25.2484V28.6443H40.75C41.5227 28.6443 42.1988 28.5525 42.5852 28.4607C43.0682 28.2772 43.4545 28.0936 43.8409 27.7265C44.2272 27.3594 44.4204 26.9922 44.6136 26.6251C44.9034 26.1662 45 25.7073 45 25.2484Z" fill="white" style="fill:white;fill-opacity:1;"/>
<path d="M28.7726 20.2925C28.3862 15.887 25.1021 12.95 19.8863 12.95C14.3807 12.95 11 16.1624 11 21.0268C11 26.0747 14.5738 29.1035 19.8863 29.1035C25.1021 29.1035 28.3862 26.2583 28.7726 21.761H19.7897V20.2007H28.7726V20.2925Z" fill="white" style="fill:white;fill-opacity:1;"/>
<defs>
<linearGradient id="paint0_linear_2740_2221" x1="84" y1="21" x2="43.68" y2="74.76" gradientUnits="userSpaceOnUse">
<stop stop-color="#083969" style="stop-color:#083969;stop-color:color(display-p3 0.0314 0.2235 0.4118);stop-opacity:1;"/>
<stop offset="0.491699" stop-color="#007B9D" style="stop-color:#007B9D;stop-color:color(display-p3 0.0000 0.4824 0.6157);stop-opacity:1;"/>
<stop offset="1" stop-color="#00A84A" style="stop-color:#00A84A;stop-color:color(display-p3 0.0000 0.6588 0.2902);stop-opacity:1;"/>
</linearGradient>
</defs>
</svg>
