<svg width="40" height="40" viewBox="0 0 40 40" fill="none" xmlns="http://www.w3.org/2000/svg">
<g clip-path="url(#clip0_2180_924)">
<rect width="40" height="40" rx="10" fill="url(#paint0_linear_2180_924)" style=""/>
<g clip-path="url(#clip1_2180_924)">
<path opacity="0.1" d="M43.9453 84.375C64.3324 84.375 80.8594 67.848 80.8594 47.4609C80.8594 27.0739 64.3324 10.5469 43.9453 10.5469C23.5582 10.5469 7.03125 27.0739 7.03125 47.4609C7.03125 67.848 23.5582 84.375 43.9453 84.375Z" fill="url(#paint1_linear_2180_924)" style=""/>
<path opacity="0.1" d="M7.61719 56.25C18.2961 56.25 26.9531 47.593 26.9531 36.9141C26.9531 26.2351 18.2961 17.5781 7.61719 17.5781C-3.06176 17.5781 -11.7188 26.2351 -11.7188 36.9141C-11.7188 47.593 -3.06176 56.25 7.61719 56.25Z" fill="url(#paint2_linear_2180_924)" style=""/>
<path opacity="0.1" d="M49.8047 29.2969C66.9557 29.2969 80.8594 15.3932 80.8594 -1.75781C80.8594 -18.9088 66.9557 -32.8125 49.8047 -32.8125C32.6537 -32.8125 18.75 -18.9088 18.75 -1.75781C18.75 15.3932 32.6537 29.2969 49.8047 29.2969Z" fill="url(#paint3_linear_2180_924)" style=""/>
<g filter="url(#filter0_d_2180_924)">
<path d="M11.7188 16.4062H5.85938C5.21217 16.4062 4.6875 16.9309 4.6875 17.5781V21.0938C4.6875 21.741 5.21217 22.2656 5.85938 22.2656H11.7188C12.366 22.2656 12.8906 21.741 12.8906 21.0938V17.5781C12.8906 16.9309 12.366 16.4062 11.7188 16.4062Z" fill="black" style="fill:black;fill-opacity:1;"/>
</g>
<path d="M11.7188 16.4062H5.85938C5.21217 16.4062 4.6875 16.9309 4.6875 17.5781V21.0938C4.6875 21.741 5.21217 22.2656 5.85938 22.2656H11.7188C12.366 22.2656 12.8906 21.741 12.8906 21.0938V17.5781C12.8906 16.9309 12.366 16.4062 11.7188 16.4062Z" fill="url(#paint4_linear_2180_924)" style=""/>
<path opacity="0.3" d="M7.03125 17.5781H5.85938V21.0938H7.03125V17.5781Z" fill="#7A3802" style="fill:#7A3802;fill:color(display-p3 0.4784 0.2196 0.0078);fill-opacity:1;"/>
<path opacity="0.3" d="M9.375 17.5781H8.20312V21.0938H9.375V17.5781Z" fill="#7A3802" style="fill:#7A3802;fill:color(display-p3 0.4784 0.2196 0.0078);fill-opacity:1;"/>
<path opacity="0.3" d="M11.7188 17.5781H10.5469V21.0938H11.7188V17.5781Z" fill="#7A3802" style="fill:#7A3802;fill:color(display-p3 0.4784 0.2196 0.0078);fill-opacity:1;"/>
<path d="M10.5469 25.7812H4.6875V26.9531H10.5469V25.7812Z" fill="white" fill-opacity="0.8" style="fill:white;fill-opacity:0.8;"/>
<path d="M8.20312 28.125H4.6875V29.2969H8.20312V28.125Z" fill="white" fill-opacity="0.8" style="fill:white;fill-opacity:0.8;"/>
<path d="M12.8906 28.125H9.375V29.2969H12.8906V28.125Z" fill="white" fill-opacity="0.8" style="fill:white;fill-opacity:0.8;"/>
<path d="M17.5781 28.125H14.0625V29.2969H17.5781V28.125Z" fill="white" fill-opacity="0.8" style="fill:white;fill-opacity:0.8;"/>
<path d="M17.5781 25.7812H11.7188V26.9531H17.5781V25.7812Z" fill="white" fill-opacity="0.8" style="fill:white;fill-opacity:0.8;"/>
<path d="M24.6094 25.7812H18.75V26.9531H24.6094V25.7812Z" fill="white" fill-opacity="0.8" style="fill:white;fill-opacity:0.8;"/>
<path d="M31.6406 25.7812H25.7812V26.9531H31.6406V25.7812Z" fill="white" fill-opacity="0.8" style="fill:white;fill-opacity:0.8;"/>
</g>
</g>
<defs>
<filter id="filter0_d_2180_924" x="3.4375" y="16.4062" width="10.7031" height="8.35938" filterUnits="userSpaceOnUse" color-interpolation-filters="sRGB">
<feFlood flood-opacity="0" result="BackgroundImageFix"/>
<feColorMatrix in="SourceAlpha" type="matrix" values="0 0 0 0 0 0 0 0 0 0 0 0 0 0 0 0 0 0 127 0" result="hardAlpha"/>
<feOffset dy="1.25"/>
<feGaussianBlur stdDeviation="0.625"/>
<feColorMatrix type="matrix" values="0 0 0 0 0 0 0 0 0 0 0 0 0 0 0 0 0 0 0.1 0"/>
<feBlend mode="normal" in2="BackgroundImageFix" result="effect1_dropShadow_2180_924"/>
<feBlend mode="normal" in="SourceGraphic" in2="effect1_dropShadow_2180_924" result="shape"/>
</filter>
<linearGradient id="paint0_linear_2180_924" x1="0" y1="40" x2="40" y2="0" gradientUnits="userSpaceOnUse">
<stop stop-color="#060B0E" style="stop-color:#060B0E;stop-color:color(display-p3 0.0235 0.0431 0.0549);stop-opacity:1;"/>
<stop offset="1" stop-color="#254764" style="stop-color:#254764;stop-color:color(display-p3 0.1451 0.2784 0.3922);stop-opacity:1;"/>
</linearGradient>
<linearGradient id="paint1_linear_2180_924" x1="27.4337" y1="29.3553" x2="23.709" y2="19.1493" gradientUnits="userSpaceOnUse">
<stop stop-color="white" stop-opacity="0" style="stop-color:none;stop-opacity:0;"/>
<stop offset="1" stop-color="white" style="stop-color:white;stop-opacity:1;"/>
</linearGradient>
<linearGradient id="paint2_linear_2180_924" x1="7.61719" y1="56.25" x2="3.34124" y2="39.0518" gradientUnits="userSpaceOnUse">
<stop stop-color="white" stop-opacity="0" style="stop-color:none;stop-opacity:0;"/>
<stop offset="1" stop-color="white" style="stop-color:white;stop-opacity:1;"/>
</linearGradient>
<linearGradient id="paint3_linear_2180_924" x1="42.9373" y1="1.67559" x2="49.8047" y2="29.2969" gradientUnits="userSpaceOnUse">
<stop stop-color="white" stop-opacity="0" style="stop-color:none;stop-opacity:0;"/>
<stop offset="1" stop-color="white" style="stop-color:white;stop-opacity:1;"/>
</linearGradient>
<linearGradient id="paint4_linear_2180_924" x1="8.78906" y1="16.4062" x2="8.78906" y2="22.2656" gradientUnits="userSpaceOnUse">
<stop stop-color="#FAD961" style="stop-color:#FAD961;stop-color:color(display-p3 0.9804 0.8510 0.3804);stop-opacity:1;"/>
<stop offset="1" stop-color="#F7955D" style="stop-color:#F7955D;stop-color:color(display-p3 0.9686 0.5843 0.3647);stop-opacity:1;"/>
</linearGradient>
<clipPath id="clip0_2180_924">
<rect width="40" height="40" rx="10" fill="white" style="fill:white;fill-opacity:1;"/>
</clipPath>
<clipPath id="clip1_2180_924">
<rect width="40" height="40" fill="white" style="fill:white;fill-opacity:1;"/>
</clipPath>
</defs>
</svg>
