<svg width="32" height="32" viewBox="0 0 32 32" fill="none" xmlns="http://www.w3.org/2000/svg">
<g clip-path="url(#clip0_19_151)">
<rect width="32" height="32" rx="8" fill="url(#paint0_linear_19_151)" style=""/>
<g clip-path="url(#clip1_19_151)">
<path opacity="0.1" d="M35.1562 67.5C51.4659 67.5 64.6875 54.2784 64.6875 37.9688C64.6875 21.6591 51.4659 8.4375 35.1562 8.4375C18.8466 8.4375 5.625 21.6591 5.625 37.9688C5.625 54.2784 18.8466 67.5 35.1562 67.5Z" fill="url(#paint1_linear_19_151)" style=""/>
<path opacity="0.1" d="M6.09375 45C14.6369 45 21.5625 38.0744 21.5625 29.5312C21.5625 20.9881 14.6369 14.0625 6.09375 14.0625C-2.4494 14.0625 -9.375 20.9881 -9.375 29.5312C-9.375 38.0744 -2.4494 45 6.09375 45Z" fill="url(#paint2_linear_19_151)" style=""/>
<path opacity="0.1" d="M39.8438 23.4375C53.5646 23.4375 64.6875 12.3146 64.6875 -1.40625C64.6875 -15.1271 53.5646 -26.25 39.8438 -26.25C26.1229 -26.25 15 -15.1271 15 -1.40625C15 12.3146 26.1229 23.4375 39.8438 23.4375Z" fill="url(#paint3_linear_19_151)" style=""/>
<g filter="url(#filter0_d_19_151)">
<path d="M9.375 13.125H4.6875C4.16973 13.125 3.75 13.5447 3.75 14.0625V16.875C3.75 17.3928 4.16973 17.8125 4.6875 17.8125H9.375C9.89277 17.8125 10.3125 17.3928 10.3125 16.875V14.0625C10.3125 13.5447 9.89277 13.125 9.375 13.125Z" fill="black" style="fill:black;fill-opacity:1;"/>
</g>
<path d="M9.375 13.125H4.6875C4.16973 13.125 3.75 13.5447 3.75 14.0625V16.875C3.75 17.3928 4.16973 17.8125 4.6875 17.8125H9.375C9.89277 17.8125 10.3125 17.3928 10.3125 16.875V14.0625C10.3125 13.5447 9.89277 13.125 9.375 13.125Z" fill="url(#paint4_linear_19_151)" style=""/>
<path opacity="0.3" d="M5.625 14.0625H4.6875V16.875H5.625V14.0625Z" fill="#7A3802" style="fill:#7A3802;fill:color(display-p3 0.4784 0.2196 0.0078);fill-opacity:1;"/>
<path opacity="0.3" d="M7.5 14.0625H6.5625V16.875H7.5V14.0625Z" fill="#7A3802" style="fill:#7A3802;fill:color(display-p3 0.4784 0.2196 0.0078);fill-opacity:1;"/>
<path opacity="0.3" d="M9.375 14.0625H8.4375V16.875H9.375V14.0625Z" fill="#7A3802" style="fill:#7A3802;fill:color(display-p3 0.4784 0.2196 0.0078);fill-opacity:1;"/>
<path d="M8.4375 20.625H3.75V21.5625H8.4375V20.625Z" fill="white" fill-opacity="0.8" style="fill:white;fill-opacity:0.8;"/>
<path d="M6.5625 22.5H3.75V23.4375H6.5625V22.5Z" fill="white" fill-opacity="0.8" style="fill:white;fill-opacity:0.8;"/>
<path d="M10.3125 22.5H7.5V23.4375H10.3125V22.5Z" fill="white" fill-opacity="0.8" style="fill:white;fill-opacity:0.8;"/>
<path d="M14.0625 22.5H11.25V23.4375H14.0625V22.5Z" fill="white" fill-opacity="0.8" style="fill:white;fill-opacity:0.8;"/>
<path d="M14.0625 20.625H9.375V21.5625H14.0625V20.625Z" fill="white" fill-opacity="0.8" style="fill:white;fill-opacity:0.8;"/>
<path d="M19.6875 20.625H15V21.5625H19.6875V20.625Z" fill="white" fill-opacity="0.8" style="fill:white;fill-opacity:0.8;"/>
<path d="M25.3125 20.625H20.625V21.5625H25.3125V20.625Z" fill="white" fill-opacity="0.8" style="fill:white;fill-opacity:0.8;"/>
</g>
</g>
<defs>
<filter id="filter0_d_19_151" x="2.5" y="13.125" width="9.0625" height="7.1875" filterUnits="userSpaceOnUse" color-interpolation-filters="sRGB">
<feFlood flood-opacity="0" result="BackgroundImageFix"/>
<feColorMatrix in="SourceAlpha" type="matrix" values="0 0 0 0 0 0 0 0 0 0 0 0 0 0 0 0 0 0 127 0" result="hardAlpha"/>
<feOffset dy="1.25"/>
<feGaussianBlur stdDeviation="0.625"/>
<feColorMatrix type="matrix" values="0 0 0 0 0 0 0 0 0 0 0 0 0 0 0 0 0 0 0.1 0"/>
<feBlend mode="normal" in2="BackgroundImageFix" result="effect1_dropShadow_19_151"/>
<feBlend mode="normal" in="SourceGraphic" in2="effect1_dropShadow_19_151" result="shape"/>
</filter>
<linearGradient id="paint0_linear_19_151" x1="0" y1="32" x2="32" y2="0" gradientUnits="userSpaceOnUse">
<stop stop-color="#060B0E" style="stop-color:#060B0E;stop-color:color(display-p3 0.0235 0.0431 0.0549);stop-opacity:1;"/>
<stop offset="1" stop-color="#254764" style="stop-color:#254764;stop-color:color(display-p3 0.1451 0.2784 0.3922);stop-opacity:1;"/>
</linearGradient>
<linearGradient id="paint1_linear_19_151" x1="21.9469" y1="23.4843" x2="18.9672" y2="15.3195" gradientUnits="userSpaceOnUse">
<stop stop-color="white" stop-opacity="0" style="stop-color:none;stop-opacity:0;"/>
<stop offset="1" stop-color="white" style="stop-color:white;stop-opacity:1;"/>
</linearGradient>
<linearGradient id="paint2_linear_19_151" x1="6.09375" y1="45" x2="2.67299" y2="31.2415" gradientUnits="userSpaceOnUse">
<stop stop-color="white" stop-opacity="0" style="stop-color:none;stop-opacity:0;"/>
<stop offset="1" stop-color="white" style="stop-color:white;stop-opacity:1;"/>
</linearGradient>
<linearGradient id="paint3_linear_19_151" x1="34.3498" y1="1.34047" x2="39.8437" y2="23.4375" gradientUnits="userSpaceOnUse">
<stop stop-color="white" stop-opacity="0" style="stop-color:none;stop-opacity:0;"/>
<stop offset="1" stop-color="white" style="stop-color:white;stop-opacity:1;"/>
</linearGradient>
<linearGradient id="paint4_linear_19_151" x1="7.03125" y1="13.125" x2="7.03125" y2="17.8125" gradientUnits="userSpaceOnUse">
<stop stop-color="#FAD961" style="stop-color:#FAD961;stop-color:color(display-p3 0.9804 0.8510 0.3804);stop-opacity:1;"/>
<stop offset="1" stop-color="#F7955D" style="stop-color:#F7955D;stop-color:color(display-p3 0.9686 0.5843 0.3647);stop-opacity:1;"/>
</linearGradient>
<clipPath id="clip0_19_151">
<rect width="32" height="32" rx="8" fill="white" style="fill:white;fill-opacity:1;"/>
</clipPath>
<clipPath id="clip1_19_151">
<rect width="32" height="32" fill="white" style="fill:white;fill-opacity:1;"/>
</clipPath>
</defs>
</svg>
