<svg width="32" height="32" viewBox="0 0 32 32" fill="none" xmlns="http://www.w3.org/2000/svg">
<rect x="0.5" y="0.5" width="31" height="31" rx="7.5" fill="white" style="fill:white;fill-opacity:1;"/>
<rect x="0.5" y="0.5" width="31" height="31" rx="7.5" stroke="#EEEEEE" style="stroke:#EEEEEE;stroke:color(display-p3 0.9333 0.9333 0.9333);stroke-opacity:1;"/>
<path fill-rule="evenodd" clip-rule="evenodd" d="M9.33808 15.188H7.69408C7.69408 14.9164 7.66246 14.7342 7.59937 14.6414C7.50147 14.504 7.23152 14.4353 6.7896 14.4353C6.36034 14.4353 6.07589 14.4749 5.93705 14.554C5.79829 14.6334 5.72875 14.806 5.72875 15.0718C5.72875 15.3125 5.79033 15.4709 5.91363 15.5469C6.00189 15.6008 6.11866 15.6324 6.26411 15.6419L6.59564 15.6655C7.30616 15.7129 7.74992 15.7464 7.92691 15.7655C8.48888 15.8225 8.89615 15.9728 9.14898 16.2167C9.3478 16.4068 9.4664 16.6554 9.50432 16.9623C9.52638 17.1459 9.53746 17.3538 9.53746 17.5846C9.53746 18.1167 9.48696 18.5064 9.38603 18.7533C9.20299 19.2065 8.79181 19.4927 8.15194 19.6129C7.8839 19.6637 7.47391 19.6891 6.92238 19.6891C6.00165 19.6891 5.36011 19.6339 4.99784 19.5231C4.5532 19.3872 4.26007 19.1121 4.11821 18.6977C4.03919 18.467 4 18.0828 4 17.545H5.64392C5.64392 17.605 5.64416 17.6508 5.64416 17.6824C5.64416 17.9694 5.72604 18.154 5.88966 18.2362C6.003 18.2929 6.13985 18.3227 6.30068 18.3262H6.9051C7.21344 18.3262 7.41035 18.3102 7.49518 18.2783C7.64637 18.2185 7.74554 18.1223 7.79293 17.989C7.8181 17.9069 7.83053 17.8007 7.83053 17.6708C7.83053 17.3798 7.72507 17.2028 7.5143 17.1393C7.43552 17.1142 7.06903 17.0792 6.41474 17.0349C5.88926 16.9971 5.52428 16.9608 5.31996 16.9256C4.78173 16.8243 4.42305 16.6158 4.24406 16.2994C4.08666 16.0305 4.00805 15.6238 4.00805 15.0796C4.00805 14.6652 4.0505 14.3329 4.13557 14.083C4.22064 13.833 4.35773 13.6432 4.54691 13.5134C4.82403 13.3141 5.17858 13.1971 5.61023 13.1621C5.96947 13.1306 6.3679 13.1145 6.80617 13.1145C7.49614 13.1145 7.98785 13.1545 8.28098 13.2336C8.99636 13.4271 9.35393 13.9691 9.35393 14.8597C9.35393 14.9327 9.34867 15.042 9.33808 15.188Z" fill="#0054A5" style="fill:#0054A5;fill:color(display-p3 0.0000 0.3294 0.6471);fill-opacity:1;"/>
<path fill-rule="evenodd" clip-rule="evenodd" d="M18.2732 16.4045H19.3749C19.7241 16.3918 19.9366 16.3647 20.0131 16.3225C20.1175 16.2646 20.1876 16.1489 20.2225 15.9753C20.2448 15.8598 20.2559 15.6879 20.2559 15.4598C20.2559 15.1802 20.2338 14.973 20.1893 14.8377C20.1257 14.6482 19.9735 14.5327 19.7324 14.4908C19.6847 14.4844 19.5706 14.4811 19.3898 14.4811H18.2732V16.4045ZM16.5062 19.6442V13.0347H19.0817H19.4859H19.7984C20.25 13.0347 20.5945 13.0718 20.8313 13.146C21.3728 13.3168 21.7361 13.6665 21.9222 14.195C22.0182 14.4723 22.0662 14.8899 22.0662 15.4475C22.0662 16.118 22.013 16.5998 21.9076 16.8931C21.6964 17.4732 21.2618 17.8073 20.6054 17.8939C20.5283 17.9069 20.1998 17.9186 19.6201 17.9279L19.3268 17.9377H18.2732V19.6442H16.5062Z" fill="#0054A5" style="fill:#0054A5;fill:color(display-p3 0.0000 0.3294 0.6471);fill-opacity:1;"/>
<path fill-rule="evenodd" clip-rule="evenodd" d="M25.5219 17.2143L24.6938 14.3492L23.8904 17.2143H25.5219ZM25.8727 18.502H23.5102L23.1927 19.6442H21.3645L23.3372 13.0347H26.0028L27.9997 19.6442H26.2099L25.8727 18.502Z" fill="#0054A5" style="fill:#0054A5;fill:color(display-p3 0.0000 0.3294 0.6471);fill-opacity:1;"/>
<path fill-rule="evenodd" clip-rule="evenodd" d="M14.1401 13.8711C14.8688 13.8711 15.5193 14.209 15.947 14.7384L16.3279 13.9163C15.732 13.3495 14.9213 13 14.027 13C12.6347 13 11.4435 13.8465 10.9547 15.0448H10.212L9.77338 15.9913H10.7289C10.7217 16.0791 10.717 16.167 10.717 16.2567C10.717 16.3652 10.7227 16.4724 10.7333 16.5783H10.2531L9.81464 17.5251H10.9775C11.4802 18.6931 12.6565 19.5131 14.027 19.5131C14.7177 19.5131 15.3586 19.3048 15.8893 18.9489V17.7885C15.4619 18.2783 14.8369 18.5878 14.1401 18.5878C13.3254 18.5878 12.6089 18.165 12.1918 17.5251H14.6268L15.0654 16.5783H11.8335C11.8168 16.4644 11.8079 16.3479 11.8079 16.2293C11.8079 16.1491 11.812 16.0698 11.8197 15.9913H15.3372L15.7757 15.0448H12.1238C12.5278 14.3432 13.2792 13.8711 14.1401 13.8711Z" fill="#FEC10E" style="fill:#FEC10E;fill:color(display-p3 0.9961 0.7569 0.0549);fill-opacity:1;"/>
</svg>
