<svg width="40" height="40" viewBox="0 0 40 40" fill="none" xmlns="http://www.w3.org/2000/svg">
<rect x="0.5" y="0.5" width="39" height="39" rx="9.5" fill="white" style="fill:white;fill-opacity:1;"/>
<rect x="0.5" y="0.5" width="39" height="39" rx="9.5" stroke="#EEEEEE" style="stroke:#EEEEEE;stroke:color(display-p3 0.9333 0.9333 0.9333);stroke-opacity:1;"/>
<path fill-rule="evenodd" clip-rule="evenodd" d="M11.6726 18.9849H9.6176C9.6176 18.6455 9.57807 18.4177 9.49921 18.3018C9.37684 18.1301 9.0394 18.0442 8.487 18.0442C7.95042 18.0442 7.59486 18.0936 7.42131 18.1925C7.24786 18.2917 7.16094 18.5075 7.16094 18.8398C7.16094 19.1406 7.23791 19.3387 7.39204 19.4336C7.50236 19.5009 7.64833 19.5405 7.83014 19.5524L8.24455 19.5818C9.1327 19.6412 9.6874 19.683 9.90864 19.7068C10.6111 19.7781 11.1202 19.966 11.4362 20.2708C11.6847 20.5085 11.833 20.8192 11.8804 21.2029C11.908 21.4324 11.9218 21.6922 11.9218 21.9808C11.9218 22.6458 11.8587 23.133 11.7325 23.4417C11.5037 24.0081 10.9898 24.3659 10.1899 24.5162C9.85487 24.5796 9.34239 24.6114 8.65298 24.6114C7.50206 24.6114 6.70014 24.5424 6.2473 24.4038C5.69151 24.234 5.32509 23.8901 5.14776 23.3721C5.04899 23.0838 5 22.6035 5 21.9313H7.0549C7.0549 22.0063 7.0552 22.0635 7.0552 22.103C7.0552 22.4618 7.15756 22.6924 7.36207 22.7953C7.50376 22.8661 7.67482 22.9033 7.87584 22.9077H8.63137C9.0168 22.9077 9.26294 22.8878 9.36898 22.8479C9.55796 22.7731 9.68192 22.6529 9.74117 22.4863C9.77263 22.3836 9.78816 22.2509 9.78816 22.0885C9.78816 21.7248 9.65633 21.5035 9.39287 21.4241C9.2944 21.3927 8.83628 21.349 8.01843 21.2936C7.36157 21.2464 6.90535 21.201 6.64995 21.157C5.97717 21.0304 5.52881 20.7698 5.30508 20.3743C5.10833 20.0382 5.01006 19.5297 5.01006 18.8495C5.01006 18.3315 5.06313 17.9162 5.16947 17.6037C5.27581 17.2913 5.44716 17.054 5.68364 16.8918C6.03004 16.6426 6.47322 16.4964 7.01278 16.4527C7.46184 16.4133 7.95988 16.3931 8.50771 16.3931C9.37017 16.3931 9.98481 16.4431 10.3512 16.542C11.2455 16.7839 11.6924 17.4614 11.6924 18.5746C11.6924 18.6659 11.6858 18.8025 11.6726 18.9849Z" fill="#0054A5" style="fill:#0054A5;fill:color(display-p3 0.0000 0.3294 0.6471);fill-opacity:1;"/>
<path fill-rule="evenodd" clip-rule="evenodd" d="M22.8415 20.5055H24.2186C24.6552 20.4897 24.9207 20.4558 25.0163 20.403C25.1469 20.3307 25.2345 20.186 25.2781 19.9691C25.306 19.8247 25.3199 19.6099 25.3199 19.3247C25.3199 18.9752 25.2922 18.7162 25.2366 18.5471C25.1571 18.3102 24.9668 18.1658 24.6654 18.1134C24.6059 18.1055 24.4632 18.1013 24.2372 18.1013H22.8415V20.5055ZM20.6327 24.5551V16.2933H23.8521H24.3574H24.748C25.3124 16.2933 25.7432 16.3397 26.0391 16.4324C26.716 16.6459 27.1701 17.083 27.4028 17.7436C27.5228 18.0903 27.5828 18.6124 27.5828 19.3094C27.5828 20.1474 27.5162 20.7497 27.3845 21.1164C27.1205 21.8414 26.5773 22.2591 25.7567 22.3674C25.6603 22.3836 25.2498 22.3981 24.5251 22.4098L24.1585 22.4221H22.8415V24.5551H20.6327Z" fill="#0054A5" style="fill:#0054A5;fill:color(display-p3 0.0000 0.3294 0.6471);fill-opacity:1;"/>
<path fill-rule="evenodd" clip-rule="evenodd" d="M31.9023 21.5178L30.8673 17.9365L29.8631 21.5178H31.9023ZM32.3409 23.1274H29.3877L28.9909 24.5552H26.7056L29.1714 16.2933H32.5035L34.9996 24.5552H32.7624L32.3409 23.1274Z" fill="#0054A5" style="fill:#0054A5;fill:color(display-p3 0.0000 0.3294 0.6471);fill-opacity:1;"/>
<path fill-rule="evenodd" clip-rule="evenodd" d="M17.6751 17.3388C18.586 17.3388 19.3991 17.7613 19.9337 18.423L20.4098 17.3954C19.6651 16.6868 18.6517 16.25 17.5338 16.25C15.7933 16.25 14.3044 17.3082 13.6934 18.806H12.7649L12.2167 19.9892H13.4111C13.4022 20.0989 13.3963 20.2088 13.3963 20.3208C13.3963 20.4565 13.4034 20.5905 13.4166 20.7229H12.8164L12.2683 21.9064H13.7219C14.3503 23.3664 15.8206 24.3914 17.5338 24.3914C18.3972 24.3914 19.1983 24.131 19.8616 23.6862V22.2357C19.3274 22.8479 18.5461 23.2348 17.6751 23.2348C16.6568 23.2348 15.7612 22.7063 15.2397 21.9064H18.2835L18.8318 20.7229H14.7919C14.7711 20.5804 14.7599 20.4349 14.7599 20.2867C14.7599 20.1864 14.765 20.0872 14.7746 19.9892H19.1715L19.7196 18.806H15.1548C15.6597 17.929 16.599 17.3388 17.6751 17.3388Z" fill="#FEC10E" style="fill:#FEC10E;fill:color(display-p3 0.9961 0.7569 0.0549);fill-opacity:1;"/>
</svg>
