<svg width="40" height="30" viewBox="0 0 40 30" fill="none" xmlns="http://www.w3.org/2000/svg">
<rect width="40" height="30" rx="5" fill="#DE378C" style="fill:#DE378C;fill:color(display-p3 0.8706 0.2157 0.5490);fill-opacity:1;"/>
<path fill-rule="evenodd" clip-rule="evenodd" d="M15.8731 19.0752C15.8731 19.0752 15.7416 18.4545 15.7416 18.0459C15.7416 17.6373 15.8661 17.0103 15.8661 17.0103C16.3243 15.138 18.0035 13.7437 20.0001 13.7437C22.3482 13.7437 24.275 15.6683 24.275 18.0357V19.0768H18.0364C18.4048 19.8028 19.1499 20.2111 20.0091 20.2111H25.6173L25.625 14.0716C25.625 13.1563 24.8822 12.4074 23.9743 12.4074H16.0257C15.1178 12.4074 14.375 13.1336 14.375 14.049V22.0631C14.375 22.9784 15.1178 23.75 16.0257 23.75H23.9743C24.7891 23.75 25.4688 23.1602 25.6 22.3889H20.0091C18.0093 22.3889 16.3281 20.9521 15.8731 19.0752Z" fill="white" style="fill:white;fill-opacity:1;"/>
<path fill-rule="evenodd" clip-rule="evenodd" d="M19.8393 15.6482C19.0015 15.6482 18.2728 16.2147 17.9107 16.9445H21.7679C21.4058 16.2147 20.6772 15.6482 19.8393 15.6482Z" fill="white" style="fill:white;fill-opacity:1;"/>
<path fill-rule="evenodd" clip-rule="evenodd" d="M23.3749 9.84671C23.3749 7.86029 21.7915 6.25 19.8383 6.25C17.9175 6.25 16.3552 7.80763 16.3039 9.74853C16.3031 9.75673 16.3037 9.7647 16.3037 9.77312V10.854C16.3037 10.9833 16.4047 11.1111 16.5318 11.1111H17.833C17.9601 11.1111 18.0715 10.9833 18.0715 10.854V9.84671C18.0715 8.85477 18.864 8.04774 19.8393 8.04774C20.8147 8.04774 21.6071 8.85477 21.6071 9.84671V10.854C21.6071 10.9833 21.7102 11.1111 21.8373 11.1111H23.1385C23.2656 11.1111 23.3749 10.9833 23.3749 10.854V9.84671Z" fill="white" style="fill:white;fill-opacity:1;"/>
</svg>
