<svg width="40" height="30" viewBox="0 0 40 30" fill="none" xmlns="http://www.w3.org/2000/svg">
<rect width="40" height="30" rx="5" fill="#A0A3B2" style="fill:#A0A3B2;fill:color(display-p3 0.6275 0.6392 0.6980);fill-opacity:1;"/>
<path d="M14 9C14 7.89543 14.8954 7 16 7H24C25.1046 7 26 7.89543 26 9C26 9.55228 25.5523 10 25 10H15C14.4477 10 14 9.55228 14 9Z" fill="white" style="fill:white;fill-opacity:1;"/>
<path d="M14 21C14 20.4477 14.4477 20 15 20H25C25.5523 20 26 20.4477 26 21C26 22.1046 25.1046 23 24 23H16C14.8954 23 14 22.1046 14 21Z" fill="white" style="fill:white;fill-opacity:1;"/>
<path d="M12.8748 11.9784C12 12.4568 12 13.2267 12 14.7667V15.2333C12 16.7733 12 17.5432 12.8748 18.0216C13.7495 18.5 15.1575 18.5 17.9733 18.5H22.0267C24.8425 18.5 26.2505 18.5 27.1252 18.0216C28 17.5432 28 16.7733 28 15.2333V14.7667C28 13.2267 28 12.4568 27.1252 11.9784C26.2505 11.5 24.8425 11.5 22.0267 11.5H17.9733C15.1575 11.5 13.7495 11.5 12.8748 11.9784Z" fill="white" style="fill:white;fill-opacity:1;"/>
</svg>
