<svg width="40" height="40" viewBox="0 0 40 40" fill="none" xmlns="http://www.w3.org/2000/svg">
<rect width="40" height="40" rx="10" fill="#A0A3B2" style="fill:#A0A3B2;fill:color(display-p3 0.6275 0.6392 0.6980);fill-opacity:1;"/>
<path d="M11 11C11 9.34315 12.3431 8 14 8H26C27.6569 8 29 9.34315 29 11C29 11.8284 28.3284 12.5 27.5 12.5H12.5C11.6716 12.5 11 11.8284 11 11Z" fill="white" style="fill:white;fill-opacity:1;"/>
<path d="M11 29C11 28.1716 11.6716 27.5 12.5 27.5H27.5C28.3284 27.5 29 28.1716 29 29C29 30.6569 27.6569 32 26 32H14C12.3431 32 11 30.6569 11 29Z" fill="white" style="fill:white;fill-opacity:1;"/>
<path d="M9.31216 15.4676C8 16.1852 8 17.3401 8 19.65V20.35C8 22.6599 8 23.8148 9.31216 24.5324C10.6243 25.25 12.7362 25.25 16.96 25.25H23.04C27.2638 25.25 29.3757 25.25 30.6878 24.5324C32 23.8148 32 22.6599 32 20.35V19.65C32 17.3401 32 16.1852 30.6878 15.4676C29.3757 14.75 27.2638 14.75 23.04 14.75H16.96C12.7362 14.75 10.6243 14.75 9.31216 15.4676Z" fill="white" style="fill:white;fill-opacity:1;"/>
</svg>
