<svg width="56" height="42" viewBox="0 0 56 42" fill="none" xmlns="http://www.w3.org/2000/svg">
<rect width="56" height="42" rx="7" fill="#A0A3B2" style="fill:#A0A3B2;fill:color(display-p3 0.6275 0.6392 0.6980);fill-opacity:1;"/>
<path d="M19 12C19 10.3431 20.3431 9 22 9H34C35.6569 9 37 10.3431 37 12C37 12.8284 36.3284 13.5 35.5 13.5H20.5C19.6716 13.5 19 12.8284 19 12Z" fill="white" style="fill:white;fill-opacity:1;"/>
<path d="M19 30C19 29.1716 19.6716 28.5 20.5 28.5H35.5C36.3284 28.5 37 29.1716 37 30C37 31.6569 35.6569 33 34 33H22C20.3431 33 19 31.6569 19 30Z" fill="white" style="fill:white;fill-opacity:1;"/>
<path d="M17.3122 16.4676C16 17.1852 16 18.3401 16 20.65V21.35C16 23.6599 16 24.8148 17.3122 25.5324C18.6243 26.25 20.7362 26.25 24.96 26.25H31.04C35.2638 26.25 37.3757 26.25 38.6878 25.5324C40 24.8148 40 23.6599 40 21.35V20.65C40 18.3401 40 17.1852 38.6878 16.4676C37.3757 15.75 35.2638 15.75 31.04 15.75H24.96C20.7362 15.75 18.6243 15.75 17.3122 16.4676Z" fill="white" style="fill:white;fill-opacity:1;"/>
</svg>
