<svg width="40" height="40" viewBox="0 0 40 40" fill="none" xmlns="http://www.w3.org/2000/svg">
<g clip-path="url(#clip0_2180_1120)">
<rect width="40" height="40" rx="10" fill="url(#paint0_linear_2180_1120)" style=""/>
<path d="M-1 14H41V19H-1V14Z" fill="white" style="fill:white;fill-opacity:1;"/>
<g filter="url(#filter0_d_2180_1120)">
<path d="M17.5 17.3636H22.5V25L20 22.8182L17.5 25V17.3636Z" fill="white" style="fill:white;fill-opacity:1;"/>
</g>
<g filter="url(#filter1_d_2180_1120)">
<path d="M21.8513 13.8303L26.8513 11.1597C27.0408 11.0584 27.2576 11.0034 27.4794 11.0001C27.7011 10.9969 27.9199 11.0457 28.1131 11.1414C28.3064 11.2371 28.4673 11.3764 28.5792 11.5449C28.6911 11.7133 28.7501 11.905 28.75 12.1001V20.0821C28.75 20.2651 28.6981 20.4451 28.599 20.6059C28.5 20.7667 28.357 20.9033 28.1828 21.0032C28.0087 21.1031 27.809 21.1633 27.6018 21.1782C27.3946 21.1931 27.1865 21.1623 26.9963 21.0885L21.9963 19.1527C21.7741 19.0667 21.5853 18.9256 21.4528 18.7467C21.3203 18.5677 21.2498 18.3588 21.25 18.1452V14.7707C21.25 14.5817 21.3053 14.3959 21.4106 14.2312C21.5159 14.0664 21.6677 13.9284 21.8513 13.8303Z" fill="white" style="fill:white;fill-opacity:1;"/>
</g>
<g filter="url(#filter2_d_2180_1120)">
<path d="M18.1487 13.8303L13.1487 11.1597C12.9592 11.0584 12.7424 11.0034 12.5206 11.0001C12.2989 10.9969 12.0801 11.0457 11.8869 11.1414C11.6936 11.2371 11.5327 11.3764 11.4208 11.5449C11.3089 11.7133 11.2499 11.905 11.25 12.1001V20.0821C11.25 20.2651 11.3019 20.4451 11.401 20.6059C11.5 20.7667 11.643 20.9033 11.8172 21.0032C11.9913 21.1031 12.191 21.1633 12.3982 21.1782C12.6054 21.1931 12.8135 21.1623 13.0037 21.0885L18.0037 19.1527C18.2261 19.0666 18.415 18.9253 18.5476 18.7462C18.6801 18.5671 18.7504 18.3578 18.75 18.1441V14.7696C18.75 14.5806 18.6947 14.3948 18.5894 14.2301C18.4841 14.0653 18.3323 13.9273 18.1487 13.8292V13.8303Z" fill="white" style="fill:white;fill-opacity:1;"/>
</g>
<g filter="url(#filter3_d_2180_1120)">
<path d="M20 19.9091C22.0711 19.9091 23.75 18.1996 23.75 16.0909C23.75 13.9822 22.0711 12.2727 20 12.2727C17.9289 12.2727 16.25 13.9822 16.25 16.0909C16.25 18.1996 17.9289 19.9091 20 19.9091Z" fill="white" style="fill:white;fill-opacity:1;"/>
</g>
</g>
<defs>
<filter id="filter0_d_2180_1120" x="16.5" y="17.3636" width="7" height="9.63635" filterUnits="userSpaceOnUse" color-interpolation-filters="sRGB">
<feFlood flood-opacity="0" result="BackgroundImageFix"/>
<feColorMatrix in="SourceAlpha" type="matrix" values="0 0 0 0 0 0 0 0 0 0 0 0 0 0 0 0 0 0 127 0" result="hardAlpha"/>
<feOffset dy="1"/>
<feGaussianBlur stdDeviation="0.5"/>
<feColorMatrix type="matrix" values="0 0 0 0 0 0 0 0 0 0 0 0 0 0 0 0 0 0 0.2 0"/>
<feBlend mode="normal" in2="BackgroundImageFix" result="effect1_dropShadow_2180_1120"/>
<feBlend mode="normal" in="SourceGraphic" in2="effect1_dropShadow_2180_1120" result="shape"/>
</filter>
<filter id="filter1_d_2180_1120" x="20.25" y="11" width="9.5" height="12.1818" filterUnits="userSpaceOnUse" color-interpolation-filters="sRGB">
<feFlood flood-opacity="0" result="BackgroundImageFix"/>
<feColorMatrix in="SourceAlpha" type="matrix" values="0 0 0 0 0 0 0 0 0 0 0 0 0 0 0 0 0 0 127 0" result="hardAlpha"/>
<feOffset dy="1"/>
<feGaussianBlur stdDeviation="0.5"/>
<feColorMatrix type="matrix" values="0 0 0 0 0 0 0 0 0 0 0 0 0 0 0 0 0 0 0.2 0"/>
<feBlend mode="normal" in2="BackgroundImageFix" result="effect1_dropShadow_2180_1120"/>
<feBlend mode="normal" in="SourceGraphic" in2="effect1_dropShadow_2180_1120" result="shape"/>
</filter>
<filter id="filter2_d_2180_1120" x="10.25" y="11" width="9.5" height="12.1818" filterUnits="userSpaceOnUse" color-interpolation-filters="sRGB">
<feFlood flood-opacity="0" result="BackgroundImageFix"/>
<feColorMatrix in="SourceAlpha" type="matrix" values="0 0 0 0 0 0 0 0 0 0 0 0 0 0 0 0 0 0 127 0" result="hardAlpha"/>
<feOffset dy="1"/>
<feGaussianBlur stdDeviation="0.5"/>
<feColorMatrix type="matrix" values="0 0 0 0 0 0 0 0 0 0 0 0 0 0 0 0 0 0 0.2 0"/>
<feBlend mode="normal" in2="BackgroundImageFix" result="effect1_dropShadow_2180_1120"/>
<feBlend mode="normal" in="SourceGraphic" in2="effect1_dropShadow_2180_1120" result="shape"/>
</filter>
<filter id="filter3_d_2180_1120" x="15.25" y="12.2727" width="9.5" height="9.63635" filterUnits="userSpaceOnUse" color-interpolation-filters="sRGB">
<feFlood flood-opacity="0" result="BackgroundImageFix"/>
<feColorMatrix in="SourceAlpha" type="matrix" values="0 0 0 0 0 0 0 0 0 0 0 0 0 0 0 0 0 0 127 0" result="hardAlpha"/>
<feOffset dy="1"/>
<feGaussianBlur stdDeviation="0.5"/>
<feColorMatrix type="matrix" values="0 0 0 0 0 0 0 0 0 0 0 0 0 0 0 0 0 0 0.2 0"/>
<feBlend mode="normal" in2="BackgroundImageFix" result="effect1_dropShadow_2180_1120"/>
<feBlend mode="normal" in="SourceGraphic" in2="effect1_dropShadow_2180_1120" result="shape"/>
</filter>
<linearGradient id="paint0_linear_2180_1120" x1="40" y1="40" x2="1.564" y2="1.564" gradientUnits="userSpaceOnUse">
<stop stop-color="#0072FF" style="stop-color:#0072FF;stop-color:color(display-p3 0.0000 0.4471 1.0000);stop-opacity:1;"/>
<stop offset="1" stop-color="#00B2FF" style="stop-color:#00B2FF;stop-color:color(display-p3 0.0000 0.6980 1.0000);stop-opacity:1;"/>
</linearGradient>
<clipPath id="clip0_2180_1120">
<rect width="40" height="40" rx="10" fill="white" style="fill:white;fill-opacity:1;"/>
</clipPath>
</defs>
</svg>
