<svg width="32" height="32" viewBox="0 0 32 32" fill="none" xmlns="http://www.w3.org/2000/svg">
<rect width="32" height="32" rx="8" fill="#0F4CA1" style="fill:#0F4CA1;fill:color(display-p3 0.0588 0.2980 0.6314);fill-opacity:1;"/>
<path fill-rule="evenodd" clip-rule="evenodd" d="M17.25 22.1875H20.1343V17.546H20.1665C20.7116 18.5629 21.8015 18.9396 22.8109 18.9396C25.295 18.9396 26.625 16.84 26.625 14.3137C26.625 12.2474 25.3599 10 23.0518 10C21.7377 10 20.5192 10.5413 19.9425 11.7388H19.9103V10.1967H17.25V22.1875ZM23.6447 14.3797C23.6447 15.7415 22.9875 16.676 21.8984 16.676C20.9364 16.676 20.1343 15.7415 20.1343 14.4943C20.1343 13.2152 20.8401 12.2636 21.8984 12.2636C23.0197 12.2636 23.6447 13.2473 23.6447 14.3797ZM15.375 10.1936H12.726V11.7105H12.6942C12.0766 10.6779 11.0689 10 9.81815 10C7.18633 10 6 11.872 6 14.3743C6 16.8612 7.44605 18.6031 9.76975 18.6031C10.9395 18.6031 11.9142 18.1523 12.6123 17.1664H12.6453V17.6194C12.6453 19.2658 11.7358 20.0565 10.0458 20.0565C8.8271 20.0565 8.07974 19.7985 7.18633 19.3626L7.03973 21.6551C7.72237 21.8963 8.87606 22.1875 10.2732 22.1875C13.6853 22.1875 15.375 21.0732 15.375 17.6194V10.1936ZM9.02211 14.3256C9.02211 13.1799 9.59079 12.2276 10.6795 12.2276C11.9953 12.2276 12.5479 13.2759 12.5479 14.2126C12.5479 15.5045 11.7189 16.376 10.6795 16.376C9.80211 16.376 9.02211 15.6327 9.02211 14.3256Z" fill="#FFFFFE" style="fill:#FFFFFE;fill:color(display-p3 1.0000 1.0000 0.9961);fill-opacity:1;"/>
</svg>
