<svg width="24" height="24" viewBox="0 0 24 24" fill="none" xmlns="http://www.w3.org/2000/svg">
<rect width="24" height="24" rx="6" fill="#0F4CA1" style="fill:#0F4CA1;fill:color(display-p3 0.0588 0.2980 0.6314);fill-opacity:1;"/>
<path fill-rule="evenodd" clip-rule="evenodd" d="M12.9375 16.6406H15.1007V13.1595H15.1249C15.5337 13.9222 16.3511 14.2047 17.1082 14.2047C18.9712 14.2047 19.9688 12.63 19.9688 10.7353C19.9688 9.18556 19.0199 7.5 17.2889 7.5C16.3032 7.5 15.3894 7.90598 14.9569 8.8041H14.9327V7.64755H12.9375V16.6406ZM17.7335 10.7848C17.7335 11.8061 17.2406 12.507 16.4238 12.507C15.7023 12.507 15.1007 11.8061 15.1007 10.8707C15.1007 9.91138 15.6301 9.19772 16.4238 9.19772C17.2647 9.19772 17.7335 9.93549 17.7335 10.7848ZM11.5312 7.6452H9.54452V8.78291H9.52066C9.05743 8.00842 8.3017 7.5 7.36362 7.5C5.38975 7.5 4.5 8.90398 4.5 10.7807C4.5 12.6459 5.58454 13.9523 7.32731 13.9523C8.20461 13.9523 8.93566 13.6142 9.45926 12.8748H9.48394V13.2145C9.48394 14.4494 8.80185 15.0424 7.53434 15.0424C6.62033 15.0424 6.0598 14.8489 5.38975 14.522L5.2798 16.2413C5.79178 16.4222 6.65705 16.6406 7.70487 16.6406C10.2639 16.6406 11.5312 15.8049 11.5312 13.2145V7.6452ZM6.76658 10.7442C6.76658 9.88493 7.19309 9.17067 8.00961 9.17067C8.99644 9.17067 9.41092 9.95692 9.41092 10.6594C9.41092 11.6284 8.7892 12.282 8.00961 12.282C7.35158 12.282 6.76658 11.7245 6.76658 10.7442Z" fill="#FFFFFE" style="fill:#FFFFFE;fill:color(display-p3 1.0000 1.0000 0.9961);fill-opacity:1;"/>
</svg>
