<svg width="32" height="24" viewBox="0 0 32 24" fill="none" xmlns="http://www.w3.org/2000/svg">
<rect width="32" height="24" rx="4" fill="#0F4CA1" style="fill:#0F4CA1;fill:color(display-p3 0.0588 0.2980 0.6314);fill-opacity:1;"/>
<path fill-rule="evenodd" clip-rule="evenodd" d="M16.8182 17.5H19.2727V13.3107C19.7485 14.2286 20.7904 14.5686 21.6714 14.5686C23.8393 14.5686 25 12.6736 25 10.3934C25 8.52843 23.8959 6.5 21.8816 6.5C20.7347 6.5 19.7761 6.98857 19.2727 8.06938V6.5H16.8182V17.5ZM22.399 10.4529C22.399 11.6821 21.8254 12.5255 20.8749 12.5255C20.0354 12.5255 19.3354 11.6821 19.3354 10.5564C19.3354 9.4019 19.9513 8.54307 20.8749 8.54307C21.8535 8.54307 22.399 9.43091 22.399 10.4529Z" fill="#FFFFFE" style="fill:#FFFFFE;fill:color(display-p3 1.0000 1.0000 0.9961);fill-opacity:1;"/>
<path fill-rule="evenodd" clip-rule="evenodd" d="M15.1818 6.67474H12.87V8.04388H12.8422C12.3032 7.11184 11.4238 6.5 10.3322 6.5C8.03534 6.5 7 8.18958 7 10.4481C7 12.6926 8.26201 14.2648 10.29 14.2648C11.3108 14.2648 12.1615 13.858 12.7708 12.9681H12.7995V13.377C12.7995 14.863 12.0058 15.5766 10.5309 15.5766C9.46729 15.5766 8.81504 15.3438 8.03534 14.9504L7.9074 17.0195C8.50316 17.2371 9.51002 17.5 10.7293 17.5C13.7071 17.5 15.1818 16.4943 15.1818 13.377V6.67474ZM9.63747 10.4041C9.63747 9.37007 10.1338 8.51052 11.0839 8.51052C12.2322 8.51052 12.7145 9.4567 12.7145 10.3021C12.7145 11.4682 11.9911 12.2548 11.0839 12.2548C10.3182 12.2548 9.63747 11.5839 9.63747 10.4041Z" fill="#FFFFFE" style="fill:#FFFFFE;fill:color(display-p3 1.0000 1.0000 0.9961);fill-opacity:1;"/>
</svg>
