<svg width="32" height="24" viewBox="0 0 32 24" fill="none" xmlns="http://www.w3.org/2000/svg">
<rect x="0.5" y="0.5" width="31" height="23" rx="3.5" fill="white" style="fill:white;fill-opacity:1;"/>
<rect x="0.5" y="0.5" width="31" height="23" rx="3.5" stroke="#ECECF0" style="stroke:#ECECF0;stroke:color(display-p3 0.9255 0.9255 0.9412);stroke-opacity:1;"/>
<path d="M15.1682 11.8635V14.8119H14.2504V7.53119H16.6835C17.3001 7.53119 17.8259 7.74074 18.2561 8.15985C18.6959 8.57895 18.9158 9.09064 18.9158 9.69493C18.9158 10.3138 18.6959 10.8255 18.2561 11.2398C17.8307 11.654 17.3049 11.8587 16.6835 11.8587H15.1682V11.8635ZM15.1682 8.42788V10.9669H16.7026C17.0659 10.9669 17.3718 10.8402 17.6108 10.5916C17.8546 10.3431 17.9789 10.0409 17.9789 9.6998C17.9789 9.36355 17.8546 9.06628 17.6108 8.81774C17.3718 8.55946 17.0706 8.43275 16.7026 8.43275H15.1682V8.42788Z" fill="#3C4043" style="fill:#3C4043;fill:color(display-p3 0.2353 0.2510 0.2627);fill-opacity:1;"/>
<path d="M21.3157 9.66568C21.9944 9.66568 22.5298 9.85086 22.9218 10.2212C23.3138 10.5916 23.5097 11.0984 23.5097 11.7417V14.8119H22.635V14.1199H22.5967C22.2191 14.69 21.7124 14.9727 21.0814 14.9727C20.5413 14.9727 20.0919 14.8119 19.7287 14.4854C19.3654 14.1589 19.1837 13.7544 19.1837 13.267C19.1837 12.7505 19.3749 12.3411 19.7573 12.039C20.1397 11.732 20.6512 11.5809 21.287 11.5809C21.8319 11.5809 22.2812 11.6832 22.6302 11.8879V11.6735C22.6302 11.347 22.5059 11.0741 22.2526 10.845C21.9992 10.616 21.7029 10.5039 21.3635 10.5039C20.852 10.5039 20.4457 10.7232 20.1493 11.1667L19.3415 10.6501C19.786 9.99219 20.4457 9.66568 21.3157 9.66568ZM20.1302 13.2817C20.1302 13.5253 20.2306 13.73 20.4361 13.8908C20.6369 14.0516 20.8759 14.1345 21.1484 14.1345C21.5355 14.1345 21.8797 13.9883 22.1809 13.6959C22.482 13.4035 22.635 13.0624 22.635 12.6676C22.3482 12.4386 21.9514 12.3216 21.4399 12.3216C21.0671 12.3216 20.7564 12.4142 20.5078 12.5945C20.2545 12.7846 20.1302 13.0136 20.1302 13.2817Z" fill="#3C4043" style="fill:#3C4043;fill:color(display-p3 0.2353 0.2510 0.2627);fill-opacity:1;"/>
<path d="M28.5002 9.82651L25.4409 17H24.4944L25.6321 14.4903L23.6149 9.82651H24.6139L26.0671 13.4035H26.0862L27.5011 9.82651H28.5002Z" fill="#3C4043" style="fill:#3C4043;fill:color(display-p3 0.2353 0.2510 0.2627);fill-opacity:1;"/>
<path d="M11.5175 11.269C11.5175 10.9639 11.4908 10.672 11.441 10.3913H7.59399V11.9995L9.80959 12C9.71972 12.5351 9.43052 12.9912 8.9874 13.2953V14.3387H10.3062C11.0763 13.6121 11.5175 12.538 11.5175 11.269Z" fill="#4285F4" style="fill:#4285F4;fill:color(display-p3 0.2588 0.5216 0.9569);fill-opacity:1;"/>
<path d="M8.98791 13.2953C8.62079 13.5478 8.14804 13.6954 7.59498 13.6954C6.52662 13.6954 5.6203 12.9615 5.29573 11.9722H3.9353V13.0483C4.6093 14.4118 5.99459 15.3475 7.59498 15.3475C8.7011 15.3475 9.63036 14.9766 10.3067 14.3382L8.98791 13.2953Z" fill="#34A853" style="fill:#34A853;fill:color(display-p3 0.2039 0.6588 0.3255);fill-opacity:1;"/>
<path d="M5.16767 11.174C5.16767 10.8962 5.21308 10.6277 5.29577 10.3752V9.29922H3.93535C3.65667 9.86306 3.49988 10.4995 3.49988 11.174C3.49988 11.8484 3.65714 12.4849 3.93535 13.0487L5.29577 11.9727C5.21308 11.7203 5.16767 11.4518 5.16767 11.174Z" fill="#FABB05" style="fill:#FABB05;fill:color(display-p3 0.9804 0.7333 0.0196);fill-opacity:1;"/>
<path d="M7.59498 8.65205C8.19871 8.65205 8.73934 8.86404 9.16621 9.27826L10.335 8.08772C9.6251 7.41374 8.69967 7 7.59498 7C5.99506 7 4.6093 7.93567 3.9353 9.29922L5.29573 10.3752C5.6203 9.38597 6.52662 8.65205 7.59498 8.65205Z" fill="#E94235" style="fill:#E94235;fill:color(display-p3 0.9137 0.2588 0.2078);fill-opacity:1;"/>
</svg>
