<svg width="16" height="16" viewBox="0 0 16 16" fill="none" xmlns="http://www.w3.org/2000/svg">
<rect width="16" height="16" rx="4" fill="#FFF48D" style="fill:#FFF48D;fill:color(display-p3 1.0000 0.9569 0.5529);fill-opacity:1;"/>
<path d="M4.19167 2.73017V8.84333C4.19167 9.13599 4.43234 9.37532 4.72635 9.37532H8.39649C11.1712 9.37532 12.3736 7.82955 12.3736 5.77868C12.3736 3.72782 11.1707 2.19818 8.39604 2.19818H4.7259C4.4319 2.19818 4.19122 2.43751 4.19122 2.73017H4.19167Z" fill="white" style="fill:white;fill-opacity:1;"/>
<path d="M6.64813 3.69863V8.21582H8.62326C10.4169 8.21582 11.1945 7.20742 11.1945 5.78176C11.1945 4.35611 10.4164 3.35846 8.62326 3.35846H6.99009C6.80051 3.35846 6.64813 3.51263 6.64813 3.69908V3.69863Z" fill="#CC0066" style="fill:#CC0066;fill:color(display-p3 0.8000 0.0000 0.4000);fill-opacity:1;"/>
<path fill-rule="evenodd" clip-rule="evenodd" d="M5.20457 8.88857H8.39605C10.6387 8.88857 11.8762 7.7847 11.8762 5.78134C11.8762 4.62683 11.4244 2.68756 8.39605 2.68756H5.20457C4.92132 2.68756 4.69141 2.91613 4.69141 3.19849V8.37809C4.69141 8.65999 4.92132 8.88901 5.20457 8.88901V8.88857ZM4.86216 3.19849C4.86216 3.0098 5.01454 2.85787 5.20412 2.85787H8.3956C9.63034 2.85787 11.7045 3.23837 11.7045 5.78134C11.7045 7.67534 10.5285 8.71826 8.3956 8.71826H5.20412C5.01454 8.71826 4.86216 8.56677 4.86216 8.37764V3.19849Z" fill="#232323" style="fill:#232323;fill:color(display-p3 0.1373 0.1373 0.1373);fill-opacity:1;"/>
<path fill-rule="evenodd" clip-rule="evenodd" d="M7.62025 5.12474C7.56019 5.10323 7.49745 5.09247 7.42932 5.09247V5.08978H6.97711V6.18065H7.4347C7.51582 6.18065 7.58619 6.16452 7.64624 6.13763C7.7063 6.10805 7.75605 6.0704 7.79549 6.022C7.83493 5.97359 7.86361 5.91443 7.88423 5.84721C7.9026 5.77998 7.91291 5.70737 7.91291 5.6267C7.91291 5.53527 7.89991 5.45729 7.87616 5.39006C7.85016 5.32553 7.8161 5.26905 7.77442 5.22334C7.73005 5.18032 7.6803 5.14536 7.62025 5.12384V5.12474ZM7.51269 5.96597C7.47862 5.97673 7.44725 5.98211 7.41319 5.98211V5.9848H7.20658V5.29684H7.37375C7.43112 5.29684 7.47818 5.30491 7.51762 5.32104C7.55706 5.33718 7.58798 5.36407 7.61173 5.39365C7.63549 5.42323 7.65341 5.46356 7.66417 5.50659C7.67448 5.54961 7.67986 5.60071 7.67986 5.65449C7.67986 5.71634 7.67179 5.76474 7.65655 5.80777C7.64087 5.85079 7.6198 5.88306 7.59649 5.90995C7.57274 5.93684 7.54406 5.95566 7.51269 5.96642V5.96597Z" fill="white" style="fill:white;fill-opacity:1;"/>
<path d="M8.85677 5.09292V5.2946H8.297V5.52855H8.81195V5.71409H8.297V5.98031H8.86977V6.18199H8.06439V5.09113H8.85677V5.09381V5.09292Z" fill="white" style="fill:white;fill-opacity:1;"/>
<path fill-rule="evenodd" clip-rule="evenodd" d="M10.0543 6.18382L9.65677 5.09296H9.41341L9.01318 6.18382H9.24848L9.33229 5.94181H9.72982L9.81094 6.18382H10.0543ZM9.53666 5.36142L9.67021 5.76164H9.39548L9.53397 5.36142H9.53666Z" fill="white" style="fill:white;fill-opacity:1;"/>
<path d="M10.4335 5.09247V5.9821H10.9511V6.18378H10.2009V5.09292H10.4335V5.09247Z" fill="white" style="fill:white;fill-opacity:1;"/>
<path d="M5.73031 6.19991C6.01356 6.19991 6.24302 5.97045 6.24302 5.68675C6.24302 5.40305 6.01356 5.17358 5.73031 5.17358C5.44706 5.17358 5.21759 5.40305 5.21759 5.68675C5.21759 5.97045 5.44706 6.19991 5.73031 6.19991Z" fill="#232323" style="fill:#232323;fill:color(display-p3 0.1373 0.1373 0.1373);fill-opacity:1;"/>
<path d="M6.03548 8.25213C5.6384 8.25213 5.32019 7.90927 5.32019 7.48798V6.89145C5.32019 6.68081 5.47929 6.50781 5.67918 6.50781C5.87907 6.50781 6.03817 6.67812 6.03817 6.89145V8.25213H6.03548Z" fill="#232323" style="fill:#232323;fill:color(display-p3 0.1373 0.1373 0.1373);fill-opacity:1;"/>
<path d="M13.222 10.6239H3.3621C3.3128 10.6239 3.27246 10.5836 3.27246 10.5343C3.27246 10.485 3.3128 10.4446 3.3621 10.4446H13.222C13.2713 10.4446 13.3117 10.485 13.3117 10.5343C13.3117 10.5836 13.2713 10.6239 13.222 10.6239Z" fill="#1D1C1C" style="fill:#1D1C1C;fill:color(display-p3 0.1137 0.1098 0.1098);fill-opacity:1;"/>
<path d="M10.8727 12.8541C10.8727 12.2544 11.2993 11.7081 12.0362 11.7081C12.773 11.7081 13.2028 12.2548 13.2028 12.8541C13.2028 13.4533 12.7761 14.0001 12.0362 14.0001C11.2993 14.0001 10.8727 13.4533 10.8727 12.8541ZM12.5551 12.8541C12.5551 12.565 12.3647 12.2983 12.0362 12.2983C11.7076 12.2983 11.5172 12.5654 11.5172 12.8541C11.5172 13.1427 11.7108 13.4103 12.0362 13.4103C12.3615 13.4103 12.5551 13.1431 12.5551 12.8541Z" fill="#1D1C1C" style="fill:#1D1C1C;fill:color(display-p3 0.1137 0.1098 0.1098);fill-opacity:1;"/>
<path d="M10.4196 13.2798C10.6652 13.14 10.8126 12.8729 10.8126 12.578C10.8126 12.1401 10.4962 11.7672 10.005 11.7672H8.97375V13.9413H9.61241V13.3856H9.73207L10.0973 13.9413H10.8494L10.4196 13.2798ZM9.87639 12.8854H9.61241V12.2705H9.87952C10.0516 12.2705 10.1619 12.4103 10.1619 12.578C10.1619 12.7456 10.048 12.8854 9.87639 12.8854Z" fill="#1D1C1C" style="fill:#1D1C1C;fill:color(display-p3 0.1137 0.1098 0.1098);fill-opacity:1;"/>
<path d="M6.05881 11.765L5.67562 13.0606L5.30184 11.765H4.79316L4.41624 13.0606L4.03618 11.765H3.36212L4.13433 13.935H4.68918L5.04772 12.7536L5.40313 13.935H5.96066L6.73288 11.765H6.05881Z" fill="#1D1C1C" style="fill:#1D1C1C;fill:color(display-p3 0.1137 0.1098 0.1098);fill-opacity:1;"/>
<path d="M7.69912 13.4048H7.69732C7.45844 13.4048 7.29083 13.2605 7.21912 13.0696H8.84197C8.85497 12.9979 8.86169 12.9244 8.86169 12.85C8.86169 12.2521 8.43637 11.7067 7.69867 11.7062V12.2951C7.93889 12.2956 8.10472 12.4399 8.17598 12.6304H6.55536C6.54237 12.7021 6.53564 12.7756 6.53564 12.85C6.53564 13.4483 6.96141 13.9942 7.69688 13.9942H7.69867V13.4048H7.69912Z" fill="#1D1C1C" style="fill:#1D1C1C;fill:color(display-p3 0.1137 0.1098 0.1098);fill-opacity:1;"/>
<path d="M7.69732 13.9938C7.72242 13.9938 7.74662 13.9929 7.77127 13.992C7.92051 13.9844 8.05631 13.9539 8.17732 13.905C8.29833 13.8557 8.40455 13.7885 8.49463 13.7069C8.58472 13.6254 8.65956 13.5299 8.71738 13.4246C8.76981 13.3291 8.80836 13.2251 8.83256 13.1171H8.15626C8.14236 13.1458 8.12623 13.1736 8.10785 13.1991C8.08275 13.2345 8.05317 13.2664 8.01956 13.2937C7.98595 13.3215 7.9483 13.3448 7.90707 13.3627C7.86539 13.3807 7.82057 13.3932 7.77172 13.3999C7.74797 13.4031 7.72332 13.4049 7.69777 13.4049C7.54539 13.4049 7.42259 13.3461 7.33474 13.2543L6.89508 13.6989C7.09049 13.8795 7.36164 13.9933 7.69777 13.9933L7.69732 13.9938Z" fill="url(#paint0_linear_2180_490)" style=""/>
<path d="M7.69735 11.7058C7.07348 11.7058 6.67236 12.0984 6.56525 12.5824H7.23931C7.31998 12.4157 7.47864 12.2947 7.69735 12.2947C7.87169 12.2947 8.00704 12.37 8.09533 12.4838L8.53903 12.0352C8.34093 11.8344 8.05589 11.7058 7.6978 11.7058H7.69735Z" fill="url(#paint1_linear_2180_490)" style=""/>
<defs>
<linearGradient id="paint0_linear_2180_490" x1="8.5027" y1="12.7232" x2="7.49385" y2="13.9588" gradientUnits="userSpaceOnUse">
<stop offset="0.02" stop-color="#1D1C1C" stop-opacity="0" style="stop-color:none;stop-opacity:0;"/>
<stop offset="0.68" stop-color="#1D1C1C" style="stop-color:#1D1C1C;stop-color:color(display-p3 0.1137 0.1098 0.1098);stop-opacity:1;"/>
</linearGradient>
<linearGradient id="paint1_linear_2180_490" x1="6.74273" y1="12.9854" x2="7.77712" y2="11.9631" gradientUnits="userSpaceOnUse">
<stop offset="0.02" stop-color="#1D1C1C" stop-opacity="0" style="stop-color:none;stop-opacity:0;"/>
<stop offset="0.68" stop-color="#1D1C1C" style="stop-color:#1D1C1C;stop-color:color(display-p3 0.1137 0.1098 0.1098);stop-opacity:1;"/>
</linearGradient>
</defs>
</svg>
