<svg width="32" height="32" viewBox="0 0 32 32" fill="none" xmlns="http://www.w3.org/2000/svg">
<rect width="32" height="32" rx="8" fill="#E664A5" style="fill:#E664A5;fill:color(display-p3 0.9020 0.3922 0.6471);fill-opacity:1;"/>
<path d="M6 8.33333V23.3441C6 24.0753 6.60215 24.6344 7.29032 24.6344H16.2796C23.0753 24.6344 26 20.8495 26 15.8172C26 10.7849 23.0753 7 16.2796 7H7.33333C6.60215 7.04301 6 7.64516 6 8.33333Z" fill="white" style="fill:white;fill-opacity:1;"/>
<path d="M12.0216 10.7419V21.8387H16.8388C21.2259 21.8387 23.1184 19.3441 23.1184 15.8602C23.1184 12.5054 21.2259 9.92472 16.8388 9.92472H12.8388C12.4087 9.88171 12.0216 10.2688 12.0216 10.7419Z" fill="#CC0066" style="fill:#CC0066;fill:color(display-p3 0.8000 0.0000 0.4000);fill-opacity:1;"/>
<path d="M16.2796 23.4731H8.49463C7.80645 23.4731 7.24731 22.914 7.24731 22.2258V9.49463C7.24731 8.80645 7.80645 8.24731 8.49463 8.24731H16.2796C23.6774 8.24731 24.7957 13.0215 24.7957 15.8602C24.7957 20.7634 21.785 23.4731 16.2796 23.4731ZM8.49463 8.67742C8.02151 8.67742 7.67742 9.06452 7.67742 9.49463V22.2258C7.67742 22.6989 8.06452 23.043 8.49463 23.043H16.2796C21.4839 23.043 24.3656 20.4624 24.3656 15.8172C24.3656 9.58065 19.2903 8.63441 16.2796 8.63441L8.49463 8.67742Z" fill="black" style="fill:black;fill-opacity:1;"/>
<path d="M13.7419 14.3548C13.914 14.3548 14.086 14.3978 14.215 14.4409C14.3441 14.4839 14.4731 14.5699 14.6021 14.6989C14.6882 14.828 14.7742 14.957 14.8602 15.086C14.9032 15.2581 14.9462 15.4301 14.9462 15.6452C14.9462 15.8602 14.9032 16.0323 14.8602 16.1613C14.8172 16.3333 14.7312 16.4624 14.6451 16.5914C14.5591 16.7204 14.4301 16.8065 14.258 16.8925C14.129 16.9785 13.914 16.9785 13.7419 16.9785H12.5806V14.3118L13.7419 14.3548ZM13.6989 16.5054C13.7849 16.5054 13.871 16.5054 13.957 16.4624C14.043 16.4194 14.086 16.3763 14.172 16.3333C14.215 16.2473 14.3011 16.2043 14.3011 16.0753C14.3441 15.9892 14.3441 15.8602 14.3441 15.6882C14.3441 15.5591 14.3441 15.4301 14.3011 15.3441C14.258 15.2581 14.215 15.129 14.172 15.086C14.129 15 14.043 14.957 13.957 14.914C13.871 14.871 13.7419 14.871 13.6129 14.871H13.1828V16.5484L13.6989 16.5054Z" fill="white" style="fill:white;fill-opacity:1;"/>
<path d="M17.3119 14.3548V14.828H15.8926V15.4301H17.1829V15.8602H15.8926V16.5054H17.3119V16.9785H15.2904V14.3118L17.3119 14.3548Z" fill="white" style="fill:white;fill-opacity:1;"/>
<path d="M19.2904 14.3549L20.2797 17.0215H19.6775L19.4625 16.4194H18.4732L18.2582 17.0215H17.656L18.6453 14.3549C18.6883 14.3549 19.2904 14.3549 19.2904 14.3549ZM19.3334 15.9893L18.9893 15L18.6453 15.9893H19.3334Z" fill="white" style="fill:white;fill-opacity:1;"/>
<path d="M21.2257 14.3548V16.5054H22.516V16.9785H20.6235V14.3118C20.6665 14.3548 21.2257 14.3548 21.2257 14.3548Z" fill="white" style="fill:white;fill-opacity:1;"/>
<path d="M9.82796 16.8925C10.4931 16.8925 11.0323 16.3533 11.0323 15.6882C11.0323 15.0231 10.4931 14.4839 9.82796 14.4839C9.16284 14.4839 8.62366 15.0231 8.62366 15.6882C8.62366 16.3533 9.16284 16.8925 9.82796 16.8925Z" fill="black" style="fill:black;fill-opacity:1;"/>
<path d="M10.7743 21.8388C9.74201 21.8388 8.9248 21.0215 8.9248 19.9893V18.5269C8.9248 18.0108 9.35491 17.5807 9.87104 17.5807C10.3872 17.5807 10.8173 18.0108 10.8173 18.5269L10.7743 21.8388Z" fill="black" style="fill:black;fill-opacity:1;"/>
</svg>
