<svg width="24" height="24" viewBox="0 0 24 24" fill="none" xmlns="http://www.w3.org/2000/svg">
<rect width="24" height="24" rx="6" fill="#E664A5" style="fill:#E664A5;fill:color(display-p3 0.9020 0.3922 0.6471);fill-opacity:1;"/>
<path d="M4.5 6.25V17.5081C4.5 18.0565 4.95161 18.4758 5.46774 18.4758H12.2097C17.3065 18.4758 19.5 15.6371 19.5 11.8629C19.5 8.08871 17.3065 5.25 12.2097 5.25H5.5C4.95161 5.28226 4.5 5.73387 4.5 6.25Z" fill="white" style="fill:white;fill-opacity:1;"/>
<path d="M9.01617 8.05646V16.379H12.6291C15.9194 16.379 17.3388 14.5081 17.3388 11.8952C17.3388 9.37904 15.9194 7.44355 12.6291 7.44355H9.62908C9.3065 7.4113 9.01617 7.70162 9.01617 8.05646Z" fill="#CC0066" style="fill:#CC0066;fill:color(display-p3 0.8000 0.0000 0.4000);fill-opacity:1;"/>
<path d="M12.2097 17.6048H6.37097C5.85484 17.6048 5.43549 17.1855 5.43549 16.6694V7.12097C5.43549 6.60484 5.85484 6.18549 6.37097 6.18549H12.2097C17.7581 6.18549 18.5968 9.76613 18.5968 11.8952C18.5968 15.5726 16.3387 17.6048 12.2097 17.6048ZM6.37097 6.50807C6.01613 6.50807 5.75807 6.79839 5.75807 7.12097V16.6694C5.75807 17.0242 6.04839 17.2823 6.37097 17.2823H12.2097C16.1129 17.2823 18.2742 15.3468 18.2742 11.8629C18.2742 7.18549 14.4677 6.47581 12.2097 6.47581L6.37097 6.50807Z" fill="black" style="fill:black;fill-opacity:1;"/>
<path d="M10.3065 10.7661C10.4355 10.7661 10.5645 10.7984 10.6613 10.8307C10.7581 10.8629 10.8548 10.9274 10.9516 11.0242C11.0161 11.121 11.0806 11.2178 11.1452 11.3145C11.1774 11.4436 11.2097 11.5726 11.2097 11.7339C11.2097 11.8952 11.1774 12.0242 11.1452 12.121C11.1129 12.25 11.0484 12.3468 10.9839 12.4436C10.9194 12.5403 10.8226 12.6049 10.6936 12.6694C10.5968 12.7339 10.4355 12.7339 10.3065 12.7339H9.43549V10.7339L10.3065 10.7661ZM10.2742 12.379C10.3387 12.379 10.4032 12.379 10.4677 12.3468C10.5323 12.3145 10.5645 12.2823 10.629 12.25C10.6613 12.1855 10.7258 12.1532 10.7258 12.0565C10.7581 11.992 10.7581 11.8952 10.7581 11.7661C10.7581 11.6694 10.7581 11.5726 10.7258 11.5081C10.6936 11.4436 10.6613 11.3468 10.629 11.3145C10.5968 11.25 10.5323 11.2178 10.4677 11.1855C10.4032 11.1532 10.3065 11.1532 10.2097 11.1532H9.8871V12.4113L10.2742 12.379Z" fill="white" style="fill:white;fill-opacity:1;"/>
<path d="M12.9839 10.7661V11.121H11.9194V11.5726H12.8871V11.8952H11.9194V12.379H12.9839V12.7339H11.4678V10.7339L12.9839 10.7661Z" fill="white" style="fill:white;fill-opacity:1;"/>
<path d="M14.4678 10.7662L15.2097 12.7662H14.7581L14.5968 12.3146H13.8549L13.6936 12.7662H13.242L13.9839 10.7662C14.0162 10.7662 14.4678 10.7662 14.4678 10.7662ZM14.5001 11.992L14.242 11.25L13.9839 11.992H14.5001Z" fill="white" style="fill:white;fill-opacity:1;"/>
<path d="M15.9193 10.7661V12.379H16.887V12.7339H15.4677V10.7339C15.4999 10.7661 15.9193 10.7661 15.9193 10.7661Z" fill="white" style="fill:white;fill-opacity:1;"/>
<path d="M7.371 12.6694C7.86984 12.6694 8.27423 12.265 8.27423 11.7661C8.27423 11.2673 7.86984 10.8629 7.371 10.8629C6.87216 10.8629 6.46777 11.2673 6.46777 11.7661C6.46777 12.265 6.87216 12.6694 7.371 12.6694Z" fill="black" style="fill:black;fill-opacity:1;"/>
<path d="M8.0807 16.379C7.30651 16.379 6.6936 15.7661 6.6936 14.9919V13.8952C6.6936 13.5081 7.01618 13.1855 7.40328 13.1855C7.79038 13.1855 8.11296 13.5081 8.11296 13.8952L8.0807 16.379Z" fill="black" style="fill:black;fill-opacity:1;"/>
</svg>
