<svg width="56" height="42" viewBox="0 0 56 42" fill="none" xmlns="http://www.w3.org/2000/svg">
<rect width="56" height="42" rx="7" fill="#E664A5" style="fill:#E664A5;fill:color(display-p3 0.9020 0.3922 0.6471);fill-opacity:1;"/>
<g clip-path="url(#clip0_4456_443)">
<path d="M41.816 14.9108H26.6796C28.0239 16.4868 28.6525 18.5982 28.6525 20.9811C28.6525 23.3641 28.0203 25.5094 26.6687 27.093H41.8124C46.1251 27.093 47.9963 24.5631 47.9963 20.9887C47.9963 17.4143 46.1251 14.9108 41.8124 14.9108H41.816Z" fill="black" style="fill:black;fill-opacity:1;"/>
<path d="M9 13.3347V28.6653C9 29.4005 9.5777 30 10.2862 30H19.1151C25.7895 30 28.6817 26.124 28.6817 20.9811C28.6817 15.8383 25.7859 12 19.1115 12H10.2862C9.5777 12 9 12.5995 9 13.3347Z" fill="white" style="fill:white;fill-opacity:1;"/>
<path d="M14.9077 15.7629V27.093H19.6601C23.9728 27.093 25.844 24.5631 25.844 20.9887C25.844 17.4143 23.9728 14.9108 19.6601 14.9108H15.7325C15.2747 14.9108 14.9077 15.2991 14.9077 15.7629Z" fill="#CC0066" style="fill:#CC0066;fill:color(display-p3 0.8000 0.0000 0.4000);fill-opacity:1;"/>
<path d="M19.1115 28.7784H11.438C10.7549 28.7784 10.2026 28.2053 10.2026 27.4965V14.5073C10.2026 13.7985 10.7549 13.2254 11.438 13.2254H19.1152C26.4 13.2254 27.4863 18.0892 27.4863 20.9849C27.4863 26.0071 24.5106 28.7784 19.1152 28.7784H19.1115ZM11.438 13.6552C10.9802 13.6552 10.6168 14.036 10.6168 14.5073V27.4965C10.6168 27.9715 10.9838 28.3523 11.438 28.3523H19.1152C24.2454 28.3523 27.0758 25.7357 27.0758 20.9849C27.0758 14.6054 22.0872 13.6515 19.1152 13.6515H11.438V13.6552Z" fill="black" style="fill:black;fill-opacity:1;"/>
<path d="M16.5791 19.4579C16.7462 19.4579 16.8988 19.4843 17.0478 19.5371C17.1967 19.5899 17.3166 19.6766 17.4256 19.7822C17.5274 19.8953 17.6109 20.0348 17.6763 20.1969C17.7345 20.3628 17.7672 20.5589 17.7672 20.7851C17.7672 20.9849 17.7417 21.1659 17.6981 21.3318C17.6473 21.4977 17.5746 21.6448 17.4801 21.7654C17.3857 21.8861 17.2621 21.9803 17.1132 22.052C16.9642 22.1198 16.7934 22.1575 16.5936 22.1575H15.4673V19.4504H16.5791V19.4579ZM16.5391 21.6674C16.6227 21.6674 16.699 21.6523 16.7825 21.6259C16.8588 21.5995 16.9315 21.5543 16.9896 21.4864C17.0478 21.4185 17.0986 21.3394 17.1386 21.2338C17.1786 21.1282 17.1967 21.0076 17.1967 20.853C17.1967 20.721 17.1822 20.5928 17.1568 20.4872C17.1313 20.3817 17.0877 20.2799 17.0296 20.2082C16.9715 20.1366 16.8952 20.0687 16.7971 20.0273C16.699 19.9858 16.5863 19.9669 16.4446 19.9669H16.0341V21.6749H16.5427V21.6674H16.5391Z" fill="white" style="fill:white;fill-opacity:1;"/>
<path d="M20.0888 19.4579V19.9594H18.7118V20.54H19.9798V21H18.7118V21.6599H20.1215V22.1613H18.1414V19.4542H20.0888V19.4617V19.4579Z" fill="white" style="fill:white;fill-opacity:1;"/>
<path d="M22.058 19.4579L23.0354 22.1651H22.4359L22.236 21.5656H21.2587L21.0516 22.1651H20.4739L21.4585 19.4579H22.058ZM22.0907 21.1207L21.7637 20.1253H21.7564L21.4149 21.1207H22.0907Z" fill="white" style="fill:white;fill-opacity:1;"/>
<path d="M23.9657 19.4579V21.6674H25.2373V22.1689H23.3916V19.4617H23.962L23.9657 19.4579Z" fill="white" style="fill:white;fill-opacity:1;"/>
<path d="M12.7605 22.0633C13.4247 22.0633 13.9631 21.5045 13.9631 20.8153C13.9631 20.126 13.4247 19.5673 12.7605 19.5673C12.0963 19.5673 11.5579 20.126 11.5579 20.8153C11.5579 21.5045 12.0963 22.0633 12.7605 22.0633Z" fill="black" style="fill:black;fill-opacity:1;"/>
<path d="M13.6689 27.093C12.6589 27.093 11.8486 26.2446 11.8486 25.204V23.7298C11.8486 23.2094 12.2519 22.7834 12.7606 22.7834C13.262 22.7834 13.6726 23.2019 13.6726 23.7298V27.093H13.6653H13.6689Z" fill="black" style="fill:black;fill-opacity:1;"/>
<path d="M31.999 17.9196C31.7083 17.9196 31.483 17.8479 31.3159 17.7046C31.1524 17.5614 31.0688 17.354 31.0688 17.0863C31.0688 16.845 31.1524 16.6489 31.3195 16.4943C31.4867 16.3398 31.7119 16.2643 31.9953 16.2643C32.2787 16.2643 32.5113 16.336 32.6711 16.4793C32.831 16.6225 32.9146 16.8261 32.9146 17.0863C32.9146 17.3465 32.831 17.535 32.6675 17.6896C32.504 17.8442 32.2787 17.9196 31.9953 17.9196H31.999ZM31.2251 24.2991V18.9715H32.7729V24.2991H31.2251Z" fill="white" style="fill:white;fill-opacity:1;"/>
<path d="M34.219 24.2953V18.9677H35.6868L35.7341 20.0499L35.4252 20.1705C35.4979 19.9292 35.6251 19.7105 35.8067 19.5145C35.9884 19.3184 36.21 19.16 36.468 19.0394C36.726 18.9187 36.9948 18.8584 37.2782 18.8584C37.6633 18.8584 37.9903 18.9413 38.2556 19.1035C38.5208 19.2656 38.7206 19.5107 38.8551 19.8349C38.9895 20.1592 39.0585 20.5551 39.0585 21.0226V24.2916H37.5035V21.1508C37.5035 20.9359 37.4744 20.7587 37.4163 20.6192C37.3581 20.4797 37.271 20.3741 37.1511 20.3025C37.0312 20.2308 36.8858 20.2007 36.7114 20.2082C36.577 20.2082 36.4498 20.2308 36.3336 20.2723C36.2173 20.3176 36.1192 20.3779 36.0356 20.4646C35.9521 20.5475 35.8867 20.6418 35.8358 20.7512C35.7849 20.8605 35.7631 20.9736 35.7631 21.1018V24.2916H34.2153L34.219 24.2953Z" fill="white" style="fill:white;fill-opacity:1;"/>
<path d="M44.6102 21.0905C44.4939 20.819 44.3341 20.5852 44.127 20.3816C43.9199 20.1818 43.6837 20.0234 43.4221 19.9103C43.2441 19.8349 43.0515 19.7934 42.8553 19.767L44.592 17.8328L44.2941 17.2107H40.1376V18.6435L42.3067 18.6887L40.8715 20.3062L41.2276 21.2978C41.3547 21.23 41.4819 21.1772 41.6054 21.1357C41.729 21.0942 41.8452 21.0641 41.9542 21.0414C42.0632 21.0188 42.1686 21.0075 42.2631 21.0075C42.4774 21.0075 42.6591 21.0452 42.8081 21.1169C42.957 21.1885 43.0769 21.2978 43.1569 21.4411C43.2368 21.5844 43.2768 21.7616 43.2768 21.969C43.2768 22.1613 43.2295 22.3385 43.1351 22.4893C43.0406 22.6439 42.9207 22.7608 42.7681 22.8437C42.6155 22.9267 42.452 22.9681 42.2703 22.9681C42.0887 22.9681 41.9179 22.938 41.7544 22.8739C41.5909 22.8098 41.431 22.708 41.2821 22.5685C41.1295 22.429 40.9841 22.2404 40.8424 22.0067L39.6616 22.7985C39.9959 23.3791 40.3701 23.7901 40.777 24.0276C41.1876 24.2652 41.6636 24.382 42.2122 24.382C42.6882 24.382 43.1205 24.2765 43.5129 24.0616C43.9017 23.8466 44.2105 23.5601 44.4394 23.1944C44.6683 22.8286 44.781 22.4139 44.781 21.9463C44.781 21.6372 44.7228 21.3506 44.6066 21.0791L44.6102 21.0905Z" fill="white" style="fill:white;fill-opacity:1;"/>
</g>
<defs>
<clipPath id="clip0_4456_443">
<rect width="39" height="18" fill="white" style="fill:white;fill-opacity:1;" transform="translate(9 12)"/>
</clipPath>
</defs>
</svg>
