<svg width="32" height="32" viewBox="0 0 32 32" fill="none" xmlns="http://www.w3.org/2000/svg">
<rect width="32" height="32" rx="8" fill="#001C5D" style="fill:#001C5D;fill:color(display-p3 0.0000 0.1098 0.3647);fill-opacity:1;"/>
<g clip-path="url(#clip0_316_33)">
<path d="M6.79998 13.1636C6.13452 13.1636 5.59998 13.7091 5.59998 14.3636V20.7236C5.59998 21.3891 6.13452 21.9236 6.79998 21.9236C7.46543 21.9236 7.99998 21.3891 7.99998 20.7236V14.3636C7.99998 13.7091 7.46543 13.1636 6.79998 13.1636Z" fill="#33EBC7" style="fill:#33EBC7;fill:color(display-p3 0.2000 0.9216 0.7804);fill-opacity:1;"/>
<path d="M6.79998 12.4109C7.46543 12.4109 7.99998 11.8764 7.99998 11.2109C7.99998 10.5455 7.46543 10.0109 6.79998 10.0109C6.13452 10.0109 5.59998 10.5455 5.59998 11.2109C5.59998 11.8764 6.13452 12.4109 6.79998 12.4109Z" fill="#33EBC7" style="fill:#33EBC7;fill:color(display-p3 0.2000 0.9216 0.7804);fill-opacity:1;"/>
<path d="M13.9127 13.1527C12.7563 13.1527 12.0145 13.5891 11.5563 14.0145C11.4145 13.8836 11.2509 13.7636 11.0872 13.6654C11 13.6 10.9018 13.5454 10.7927 13.5018C10.6618 13.4473 10.52 13.4254 10.3672 13.4254C9.70178 13.4254 9.16724 13.96 9.16724 14.6254C9.16724 15.0836 9.41815 15.4763 9.78905 15.6836C9.79996 15.6836 9.79996 15.6945 9.81087 15.6945C9.88724 15.7382 9.95269 15.7927 9.99633 15.8363C10.3018 16.1527 10.4109 16.7091 10.4327 17.0473C10.4327 17.1345 10.4327 17.2218 10.4436 17.2873V20.7127C10.4436 21.3782 10.9781 21.9236 11.6436 21.9236C12.3091 21.9236 12.8436 21.3891 12.8436 20.7236V17.2545V16.7309V16.72C12.8436 16.0763 13.3672 15.5527 14.0109 15.5527C14.6545 15.5527 15.1781 16.0763 15.1781 16.72V16.7309V17.2327C15.1781 17.2436 15.1781 17.2545 15.1781 17.2763V20.7236C15.1781 21.3891 15.7127 21.9236 16.3781 21.9236C17.0436 21.9236 17.5781 21.3891 17.5781 20.7236V17.3418C17.5781 17.32 17.5781 17.2873 17.5781 17.2436C17.5781 16.7745 17.4909 15.2473 16.4654 14.1782C15.8436 13.5127 14.9491 13.1527 13.9127 13.1527Z" fill="#33EBC7" style="fill:#33EBC7;fill:color(display-p3 0.2000 0.9216 0.7804);fill-opacity:1;"/>
<path d="M26.5999 15.8255C26.6327 15.7818 26.6763 15.7382 26.709 15.6945C26.7309 15.6727 26.7418 15.64 26.7636 15.6182C26.8072 15.5527 26.8509 15.4982 26.8945 15.4327C26.8945 15.4218 26.9054 15.4218 26.9054 15.4109C26.9709 15.3236 27.0254 15.2255 27.069 15.1164V15.1055C27.2981 14.6255 27.4181 14.0691 27.4181 13.4691C27.4181 12.3127 26.9818 11.5709 26.5563 11.1127C26.0109 10.5673 25.3454 10 23.4145 10H19.8581C19.1927 10 18.6472 10.5345 18.6472 11.2C18.6472 11.8655 19.1818 12.4 19.8472 12.4H23.3163H23.8399H23.8509C24.4945 12.4 25.0181 12.9236 25.0181 13.5673C25.0181 14.1673 24.5709 14.6582 24.0036 14.7236C23.8618 14.7345 23.7199 14.7345 23.5563 14.7345H23.349C23.3381 14.7345 23.3272 14.7345 23.3054 14.7345H19.8581C19.1927 14.7345 18.6581 15.2691 18.6581 15.9345C18.6581 16.6 19.1927 17.1345 19.8581 17.1345H23.3272H23.8509H23.8618C24.5054 17.1345 25.029 17.6582 25.029 18.3018C25.029 18.9455 24.5054 19.4691 23.8618 19.4691H23.8509H23.349C23.3381 19.4691 23.3272 19.4691 23.3054 19.4691H19.8581C19.1927 19.4691 18.6581 20.0036 18.6581 20.6691C18.6581 21.3345 19.1927 21.8691 19.8581 21.8691H23.2399C23.2618 21.8691 23.2945 21.8691 23.3381 21.8691C23.8072 21.8691 25.3345 21.7818 26.4036 20.7564C27.0799 20.1127 27.4399 19.2182 27.4399 18.1818C27.4399 17.0255 27.0036 16.2836 26.5781 15.8255C26.5672 15.8582 26.589 15.8473 26.5999 15.8255Z" fill="#33EBC7" style="fill:#33EBC7;fill:color(display-p3 0.2000 0.9216 0.7804);fill-opacity:1;"/>
</g>
<defs>
<clipPath id="clip0_316_33">
<rect width="21.8182" height="12" fill="white" style="fill:white;fill-opacity:1;" transform="translate(5.59998 10)"/>
</clipPath>
</defs>
</svg>
