<svg width="32" height="24" viewBox="0 0 32 24" fill="none" xmlns="http://www.w3.org/2000/svg">
<rect width="32" height="24" rx="4" fill="#001C5D" style="fill:#001C5D;fill:color(display-p3 0.0000 0.1098 0.3647);fill-opacity:1;"/>
<path d="M6.20879 9.18391C5.53847 9.18391 5 9.73286 5 10.3916V16.7923C5 17.4621 5.53847 18 6.20879 18C6.87912 18 7.41758 17.4621 7.41758 16.7923V10.3916C7.41758 9.73286 6.87912 9.18391 6.20879 9.18391Z" fill="#33EBC7" style="fill:#33EBC7;fill:color(display-p3 0.2000 0.9216 0.7804);fill-opacity:1;"/>
<path d="M6.20879 8.42636C6.87912 8.42636 7.41758 7.88838 7.41758 7.21867C7.41758 6.54895 6.87912 6.01098 6.20879 6.01098C5.53847 6.01098 5 6.54895 5 7.21867C5 7.88838 5.53847 8.42636 6.20879 8.42636Z" fill="#33EBC7" style="fill:#33EBC7;fill:color(display-p3 0.2000 0.9216 0.7804);fill-opacity:1;"/>
<path d="M13.3736 9.17293C12.2088 9.17293 11.4615 9.61209 11 10.0402C10.8571 9.90851 10.6923 9.78775 10.5275 9.68894C10.4396 9.62307 10.3406 9.56817 10.2307 9.52426C10.0989 9.46936 9.95603 9.4474 9.80218 9.4474C9.13186 9.4474 8.59339 9.98537 8.59339 10.6551C8.59339 11.1162 8.84614 11.5115 9.21977 11.72C9.23076 11.72 9.23076 11.731 9.24175 11.731C9.31867 11.775 9.38461 11.8298 9.42856 11.8738C9.73626 12.1921 9.84614 12.7521 9.86812 13.0925C9.86812 13.1802 9.86812 13.2681 9.8791 13.334V16.7813C9.8791 17.4511 10.4176 18 11.0879 18C11.7583 18 12.2967 17.4621 12.2967 16.7923V12.7631C12.2967 12.1153 12.8242 11.5883 13.4725 11.5883C14.1208 11.5883 14.6484 12.1153 14.6484 12.7631V13.279C14.6484 13.29 14.6484 13.301 14.6484 13.323V16.7923C14.6484 17.4621 15.1868 18 15.8572 18C16.5274 18 17.066 17.4621 17.066 16.7923V13.3888C17.066 13.3669 17.066 13.334 17.066 13.29C17.066 12.8179 16.978 11.2809 15.945 10.205C15.3186 9.53524 14.4176 9.17293 13.3736 9.17293Z" fill="#33EBC7" style="fill:#33EBC7;fill:color(display-p3 0.2000 0.9216 0.7804);fill-opacity:1;"/>
<path d="M26.1538 11.8628C26.1868 11.8188 26.2307 11.775 26.2637 11.731C26.2857 11.709 26.2967 11.6761 26.3186 11.6542C26.3626 11.5883 26.4066 11.5334 26.4505 11.4675C26.4505 11.4565 26.4615 11.4565 26.4615 11.4456C26.5275 11.3577 26.5824 11.259 26.6264 11.1492V11.1382C26.8572 10.6551 26.978 10.0952 26.978 9.49132C26.978 8.32755 26.5384 7.58098 26.1098 7.11986C25.5604 6.5709 24.8901 6 22.945 6H19.3627C18.6923 6 18.1428 6.53797 18.1428 7.20769C18.1428 7.8774 18.6813 8.41538 19.3516 8.41538H23.3846C24.0329 8.41538 24.5605 8.94237 24.5605 9.59013C24.5605 10.194 24.1099 10.688 23.5384 10.7539C23.3956 10.7648 23.2527 10.7648 23.0878 10.7648H22.8791C22.8682 10.7648 22.8571 10.7648 22.8351 10.7648H19.3627C18.6923 10.7648 18.1539 11.3029 18.1539 11.9725C18.1539 12.6423 18.6923 13.1802 19.3627 13.1802H23.3956C24.0439 13.1802 24.5714 13.7073 24.5714 14.355C24.5714 15.0028 24.0439 15.5298 23.3956 15.5298H22.8791C22.8682 15.5298 22.8571 15.5298 22.8351 15.5298H19.3627C18.6923 15.5298 18.1539 16.0677 18.1539 16.7375C18.1539 17.4071 18.6923 17.9452 19.3627 17.9452H22.7692C22.7912 17.9452 22.8241 17.9452 22.8681 17.9452C23.3406 17.9452 24.8791 17.8573 25.956 16.8253C26.6374 16.1775 27 15.2773 27 14.2342C27 13.0705 26.5604 12.3239 26.1319 11.8628C26.1208 11.8957 26.1429 11.8848 26.1538 11.8628Z" fill="#33EBC7" style="fill:#33EBC7;fill:color(display-p3 0.2000 0.9216 0.7804);fill-opacity:1;"/>
</svg>
