<svg width="24" height="24" viewBox="0 0 24 24" fill="none" xmlns="http://www.w3.org/2000/svg">
<rect width="24" height="24" rx="6" fill="#001C5D" style="fill:#001C5D;fill:color(display-p3 0.0000 0.1098 0.3647);fill-opacity:1;"/>
<g clip-path="url(#clip0_1857_1067)">
<path d="M5.09995 9.87274C4.60086 9.87274 4.19995 10.2818 4.19995 10.7727V15.5427C4.19995 16.0418 4.60086 16.4427 5.09995 16.4427C5.59904 16.4427 5.99995 16.0418 5.99995 15.5427V10.7727C5.99995 10.2818 5.59904 9.87274 5.09995 9.87274Z" fill="#33EBC7" style="fill:#33EBC7;fill:color(display-p3 0.2000 0.9216 0.7804);fill-opacity:1;"/>
<path d="M5.09995 9.30818C5.59904 9.30818 5.99995 8.90727 5.99995 8.40818C5.99995 7.90909 5.59904 7.50818 5.09995 7.50818C4.60086 7.50818 4.19995 7.90909 4.19995 8.40818C4.19995 8.90727 4.60086 9.30818 5.09995 9.30818Z" fill="#33EBC7" style="fill:#33EBC7;fill:color(display-p3 0.2000 0.9216 0.7804);fill-opacity:1;"/>
<path d="M10.4345 9.86456C9.56718 9.86456 9.01082 10.1918 8.66718 10.5109C8.56082 10.4127 8.43809 10.3227 8.31537 10.2491C8.24991 10.2 8.17628 10.1591 8.09446 10.1264C7.99628 10.0855 7.88991 10.0691 7.77537 10.0691C7.27628 10.0691 6.87537 10.47 6.87537 10.9691C6.87537 11.3127 7.06355 11.6073 7.34173 11.7627C7.34991 11.7627 7.34991 11.7709 7.35809 11.7709C7.41537 11.8037 7.46446 11.8446 7.49718 11.8773C7.72628 12.1146 7.80809 12.5318 7.82446 12.7855C7.82446 12.8509 7.82446 12.9164 7.83264 12.9655V15.5346C7.83264 16.0337 8.23355 16.4427 8.73264 16.4427C9.23173 16.4427 9.63264 16.0418 9.63264 15.5427V12.9409V12.5482V12.54C9.63264 12.0573 10.0254 11.6646 10.5081 11.6646C10.9908 11.6646 11.3835 12.0573 11.3835 12.54V12.5482V12.9246C11.3835 12.9327 11.3835 12.9409 11.3835 12.9573V15.5427C11.3835 16.0418 11.7845 16.4427 12.2835 16.4427C12.7826 16.4427 13.1835 16.0418 13.1835 15.5427V13.0064C13.1835 12.99 13.1835 12.9655 13.1835 12.9327C13.1835 12.5809 13.1181 11.4355 12.349 10.6337C11.8826 10.1346 11.2117 9.86456 10.4345 9.86456Z" fill="#33EBC7" style="fill:#33EBC7;fill:color(display-p3 0.2000 0.9216 0.7804);fill-opacity:1;"/>
<path d="M19.9499 11.8691C19.9744 11.8364 20.0072 11.8036 20.0317 11.7709C20.0481 11.7545 20.0563 11.73 20.0726 11.7136C20.1054 11.6645 20.1381 11.6236 20.1708 11.5745C20.1708 11.5664 20.179 11.5664 20.179 11.5582C20.2281 11.4927 20.269 11.4191 20.3017 11.3373V11.3291C20.4735 10.9691 20.5635 10.5518 20.5635 10.1018C20.5635 9.23455 20.2363 8.67818 19.9172 8.33455C19.5081 7.92545 19.009 7.5 17.5608 7.5H14.8935C14.3944 7.5 13.9854 7.90091 13.9854 8.4C13.9854 8.89909 14.3863 9.3 14.8854 9.3H17.4872H17.8799H17.8881C18.3708 9.3 18.7635 9.69273 18.7635 10.1755C18.7635 10.6255 18.4281 10.9936 18.0026 11.0427C17.8963 11.0509 17.7899 11.0509 17.6672 11.0509H17.5117C17.5035 11.0509 17.4954 11.0509 17.479 11.0509H14.8935C14.3944 11.0509 13.9935 11.4518 13.9935 11.9509C13.9935 12.45 14.3944 12.8509 14.8935 12.8509H17.4954H17.8881H17.8963C18.379 12.8509 18.7717 13.2436 18.7717 13.7264C18.7717 14.2091 18.379 14.6018 17.8963 14.6018H17.8881H17.5117C17.5035 14.6018 17.4954 14.6018 17.479 14.6018H14.8935C14.3944 14.6018 13.9935 15.0027 13.9935 15.5018C13.9935 16.0009 14.3944 16.4018 14.8935 16.4018H17.4299C17.4463 16.4018 17.4708 16.4018 17.5035 16.4018C17.8554 16.4018 19.0008 16.3364 19.8026 15.5673C20.3099 15.0845 20.5799 14.4136 20.5799 13.6364C20.5799 12.7691 20.2526 12.2127 19.9335 11.8691C19.9254 11.8936 19.9417 11.8855 19.9499 11.8691Z" fill="#33EBC7" style="fill:#33EBC7;fill:color(display-p3 0.2000 0.9216 0.7804);fill-opacity:1;"/>
</g>
<defs>
<clipPath id="clip0_1857_1067">
<rect width="16.3636" height="9" fill="white" style="fill:white;fill-opacity:1;" transform="translate(4.19995 7.5)"/>
</clipPath>
</defs>
</svg>
