<svg width="32" height="32" viewBox="0 0 32 32" fill="none" xmlns="http://www.w3.org/2000/svg">
<rect width="32" height="32" rx="8" fill="#F8F9FE" style="fill:#F8F9FE;fill:color(display-p3 0.9725 0.9765 0.9961);fill-opacity:1;"/>
<g clip-path="url(#clip0_3586_711)">
<path fill-rule="evenodd" clip-rule="evenodd" d="M14.959 20.3718C15.1408 20.3718 15.2873 20.2255 15.2873 20.0438C15.2873 19.8622 15.1408 19.7158 14.959 19.7158C14.7772 19.7158 14.6307 19.8622 14.6307 20.0438C14.6307 20.2255 14.7772 20.3718 14.959 20.3718ZM7.12916 22.3929C7.20067 22.3929 7.25833 22.3351 7.25833 22.2637V20.6101C7.25833 20.5387 7.20067 20.4809 7.12916 20.4809C7.05766 20.4813 7 20.4234 7 20.352V20.0593C7 19.9879 7.05766 19.9301 7.12916 19.9301H8.35238C8.97706 19.9301 9.30882 20.3004 9.30882 20.7782C9.30882 21.0107 9.17081 21.2219 8.9859 21.3294V21.3554C9.20118 21.4586 9.40377 21.6826 9.40377 22.0184C9.40377 22.6041 8.95169 22.9441 8.44311 22.9441H7.12916C7.05766 22.9441 7 22.8863 7 22.8149V22.5222C7 22.4508 7.05766 22.3929 7.12916 22.3929ZM8.34393 21.1314C8.53767 21.1314 8.66684 20.9936 8.66684 20.817C8.66684 20.6404 8.52883 20.5111 8.34393 20.5111H8.00794C7.93644 20.5111 7.87878 20.569 7.87878 20.6404V21.0022C7.87878 21.0736 7.93644 21.1314 8.00794 21.1314H8.34393ZM8.357 22.3673C8.5765 22.3673 8.7491 22.2252 8.7491 22.0013C8.7491 21.7773 8.57265 21.6395 8.35277 21.6395H8.00833C7.93683 21.6395 7.87916 21.6974 7.87916 21.7688V22.2381C7.87916 22.3095 7.93683 22.3673 8.00833 22.3673H8.357ZM9.74821 22.1992V20.8477C9.74821 20.7522 9.82547 20.6749 9.92119 20.6749H10.1895C10.2933 20.6749 10.3775 20.7592 10.3775 20.8628V21.997C10.3775 22.2039 10.5047 22.3611 10.6923 22.3887C10.9299 22.4236 11.1398 22.2276 11.1398 21.9873V20.8547C11.1398 20.7553 11.2201 20.6749 11.3193 20.6749H11.5888C11.688 20.6749 11.7683 20.7553 11.7683 20.8547V22.8028C11.7683 22.8808 11.7049 22.9445 11.6269 22.9445H11.3462C11.2321 22.9445 11.1394 22.8521 11.1394 22.738H11.0964C10.993 22.8843 10.8077 23.0008 10.5451 23.0008C10.0669 23.0008 9.74821 22.6433 9.74821 22.2V22.1992ZM12.466 22.2043L12.4603 22.2054L12.4607 22.2062C12.2569 22.2427 12.1585 22.4795 12.2788 22.6476C12.4507 22.8874 12.7497 23.0008 13.0865 23.0008C13.6766 23.0008 14.0341 22.6864 14.0341 22.2299C14.0341 21.6986 13.5858 21.6011 13.2368 21.5253C13.0144 21.4769 12.8324 21.4374 12.8324 21.2999C12.8324 21.2005 12.9358 21.1361 13.0865 21.1361C13.198 21.1361 13.2933 21.1741 13.3637 21.2525C13.434 21.3309 13.5436 21.362 13.6454 21.3344C13.8553 21.2778 13.9276 21.013 13.7719 20.8609C13.6093 20.7013 13.3706 20.6191 13.0777 20.6191C12.5737 20.6191 12.2119 20.9335 12.2119 21.3251C12.2119 21.8754 12.6521 21.9745 12.9968 22.052C13.2187 22.102 13.401 22.143 13.401 22.2897C13.401 22.3972 13.306 22.4706 13.1165 22.4706C12.9635 22.4706 12.8232 22.4224 12.7459 22.3188C12.6806 22.2315 12.5737 22.1849 12.466 22.2043ZM18.3065 21.8119C18.3065 21.1015 18.832 20.6191 19.4651 20.6191C20.1629 20.6191 20.598 21.1357 20.598 21.8076C20.598 21.8957 20.5265 21.9667 20.4385 21.9667H18.9523C18.9566 22.2637 19.1764 22.4446 19.4736 22.4446C19.6566 22.4446 19.8326 22.3805 19.9303 22.2349C19.9549 22.1985 19.9995 22.1814 20.0422 22.1915L20.4043 22.2749C20.47 22.2901 20.5058 22.3615 20.4781 22.4228C20.2878 22.8409 19.8849 23 19.4821 23C18.7886 23 18.3061 22.4962 18.3061 21.8115L18.3065 21.8119ZM19.8742 21.5491C19.9238 21.5491 19.9584 21.4998 19.9411 21.4532C19.8745 21.2723 19.6935 21.1403 19.4651 21.1403C19.2203 21.1403 19.0507 21.2847 18.9838 21.4505C18.965 21.4978 18.9988 21.5495 19.05 21.5495H19.8742V21.5491ZM21.488 22.2835C21.4503 22.214 21.3699 22.1794 21.2923 22.1934V22.1938C21.0382 22.2392 20.9371 22.5517 21.1185 22.7357C21.2954 22.915 21.5591 23.0004 21.8516 23.0004C22.4417 23.0004 22.7992 22.686 22.7992 22.2295C22.7992 21.6982 22.3509 21.6008 22.0019 21.5249C21.7796 21.4765 21.5975 21.437 21.5975 21.2995C21.5975 21.2001 21.7009 21.1357 21.8516 21.1357C21.9462 21.1357 22.0311 21.1656 22.0957 21.2203C22.2037 21.3119 22.346 21.3519 22.4824 21.315L22.5001 21.3104C22.6462 21.2712 22.7154 21.0992 22.6308 20.9738C22.4736 20.7406 22.1984 20.6194 21.8428 20.6194C21.3388 20.6194 20.9771 20.9339 20.9771 21.3255C20.9771 21.8758 21.4172 21.9748 21.7619 22.0524C21.9838 22.1024 22.1661 22.1434 22.1661 22.2901C22.1661 22.3976 22.0711 22.4709 21.8816 22.4709C21.7117 22.4709 21.5579 22.4119 21.488 22.2835ZM23.4266 22.2054C23.5377 22.1857 23.6465 22.2346 23.7157 22.3234C23.7937 22.424 23.9321 22.4706 24.0832 22.4706C24.2727 22.4706 24.3676 22.3972 24.3676 22.2897C24.3676 22.143 24.1853 22.102 23.9635 22.052C23.6188 21.9745 23.1786 21.8754 23.1786 21.3251C23.1786 20.9335 23.5404 20.6191 24.0443 20.6191C24.3373 20.6191 24.5756 20.7013 24.7386 20.8609C24.8943 21.013 24.822 21.2778 24.6121 21.3344C24.5102 21.362 24.4007 21.3309 24.3303 21.2525C24.26 21.1741 24.1647 21.1361 24.0532 21.1361C23.9025 21.1361 23.7991 21.2005 23.7991 21.2999C23.7991 21.4374 23.9811 21.4769 24.2035 21.5253C24.5525 21.6011 25.0008 21.6986 25.0008 22.2299C25.0008 22.6864 24.6433 23.0008 24.0532 23.0008C23.7164 23.0008 23.4173 22.8874 23.2455 22.6476C23.1252 22.4795 23.2236 22.2427 23.4273 22.2062L23.4266 22.2054ZM14.6307 20.9067C14.6307 20.725 14.7772 20.5787 14.959 20.5787C15.1408 20.5787 15.2892 20.725 15.2873 20.9067V22.6452C15.2873 22.8269 15.1408 22.9732 14.959 22.9732C14.7772 22.9732 14.6307 22.8269 14.6307 22.6452V20.9067ZM16.2576 20.7514C16.3852 20.6323 16.5935 20.5111 16.9149 20.5111L16.9161 20.5108C17.2051 20.5108 17.4519 20.6105 17.633 20.7957C17.9182 21.0938 17.9417 21.5169 17.9417 21.6488V22.6188C17.9417 22.8036 17.7929 22.9526 17.6076 22.9526C17.4223 22.9526 17.2736 22.804 17.2736 22.6188V21.6574C17.2736 21.6548 17.2728 21.6523 17.2721 21.6502C17.2716 21.6488 17.2713 21.6477 17.2713 21.6469V21.5064V21.5044C17.2713 21.3259 17.1244 21.1811 16.9457 21.1811C16.7669 21.1811 16.6224 21.3259 16.6201 21.5044V21.5064V21.6531V22.6188C16.6201 22.804 16.469 22.955 16.2837 22.955C16.0984 22.955 15.9473 22.804 15.9473 22.6188V21.6636C15.9473 21.6559 15.9469 21.647 15.9464 21.6371C15.9457 21.6251 15.945 21.6117 15.945 21.5976C15.9366 21.5021 15.9066 21.3468 15.8216 21.2595C15.8089 21.2467 15.7939 21.232 15.7705 21.2191C15.7693 21.2191 15.7683 21.2187 15.7672 21.2182C15.7662 21.2177 15.7651 21.2172 15.764 21.2172C15.6598 21.1621 15.5894 21.0515 15.5894 20.9238C15.5894 20.7386 15.7405 20.5876 15.9258 20.5876C15.9685 20.5876 16.0088 20.5942 16.045 20.609C16.0746 20.6194 16.1003 20.6346 16.1257 20.6536C16.1726 20.6835 16.2172 20.7153 16.2576 20.7514Z" fill="#713DFF" style="fill:#713DFF;fill:color(display-p3 0.4431 0.2392 1.0000);fill-opacity:1;"/>
<path fill-rule="evenodd" clip-rule="evenodd" d="M24.409 13.7293C24.384 13.7673 24.3525 13.8054 24.321 13.8434L24.3206 13.8442C24.3083 13.8566 24.2956 13.8756 24.2956 13.8884C24.6478 14.2692 25.006 14.8914 25.006 15.8498C25.006 16.713 24.7104 17.4494 24.1572 17.9889C23.2769 18.8394 22.026 18.9092 21.6362 18.9092H18.7692C18.2222 18.9092 17.782 18.4648 17.782 17.9124C17.782 17.3601 18.2222 16.9157 18.7692 16.9157H21.6109C21.6183 16.9157 21.6258 16.9135 21.632 16.9117C21.6362 16.9105 21.6399 16.9094 21.6424 16.9094H22.0637C22.5919 16.9094 23.0194 16.4716 23.0194 15.9383C23.0194 15.405 22.5919 14.9733 22.0637 14.9671H18.7692C18.2222 14.9671 17.7759 14.5165 17.7759 13.9641V13.9513C17.7759 13.399 18.2161 12.9545 18.7631 12.9545H21.6047C21.6122 12.9545 21.6197 12.9524 21.6258 12.9506C21.6301 12.9494 21.6337 12.9483 21.6362 12.9483H21.8061C21.9384 12.9483 22.0641 12.9483 22.1771 12.9421C22.6484 12.8785 23.0132 12.4724 23.0132 11.9772C23.0132 11.4438 22.5857 11.0122 22.0575 11.006H18.7631C18.2161 11.006 17.7697 10.5553 17.7697 10.003C17.7697 9.45065 18.2161 9 18.7631 9H21.6927C23.2896 9 23.8301 9.46967 24.2829 9.92692C24.6351 10.3077 24.9934 10.9299 24.9934 11.8883C24.9934 12.3898 24.893 12.847 24.7043 13.2468V13.253C24.6731 13.3419 24.6289 13.418 24.5724 13.4941C24.5659 13.4941 24.5597 13.5007 24.5597 13.5069C24.5501 13.5215 24.5409 13.5356 24.5319 13.5495C24.5055 13.5899 24.4809 13.6278 24.4529 13.6656C24.4448 13.6824 24.4339 13.6964 24.4238 13.7093C24.4185 13.7162 24.4134 13.7227 24.409 13.7293ZM9.0127 10.0092C9.0127 10.5616 8.57254 11.006 8.02552 11.006C7.47849 11.006 7.03833 10.5616 7.03833 10.0092C7.03833 9.45725 7.47887 9.01281 8.02552 9.01281C8.57216 9.01281 9.0127 9.45686 9.0127 10.0092ZM7.03833 12.6312C7.03833 12.0789 7.47849 11.6344 8.02552 11.6344C8.57254 11.6344 9.01885 12.0789 9.0127 12.6312V17.9128C9.0127 18.4652 8.57254 18.9096 8.02552 18.9096C7.47849 18.9096 7.03833 18.4652 7.03833 17.9128V12.6312ZM13.8783 11.6216C12.9292 11.6216 12.3129 11.9834 11.9358 12.3389C11.8163 12.231 11.6844 12.1359 11.546 12.047C11.4707 11.99 11.3953 11.9453 11.3073 11.9139C11.2004 11.8696 11.0809 11.8502 10.9552 11.8502C10.4081 11.8502 9.96183 12.3009 9.96183 12.8532C9.96183 13.234 10.1694 13.5643 10.4773 13.7293C10.4804 13.7293 10.4836 13.7308 10.4868 13.7324C10.4899 13.7339 10.4931 13.7355 10.4962 13.7355C10.5645 13.7731 10.6081 13.8171 10.6455 13.8549L10.6469 13.8562C10.8983 14.1167 10.9863 14.5797 11.0117 14.8654C11.0117 14.9073 11.0135 14.9473 11.0152 14.9832C11.0166 15.0126 11.0178 15.0393 11.0178 15.0622V17.9124C11.0178 18.4648 11.4641 18.9154 12.0112 18.9154C12.5582 18.9154 13.0045 18.4648 13.0045 17.9124V15.0304V14.5925V14.5863C13.0107 14.053 13.4381 13.6214 13.9663 13.6214C14.4945 13.6214 14.9281 14.053 14.9281 14.5863V14.5925V15.0114C14.9281 15.0139 14.9292 15.0176 14.9304 15.0219C14.9321 15.0281 14.9343 15.0356 14.9343 15.0432V17.9124C14.9343 18.4648 15.3744 18.9092 15.9215 18.9092C16.4685 18.9092 16.9087 18.4648 16.9087 17.9124V15.0176C16.9087 14.624 16.8395 13.3609 15.9972 12.4721C15.4629 11.9197 14.7336 11.6216 13.8787 11.6216H13.8783Z" fill="#102F76" style="fill:#102F76;fill:color(display-p3 0.0627 0.1843 0.4627);fill-opacity:1;"/>
</g>
<defs>
<clipPath id="clip0_3586_711">
<rect width="18" height="14" fill="white" style="fill:white;fill-opacity:1;" transform="translate(7 9)"/>
</clipPath>
</defs>
</svg>
