<svg width="24" height="24" viewBox="0 0 24 24" fill="none" xmlns="http://www.w3.org/2000/svg">
<rect width="24" height="24" rx="6" fill="#F8F9FE" style="fill:#F8F9FE;fill:color(display-p3 0.9725 0.9765 0.9961);fill-opacity:1;"/>
<g clip-path="url(#clip0_3586_712)">
<path fill-rule="evenodd" clip-rule="evenodd" d="M11.2192 15.2789C11.3556 15.2789 11.4655 15.1691 11.4655 15.0329C11.4655 14.8966 11.3556 14.7869 11.2192 14.7869C11.0829 14.7869 10.973 14.8966 10.973 15.0329C10.973 15.1691 11.0829 15.2789 11.2192 15.2789ZM5.34687 16.7947C5.4005 16.7947 5.44375 16.7513 5.44375 16.6978V15.4576C5.44375 15.404 5.4005 15.3607 5.34687 15.3607C5.29325 15.3609 5.25 15.3176 5.25 15.264V15.0445C5.25 14.9909 5.29325 14.9476 5.34687 14.9476H6.26429C6.7328 14.9476 6.98161 15.2253 6.98161 15.5836C6.98161 15.758 6.87811 15.9164 6.73943 15.997V16.0165C6.90088 16.094 7.05283 16.262 7.05283 16.5138C7.05283 16.9531 6.71377 17.2081 6.33233 17.2081H5.34687C5.29325 17.2081 5.25 17.1647 5.25 17.1111V16.8916C5.25 16.8381 5.29325 16.7947 5.34687 16.7947ZM6.25794 15.8486C6.40325 15.8486 6.50013 15.7452 6.50013 15.6128C6.50013 15.4803 6.39662 15.3834 6.25794 15.3834H6.00596C5.95233 15.3834 5.90909 15.4267 5.90909 15.4803V15.7516C5.90909 15.8052 5.95233 15.8486 6.00596 15.8486H6.25794ZM6.26775 16.7755C6.43237 16.7755 6.56183 16.6689 6.56183 16.501C6.56183 16.333 6.42949 16.2296 6.26458 16.2296H6.00625C5.95262 16.2296 5.90937 16.273 5.90937 16.3266V16.6785C5.90937 16.7321 5.95262 16.7755 6.00625 16.7755H6.26775ZM7.31115 16.6494V15.6358C7.31115 15.5641 7.36911 15.5062 7.4409 15.5062H7.64214C7.71998 15.5062 7.78312 15.5694 7.78312 15.6471V16.4978C7.78312 16.6529 7.87856 16.7708 8.01925 16.7915C8.19743 16.8177 8.35485 16.6707 8.35485 16.4905V15.641C8.35485 15.5665 8.41511 15.5062 8.48949 15.5062H8.6916C8.76599 15.5062 8.82624 15.5665 8.82624 15.641V17.1021C8.82624 17.1606 8.77867 17.2084 8.72014 17.2084H8.50967C8.42405 17.2084 8.35456 17.1391 8.35456 17.0535H8.32227C8.24471 17.1632 8.10575 17.2506 7.90883 17.2506C7.55017 17.2506 7.31115 16.9825 7.31115 16.65V16.6494ZM9.34953 16.6532L9.34521 16.6541L9.3455 16.6547C9.19269 16.682 9.11888 16.8596 9.20913 16.9857C9.338 17.1656 9.56231 17.2506 9.81487 17.2506C10.2574 17.2506 10.5256 17.0148 10.5256 16.6724C10.5256 16.274 10.1893 16.2009 9.92761 16.144C9.76083 16.1077 9.6243 16.078 9.6243 15.9749C9.6243 15.9004 9.70185 15.8521 9.81487 15.8521C9.89848 15.8521 9.96999 15.8806 10.0227 15.9394C10.0755 15.9982 10.1577 16.0215 10.2341 16.0008C10.3915 15.9583 10.4457 15.7598 10.3289 15.6457C10.207 15.526 10.0279 15.4643 9.80824 15.4643C9.43026 15.4643 9.15896 15.7001 9.15896 15.9938C9.15896 16.4065 9.48908 16.4808 9.74761 16.539C9.91399 16.5765 10.0507 16.6073 10.0507 16.7173C10.0507 16.7979 9.9795 16.8529 9.83736 16.8529C9.72261 16.8529 9.61738 16.8168 9.55943 16.7391C9.51041 16.6736 9.43026 16.6387 9.34953 16.6532ZM13.7299 16.3589C13.7299 15.8261 14.124 15.4643 14.5989 15.4643C15.1221 15.4643 15.4485 15.8518 15.4485 16.3557C15.4485 16.4218 15.3949 16.475 15.3289 16.475H14.2142C14.2174 16.6978 14.3823 16.8334 14.6052 16.8334C14.7424 16.8334 14.8745 16.7854 14.9477 16.6762C14.9662 16.6488 14.9996 16.636 15.0316 16.6436L15.3032 16.7062C15.3525 16.7175 15.3793 16.7711 15.3586 16.8171C15.2158 17.1306 14.9137 17.25 14.6115 17.25C14.0914 17.25 13.7296 16.8721 13.7296 16.3586L13.7299 16.3589ZM14.9056 16.1618C14.9428 16.1618 14.9688 16.1248 14.9558 16.0899C14.9059 15.9542 14.7701 15.8553 14.5989 15.8553C14.4152 15.8553 14.2881 15.9636 14.2379 16.0879C14.2238 16.1234 14.2491 16.1621 14.2875 16.1621H14.9056V16.1618ZM16.116 16.7126C16.0877 16.6605 16.0275 16.6346 15.9692 16.6451V16.6454C15.7786 16.6794 15.7028 16.9138 15.8389 17.0518C15.9715 17.1862 16.1693 17.2503 16.3887 17.2503C16.8313 17.2503 17.0994 17.0145 17.0994 16.6721C17.0994 16.2737 16.7632 16.2006 16.5015 16.1437C16.3347 16.1074 16.1981 16.0777 16.1981 15.9746C16.1981 15.9001 16.2757 15.8518 16.3887 15.8518C16.4596 15.8518 16.5234 15.8742 16.5718 15.9152C16.6528 15.9839 16.7595 16.0139 16.8618 15.9863L16.8751 15.9828C16.9847 15.9534 17.0366 15.8244 16.9731 15.7304C16.8552 15.5554 16.6488 15.4646 16.3821 15.4646C16.0041 15.4646 15.7328 15.7004 15.7328 15.9941C15.7328 16.4068 16.0629 16.4811 16.3215 16.5393C16.4878 16.5768 16.6246 16.6075 16.6246 16.7176C16.6246 16.7982 16.5533 16.8532 16.4112 16.8532C16.2838 16.8532 16.1684 16.809 16.116 16.7126ZM17.5699 16.6541C17.6533 16.6392 17.7348 16.6759 17.7867 16.7426C17.8453 16.818 17.9491 16.8529 18.0624 16.8529C18.2045 16.8529 18.2757 16.7979 18.2757 16.7173C18.2757 16.6073 18.139 16.5765 17.9726 16.539C17.7141 16.4808 17.384 16.4065 17.384 15.9938C17.384 15.7001 17.6553 15.4643 18.0332 15.4643C18.2529 15.4643 18.4317 15.526 18.5539 15.6457C18.6707 15.7598 18.6165 15.9583 18.4591 16.0008C18.3827 16.0215 18.3005 15.9982 18.2478 15.9394C18.195 15.8806 18.1235 15.8521 18.0399 15.8521C17.9269 15.8521 17.8493 15.9004 17.8493 15.9749C17.8493 16.078 17.9858 16.1077 18.1526 16.144C18.4143 16.2009 18.7506 16.274 18.7506 16.6724C18.7506 17.0148 18.4824 17.2506 18.0399 17.2506C17.7873 17.2506 17.563 17.1656 17.4341 16.9857C17.3439 16.8596 17.4177 16.682 17.5705 16.6547L17.5699 16.6541ZM10.973 15.68C10.973 15.5438 11.0829 15.434 11.2192 15.434C11.3556 15.434 11.4669 15.5438 11.4655 15.68V16.9839C11.4655 17.1202 11.3556 17.2299 11.2192 17.2299C11.0829 17.2299 10.973 17.1202 10.973 16.9839V15.68ZM12.1932 15.5636C12.2889 15.4742 12.4452 15.3834 12.6862 15.3834L12.6871 15.3831C12.9039 15.3831 13.089 15.4579 13.2248 15.5968C13.4387 15.8203 13.4563 16.1376 13.4563 16.2366V16.9641C13.4563 17.1027 13.3447 17.2145 13.2057 17.2145C13.0668 17.2145 12.9552 17.103 12.9552 16.9641V16.243C12.9552 16.2411 12.9546 16.2392 12.9541 16.2377C12.9537 16.2366 12.9535 16.2358 12.9535 16.2352V16.1298V16.1283C12.9535 15.9944 12.8433 15.8858 12.7092 15.8858C12.5752 15.8858 12.4668 15.9944 12.465 16.1283V16.1298V16.2398V16.9641C12.465 17.103 12.3517 17.2162 12.2128 17.2162C12.0738 17.2162 11.9605 17.103 11.9605 16.9641V16.2477C11.9605 16.2419 11.9601 16.2352 11.9598 16.2279C11.9593 16.2188 11.9588 16.2088 11.9588 16.1982C11.9524 16.1266 11.9299 16.0101 11.8662 15.9446C11.8567 15.935 11.8455 15.924 11.8279 15.9144C11.827 15.9144 11.8262 15.914 11.8254 15.9136C11.8246 15.9133 11.8238 15.9129 11.823 15.9129C11.7448 15.8716 11.6921 15.7886 11.6921 15.6928C11.6921 15.554 11.8054 15.4407 11.9444 15.4407C11.9764 15.4407 12.0066 15.4457 12.0337 15.4567C12.0559 15.4646 12.0752 15.4759 12.0943 15.4902C12.1295 15.5126 12.1629 15.5365 12.1932 15.5636Z" fill="#713DFF" style="fill:#713DFF;fill:color(display-p3 0.4431 0.2392 1.0000);fill-opacity:1;"/>
<path fill-rule="evenodd" clip-rule="evenodd" d="M18.3068 10.297C18.2881 10.3255 18.2645 10.354 18.2408 10.3826L18.2405 10.3831C18.2313 10.3925 18.2218 10.4067 18.2218 10.4163C18.4859 10.7019 18.7546 11.1686 18.7546 11.8873C18.7546 12.5348 18.5329 13.087 18.118 13.4917C17.4578 14.1295 16.5196 14.1819 16.2272 14.1819H14.077C13.6667 14.1819 13.3366 13.8486 13.3366 13.4343C13.3366 13.0201 13.6667 12.6867 14.077 12.6867H16.2082C16.2138 12.6867 16.2194 12.6851 16.224 12.6838C16.2272 12.6829 16.2299 12.6821 16.2318 12.6821H16.5478C16.944 12.6821 17.2646 12.3537 17.2646 11.9537C17.2646 11.5537 16.944 11.23 16.5478 11.2253H14.077C13.6667 11.2253 13.332 10.8874 13.332 10.4731V10.4635C13.332 10.0492 13.6621 9.7159 14.0724 9.7159H16.2036C16.2092 9.7159 16.2148 9.71428 16.2194 9.71295C16.2226 9.71202 16.2253 9.71124 16.2272 9.71124H16.3547C16.4538 9.71124 16.5481 9.71124 16.6329 9.70658C16.9864 9.65884 17.26 9.35433 17.26 8.98287C17.26 8.58287 16.9394 8.25915 16.5432 8.25449H14.0724C13.6621 8.25449 13.3274 7.9165 13.3274 7.50225C13.3274 7.08799 13.6621 6.75 14.0724 6.75H16.2696C17.4673 6.75 17.8726 7.10225 18.2123 7.44519C18.4764 7.73077 18.7451 8.19743 18.7451 8.9162C18.7451 9.29232 18.6698 9.63526 18.5283 9.93511V9.93977C18.5049 10.0064 18.4718 10.0635 18.4294 10.1205C18.4245 10.1205 18.4199 10.1255 18.4199 10.1302C18.4126 10.1411 18.4057 10.1517 18.399 10.1621C18.3792 10.1924 18.3607 10.2208 18.3397 10.2492C18.3337 10.2618 18.3255 10.2723 18.3179 10.282C18.314 10.2871 18.3101 10.292 18.3068 10.297ZM6.75959 7.5069C6.75959 7.92116 6.42947 8.25449 6.0192 8.25449C5.60893 8.25449 5.27881 7.92116 5.27881 7.5069C5.27881 7.09294 5.60922 6.75961 6.0192 6.75961C6.42918 6.75961 6.75959 7.09264 6.75959 7.5069ZM5.27881 9.4734C5.27881 9.05914 5.60893 8.72581 6.0192 8.72581C6.42947 8.72581 6.7642 9.05914 6.75959 9.4734V13.4346C6.75959 13.8489 6.42947 14.1822 6.0192 14.1822C5.60893 14.1822 5.27881 13.8489 5.27881 13.4346V9.4734ZM10.4088 8.7162C9.69693 8.7162 9.23476 8.98752 8.95193 9.25419C8.86226 9.17326 8.76337 9.10193 8.65958 9.03527C8.60307 8.99247 8.54656 8.95899 8.48053 8.93541C8.40038 8.90223 8.31072 8.88767 8.21644 8.88767C7.80617 8.88767 7.47144 9.22566 7.47144 9.63992C7.47144 9.9255 7.62712 10.1732 7.85806 10.297C7.86037 10.297 7.86275 10.2981 7.86513 10.2993C7.86751 10.3005 7.86988 10.3016 7.87219 10.3016C7.92347 10.3298 7.95617 10.3628 7.9842 10.3911L7.98521 10.3922C8.17377 10.5875 8.23979 10.9348 8.25882 11.1491C8.25882 11.1805 8.26022 11.2104 8.26147 11.2374C8.2625 11.2595 8.26343 11.2795 8.26343 11.2967V13.4343C8.26343 13.8486 8.59817 14.1866 9.00844 14.1866C9.41871 14.1866 9.75344 13.8486 9.75344 13.4343V11.2728V10.9444V10.9398C9.75805 10.5398 10.0787 10.216 10.4748 10.216C10.8709 10.216 11.1962 10.5398 11.1962 10.9398V10.9444V11.2585C11.1962 11.2604 11.1969 11.2632 11.1979 11.2664C11.1992 11.2711 11.2008 11.2767 11.2008 11.2824V13.4343C11.2008 13.8486 11.5309 14.1819 11.9412 14.1819C12.3514 14.1819 12.6816 13.8486 12.6816 13.4343V11.2632C12.6816 10.968 12.6297 10.0207 11.998 9.35404C11.5972 8.93978 11.0503 8.7162 10.4091 8.7162H10.4088Z" fill="#102F76" style="fill:#102F76;fill:color(display-p3 0.0627 0.1843 0.4627);fill-opacity:1;"/>
</g>
<defs>
<clipPath id="clip0_3586_712">
<rect width="13.5" height="10.5" fill="white" style="fill:white;fill-opacity:1;" transform="translate(5.25 6.75)"/>
</clipPath>
</defs>
</svg>
