<svg width="48" height="36" viewBox="0 0 48 36" fill="none" xmlns="http://www.w3.org/2000/svg">
<rect width="48" height="36" rx="6" fill="#0097DB" style="fill:#0097DB;fill:color(display-p3 0.0000 0.5922 0.8588);fill-opacity:1;"/>
<path fill-rule="evenodd" clip-rule="evenodd" d="M24.1221 16.8826C26.5492 16.8826 28.5165 14.9501 28.5165 12.5663C28.5165 10.1826 26.5492 8.25 24.1221 8.25C21.6951 8.25 19.7278 10.1826 19.7278 12.5663C19.7278 14.9501 21.6951 16.8826 24.1221 16.8826Z" fill="white" style="fill:white;fill-opacity:1;"/>
<path fill-rule="evenodd" clip-rule="evenodd" d="M23.1559 17.8416C21.6862 17.8416 20.4206 17.2806 19.6157 16.6569C14.818 17.1515 11.25 17.8524 11.25 17.8524V19.6876H36.75C36.75 17.1116 36.75 15.8235 36.75 15.8235C36.75 15.8235 32.3409 15.797 27.3637 16.0585C26.5267 16.9499 25.0501 17.8416 23.1559 17.8416Z" fill="white" style="fill:white;fill-opacity:1;"/>
<path fill-rule="evenodd" clip-rule="evenodd" d="M14.2735 27.75H11.25V20.8394H14.2735V23.9492L16.0705 20.8394H19.6957L17.0411 24.4107L19.5458 27.75H16.0863L14.2944 25.1527L14.2735 27.75Z" fill="white" style="fill:white;fill-opacity:1;"/>
<path fill-rule="evenodd" clip-rule="evenodd" d="M36.7019 27.3831C35.9884 27.6137 35.0506 27.75 34.2115 27.75C31.2203 27.75 29.0243 26.85 29.0243 24.2325C29.0243 21.8671 31.1528 20.8394 34.0625 20.8394C34.8712 20.8394 35.8984 20.9339 36.7019 21.2054L36.7009 23.4966C36.1054 23.1148 35.5099 22.8768 34.6571 22.8768C33.5473 22.8768 32.4381 23.4553 32.4381 24.2951C32.4381 25.137 33.5424 25.7135 34.6571 25.7135C35.4962 25.7135 36.1054 25.4676 36.7009 25.1033L36.7019 27.3831Z" fill="white" style="fill:white;fill-opacity:1;"/>
<path fill-rule="evenodd" clip-rule="evenodd" d="M23.2139 23.7681H24.7197C25.3017 23.7681 25.5297 23.5094 25.5297 23.1125C25.5297 22.6578 25.2997 22.4308 24.7617 22.4308H23.2137L23.2139 23.7681ZM23.2139 26.3451H24.7903C25.3811 26.3451 25.5824 26.0765 25.5824 25.6799C25.5824 25.2831 25.3791 24.9981 24.797 24.9981H23.2137L23.2139 26.3451ZM20.1904 20.8394H26.3022C27.8899 20.8394 28.4102 21.5169 28.4102 22.5718C28.4102 23.7525 27.4488 24.2656 26.4611 24.3235V24.343C27.4752 24.4302 28.463 24.5558 28.463 25.9495C28.463 26.8595 27.9427 27.75 26.1964 27.75H20.1904V20.8394Z" fill="white" style="fill:white;fill-opacity:1;"/>
</svg>
