<svg width="32" height="24" viewBox="0 0 32 24" fill="none" xmlns="http://www.w3.org/2000/svg">
<rect width="32" height="24" rx="4" fill="#0097DB" style="fill:#0097DB;fill:color(display-p3 0.0000 0.5922 0.8588);fill-opacity:1;"/>
<path fill-rule="evenodd" clip-rule="evenodd" d="M16.0814 11.2551C17.6995 11.2551 19.011 9.96673 19.011 8.37751C19.011 6.78841 17.6995 5.5 16.0814 5.5C14.4634 5.5 13.1519 6.78841 13.1519 8.37751C13.1519 9.96673 14.4634 11.2551 16.0814 11.2551Z" fill="white" style="fill:white;fill-opacity:1;"/>
<path fill-rule="evenodd" clip-rule="evenodd" d="M15.4372 11.8944C14.4575 11.8944 13.6137 11.5204 13.0771 11.1046C9.87868 11.4343 7.5 11.9016 7.5 11.9016V13.1251H24.5C24.5 11.4077 24.5 10.549 24.5 10.549C24.5 10.549 21.5606 10.5313 18.2425 10.7057C17.6844 11.3 16.7001 11.8944 15.4372 11.8944Z" fill="white" style="fill:white;fill-opacity:1;"/>
<path fill-rule="evenodd" clip-rule="evenodd" d="M9.51569 18.5H7.5V13.8929H9.51569V15.9661L10.7137 13.8929H13.1305L11.3607 16.2738L13.0306 18.5H10.7242L9.52958 16.7684L9.51569 18.5Z" fill="white" style="fill:white;fill-opacity:1;"/>
<path fill-rule="evenodd" clip-rule="evenodd" d="M24.468 18.2554C23.9923 18.4091 23.3672 18.5 22.8078 18.5C20.8136 18.5 19.3496 17.9 19.3496 16.155C19.3496 14.5781 20.7686 13.8929 22.7084 13.8929C23.2476 13.8929 23.9324 13.9559 24.468 14.1369L24.4673 15.6644C24.0703 15.4099 23.6733 15.2512 23.1048 15.2512C22.365 15.2512 21.6255 15.6369 21.6255 16.1967C21.6255 16.758 22.3617 17.1424 23.1048 17.1424C23.6642 17.1424 24.0703 16.9784 24.4673 16.7356L24.468 18.2554Z" fill="white" style="fill:white;fill-opacity:1;"/>
<path fill-rule="evenodd" clip-rule="evenodd" d="M15.476 15.8454H16.4799C16.8679 15.8454 17.0198 15.6729 17.0198 15.4084C17.0198 15.1052 16.8665 14.9538 16.5079 14.9538H15.4758L15.476 15.8454ZM15.476 17.5634H16.5269C16.9208 17.5634 17.055 17.3844 17.055 17.1199C17.055 16.8554 16.9195 16.6654 16.5314 16.6654H15.4758L15.476 17.5634ZM13.4603 13.8929H17.5349C18.5933 13.8929 18.9402 14.3446 18.9402 15.0478C18.9402 15.835 18.2992 16.1771 17.6408 16.2156V16.2286C18.3168 16.2868 18.9754 16.3705 18.9754 17.2997C18.9754 17.9063 18.6285 18.5 17.4643 18.5H13.4603V13.8929Z" fill="white" style="fill:white;fill-opacity:1;"/>
</svg>
