<svg width="16" height="16" viewBox="0 0 16 16" fill="none" xmlns="http://www.w3.org/2000/svg">
<rect width="16" height="16" rx="4" fill="#FFA8CD" style="fill:#FFA8CD;fill:color(display-p3 1.0000 0.6588 0.8039);fill-opacity:1;"/>
<path d="M13.2952 8.72058C12.9929 8.72058 12.7572 8.47059 12.7572 8.16703C12.7572 7.86346 12.9929 7.61347 13.2952 7.61347C13.5975 7.61347 13.8331 7.86346 13.8331 8.16703C13.8331 8.47059 13.5975 8.72058 13.2952 8.72058ZM13.144 9.30539C13.4019 9.30539 13.7309 9.20718 13.9132 8.82326L13.9309 8.83219C13.851 9.042 13.851 9.16701 13.851 9.19826V9.24736H14.5V7.0867H13.851V7.13581C13.851 7.16706 13.851 7.29205 13.9309 7.50186L13.9132 7.5108C13.7309 7.12688 13.4019 7.02867 13.144 7.02867C12.5261 7.02867 12.0904 7.51973 12.0904 8.16703C12.0904 8.81433 12.5261 9.30539 13.144 9.30539ZM10.961 7.02867C10.6676 7.02867 10.4364 7.13134 10.2497 7.5108L10.2319 7.50186C10.3119 7.29205 10.3119 7.16706 10.3119 7.13581V7.0867H9.66282V9.24736H10.3297V8.10899C10.3297 7.8099 10.5031 7.62239 10.7832 7.62239C11.0633 7.62239 11.2011 7.7831 11.2011 8.10452V9.24736H11.868V7.8724C11.868 7.38133 11.4856 7.02867 10.961 7.02867ZM8.69805 7.5108L8.68025 7.50186C8.76028 7.29205 8.76028 7.16706 8.76028 7.13581V7.0867H8.11118V9.24736H8.77807L8.78251 8.2072C8.78251 7.90364 8.94257 7.72061 9.20489 7.72061C9.27602 7.72061 9.33382 7.72954 9.40051 7.7474V7.0867C9.10707 7.0242 8.84476 7.13581 8.69805 7.5108ZM6.57731 8.72058C6.27498 8.72058 6.03934 8.47059 6.03934 8.16703C6.03934 7.86346 6.27498 7.61347 6.57731 7.61347C6.87964 7.61347 7.11527 7.86346 7.11527 8.16703C7.11527 8.47059 6.87964 8.72058 6.57731 8.72058ZM6.42615 9.30539C6.68402 9.30539 7.01302 9.20718 7.1953 8.82326L7.21308 8.83219C7.13305 9.042 7.13305 9.16701 7.13305 9.19826V9.24736H7.78217V7.0867H7.13305V7.13581C7.13305 7.16706 7.13305 7.29205 7.21308 7.50186L7.1953 7.5108C7.01302 7.12688 6.68402 7.02867 6.42615 7.02867C5.80815 7.02867 5.37245 7.51973 5.37245 8.16703C5.37245 8.81433 5.80815 9.30539 6.42615 9.30539ZM4.44323 9.24736H5.11014V6.12244H4.44323V9.24736ZM3.95418 6.12244H3.27394C3.27394 6.68046 2.9316 7.18044 2.41142 7.53758L2.20691 7.68044V6.12244H1.5V9.24736H2.20691V7.69829L3.3762 9.24736H4.23873L3.11389 7.76525C3.62517 7.39473 3.95863 6.81884 3.95418 6.12244Z" fill="#0B051D" style="fill:#0B051D;fill:color(display-p3 0.0431 0.0196 0.1137);fill-opacity:1;"/>
</svg>
