<svg width="32" height="24" viewBox="0 0 32 24" fill="none" xmlns="http://www.w3.org/2000/svg">
<rect width="32" height="24" rx="4" fill="#111111" style="fill:#111111;fill:color(display-p3 0.0667 0.0667 0.0667);fill-opacity:1;"/>
<g clip-path="url(#clip0_2741_2543)">
<path fill-rule="evenodd" clip-rule="evenodd" d="M22.0931 9.96802C22.5043 9.96802 22.8376 9.6394 22.8376 9.23401C22.8376 8.82863 22.5043 8.5 22.0931 8.5C21.6819 8.5 21.3485 8.82863 21.3485 9.23401C21.3485 9.6394 21.6819 9.96802 22.0931 9.96802ZM14.151 10.7828C12.8331 10.7828 11.7634 11.8398 11.7634 13.1365C11.7634 14.4332 12.8356 15.4902 14.151 15.4902C15.4664 15.4902 16.5386 14.4332 16.5386 13.1365C16.5386 11.8398 15.4689 10.7828 14.151 10.7828ZM14.151 14.377C13.4585 14.377 12.8951 13.8216 12.8951 13.139C12.8951 12.4563 13.4585 11.9009 14.151 11.9009C14.8434 11.9009 15.4068 12.4563 15.4068 13.139C15.4068 13.8216 14.8434 14.377 14.151 14.377ZM9.09286 10.7779C9.15489 10.7779 9.21449 10.7803 9.27652 10.7852C9.79772 10.8293 10.2767 11.0666 10.6267 11.4532C10.9766 11.8373 11.1702 12.334 11.1702 12.8502V15.3948H10.0285V12.8184C10.0261 12.312 9.60164 11.8985 9.08541 11.8985C9.05563 11.8985 9.02337 11.9009 8.99111 11.9034C8.52948 11.9499 8.14229 12.3805 8.14229 12.8453V15.3948H7.00062V12.8258C6.99814 12.3168 6.57621 11.9009 6.05998 11.9009C6.0302 11.9009 5.99793 11.9034 5.96567 11.9058C5.50652 11.9523 5.11686 12.3829 5.11686 12.8502V15.3948H4V12.8184C4 11.693 4.93071 10.7779 6.07239 10.7779C6.64323 10.7779 7.18676 11.0128 7.57891 11.4214C7.97106 11.0103 8.51707 10.7779 9.09286 10.7779ZM18.2958 8.6101H17.1541V15.3997H18.2958V8.6101ZM19.3382 8.6101H20.4798V15.3997H19.3382V8.6101ZM22.6639 10.8953H21.5222V15.3973H22.6639V10.8953ZM27.3373 11.4434C27.7642 11.8716 28 12.4343 28 13.0313V13.5476H24.5278C24.6817 14.0907 25.183 14.4724 25.7638 14.4724C26.218 14.4724 26.6275 14.2449 26.8633 13.8607L26.9104 13.7849L27.8536 14.2424L27.799 14.3329C27.3696 15.0449 26.5828 15.4878 25.744 15.4878H25.7415C25.1011 15.4878 24.5005 15.2382 24.0463 14.7856C23.5922 14.3329 23.3464 13.7359 23.3539 13.1047C23.3613 12.4857 23.6095 11.9058 24.0513 11.4679C24.4931 11.0299 25.0838 10.7852 25.7092 10.7779H25.739C26.3421 10.7779 26.9079 11.0152 27.3373 11.4434ZM26.8459 12.6178C26.6821 12.1382 26.2155 11.8006 25.6943 11.8006C25.1731 11.8006 24.7065 12.1382 24.5452 12.6178H26.8459Z" fill="white" style="fill:white;fill-opacity:1;"/>
</g>
<defs>
<clipPath id="clip0_2741_2543">
<rect width="24" height="7" fill="white" style="fill:white;fill-opacity:1;" transform="translate(4 8.5)"/>
</clipPath>
</defs>
</svg>
