<svg width="24" height="24" viewBox="0 0 24 24" fill="none" xmlns="http://www.w3.org/2000/svg">
<rect width="24" height="24" rx="6" fill="#111111" style="fill:#111111;fill:color(display-p3 0.0667 0.0667 0.0667);fill-opacity:1;"/>
<g clip-path="url(#clip0_2197_184)">
<path fill-rule="evenodd" clip-rule="evenodd" d="M16.5698 10.1167C16.8782 10.1167 17.1282 9.86675 17.1282 9.55837C17.1282 9.24999 16.8782 9 16.5698 9C16.2614 9 16.0114 9.24999 16.0114 9.55837C16.0114 9.86675 16.2614 10.1167 16.5698 10.1167ZM10.6132 10.7365C9.62482 10.7365 8.82253 11.5406 8.82253 12.5271C8.82253 13.5135 9.62669 14.3176 10.6132 14.3176C11.5998 14.3176 12.4039 13.5135 12.4039 12.5271C12.4039 11.5406 11.6017 10.7365 10.6132 10.7365ZM10.6132 13.4707C10.0939 13.4707 9.67135 13.0482 9.67135 12.5289C9.67135 12.0096 10.0939 11.5871 10.6132 11.5871C11.1326 11.5871 11.5551 12.0096 11.5551 12.5289C11.5551 13.0482 11.1326 13.4707 10.6132 13.4707ZM6.81964 10.7328C6.86617 10.7328 6.91087 10.7347 6.95739 10.7384C7.34829 10.7719 7.70754 10.9524 7.97002 11.2465C8.23247 11.5387 8.37767 11.9166 8.37767 12.3093V14.245H7.5214V12.2851C7.51954 11.8998 7.20123 11.5853 6.81406 11.5853C6.79172 11.5853 6.76753 11.5871 6.74334 11.589C6.39711 11.6244 6.10671 11.9519 6.10671 12.3056V14.245H5.25047V12.2907C5.2486 11.9035 4.93216 11.5871 4.54498 11.5871C4.52265 11.5871 4.49845 11.589 4.47425 11.5909C4.12989 11.6262 3.83764 11.9538 3.83764 12.3093V14.245H3V12.2851C3 11.4289 3.69804 10.7328 4.55429 10.7328C4.98242 10.7328 5.39007 10.9115 5.68418 11.2223C5.9783 10.9096 6.3878 10.7328 6.81964 10.7328ZM13.7218 9.08376H12.8656V14.2487H13.7218V9.08376ZM14.5036 9.08376H15.3599V14.2487H14.5036V9.08376ZM16.9979 10.8222H16.1417V14.2469H16.9979V10.8222ZM20.503 11.2391C20.8232 11.5648 21 11.9929 21 12.447V12.8397H18.3958C18.5113 13.2529 18.8873 13.5433 19.3229 13.5433C19.6635 13.5433 19.9706 13.3702 20.1475 13.078L20.1828 13.0203L20.8902 13.3683L20.8492 13.4372C20.5272 13.9788 19.9371 14.3157 19.308 14.3157H19.3061C18.8259 14.3157 18.3754 14.1259 18.0348 13.7815C17.6941 13.4372 17.5098 12.9831 17.5154 12.5029C17.521 12.032 17.7071 11.5909 18.0385 11.2577C18.3698 10.9245 18.8128 10.7384 19.2819 10.7328H19.3043C19.7566 10.7328 20.181 10.9134 20.503 11.2391ZM20.1344 12.1325C20.0116 11.7677 19.6616 11.5108 19.2707 11.5108C18.8798 11.5108 18.5299 11.7677 18.4089 12.1325H20.1344Z" fill="white" style="fill:white;fill-opacity:1;"/>
</g>
<defs>
<clipPath id="clip0_2197_184">
<rect width="18" height="5.325" fill="white" style="fill:white;fill-opacity:1;" transform="translate(3 9)"/>
</clipPath>
</defs>
</svg>
