<svg width="40" height="40" viewBox="0 0 40 40" fill="none" xmlns="http://www.w3.org/2000/svg">
<rect x="0.5" y="0.5" width="39" height="39" rx="9.5" fill="white" style="fill:white;fill-opacity:1;"/>
<rect x="0.5" y="0.5" width="39" height="39" rx="9.5" stroke="#EEEEEE" style="stroke:#EEEEEE;stroke:color(display-p3 0.9333 0.9333 0.9333);stroke-opacity:1;"/>
<path fill-rule="evenodd" clip-rule="evenodd" d="M24.3013 25.1902C24.5181 24.828 24.5558 24.5729 24.5558 24.5729L22.4185 18.9865C22.4185 18.9865 22.0307 17.9056 22.8853 17.5854C23.7907 17.2457 24.1175 18.1105 24.1855 18.2919C24.2536 18.4732 25.5358 21.8877 25.5358 21.8877L26.7705 18.2997C26.7705 18.2997 27.1242 17.1841 28.1131 17.582C28.9303 17.9109 28.5106 19.0052 28.5106 19.0052C28.5106 19.0052 27.247 22.7437 26.1879 25.456C25.5552 27.0764 25.015 27.2362 24.3977 27.3881C23.5715 27.5915 22.0095 27.4907 22.0095 26.4635C22.0095 25.6533 22.839 25.6027 23.2133 25.6148C23.2333 25.6152 24.0068 25.6822 24.3013 25.1902Z" fill="#1CB9DE" style="fill:#1CB9DE;fill:color(display-p3 0.1098 0.7255 0.8706);fill-opacity:1;"/>
<path fill-rule="evenodd" clip-rule="evenodd" d="M19.3373 15.7996L17.3837 21.1901L15.2539 15.8324C15.2539 15.8324 14.9382 14.8168 14.0502 14.8168C13.0212 14.8168 13.0548 15.6318 13.0317 15.8324C13.0085 16.0332 13.0317 24.2105 13.0317 24.2105C13.0317 24.2105 13.0212 25.0689 13.9653 25.0689C14.9299 25.0689 14.8836 24.2028 14.8913 24.2028C14.899 24.2028 14.8913 19.8859 14.8913 19.8859L16.4577 24.2028C16.4577 24.2028 16.6891 25.0516 17.4145 25.0361C18.1399 25.0208 18.3482 24.2028 18.3482 24.2028L19.66 19.8937V24.2028C19.66 24.2028 19.66 25.0689 20.6091 25.0689C21.5273 25.0689 21.5273 24.2028 21.5273 24.2028L21.5286 15.8402C21.5286 15.8402 21.5286 14.8168 20.5319 14.8217C19.7053 14.8256 19.3913 15.6179 19.3373 15.7996C19.3311 15.8208 19.3282 15.8324 19.3282 15.8324L19.3373 15.7996Z" fill="#1CB9DE" style="fill:#1CB9DE;fill:color(display-p3 0.1098 0.7255 0.8706);fill-opacity:1;"/>
<path fill-rule="evenodd" clip-rule="evenodd" d="M34.4133 23.2391H31.7797V20.7288H34.4133C35.0502 20.7616 35.6687 21.0857 35.6687 21.9841C35.6687 22.9066 35.1063 23.2391 34.4133 23.2391ZM31.7797 16.7983H34.2344C34.7262 16.8109 35.2423 17.0732 35.2423 17.8063C35.2423 18.5701 34.791 18.8142 34.2344 18.8142H31.7797V16.7983ZM36.488 19.5747C36.5382 19.5059 37.1681 18.9955 37.1184 17.6385C37.018 14.891 34.6319 14.9223 34.1038 14.9063C33.253 14.8807 32.7408 14.891 31.1792 14.9063C29.8607 14.9194 29.8702 16.1178 29.8702 16.1178V25.0688C29.8702 25.0688 32.2441 25.0688 34.315 25.0688C36.6935 25.0688 37.5782 23.7594 37.5782 21.9287C37.5782 20.0869 36.488 19.5747 36.488 19.5747Z" fill="#204256" style="fill:#204256;fill:color(display-p3 0.1255 0.2588 0.3373);fill-opacity:1;"/>
<path fill-rule="evenodd" clip-rule="evenodd" d="M38.75 28.3671H29.8302L29.8388 28.3805C27.4456 31.1846 23.8914 32.968 19.9157 32.968C12.7077 32.968 6.86448 27.1243 6.86448 19.9163C6.86448 12.7083 12.7077 6.8651 19.9157 6.8651C23.9084 6.8651 27.4797 8.65864 29.8732 11.4833H32.4939C29.7743 7.43468 25.1595 4.76562 19.9157 4.76562C11.5488 4.76562 4.76562 11.5489 4.76562 19.9163C4.76562 28.2838 11.5488 35.0669 19.9157 35.0669C24.3051 35.0669 28.2497 33.1931 31.0149 30.2094H38.75V28.3671Z" fill="#1CB9DE" style="fill:#1CB9DE;fill:color(display-p3 0.1098 0.7255 0.8706);fill-opacity:1;"/>
</svg>
