<svg width="24" height="24" viewBox="0 0 24 24" fill="none" xmlns="http://www.w3.org/2000/svg">
<rect x="0.5" y="0.5" width="23" height="23" rx="5.5" fill="white" style="fill:white;fill-opacity:1;"/>
<rect x="0.5" y="0.5" width="23" height="23" rx="5.5" stroke="#EEEEEE" style="stroke:#EEEEEE;stroke:color(display-p3 0.9333 0.9333 0.9333);stroke-opacity:1;"/>
<path fill-rule="evenodd" clip-rule="evenodd" d="M14.5809 15.1141C14.7109 14.8968 14.7336 14.7437 14.7336 14.7437L13.4512 11.3919C13.4512 11.3919 13.2185 10.7433 13.7313 10.5512C14.2745 10.3474 14.4706 10.8663 14.5114 10.9751C14.5522 11.0839 15.3216 13.1326 15.3216 13.1326L16.0624 10.9798C16.0624 10.9798 16.2746 10.3104 16.8679 10.5491C17.3583 10.7465 17.1064 11.403 17.1064 11.403C17.1064 11.403 16.3483 13.6462 15.7128 15.2735C15.3332 16.2458 15.0091 16.3416 14.6387 16.4328C14.143 16.5549 13.2058 16.4944 13.2058 15.878C13.2058 15.3919 13.7035 15.3616 13.9281 15.3688C13.9401 15.3691 14.4042 15.4093 14.5809 15.1141Z" fill="#1CB9DE" style="fill:#1CB9DE;fill:color(display-p3 0.1098 0.7255 0.8706);fill-opacity:1;"/>
<path fill-rule="evenodd" clip-rule="evenodd" d="M11.6024 9.47973L10.4302 12.714L9.15237 9.49941C9.15237 9.49941 8.96298 8.89001 8.43016 8.89001C7.81279 8.89001 7.83294 9.37904 7.81904 9.49941C7.80515 9.61987 7.81904 14.5263 7.81904 14.5263C7.81904 14.5263 7.81279 15.0413 8.37923 15.0413C8.95799 15.0413 8.93019 14.5216 8.93481 14.5216C8.93943 14.5216 8.93481 11.9315 8.93481 11.9315L9.87466 14.5216C9.87466 14.5216 10.0135 15.0309 10.4488 15.0216C10.884 15.0124 11.0089 14.5216 11.0089 14.5216L11.7961 11.9362V14.5216C11.7961 14.5216 11.7961 15.0413 12.3655 15.0413C12.9164 15.0413 12.9164 14.5216 12.9164 14.5216L12.9172 9.50407C12.9172 9.50407 12.9172 8.89001 12.3192 8.89295C11.8233 8.89528 11.6348 9.37069 11.6024 9.47973C11.5987 9.49246 11.597 9.49941 11.597 9.49941L11.6024 9.47973Z" fill="#1CB9DE" style="fill:#1CB9DE;fill:color(display-p3 0.1098 0.7255 0.8706);fill-opacity:1;"/>
<path fill-rule="evenodd" clip-rule="evenodd" d="M20.6479 13.9434H19.0678V12.4373H20.6479C21.0301 12.457 21.4012 12.6514 21.4012 13.1905C21.4012 13.744 21.0637 13.9434 20.6479 13.9434ZM19.0678 10.079H20.5406C20.8357 10.0866 21.1454 10.2439 21.1454 10.6838C21.1454 11.1421 20.8746 11.2885 20.5406 11.2885H19.0678V10.079ZM21.8928 11.7448C21.9229 11.7035 22.3009 11.3973 22.271 10.5831C22.2108 8.9346 20.7791 8.95339 20.4622 8.94379C19.9518 8.92844 19.6445 8.9346 18.7075 8.94379C17.9164 8.95162 17.9221 9.67066 17.9221 9.67066V15.0413C17.9221 15.0413 19.3464 15.0413 20.5889 15.0413C22.0161 15.0413 22.5469 14.2556 22.5469 13.1572C22.5469 12.0521 21.8928 11.7448 21.8928 11.7448Z" fill="#204256" style="fill:#204256;fill:color(display-p3 0.1255 0.2588 0.3373);fill-opacity:1;"/>
<path fill-rule="evenodd" clip-rule="evenodd" d="M23.25 17.0202H17.8981L17.9033 17.0283C16.4674 18.7108 14.3349 19.7808 11.9494 19.7808C7.62459 19.7808 4.11869 16.2746 4.11869 11.9498C4.11869 7.62496 7.62459 4.11906 11.9494 4.11906C14.3451 4.11906 16.4879 5.19518 17.9239 6.88998H19.4963C17.8646 4.46081 15.0957 2.85938 11.9494 2.85938C6.9293 2.85938 2.85938 6.92934 2.85938 11.9498C2.85938 16.9703 6.9293 21.0401 11.9494 21.0401C14.5831 21.0401 16.9498 19.9159 18.6089 18.1257H23.25V17.0202Z" fill="#1CB9DE" style="fill:#1CB9DE;fill:color(display-p3 0.1098 0.7255 0.8706);fill-opacity:1;"/>
</svg>
