<svg width="48" height="36" viewBox="0 0 48 36" fill="none" xmlns="http://www.w3.org/2000/svg">
<rect x="0.75" y="0.75" width="46.5" height="34.5" rx="5.25" fill="white" style="fill:white;fill-opacity:1;"/>
<rect x="0.75" y="0.75" width="46.5" height="34.5" rx="5.25" stroke="#ECECF0" style="stroke:#ECECF0;stroke:color(display-p3 0.9255 0.9255 0.9412);stroke-opacity:1;" stroke-width="1.5"/>
<path fill-rule="evenodd" clip-rule="evenodd" d="M33.1018 20.4612C33.1018 20.4612 32.0608 20.6775 32.0716 19.9234C32.0827 19.1693 33.9682 19.2144 34.1613 19.2755C34.1613 19.2755 34.2208 20.1311 33.1018 20.4612ZM33.4151 15.7044C31.7966 15.6891 31.0397 16.6311 31.0397 16.6311C30.5482 17.1586 30.8633 17.8729 31.3454 17.9245C32.0381 17.9986 32.031 17.4111 33.0943 17.1506C34.0271 16.9222 34.0674 17.7966 34.0674 17.7966C30.0892 17.6965 30.2792 21.0746 31.6334 21.7921C32.9321 22.48 34.1459 21.6121 34.1459 21.6121C34.1459 21.6121 34.1916 22.0796 34.8341 22.0796C35.5693 22.0796 35.5683 21.3371 35.5683 21.3371L35.5653 18.049C35.5168 15.6433 33.4151 15.7044 33.4151 15.7044Z" fill="#204256" style="fill:#204256;fill:color(display-p3 0.1255 0.2588 0.3373);fill-opacity:1;"/>
<path fill-rule="evenodd" clip-rule="evenodd" d="M46.2615 20.752L44.6397 18.2817L45.8317 17.1412C45.8317 17.1412 46.3819 16.6258 45.9301 16.115C45.4296 15.5493 44.8328 16.1078 44.8328 16.1078L43.335 17.5158V14.6896C43.335 14.2846 43.0108 13.9566 42.6108 13.9566C42.2103 13.9566 41.886 14.2846 41.886 14.6896V21.3399C41.886 21.7447 42.2103 22.0728 42.6108 22.0728C43.0108 22.0728 43.335 21.7447 43.335 21.3399V19.5694L43.6091 19.2924L45.0763 21.6195C45.0763 21.6195 45.5546 22.4274 46.259 21.9133C46.7886 21.5266 46.2615 20.752 46.2615 20.752Z" fill="#204256" style="fill:#204256;fill:color(display-p3 0.1255 0.2588 0.3373);fill-opacity:1;"/>
<path fill-rule="evenodd" clip-rule="evenodd" d="M41.0869 18.0493C41.0869 15.6471 39.108 15.3086 37.7625 16.0706L37.7595 16.075C37.6583 15.7827 37.3862 15.5715 37.0626 15.5715C36.6537 15.5715 36.3221 15.9072 36.3221 16.3212V21.3299C36.3221 21.7439 36.6537 22.0796 37.0626 22.0796C37.4718 22.0796 37.8035 21.7439 37.8035 21.3299L37.7933 17.9507C37.7933 17.9507 37.9729 17.7343 38.2613 17.5272C38.9542 17.0302 39.6148 17.1995 39.6148 18.049L39.6317 21.342C39.6317 21.7498 39.9579 22.0796 40.3605 22.0796C40.7629 22.0796 41.0891 21.7498 41.0891 21.342L41.0869 18.0493Z" fill="#204256" style="fill:#204256;fill:color(display-p3 0.1255 0.2588 0.3373);fill-opacity:1;"/>
<path fill-rule="evenodd" clip-rule="evenodd" d="M19.7905 22.1759C19.9602 21.889 19.9897 21.6869 19.9897 21.6869L18.3169 17.2622C18.3169 17.2622 18.0133 16.4061 18.6822 16.1525C19.3909 15.8835 19.6467 16.5684 19.6999 16.7121C19.7531 16.8556 20.7568 19.5601 20.7568 19.5601L21.7231 16.7182C21.7231 16.7182 22 15.8347 22.774 16.1498C23.4135 16.4103 23.085 17.277 23.085 17.277C23.085 17.277 22.0961 20.2382 21.2671 22.3863C20.7719 23.6698 20.3491 23.7964 19.8659 23.9166C19.2193 24.0777 17.9967 23.9979 17.9967 23.1843C17.9967 22.5426 18.646 22.5025 18.9389 22.5121C18.9546 22.5124 19.56 22.5655 19.7905 22.1759Z" fill="#1CB9DE" style="fill:#1CB9DE;fill:color(display-p3 0.1098 0.7255 0.8706);fill-opacity:1;"/>
<path fill-rule="evenodd" clip-rule="evenodd" d="M15.9052 14.738L14.3761 19.0075L12.7092 14.764C12.7092 14.764 12.4621 13.9595 11.767 13.9595C10.9617 13.9595 10.988 14.6051 10.9698 14.764C10.9517 14.923 10.9698 21.3997 10.9698 21.3997C10.9698 21.3997 10.9617 22.0797 11.7006 22.0797C12.4556 22.0797 12.4193 21.3937 12.4254 21.3937C12.4314 21.3937 12.4254 17.9746 12.4254 17.9746L13.6514 21.3937C13.6514 21.3937 13.8325 22.0659 14.4003 22.0536C14.968 22.0416 15.131 21.3937 15.131 21.3937L16.1578 17.9807V21.3937C16.1578 21.3937 16.1578 22.0797 16.9006 22.0797C17.6193 22.0797 17.6193 21.3937 17.6193 21.3937L17.6203 14.7701C17.6203 14.7701 17.6203 13.9595 16.8403 13.9634C16.1934 13.9665 15.9475 14.5941 15.9052 14.738C15.9004 14.7548 15.8981 14.764 15.8981 14.764L15.9052 14.738Z" fill="#1CB9DE" style="fill:#1CB9DE;fill:color(display-p3 0.1098 0.7255 0.8706);fill-opacity:1;"/>
<path fill-rule="evenodd" clip-rule="evenodd" d="M46.5 24.695L24.1181 24.6934L24.1246 24.704C22.2516 26.925 19.4696 28.3375 16.3579 28.3375C10.7162 28.3375 6.14277 23.7091 6.14277 18.0001C6.14277 12.2909 10.7162 7.66288 16.3579 7.66288C19.4831 7.66288 22.2783 9.08344 24.1516 11.3207H26.2028C24.0743 8.11401 20.4623 6 16.3579 6C9.80919 6 4.5 11.3727 4.5 18.0001C4.5 24.6274 9.80919 30 16.3579 30C19.7934 30 22.8809 28.5158 25.0453 26.1527L45.5279 26.132L46.5 24.695Z" fill="#1CB9DE" style="fill:#1CB9DE;fill:color(display-p3 0.1098 0.7255 0.8706);fill-opacity:1;"/>
<path fill-rule="evenodd" clip-rule="evenodd" d="M27.7049 20.6305H25.6436V18.6423H27.7049C28.2034 18.6682 28.6875 18.925 28.6875 19.6365C28.6875 20.3672 28.2473 20.6305 27.7049 20.6305ZM25.6436 15.5291H27.565C27.9499 15.5391 28.3537 15.7468 28.3537 16.3274C28.3537 16.9324 28.0005 17.1257 27.565 17.1257H25.6436V15.5291ZM29.3289 17.7282C29.368 17.6736 29.8611 17.2694 29.8221 16.1945C29.7436 14.0184 27.876 14.0432 27.4627 14.0305C26.7968 14.0103 26.3959 14.0184 25.1736 14.0305C24.1415 14.0409 24.1491 14.9901 24.1491 14.9901V22.0796H27.628C29.4896 22.0796 30.1821 21.0425 30.1821 19.5925C30.1821 18.1337 29.3289 17.7282 29.3289 17.7282Z" fill="#204256" style="fill:#204256;fill:color(display-p3 0.1255 0.2588 0.3373);fill-opacity:1;"/>
</svg>
