<svg width="48" height="36" viewBox="0 0 48 36" fill="none" xmlns="http://www.w3.org/2000/svg">
<rect width="48" height="36" rx="6" fill="#D13239" style="fill:#D13239;fill:color(display-p3 0.8196 0.1961 0.2235);fill-opacity:1;"/>
<path fill-rule="evenodd" clip-rule="evenodd" d="M17.6945 11.5357C17.4918 11.3317 17.2503 11.174 16.9855 11.0725C16.68 10.9539 16.3642 10.8658 16.0426 10.8092C15.6865 10.7446 15.3266 10.7052 14.9654 10.6913C14.7065 10.6798 14.5403 10.6798 14.5403 10.6798H8.36215L6 25.5H8.20569L9.07662 20.0104L13.3551 20.032C13.3551 20.032 15.0222 20.1025 16.2032 19.4508C17.3843 18.8005 17.6986 17.3217 17.6986 17.3217C17.6986 17.3217 17.8288 16.7721 17.9382 16.1046C18.0643 15.2995 18.1783 14.4924 18.2802 13.6835C18.2802 13.6835 18.3106 13.5325 18.3106 13.2951C18.3215 12.8444 18.2214 12.3982 18.0198 11.9989C17.932 11.83 17.8225 11.6742 17.6945 11.5357ZM15.9955 14.1511C15.9955 14.1784 15.7989 15.3667 15.54 16.7765C15.4417 17.3145 15.0415 17.6051 14.5874 17.7072C13.8314 17.8741 13.0172 17.8425 13.0172 17.8425L9.44492 17.8324L10.2314 12.9081L13.4686 12.9182C13.4686 12.9182 13.686 12.9139 13.992 12.9182C14.3382 12.924 14.7992 12.9398 15.1772 12.9944C15.504 13.0376 15.7629 13.1067 15.846 13.2145C15.945 13.3562 16.0027 13.5245 16.0122 13.6993C16.0315 13.9353 15.9955 14.1352 15.9955 14.1511Z" fill="white" style="fill:white;fill-opacity:1;"/>
<path fill-rule="evenodd" clip-rule="evenodd" d="M19.8323 15.873L22.0657 15.8788L22.2 14.9797C22.2 14.9797 22.4382 13.3541 22.9726 13.0419C23.1429 12.9412 23.4171 12.8491 23.7342 12.7902C24.3185 12.6823 25.0592 12.6708 25.6657 12.6923C26.5934 12.7254 26.9451 12.7355 27.8866 12.8491C28.8295 12.9614 28.5914 13.9094 28.5914 13.9094L28.4045 15.3235C28.4045 15.3235 28.3214 15.9594 28.104 16.3521C27.9129 16.7017 27.384 16.939 27.0794 17.0412C26.3442 17.2886 23.8255 17.9547 23.8255 17.9547L21.8483 18.5474C21.8483 18.5474 20.6298 18.9128 19.9514 19.6939C19.4317 20.3006 19.0716 21.0364 18.906 21.8302C18.8132 22.292 18.2898 25.4942 18.2898 25.4942L28.9694 25.5L29.3266 23.2832L20.8805 23.2932L21.03 22.3898C21.03 22.3898 21.1283 21.4576 21.4911 21.1526C21.6046 21.0548 21.6614 20.9253 22.3357 20.6779C22.7386 20.5268 24.1163 20.1456 24.1163 20.1456L27.3009 19.2407C27.3009 19.2407 29.0414 18.779 29.7254 17.7878C30.4094 16.8038 30.6738 14.9149 30.6738 14.9149C30.6738 14.9149 30.8594 13.0808 30.7154 12.5039C30.5755 11.9285 30.0508 11.2394 29.4138 10.9445C28.7769 10.6481 28.1151 10.4755 26.1932 10.5028C24.2728 10.5302 23.3188 10.6208 22.3454 10.9977C21.372 11.3689 20.8085 12.0479 20.4498 13.0045C20.0622 13.9137 19.8337 15.873 19.8337 15.873H19.8323ZM39.9383 19.9946L41.4351 10.6755H38.7835L30.5285 19.8867L30.1546 22.2229H37.3754L36.8465 25.4942L39.0632 25.5L39.5866 22.2229L41.6317 22.2272L42 19.9946H39.9383ZM37.7326 20.0003L33.0665 19.9946L38.7475 13.7051L37.7326 20.0003Z" fill="#D4D4D4" style="fill:#D4D4D4;fill:color(display-p3 0.8297 0.8297 0.8297);fill-opacity:1;"/>
</svg>
