<svg width="40" height="40" viewBox="0 0 40 40" fill="none" xmlns="http://www.w3.org/2000/svg">
<rect width="40" height="40" rx="10" fill="#D13239" style="fill:#D13239;fill:color(display-p3 0.8196 0.1961 0.2235);fill-opacity:1;"/>
<path fill-rule="evenodd" clip-rule="evenodd" d="M16.3636 15.6492C16.2489 15.5278 16.0837 15.4334 15.9016 15.3592C15.7094 15.285 15.497 15.2311 15.288 15.194C15.025 15.1468 14.7687 15.1265 14.5866 15.1198C14.418 15.113 14.3101 15.113 14.3101 15.113H12.0038H10.2876L8.75 24.399H10.1864L10.7529 20.9598L13.538 20.9733C13.538 20.9733 14.6237 21.0171 15.3925 20.6091C16.1613 20.2011 16.3669 19.2739 16.3669 19.2739C16.3669 19.2739 16.4512 18.9299 16.5221 18.5118C16.5996 18.0499 16.6772 17.4969 16.7176 17.2036C16.7345 17.0754 16.7446 16.9945 16.7446 16.9945C16.7446 16.9945 16.7648 16.9001 16.7648 16.7517C16.7682 16.5461 16.7378 16.2359 16.576 15.9391C16.5187 15.8346 16.4512 15.7402 16.3636 15.6492ZM15.2576 17.2879C15.2576 17.3047 15.1295 18.0499 14.9609 18.9333C14.8968 19.2705 14.6372 19.4526 14.3405 19.5166C13.8482 19.6212 13.3188 19.6009 13.3188 19.6009L10.9923 19.5942L11.5048 16.509L13.6122 16.5157C13.6122 16.5157 13.7538 16.5123 13.9527 16.5157C14.1786 16.5191 14.4787 16.5292 14.7249 16.5629C14.9373 16.5899 15.1059 16.6337 15.1598 16.7012C15.2306 16.7888 15.2576 16.9035 15.2677 17.0046C15.2812 17.153 15.2576 17.2777 15.2576 17.2879Z" fill="white" style="fill:white;fill-opacity:1;"/>
<path fill-rule="evenodd" clip-rule="evenodd" d="M17.7561 18.3668L19.2094 18.3702L19.2971 17.8071C19.2971 17.8071 19.4522 16.7888 19.7995 16.5932C19.9107 16.5292 20.0894 16.4718 20.2951 16.4347C20.6761 16.3673 21.1583 16.3606 21.5528 16.3741C22.1564 16.3943 22.3857 16.401 22.9993 16.4718C23.613 16.5426 23.4579 17.1361 23.4579 17.1361L23.3365 18.0229C23.3365 18.0229 23.2826 18.4208 23.1409 18.6669C23.0162 18.8861 22.6723 19.0344 22.4733 19.0985C21.9945 19.2536 20.3558 19.6717 20.3558 19.6717L19.0678 20.0426C19.0678 20.0426 18.2754 20.2719 17.8337 20.7608C17.3886 21.2531 17.2133 21.8094 17.1526 22.0994C17.0919 22.3894 16.7513 24.3956 16.7513 24.3956L23.704 24.399L23.9367 23.0098L18.4373 23.0165L18.535 22.4501C18.535 22.4501 18.5991 21.8668 18.8351 21.6746C18.9093 21.6139 18.9464 21.5329 19.3847 21.3778C19.6477 21.2834 20.5446 21.044 20.5446 21.044L22.6183 20.4776C22.6183 20.4776 23.7512 20.1876 24.1963 19.5672C24.6414 18.9501 24.8134 17.7666 24.8134 17.7666C24.8134 17.7666 24.9348 16.6168 24.8403 16.256C24.7493 15.8953 24.4088 15.4637 23.994 15.2782C23.5793 15.0928 23.1477 14.9849 21.8967 15.0017C20.6458 15.0186 20.0254 15.0759 19.3915 15.3119C18.7576 15.5446 18.3901 15.9694 18.1574 16.5696C17.9045 17.1395 17.7561 18.3668 17.7561 18.3668Z" fill="#D4D4D4" style="fill:#D4D4D4;fill:color(display-p3 0.8297 0.8297 0.8297);fill-opacity:1;"/>
<path fill-rule="evenodd" clip-rule="evenodd" d="M30.8454 20.9496L31.8199 15.1096H30.0935L24.7188 20.8822L24.4761 22.3456H29.1764L28.8325 24.3956L30.2756 24.399L30.6162 22.3456L31.948 22.3489L32.1874 20.9496H30.8454ZM29.4091 20.953L26.371 20.9496L30.0699 17.008L29.4091 20.953Z" fill="#D4D4D4" style="fill:#D4D4D4;fill:color(display-p3 0.8297 0.8297 0.8297);fill-opacity:1;"/>
</svg>
