<svg width="16" height="16" viewBox="0 0 16 16" fill="none" xmlns="http://www.w3.org/2000/svg">
<rect width="16" height="16" rx="4" fill="#D13239" style="fill:#D13239;fill:color(display-p3 0.8196 0.1961 0.2235);fill-opacity:1;"/>
<path fill-rule="evenodd" clip-rule="evenodd" d="M6.54543 6.25967C6.49957 6.21112 6.43349 6.17336 6.36065 6.14368C6.28378 6.11401 6.19881 6.09243 6.11519 6.0776C6.00998 6.05871 5.90748 6.05062 5.83465 6.04792C5.76721 6.04523 5.72405 6.04523 5.72405 6.04523H4.80152H4.11502L3.5 9.75963H4.07456L4.30114 8.38392L5.4152 8.38932C5.4152 8.38932 5.84949 8.40685 6.157 8.24366C6.46451 8.08046 6.54678 7.70956 6.54678 7.70956C6.54678 7.70956 6.5805 7.57199 6.60882 7.40475C6.63984 7.21997 6.67086 6.99878 6.68705 6.88144C6.69379 6.83019 6.69784 6.79782 6.69784 6.79782C6.69784 6.79782 6.70593 6.76005 6.70593 6.70071C6.70728 6.61844 6.69514 6.49435 6.6304 6.37567C6.60747 6.33386 6.5805 6.29609 6.54543 6.25967ZM6.10305 6.91516C6.10305 6.9219 6.0518 7.21997 5.98436 7.57334C5.95873 7.70821 5.85488 7.78104 5.73619 7.80667C5.53928 7.84848 5.32753 7.84039 5.32753 7.84039L4.3969 7.83769L4.60191 6.6036L5.44487 6.6063C5.44487 6.6063 5.50151 6.60495 5.58109 6.6063C5.67145 6.60765 5.79149 6.61169 5.88995 6.62518C5.97492 6.63597 6.04235 6.6535 6.06393 6.68048C6.09226 6.71555 6.10305 6.7614 6.10709 6.80186C6.11249 6.86121 6.10305 6.91111 6.10305 6.91516Z" fill="white" style="fill:white;fill-opacity:1;"/>
<path fill-rule="evenodd" clip-rule="evenodd" d="M7.10248 7.34672L7.68379 7.34807L7.71885 7.12283C7.71885 7.12283 7.78089 6.71552 7.91981 6.63729C7.96432 6.61166 8.0358 6.58874 8.11808 6.5739C8.27048 6.54692 8.46335 6.54423 8.62115 6.54962C8.86257 6.55771 8.95429 6.56041 9.19976 6.58874C9.44523 6.61706 9.38318 6.85444 9.38318 6.85444L9.33463 7.20915C9.33463 7.20915 9.31305 7.3683 9.2564 7.46676C9.2065 7.55443 9.06893 7.61377 8.98936 7.63939C8.79784 7.70144 8.14235 7.86868 8.14235 7.86868L7.62714 8.01704C7.62714 8.01704 7.31019 8.10875 7.1335 8.30432C6.95547 8.50123 6.88534 8.72377 6.86106 8.83976C6.83678 8.95575 6.70056 9.75825 6.70056 9.75825L9.48164 9.7596L9.5747 9.20392L7.37493 9.20662L7.41404 8.98003C7.41404 8.98003 7.43967 8.7467 7.53408 8.66982C7.56375 8.64555 7.57858 8.61318 7.75392 8.55114C7.85912 8.51337 8.21788 8.41761 8.21788 8.41761L9.04735 8.19103C9.04735 8.19103 9.50052 8.07503 9.67856 7.82687C9.85659 7.58005 9.92537 7.10665 9.92537 7.10665C9.92537 7.10665 9.97393 6.64673 9.93616 6.50242C9.89975 6.3581 9.76353 6.18547 9.59763 6.11129C9.43174 6.03711 9.2591 5.99395 8.75872 6.00069C8.25834 6.00743 8.01018 6.03036 7.75662 6.12477C7.50306 6.21783 7.35604 6.38777 7.26298 6.62785C7.16183 6.85578 7.10248 7.34672 7.10248 7.34672Z" fill="#D4D4D4" style="fill:#D4D4D4;fill:color(display-p3 0.8297 0.8297 0.8297);fill-opacity:1;"/>
<path fill-rule="evenodd" clip-rule="evenodd" d="M12.3382 8.37988L12.7279 6.04388H12.0374L9.88751 8.35291L9.79041 8.93826H11.6705L11.533 9.75829L12.1102 9.75963L12.2464 8.93826L12.7792 8.93961L12.8749 8.37988H12.3382ZM11.7636 8.38123L10.5484 8.37988L12.0279 6.80322L11.7636 8.38123Z" fill="#D4D4D4" style="fill:#D4D4D4;fill:color(display-p3 0.8297 0.8297 0.8297);fill-opacity:1;"/>
</svg>
