<svg width="24" height="24" viewBox="0 0 24 24" fill="none" xmlns="http://www.w3.org/2000/svg">
<rect width="24" height="24" rx="6" fill="#0040FF" style="fill:#0040FF;fill:color(display-p3 0.0000 0.2510 1.0000);fill-opacity:1;"/>
<path fill-rule="evenodd" clip-rule="evenodd" d="M5.39673 8.2627C5.26225 8.33279 5.16139 8.41311 5.09414 8.50367C5.03138 8.59433 5 8.69731 5 8.81264C5 8.96095 5.05828 9.09281 5.17483 9.20814C5.29138 9.31935 5.45277 9.375 5.65898 9.375H18.341C18.5517 9.375 18.7131 9.31935 18.8252 9.20814C18.9417 9.09281 19 8.96095 19 8.81264C19 8.69731 18.9664 8.59433 18.8991 8.50367C18.8364 8.41311 18.74 8.33279 18.61 8.2627L12.8675 5.22246C12.5806 5.07416 12.2914 5 12 5C11.7086 5 11.4217 5.07416 11.1393 5.22246L5.39673 8.2627ZM8.57998 8.0625H15.4267L12.2601 6.38605C12.1415 6.32546 12.059 6.3125 12 6.3125C11.9411 6.3125 11.8626 6.32534 11.7511 6.38368L8.57998 8.0625Z" fill="white" style="fill:white;fill-opacity:1;"/>
<path d="M7.40625 10.6875H8.71875V16.375H7.40625V10.6875Z" fill="white" style="fill:white;fill-opacity:1;"/>
<path d="M6.75 11.2125C6.75 10.9651 6.75 10.8412 6.82689 10.7644C6.90377 10.6875 7.02752 10.6875 7.275 10.6875H8.85C9.09745 10.6875 9.22126 10.6875 9.29809 10.7644C9.375 10.8412 9.375 10.9651 9.375 11.2125V11.475C9.375 11.7224 9.375 11.8463 9.29809 11.9231C9.22126 12 9.09745 12 8.85 12H7.275C7.02752 12 6.90377 12 6.82689 11.9231C6.75 11.8463 6.75 11.7224 6.75 11.475V11.2125Z" fill="white" style="fill:white;fill-opacity:1;"/>
<path d="M6.75 15.5875C6.75 15.3401 6.75 15.2162 6.82689 15.1394C6.90377 15.0625 7.02752 15.0625 7.275 15.0625H8.85C9.09745 15.0625 9.22126 15.0625 9.29809 15.1394C9.375 15.2162 9.375 15.3401 9.375 15.5875V15.85C9.375 16.0974 9.375 16.2213 9.29809 16.2981C9.22126 16.375 9.09745 16.375 8.85 16.375H7.275C7.02752 16.375 6.90377 16.375 6.82689 16.2981C6.75 16.2213 6.75 16.0974 6.75 15.85V15.5875Z" fill="white" style="fill:white;fill-opacity:1;"/>
<path d="M11.3438 10.6875H12.6562V16.375H11.3438V10.6875Z" fill="white" style="fill:white;fill-opacity:1;"/>
<path d="M10.6875 11.2125C10.6875 10.9651 10.6875 10.8412 10.7644 10.7644C10.8412 10.6875 10.9651 10.6875 11.2125 10.6875H12.7875C13.0349 10.6875 13.1588 10.6875 13.2356 10.7644C13.3125 10.8412 13.3125 10.9651 13.3125 11.2125V11.475C13.3125 11.7224 13.3125 11.8463 13.2356 11.9231C13.1588 12 13.0349 12 12.7875 12H11.2125C10.9651 12 10.8412 12 10.7644 11.9231C10.6875 11.8463 10.6875 11.7224 10.6875 11.475V11.2125Z" fill="white" style="fill:white;fill-opacity:1;"/>
<path d="M10.6875 15.5875C10.6875 15.3401 10.6875 15.2162 10.7644 15.1394C10.8412 15.0625 10.9651 15.0625 11.2125 15.0625H12.7875C13.0349 15.0625 13.1588 15.0625 13.2356 15.1394C13.3125 15.2162 13.3125 15.3401 13.3125 15.5875V15.85C13.3125 16.0974 13.3125 16.2213 13.2356 16.2981C13.1588 16.375 13.0349 16.375 12.7875 16.375H11.2125C10.9651 16.375 10.8412 16.375 10.7644 16.2981C10.6875 16.2213 10.6875 16.0974 10.6875 15.85V15.5875Z" fill="white" style="fill:white;fill-opacity:1;"/>
<path d="M15.2812 10.6875H16.5938V16.375H15.2812V10.6875Z" fill="white" style="fill:white;fill-opacity:1;"/>
<path d="M14.625 11.2125C14.625 10.9651 14.625 10.8412 14.7019 10.7644C14.7787 10.6875 14.9026 10.6875 15.15 10.6875H16.725C16.9724 10.6875 17.0963 10.6875 17.1731 10.7644C17.25 10.8412 17.25 10.9651 17.25 11.2125V11.475C17.25 11.7224 17.25 11.8463 17.1731 11.9231C17.0963 12 16.9724 12 16.725 12H15.15C14.9026 12 14.7787 12 14.7019 11.9231C14.625 11.8463 14.625 11.7224 14.625 11.475V11.2125Z" fill="white" style="fill:white;fill-opacity:1;"/>
<path d="M14.625 15.5875C14.625 15.3401 14.625 15.2162 14.7019 15.1394C14.7787 15.0625 14.9026 15.0625 15.15 15.0625H16.725C16.9724 15.0625 17.0963 15.0625 17.1731 15.1394C17.25 15.2162 17.25 15.3401 17.25 15.5875V15.85C17.25 16.0974 17.25 16.2213 17.1731 16.2981C17.0963 16.375 16.9724 16.375 16.725 16.375H15.15C14.9026 16.375 14.7787 16.375 14.7019 16.2981C14.625 16.2213 14.625 16.0974 14.625 15.85V15.5875Z" fill="white" style="fill:white;fill-opacity:1;"/>
<path d="M5 18.3438C5 17.9813 5.29382 17.6875 5.65625 17.6875H18.3438C18.7062 17.6875 19 17.9813 19 18.3438C19 18.7062 18.7062 19 18.3438 19H5.65625C5.29382 19 5 18.7062 5 18.3438Z" fill="white" style="fill:white;fill-opacity:1;"/>
</svg>
