<svg width="48" height="36" viewBox="0 0 48 36" fill="none" xmlns="http://www.w3.org/2000/svg">
<rect width="48" height="36" rx="6" fill="#0040FF" style="fill:#0040FF;fill:color(display-p3 0.0000 0.2510 1.0000);fill-opacity:1;"/>
<path fill-rule="evenodd" clip-rule="evenodd" d="M15.5101 13.1949C15.3372 13.285 15.2075 13.3883 15.121 13.5047C15.0403 13.6213 15 13.7537 15 13.902C15 14.0926 15.0749 14.2622 15.2248 14.4105C15.3746 14.5535 15.5821 14.625 15.8473 14.625H32.1528C32.4237 14.625 32.6311 14.5535 32.7752 14.4105C32.9251 14.2622 33 14.0926 33 13.902C33 13.7537 32.9568 13.6213 32.8703 13.5047C32.7896 13.3883 32.6656 13.285 32.4986 13.1949L25.1153 9.28602C24.7464 9.09534 24.3746 9 24 9C23.6254 9 23.2565 9.09534 22.8933 9.28602L15.5101 13.1949ZM19.6028 12.9375H28.4057L24.3345 10.7821C24.1819 10.7042 24.0758 10.6875 24 10.6875C23.9243 10.6875 23.8234 10.704 23.6799 10.779L19.6028 12.9375Z" fill="white" style="fill:white;fill-opacity:1;"/>
<path d="M18.0938 16.3125H19.7812V23.625H18.0938V16.3125Z" fill="white" style="fill:white;fill-opacity:1;"/>
<path d="M17.25 16.9875C17.25 16.6694 17.25 16.5102 17.3489 16.4114C17.4477 16.3125 17.6068 16.3125 17.925 16.3125H19.95C20.2681 16.3125 20.4273 16.3125 20.5261 16.4114C20.625 16.5102 20.625 16.6694 20.625 16.9875V17.325C20.625 17.6431 20.625 17.8023 20.5261 17.9011C20.4273 18 20.2681 18 19.95 18H17.925C17.6068 18 17.4477 18 17.3489 17.9011C17.25 17.8023 17.25 17.6431 17.25 17.325V16.9875Z" fill="white" style="fill:white;fill-opacity:1;"/>
<path d="M17.25 22.6125C17.25 22.2944 17.25 22.1352 17.3489 22.0364C17.4477 21.9375 17.6068 21.9375 17.925 21.9375H19.95C20.2681 21.9375 20.4273 21.9375 20.5261 22.0364C20.625 22.1352 20.625 22.2944 20.625 22.6125V22.95C20.625 23.2681 20.625 23.4273 20.5261 23.5261C20.4273 23.625 20.2681 23.625 19.95 23.625H17.925C17.6068 23.625 17.4477 23.625 17.3489 23.5261C17.25 23.4273 17.25 23.2681 17.25 22.95V22.6125Z" fill="white" style="fill:white;fill-opacity:1;"/>
<path d="M23.1562 16.3125H24.8438V23.625H23.1562V16.3125Z" fill="white" style="fill:white;fill-opacity:1;"/>
<path d="M22.3125 16.9875C22.3125 16.6694 22.3125 16.5102 22.4114 16.4114C22.5102 16.3125 22.6694 16.3125 22.9875 16.3125H25.0125C25.3306 16.3125 25.4898 16.3125 25.5886 16.4114C25.6875 16.5102 25.6875 16.6694 25.6875 16.9875V17.325C25.6875 17.6431 25.6875 17.8023 25.5886 17.9011C25.4898 18 25.3306 18 25.0125 18H22.9875C22.6694 18 22.5102 18 22.4114 17.9011C22.3125 17.8023 22.3125 17.6431 22.3125 17.325V16.9875Z" fill="white" style="fill:white;fill-opacity:1;"/>
<path d="M22.3125 22.6125C22.3125 22.2944 22.3125 22.1352 22.4114 22.0364C22.5102 21.9375 22.6694 21.9375 22.9875 21.9375H25.0125C25.3306 21.9375 25.4898 21.9375 25.5886 22.0364C25.6875 22.1352 25.6875 22.2944 25.6875 22.6125V22.95C25.6875 23.2681 25.6875 23.4273 25.5886 23.5261C25.4898 23.625 25.3306 23.625 25.0125 23.625H22.9875C22.6694 23.625 22.5102 23.625 22.4114 23.5261C22.3125 23.4273 22.3125 23.2681 22.3125 22.95V22.6125Z" fill="white" style="fill:white;fill-opacity:1;"/>
<path d="M28.2188 16.3125H29.9062V23.625H28.2188V16.3125Z" fill="white" style="fill:white;fill-opacity:1;"/>
<path d="M27.375 16.9875C27.375 16.6694 27.375 16.5102 27.4739 16.4114C27.5727 16.3125 27.7319 16.3125 28.05 16.3125H30.075C30.3931 16.3125 30.5523 16.3125 30.6511 16.4114C30.75 16.5102 30.75 16.6694 30.75 16.9875V17.325C30.75 17.6431 30.75 17.8023 30.6511 17.9011C30.5523 18 30.3931 18 30.075 18H28.05C27.7319 18 27.5727 18 27.4739 17.9011C27.375 17.8023 27.375 17.6431 27.375 17.325V16.9875Z" fill="white" style="fill:white;fill-opacity:1;"/>
<path d="M27.375 22.6125C27.375 22.2944 27.375 22.1352 27.4739 22.0364C27.5727 21.9375 27.7319 21.9375 28.05 21.9375H30.075C30.3931 21.9375 30.5523 21.9375 30.6511 22.0364C30.75 22.1352 30.75 22.2944 30.75 22.6125V22.95C30.75 23.2681 30.75 23.4273 30.6511 23.5261C30.5523 23.625 30.3931 23.625 30.075 23.625H28.05C27.7319 23.625 27.5727 23.625 27.4739 23.5261C27.375 23.4273 27.375 23.2681 27.375 22.95V22.6125Z" fill="white" style="fill:white;fill-opacity:1;"/>
<path d="M15 26.1562C15 25.6903 15.3778 25.3125 15.8438 25.3125H32.1562C32.6222 25.3125 33 25.6903 33 26.1562C33 26.6222 32.6222 27 32.1562 27H15.8438C15.3778 27 15 26.6222 15 26.1562Z" fill="white" style="fill:white;fill-opacity:1;"/>
</svg>
