<svg width="16" height="16" viewBox="0 0 16 16" fill="none" xmlns="http://www.w3.org/2000/svg">
<rect width="16" height="16" rx="4" fill="#0040FF" style="fill:#0040FF;fill:color(display-p3 0.0000 0.2510 1.0000);fill-opacity:1;"/>
<path fill-rule="evenodd" clip-rule="evenodd" d="M3.28338 5.3305C3.18732 5.38056 3.11528 5.43794 3.06724 5.50262C3.02241 5.56737 3 5.64094 3 5.72331C3 5.82925 3.04163 5.92344 3.12488 6.00581C3.20813 6.08525 3.32341 6.125 3.4707 6.125H12.5293C12.6798 6.125 12.7951 6.08525 12.8751 6.00581C12.9584 5.92344 13 5.82925 13 5.72331C13 5.64094 12.976 5.56737 12.9279 5.50262C12.8831 5.43794 12.8142 5.38056 12.7214 5.3305L8.61963 3.1589C8.41469 3.05297 8.20813 3 8 3C7.79187 3 7.58694 3.05297 7.38519 3.1589L3.28338 5.3305ZM5.55713 5.1875H10.4476L8.18581 3.99004C8.10106 3.94676 8.04213 3.9375 8 3.9375C7.95794 3.9375 7.90188 3.94667 7.82219 3.98834L5.55713 5.1875Z" fill="white" style="fill:white;fill-opacity:1;"/>
<path d="M4.71875 7.0625H5.65625V11.125H4.71875V7.0625Z" fill="white" style="fill:white;fill-opacity:1;"/>
<path d="M4.25 7.4375C4.25 7.26075 4.25 7.17231 4.30492 7.11744C4.35984 7.0625 4.44823 7.0625 4.625 7.0625H5.75C5.92675 7.0625 6.01519 7.0625 6.07006 7.11744C6.125 7.17231 6.125 7.26075 6.125 7.4375V7.625C6.125 7.80175 6.125 7.89019 6.07006 7.94506C6.01519 8 5.92675 8 5.75 8H4.625C4.44823 8 4.35984 8 4.30492 7.94506C4.25 7.89019 4.25 7.80175 4.25 7.625V7.4375Z" fill="white" style="fill:white;fill-opacity:1;"/>
<path d="M4.25 10.5625C4.25 10.3858 4.25 10.2973 4.30492 10.2424C4.35984 10.1875 4.44823 10.1875 4.625 10.1875H5.75C5.92675 10.1875 6.01519 10.1875 6.07006 10.2424C6.125 10.2973 6.125 10.3858 6.125 10.5625V10.75C6.125 10.9267 6.125 11.0152 6.07006 11.0701C6.01519 11.125 5.92675 11.125 5.75 11.125H4.625C4.44823 11.125 4.35984 11.125 4.30492 11.0701C4.25 11.0152 4.25 10.9267 4.25 10.75V10.5625Z" fill="white" style="fill:white;fill-opacity:1;"/>
<path d="M7.53125 7.0625H8.46875V11.125H7.53125V7.0625Z" fill="white" style="fill:white;fill-opacity:1;"/>
<path d="M7.0625 7.4375C7.0625 7.26075 7.0625 7.17231 7.11744 7.11744C7.17231 7.0625 7.26075 7.0625 7.4375 7.0625H8.5625C8.73925 7.0625 8.82769 7.0625 8.88256 7.11744C8.9375 7.17231 8.9375 7.26075 8.9375 7.4375V7.625C8.9375 7.80175 8.9375 7.89019 8.88256 7.94506C8.82769 8 8.73925 8 8.5625 8H7.4375C7.26075 8 7.17231 8 7.11744 7.94506C7.0625 7.89019 7.0625 7.80175 7.0625 7.625V7.4375Z" fill="white" style="fill:white;fill-opacity:1;"/>
<path d="M7.0625 10.5625C7.0625 10.3858 7.0625 10.2973 7.11744 10.2424C7.17231 10.1875 7.26075 10.1875 7.4375 10.1875H8.5625C8.73925 10.1875 8.82769 10.1875 8.88256 10.2424C8.9375 10.2973 8.9375 10.3858 8.9375 10.5625V10.75C8.9375 10.9267 8.9375 11.0152 8.88256 11.0701C8.82769 11.125 8.73925 11.125 8.5625 11.125H7.4375C7.26075 11.125 7.17231 11.125 7.11744 11.0701C7.0625 11.0152 7.0625 10.9267 7.0625 10.75V10.5625Z" fill="white" style="fill:white;fill-opacity:1;"/>
<path d="M10.3438 7.0625H11.2812V11.125H10.3438V7.0625Z" fill="white" style="fill:white;fill-opacity:1;"/>
<path d="M9.875 7.4375C9.875 7.26075 9.875 7.17231 9.92994 7.11744C9.98481 7.0625 10.0733 7.0625 10.25 7.0625H11.375C11.5517 7.0625 11.6402 7.0625 11.6951 7.11744C11.75 7.17231 11.75 7.26075 11.75 7.4375V7.625C11.75 7.80175 11.75 7.89019 11.6951 7.94506C11.6402 8 11.5517 8 11.375 8H10.25C10.0733 8 9.98481 8 9.92994 7.94506C9.875 7.89019 9.875 7.80175 9.875 7.625V7.4375Z" fill="white" style="fill:white;fill-opacity:1;"/>
<path d="M9.875 10.5625C9.875 10.3858 9.875 10.2973 9.92994 10.2424C9.98481 10.1875 10.0733 10.1875 10.25 10.1875H11.375C11.5517 10.1875 11.6402 10.1875 11.6951 10.2424C11.75 10.2973 11.75 10.3858 11.75 10.5625V10.75C11.75 10.9267 11.75 11.0152 11.6951 11.0701C11.6402 11.125 11.5517 11.125 11.375 11.125H10.25C10.0733 11.125 9.98481 11.125 9.92994 11.0701C9.875 11.0152 9.875 10.9267 9.875 10.75V10.5625Z" fill="white" style="fill:white;fill-opacity:1;"/>
<path d="M3 12.5312C3 12.2724 3.20987 12.0625 3.46875 12.0625H12.5312C12.7901 12.0625 13 12.2724 13 12.5312C13 12.7901 12.7901 13 12.5312 13H3.46875C3.20987 13 3 12.7901 3 12.5312Z" fill="white" style="fill:white;fill-opacity:1;"/>
</svg>
