<svg width="48" height="36" viewBox="0 0 48 36" fill="none" xmlns="http://www.w3.org/2000/svg">
<rect width="48" height="36" rx="6" fill="#FF4785" style="fill:#FF4785;fill:color(display-p3 1.0000 0.2784 0.5216);fill-opacity:1;"/>
<g clip-path="url(#clip0_5268_1002)">
<path fill-rule="evenodd" clip-rule="evenodd" d="M12.688 12.5485L14.5879 15.5522C15.0643 15.2349 15.6006 15.0834 16.1302 15.0834C17.0636 15.0834 17.9785 15.5527 18.523 16.4144C18.9359 17.0673 19.0766 17.8467 18.9175 18.608C18.7788 19.2743 18.4272 19.8566 17.9155 20.2762L22.395 16.9747C22.2574 16.0915 21.9422 15.239 21.453 14.4658C20.5329 13.0095 19.114 12.0071 17.4581 11.6448C17.0139 11.5476 16.5662 11.5 16.122 11.5C14.9119 11.5 13.7267 11.8561 12.688 12.5485Z" fill="white" style="fill:white;fill-opacity:1;"/>
<path fill-rule="evenodd" clip-rule="evenodd" d="M30.0825 15.7155L30.305 15.5517C30.2273 15.6029 30.1536 15.6577 30.0825 15.7155ZM25.5957 19.0233C25.7293 19.8932 26.0373 20.7483 26.5337 21.5348C27.7464 23.4522 29.784 24.4965 31.8621 24.4965C33.0425 24.4965 34.2369 24.1588 35.2987 23.4537L33.3992 20.4479C32.7617 20.8732 32.0028 21.0149 31.2583 20.8532C30.5153 20.6905 29.8782 20.2407 29.4642 19.5867C28.6619 18.3162 28.948 16.6391 30.0825 15.7155L25.5957 19.0233Z" fill="white" style="fill:white;fill-opacity:1;"/>
<path fill-rule="evenodd" clip-rule="evenodd" d="M28.3361 12.5962L27.9677 12.8674L22.3952 16.9748L17.9158 20.2763C17.8416 20.3377 17.7637 20.395 17.6829 20.4487C17.536 20.546 17.3831 20.6253 17.227 20.6924C16.0895 21.1779 14.756 20.852 13.9562 19.8726C13.883 19.782 13.8124 19.6879 13.7484 19.587L10.8179 21.5352C11.7384 22.9914 13.1574 23.9933 14.8128 24.3556C14.9233 24.3797 15.0338 24.4007 15.1443 24.4191C15.2518 24.4365 15.3603 24.4508 15.4677 24.4631C15.4703 24.4636 15.4723 24.4636 15.4749 24.4641C15.6959 24.4876 15.9165 24.5 16.137 24.5C17.3534 24.5 18.5569 24.1341 19.6489 23.4064C19.652 23.4044 19.655 23.4023 19.6581 23.3998L20.0178 23.1352L25.5959 19.0237L30.3046 15.5523C30.3762 15.5047 30.4494 15.4622 30.5236 15.4218C30.5451 15.41 30.5671 15.3988 30.5886 15.388C30.6464 15.3584 30.7063 15.3307 30.7657 15.3051C30.7846 15.2969 30.8036 15.2882 30.8225 15.2811C30.9013 15.2494 30.9811 15.2212 31.0619 15.1971C31.0691 15.1946 31.0768 15.1931 31.0839 15.191C31.1586 15.1695 31.2333 15.1521 31.3096 15.1368C31.328 15.1332 31.3459 15.1296 31.3649 15.1265C31.4391 15.1132 31.5148 15.1025 31.5905 15.0958C31.5992 15.0948 31.6085 15.0933 31.6171 15.0922C31.6929 15.0861 31.7696 15.0826 31.8459 15.0826C31.8535 15.0826 31.8623 15.0831 31.8704 15.0831C31.9257 15.0836 31.9809 15.0887 32.0357 15.0922C32.0761 15.0953 32.1171 15.0958 32.1575 15.1005C32.2537 15.1112 32.3499 15.1265 32.4456 15.1475C32.5382 15.1675 32.6293 15.1926 32.7188 15.2212C32.8033 15.2488 32.8857 15.2811 32.9665 15.3159C32.9921 15.3271 33.0172 15.3404 33.0422 15.3527C33.0965 15.3783 33.1507 15.4044 33.2029 15.4331C33.2321 15.4494 33.2597 15.4663 33.2879 15.4837C33.3354 15.5118 33.382 15.541 33.428 15.5722C33.4562 15.5917 33.4833 15.6117 33.511 15.6316C33.556 15.6649 33.599 15.6991 33.6414 15.7339C33.6675 15.7549 33.6921 15.7769 33.7177 15.7989C33.7607 15.8383 33.8027 15.8787 33.8441 15.9202C33.865 15.9417 33.887 15.9622 33.9065 15.9847C33.9531 16.0348 33.9976 16.087 34.0406 16.1407C34.0539 16.1566 34.0677 16.1719 34.0805 16.1878C34.1363 16.2605 34.1895 16.3352 34.2391 16.414L37.1696 14.4664C36.4793 13.3745 35.5086 12.5368 34.3676 12.0343C33.9879 11.8665 33.5887 11.7355 33.1748 11.6454C32.7352 11.5497 32.2921 11.5016 31.8515 11.5016C30.6331 11.5016 29.4301 11.8675 28.3361 12.5962Z" fill="white" style="fill:white;fill-opacity:1;"/>
<path fill-rule="evenodd" clip-rule="evenodd" d="M10.818 21.5345L13.7485 19.587C13.5884 19.3342 13.4722 19.065 13.3965 18.7887C13.3207 18.5124 13.287 18.2289 13.2926 17.948C13.31 17.0121 13.7659 16.0992 14.5882 15.5522L12.6883 12.5479C9.7562 14.4975 8.91752 18.5283 10.818 21.5345Z" fill="white" style="fill:white;fill-opacity:1;"/>
<path fill-rule="evenodd" clip-rule="evenodd" d="M34.2391 16.4139C34.6526 17.0674 34.7928 17.8466 34.6342 18.6086C34.4755 19.371 34.037 20.024 33.3994 20.4482L35.2988 23.4539C36.7199 22.5088 37.6967 21.054 38.0498 19.3567C38.0999 19.1162 38.1347 18.8747 38.1583 18.6336C38.1751 18.4653 38.1854 18.297 38.1889 18.1286C38.1894 18.1127 38.1905 18.0969 38.1905 18.081C38.2084 16.8079 37.8604 15.5578 37.1696 14.4663L34.2391 16.4139Z" fill="white" style="fill:white;fill-opacity:1;"/>
<path fill-rule="evenodd" clip-rule="evenodd" d="M12.688 12.5485L14.5879 15.5522C15.0643 15.2349 15.6006 15.0834 16.1302 15.0834C17.0636 15.0834 17.9785 15.5527 18.523 16.4144C18.9359 17.0673 19.0766 17.8467 18.9175 18.608C18.7788 19.2743 18.4272 19.8566 17.9155 20.2762L22.395 16.9747C22.2574 16.0915 21.9422 15.239 21.453 14.4658C20.5329 13.0095 19.114 12.0071 17.4581 11.6448C17.0139 11.5476 16.5662 11.5 16.122 11.5C14.9119 11.5 13.7267 11.8561 12.688 12.5485Z" fill="white" style="fill:white;fill-opacity:1;"/>
<path fill-rule="evenodd" clip-rule="evenodd" d="M28.3361 12.5962L27.9677 12.8674L22.3952 16.9748L17.9158 20.2763C17.8416 20.3377 17.7637 20.395 17.6829 20.4487C17.536 20.546 17.3831 20.6253 17.227 20.6924C16.0895 21.1779 14.756 20.852 13.9562 19.8726C13.883 19.782 13.8124 19.6879 13.7484 19.587L10.8179 21.5352C11.7384 22.9914 13.1574 23.9933 14.8128 24.3556C14.9233 24.3797 15.0338 24.4007 15.1443 24.4191C15.2518 24.4365 15.3603 24.4508 15.4677 24.4631C15.4703 24.4636 15.4723 24.4636 15.4749 24.4641C15.6959 24.4876 15.9165 24.5 16.137 24.5C17.3534 24.5 18.5569 24.1341 19.6489 23.4064C19.652 23.4044 19.655 23.4023 19.6581 23.3998L20.0178 23.1352L25.5959 19.0237L30.3046 15.5523C30.3762 15.5047 30.4494 15.4622 30.5236 15.4218C30.5451 15.41 30.5671 15.3988 30.5886 15.388C30.6464 15.3584 30.7063 15.3307 30.7657 15.3051C30.7846 15.2969 30.8036 15.2882 30.8225 15.2811C30.9013 15.2494 30.9811 15.2212 31.0619 15.1971C31.0691 15.1946 31.0768 15.1931 31.0839 15.191C31.1586 15.1695 31.2333 15.1521 31.3096 15.1368C31.328 15.1332 31.3459 15.1296 31.3649 15.1265C31.4391 15.1132 31.5148 15.1025 31.5905 15.0958C31.5992 15.0948 31.6085 15.0933 31.6171 15.0922C31.6929 15.0861 31.7696 15.0826 31.8459 15.0826C31.8535 15.0826 31.8623 15.0831 31.8704 15.0831C31.9257 15.0836 31.9809 15.0887 32.0357 15.0922C32.0761 15.0953 32.1171 15.0958 32.1575 15.1005C32.2537 15.1112 32.3499 15.1265 32.4456 15.1475C32.5382 15.1675 32.6293 15.1926 32.7188 15.2212C32.8033 15.2488 32.8857 15.2811 32.9665 15.3159C32.9921 15.3271 33.0172 15.3404 33.0422 15.3527C33.0965 15.3783 33.1507 15.4044 33.2029 15.4331C33.2321 15.4494 33.2597 15.4663 33.2879 15.4837C33.3354 15.5118 33.382 15.541 33.428 15.5722C33.4562 15.5917 33.4833 15.6117 33.511 15.6316C33.556 15.6649 33.599 15.6991 33.6414 15.7339C33.6675 15.7549 33.6921 15.7769 33.7177 15.7989C33.7607 15.8383 33.8027 15.8787 33.8441 15.9202C33.865 15.9417 33.887 15.9622 33.9065 15.9847C33.9531 16.0348 33.9976 16.087 34.0406 16.1407C34.0539 16.1566 34.0677 16.1719 34.0805 16.1878C34.1363 16.2605 34.1895 16.3352 34.2391 16.414L37.1696 14.4664C36.4793 13.3745 35.5086 12.5368 34.3676 12.0343C33.9879 11.8665 33.5887 11.7355 33.1748 11.6454C32.7352 11.5497 32.2921 11.5016 31.8515 11.5016C30.6331 11.5016 29.4301 11.8675 28.3361 12.5962Z" fill="white" style="fill:white;fill-opacity:1;"/>
<path fill-rule="evenodd" clip-rule="evenodd" d="M30.0825 15.7155L30.305 15.5517C30.2273 15.6029 30.1536 15.6577 30.0825 15.7155ZM25.5957 19.0233C25.7293 19.8932 26.0373 20.7483 26.5337 21.5348C27.7464 23.4522 29.784 24.4965 31.8621 24.4965C33.0425 24.4965 34.2369 24.1588 35.2987 23.4537L33.3992 20.4479C32.7617 20.8732 32.0028 21.0149 31.2583 20.8532C30.5153 20.6905 29.8782 20.2407 29.4642 19.5867C28.6619 18.3162 28.948 16.6391 30.0825 15.7155L25.5957 19.0233Z" fill="white" style="fill:white;fill-opacity:1;"/>
<path fill-rule="evenodd" clip-rule="evenodd" d="M34.2391 16.4139C34.6526 17.0674 34.7928 17.8466 34.6342 18.6086C34.4755 19.371 34.037 20.024 33.3994 20.4482L35.2988 23.4539C36.7199 22.5088 37.6967 21.054 38.0498 19.3567C38.0999 19.1162 38.1347 18.8747 38.1583 18.6336C38.1751 18.4653 38.1854 18.297 38.1889 18.1286C38.1894 18.1127 38.1905 18.0969 38.1905 18.081C38.2084 16.8079 37.8604 15.5578 37.1696 14.4663L34.2391 16.4139Z" fill="white" style="fill:white;fill-opacity:1;"/>
</g>
<defs>
<clipPath id="clip0_5268_1002">
<rect width="28.391" height="13" fill="white" style="fill:white;fill-opacity:1;" transform="translate(9.80005 11.5)"/>
</clipPath>
</defs>
</svg>
