<svg width="32" height="32" viewBox="0 0 32 32" fill="none" xmlns="http://www.w3.org/2000/svg">
<rect width="32" height="32" rx="8" fill="#FF4785" style="fill:#FF4785;fill:color(display-p3 1.0000 0.2784 0.5216);fill-opacity:1;"/>
<g clip-path="url(#clip0_5268_302)">
<path fill-rule="evenodd" clip-rule="evenodd" d="M8.16943 12.2258L9.48479 14.3053C9.8146 14.0856 10.1858 13.9808 10.5525 13.9808C11.1987 13.9808 11.8321 14.3057 12.209 14.9022C12.4949 15.3542 12.5923 15.8938 12.4822 16.4209C12.3862 16.8822 12.1428 17.2853 11.7885 17.5758L14.8897 15.2901C14.7944 14.6787 14.5762 14.0885 14.2375 13.5532C13.6006 12.545 12.6182 11.851 11.4718 11.6002C11.1643 11.5329 10.8544 11.4999 10.5468 11.4999C9.70903 11.4999 8.88857 11.7465 8.16943 12.2258Z" fill="white" style="fill:white;fill-opacity:1;"/>
<path fill-rule="evenodd" clip-rule="evenodd" d="M20.2117 14.4184L20.3658 14.305C20.3119 14.3404 20.2609 14.3783 20.2117 14.4184ZM17.1055 16.7084C17.198 17.3106 17.4112 17.9026 17.7549 18.4471C18.5944 19.7745 20.0051 20.4975 21.4437 20.4975C22.261 20.4975 23.0878 20.2638 23.8229 19.7756L22.5079 17.6947C22.0665 17.9891 21.5411 18.0872 21.0257 17.9752C20.5113 17.8626 20.0703 17.5512 19.7837 17.0985C19.2282 16.2188 19.4263 15.0578 20.2117 14.4184L17.1055 16.7084Z" fill="white" style="fill:white;fill-opacity:1;"/>
<path fill-rule="evenodd" clip-rule="evenodd" d="M19.0027 12.2589L18.7477 12.4466L14.8898 15.2902L11.7887 17.5759C11.7373 17.6184 11.6834 17.6581 11.6275 17.6953C11.5258 17.7626 11.4199 17.8175 11.3118 17.8639C10.5243 18.2001 9.60112 17.9745 9.04742 17.2964C8.99676 17.2337 8.94787 17.1685 8.90359 17.0987L6.87476 18.4474C7.51206 19.4556 8.49442 20.1492 9.64044 20.4C9.71696 20.4167 9.79348 20.4312 9.87 20.4439C9.94439 20.456 10.0195 20.4659 10.0939 20.4744C10.0957 20.4748 10.0971 20.4748 10.0989 20.4751C10.2519 20.4914 10.4046 20.5 10.5573 20.5C11.3993 20.5 12.2325 20.2467 12.9885 19.7429C12.9907 19.7415 12.9928 19.74 12.9949 19.7383L13.2439 19.5551L17.1057 16.7087L20.3656 14.3054C20.4152 14.2725 20.4658 14.2431 20.5172 14.2151C20.5321 14.2069 20.5473 14.1991 20.5622 14.1917C20.6022 14.1712 20.6437 14.152 20.6848 14.1343C20.6979 14.1286 20.711 14.1226 20.7241 14.1176C20.7787 14.0957 20.8339 14.0762 20.8899 14.0595C20.8948 14.0578 20.9001 14.0567 20.9051 14.0553C20.9568 14.0404 21.0085 14.0284 21.0614 14.0177C21.0741 14.0152 21.0865 14.0128 21.0996 14.0106C21.151 14.0015 21.2034 13.994 21.2558 13.9894C21.2618 13.9887 21.2682 13.9876 21.2742 13.9869C21.3267 13.9827 21.3798 13.9802 21.4326 13.9802C21.4379 13.9802 21.4439 13.9806 21.4496 13.9806C21.4879 13.9809 21.5261 13.9845 21.564 13.9869C21.592 13.9891 21.6204 13.9894 21.6483 13.9926C21.7149 14 21.7816 14.0106 21.8478 14.0252C21.9119 14.039 21.975 14.0564 22.037 14.0762C22.0954 14.0953 22.1525 14.1176 22.2084 14.1417C22.2261 14.1495 22.2435 14.1587 22.2608 14.1673C22.2984 14.185 22.336 14.203 22.3721 14.2229C22.3923 14.2342 22.4114 14.2459 22.4309 14.2579C22.4638 14.2774 22.4961 14.2976 22.528 14.3192C22.5474 14.3327 22.5662 14.3465 22.5854 14.3603C22.6165 14.3833 22.6463 14.4071 22.6757 14.4312C22.6938 14.4457 22.7107 14.4609 22.7285 14.4761C22.7582 14.5034 22.7873 14.5314 22.816 14.5601C22.8305 14.575 22.8457 14.5892 22.8592 14.6048C22.8914 14.6395 22.9222 14.6756 22.952 14.7128C22.9612 14.7238 22.9708 14.7344 22.9796 14.7454C23.0183 14.7957 23.0551 14.8474 23.0894 14.902L25.1183 13.5537C24.6404 12.7977 23.9684 12.2178 23.1784 11.8699C22.9155 11.7537 22.6392 11.663 22.3526 11.6006C22.0483 11.5344 21.7415 11.5011 21.4365 11.5011C20.593 11.5011 19.7601 11.7544 19.0027 12.2589Z" fill="white" style="fill:white;fill-opacity:1;"/>
<path fill-rule="evenodd" clip-rule="evenodd" d="M6.87473 18.4469L8.90356 17.0986C8.79267 16.9236 8.71226 16.7373 8.65983 16.546C8.6074 16.3547 8.58402 16.1584 8.58791 15.964C8.59996 15.316 8.9156 14.684 9.48489 14.3053L8.16954 12.2255C6.13964 13.5752 5.55901 16.3657 6.87473 18.4469Z" fill="white" style="fill:white;fill-opacity:1;"/>
<path fill-rule="evenodd" clip-rule="evenodd" d="M23.0894 14.9019C23.3756 15.3543 23.4727 15.8938 23.3629 16.4213C23.253 16.9491 22.9495 17.4012 22.5081 17.6949L23.823 19.7758C24.8068 19.1215 25.4831 18.1143 25.7275 16.9392C25.7623 16.7727 25.7863 16.6055 25.8026 16.4386C25.8143 16.3221 25.8214 16.2056 25.8239 16.089C25.8242 16.078 25.8249 16.067 25.8249 16.0561C25.8374 15.1746 25.5965 14.3092 25.1182 13.5536L23.0894 14.9019Z" fill="white" style="fill:white;fill-opacity:1;"/>
<path fill-rule="evenodd" clip-rule="evenodd" d="M8.16943 12.2258L9.48479 14.3053C9.8146 14.0856 10.1858 13.9808 10.5525 13.9808C11.1987 13.9808 11.8321 14.3057 12.209 14.9022C12.4949 15.3542 12.5923 15.8938 12.4822 16.4209C12.3862 16.8822 12.1428 17.2853 11.7885 17.5758L14.8897 15.2901C14.7944 14.6787 14.5762 14.0885 14.2375 13.5532C13.6006 12.545 12.6182 11.851 11.4718 11.6002C11.1643 11.5329 10.8544 11.4999 10.5468 11.4999C9.70903 11.4999 8.88857 11.7465 8.16943 12.2258Z" fill="white" style="fill:white;fill-opacity:1;"/>
<path fill-rule="evenodd" clip-rule="evenodd" d="M19.0027 12.2589L18.7477 12.4466L14.8898 15.2902L11.7887 17.5759C11.7373 17.6184 11.6834 17.6581 11.6275 17.6953C11.5258 17.7626 11.4199 17.8175 11.3118 17.8639C10.5243 18.2001 9.60112 17.9745 9.04742 17.2964C8.99676 17.2337 8.94787 17.1685 8.90359 17.0987L6.87476 18.4474C7.51206 19.4556 8.49442 20.1492 9.64044 20.4C9.71696 20.4167 9.79348 20.4312 9.87 20.4439C9.94439 20.456 10.0195 20.4659 10.0939 20.4744C10.0957 20.4748 10.0971 20.4748 10.0989 20.4751C10.2519 20.4914 10.4046 20.5 10.5573 20.5C11.3993 20.5 12.2325 20.2467 12.9885 19.7429C12.9907 19.7415 12.9928 19.74 12.9949 19.7383L13.2439 19.5551L17.1057 16.7087L20.3656 14.3054C20.4152 14.2725 20.4658 14.2431 20.5172 14.2151C20.5321 14.2069 20.5473 14.1991 20.5622 14.1917C20.6022 14.1712 20.6437 14.152 20.6848 14.1343C20.6979 14.1286 20.711 14.1226 20.7241 14.1176C20.7787 14.0957 20.8339 14.0762 20.8899 14.0595C20.8948 14.0578 20.9001 14.0567 20.9051 14.0553C20.9568 14.0404 21.0085 14.0284 21.0614 14.0177C21.0741 14.0152 21.0865 14.0128 21.0996 14.0106C21.151 14.0015 21.2034 13.994 21.2558 13.9894C21.2618 13.9887 21.2682 13.9876 21.2742 13.9869C21.3267 13.9827 21.3798 13.9802 21.4326 13.9802C21.4379 13.9802 21.4439 13.9806 21.4496 13.9806C21.4879 13.9809 21.5261 13.9845 21.564 13.9869C21.592 13.9891 21.6204 13.9894 21.6483 13.9926C21.7149 14 21.7816 14.0106 21.8478 14.0252C21.9119 14.039 21.975 14.0564 22.037 14.0762C22.0954 14.0953 22.1525 14.1176 22.2084 14.1417C22.2261 14.1495 22.2435 14.1587 22.2608 14.1673C22.2984 14.185 22.336 14.203 22.3721 14.2229C22.3923 14.2342 22.4114 14.2459 22.4309 14.2579C22.4638 14.2774 22.4961 14.2976 22.528 14.3192C22.5474 14.3327 22.5662 14.3465 22.5854 14.3603C22.6165 14.3833 22.6463 14.4071 22.6757 14.4312C22.6938 14.4457 22.7107 14.4609 22.7285 14.4761C22.7582 14.5034 22.7873 14.5314 22.816 14.5601C22.8305 14.575 22.8457 14.5892 22.8592 14.6048C22.8914 14.6395 22.9222 14.6756 22.952 14.7128C22.9612 14.7238 22.9708 14.7344 22.9796 14.7454C23.0183 14.7957 23.0551 14.8474 23.0894 14.902L25.1183 13.5537C24.6404 12.7977 23.9684 12.2178 23.1784 11.8699C22.9155 11.7537 22.6392 11.663 22.3526 11.6006C22.0483 11.5344 21.7415 11.5011 21.4365 11.5011C20.593 11.5011 19.7601 11.7544 19.0027 12.2589Z" fill="white" style="fill:white;fill-opacity:1;"/>
<path fill-rule="evenodd" clip-rule="evenodd" d="M20.2117 14.4184L20.3658 14.305C20.3119 14.3404 20.2609 14.3783 20.2117 14.4184ZM17.1055 16.7084C17.198 17.3106 17.4112 17.9026 17.7549 18.4471C18.5944 19.7745 20.0051 20.4975 21.4437 20.4975C22.261 20.4975 23.0878 20.2638 23.8229 19.7756L22.5079 17.6947C22.0665 17.9891 21.5411 18.0872 21.0257 17.9752C20.5113 17.8626 20.0703 17.5512 19.7837 17.0985C19.2282 16.2188 19.4263 15.0578 20.2117 14.4184L17.1055 16.7084Z" fill="white" style="fill:white;fill-opacity:1;"/>
<path fill-rule="evenodd" clip-rule="evenodd" d="M23.0894 14.9019C23.3756 15.3543 23.4727 15.8938 23.3629 16.4213C23.253 16.9491 22.9495 17.4012 22.5081 17.6949L23.823 19.7758C24.8068 19.1215 25.4831 18.1143 25.7275 16.9392C25.7623 16.7727 25.7863 16.6055 25.8026 16.4386C25.8143 16.3221 25.8214 16.2056 25.8239 16.089C25.8242 16.078 25.8249 16.067 25.8249 16.0561C25.8374 15.1746 25.5965 14.3092 25.1182 13.5536L23.0894 14.9019Z" fill="white" style="fill:white;fill-opacity:1;"/>
</g>
<defs>
<clipPath id="clip0_5268_302">
<rect width="19.6553" height="9" fill="white" style="fill:white;fill-opacity:1;" transform="translate(6.16992 11.5)"/>
</clipPath>
</defs>
</svg>
