<svg width="40" height="30" viewBox="0 0 40 30" fill="none" xmlns="http://www.w3.org/2000/svg">
<path d="M5 0.625H35C37.4162 0.625 39.375 2.58375 39.375 5V25C39.375 27.4162 37.4162 29.375 35 29.375H5C2.58375 29.375 0.625 27.4162 0.625 25V5C0.625 2.58375 2.58375 0.625 5 0.625Z" fill="white" style="fill:white;fill-opacity:1;"/>
<path d="M5 0.625H35C37.4162 0.625 39.375 2.58375 39.375 5V25C39.375 27.4162 37.4162 29.375 35 29.375H5C2.58375 29.375 0.625 27.4162 0.625 25V5C0.625 2.58375 2.58375 0.625 5 0.625Z" stroke="#ECECF0" style="stroke:#ECECF0;stroke:color(display-p3 0.9255 0.9255 0.9412);stroke-opacity:1;" stroke-width="1.25"/>
<path d="M24.9701 11.3113C24.9564 11.4003 24.94 11.4907 24.9221 11.5853C24.3056 14.7417 22.2027 15.8322 19.5148 15.8322H17.5776L17.4886 16.3939L16.7885 20.8368L16.5214 22.5H19.8559L19.9628 21.8835L20.5423 18.3311L21.0259 18.3339H21.3876C23.7398 18.3339 25.5797 17.379 26.1181 14.6171C26.3442 13.4635 26.2277 12.5004 25.6332 11.8223C25.4441 11.6129 25.2185 11.4398 24.9674 11.3113H24.9701Z" fill="#85D0FA" style="fill:#85D0FA;fill:color(display-p3 0.5216 0.8157 0.9804);fill-opacity:1;"/>
<path d="M18.2886 11.3278C18.3097 11.19 18.3795 11.0645 18.4853 10.9739C18.5912 10.8834 18.7261 10.8339 18.8654 10.8346H22.5219C22.9548 10.8346 23.3576 10.862 23.7275 10.9222C23.9294 10.9554 24.1292 10.9998 24.3262 11.0551C24.5491 11.1179 24.7649 11.2038 24.9701 11.3113C25.1537 10.1441 24.9687 9.35086 24.3371 8.63161C23.6412 7.83976 22.3863 7.5 20.7793 7.5H15.5541L13.5128 20.3724L13.4375 20.8369H16.7885L17.5119 16.2515L18.2886 11.3278Z" fill="#003087" style="fill:#003087;fill:color(display-p3 0.0000 0.1882 0.5294);fill-opacity:1;"/>
<path fill-rule="evenodd" clip-rule="evenodd" d="M24.0344 10.9797C24.179 11.0124 24.3221 11.0518 24.4632 11.0976C24.6454 11.1578 24.8139 11.2291 24.9701 11.3113C24.9325 11.548 24.8845 11.783 24.8262 12.0155C24.1083 14.8404 22.0767 15.8322 19.5148 15.8322H17.5776L18.29 11.3263L18.3681 10.8332H22.5219C23.0302 10.8308 23.5374 10.8799 24.0357 10.9797H24.0344Z" fill="#4195F7" style="fill:#4195F7;fill:color(display-p3 0.2549 0.5843 0.9686);fill-opacity:1;"/>
</svg>
