<svg width="40" height="40" viewBox="0 0 40 40" fill="none" xmlns="http://www.w3.org/2000/svg">
<rect x="0.5" y="0.5" width="39" height="39" rx="9.5" fill="white" style="fill:white;fill-opacity:1;"/>
<rect x="0.5" y="0.5" width="39" height="39" rx="9.5" stroke="#F5F2F0" style="stroke:#F5F2F0;stroke:color(display-p3 0.9608 0.9490 0.9412);stroke-opacity:1;"/>
<path d="M26.8768 15.0817C26.8585 15.2005 26.8366 15.321 26.8129 15.4471C25.9909 19.6557 23.1869 21.1097 19.6031 21.1097H17.0202L16.9014 21.8586L15.968 27.7825L15.6118 30H20.0579L20.2004 29.178L20.973 24.4415L21.6179 24.4452H22.1001C25.2365 24.4452 27.6897 23.172 28.4075 19.4894C28.7089 17.9514 28.5537 16.6673 27.7609 15.7631C27.5088 15.4839 27.208 15.2531 26.8731 15.0817H26.8768Z" fill="#85D0FA" style="fill:#85D0FA;fill:color(display-p3 0.5216 0.8157 0.9804);fill-opacity:1;"/>
<path d="M17.9682 15.1037C17.9962 14.9201 18.0893 14.7526 18.2305 14.6319C18.3716 14.5112 18.5515 14.4453 18.7372 14.4461H23.6125C24.1898 14.4461 24.7268 14.4826 25.22 14.563C25.4891 14.6073 25.7556 14.6664 26.0182 14.7402C26.3155 14.8239 26.6032 14.9384 26.8768 15.0818C27.1215 13.5254 26.8749 12.4678 26.0329 11.5088C25.1049 10.453 23.4317 10 21.289 10H14.3222L11.6005 27.1632L11.5 27.7825H15.968L16.9325 21.6687L17.9682 15.1037Z" fill="#003087" style="fill:#003087;fill:color(display-p3 0.0000 0.1882 0.5294);fill-opacity:1;"/>
<path fill-rule="evenodd" clip-rule="evenodd" d="M25.6292 14.6397C25.822 14.6832 26.0128 14.7357 26.2009 14.7967C26.4438 14.8771 26.6685 14.9721 26.8768 15.0817C26.8266 15.3973 26.7626 15.7106 26.685 16.0206C25.7278 19.7872 23.0189 21.1097 19.603 21.1097H17.0201L17.97 15.1018L18.0741 14.4442H23.6125C24.2902 14.441 24.9665 14.5065 25.631 14.6397H25.6292Z" fill="#4195F7" style="fill:#4195F7;fill:color(display-p3 0.2549 0.5843 0.9686);fill-opacity:1;"/>
</svg>
