<svg width="32" height="32" viewBox="0 0 32 32" fill="none" xmlns="http://www.w3.org/2000/svg">
<rect width="32" height="32" rx="8" fill="#3200FF" style="fill:#3200FF;fill:color(display-p3 0.1961 0.0000 1.0000);fill-opacity:1;"/>
<path d="M12.0327 12.592C12.2582 12.5123 12.4391 12.4518 12.6141 12.368C12.9525 10.8686 14.3587 9.70972 15.9862 9.68C17.7307 9.70972 19.1374 10.8703 19.4746 12.368C19.9867 12.5106 20.4147 12.7142 20.7536 13.04C20.7618 12.7208 20.7494 12.4352 20.7536 12.144C20.5001 9.83188 18.4889 8 15.9862 8C13.5123 8 11.457 9.94744 11.335 12.368C11.3355 12.5921 11.331 12.8111 11.335 13.04C11.5509 12.8661 11.7929 12.7098 12.0327 12.592Z" fill="white" style="fill:white;fill-opacity:1;"/>
<path d="M18.7907 13.3334H13.093C12.8157 13.3334 12.5328 13.3942 12.2791 13.5574C11.9601 13.6377 11.7296 13.7803 11.5814 14.0054C11.1928 14.3578 11.0125 14.9529 11 15.6854V20.0534C11.0125 20.7864 11.1928 21.3809 11.5814 21.7334C11.7296 21.959 11.9601 22.1015 12.2791 22.1814C12.5328 22.3434 12.8157 22.4054 13.093 22.4054H18.7907C20.231 22.3928 20.9766 21.6195 21 20.0534V15.6854C20.9766 14.116 20.231 13.3454 18.7907 13.3334Z" fill="white" style="fill:white;fill-opacity:1;"/>
</svg>
