<svg width="40" height="30" viewBox="0 0 40 30" fill="none" xmlns="http://www.w3.org/2000/svg">
<rect width="40" height="30" rx="5" fill="#2D03F5" style="fill:#2D03F5;fill:color(display-p3 0.1765 0.0118 0.9608);fill-opacity:1;"/>
<path d="M16.0327 12.2816C16.2582 12.1986 16.4392 12.1355 16.6141 12.0483C16.9525 10.487 18.3587 9.2803 19.9862 9.24935C21.7307 9.2803 23.1375 10.4887 23.4746 12.0483C23.9867 12.1968 24.4147 12.4088 24.7536 12.7481C24.7619 12.4157 24.7494 12.1183 24.7536 11.8151C24.5001 9.4075 22.4889 7.5 19.9862 7.5C17.5123 7.5 15.4571 9.52783 15.335 12.0483C15.3355 12.2816 15.331 12.5097 15.335 12.7481C15.5509 12.567 15.7929 12.4043 16.0327 12.2816Z" fill="white" style="fill:white;fill-opacity:1;"/>
<path d="M22.7907 13.0535H17.093C16.8157 13.0535 16.5328 13.1169 16.2791 13.2867C15.9601 13.3704 15.7296 13.5189 15.5814 13.7532C15.1928 14.1202 15.0125 14.7398 15 15.5026V20.0509C15.0125 20.8142 15.1928 21.4333 15.5814 21.8003C15.7296 22.0352 15.9601 22.1836 16.2791 22.2668C16.5328 22.4355 16.8157 22.5 17.093 22.5H22.7907C24.231 22.4869 24.9766 21.6817 25 20.0509V15.5026C24.9766 13.8684 24.231 13.0661 22.7907 13.0535Z" fill="white" style="fill:white;fill-opacity:1;"/>
</svg>
