<svg width="16" height="16" viewBox="0 0 16 16" fill="none" xmlns="http://www.w3.org/2000/svg">
<rect width="16" height="16" rx="4" fill="#3200FF" style="fill:#3200FF;fill:color(display-p3 0.1961 0.0000 1.0000);fill-opacity:1;"/>
<path d="M6.01638 6.296C6.12914 6.25614 6.2196 6.22588 6.30708 6.184C6.47629 5.4343 7.17937 4.85486 7.99312 4.84C8.8654 4.85486 9.56875 5.43513 9.73731 6.184C9.99337 6.25532 10.2074 6.35712 10.3768 6.52C10.381 6.36042 10.3747 6.21762 10.3768 6.072C10.2501 4.91594 9.2445 4 7.99312 4C6.75617 4 5.72855 4.97372 5.66754 6.184C5.66777 6.29604 5.66551 6.40554 5.66754 6.52C5.77548 6.43306 5.89648 6.35492 6.01638 6.296Z" fill="white" style="fill:white;fill-opacity:1;"/>
<path d="M9.39535 6.66669H6.54651C6.40787 6.66669 6.2664 6.69712 6.13953 6.77869C5.98003 6.81887 5.8648 6.89017 5.7907 7.00269C5.59641 7.17891 5.50627 7.47643 5.5 7.84269V10.0267C5.50627 10.3932 5.59641 10.6905 5.7907 10.8667C5.8648 10.9795 5.98003 11.0508 6.13953 11.0907C6.2664 11.1717 6.40787 11.2027 6.54651 11.2027H9.39535C10.1155 11.1964 10.4883 10.8097 10.5 10.0267V7.84269C10.4883 7.05799 10.1155 6.67272 9.39535 6.66669Z" fill="white" style="fill:white;fill-opacity:1;"/>
</svg>
