<svg width="56" height="42" viewBox="0 0 56 42" fill="none" xmlns="http://www.w3.org/2000/svg">
<rect width="56" height="42" rx="7" fill="#F9E95D" style="fill:#F9E95D;fill:color(display-p3 0.9765 0.9137 0.3647);fill-opacity:1;"/>
<path fill-rule="evenodd" clip-rule="evenodd" d="M21.984 10.5044C21.2235 10.4924 20.4678 10.6238 19.7586 10.8912L19.7587 10.8977C19.5682 10.9504 19.3843 11.0235 19.2102 11.1156C18.2484 11.602 17.3779 12.2427 16.635 13.0109L16.8576 10.7287H14.1155C14.0984 10.9339 14.0858 11.1347 14.0732 11.3337C14.0452 11.7802 14.0177 12.2181 13.9407 12.6782C13.8872 12.9983 13.8318 13.3058 13.7764 13.6137C13.7165 13.9458 13.6567 14.2785 13.5989 14.6277L9.625 31.5L12.6611 31.4613L14.4891 23.7253C15.0112 24.4571 15.6957 25.0651 16.492 25.5046C17.3451 25.9198 18.2882 26.1294 19.242 26.1157L19.7824 26.1156C20.8724 26.0417 21.929 25.7571 22.8662 25.2106C24.0231 24.5877 24.9762 23.66 25.6162 22.5339C26.2787 21.5102 26.7446 20.3778 26.9912 19.192C27.3135 18.0125 27.4211 16.7871 27.3091 15.5715C27.2375 14.1738 26.6473 12.8489 25.648 11.8427C25.1608 11.3916 24.5854 11.0407 23.9559 10.8107C23.3263 10.5808 22.6557 10.4766 21.984 10.5044ZM19.7822 12.4385C19.3581 12.5762 18.9525 12.7632 18.5743 12.9954C17.7929 13.5425 17.1645 14.2712 16.7463 15.1151C16.202 16.0879 15.7981 17.1292 15.5462 18.2095C15.302 19.1729 15.2055 20.1661 15.26 21.1569C15.2659 21.5527 15.3537 21.9434 15.5181 22.3055C15.6825 22.6675 15.9201 22.9937 16.2168 23.2645C16.5135 23.5352 16.8632 23.745 17.2451 23.8813C17.6269 24.0177 18.033 24.0777 18.4392 24.0579C18.885 24.0615 19.353 24.0061 19.7824 23.8896L19.8074 23.8823C20.1922 23.7695 20.5667 23.6597 20.9269 23.4855C21.7205 22.982 22.3688 22.2897 22.8106 21.4741C23.3383 20.5646 23.7418 19.592 24.0107 18.5808C24.2743 17.5997 24.371 16.5831 24.2968 15.5715C24.2317 14.6873 23.8717 13.8479 23.2715 13.1811C22.9642 12.8839 22.5976 12.651 22.1945 12.4966C21.7912 12.3423 21.3599 12.2699 20.9269 12.2837C20.5387 12.2824 20.1526 12.3399 19.7824 12.4539L19.7822 12.4385ZM38.1166 13.3793C38.4372 13.3146 38.7629 13.2761 39.0902 13.2643C39.4133 13.2564 39.7348 13.3114 40.0351 13.426C40.3355 13.5406 40.6086 13.7124 40.838 13.9311C41.313 14.427 41.5802 15.0741 41.5882 15.7478C41.6425 16.6025 41.5645 17.4601 41.3567 18.2927C41.1338 19.2428 40.8075 20.1677 40.3831 21.0522C40.0772 21.7084 39.625 22.2919 39.0583 22.7616C38.7778 22.9844 38.4427 23.1348 38.0847 23.1985V26.073C38.1675 26.073 38.2659 26.0861 38.3655 26.0994C38.4674 26.1129 38.5705 26.1266 38.6593 26.1266C39.8284 26.1377 40.98 25.8531 41.9984 25.3015C43.0168 24.7499 43.8661 23.9506 44.4611 22.9839C45.9995 20.7562 46.6433 18.0676 46.2727 15.4182C46.2579 14.0697 45.7267 12.7735 44.7803 11.7772C44.3064 11.3465 43.747 11.0119 43.1355 10.7932C42.524 10.5746 41.8729 10.4765 41.2211 10.5048C40.287 10.4856 39.361 10.6745 38.5156 11.0567C38.389 11.126 38.2553 11.1824 38.1166 11.2253V13.3793ZM38.1166 13.3793L38.1007 11.2253C37.3748 11.6477 36.7003 12.1464 36.0896 12.7124L36.2013 10.8957H31.8918C31.7801 11.9075 31.4928 13.4559 31.0299 15.4949L27.3509 31.5H32.1392L33.9747 23.6124C34.3853 24.395 35.0338 25.0392 35.8342 25.4598C36.5268 25.8163 37.2922 26.023 38.0767 26.0653V23.1908C37.8517 23.2588 37.6182 23.2975 37.3824 23.3058C37.0277 23.3207 36.674 23.2597 36.3468 23.1271C36.0197 22.9946 35.7274 22.7938 35.491 22.5393C34.9554 21.9373 34.6511 21.177 34.6291 20.3853C34.4226 18.6596 34.8064 16.916 35.7224 15.4182C36.2224 14.4716 37.0782 13.7427 38.1166 13.3793Z" fill="#0054A4" style="fill:#0054A4;fill:color(display-p3 0.0000 0.3294 0.6431);fill-opacity:1;"/>
</svg>
