<svg width="32" height="32" viewBox="0 0 32 32" fill="none" xmlns="http://www.w3.org/2000/svg">
<rect width="32" height="32" rx="8" fill="#F9E95D" style="fill:#F9E95D;fill:color(display-p3 0.9765 0.9137 0.3647);fill-opacity:1;"/>
<path fill-rule="evenodd" clip-rule="evenodd" d="M13.1189 11.4688C12.7547 11.4629 12.3928 11.5277 12.0531 11.6595L12.0532 11.6627C11.9619 11.6887 11.8739 11.7248 11.7905 11.7701C11.3299 12.0099 10.913 12.3258 10.5573 12.7045L10.6638 11.5794H9.3507C9.3425 11.6806 9.33645 11.7796 9.33045 11.8777C9.31702 12.0978 9.30382 12.3137 9.26697 12.5405C9.24135 12.6983 9.21482 12.8499 9.18827 13.0017C9.15962 13.1655 9.13095 13.3294 9.1033 13.5016L7.2002 21.8196L8.65417 21.8005L9.5296 17.9867C9.77965 18.3475 10.1074 18.6472 10.4888 18.8639C10.8973 19.0686 11.349 19.1719 11.8057 19.1652L12.0645 19.1651C12.5865 19.1287 13.0925 18.9884 13.5414 18.719C14.0954 18.4119 14.5518 17.9545 14.8583 17.3994C15.1756 16.8947 15.3987 16.3364 15.5168 15.7518C15.6712 15.1703 15.7227 14.5662 15.669 13.9669C15.6347 13.2778 15.3521 12.6247 14.8735 12.1286C14.6402 11.9062 14.3647 11.7332 14.0632 11.6199C13.7617 11.5065 13.4406 11.4551 13.1189 11.4688ZM12.0644 12.4223C11.8613 12.4902 11.6671 12.5824 11.486 12.6969C11.1118 12.9666 10.8108 13.3258 10.6106 13.7419C10.3499 14.2215 10.1565 14.7349 10.0358 15.2674C9.91887 15.7424 9.8727 16.232 9.8988 16.7205C9.90162 16.9156 9.94365 17.1082 10.0224 17.2867C10.1011 17.4652 10.2149 17.626 10.357 17.7595C10.4991 17.893 10.6665 17.9964 10.8494 18.0636C11.0323 18.1308 11.2268 18.1604 11.4213 18.1507C11.6348 18.1525 11.8589 18.1251 12.0645 18.0677L12.0765 18.0641C12.2608 18.0085 12.4401 17.9544 12.6126 17.8685C12.9927 17.6203 13.3032 17.279 13.5147 16.8769C13.7675 16.4285 13.9607 15.949 14.0894 15.4505C14.2157 14.9668 14.262 14.4656 14.2265 13.9669C14.1953 13.531 14.0229 13.1172 13.7355 12.7884C13.5883 12.6419 13.4127 12.5271 13.2197 12.451C13.0266 12.3749 12.82 12.3392 12.6126 12.346C12.4267 12.3454 12.2418 12.3737 12.0645 12.4299L12.0644 12.4223ZM20.8447 12.8861C20.9983 12.8542 21.1542 12.8353 21.311 12.8295C21.4657 12.8256 21.6197 12.8527 21.7635 12.9092C21.9073 12.9657 22.0381 13.0504 22.148 13.1582C22.3754 13.4027 22.5034 13.7217 22.5072 14.0538C22.5333 14.4752 22.4959 14.898 22.3964 15.3085C22.2896 15.7768 22.1334 16.2328 21.9301 16.6689C21.7837 16.9924 21.5671 17.2801 21.2957 17.5116C21.1614 17.6215 21.0009 17.6956 20.8294 17.727V19.1441C20.8691 19.1441 20.9162 19.1506 20.9639 19.1571C21.0127 19.1638 21.0621 19.1706 21.1046 19.1706C21.6645 19.176 22.216 19.0357 22.7037 18.7638C23.1914 18.4918 23.5981 18.0978 23.8831 17.6212C24.6198 16.5229 24.9281 15.1975 24.7507 13.8913C24.7436 13.2265 24.4892 12.5875 24.036 12.0963C23.809 11.884 23.5411 11.719 23.2482 11.6112C22.9554 11.5035 22.6436 11.4551 22.3314 11.469C21.8841 11.4596 21.4406 11.5527 21.0358 11.7411C20.9752 11.7753 20.9112 11.8031 20.8447 11.8242V12.8861ZM20.8447 12.8861L20.8371 11.8242C20.4895 12.0325 20.1665 12.2784 19.874 12.5574L19.9275 11.6618H17.8637C17.8102 12.1606 17.6726 12.9239 17.4509 13.9291L15.689 21.8196H17.9822L18.8612 17.9311C19.0578 18.3169 19.3684 18.6345 19.7517 18.8418C20.0834 19.0176 20.4499 19.1195 20.8256 19.1403V17.7232C20.7178 17.7567 20.606 17.7758 20.4931 17.7799C20.3232 17.7873 20.1538 17.7572 19.9972 17.6918C19.8405 17.6265 19.7005 17.5275 19.5873 17.402C19.3308 17.1052 19.1851 16.7304 19.1746 16.3401C19.0757 15.4893 19.2595 14.6298 19.6982 13.8913C19.9376 13.4246 20.3474 13.0653 20.8447 12.8861Z" fill="#0054A4" style="fill:#0054A4;fill:color(display-p3 0.0000 0.3294 0.6431);fill-opacity:1;"/>
</svg>
