<svg width="40" height="30" viewBox="0 0 40 30" fill="none" xmlns="http://www.w3.org/2000/svg">
<rect width="40" height="30" rx="5" fill="#F9E95D" style="fill:#F9E95D;fill:color(display-p3 0.9765 0.9137 0.3647);fill-opacity:1;"/>
<path fill-rule="evenodd" clip-rule="evenodd" d="M15.7028 7.50314C15.1596 7.49459 14.6199 7.58841 14.1133 7.77944L14.1133 7.78404C13.9773 7.82174 13.8459 7.87394 13.7215 7.93968C13.0346 8.28712 12.4128 8.74478 11.8822 9.2935L12.0411 7.66338H10.0825C10.0703 7.80994 10.0613 7.95334 10.0523 8.09551C10.0323 8.4144 10.0126 8.72721 9.95764 9.05589C9.91942 9.28448 9.87986 9.50413 9.84026 9.72407C9.79753 9.96132 9.75476 10.1989 9.71352 10.4484L6.875 22.5L9.04364 22.4724L10.3494 16.9466C10.7223 17.4693 11.2112 17.9037 11.78 18.2176C12.3894 18.5141 13.063 18.6638 13.7443 18.6541L14.1303 18.654C14.9088 18.6012 15.6635 18.3979 16.333 18.0076C17.1594 17.5626 17.8401 16.9 18.2973 16.0957C18.7705 15.3644 19.1033 14.5556 19.2794 13.7086C19.5097 12.866 19.5865 11.9908 19.5065 11.1225C19.4553 10.1241 19.0338 9.17777 18.32 8.4591C17.972 8.13687 17.561 7.88618 17.1113 7.72195C16.6617 7.55769 16.1827 7.48329 15.7028 7.50314ZM14.1301 8.88463C13.8272 8.98301 13.5375 9.11656 13.2674 9.28242C12.7092 9.67321 12.2603 10.1937 11.9617 10.7965C11.5729 11.4914 11.2844 12.2352 11.1044 13.0068C10.93 13.6949 10.8611 14.4043 10.9 15.1121C10.9042 15.3948 10.9669 15.6738 11.0843 15.9325C11.2018 16.1911 11.3715 16.4241 11.5834 16.6175C11.7954 16.8109 12.0451 16.9607 12.3179 17.0581C12.5906 17.1555 12.8807 17.1984 13.1709 17.1842C13.4893 17.1868 13.8236 17.1472 14.1303 17.064L14.1482 17.0588C14.423 16.9782 14.6905 16.8998 14.9478 16.7753C15.5146 16.4157 15.9777 15.9212 16.2933 15.3386C16.6702 14.689 16.9584 13.9943 17.1505 13.272C17.3388 12.5712 17.4078 11.8451 17.3549 11.1225C17.3084 10.4909 17.0512 9.89138 16.6225 9.41506C16.403 9.20277 16.1412 9.0364 15.8532 8.92618C15.5652 8.81596 15.2571 8.76419 14.9478 8.77405C14.6705 8.77318 14.3947 8.81418 14.1303 8.89564L14.1301 8.88463ZM27.2262 9.55661C27.4552 9.5104 27.6878 9.48294 27.9216 9.4745C28.1524 9.46885 28.382 9.50815 28.5965 9.59001C28.8111 9.67187 29.0062 9.79459 29.17 9.95081C29.5093 10.305 29.7001 10.7672 29.7058 11.2485C29.7446 11.8589 29.6889 12.4715 29.5405 13.0662C29.3813 13.7448 29.1482 14.4055 28.8451 15.0373C28.6266 15.506 28.3036 15.9228 27.8988 16.2583C27.6984 16.4175 27.459 16.5249 27.2034 16.5703V18.6236C27.2625 18.6236 27.3328 18.6329 27.4039 18.6424C27.4767 18.6521 27.5504 18.6619 27.6138 18.6619C28.4489 18.6698 29.2714 18.4665 29.9988 18.0725C30.7263 17.6785 31.3329 17.1075 31.7579 16.4171C32.8568 14.8258 33.3166 12.9054 33.052 11.013C33.0414 10.0498 32.6619 9.12395 31.986 8.4123C31.6474 8.10464 31.2478 7.86561 30.8111 7.70946C30.3743 7.55331 29.9092 7.48322 29.4436 7.50339C28.7764 7.4897 28.115 7.62466 27.5112 7.89763C27.4207 7.94711 27.3252 7.98746 27.2262 8.01807V9.55661ZM27.2262 9.55661L27.2148 8.01807C26.6963 8.31979 26.2145 8.67603 25.7783 9.08026L25.8581 7.78266H22.7799C22.7001 8.50539 22.4948 9.61138 22.1642 11.0678L19.5363 22.5H22.9566L24.2677 16.866C24.5609 17.425 25.0241 17.8852 25.5959 18.1855C26.0906 18.4402 26.6373 18.5879 27.1976 18.6181V16.5649C27.0369 16.6134 26.8701 16.6411 26.7017 16.647C26.4483 16.6577 26.1957 16.6141 25.962 16.5194C25.7284 16.4247 25.5196 16.2813 25.3507 16.0995C24.9681 15.6695 24.7508 15.1264 24.7351 14.561C24.5876 13.3283 24.8617 12.0829 25.516 11.013C25.8732 10.3368 26.4844 9.81621 27.2262 9.55661Z" fill="#0054A4" style="fill:#0054A4;fill:color(display-p3 0.0000 0.3294 0.6431);fill-opacity:1;"/>
</svg>
