<svg width="32" height="32" viewBox="0 0 32 32" fill="none" xmlns="http://www.w3.org/2000/svg">
<rect x="0.5" y="0.5" width="31" height="31" rx="7.5" fill="white" style="fill:white;fill-opacity:1;"/>
<rect x="0.5" y="0.5" width="31" height="31" rx="7.5" stroke="#EEEEEE" style="stroke:#EEEEEE;stroke:color(display-p3 0.9333 0.9333 0.9333);stroke-opacity:1;"/>
<path fill-rule="evenodd" clip-rule="evenodd" d="M12.5505 23.221C15.7646 24.7582 19.7314 23.9975 22.1278 21.1421C24.9682 17.7577 24.527 12.7122 21.1424 9.8728L18.8924 12.5538C21.5365 14.7721 21.8812 18.7139 19.6622 21.3579C17.8927 23.466 14.9794 24.1701 12.5505 23.221Z" fill="url(#paint0_linear_4559_356)" style=""/>
<path fill-rule="evenodd" clip-rule="evenodd" d="M12.5505 23.221C15.7646 24.7582 19.7314 23.9975 22.1278 21.1421C22.4165 20.7983 22.6759 20.431 22.9034 20.044C23.2819 17.6924 22.4496 15.2066 20.492 13.5643C20.007 13.1568 19.469 12.817 18.8927 12.5542C21.5366 14.7725 21.8811 18.714 19.6622 21.3579C17.8928 23.4662 14.9796 24.1701 12.5505 23.221Z" fill="url(#paint1_linear_4559_356)" style=""/>
<path fill-rule="evenodd" clip-rule="evenodd" d="M19.4495 8.77891C16.2355 7.24185 12.2687 8.0026 9.8723 10.858C7.03187 14.2424 7.47303 19.2878 10.8576 22.1272L13.1078 19.4462C10.4635 17.228 10.1188 13.2862 12.3379 10.6421C14.1073 8.53376 17.0205 7.82988 19.4494 8.779" fill="url(#paint2_linear_4559_356)" style=""/>
<path fill-rule="evenodd" clip-rule="evenodd" d="M19.4495 8.77891C16.2355 7.24185 12.2687 8.0026 9.8723 10.858C9.58358 11.2017 9.32412 11.569 9.09662 11.956C8.71816 14.3077 9.55043 16.7934 11.5081 18.4358C11.9931 18.8432 12.5311 19.183 13.1074 19.4459C10.4635 17.2276 10.119 13.2861 12.3379 10.6421C14.1073 8.53376 17.0205 7.82988 19.4494 8.779" fill="url(#paint3_linear_4559_356)" style=""/>
<defs>
<linearGradient id="paint0_linear_4559_356" x1="21.8035" y1="18.2978" x2="18.4043" y2="11.5265" gradientUnits="userSpaceOnUse">
<stop stop-color="#EF2131" style="stop-color:#EF2131;stop-color:color(display-p3 0.9373 0.1294 0.1922);stop-opacity:1;"/>
<stop offset="1" stop-color="#FECF2C" style="stop-color:#FECF2C;stop-color:color(display-p3 0.9961 0.8118 0.1725);stop-opacity:1;"/>
</linearGradient>
<linearGradient id="paint1_linear_4559_356" x1="18.6923" y1="12.5541" x2="12.7336" y2="22.8696" gradientUnits="userSpaceOnUse">
<stop stop-color="#FBC52C" style="stop-color:#FBC52C;stop-color:color(display-p3 0.9843 0.7725 0.1725);stop-opacity:1;"/>
<stop offset="0.264" stop-color="#F87130" style="stop-color:#F87130;stop-color:color(display-p3 0.9725 0.4431 0.1882);stop-opacity:1;"/>
<stop offset="0.561" stop-color="#EF52E2" style="stop-color:#EF52E2;stop-color:color(display-p3 0.9373 0.3216 0.8863);stop-opacity:1;"/>
<stop offset="1" stop-color="#661EEC" style="stop-color:#661EEC;stop-color:color(display-p3 0.4000 0.1176 0.9255);stop-opacity:1;"/>
</linearGradient>
<linearGradient id="paint2_linear_4559_356" x1="10.3551" y1="13.7947" x2="13.6129" y2="20.4205" gradientUnits="userSpaceOnUse">
<stop stop-color="#78F6D8" style="stop-color:#78F6D8;stop-color:color(display-p3 0.4706 0.9647 0.8471);stop-opacity:1;"/>
<stop offset="0.266" stop-color="#77D1F6" style="stop-color:#77D1F6;stop-color:color(display-p3 0.4667 0.8196 0.9647);stop-opacity:1;"/>
<stop offset="0.554" stop-color="#70A4F3" style="stop-color:#70A4F3;stop-color:color(display-p3 0.4392 0.6431 0.9529);stop-opacity:1;"/>
<stop offset="1" stop-color="#661EEC" style="stop-color:#661EEC;stop-color:color(display-p3 0.4000 0.1176 0.9255);stop-opacity:1;"/>
</linearGradient>
<linearGradient id="paint3_linear_4559_356" x1="13.4392" y1="19.4459" x2="19.3515" y2="9.16573" gradientUnits="userSpaceOnUse">
<stop stop-color="#536EED" style="stop-color:#536EED;stop-color:color(display-p3 0.3255 0.4314 0.9294);stop-opacity:1;"/>
<stop offset="0.247" stop-color="#54C3EC" style="stop-color:#54C3EC;stop-color:color(display-p3 0.3294 0.7647 0.9255);stop-opacity:1;"/>
<stop offset="0.564" stop-color="#64D769" style="stop-color:#64D769;stop-color:color(display-p3 0.3922 0.8431 0.4118);stop-opacity:1;"/>
<stop offset="1" stop-color="#FECF2C" style="stop-color:#FECF2C;stop-color:color(display-p3 0.9961 0.8118 0.1725);stop-opacity:1;"/>
</linearGradient>
</defs>
</svg>
