<svg width="64" height="48" viewBox="0 0 64 48" fill="none" xmlns="http://www.w3.org/2000/svg">
<rect x="1" y="1" width="62" height="46" rx="7" fill="white" style="fill:white;fill-opacity:1;"/>
<rect x="1" y="1" width="62" height="46" rx="7" stroke="#ECECF0" style="stroke:#ECECF0;stroke:color(display-p3 0.9255 0.9255 0.9412);stroke-opacity:1;" stroke-width="2"/>
<path fill-rule="evenodd" clip-rule="evenodd" d="M25.1008 38.4419C31.529 41.5164 39.4626 39.9949 44.2553 34.2842C49.9361 27.5153 49.0538 17.4245 42.2846 11.7456L37.7846 17.1076C43.0728 21.5442 43.7622 29.4278 39.3243 34.7159C35.7851 38.932 29.9585 40.3402 25.1008 38.4419Z" fill="url(#paint0_linear_4559_380)" style=""/>
<path fill-rule="evenodd" clip-rule="evenodd" d="M25.1008 38.4419C31.529 41.5164 39.4626 39.9949 44.2553 34.2842C44.8327 33.5966 45.3516 32.862 45.8066 32.088C46.5635 27.3846 44.899 22.4132 40.9837 19.1285C40.0137 18.3136 38.9377 17.634 37.7851 17.1083C43.073 21.5449 43.7619 29.4279 39.3241 34.7157C35.7853 38.9324 29.9589 40.3401 25.1008 38.4419Z" fill="url(#paint1_linear_4559_380)" style=""/>
<path fill-rule="evenodd" clip-rule="evenodd" d="M38.899 9.55782C32.4709 6.4837 24.5375 8.0052 19.7446 13.7159C14.0637 20.4848 14.9461 30.5756 21.7153 36.2545L26.2155 30.8925C20.927 26.4559 20.2376 18.5723 24.6758 13.2842C28.2146 9.06752 34.041 7.65977 38.8989 9.558" fill="url(#paint2_linear_4559_380)" style=""/>
<path fill-rule="evenodd" clip-rule="evenodd" d="M38.899 9.55782C32.4709 6.4837 24.5375 8.0052 19.7446 13.7159C19.1672 14.4034 18.6482 15.1381 18.1932 15.9121C17.4363 20.6154 19.1009 25.5867 23.0162 28.8716C23.9861 29.6865 25.0621 30.3661 26.2148 30.8918C20.927 26.4552 20.238 18.5722 24.6758 13.2842C28.2145 9.06752 34.041 7.65977 38.8989 9.558" fill="url(#paint3_linear_4559_380)" style=""/>
<defs>
<linearGradient id="paint0_linear_4559_380" x1="43.6067" y1="28.5957" x2="36.8084" y2="15.053" gradientUnits="userSpaceOnUse">
<stop stop-color="#EF2131" style="stop-color:#EF2131;stop-color:color(display-p3 0.9373 0.1294 0.1922);stop-opacity:1;"/>
<stop offset="1" stop-color="#FECF2C" style="stop-color:#FECF2C;stop-color:color(display-p3 0.9961 0.8118 0.1725);stop-opacity:1;"/>
</linearGradient>
<linearGradient id="paint1_linear_4559_380" x1="37.3844" y1="17.1081" x2="25.4669" y2="37.7392" gradientUnits="userSpaceOnUse">
<stop stop-color="#FBC52C" style="stop-color:#FBC52C;stop-color:color(display-p3 0.9843 0.7725 0.1725);stop-opacity:1;"/>
<stop offset="0.264" stop-color="#F87130" style="stop-color:#F87130;stop-color:color(display-p3 0.9725 0.4431 0.1882);stop-opacity:1;"/>
<stop offset="0.561" stop-color="#EF52E2" style="stop-color:#EF52E2;stop-color:color(display-p3 0.9373 0.3216 0.8863);stop-opacity:1;"/>
<stop offset="1" stop-color="#661EEC" style="stop-color:#661EEC;stop-color:color(display-p3 0.4000 0.1176 0.9255);stop-opacity:1;"/>
</linearGradient>
<linearGradient id="paint2_linear_4559_380" x1="20.7102" y1="19.5893" x2="27.2259" y2="32.8409" gradientUnits="userSpaceOnUse">
<stop stop-color="#78F6D8" style="stop-color:#78F6D8;stop-color:color(display-p3 0.4706 0.9647 0.8471);stop-opacity:1;"/>
<stop offset="0.266" stop-color="#77D1F6" style="stop-color:#77D1F6;stop-color:color(display-p3 0.4667 0.8196 0.9647);stop-opacity:1;"/>
<stop offset="0.554" stop-color="#70A4F3" style="stop-color:#70A4F3;stop-color:color(display-p3 0.4392 0.6431 0.9529);stop-opacity:1;"/>
<stop offset="1" stop-color="#661EEC" style="stop-color:#661EEC;stop-color:color(display-p3 0.4000 0.1176 0.9255);stop-opacity:1;"/>
</linearGradient>
<linearGradient id="paint3_linear_4559_380" x1="26.8784" y1="30.8917" x2="38.703" y2="10.3315" gradientUnits="userSpaceOnUse">
<stop stop-color="#536EED" style="stop-color:#536EED;stop-color:color(display-p3 0.3255 0.4314 0.9294);stop-opacity:1;"/>
<stop offset="0.247" stop-color="#54C3EC" style="stop-color:#54C3EC;stop-color:color(display-p3 0.3294 0.7647 0.9255);stop-opacity:1;"/>
<stop offset="0.564" stop-color="#64D769" style="stop-color:#64D769;stop-color:color(display-p3 0.3922 0.8431 0.4118);stop-opacity:1;"/>
<stop offset="1" stop-color="#FECF2C" style="stop-color:#FECF2C;stop-color:color(display-p3 0.9961 0.8118 0.1725);stop-opacity:1;"/>
</linearGradient>
</defs>
</svg>
