<svg width="24" height="24" viewBox="0 0 24 24" fill="none" xmlns="http://www.w3.org/2000/svg">
<rect width="24" height="24" rx="6" fill="black" style="fill:black;fill-opacity:1;"/>
<g clip-path="url(#clip0_2572_621)">
<g clip-path="url(#clip1_2572_621)">
<path d="M21.375 16.8283C21.3578 17.1296 21.197 17.4049 20.9446 17.5685L12.6192 22.3972C12.3809 22.5343 11.9935 22.5343 11.7558 22.3972L3.43043 17.5685C3.19212 17.4315 3 17.103 3 16.8283V7.17218C3.01663 6.87028 3.1755 6.59553 3.43043 6.43131L11.7558 1.60326C11.9935 1.46558 12.3809 1.46558 12.6192 1.60326L20.9446 6.43131C21.1823 6.56652 21.375 6.89682 21.375 7.17218V16.8283Z" fill="white" style="fill:white;fill-opacity:1;"/>
<path d="M16.5306 12.0218L14.3532 15.2224L13.2423 13.5147L14.5244 11.5903C14.7627 11.2476 15.2726 10.3024 14.6833 9.01694C14.2066 7.96798 13.1721 7.46851 12.2657 7.46851C11.3586 7.46851 10.3728 7.93402 9.83827 9.01694C9.23727 10.2591 9.75884 11.226 9.98544 11.5563L11.2915 13.4931L12.2558 14.8939L13.7066 17.1252C13.7183 17.1369 13.9443 17.4889 14.3532 17.4889C14.7381 17.4889 14.9764 17.1369 15.0127 17.103L18.4137 12.0459H16.5306V12.0218ZM12.2558 12.1015L11.3131 10.6327C10.9159 9.98378 11.3586 9.01694 12.2558 9.01694C13.1506 9.01694 13.5933 9.98378 13.1968 10.6327L12.2558 12.1015Z" fill="url(#paint0_radial_2572_621)" style=""/>
<path d="M10.1684 15.1206L8.03468 12.1132L7.09376 10.6444C6.6972 9.99616 7.13995 9.02623 8.03468 9.02623C8.14737 9.02623 8.25082 9.03858 8.35181 9.07253L9.10245 7.69512C8.76069 7.54571 8.38814 7.46606 8.04638 7.46606C7.13995 7.46606 6.151 7.93405 5.61958 9.01697C5.01795 10.2567 5.54014 11.226 5.76613 11.5563L9.49963 17.103C9.53288 17.1469 9.77119 17.5012 10.1684 17.5012C10.5649 17.5012 10.7909 17.1586 10.8273 17.1129L11.948 15.3934L10.9861 13.9703L10.1684 15.1206Z" fill="url(#paint1_radial_2572_621)" style=""/>
</g>
</g>
<defs>
<radialGradient id="paint0_radial_2572_621" cx="0" cy="0" r="1" gradientUnits="userSpaceOnUse" gradientTransform="translate(11.5471 8.34553) scale(10.0321 11.3539)">
<stop stop-color="#FFCC00" style="stop-color:#FFCC00;stop-color:color(display-p3 1.0000 0.8000 0.0000);stop-opacity:1;"/>
<stop offset="0.09157" stop-color="#FFC800" style="stop-color:#FFC800;stop-color:color(display-p3 1.0000 0.7843 0.0000);stop-opacity:1;"/>
<stop offset="0.1739" stop-color="#FFBD00" style="stop-color:#FFBD00;stop-color:color(display-p3 1.0000 0.7412 0.0000);stop-opacity:1;"/>
<stop offset="0.2528" stop-color="#FFAB00" style="stop-color:#FFAB00;stop-color:color(display-p3 1.0000 0.6706 0.0000);stop-opacity:1;"/>
<stop offset="0.3295" stop-color="#FF9100" style="stop-color:#FF9100;stop-color:color(display-p3 1.0000 0.5686 0.0000);stop-opacity:1;"/>
<stop offset="0.4046" stop-color="#FF7000" style="stop-color:#FF7000;stop-color:color(display-p3 1.0000 0.4392 0.0000);stop-opacity:1;"/>
<stop offset="0.4786" stop-color="#FF4700" style="stop-color:#FF4700;stop-color:color(display-p3 1.0000 0.2784 0.0000);stop-opacity:1;"/>
<stop offset="0.5503" stop-color="#FF1800" style="stop-color:#FF1800;stop-color:color(display-p3 1.0000 0.0941 0.0000);stop-opacity:1;"/>
<stop offset="0.5822" stop-color="#FF0000" style="stop-color:#FF0000;stop-color:color(display-p3 1.0000 0.0000 0.0000);stop-opacity:1;"/>
<stop offset="1" stop-color="#FF0000" style="stop-color:#FF0000;stop-color:color(display-p3 1.0000 0.0000 0.0000);stop-opacity:1;"/>
</radialGradient>
<radialGradient id="paint1_radial_2572_621" cx="0" cy="0" r="1" gradientUnits="userSpaceOnUse" gradientTransform="translate(5.50038 8.92455) scale(9.1988 13.9645)">
<stop stop-color="#00B4E6" style="stop-color:#00B4E6;stop-color:color(display-p3 0.0000 0.7059 0.9020);stop-opacity:1;"/>
<stop offset="0.201" stop-color="#00B0E3" style="stop-color:#00B0E3;stop-color:color(display-p3 0.0000 0.6902 0.8902);stop-opacity:1;"/>
<stop offset="0.3898" stop-color="#01A5DB" style="stop-color:#01A5DB;stop-color:color(display-p3 0.0039 0.6471 0.8588);stop-opacity:1;"/>
<stop offset="0.5737" stop-color="#0292CD" style="stop-color:#0292CD;stop-color:color(display-p3 0.0078 0.5725 0.8039);stop-opacity:1;"/>
<stop offset="0.7546" stop-color="#0377BA" style="stop-color:#0377BA;stop-color:color(display-p3 0.0118 0.4667 0.7294);stop-opacity:1;"/>
<stop offset="0.9316" stop-color="#0455A1" style="stop-color:#0455A1;stop-color:color(display-p3 0.0157 0.3333 0.6314);stop-opacity:1;"/>
<stop offset="1" stop-color="#054696" style="stop-color:#054696;stop-color:color(display-p3 0.0196 0.2745 0.5882);stop-opacity:1;"/>
</radialGradient>
<clipPath id="clip0_2572_621">
<rect width="18.375" height="21" fill="white" style="fill:white;fill-opacity:1;" transform="translate(3 1.5)"/>
</clipPath>
<clipPath id="clip1_2572_621">
<rect width="18.375" height="21" fill="white" style="fill:white;fill-opacity:1;" transform="translate(3 1.5)"/>
</clipPath>
</defs>
</svg>
