<svg width="32" height="24" viewBox="0 0 32 24" fill="none" xmlns="http://www.w3.org/2000/svg">
<rect width="32" height="24" rx="4" fill="black" style="fill:black;fill-opacity:1;"/>
<path d="M24.5 16.5984C24.484 16.8853 24.3354 17.1475 24.1018 17.3033L16.3994 21.9021C16.1789 22.0326 15.8206 22.0326 15.6006 21.9021L7.89822 17.3033C7.67774 17.1728 7.5 16.86 7.5 16.5984V7.40207C7.51538 7.11455 7.66237 6.85288 7.89822 6.69648L15.6006 2.09834C15.8206 1.96722 16.1789 1.96722 16.3994 2.09834L24.1018 6.69648C24.3217 6.82525 24.5 7.13983 24.5 7.40207V16.5984Z" fill="white" style="fill:white;fill-opacity:1;"/>
<path d="M20.018 12.0208L18.0035 15.0689L16.9757 13.4426L18.1618 11.6098C18.3823 11.2834 18.854 10.3832 18.3088 9.15902C17.8678 8.16001 16.9107 7.68433 16.0722 7.68433C15.233 7.68433 14.3209 8.12767 13.8264 9.15902C13.2704 10.3421 13.7529 11.2629 13.9626 11.5774L15.1709 13.422L16.063 14.7562L17.4053 16.8812C17.4161 16.8924 17.6252 17.2275 18.0035 17.2275C18.3595 17.2275 18.58 16.8924 18.6137 16.86L21.7601 12.0437H20.018V12.0208ZM16.063 12.0967L15.1908 10.6978C14.8233 10.0798 15.233 9.15902 16.063 9.15902C16.8908 9.15902 17.3004 10.0798 16.9336 10.6978L16.063 12.0967Z" fill="url(#paint0_radial_2740_2128)" style=""/>
<path d="M14.1318 14.972L12.1577 12.1078L11.2872 10.7089C10.9203 10.0916 11.3299 9.16782 12.1577 9.16782C12.262 9.16782 12.3577 9.17958 12.4512 9.21192L13.1456 7.9001C12.8294 7.7578 12.4848 7.68195 12.1686 7.68195C11.3299 7.68195 10.415 8.12765 9.92335 9.159C9.36675 10.3397 9.84986 11.2628 10.0589 11.5774L13.5131 16.86C13.5438 16.9018 13.7643 17.2392 14.1318 17.2392C14.4986 17.2392 14.7077 16.9129 14.7413 16.8694L15.7783 15.2318L14.8883 13.8765L14.1318 14.972Z" fill="url(#paint1_radial_2740_2128)" style=""/>
<defs>
<radialGradient id="paint0_radial_2740_2128" cx="0" cy="0" r="1" gradientUnits="userSpaceOnUse" gradientTransform="translate(15.4073 8.51958) scale(9.28136 10.8132)">
<stop stop-color="#FFCC00" style="stop-color:#FFCC00;stop-color:color(display-p3 1.0000 0.8000 0.0000);stop-opacity:1;"/>
<stop offset="0.09157" stop-color="#FFC800" style="stop-color:#FFC800;stop-color:color(display-p3 1.0000 0.7843 0.0000);stop-opacity:1;"/>
<stop offset="0.1739" stop-color="#FFBD00" style="stop-color:#FFBD00;stop-color:color(display-p3 1.0000 0.7412 0.0000);stop-opacity:1;"/>
<stop offset="0.2528" stop-color="#FFAB00" style="stop-color:#FFAB00;stop-color:color(display-p3 1.0000 0.6706 0.0000);stop-opacity:1;"/>
<stop offset="0.3295" stop-color="#FF9100" style="stop-color:#FF9100;stop-color:color(display-p3 1.0000 0.5686 0.0000);stop-opacity:1;"/>
<stop offset="0.4046" stop-color="#FF7000" style="stop-color:#FF7000;stop-color:color(display-p3 1.0000 0.4392 0.0000);stop-opacity:1;"/>
<stop offset="0.4786" stop-color="#FF4700" style="stop-color:#FF4700;stop-color:color(display-p3 1.0000 0.2784 0.0000);stop-opacity:1;"/>
<stop offset="0.5503" stop-color="#FF1800" style="stop-color:#FF1800;stop-color:color(display-p3 1.0000 0.0941 0.0000);stop-opacity:1;"/>
<stop offset="0.5822" stop-color="#FF0000" style="stop-color:#FF0000;stop-color:color(display-p3 1.0000 0.0000 0.0000);stop-opacity:1;"/>
<stop offset="1" stop-color="#FF0000" style="stop-color:#FF0000;stop-color:color(display-p3 1.0000 0.0000 0.0000);stop-opacity:1;"/>
</radialGradient>
<radialGradient id="paint1_radial_2740_2128" cx="0" cy="0" r="1" gradientUnits="userSpaceOnUse" gradientTransform="translate(9.81307 9.07098) scale(8.51046 13.2995)">
<stop stop-color="#00B4E6" style="stop-color:#00B4E6;stop-color:color(display-p3 0.0000 0.7059 0.9020);stop-opacity:1;"/>
<stop offset="0.201" stop-color="#00B0E3" style="stop-color:#00B0E3;stop-color:color(display-p3 0.0000 0.6902 0.8902);stop-opacity:1;"/>
<stop offset="0.3898" stop-color="#01A5DB" style="stop-color:#01A5DB;stop-color:color(display-p3 0.0039 0.6471 0.8588);stop-opacity:1;"/>
<stop offset="0.5737" stop-color="#0292CD" style="stop-color:#0292CD;stop-color:color(display-p3 0.0078 0.5725 0.8039);stop-opacity:1;"/>
<stop offset="0.7546" stop-color="#0377BA" style="stop-color:#0377BA;stop-color:color(display-p3 0.0118 0.4667 0.7294);stop-opacity:1;"/>
<stop offset="0.9316" stop-color="#0455A1" style="stop-color:#0455A1;stop-color:color(display-p3 0.0157 0.3333 0.6314);stop-opacity:1;"/>
<stop offset="1" stop-color="#054696" style="stop-color:#054696;stop-color:color(display-p3 0.0196 0.2745 0.5882);stop-opacity:1;"/>
</radialGradient>
</defs>
</svg>
