<svg width="48" height="36" viewBox="0 0 48 36" fill="none" xmlns="http://www.w3.org/2000/svg">
<rect width="48" height="36" rx="6" fill="black" style="fill:black;fill-opacity:1;"/>
<path d="M36.75 24.8975C36.7261 25.328 36.5031 25.7213 36.1527 25.955L24.5991 32.8531C24.2683 33.049 23.7308 33.049 23.4009 32.8531L11.8473 25.955C11.5166 25.7593 11.25 25.29 11.25 24.8975V11.1031C11.2731 10.6718 11.4936 10.2793 11.8473 10.0447L23.4009 3.14751C23.7308 2.95083 24.2683 2.95083 24.5991 3.14751L36.1527 10.0447C36.4825 10.2379 36.75 10.7097 36.75 11.1031V24.8975Z" fill="white" style="fill:white;fill-opacity:1;"/>
<path d="M30.0269 18.0311L27.0052 22.6034L25.4636 20.1638L27.2428 17.4147C27.5734 16.9251 28.281 15.5748 27.4632 13.7385C26.8018 12.24 25.3661 11.5265 24.1083 11.5265C22.8495 11.5265 21.4813 12.1915 20.7396 13.7385C19.9056 15.5131 20.6293 16.8943 20.9438 17.3661L22.7563 20.133L24.0945 22.1342L26.1079 25.3218C26.1242 25.3385 26.4378 25.8412 27.0052 25.8412C27.5393 25.8412 27.8701 25.3385 27.9205 25.29L32.6401 18.0655H30.0269V18.0311ZM24.0945 18.145L22.7862 16.0467C22.235 15.1197 22.8495 13.7385 24.0945 13.7385C25.3362 13.7385 25.9506 15.1197 25.4004 16.0467L24.0945 18.145Z" fill="url(#paint0_radial_2740_2124)" style=""/>
<path d="M21.1979 22.458L18.2368 18.1617L16.9311 16.0634C16.3807 15.1373 16.9951 13.7517 18.2368 13.7517C18.3932 13.7517 18.5367 13.7694 18.677 13.8179L19.7187 11.8501C19.2444 11.6367 18.7274 11.5229 18.2531 11.5229C16.9951 11.5229 15.6228 12.1915 14.8853 13.7385C14.0504 15.5095 14.775 16.8943 15.0887 17.3661L20.2699 25.29C20.3159 25.3527 20.6467 25.8588 21.1979 25.8588C21.7482 25.8588 22.0618 25.3694 22.1123 25.3041L23.6676 22.8477L22.3327 20.8147L21.1979 22.458Z" fill="url(#paint1_radial_2740_2124)" style=""/>
<defs>
<radialGradient id="paint0_radial_2740_2124" cx="0" cy="0" r="1" gradientUnits="userSpaceOnUse" gradientTransform="translate(23.1109 12.7793) scale(13.922 16.2198)">
<stop stop-color="#FFCC00" style="stop-color:#FFCC00;stop-color:color(display-p3 1.0000 0.8000 0.0000);stop-opacity:1;"/>
<stop offset="0.09157" stop-color="#FFC800" style="stop-color:#FFC800;stop-color:color(display-p3 1.0000 0.7843 0.0000);stop-opacity:1;"/>
<stop offset="0.1739" stop-color="#FFBD00" style="stop-color:#FFBD00;stop-color:color(display-p3 1.0000 0.7412 0.0000);stop-opacity:1;"/>
<stop offset="0.2528" stop-color="#FFAB00" style="stop-color:#FFAB00;stop-color:color(display-p3 1.0000 0.6706 0.0000);stop-opacity:1;"/>
<stop offset="0.3295" stop-color="#FF9100" style="stop-color:#FF9100;stop-color:color(display-p3 1.0000 0.5686 0.0000);stop-opacity:1;"/>
<stop offset="0.4046" stop-color="#FF7000" style="stop-color:#FF7000;stop-color:color(display-p3 1.0000 0.4392 0.0000);stop-opacity:1;"/>
<stop offset="0.4786" stop-color="#FF4700" style="stop-color:#FF4700;stop-color:color(display-p3 1.0000 0.2784 0.0000);stop-opacity:1;"/>
<stop offset="0.5503" stop-color="#FF1800" style="stop-color:#FF1800;stop-color:color(display-p3 1.0000 0.0941 0.0000);stop-opacity:1;"/>
<stop offset="0.5822" stop-color="#FF0000" style="stop-color:#FF0000;stop-color:color(display-p3 1.0000 0.0000 0.0000);stop-opacity:1;"/>
<stop offset="1" stop-color="#FF0000" style="stop-color:#FF0000;stop-color:color(display-p3 1.0000 0.0000 0.0000);stop-opacity:1;"/>
</radialGradient>
<radialGradient id="paint1_radial_2740_2124" cx="0" cy="0" r="1" gradientUnits="userSpaceOnUse" gradientTransform="translate(14.7199 13.6065) scale(12.7657 19.9493)">
<stop stop-color="#00B4E6" style="stop-color:#00B4E6;stop-color:color(display-p3 0.0000 0.7059 0.9020);stop-opacity:1;"/>
<stop offset="0.201" stop-color="#00B0E3" style="stop-color:#00B0E3;stop-color:color(display-p3 0.0000 0.6902 0.8902);stop-opacity:1;"/>
<stop offset="0.3898" stop-color="#01A5DB" style="stop-color:#01A5DB;stop-color:color(display-p3 0.0039 0.6471 0.8588);stop-opacity:1;"/>
<stop offset="0.5737" stop-color="#0292CD" style="stop-color:#0292CD;stop-color:color(display-p3 0.0078 0.5725 0.8039);stop-opacity:1;"/>
<stop offset="0.7546" stop-color="#0377BA" style="stop-color:#0377BA;stop-color:color(display-p3 0.0118 0.4667 0.7294);stop-opacity:1;"/>
<stop offset="0.9316" stop-color="#0455A1" style="stop-color:#0455A1;stop-color:color(display-p3 0.0157 0.3333 0.6314);stop-opacity:1;"/>
<stop offset="1" stop-color="#054696" style="stop-color:#054696;stop-color:color(display-p3 0.0196 0.2745 0.5882);stop-opacity:1;"/>
</radialGradient>
</defs>
</svg>
