<svg width="24" height="24" viewBox="0 0 24 24" fill="none" xmlns="http://www.w3.org/2000/svg">
<rect width="24" height="24" rx="6" fill="#1B16E6" style="fill:#1B16E6;fill:color(display-p3 0.1059 0.0863 0.9020);fill-opacity:1;"/>
<g clip-path="url(#clip0_1857_1038)">
<path fill-rule="evenodd" clip-rule="evenodd" d="M11.6842 10.8414C11.6739 11.6438 12.4058 12.0916 12.9571 12.3578C13.5236 12.6309 13.7139 12.8061 13.7117 13.0503C13.7074 13.4242 13.2598 13.5892 12.8409 13.5956C12.1101 13.6068 11.6853 13.4001 11.3475 13.2437L11.0842 14.4643C11.4231 14.6191 12.0507 14.7541 12.7015 14.76C14.229 14.76 15.2284 14.0128 15.2338 12.8543C15.2397 11.384 13.1814 11.3026 13.1955 10.6454C13.2004 10.4462 13.3922 10.2335 13.8128 10.1794C14.0209 10.1521 14.5954 10.1312 15.2468 10.4285L15.5024 9.24746C15.1522 9.12104 14.7019 9 14.1414 9C12.7036 9 11.6923 9.75736 11.6842 10.8414ZM17.9589 9.10179C17.68 9.10179 17.4449 9.263 17.34 9.51046L15.158 14.6732H16.6844L16.9882 13.8414H18.8535L19.0296 14.6732H20.375L19.2011 9.10179H17.9589ZM18.1731 10.6069L18.6137 12.699H17.4072L18.1731 10.6069ZM9.83342 9.10179L8.63023 14.6732H10.0848L11.2874 9.10179H9.83342ZM7.68179 9.10179L6.1678 12.8939L5.5554 9.66953C5.48351 9.3096 5.19974 9.10179 4.88462 9.10179H2.40959L2.375 9.26354C2.88309 9.3728 3.46036 9.54903 3.81008 9.73755C4.02412 9.85271 4.0852 9.9534 4.15547 10.2271L5.31542 14.6732H6.85265L9.2093 9.10179H7.68179Z" fill="white" style="fill:white;fill-opacity:1;"/>
</g>
<defs>
<clipPath id="clip0_1857_1038">
<rect width="18" height="6" fill="white" style="fill:white;fill-opacity:1;" transform="translate(3 9)"/>
</clipPath>
</defs>
</svg>
