<svg width="64" height="48" viewBox="0 0 64 48" fill="none" xmlns="http://www.w3.org/2000/svg">
<rect width="64" height="48" rx="8" fill="#FBB427" style="fill:#FBB427;fill:color(display-p3 0.9843 0.7059 0.1529);fill-opacity:1;"/>
<rect x="1" y="1" width="62" height="46" rx="7" stroke="black" stroke-opacity="0.1" style="stroke:black;stroke-opacity:0.1;" stroke-width="2"/>
<g filter="url(#filter0_d_2740_2123)">
<path d="M8.70313 23.4573H25.2967C25.6851 23.4573 26 23.1309 26 22.728V21.1507C26 20.7479 25.6851 20.4213 25.2967 20.4213H8.70313C8.31479 20.4213 8 20.7479 8 21.1507V22.728C8 23.1309 8.31479 23.4573 8.70313 23.4573Z" fill="white" style="fill:white;fill-opacity:1;"/>
<path d="M9.6544 34H24.3457C24.734 34 25.0487 33.6736 25.0487 33.2708V22.6154H8.95129V33.2708C8.95129 33.6736 9.26608 34 9.6544 34Z" fill="white" style="fill:white;fill-opacity:1;"/>
<path d="M25.0486 23.4572H8.95117V24.3682H25.0486V23.4572Z" fill="#FBB427" style="fill:#FBB427;fill:color(display-p3 0.9843 0.7059 0.1529);fill-opacity:1;"/>
<path d="M16.3737 34V20.4213H15.4956V34H16.3737Z" fill="#FBB427" style="fill:#FBB427;fill:color(display-p3 0.9843 0.7059 0.1529);fill-opacity:1;"/>
<path d="M18.6364 34V20.4213H17.7583V34H18.6364Z" fill="#FBB427" style="fill:#FBB427;fill:color(display-p3 0.9843 0.7059 0.1529);fill-opacity:1;"/>
<path d="M16.9999 20.4212C16.8877 20.4212 16.7809 20.3716 16.7074 20.2825C16.6339 20.195 16.6006 20.0785 16.6168 19.9638C16.6254 19.9036 17.4905 14 22.0298 14C24.0294 14 24.7388 15.1205 24.7388 16.0797C24.7388 17.8825 22.3377 20.4212 16.9999 20.4212ZM22.0298 14.8027C18.8478 14.8027 17.7629 18.3223 17.4727 19.6106C21.7124 19.4742 23.965 17.5108 23.965 16.0797C23.965 15.7233 23.8203 15.4295 23.5364 15.2088C23.1959 14.9431 22.6742 14.8027 22.0298 14.8027Z" fill="white" style="fill:white;fill-opacity:1;"/>
<path d="M17.0005 20.4212C11.6626 20.4212 9.26147 17.8825 9.26147 16.0797C9.26147 15.4745 9.52379 14.9367 9.99892 14.5667C10.4748 14.1959 11.1566 14 11.9706 14C16.5099 14 17.375 19.9036 17.3835 19.9638C17.3998 20.0794 17.3665 20.195 17.293 20.2825C17.2195 20.3716 17.1127 20.4212 17.0005 20.4212ZM11.9706 14.8027C10.7766 14.8027 10.0353 15.2915 10.0353 16.0797C10.0353 17.5117 12.2894 19.475 16.5315 19.6114C16.2506 18.3151 15.1928 14.8027 11.9706 14.8027Z" fill="white" style="fill:white;fill-opacity:1;"/>
</g>
<path fill-rule="evenodd" clip-rule="evenodd" d="M33 5C33.5523 5 34 5.44772 34 6V10.5C34 11.0523 33.5523 11.5 33 11.5C32.4477 11.5 32 11.0523 32 10.5V6C32 5.44772 32.4477 5 33 5ZM33 18.5C33.5523 18.5 34 18.9477 34 19.5V28.5C34 29.0523 33.5523 29.5 33 29.5C32.4477 29.5 32 29.0523 32 28.5V19.5C32 18.9477 32.4477 18.5 33 18.5ZM33 36.5C33.5523 36.5 34 36.9477 34 37.5V42C34 42.5523 33.5523 43 33 43C32.4477 43 32 42.5523 32 42V37.5C32 36.9477 32.4477 36.5 33 36.5Z" fill="white" style="fill:white;fill-opacity:1;"/>
<g filter="url(#filter1_d_2740_2123)">
<path fill-rule="evenodd" clip-rule="evenodd" d="M56.0001 16.1094C56.0001 15.0451 55.2534 14.1149 54.2801 14.1966C54.1773 14.2052 54.0781 14.2168 53.9856 14.2321C51.1325 14.7015 50.8627 21.9373 50.9034 25.4823C50.9159 26.569 51.7381 27.4105 52.7349 27.4105H54.1069C55.1525 27.4105 56.0001 26.4865 56.0001 25.3465V16.1094ZM56.0001 28.5546C56.0001 27.9228 55.5304 27.4108 54.9509 27.4108C54.4053 27.4108 53.9507 27.8667 53.9053 28.4595L53.5908 32.575C53.5321 33.3422 54.0874 34 54.7934 34C55.4598 34 56.0001 33.4109 56.0001 32.6844V28.5546Z" fill="white" style="fill:white;fill-opacity:1;"/>
<path fill-rule="evenodd" clip-rule="evenodd" d="M45.3956 15.1765C45.3956 14.5267 44.9125 14 44.3165 14C43.7205 14 43.2374 14.5267 43.2374 15.1765V19.2941C43.2374 19.6189 42.9958 19.8823 42.6978 19.8823C42.3998 19.8823 42.1583 19.6189 42.1583 19.2941V15.1765C42.1583 14.5267 41.6751 14 41.0791 14C40.4831 14 40 14.5267 40 15.1765V20.1015C40 20.3437 40.0382 20.5763 40.1087 20.7922C40.3041 21.5931 40.7514 22.2821 41.3525 22.752C42.2224 23.4323 43.1391 24.3775 43.0855 25.5432L42.7787 32.2375C42.7345 33.1965 43.4358 34 44.3165 34C45.197 34 45.8983 33.1963 45.8542 32.2375L45.5473 25.5432C45.4937 24.3775 46.4106 23.4323 47.2803 22.752C47.8816 22.2821 48.329 21.5929 48.5243 20.7918C48.5946 20.5759 48.6328 20.3435 48.6328 20.1015V19.8954V19.8823C48.6328 19.8823 48.6328 19.8824 48.6328 19.8823V15.1764C48.6328 14.5267 48.1497 14 47.5537 14C46.9577 14 46.4746 14.5267 46.4746 15.1764V19.2941C46.4746 19.6189 46.233 19.8823 45.935 19.8823C45.637 19.8823 45.3956 19.6189 45.3956 19.2941V15.1765Z" fill="white" style="fill:white;fill-opacity:1;"/>
</g>
<defs>
<filter id="filter0_d_2740_2123" x="6" y="14" width="22" height="24" filterUnits="userSpaceOnUse" color-interpolation-filters="sRGB">
<feFlood flood-opacity="0" result="BackgroundImageFix"/>
<feColorMatrix in="SourceAlpha" type="matrix" values="0 0 0 0 0 0 0 0 0 0 0 0 0 0 0 0 0 0 127 0" result="hardAlpha"/>
<feOffset dy="2"/>
<feGaussianBlur stdDeviation="1"/>
<feColorMatrix type="matrix" values="0 0 0 0 0 0 0 0 0 0 0 0 0 0 0 0 0 0 0.07 0"/>
<feBlend mode="normal" in2="BackgroundImageFix" result="effect1_dropShadow_2740_2123"/>
<feBlend mode="normal" in="SourceGraphic" in2="effect1_dropShadow_2740_2123" result="shape"/>
</filter>
<filter id="filter1_d_2740_2123" x="38" y="14" width="20" height="24" filterUnits="userSpaceOnUse" color-interpolation-filters="sRGB">
<feFlood flood-opacity="0" result="BackgroundImageFix"/>
<feColorMatrix in="SourceAlpha" type="matrix" values="0 0 0 0 0 0 0 0 0 0 0 0 0 0 0 0 0 0 127 0" result="hardAlpha"/>
<feOffset dy="2"/>
<feGaussianBlur stdDeviation="1"/>
<feColorMatrix type="matrix" values="0 0 0 0 0 0 0 0 0 0 0 0 0 0 0 0 0 0 0.07 0"/>
<feBlend mode="normal" in2="BackgroundImageFix" result="effect1_dropShadow_2740_2123"/>
<feBlend mode="normal" in="SourceGraphic" in2="effect1_dropShadow_2740_2123" result="shape"/>
</filter>
</defs>
</svg>
