<svg width="40" height="30" viewBox="0 0 40 30" fill="none" xmlns="http://www.w3.org/2000/svg">
<rect width="40" height="30" rx="5" fill="#FBB427" style="fill:#FBB427;fill:color(display-p3 0.9843 0.7059 0.1529);fill-opacity:1;"/>
<rect x="0.625" y="0.625" width="38.75" height="28.75" rx="4.375" stroke="black" stroke-opacity="0.1" style="stroke:black;stroke-opacity:0.1;" stroke-width="1.25"/>
<g filter="url(#filter0_d_2740_2120)">
<path d="M5.43946 14.6608H15.8105C16.0532 14.6608 16.25 14.4568 16.25 14.205V13.2192C16.25 12.9674 16.0532 12.7633 15.8105 12.7633H5.43946C5.19675 12.7633 5 12.9674 5 13.2192V14.205C5 14.4568 5.19675 14.6608 5.43946 14.6608Z" fill="white" style="fill:white;fill-opacity:1;"/>
<path d="M6.034 21.25H15.216C15.4588 21.25 15.6554 21.046 15.6554 20.7942V14.1346H5.59456V20.7942C5.59456 21.046 5.7913 21.25 6.034 21.25Z" fill="white" style="fill:white;fill-opacity:1;"/>
<path d="M15.6554 14.6608H5.59448V15.2301H15.6554V14.6608Z" fill="#FBB427" style="fill:#FBB427;fill:color(display-p3 0.9843 0.7059 0.1529);fill-opacity:1;"/>
<path d="M10.2334 21.25V12.7633H9.68457V21.25H10.2334Z" fill="#FBB427" style="fill:#FBB427;fill:color(display-p3 0.9843 0.7059 0.1529);fill-opacity:1;"/>
<path d="M11.6479 21.25V12.7633H11.0991V21.25H11.6479Z" fill="#FBB427" style="fill:#FBB427;fill:color(display-p3 0.9843 0.7059 0.1529);fill-opacity:1;"/>
<path d="M10.625 12.7633C10.5549 12.7633 10.4881 12.7322 10.4422 12.6766C10.3962 12.6219 10.3754 12.5491 10.3856 12.4774C10.3909 12.4397 10.9316 8.75 13.7687 8.75C15.0184 8.75 15.4618 9.45033 15.4618 10.0498C15.4618 11.1765 13.9611 12.7633 10.625 12.7633ZM13.7687 9.25167C11.7799 9.25167 11.1019 11.4515 10.9205 12.2566C13.5703 12.1714 14.9782 10.9443 14.9782 10.0498C14.9782 9.82707 14.8878 9.64346 14.7103 9.50551C14.4975 9.33945 14.1715 9.25167 13.7687 9.25167Z" fill="white" style="fill:white;fill-opacity:1;"/>
<path d="M10.6252 12.7633C7.28906 12.7633 5.78833 11.1765 5.78833 10.0498C5.78833 9.67156 5.95228 9.33544 6.24923 9.10418C6.54668 8.87241 6.97276 8.75 7.48155 8.75C10.3186 8.75 10.8593 12.4397 10.8646 12.4774C10.8748 12.5496 10.854 12.6219 10.808 12.6766C10.7621 12.7322 10.6953 12.7633 10.6252 12.7633ZM7.48155 9.25167C6.73529 9.25167 6.27197 9.55718 6.27197 10.0498C6.27197 10.9448 7.68081 12.1718 10.3321 12.2571C10.1566 11.4469 9.49543 9.25167 7.48155 9.25167Z" fill="white" style="fill:white;fill-opacity:1;"/>
</g>
<path fill-rule="evenodd" clip-rule="evenodd" d="M20.625 3.125C20.9702 3.125 21.25 3.40482 21.25 3.75V6.5625C21.25 6.90768 20.9702 7.1875 20.625 7.1875C20.2798 7.1875 20 6.90768 20 6.5625V3.75C20 3.40482 20.2798 3.125 20.625 3.125ZM20.625 11.5625C20.9702 11.5625 21.25 11.8423 21.25 12.1875V17.8125C21.25 18.1577 20.9702 18.4375 20.625 18.4375C20.2798 18.4375 20 18.1577 20 17.8125V12.1875C20 11.8423 20.2798 11.5625 20.625 11.5625ZM20.625 22.8125C20.9702 22.8125 21.25 23.0923 21.25 23.4375V26.25C21.25 26.5952 20.9702 26.875 20.625 26.875C20.2798 26.875 20 26.5952 20 26.25V23.4375C20 23.0923 20.2798 22.8125 20.625 22.8125Z" fill="white" style="fill:white;fill-opacity:1;"/>
<g filter="url(#filter1_d_2740_2120)">
<path fill-rule="evenodd" clip-rule="evenodd" d="M34.9999 10.0684C34.9999 9.40317 34.5332 8.8218 33.9249 8.87288C33.8607 8.87828 33.7987 8.88554 33.7408 8.89506C31.9576 9.18847 31.789 13.7109 31.8145 15.9265C31.8223 16.6057 32.3362 17.1316 32.9591 17.1316H33.8166C34.4701 17.1316 34.9999 16.5541 34.9999 15.8416V10.0684ZM34.9999 17.8467C34.9999 17.4518 34.7063 17.1317 34.3441 17.1317C34.0031 17.1317 33.719 17.4167 33.6906 17.7872L33.4941 20.3594C33.4574 20.8389 33.8044 21.25 34.2457 21.25C34.6622 21.25 34.9999 20.8818 34.9999 20.4277V17.8467Z" fill="white" style="fill:white;fill-opacity:1;"/>
<path fill-rule="evenodd" clip-rule="evenodd" d="M28.3723 9.48529C28.3723 9.07919 28.0703 8.75 27.6978 8.75C27.3253 8.75 27.0234 9.07919 27.0234 9.48529V12.0588C27.0234 12.2618 26.8724 12.4264 26.6861 12.4264C26.4999 12.4264 26.3489 12.2618 26.3489 12.0588V9.48533C26.3489 9.07921 26.0469 8.75 25.6745 8.75C25.302 8.75 25 9.07921 25 9.48533V12.5634C25 12.7148 25.0239 12.8602 25.0679 12.9952C25.19 13.4957 25.4696 13.9263 25.8453 14.22C26.389 14.6452 26.962 15.2359 26.9285 15.9645L26.7367 20.1484C26.7091 20.7478 27.1474 21.25 27.6978 21.25C28.2481 21.25 28.6864 20.7477 28.6589 20.1484L28.467 15.9645C28.4336 15.2359 29.0066 14.6452 29.5502 14.22C29.926 13.9263 30.2056 13.4956 30.3277 12.9949C30.3716 12.86 30.3955 12.7147 30.3955 12.5634V12.4346V12.4265C30.3955 12.4264 30.3955 12.4265 30.3955 12.4265V9.48527C30.3955 9.07919 30.0935 8.75 29.7211 8.75C29.3486 8.75 29.0466 9.07919 29.0466 9.48527V12.0588C29.0466 12.2618 28.8956 12.4264 28.7094 12.4264C28.5231 12.4264 28.3723 12.2618 28.3723 12.0588V9.48529Z" fill="white" style="fill:white;fill-opacity:1;"/>
</g>
<defs>
<filter id="filter0_d_2740_2120" x="3.75" y="8.75" width="13.75" height="15" filterUnits="userSpaceOnUse" color-interpolation-filters="sRGB">
<feFlood flood-opacity="0" result="BackgroundImageFix"/>
<feColorMatrix in="SourceAlpha" type="matrix" values="0 0 0 0 0 0 0 0 0 0 0 0 0 0 0 0 0 0 127 0" result="hardAlpha"/>
<feOffset dy="1.25"/>
<feGaussianBlur stdDeviation="0.625"/>
<feColorMatrix type="matrix" values="0 0 0 0 0 0 0 0 0 0 0 0 0 0 0 0 0 0 0.07 0"/>
<feBlend mode="normal" in2="BackgroundImageFix" result="effect1_dropShadow_2740_2120"/>
<feBlend mode="normal" in="SourceGraphic" in2="effect1_dropShadow_2740_2120" result="shape"/>
</filter>
<filter id="filter1_d_2740_2120" x="23.75" y="8.75" width="12.5" height="15" filterUnits="userSpaceOnUse" color-interpolation-filters="sRGB">
<feFlood flood-opacity="0" result="BackgroundImageFix"/>
<feColorMatrix in="SourceAlpha" type="matrix" values="0 0 0 0 0 0 0 0 0 0 0 0 0 0 0 0 0 0 127 0" result="hardAlpha"/>
<feOffset dy="1.25"/>
<feGaussianBlur stdDeviation="0.625"/>
<feColorMatrix type="matrix" values="0 0 0 0 0 0 0 0 0 0 0 0 0 0 0 0 0 0 0.07 0"/>
<feBlend mode="normal" in2="BackgroundImageFix" result="effect1_dropShadow_2740_2120"/>
<feBlend mode="normal" in="SourceGraphic" in2="effect1_dropShadow_2740_2120" result="shape"/>
</filter>
</defs>
</svg>
